<?xml version="1.0" encoding="utf-8" standalone="no"?>
<!DOCTYPE svg PUBLIC "-//W3C//DTD SVG 1.1//EN"
  "http://www.w3.org/Graphics/SVG/1.1/DTD/svg11.dtd">
<svg xmlns:xlink="http://www.w3.org/1999/xlink" width="1080pt" height="432pt" viewBox="0 0 1080 432" xmlns="http://www.w3.org/2000/svg" version="1.1">
 <metadata>
  <rdf:RDF xmlns:dc="http://purl.org/dc/elements/1.1/" xmlns:cc="http://creativecommons.org/ns#" xmlns:rdf="http://www.w3.org/1999/02/22-rdf-syntax-ns#">
   <cc:Work>
    <dc:type rdf:resource="http://purl.org/dc/dcmitype/StillImage"/>
    <dc:date>2026-03-17T15:29:09.143781</dc:date>
    <dc:format>image/svg+xml</dc:format>
    <dc:creator>
     <cc:Agent>
      <dc:title>Matplotlib v3.10.8, https://matplotlib.org/</dc:title>
     </cc:Agent>
    </dc:creator>
   </cc:Work>
  </rdf:RDF>
 </metadata>
 <defs>
  <style type="text/css">*{stroke-linejoin: round; stroke-linecap: butt}</style>
 </defs>
 <g id="figure_1">
  <g id="patch_1">
   <path d="M 0 432 
L 1080 432 
L 1080 0 
L 0 0 
L 0 432 
z
" style="fill: none"/>
  </g>
  <g id="axes_1">
   <g id="patch_2">
    <path d="M 162 354.672 
L 1048.68 354.672 
L 1048.68 10.8 
L 162 10.8 
L 162 354.672 
z
" style="fill: none"/>
   </g>
   <g id="matplotlib.axis_1">
    <g id="xtick_1">
     <g id="line2d_1">
      <path d="M 162 354.672 
L 162 10.8 
" clip-path="url(#p18a4e57674)" style="fill: none; stroke: #b0b0b0; stroke-opacity: 0.25; stroke-width: 0.8; stroke-linecap: square"/>
     </g>
     <g id="line2d_2">
      <defs>
       <path id="m5589deb05d" d="M 0 0 
L 0 3.5 
" style="stroke: #000000; stroke-width: 0.8"/>
      </defs>
      <g>
       <use xlink:href="#m5589deb05d" x="162" y="354.672" style="stroke: #000000; stroke-width: 0.8"/>
      </g>
     </g>
     <g id="text_1">
      <!-- 0 -->
      <g transform="translate(153.0925 382.947625) scale(0.28 -0.28)">
       <defs>
        <path id="DejaVuSans-30" d="M 2034 4250 
Q 1547 4250 1301 3770 
Q 1056 3291 1056 2328 
Q 1056 1369 1301 889 
Q 1547 409 2034 409 
Q 2525 409 2770 889 
Q 3016 1369 3016 2328 
Q 3016 3291 2770 3770 
Q 2525 4250 2034 4250 
z
M 2034 4750 
Q 2819 4750 3233 4129 
Q 3647 3509 3647 2328 
Q 3647 1150 3233 529 
Q 2819 -91 2034 -91 
Q 1250 -91 836 529 
Q 422 1150 422 2328 
Q 422 3509 836 4129 
Q 1250 4750 2034 4750 
z
" transform="scale(0.015625)"/>
       </defs>
       <use xlink:href="#DejaVuSans-30"/>
      </g>
     </g>
    </g>
    <g id="xtick_2">
     <g id="line2d_3">
      <path d="M 309.78 354.672 
L 309.78 10.8 
" clip-path="url(#p18a4e57674)" style="fill: none; stroke: #b0b0b0; stroke-opacity: 0.25; stroke-width: 0.8; stroke-linecap: square"/>
     </g>
     <g id="line2d_4">
      <g>
       <use xlink:href="#m5589deb05d" x="309.78" y="354.672" style="stroke: #000000; stroke-width: 0.8"/>
      </g>
     </g>
     <g id="text_2">
      <!-- 30 -->
      <g transform="translate(291.965 382.947625) scale(0.28 -0.28)">
       <defs>
        <path id="DejaVuSans-33" d="M 2597 2516 
Q 3050 2419 3304 2112 
Q 3559 1806 3559 1356 
Q 3559 666 3084 287 
Q 2609 -91 1734 -91 
Q 1441 -91 1130 -33 
Q 819 25 488 141 
L 488 750 
Q 750 597 1062 519 
Q 1375 441 1716 441 
Q 2309 441 2620 675 
Q 2931 909 2931 1356 
Q 2931 1769 2642 2001 
Q 2353 2234 1838 2234 
L 1294 2234 
L 1294 2753 
L 1863 2753 
Q 2328 2753 2575 2939 
Q 2822 3125 2822 3475 
Q 2822 3834 2567 4026 
Q 2313 4219 1838 4219 
Q 1578 4219 1281 4162 
Q 984 4106 628 3988 
L 628 4550 
Q 988 4650 1302 4700 
Q 1616 4750 1894 4750 
Q 2613 4750 3031 4423 
Q 3450 4097 3450 3541 
Q 3450 3153 3228 2886 
Q 3006 2619 2597 2516 
z
" transform="scale(0.015625)"/>
       </defs>
       <use xlink:href="#DejaVuSans-33"/>
       <use xlink:href="#DejaVuSans-30" transform="translate(63.623047 0)"/>
      </g>
     </g>
    </g>
    <g id="xtick_3">
     <g id="line2d_5">
      <path d="M 457.56 354.672 
L 457.56 10.8 
" clip-path="url(#p18a4e57674)" style="fill: none; stroke: #b0b0b0; stroke-opacity: 0.25; stroke-width: 0.8; stroke-linecap: square"/>
     </g>
     <g id="line2d_6">
      <g>
       <use xlink:href="#m5589deb05d" x="457.56" y="354.672" style="stroke: #000000; stroke-width: 0.8"/>
      </g>
     </g>
     <g id="text_3">
      <!-- 60 -->
      <g transform="translate(439.745 382.947625) scale(0.28 -0.28)">
       <defs>
        <path id="DejaVuSans-36" d="M 2113 2584 
Q 1688 2584 1439 2293 
Q 1191 2003 1191 1497 
Q 1191 994 1439 701 
Q 1688 409 2113 409 
Q 2538 409 2786 701 
Q 3034 994 3034 1497 
Q 3034 2003 2786 2293 
Q 2538 2584 2113 2584 
z
M 3366 4563 
L 3366 3988 
Q 3128 4100 2886 4159 
Q 2644 4219 2406 4219 
Q 1781 4219 1451 3797 
Q 1122 3375 1075 2522 
Q 1259 2794 1537 2939 
Q 1816 3084 2150 3084 
Q 2853 3084 3261 2657 
Q 3669 2231 3669 1497 
Q 3669 778 3244 343 
Q 2819 -91 2113 -91 
Q 1303 -91 875 529 
Q 447 1150 447 2328 
Q 447 3434 972 4092 
Q 1497 4750 2381 4750 
Q 2619 4750 2861 4703 
Q 3103 4656 3366 4563 
z
" transform="scale(0.015625)"/>
       </defs>
       <use xlink:href="#DejaVuSans-36"/>
       <use xlink:href="#DejaVuSans-30" transform="translate(63.623047 0)"/>
      </g>
     </g>
    </g>
    <g id="xtick_4">
     <g id="line2d_7">
      <path d="M 605.34 354.672 
L 605.34 10.8 
" clip-path="url(#p18a4e57674)" style="fill: none; stroke: #b0b0b0; stroke-opacity: 0.25; stroke-width: 0.8; stroke-linecap: square"/>
     </g>
     <g id="line2d_8">
      <g>
       <use xlink:href="#m5589deb05d" x="605.34" y="354.672" style="stroke: #000000; stroke-width: 0.8"/>
      </g>
     </g>
     <g id="text_4">
      <!-- 90 -->
      <g transform="translate(587.525 382.947625) scale(0.28 -0.28)">
       <defs>
        <path id="DejaVuSans-39" d="M 703 97 
L 703 672 
Q 941 559 1184 500 
Q 1428 441 1663 441 
Q 2288 441 2617 861 
Q 2947 1281 2994 2138 
Q 2813 1869 2534 1725 
Q 2256 1581 1919 1581 
Q 1219 1581 811 2004 
Q 403 2428 403 3163 
Q 403 3881 828 4315 
Q 1253 4750 1959 4750 
Q 2769 4750 3195 4129 
Q 3622 3509 3622 2328 
Q 3622 1225 3098 567 
Q 2575 -91 1691 -91 
Q 1453 -91 1209 -44 
Q 966 3 703 97 
z
M 1959 2075 
Q 2384 2075 2632 2365 
Q 2881 2656 2881 3163 
Q 2881 3666 2632 3958 
Q 2384 4250 1959 4250 
Q 1534 4250 1286 3958 
Q 1038 3666 1038 3163 
Q 1038 2656 1286 2365 
Q 1534 2075 1959 2075 
z
" transform="scale(0.015625)"/>
       </defs>
       <use xlink:href="#DejaVuSans-39"/>
       <use xlink:href="#DejaVuSans-30" transform="translate(63.623047 0)"/>
      </g>
     </g>
    </g>
    <g id="xtick_5">
     <g id="line2d_9">
      <path d="M 753.12 354.672 
L 753.12 10.8 
" clip-path="url(#p18a4e57674)" style="fill: none; stroke: #b0b0b0; stroke-opacity: 0.25; stroke-width: 0.8; stroke-linecap: square"/>
     </g>
     <g id="line2d_10">
      <g>
       <use xlink:href="#m5589deb05d" x="753.12" y="354.672" style="stroke: #000000; stroke-width: 0.8"/>
      </g>
     </g>
     <g id="text_5">
      <!-- 120 -->
      <g transform="translate(726.3975 382.947625) scale(0.28 -0.28)">
       <defs>
        <path id="DejaVuSans-31" d="M 794 531 
L 1825 531 
L 1825 4091 
L 703 3866 
L 703 4441 
L 1819 4666 
L 2450 4666 
L 2450 531 
L 3481 531 
L 3481 0 
L 794 0 
L 794 531 
z
" transform="scale(0.015625)"/>
        <path id="DejaVuSans-32" d="M 1228 531 
L 3431 531 
L 3431 0 
L 469 0 
L 469 531 
Q 828 903 1448 1529 
Q 2069 2156 2228 2338 
Q 2531 2678 2651 2914 
Q 2772 3150 2772 3378 
Q 2772 3750 2511 3984 
Q 2250 4219 1831 4219 
Q 1534 4219 1204 4116 
Q 875 4013 500 3803 
L 500 4441 
Q 881 4594 1212 4672 
Q 1544 4750 1819 4750 
Q 2544 4750 2975 4387 
Q 3406 4025 3406 3419 
Q 3406 3131 3298 2873 
Q 3191 2616 2906 2266 
Q 2828 2175 2409 1742 
Q 1991 1309 1228 531 
z
" transform="scale(0.015625)"/>
       </defs>
       <use xlink:href="#DejaVuSans-31"/>
       <use xlink:href="#DejaVuSans-32" transform="translate(63.623047 0)"/>
       <use xlink:href="#DejaVuSans-30" transform="translate(127.246094 0)"/>
      </g>
     </g>
    </g>
    <g id="xtick_6">
     <g id="line2d_11">
      <path d="M 900.9 354.672 
L 900.9 10.8 
" clip-path="url(#p18a4e57674)" style="fill: none; stroke: #b0b0b0; stroke-opacity: 0.25; stroke-width: 0.8; stroke-linecap: square"/>
     </g>
     <g id="line2d_12">
      <g>
       <use xlink:href="#m5589deb05d" x="900.9" y="354.672" style="stroke: #000000; stroke-width: 0.8"/>
      </g>
     </g>
     <g id="text_6">
      <!-- 150 -->
      <g transform="translate(874.1775 382.947625) scale(0.28 -0.28)">
       <defs>
        <path id="DejaVuSans-35" d="M 691 4666 
L 3169 4666 
L 3169 4134 
L 1269 4134 
L 1269 2991 
Q 1406 3038 1543 3061 
Q 1681 3084 1819 3084 
Q 2600 3084 3056 2656 
Q 3513 2228 3513 1497 
Q 3513 744 3044 326 
Q 2575 -91 1722 -91 
Q 1428 -91 1123 -41 
Q 819 9 494 109 
L 494 744 
Q 775 591 1075 516 
Q 1375 441 1709 441 
Q 2250 441 2565 725 
Q 2881 1009 2881 1497 
Q 2881 1984 2565 2268 
Q 2250 2553 1709 2553 
Q 1456 2553 1204 2497 
Q 953 2441 691 2322 
L 691 4666 
z
" transform="scale(0.015625)"/>
       </defs>
       <use xlink:href="#DejaVuSans-31"/>
       <use xlink:href="#DejaVuSans-35" transform="translate(63.623047 0)"/>
       <use xlink:href="#DejaVuSans-30" transform="translate(127.246094 0)"/>
      </g>
     </g>
    </g>
    <g id="xtick_7">
     <g id="line2d_13">
      <path d="M 1048.68 354.672 
L 1048.68 10.8 
" clip-path="url(#p18a4e57674)" style="fill: none; stroke: #b0b0b0; stroke-opacity: 0.25; stroke-width: 0.8; stroke-linecap: square"/>
     </g>
     <g id="line2d_14">
      <g>
       <use xlink:href="#m5589deb05d" x="1048.68" y="354.672" style="stroke: #000000; stroke-width: 0.8"/>
      </g>
     </g>
     <g id="text_7">
      <!-- 180 -->
      <g transform="translate(1021.9575 382.947625) scale(0.28 -0.28)">
       <defs>
        <path id="DejaVuSans-38" d="M 2034 2216 
Q 1584 2216 1326 1975 
Q 1069 1734 1069 1313 
Q 1069 891 1326 650 
Q 1584 409 2034 409 
Q 2484 409 2743 651 
Q 3003 894 3003 1313 
Q 3003 1734 2745 1975 
Q 2488 2216 2034 2216 
z
M 1403 2484 
Q 997 2584 770 2862 
Q 544 3141 544 3541 
Q 544 4100 942 4425 
Q 1341 4750 2034 4750 
Q 2731 4750 3128 4425 
Q 3525 4100 3525 3541 
Q 3525 3141 3298 2862 
Q 3072 2584 2669 2484 
Q 3125 2378 3379 2068 
Q 3634 1759 3634 1313 
Q 3634 634 3220 271 
Q 2806 -91 2034 -91 
Q 1263 -91 848 271 
Q 434 634 434 1313 
Q 434 1759 690 2068 
Q 947 2378 1403 2484 
z
M 1172 3481 
Q 1172 3119 1398 2916 
Q 1625 2713 2034 2713 
Q 2441 2713 2670 2916 
Q 2900 3119 2900 3481 
Q 2900 3844 2670 4047 
Q 2441 4250 2034 4250 
Q 1625 4250 1398 4047 
Q 1172 3844 1172 3481 
z
" transform="scale(0.015625)"/>
       </defs>
       <use xlink:href="#DejaVuSans-31"/>
       <use xlink:href="#DejaVuSans-38" transform="translate(63.623047 0)"/>
       <use xlink:href="#DejaVuSans-30" transform="translate(127.246094 0)"/>
      </g>
     </g>
    </g>
    <g id="text_8">
     <!-- Scattering angle [deg] -->
     <g transform="translate(391.972969 421.644813) scale(0.38 -0.38)">
      <defs>
       <path id="DejaVuSans-53" d="M 3425 4513 
L 3425 3897 
Q 3066 4069 2747 4153 
Q 2428 4238 2131 4238 
Q 1616 4238 1336 4038 
Q 1056 3838 1056 3469 
Q 1056 3159 1242 3001 
Q 1428 2844 1947 2747 
L 2328 2669 
Q 3034 2534 3370 2195 
Q 3706 1856 3706 1288 
Q 3706 609 3251 259 
Q 2797 -91 1919 -91 
Q 1588 -91 1214 -16 
Q 841 59 441 206 
L 441 856 
Q 825 641 1194 531 
Q 1563 422 1919 422 
Q 2459 422 2753 634 
Q 3047 847 3047 1241 
Q 3047 1584 2836 1778 
Q 2625 1972 2144 2069 
L 1759 2144 
Q 1053 2284 737 2584 
Q 422 2884 422 3419 
Q 422 4038 858 4394 
Q 1294 4750 2059 4750 
Q 2388 4750 2728 4690 
Q 3069 4631 3425 4513 
z
" transform="scale(0.015625)"/>
       <path id="DejaVuSans-63" d="M 3122 3366 
L 3122 2828 
Q 2878 2963 2633 3030 
Q 2388 3097 2138 3097 
Q 1578 3097 1268 2742 
Q 959 2388 959 1747 
Q 959 1106 1268 751 
Q 1578 397 2138 397 
Q 2388 397 2633 464 
Q 2878 531 3122 666 
L 3122 134 
Q 2881 22 2623 -34 
Q 2366 -91 2075 -91 
Q 1284 -91 818 406 
Q 353 903 353 1747 
Q 353 2603 823 3093 
Q 1294 3584 2113 3584 
Q 2378 3584 2631 3529 
Q 2884 3475 3122 3366 
z
" transform="scale(0.015625)"/>
       <path id="DejaVuSans-61" d="M 2194 1759 
Q 1497 1759 1228 1600 
Q 959 1441 959 1056 
Q 959 750 1161 570 
Q 1363 391 1709 391 
Q 2188 391 2477 730 
Q 2766 1069 2766 1631 
L 2766 1759 
L 2194 1759 
z
M 3341 1997 
L 3341 0 
L 2766 0 
L 2766 531 
Q 2569 213 2275 61 
Q 1981 -91 1556 -91 
Q 1019 -91 701 211 
Q 384 513 384 1019 
Q 384 1609 779 1909 
Q 1175 2209 1959 2209 
L 2766 2209 
L 2766 2266 
Q 2766 2663 2505 2880 
Q 2244 3097 1772 3097 
Q 1472 3097 1187 3025 
Q 903 2953 641 2809 
L 641 3341 
Q 956 3463 1253 3523 
Q 1550 3584 1831 3584 
Q 2591 3584 2966 3190 
Q 3341 2797 3341 1997 
z
" transform="scale(0.015625)"/>
       <path id="DejaVuSans-74" d="M 1172 4494 
L 1172 3500 
L 2356 3500 
L 2356 3053 
L 1172 3053 
L 1172 1153 
Q 1172 725 1289 603 
Q 1406 481 1766 481 
L 2356 481 
L 2356 0 
L 1766 0 
Q 1100 0 847 248 
Q 594 497 594 1153 
L 594 3053 
L 172 3053 
L 172 3500 
L 594 3500 
L 594 4494 
L 1172 4494 
z
" transform="scale(0.015625)"/>
       <path id="DejaVuSans-65" d="M 3597 1894 
L 3597 1613 
L 953 1613 
Q 991 1019 1311 708 
Q 1631 397 2203 397 
Q 2534 397 2845 478 
Q 3156 559 3463 722 
L 3463 178 
Q 3153 47 2828 -22 
Q 2503 -91 2169 -91 
Q 1331 -91 842 396 
Q 353 884 353 1716 
Q 353 2575 817 3079 
Q 1281 3584 2069 3584 
Q 2775 3584 3186 3129 
Q 3597 2675 3597 1894 
z
M 3022 2063 
Q 3016 2534 2758 2815 
Q 2500 3097 2075 3097 
Q 1594 3097 1305 2825 
Q 1016 2553 972 2059 
L 3022 2063 
z
" transform="scale(0.015625)"/>
       <path id="DejaVuSans-72" d="M 2631 2963 
Q 2534 3019 2420 3045 
Q 2306 3072 2169 3072 
Q 1681 3072 1420 2755 
Q 1159 2438 1159 1844 
L 1159 0 
L 581 0 
L 581 3500 
L 1159 3500 
L 1159 2956 
Q 1341 3275 1631 3429 
Q 1922 3584 2338 3584 
Q 2397 3584 2469 3576 
Q 2541 3569 2628 3553 
L 2631 2963 
z
" transform="scale(0.015625)"/>
       <path id="DejaVuSans-69" d="M 603 3500 
L 1178 3500 
L 1178 0 
L 603 0 
L 603 3500 
z
M 603 4863 
L 1178 4863 
L 1178 4134 
L 603 4134 
L 603 4863 
z
" transform="scale(0.015625)"/>
       <path id="DejaVuSans-6e" d="M 3513 2113 
L 3513 0 
L 2938 0 
L 2938 2094 
Q 2938 2591 2744 2837 
Q 2550 3084 2163 3084 
Q 1697 3084 1428 2787 
Q 1159 2491 1159 1978 
L 1159 0 
L 581 0 
L 581 3500 
L 1159 3500 
L 1159 2956 
Q 1366 3272 1645 3428 
Q 1925 3584 2291 3584 
Q 2894 3584 3203 3211 
Q 3513 2838 3513 2113 
z
" transform="scale(0.015625)"/>
       <path id="DejaVuSans-67" d="M 2906 1791 
Q 2906 2416 2648 2759 
Q 2391 3103 1925 3103 
Q 1463 3103 1205 2759 
Q 947 2416 947 1791 
Q 947 1169 1205 825 
Q 1463 481 1925 481 
Q 2391 481 2648 825 
Q 2906 1169 2906 1791 
z
M 3481 434 
Q 3481 -459 3084 -895 
Q 2688 -1331 1869 -1331 
Q 1566 -1331 1297 -1286 
Q 1028 -1241 775 -1147 
L 775 -588 
Q 1028 -725 1275 -790 
Q 1522 -856 1778 -856 
Q 2344 -856 2625 -561 
Q 2906 -266 2906 331 
L 2906 616 
Q 2728 306 2450 153 
Q 2172 0 1784 0 
Q 1141 0 747 490 
Q 353 981 353 1791 
Q 353 2603 747 3093 
Q 1141 3584 1784 3584 
Q 2172 3584 2450 3431 
Q 2728 3278 2906 2969 
L 2906 3500 
L 3481 3500 
L 3481 434 
z
" transform="scale(0.015625)"/>
       <path id="DejaVuSans-20" transform="scale(0.015625)"/>
       <path id="DejaVuSans-6c" d="M 603 4863 
L 1178 4863 
L 1178 0 
L 603 0 
L 603 4863 
z
" transform="scale(0.015625)"/>
       <path id="DejaVuSans-5b" d="M 550 4863 
L 1875 4863 
L 1875 4416 
L 1125 4416 
L 1125 -397 
L 1875 -397 
L 1875 -844 
L 550 -844 
L 550 4863 
z
" transform="scale(0.015625)"/>
       <path id="DejaVuSans-64" d="M 2906 2969 
L 2906 4863 
L 3481 4863 
L 3481 0 
L 2906 0 
L 2906 525 
Q 2725 213 2448 61 
Q 2172 -91 1784 -91 
Q 1150 -91 751 415 
Q 353 922 353 1747 
Q 353 2572 751 3078 
Q 1150 3584 1784 3584 
Q 2172 3584 2448 3432 
Q 2725 3281 2906 2969 
z
M 947 1747 
Q 947 1113 1208 752 
Q 1469 391 1925 391 
Q 2381 391 2643 752 
Q 2906 1113 2906 1747 
Q 2906 2381 2643 2742 
Q 2381 3103 1925 3103 
Q 1469 3103 1208 2742 
Q 947 2381 947 1747 
z
" transform="scale(0.015625)"/>
       <path id="DejaVuSans-5d" d="M 1947 4863 
L 1947 -844 
L 622 -844 
L 622 -397 
L 1369 -397 
L 1369 4416 
L 622 4416 
L 622 4863 
L 1947 4863 
z
" transform="scale(0.015625)"/>
      </defs>
      <use xlink:href="#DejaVuSans-53"/>
      <use xlink:href="#DejaVuSans-63" transform="translate(63.476562 0)"/>
      <use xlink:href="#DejaVuSans-61" transform="translate(118.457031 0)"/>
      <use xlink:href="#DejaVuSans-74" transform="translate(179.736328 0)"/>
      <use xlink:href="#DejaVuSans-74" transform="translate(218.945312 0)"/>
      <use xlink:href="#DejaVuSans-65" transform="translate(258.154297 0)"/>
      <use xlink:href="#DejaVuSans-72" transform="translate(319.677734 0)"/>
      <use xlink:href="#DejaVuSans-69" transform="translate(360.791016 0)"/>
      <use xlink:href="#DejaVuSans-6e" transform="translate(388.574219 0)"/>
      <use xlink:href="#DejaVuSans-67" transform="translate(451.953125 0)"/>
      <use xlink:href="#DejaVuSans-20" transform="translate(515.429688 0)"/>
      <use xlink:href="#DejaVuSans-61" transform="translate(547.216797 0)"/>
      <use xlink:href="#DejaVuSans-6e" transform="translate(608.496094 0)"/>
      <use xlink:href="#DejaVuSans-67" transform="translate(671.875 0)"/>
      <use xlink:href="#DejaVuSans-6c" transform="translate(735.351562 0)"/>
      <use xlink:href="#DejaVuSans-65" transform="translate(763.134766 0)"/>
      <use xlink:href="#DejaVuSans-20" transform="translate(824.658203 0)"/>
      <use xlink:href="#DejaVuSans-5b" transform="translate(856.445312 0)"/>
      <use xlink:href="#DejaVuSans-64" transform="translate(895.458984 0)"/>
      <use xlink:href="#DejaVuSans-65" transform="translate(958.935547 0)"/>
      <use xlink:href="#DejaVuSans-67" transform="translate(1020.458984 0)"/>
      <use xlink:href="#DejaVuSans-5d" transform="translate(1083.935547 0)"/>
     </g>
    </g>
   </g>
   <g id="matplotlib.axis_2">
    <g id="ytick_1">
     <g id="line2d_15">
      <path d="M 162 293.49596 
L 1048.68 293.49596 
" clip-path="url(#p18a4e57674)" style="fill: none; stroke: #b0b0b0; stroke-opacity: 0.25; stroke-width: 0.8; stroke-linecap: square"/>
     </g>
     <g id="line2d_16">
      <defs>
       <path id="m24a8fb960c" d="M 0 0 
L -3.5 0 
" style="stroke: #000000; stroke-width: 0.8"/>
      </defs>
      <g>
       <use xlink:href="#m24a8fb960c" x="162" y="293.49596" style="stroke: #000000; stroke-width: 0.8"/>
      </g>
     </g>
     <g id="text_9">
      <!-- $\mathdefault{10^{-2}}$ -->
      <g transform="translate(89.2 304.133772) scale(0.28 -0.28)">
       <defs>
        <path id="DejaVuSans-2212" d="M 678 2272 
L 4684 2272 
L 4684 1741 
L 678 1741 
L 678 2272 
z
" transform="scale(0.015625)"/>
       </defs>
       <use xlink:href="#DejaVuSans-31" transform="translate(0 0.765625)"/>
       <use xlink:href="#DejaVuSans-30" transform="translate(63.623047 0.765625)"/>
       <use xlink:href="#DejaVuSans-2212" transform="translate(128.203125 39.046875) scale(0.7)"/>
       <use xlink:href="#DejaVuSans-32" transform="translate(186.855469 39.046875) scale(0.7)"/>
      </g>
     </g>
    </g>
    <g id="ytick_2">
     <g id="line2d_17">
      <path d="M 162 206.485762 
L 1048.68 206.485762 
" clip-path="url(#p18a4e57674)" style="fill: none; stroke: #b0b0b0; stroke-opacity: 0.25; stroke-width: 0.8; stroke-linecap: square"/>
     </g>
     <g id="line2d_18">
      <g>
       <use xlink:href="#m24a8fb960c" x="162" y="206.485762" style="stroke: #000000; stroke-width: 0.8"/>
      </g>
     </g>
     <g id="text_10">
      <!-- $\mathdefault{10^{-1}}$ -->
      <g transform="translate(89.2 217.123574) scale(0.28 -0.28)">
       <use xlink:href="#DejaVuSans-31" transform="translate(0 0.684375)"/>
       <use xlink:href="#DejaVuSans-30" transform="translate(63.623047 0.684375)"/>
       <use xlink:href="#DejaVuSans-2212" transform="translate(128.203125 38.965625) scale(0.7)"/>
       <use xlink:href="#DejaVuSans-31" transform="translate(186.855469 38.965625) scale(0.7)"/>
      </g>
     </g>
    </g>
    <g id="ytick_3">
     <g id="line2d_19">
      <path d="M 162 119.475564 
L 1048.68 119.475564 
" clip-path="url(#p18a4e57674)" style="fill: none; stroke: #b0b0b0; stroke-opacity: 0.25; stroke-width: 0.8; stroke-linecap: square"/>
     </g>
     <g id="line2d_20">
      <g>
       <use xlink:href="#m24a8fb960c" x="162" y="119.475564" style="stroke: #000000; stroke-width: 0.8"/>
      </g>
     </g>
     <g id="text_11">
      <!-- $\mathdefault{10^{0}}$ -->
      <g transform="translate(105.72 130.113376) scale(0.28 -0.28)">
       <use xlink:href="#DejaVuSans-31" transform="translate(0 0.765625)"/>
       <use xlink:href="#DejaVuSans-30" transform="translate(63.623047 0.765625)"/>
       <use xlink:href="#DejaVuSans-30" transform="translate(128.203125 39.046875) scale(0.7)"/>
      </g>
     </g>
    </g>
    <g id="ytick_4">
     <g id="line2d_21">
      <path d="M 162 32.465365 
L 1048.68 32.465365 
" clip-path="url(#p18a4e57674)" style="fill: none; stroke: #b0b0b0; stroke-opacity: 0.25; stroke-width: 0.8; stroke-linecap: square"/>
     </g>
     <g id="line2d_22">
      <g>
       <use xlink:href="#m24a8fb960c" x="162" y="32.465365" style="stroke: #000000; stroke-width: 0.8"/>
      </g>
     </g>
     <g id="text_12">
      <!-- $\mathdefault{10^{1}}$ -->
      <g transform="translate(105.72 43.103178) scale(0.28 -0.28)">
       <use xlink:href="#DejaVuSans-31" transform="translate(0 0.684375)"/>
       <use xlink:href="#DejaVuSans-30" transform="translate(63.623047 0.684375)"/>
       <use xlink:href="#DejaVuSans-31" transform="translate(128.203125 38.965625) scale(0.7)"/>
      </g>
     </g>
    </g>
    <g id="ytick_5">
     <g id="line2d_23">
      <defs>
       <path id="m2a1a150b67" d="M 0 0 
L -2 0 
" style="stroke: #000000; stroke-width: 0.6"/>
      </defs>
      <g>
       <use xlink:href="#m2a1a150b67" x="162" y="354.313479" style="stroke: #000000; stroke-width: 0.6"/>
      </g>
     </g>
    </g>
    <g id="ytick_6">
     <g id="line2d_24">
      <g>
       <use xlink:href="#m2a1a150b67" x="162" y="338.991743" style="stroke: #000000; stroke-width: 0.6"/>
      </g>
     </g>
    </g>
    <g id="ytick_7">
     <g id="line2d_25">
      <g>
       <use xlink:href="#m2a1a150b67" x="162" y="328.120799" style="stroke: #000000; stroke-width: 0.6"/>
      </g>
     </g>
    </g>
    <g id="ytick_8">
     <g id="line2d_26">
      <g>
       <use xlink:href="#m2a1a150b67" x="162" y="319.68864" style="stroke: #000000; stroke-width: 0.6"/>
      </g>
     </g>
    </g>
    <g id="ytick_9">
     <g id="line2d_27">
      <g>
       <use xlink:href="#m2a1a150b67" x="162" y="312.799064" style="stroke: #000000; stroke-width: 0.6"/>
      </g>
     </g>
    </g>
    <g id="ytick_10">
     <g id="line2d_28">
      <g>
       <use xlink:href="#m2a1a150b67" x="162" y="306.97401" style="stroke: #000000; stroke-width: 0.6"/>
      </g>
     </g>
    </g>
    <g id="ytick_11">
     <g id="line2d_29">
      <g>
       <use xlink:href="#m2a1a150b67" x="162" y="301.928119" style="stroke: #000000; stroke-width: 0.6"/>
      </g>
     </g>
    </g>
    <g id="ytick_12">
     <g id="line2d_30">
      <g>
       <use xlink:href="#m2a1a150b67" x="162" y="297.477328" style="stroke: #000000; stroke-width: 0.6"/>
      </g>
     </g>
    </g>
    <g id="ytick_13">
     <g id="line2d_31">
      <g>
       <use xlink:href="#m2a1a150b67" x="162" y="267.30328" style="stroke: #000000; stroke-width: 0.6"/>
      </g>
     </g>
    </g>
    <g id="ytick_14">
     <g id="line2d_32">
      <g>
       <use xlink:href="#m2a1a150b67" x="162" y="251.981545" style="stroke: #000000; stroke-width: 0.6"/>
      </g>
     </g>
    </g>
    <g id="ytick_15">
     <g id="line2d_33">
      <g>
       <use xlink:href="#m2a1a150b67" x="162" y="241.110601" style="stroke: #000000; stroke-width: 0.6"/>
      </g>
     </g>
    </g>
    <g id="ytick_16">
     <g id="line2d_34">
      <g>
       <use xlink:href="#m2a1a150b67" x="162" y="232.678441" style="stroke: #000000; stroke-width: 0.6"/>
      </g>
     </g>
    </g>
    <g id="ytick_17">
     <g id="line2d_35">
      <g>
       <use xlink:href="#m2a1a150b67" x="162" y="225.788865" style="stroke: #000000; stroke-width: 0.6"/>
      </g>
     </g>
    </g>
    <g id="ytick_18">
     <g id="line2d_36">
      <g>
       <use xlink:href="#m2a1a150b67" x="162" y="219.963812" style="stroke: #000000; stroke-width: 0.6"/>
      </g>
     </g>
    </g>
    <g id="ytick_19">
     <g id="line2d_37">
      <g>
       <use xlink:href="#m2a1a150b67" x="162" y="214.917921" style="stroke: #000000; stroke-width: 0.6"/>
      </g>
     </g>
    </g>
    <g id="ytick_20">
     <g id="line2d_38">
      <g>
       <use xlink:href="#m2a1a150b67" x="162" y="210.46713" style="stroke: #000000; stroke-width: 0.6"/>
      </g>
     </g>
    </g>
    <g id="ytick_21">
     <g id="line2d_39">
      <g>
       <use xlink:href="#m2a1a150b67" x="162" y="180.293082" style="stroke: #000000; stroke-width: 0.6"/>
      </g>
     </g>
    </g>
    <g id="ytick_22">
     <g id="line2d_40">
      <g>
       <use xlink:href="#m2a1a150b67" x="162" y="164.971347" style="stroke: #000000; stroke-width: 0.6"/>
      </g>
     </g>
    </g>
    <g id="ytick_23">
     <g id="line2d_41">
      <g>
       <use xlink:href="#m2a1a150b67" x="162" y="154.100403" style="stroke: #000000; stroke-width: 0.6"/>
      </g>
     </g>
    </g>
    <g id="ytick_24">
     <g id="line2d_42">
      <g>
       <use xlink:href="#m2a1a150b67" x="162" y="145.668243" style="stroke: #000000; stroke-width: 0.6"/>
      </g>
     </g>
    </g>
    <g id="ytick_25">
     <g id="line2d_43">
      <g>
       <use xlink:href="#m2a1a150b67" x="162" y="138.778667" style="stroke: #000000; stroke-width: 0.6"/>
      </g>
     </g>
    </g>
    <g id="ytick_26">
     <g id="line2d_44">
      <g>
       <use xlink:href="#m2a1a150b67" x="162" y="132.953614" style="stroke: #000000; stroke-width: 0.6"/>
      </g>
     </g>
    </g>
    <g id="ytick_27">
     <g id="line2d_45">
      <g>
       <use xlink:href="#m2a1a150b67" x="162" y="127.907723" style="stroke: #000000; stroke-width: 0.6"/>
      </g>
     </g>
    </g>
    <g id="ytick_28">
     <g id="line2d_46">
      <g>
       <use xlink:href="#m2a1a150b67" x="162" y="123.456932" style="stroke: #000000; stroke-width: 0.6"/>
      </g>
     </g>
    </g>
    <g id="ytick_29">
     <g id="line2d_47">
      <g>
       <use xlink:href="#m2a1a150b67" x="162" y="93.282884" style="stroke: #000000; stroke-width: 0.6"/>
      </g>
     </g>
    </g>
    <g id="ytick_30">
     <g id="line2d_48">
      <g>
       <use xlink:href="#m2a1a150b67" x="162" y="77.961149" style="stroke: #000000; stroke-width: 0.6"/>
      </g>
     </g>
    </g>
    <g id="ytick_31">
     <g id="line2d_49">
      <g>
       <use xlink:href="#m2a1a150b67" x="162" y="67.090204" style="stroke: #000000; stroke-width: 0.6"/>
      </g>
     </g>
    </g>
    <g id="ytick_32">
     <g id="line2d_50">
      <g>
       <use xlink:href="#m2a1a150b67" x="162" y="58.658045" style="stroke: #000000; stroke-width: 0.6"/>
      </g>
     </g>
    </g>
    <g id="ytick_33">
     <g id="line2d_51">
      <g>
       <use xlink:href="#m2a1a150b67" x="162" y="51.768469" style="stroke: #000000; stroke-width: 0.6"/>
      </g>
     </g>
    </g>
    <g id="ytick_34">
     <g id="line2d_52">
      <g>
       <use xlink:href="#m2a1a150b67" x="162" y="45.943416" style="stroke: #000000; stroke-width: 0.6"/>
      </g>
     </g>
    </g>
    <g id="ytick_35">
     <g id="line2d_53">
      <g>
       <use xlink:href="#m2a1a150b67" x="162" y="40.897525" style="stroke: #000000; stroke-width: 0.6"/>
      </g>
     </g>
    </g>
    <g id="ytick_36">
     <g id="line2d_54">
      <g>
       <use xlink:href="#m2a1a150b67" x="162" y="36.446734" style="stroke: #000000; stroke-width: 0.6"/>
      </g>
     </g>
    </g>
    <g id="text_13">
     <!-- Cross section -->
     <g transform="translate(34.7455 309.276) rotate(-90) scale(0.38 -0.38)">
      <defs>
       <path id="DejaVuSans-43" d="M 4122 4306 
L 4122 3641 
Q 3803 3938 3442 4084 
Q 3081 4231 2675 4231 
Q 1875 4231 1450 3742 
Q 1025 3253 1025 2328 
Q 1025 1406 1450 917 
Q 1875 428 2675 428 
Q 3081 428 3442 575 
Q 3803 722 4122 1019 
L 4122 359 
Q 3791 134 3420 21 
Q 3050 -91 2638 -91 
Q 1578 -91 968 557 
Q 359 1206 359 2328 
Q 359 3453 968 4101 
Q 1578 4750 2638 4750 
Q 3056 4750 3426 4639 
Q 3797 4528 4122 4306 
z
" transform="scale(0.015625)"/>
       <path id="DejaVuSans-6f" d="M 1959 3097 
Q 1497 3097 1228 2736 
Q 959 2375 959 1747 
Q 959 1119 1226 758 
Q 1494 397 1959 397 
Q 2419 397 2687 759 
Q 2956 1122 2956 1747 
Q 2956 2369 2687 2733 
Q 2419 3097 1959 3097 
z
M 1959 3584 
Q 2709 3584 3137 3096 
Q 3566 2609 3566 1747 
Q 3566 888 3137 398 
Q 2709 -91 1959 -91 
Q 1206 -91 779 398 
Q 353 888 353 1747 
Q 353 2609 779 3096 
Q 1206 3584 1959 3584 
z
" transform="scale(0.015625)"/>
       <path id="DejaVuSans-73" d="M 2834 3397 
L 2834 2853 
Q 2591 2978 2328 3040 
Q 2066 3103 1784 3103 
Q 1356 3103 1142 2972 
Q 928 2841 928 2578 
Q 928 2378 1081 2264 
Q 1234 2150 1697 2047 
L 1894 2003 
Q 2506 1872 2764 1633 
Q 3022 1394 3022 966 
Q 3022 478 2636 193 
Q 2250 -91 1575 -91 
Q 1294 -91 989 -36 
Q 684 19 347 128 
L 347 722 
Q 666 556 975 473 
Q 1284 391 1588 391 
Q 1994 391 2212 530 
Q 2431 669 2431 922 
Q 2431 1156 2273 1281 
Q 2116 1406 1581 1522 
L 1381 1569 
Q 847 1681 609 1914 
Q 372 2147 372 2553 
Q 372 3047 722 3315 
Q 1072 3584 1716 3584 
Q 2034 3584 2315 3537 
Q 2597 3491 2834 3397 
z
" transform="scale(0.015625)"/>
      </defs>
      <use xlink:href="#DejaVuSans-43"/>
      <use xlink:href="#DejaVuSans-72" transform="translate(69.824219 0)"/>
      <use xlink:href="#DejaVuSans-6f" transform="translate(108.6875 0)"/>
      <use xlink:href="#DejaVuSans-73" transform="translate(169.869141 0)"/>
      <use xlink:href="#DejaVuSans-73" transform="translate(221.96875 0)"/>
      <use xlink:href="#DejaVuSans-20" transform="translate(274.068359 0)"/>
      <use xlink:href="#DejaVuSans-73" transform="translate(305.855469 0)"/>
      <use xlink:href="#DejaVuSans-65" transform="translate(357.955078 0)"/>
      <use xlink:href="#DejaVuSans-63" transform="translate(419.478516 0)"/>
      <use xlink:href="#DejaVuSans-74" transform="translate(474.458984 0)"/>
      <use xlink:href="#DejaVuSans-69" transform="translate(513.667969 0)"/>
      <use xlink:href="#DejaVuSans-6f" transform="translate(541.451172 0)"/>
      <use xlink:href="#DejaVuSans-6e" transform="translate(602.632812 0)"/>
     </g>
     <!-- [mb/Sr] -->
     <g transform="translate(77.297187 254.404594) rotate(-90) scale(0.38 -0.38)">
      <defs>
       <path id="DejaVuSans-6d" d="M 3328 2828 
Q 3544 3216 3844 3400 
Q 4144 3584 4550 3584 
Q 5097 3584 5394 3201 
Q 5691 2819 5691 2113 
L 5691 0 
L 5113 0 
L 5113 2094 
Q 5113 2597 4934 2840 
Q 4756 3084 4391 3084 
Q 3944 3084 3684 2787 
Q 3425 2491 3425 1978 
L 3425 0 
L 2847 0 
L 2847 2094 
Q 2847 2600 2669 2842 
Q 2491 3084 2119 3084 
Q 1678 3084 1418 2786 
Q 1159 2488 1159 1978 
L 1159 0 
L 581 0 
L 581 3500 
L 1159 3500 
L 1159 2956 
Q 1356 3278 1631 3431 
Q 1906 3584 2284 3584 
Q 2666 3584 2933 3390 
Q 3200 3197 3328 2828 
z
" transform="scale(0.015625)"/>
       <path id="DejaVuSans-62" d="M 3116 1747 
Q 3116 2381 2855 2742 
Q 2594 3103 2138 3103 
Q 1681 3103 1420 2742 
Q 1159 2381 1159 1747 
Q 1159 1113 1420 752 
Q 1681 391 2138 391 
Q 2594 391 2855 752 
Q 3116 1113 3116 1747 
z
M 1159 2969 
Q 1341 3281 1617 3432 
Q 1894 3584 2278 3584 
Q 2916 3584 3314 3078 
Q 3713 2572 3713 1747 
Q 3713 922 3314 415 
Q 2916 -91 2278 -91 
Q 1894 -91 1617 61 
Q 1341 213 1159 525 
L 1159 0 
L 581 0 
L 581 4863 
L 1159 4863 
L 1159 2969 
z
" transform="scale(0.015625)"/>
       <path id="DejaVuSans-2f" d="M 1625 4666 
L 2156 4666 
L 531 -594 
L 0 -594 
L 1625 4666 
z
" transform="scale(0.015625)"/>
      </defs>
      <use xlink:href="#DejaVuSans-5b"/>
      <use xlink:href="#DejaVuSans-6d" transform="translate(39.013672 0)"/>
      <use xlink:href="#DejaVuSans-62" transform="translate(136.425781 0)"/>
      <use xlink:href="#DejaVuSans-2f" transform="translate(199.902344 0)"/>
      <use xlink:href="#DejaVuSans-53" transform="translate(233.59375 0)"/>
      <use xlink:href="#DejaVuSans-72" transform="translate(297.070312 0)"/>
      <use xlink:href="#DejaVuSans-5d" transform="translate(338.183594 0)"/>
     </g>
    </g>
   </g>
   <g id="line2d_55">
    <path d="M 162 84.926543 
L 166.926 85.076782 
L 171.852 85.408614 
L 176.778 85.575652 
L 181.704 85.057111 
L 186.63 83.299068 
L 191.556 79.939499 
L 196.482 74.993658 
L 201.408 68.84745 
L 216.186 48.7057 
L 221.112 42.82333 
L 226.038 37.739571 
L 230.964 33.54974 
L 235.89 30.303588 
L 240.816 28.026198 
L 245.742 26.731361 
L 250.668 26.430545 
L 255.594 27.138749 
L 260.52 28.878692 
L 265.446 31.684809 
L 270.372 35.606797 
L 275.298 40.714113 
L 280.224 47.100927 
L 285.15 54.891808 
L 290.076 64.246011 
L 295.002 75.353357 
L 299.928 88.397985 
L 304.854 103.412121 
L 309.78 119.791127 
L 314.706 135.041831 
L 319.632 143.594165 
L 324.558 141.115324 
L 329.484 131.054927 
L 334.41 119.269013 
L 339.336 108.653095 
L 344.262 99.978554 
L 349.188 93.262314 
L 354.114 88.332046 
L 359.04 85.001042 
L 363.966 83.113817 
L 368.892 82.553267 
L 373.818 83.238028 
L 378.744 85.118135 
L 383.67 88.171339 
L 388.596 92.400634 
L 393.522 97.832298 
L 398.448 104.51331 
L 403.374 112.505365 
L 408.3 121.868257 
L 413.226 132.616466 
L 418.152 144.609284 
L 423.078 157.2983 
L 428.004 169.266084 
L 432.93 177.889374 
L 437.856 180.457781 
L 442.782 176.839089 
L 447.708 169.635676 
L 452.634 161.540651 
L 457.56 154.053131 
L 462.486 147.762373 
L 467.412 142.821113 
L 472.338 139.212543 
L 477.264 136.867169 
L 482.19 135.708964 
L 487.116 135.672185 
L 492.042 136.706505 
L 496.968 138.777691 
L 501.894 141.866588 
L 506.82 145.967093 
L 511.746 151.083065 
L 516.672 157.222623 
L 521.598 164.387396 
L 526.524 172.550906 
L 531.45 181.615974 
L 541.302 201.177397 
L 546.228 210.179652 
L 551.154 216.957124 
L 556.08 220.21242 
L 561.006 219.619763 
L 565.932 216.09657 
L 570.858 211.07772 
L 575.784 205.747204 
L 580.71 200.82049 
L 585.636 196.652569 
L 590.562 193.389384 
L 595.488 191.072062 
L 600.414 189.694696 
L 605.34 189.2339 
L 610.266 189.663281 
L 615.192 190.960069 
L 620.118 193.107975 
L 625.044 196.097971 
L 629.97 199.927619 
L 634.896 204.599274 
L 639.822 210.116065 
L 644.748 216.474018 
L 649.674 223.647578 
L 654.6 231.562675 
L 659.526 240.049391 
L 664.452 248.766798 
L 669.378 257.109594 
L 674.304 264.165231 
L 679.23 268.880204 
L 684.156 270.534164 
L 689.082 269.21062 
L 694.008 265.735318 
L 698.934 261.159167 
L 703.86 256.335458 
L 708.786 251.807918 
L 713.712 247.873075 
L 718.638 244.672694 
L 723.564 242.263406 
L 728.49 240.65919 
L 733.416 239.855225 
L 738.342 239.840652 
L 743.268 240.605199 
L 748.194 242.1424 
L 753.12 244.451039 
L 758.046 247.53521 
L 762.972 251.403251 
L 767.898 256.065023 
L 772.824 261.526313 
L 777.75 267.777957 
L 782.676 274.775705 
L 787.602 282.40351 
L 797.454 298.331532 
L 802.38 305.391185 
L 807.306 310.567743 
L 812.232 312.920388 
L 817.158 312.126363 
L 822.084 308.705115 
L 827.01 303.656389 
L 836.862 292.226642 
L 841.788 286.897589 
L 846.714 282.135529 
L 851.64 278.003958 
L 856.566 274.500521 
L 861.492 271.587259 
L 866.418 269.206725 
L 871.344 267.290038 
L 876.27 265.761102 
L 881.196 264.5388 
L 886.122 263.539247 
L 910.752 259.156041 
L 915.678 258.012121 
L 925.53 255.350888 
L 940.308 251.021679 
L 945.234 249.719015 
L 950.16 248.589818 
L 955.086 247.691653 
L 960.012 247.077043 
L 964.938 246.79321 
L 969.864 246.882451 
L 974.79 247.382825 
L 979.716 248.328934 
L 984.642 249.752474 
L 989.568 251.682618 
L 994.494 254.145616 
L 999.42 257.163559 
L 1004.346 260.751381 
L 1009.272 264.911187 
L 1014.198 269.6222 
L 1019.124 274.823674 
L 1033.902 291.523188 
L 1038.828 296.162059 
L 1043.754 299.339034 
L 1048.68 300.476542 
L 1048.68 300.476542 
" clip-path="url(#p18a4e57674)" style="fill: none; stroke-dasharray: 3,4.95; stroke-dashoffset: 0; stroke: #ff0000; stroke-width: 3"/>
   </g>
   <g id="line2d_56">
    <path d="M 162 85.276736 
L 166.926 85.470377 
L 176.778 86.331198 
L 181.704 86.131042 
L 186.63 84.749814 
L 191.556 81.765845 
L 196.482 77.130691 
L 201.408 71.195058 
L 216.186 51.20054 
L 221.112 45.289314 
L 226.038 40.167644 
L 230.964 35.939357 
L 235.89 32.658976 
L 240.816 30.354119 
L 245.742 29.040146 
L 250.668 28.729493 
L 255.594 29.438208 
L 260.52 31.190311 
L 265.446 34.022032 
L 270.372 37.98591 
L 275.298 43.155456 
L 280.224 49.630984 
L 285.15 57.546249 
L 290.076 67.074308 
L 295.002 78.425457 
L 299.928 91.811403 
L 304.854 107.288231 
L 309.78 124.205575 
L 314.706 139.731496 
L 319.632 147.560785 
L 324.558 143.502833 
L 329.484 132.198712 
L 334.41 119.787118 
L 339.336 108.897532 
L 344.262 100.103839 
L 349.188 93.331416 
L 354.114 88.369024 
L 359.04 85.01329 
L 363.966 83.101476 
L 368.892 82.513305 
L 373.818 83.165997 
L 378.744 85.008782 
L 383.67 88.018759 
L 388.596 92.197975 
L 393.522 97.570968 
L 398.448 104.1816 
L 403.374 112.085818 
L 408.3 121.333013 
L 413.226 131.918793 
L 418.152 143.669757 
L 423.078 155.988878 
L 428.004 167.420425 
L 432.93 175.412948 
L 437.856 177.510062 
L 442.782 173.762285 
L 447.708 166.664437 
L 452.634 158.732617 
L 457.56 151.379508 
L 462.486 145.174219 
L 467.412 140.272715 
L 472.338 136.666045 
L 477.264 134.291556 
L 482.19 133.077979 
L 487.116 132.962338 
L 492.042 133.895373 
L 496.968 135.842345 
L 501.894 138.782062 
L 506.82 142.704696 
L 511.746 147.608339 
L 516.672 153.492909 
L 521.598 160.348935 
L 526.524 168.136143 
L 531.45 176.743198 
L 541.302 195.148138 
L 546.228 203.56496 
L 551.154 209.958913 
L 556.08 213.210239 
L 561.006 212.990238 
L 565.932 210.014054 
L 570.858 205.507394 
L 575.784 200.557095 
L 580.71 195.868421 
L 585.636 191.818995 
L 590.562 188.581307 
L 595.488 186.217321 
L 600.414 184.735261 
L 605.34 184.120338 
L 610.266 184.350355 
L 615.192 185.403354 
L 620.118 187.26093 
L 625.044 189.909339 
L 629.97 193.338836 
L 634.896 197.541657 
L 639.822 202.508104 
L 644.748 208.219401 
L 649.674 214.635296 
L 654.6 221.673374 
L 669.378 244.274596 
L 674.304 250.762527 
L 679.23 255.571033 
L 684.156 258.100374 
L 689.082 258.211361 
L 694.008 256.307003 
L 698.934 253.103125 
L 708.786 245.500708 
L 713.712 242.005216 
L 718.638 239.036384 
L 723.564 236.701307 
L 728.49 235.049603 
L 733.416 234.099441 
L 738.342 233.853097 
L 743.268 234.305789 
L 748.194 235.450306 
L 753.12 237.279165 
L 758.046 239.784788 
L 762.972 242.958232 
L 767.898 246.785997 
L 772.824 251.24442 
L 777.75 256.290312 
L 782.676 261.846282 
L 797.454 279.784336 
L 802.38 285.064435 
L 807.306 289.169452 
L 812.232 291.610731 
L 817.158 292.136569 
L 822.084 290.848689 
L 827.01 288.147852 
L 831.936 284.557999 
L 846.714 272.683091 
L 851.64 269.172922 
L 856.566 266.059 
L 861.492 263.358596 
L 866.418 261.058357 
L 871.344 259.125244 
L 876.27 257.513399 
L 881.196 256.168844 
L 886.122 255.032982 
L 895.974 253.149645 
L 910.752 250.531519 
L 920.604 248.581574 
L 935.382 245.487818 
L 940.308 244.553647 
L 945.234 243.748442 
L 950.16 243.124237 
L 955.086 242.732593 
L 960.012 242.623448 
L 964.938 242.844764 
L 969.864 243.442702 
L 974.79 244.462166 
L 979.716 245.947745 
L 984.642 247.944763 
L 989.568 250.500355 
L 994.494 253.664559 
L 999.42 257.490965 
L 1004.346 262.036607 
L 1009.272 267.359873 
L 1014.198 273.514192 
L 1019.124 280.532803 
L 1024.05 288.394368 
L 1028.976 296.951211 
L 1033.902 305.791966 
L 1038.828 314.033153 
L 1043.754 320.180127 
L 1048.68 322.504642 
L 1048.68 322.504642 
" clip-path="url(#p18a4e57674)" style="fill: none; stroke-dasharray: 11.1,4.8; stroke-dashoffset: 0; stroke: #ff0000; stroke-width: 3"/>
   </g>
   <g id="line2d_57">
    <path d="M 162 82.756184 
L 166.926 82.946311 
L 176.778 83.824923 
L 181.704 83.702496 
L 186.63 82.486759 
L 191.556 79.761846 
L 196.482 75.448749 
L 201.408 69.846916 
L 206.334 63.485733 
L 211.26 56.9196 
L 216.186 50.59845 
L 221.112 44.834445 
L 226.038 39.822632 
L 230.964 35.675954 
L 235.89 32.456184 
L 240.816 30.196358 
L 245.742 28.915688 
L 250.668 28.629432 
L 255.594 29.355531 
L 260.52 31.119355 
L 265.446 33.958007 
L 270.372 37.92449 
L 275.298 43.092528 
L 280.224 49.562311 
L 285.15 57.467142 
L 290.076 66.979205 
L 295.002 78.307344 
L 299.928 91.66127 
L 304.854 107.09554 
L 309.78 123.964106 
L 314.706 139.463413 
L 319.632 147.345355 
L 324.558 143.397827 
L 329.484 132.167658 
L 334.41 119.779491 
L 339.336 108.885624 
L 344.262 100.07461 
L 349.188 93.278123 
L 354.114 88.287207 
L 359.04 84.899276 
L 363.966 82.951557 
L 368.892 82.323459 
L 373.818 82.931539 
L 378.744 84.724241 
L 383.67 87.677607 
L 388.596 91.792327 
L 393.522 97.091286 
L 398.448 103.616392 
L 403.374 111.421446 
L 408.3 120.554459 
L 413.226 131.012423 
L 418.152 142.632576 
L 423.078 154.852026 
L 428.004 166.29238 
L 432.93 174.500681 
L 437.856 177.000956 
L 442.782 173.644241 
L 447.708 166.778174 
L 452.634 158.929259 
L 457.56 151.570352 
L 462.486 145.31468 
L 467.412 140.341541 
L 472.338 136.65285 
L 477.264 134.190583 
L 482.19 132.88508 
L 487.116 132.673495 
L 492.042 133.50593 
L 496.968 135.346597 
L 501.894 138.172968 
L 506.82 141.973744 
L 511.746 146.745564 
L 516.672 152.487261 
L 521.598 159.189407 
L 526.524 166.814514 
L 531.45 175.260127 
L 541.302 193.447518 
L 546.228 201.912166 
L 551.154 208.538847 
L 556.08 212.196943 
L 561.006 212.440654 
L 565.932 209.843474 
L 570.858 205.567352 
L 575.784 200.712978 
L 580.71 196.02596 
L 585.636 191.919505 
L 590.562 188.589637 
L 595.488 186.11209 
L 600.414 184.502495 
L 605.34 183.749646 
L 610.266 183.832677 
L 615.192 184.72963 
L 620.118 186.421288 
L 625.044 188.892564 
L 629.97 192.132133 
L 634.896 196.130768 
L 639.822 200.877715 
L 644.748 206.354525 
L 649.674 212.524276 
L 654.6 219.313716 
L 659.526 226.584786 
L 669.378 241.441443 
L 674.304 248.050411 
L 679.23 253.219096 
L 684.156 256.325538 
L 689.082 257.112205 
L 694.008 255.829868 
L 698.934 253.0949 
L 703.86 249.604038 
L 708.786 245.931654 
L 713.712 242.471246 
L 718.638 239.461511 
L 723.564 237.034062 
L 728.49 235.254479 
L 733.416 234.150529 
L 738.342 233.729667 
L 743.268 233.989238 
L 748.194 234.92208 
L 753.12 236.519064 
L 758.046 238.769743 
L 762.972 241.661197 
L 767.898 245.175194 
L 772.824 249.283024 
L 777.75 253.937324 
L 782.676 259.059548 
L 797.454 275.582778 
L 802.38 280.501094 
L 807.306 284.430905 
L 812.232 286.955897 
L 817.158 287.831989 
L 822.084 287.086431 
L 827.01 285.001668 
L 831.936 281.997048 
L 836.862 278.49517 
L 846.714 271.272915 
L 851.64 267.944435 
L 856.566 264.935012 
L 861.492 262.276196 
L 866.418 259.966401 
L 871.344 257.982138 
L 876.27 256.285471 
L 881.196 254.829425 
L 886.122 253.562133 
L 895.974 251.38383 
L 915.678 247.299662 
L 935.382 243.061506 
L 940.308 242.158141 
L 945.234 241.406341 
L 950.16 240.855478 
L 955.086 240.554821 
L 960.012 240.552718 
L 964.938 240.89645 
L 969.864 241.632594 
L 974.79 242.807841 
L 979.716 244.470157 
L 984.642 246.670214 
L 989.568 249.463217 
L 994.494 252.910942 
L 999.42 257.084023 
L 1004.346 262.064444 
L 1009.272 267.947548 
L 1014.198 274.842237 
L 1019.124 282.865212 
L 1024.05 292.118602 
L 1028.976 302.623424 
L 1038.828 325.757491 
L 1043.754 335.223046 
L 1048.68 339.041455 
L 1048.68 339.041455 
" clip-path="url(#p18a4e57674)" style="fill: none; stroke: #ff0000; stroke-width: 3; stroke-linecap: square"/>
   </g>
   <g id="patch_3">
    <path d="M 162 354.672 
L 162 10.8 
" style="fill: none; stroke: #000000; stroke-width: 0.8; stroke-linejoin: miter; stroke-linecap: square"/>
   </g>
   <g id="patch_4">
    <path d="M 1048.68 354.672 
L 1048.68 10.8 
" style="fill: none; stroke: #000000; stroke-width: 0.8; stroke-linejoin: miter; stroke-linecap: square"/>
   </g>
   <g id="patch_5">
    <path d="M 162 354.672 
L 1048.68 354.672 
" style="fill: none; stroke: #000000; stroke-width: 0.8; stroke-linejoin: miter; stroke-linecap: square"/>
   </g>
   <g id="patch_6">
    <path d="M 162 10.8 
L 1048.68 10.8 
" style="fill: none; stroke: #000000; stroke-width: 0.8; stroke-linejoin: miter; stroke-linecap: square"/>
   </g>
   <g id="legend_1">
    <g id="patch_7">
     <path d="M 853.58 156.964062 
L 1034.68 156.964062 
Q 1038.68 156.964062 1038.68 152.964062 
L 1038.68 24.8 
Q 1038.68 20.8 1034.68 20.8 
L 853.58 20.8 
Q 849.58 20.8 849.58 24.8 
L 849.58 152.964062 
Q 849.58 156.964062 853.58 156.964062 
z
" style="fill: #ffffff; opacity: 0.8; stroke: #cccccc; stroke-linejoin: miter"/>
    </g>
    <g id="text_14">
     <!-- $E_p=$30MeV -->
     <g transform="translate(857.58 51.595312) scale(0.3 -0.3)">
      <defs>
       <path id="DejaVuSans-Oblique-45" d="M 1081 4666 
L 4031 4666 
L 3928 4134 
L 1606 4134 
L 1338 2753 
L 3566 2753 
L 3463 2222 
L 1234 2222 
L 909 531 
L 3284 531 
L 3181 0 
L 172 0 
L 1081 4666 
z
" transform="scale(0.015625)"/>
       <path id="DejaVuSans-Oblique-70" d="M 3175 2156 
Q 3175 2616 2975 2859 
Q 2775 3103 2400 3103 
Q 2144 3103 1911 2972 
Q 1678 2841 1497 2591 
Q 1319 2344 1212 1994 
Q 1106 1644 1106 1300 
Q 1106 863 1306 627 
Q 1506 391 1875 391 
Q 2147 391 2380 519 
Q 2613 647 2778 891 
Q 2956 1147 3065 1494 
Q 3175 1841 3175 2156 
z
M 1394 2969 
Q 1625 3272 1939 3428 
Q 2253 3584 2638 3584 
Q 3175 3584 3472 3232 
Q 3769 2881 3769 2247 
Q 3769 1728 3584 1258 
Q 3400 788 3053 416 
Q 2822 169 2531 39 
Q 2241 -91 1919 -91 
Q 1547 -91 1294 64 
Q 1041 219 916 525 
L 556 -1331 
L -19 -1331 
L 922 3500 
L 1497 3500 
L 1394 2969 
z
" transform="scale(0.015625)"/>
       <path id="DejaVuSans-3d" d="M 678 2906 
L 4684 2906 
L 4684 2381 
L 678 2381 
L 678 2906 
z
M 678 1631 
L 4684 1631 
L 4684 1100 
L 678 1100 
L 678 1631 
z
" transform="scale(0.015625)"/>
       <path id="DejaVuSans-4d" d="M 628 4666 
L 1569 4666 
L 2759 1491 
L 3956 4666 
L 4897 4666 
L 4897 0 
L 4281 0 
L 4281 4097 
L 3078 897 
L 2444 897 
L 1241 4097 
L 1241 0 
L 628 0 
L 628 4666 
z
" transform="scale(0.015625)"/>
       <path id="DejaVuSans-56" d="M 1831 0 
L 50 4666 
L 709 4666 
L 2188 738 
L 3669 4666 
L 4325 4666 
L 2547 0 
L 1831 0 
z
" transform="scale(0.015625)"/>
      </defs>
      <use xlink:href="#DejaVuSans-Oblique-45" transform="translate(0 0.78125)"/>
      <use xlink:href="#DejaVuSans-Oblique-70" transform="translate(63.183594 -15.625) scale(0.7)"/>
      <use xlink:href="#DejaVuSans-3d" transform="translate(129.833984 0.78125)"/>
      <use xlink:href="#DejaVuSans-33" transform="translate(233.105469 0.78125)"/>
      <use xlink:href="#DejaVuSans-30" transform="translate(296.728516 0.78125)"/>
      <use xlink:href="#DejaVuSans-4d" transform="translate(360.351562 0.78125)"/>
      <use xlink:href="#DejaVuSans-65" transform="translate(446.630859 0.78125)"/>
      <use xlink:href="#DejaVuSans-56" transform="translate(508.154297 0.78125)"/>
     </g>
    </g>
    <g id="line2d_58">
     <path d="M 883.676875 79.092187 
L 903.676875 79.092187 
L 923.676875 79.092187 
" style="fill: none; stroke-dasharray: 3,4.95; stroke-dashoffset: 0; stroke: #ff0000; stroke-width: 3"/>
    </g>
    <g id="text_15">
     <!-- LELO -->
     <g transform="translate(939.676875 86.092187) scale(0.2 -0.2)">
      <defs>
       <path id="DejaVuSans-4c" d="M 628 4666 
L 1259 4666 
L 1259 531 
L 3531 531 
L 3531 0 
L 628 0 
L 628 4666 
z
" transform="scale(0.015625)"/>
       <path id="DejaVuSans-45" d="M 628 4666 
L 3578 4666 
L 3578 4134 
L 1259 4134 
L 1259 2753 
L 3481 2753 
L 3481 2222 
L 1259 2222 
L 1259 531 
L 3634 531 
L 3634 0 
L 628 0 
L 628 4666 
z
" transform="scale(0.015625)"/>
       <path id="DejaVuSans-4f" d="M 2522 4238 
Q 1834 4238 1429 3725 
Q 1025 3213 1025 2328 
Q 1025 1447 1429 934 
Q 1834 422 2522 422 
Q 3209 422 3611 934 
Q 4013 1447 4013 2328 
Q 4013 3213 3611 3725 
Q 3209 4238 2522 4238 
z
M 2522 4750 
Q 3503 4750 4090 4092 
Q 4678 3434 4678 2328 
Q 4678 1225 4090 567 
Q 3503 -91 2522 -91 
Q 1538 -91 948 565 
Q 359 1222 359 2328 
Q 359 3434 948 4092 
Q 1538 4750 2522 4750 
z
" transform="scale(0.015625)"/>
      </defs>
      <use xlink:href="#DejaVuSans-4c"/>
      <use xlink:href="#DejaVuSans-45" transform="translate(55.712891 0)"/>
      <use xlink:href="#DejaVuSans-4c" transform="translate(118.896484 0)"/>
      <use xlink:href="#DejaVuSans-4f" transform="translate(170.984375 0)"/>
     </g>
    </g>
    <g id="line2d_59">
     <path d="M 883.676875 108.448437 
L 903.676875 108.448437 
L 923.676875 108.448437 
" style="fill: none; stroke-dasharray: 11.1,4.8; stroke-dashoffset: 0; stroke: #ff0000; stroke-width: 3"/>
    </g>
    <g id="text_16">
     <!-- LENLO -->
     <g transform="translate(939.676875 115.448437) scale(0.2 -0.2)">
      <defs>
       <path id="DejaVuSans-4e" d="M 628 4666 
L 1478 4666 
L 3547 763 
L 3547 4666 
L 4159 4666 
L 4159 0 
L 3309 0 
L 1241 3903 
L 1241 0 
L 628 0 
L 628 4666 
z
" transform="scale(0.015625)"/>
      </defs>
      <use xlink:href="#DejaVuSans-4c"/>
      <use xlink:href="#DejaVuSans-45" transform="translate(55.712891 0)"/>
      <use xlink:href="#DejaVuSans-4e" transform="translate(118.896484 0)"/>
      <use xlink:href="#DejaVuSans-4c" transform="translate(193.701172 0)"/>
      <use xlink:href="#DejaVuSans-4f" transform="translate(245.789062 0)"/>
     </g>
    </g>
    <g id="line2d_60">
     <path d="M 883.676875 137.804688 
L 903.676875 137.804688 
L 923.676875 137.804688 
" style="fill: none; stroke: #ff0000; stroke-width: 3; stroke-linecap: square"/>
    </g>
    <g id="text_17">
     <!-- NL -->
     <g transform="translate(939.676875 144.804688) scale(0.2 -0.2)">
      <use xlink:href="#DejaVuSans-4e"/>
      <use xlink:href="#DejaVuSans-4c" transform="translate(74.804688 0)"/>
     </g>
    </g>
   </g>
  </g>
 </g>
 <defs>
  <clipPath id="p18a4e57674">
   <rect x="162" y="10.8" width="886.68" height="343.872"/>
  </clipPath>
 </defs>
</svg>
