<?xml version="1.0" encoding="utf-8" standalone="no"?>
<!DOCTYPE svg PUBLIC "-//W3C//DTD SVG 1.1//EN"
  "http://www.w3.org/Graphics/SVG/1.1/DTD/svg11.dtd">
<svg xmlns:xlink="http://www.w3.org/1999/xlink" width="576pt" height="720pt" viewBox="0 0 576 720" xmlns="http://www.w3.org/2000/svg" version="1.1">
 <metadata>
  <rdf:RDF xmlns:dc="http://purl.org/dc/elements/1.1/" xmlns:cc="http://creativecommons.org/ns#" xmlns:rdf="http://www.w3.org/1999/02/22-rdf-syntax-ns#">
   <cc:Work>
    <dc:type rdf:resource="http://purl.org/dc/dcmitype/StillImage"/>
    <dc:date>2026-03-23T16:51:20.599520</dc:date>
    <dc:format>image/svg+xml</dc:format>
    <dc:creator>
     <cc:Agent>
      <dc:title>Matplotlib v3.10.8, https://matplotlib.org/</dc:title>
     </cc:Agent>
    </dc:creator>
   </cc:Work>
  </rdf:RDF>
 </metadata>
 <defs>
  <style type="text/css">*{stroke-linejoin: round; stroke-linecap: butt}</style>
 </defs>
 <g id="figure_1">
  <g id="patch_1">
   <path d="M 0 720 
L 576 720 
L 576 0 
L 0 0 
L 0 720 
z
" style="fill: none"/>
  </g>
  <g id="axes_1">
   <g id="patch_2">
    <path d="M 114.048 630 
L 333.476571 630 
L 333.476571 83.52 
L 114.048 83.52 
L 114.048 630 
z
" style="fill: none"/>
   </g>
   <g id="axes_2">
    <g id="patch_3">
     <path d="M 114.048 83.52 
L 333.476571 83.52 
L 333.476571 83.52 
L 114.048 83.52 
L 114.048 83.52 
z
" style="fill: none"/>
    </g>
    <g id="matplotlib.axis_1">
     <g id="xtick_1">
      <g id="line2d_1">
       <defs>
        <path id="mcbe9d3bdf9" d="M 0 0 
L 0 -3.5 
" style="stroke: #000000; stroke-width: 0.8"/>
       </defs>
       <g>
        <use xlink:href="#mcbe9d3bdf9" x="292.896768" y="83.52" style="stroke: #000000; stroke-width: 0.8"/>
       </g>
      </g>
      <g id="text_1">
       <!-- 10 -->
       <g transform="translate(275.081768 70.696875) scale(0.28 -0.28)">
        <defs>
         <path id="DejaVuSans-31" d="M 794 531 
L 1825 531 
L 1825 4091 
L 703 3866 
L 703 4441 
L 1819 4666 
L 2450 4666 
L 2450 531 
L 3481 531 
L 3481 0 
L 794 0 
L 794 531 
z
" transform="scale(0.015625)"/>
         <path id="DejaVuSans-30" d="M 2034 4250 
Q 1547 4250 1301 3770 
Q 1056 3291 1056 2328 
Q 1056 1369 1301 889 
Q 1547 409 2034 409 
Q 2525 409 2770 889 
Q 3016 1369 3016 2328 
Q 3016 3291 2770 3770 
Q 2525 4250 2034 4250 
z
M 2034 4750 
Q 2819 4750 3233 4129 
Q 3647 3509 3647 2328 
Q 3647 1150 3233 529 
Q 2819 -91 2034 -91 
Q 1250 -91 836 529 
Q 422 1150 422 2328 
Q 422 3509 836 4129 
Q 1250 4750 2034 4750 
z
" transform="scale(0.015625)"/>
        </defs>
        <use xlink:href="#DejaVuSans-31"/>
        <use xlink:href="#DejaVuSans-30" transform="translate(63.623047 0)"/>
       </g>
      </g>
     </g>
     <g id="xtick_2">
      <g id="line2d_2">
       <g>
        <use xlink:href="#mcbe9d3bdf9" x="231.841271" y="83.52" style="stroke: #000000; stroke-width: 0.8"/>
       </g>
      </g>
      <g id="text_2">
       <!-- 20 -->
       <g transform="translate(214.026271 70.696875) scale(0.28 -0.28)">
        <defs>
         <path id="DejaVuSans-32" d="M 1228 531 
L 3431 531 
L 3431 0 
L 469 0 
L 469 531 
Q 828 903 1448 1529 
Q 2069 2156 2228 2338 
Q 2531 2678 2651 2914 
Q 2772 3150 2772 3378 
Q 2772 3750 2511 3984 
Q 2250 4219 1831 4219 
Q 1534 4219 1204 4116 
Q 875 4013 500 3803 
L 500 4441 
Q 881 4594 1212 4672 
Q 1544 4750 1819 4750 
Q 2544 4750 2975 4387 
Q 3406 4025 3406 3419 
Q 3406 3131 3298 2873 
Q 3191 2616 2906 2266 
Q 2828 2175 2409 1742 
Q 1991 1309 1228 531 
z
" transform="scale(0.015625)"/>
        </defs>
        <use xlink:href="#DejaVuSans-32"/>
        <use xlink:href="#DejaVuSans-30" transform="translate(63.623047 0)"/>
       </g>
      </g>
     </g>
     <g id="xtick_3">
      <g id="line2d_3">
       <g>
        <use xlink:href="#mcbe9d3bdf9" x="170.785774" y="83.52" style="stroke: #000000; stroke-width: 0.8"/>
       </g>
      </g>
      <g id="text_3">
       <!-- 30 -->
       <g transform="translate(152.970774 70.696875) scale(0.28 -0.28)">
        <defs>
         <path id="DejaVuSans-33" d="M 2597 2516 
Q 3050 2419 3304 2112 
Q 3559 1806 3559 1356 
Q 3559 666 3084 287 
Q 2609 -91 1734 -91 
Q 1441 -91 1130 -33 
Q 819 25 488 141 
L 488 750 
Q 750 597 1062 519 
Q 1375 441 1716 441 
Q 2309 441 2620 675 
Q 2931 909 2931 1356 
Q 2931 1769 2642 2001 
Q 2353 2234 1838 2234 
L 1294 2234 
L 1294 2753 
L 1863 2753 
Q 2328 2753 2575 2939 
Q 2822 3125 2822 3475 
Q 2822 3834 2567 4026 
Q 2313 4219 1838 4219 
Q 1578 4219 1281 4162 
Q 984 4106 628 3988 
L 628 4550 
Q 988 4650 1302 4700 
Q 1616 4750 1894 4750 
Q 2613 4750 3031 4423 
Q 3450 4097 3450 3541 
Q 3450 3153 3228 2886 
Q 3006 2619 2597 2516 
z
" transform="scale(0.015625)"/>
        </defs>
        <use xlink:href="#DejaVuSans-33"/>
        <use xlink:href="#DejaVuSans-30" transform="translate(63.623047 0)"/>
       </g>
      </g>
     </g>
     <g id="text_4">
      <!-- $E_t$ (MeV) -->
      <g transform="translate(143.962286 34.42125) scale(0.38 -0.38)">
       <defs>
        <path id="DejaVuSans-Oblique-45" d="M 1081 4666 
L 4031 4666 
L 3928 4134 
L 1606 4134 
L 1338 2753 
L 3566 2753 
L 3463 2222 
L 1234 2222 
L 909 531 
L 3284 531 
L 3181 0 
L 172 0 
L 1081 4666 
z
" transform="scale(0.015625)"/>
        <path id="DejaVuSans-Oblique-74" d="M 2706 3500 
L 2619 3053 
L 1472 3053 
L 1100 1153 
Q 1081 1047 1072 975 
Q 1063 903 1063 863 
Q 1063 663 1183 572 
Q 1303 481 1569 481 
L 2150 481 
L 2053 0 
L 1503 0 
Q 991 0 739 200 
Q 488 400 488 806 
Q 488 878 497 964 
Q 506 1050 525 1153 
L 897 3053 
L 409 3053 
L 500 3500 
L 978 3500 
L 1172 4494 
L 1747 4494 
L 1556 3500 
L 2706 3500 
z
" transform="scale(0.015625)"/>
        <path id="DejaVuSans-20" transform="scale(0.015625)"/>
        <path id="DejaVuSans-28" d="M 1984 4856 
Q 1566 4138 1362 3434 
Q 1159 2731 1159 2009 
Q 1159 1288 1364 580 
Q 1569 -128 1984 -844 
L 1484 -844 
Q 1016 -109 783 600 
Q 550 1309 550 2009 
Q 550 2706 781 3412 
Q 1013 4119 1484 4856 
L 1984 4856 
z
" transform="scale(0.015625)"/>
        <path id="DejaVuSans-4d" d="M 628 4666 
L 1569 4666 
L 2759 1491 
L 3956 4666 
L 4897 4666 
L 4897 0 
L 4281 0 
L 4281 4097 
L 3078 897 
L 2444 897 
L 1241 4097 
L 1241 0 
L 628 0 
L 628 4666 
z
" transform="scale(0.015625)"/>
        <path id="DejaVuSans-65" d="M 3597 1894 
L 3597 1613 
L 953 1613 
Q 991 1019 1311 708 
Q 1631 397 2203 397 
Q 2534 397 2845 478 
Q 3156 559 3463 722 
L 3463 178 
Q 3153 47 2828 -22 
Q 2503 -91 2169 -91 
Q 1331 -91 842 396 
Q 353 884 353 1716 
Q 353 2575 817 3079 
Q 1281 3584 2069 3584 
Q 2775 3584 3186 3129 
Q 3597 2675 3597 1894 
z
M 3022 2063 
Q 3016 2534 2758 2815 
Q 2500 3097 2075 3097 
Q 1594 3097 1305 2825 
Q 1016 2553 972 2059 
L 3022 2063 
z
" transform="scale(0.015625)"/>
        <path id="DejaVuSans-56" d="M 1831 0 
L 50 4666 
L 709 4666 
L 2188 738 
L 3669 4666 
L 4325 4666 
L 2547 0 
L 1831 0 
z
" transform="scale(0.015625)"/>
        <path id="DejaVuSans-29" d="M 513 4856 
L 1013 4856 
Q 1481 4119 1714 3412 
Q 1947 2706 1947 2009 
Q 1947 1309 1714 600 
Q 1481 -109 1013 -844 
L 513 -844 
Q 928 -128 1133 580 
Q 1338 1288 1338 2009 
Q 1338 2731 1133 3434 
Q 928 4138 513 4856 
z
" transform="scale(0.015625)"/>
       </defs>
       <use xlink:href="#DejaVuSans-Oblique-45" transform="translate(0 0.125)"/>
       <use xlink:href="#DejaVuSans-Oblique-74" transform="translate(63.183594 -16.28125) scale(0.7)"/>
       <use xlink:href="#DejaVuSans-20" transform="translate(93.364258 0.125)"/>
       <use xlink:href="#DejaVuSans-28" transform="translate(125.151367 0.125)"/>
       <use xlink:href="#DejaVuSans-4d" transform="translate(164.165039 0.125)"/>
       <use xlink:href="#DejaVuSans-65" transform="translate(250.444336 0.125)"/>
       <use xlink:href="#DejaVuSans-56" transform="translate(311.967773 0.125)"/>
       <use xlink:href="#DejaVuSans-29" transform="translate(380.375977 0.125)"/>
      </g>
     </g>
    </g>
    <g id="matplotlib.axis_2"/>
    <g id="patch_4">
     <path d="M 333.476571 83.52 
L 114.048 83.52 
" style="fill: none; stroke: #000000; stroke-width: 0.8; stroke-linejoin: miter; stroke-linecap: square"/>
    </g>
   </g>
   <g id="matplotlib.axis_3">
    <g id="xtick_4">
     <g id="line2d_4">
      <path d="M 120.969251 630 
L 120.969251 83.52 
" clip-path="url(#p93f1c4fb98)" style="fill: none; stroke: #b0b0b0; stroke-opacity: 0.2; stroke-width: 0.8; stroke-linecap: square"/>
     </g>
     <g id="line2d_5">
      <defs>
       <path id="m4f5316feee" d="M 0 0 
L 0 3.5 
" style="stroke: #000000; stroke-width: 0.8"/>
      </defs>
      <g>
       <use xlink:href="#m4f5316feee" x="120.969251" y="630" style="stroke: #000000; stroke-width: 0.8"/>
      </g>
     </g>
     <g id="text_5">
      <!-- 0 -->
      <g transform="translate(112.061751 658.275625) scale(0.28 -0.28)">
       <use xlink:href="#DejaVuSans-30"/>
      </g>
     </g>
    </g>
    <g id="xtick_5">
     <g id="line2d_6">
      <path d="M 243.080245 630 
L 243.080245 83.52 
" clip-path="url(#p93f1c4fb98)" style="fill: none; stroke: #b0b0b0; stroke-opacity: 0.2; stroke-width: 0.8; stroke-linecap: square"/>
     </g>
     <g id="line2d_7">
      <g>
       <use xlink:href="#m4f5316feee" x="243.080245" y="630" style="stroke: #000000; stroke-width: 0.8"/>
      </g>
     </g>
     <g id="text_6">
      <!-- 20 -->
      <g transform="translate(225.265245 658.275625) scale(0.28 -0.28)">
       <use xlink:href="#DejaVuSans-32"/>
       <use xlink:href="#DejaVuSans-30" transform="translate(63.623047 0)"/>
      </g>
     </g>
    </g>
    <g id="text_7">
     <!-- $S_{2n}$ (MeV) -->
     <g transform="translate(132.182286 696.972813) scale(0.38 -0.38)">
      <defs>
       <path id="DejaVuSans-Oblique-53" d="M 3859 4513 
L 3738 3897 
Q 3422 4066 3111 4152 
Q 2800 4238 2509 4238 
Q 1944 4238 1609 3991 
Q 1275 3744 1275 3334 
Q 1275 3109 1398 2989 
Q 1522 2869 2034 2731 
L 2413 2638 
Q 3053 2472 3303 2217 
Q 3553 1963 3553 1503 
Q 3553 797 2998 353 
Q 2444 -91 1538 -91 
Q 1166 -91 791 -17 
Q 416 56 38 206 
L 166 856 
Q 513 641 861 531 
Q 1209 422 1556 422 
Q 2147 422 2503 684 
Q 2859 947 2859 1369 
Q 2859 1650 2717 1795 
Q 2575 1941 2106 2059 
L 1728 2156 
Q 1081 2325 845 2545 
Q 609 2766 609 3163 
Q 609 3859 1145 4304 
Q 1681 4750 2541 4750 
Q 2875 4750 3203 4690 
Q 3531 4631 3859 4513 
z
" transform="scale(0.015625)"/>
       <path id="DejaVuSans-Oblique-6e" d="M 3566 2113 
L 3156 0 
L 2578 0 
L 2988 2091 
Q 3016 2238 3031 2350 
Q 3047 2463 3047 2528 
Q 3047 2791 2881 2937 
Q 2716 3084 2419 3084 
Q 1956 3084 1622 2776 
Q 1288 2469 1184 1941 
L 800 0 
L 225 0 
L 903 3500 
L 1478 3500 
L 1363 2950 
Q 1603 3253 1940 3418 
Q 2278 3584 2650 3584 
Q 3113 3584 3367 3334 
Q 3622 3084 3622 2631 
Q 3622 2519 3608 2391 
Q 3594 2263 3566 2113 
z
" transform="scale(0.015625)"/>
      </defs>
      <use xlink:href="#DejaVuSans-Oblique-53" transform="translate(0 0.125)"/>
      <use xlink:href="#DejaVuSans-32" transform="translate(63.476562 -16.28125) scale(0.7)"/>
      <use xlink:href="#DejaVuSans-Oblique-6e" transform="translate(108.012695 -16.28125) scale(0.7)"/>
      <use xlink:href="#DejaVuSans-20" transform="translate(155.112305 0.125)"/>
      <use xlink:href="#DejaVuSans-28" transform="translate(186.899414 0.125)"/>
      <use xlink:href="#DejaVuSans-4d" transform="translate(225.913086 0.125)"/>
      <use xlink:href="#DejaVuSans-65" transform="translate(312.192383 0.125)"/>
      <use xlink:href="#DejaVuSans-56" transform="translate(373.71582 0.125)"/>
      <use xlink:href="#DejaVuSans-29" transform="translate(442.124023 0.125)"/>
     </g>
    </g>
   </g>
   <g id="matplotlib.axis_4">
    <g id="ytick_1">
     <g id="line2d_8">
      <path d="M 114.048 559.490812 
L 333.476571 559.490812 
" clip-path="url(#p93f1c4fb98)" style="fill: none; stroke: #b0b0b0; stroke-opacity: 0.2; stroke-width: 0.8; stroke-linecap: square"/>
     </g>
     <g id="line2d_9">
      <defs>
       <path id="m7499792243" d="M 0 0 
L -3.5 0 
" style="stroke: #000000; stroke-width: 0.8"/>
      </defs>
      <g>
       <use xlink:href="#m7499792243" x="114.048" y="559.490812" style="stroke: #000000; stroke-width: 0.8"/>
      </g>
     </g>
     <g id="text_8">
      <!-- 0.9 -->
      <g transform="translate(62.51925 570.128624) scale(0.28 -0.28)">
       <defs>
        <path id="DejaVuSans-2e" d="M 684 794 
L 1344 794 
L 1344 0 
L 684 0 
L 684 794 
z
" transform="scale(0.015625)"/>
        <path id="DejaVuSans-39" d="M 703 97 
L 703 672 
Q 941 559 1184 500 
Q 1428 441 1663 441 
Q 2288 441 2617 861 
Q 2947 1281 2994 2138 
Q 2813 1869 2534 1725 
Q 2256 1581 1919 1581 
Q 1219 1581 811 2004 
Q 403 2428 403 3163 
Q 403 3881 828 4315 
Q 1253 4750 1959 4750 
Q 2769 4750 3195 4129 
Q 3622 3509 3622 2328 
Q 3622 1225 3098 567 
Q 2575 -91 1691 -91 
Q 1453 -91 1209 -44 
Q 966 3 703 97 
z
M 1959 2075 
Q 2384 2075 2632 2365 
Q 2881 2656 2881 3163 
Q 2881 3666 2632 3958 
Q 2384 4250 1959 4250 
Q 1534 4250 1286 3958 
Q 1038 3666 1038 3163 
Q 1038 2656 1286 2365 
Q 1534 2075 1959 2075 
z
" transform="scale(0.015625)"/>
       </defs>
       <use xlink:href="#DejaVuSans-30"/>
       <use xlink:href="#DejaVuSans-2e" transform="translate(63.623047 0)"/>
       <use xlink:href="#DejaVuSans-39" transform="translate(95.410156 0)"/>
      </g>
     </g>
    </g>
    <g id="ytick_2">
     <g id="line2d_10">
      <path d="M 114.048 472.996382 
L 333.476571 472.996382 
" clip-path="url(#p93f1c4fb98)" style="fill: none; stroke: #b0b0b0; stroke-opacity: 0.2; stroke-width: 0.8; stroke-linecap: square"/>
     </g>
     <g id="line2d_11">
      <g>
       <use xlink:href="#m7499792243" x="114.048" y="472.996382" style="stroke: #000000; stroke-width: 0.8"/>
      </g>
     </g>
     <g id="text_9">
      <!-- 1.0 -->
      <g transform="translate(62.51925 483.634194) scale(0.28 -0.28)">
       <use xlink:href="#DejaVuSans-31"/>
       <use xlink:href="#DejaVuSans-2e" transform="translate(63.623047 0)"/>
       <use xlink:href="#DejaVuSans-30" transform="translate(95.410156 0)"/>
      </g>
     </g>
    </g>
    <g id="ytick_3">
     <g id="line2d_12">
      <path d="M 114.048 386.501952 
L 333.476571 386.501952 
" clip-path="url(#p93f1c4fb98)" style="fill: none; stroke: #b0b0b0; stroke-opacity: 0.2; stroke-width: 0.8; stroke-linecap: square"/>
     </g>
     <g id="line2d_13">
      <g>
       <use xlink:href="#m7499792243" x="114.048" y="386.501952" style="stroke: #000000; stroke-width: 0.8"/>
      </g>
     </g>
     <g id="text_10">
      <!-- 1.1 -->
      <g transform="translate(62.51925 397.139764) scale(0.28 -0.28)">
       <use xlink:href="#DejaVuSans-31"/>
       <use xlink:href="#DejaVuSans-2e" transform="translate(63.623047 0)"/>
       <use xlink:href="#DejaVuSans-31" transform="translate(95.410156 0)"/>
      </g>
     </g>
    </g>
    <g id="ytick_4">
     <g id="line2d_14">
      <path d="M 114.048 300.007522 
L 333.476571 300.007522 
" clip-path="url(#p93f1c4fb98)" style="fill: none; stroke: #b0b0b0; stroke-opacity: 0.2; stroke-width: 0.8; stroke-linecap: square"/>
     </g>
     <g id="line2d_15">
      <g>
       <use xlink:href="#m7499792243" x="114.048" y="300.007522" style="stroke: #000000; stroke-width: 0.8"/>
      </g>
     </g>
     <g id="text_11">
      <!-- 1.2 -->
      <g transform="translate(62.51925 310.645334) scale(0.28 -0.28)">
       <use xlink:href="#DejaVuSans-31"/>
       <use xlink:href="#DejaVuSans-2e" transform="translate(63.623047 0)"/>
       <use xlink:href="#DejaVuSans-32" transform="translate(95.410156 0)"/>
      </g>
     </g>
    </g>
    <g id="ytick_5">
     <g id="line2d_16">
      <path d="M 114.048 213.513092 
L 333.476571 213.513092 
" clip-path="url(#p93f1c4fb98)" style="fill: none; stroke: #b0b0b0; stroke-opacity: 0.2; stroke-width: 0.8; stroke-linecap: square"/>
     </g>
     <g id="line2d_17">
      <g>
       <use xlink:href="#m7499792243" x="114.048" y="213.513092" style="stroke: #000000; stroke-width: 0.8"/>
      </g>
     </g>
     <g id="text_12">
      <!-- 1.3 -->
      <g transform="translate(62.51925 224.150904) scale(0.28 -0.28)">
       <use xlink:href="#DejaVuSans-31"/>
       <use xlink:href="#DejaVuSans-2e" transform="translate(63.623047 0)"/>
       <use xlink:href="#DejaVuSans-33" transform="translate(95.410156 0)"/>
      </g>
     </g>
    </g>
    <g id="ytick_6">
     <g id="line2d_18">
      <path d="M 114.048 127.018662 
L 333.476571 127.018662 
" clip-path="url(#p93f1c4fb98)" style="fill: none; stroke: #b0b0b0; stroke-opacity: 0.2; stroke-width: 0.8; stroke-linecap: square"/>
     </g>
     <g id="line2d_19">
      <g>
       <use xlink:href="#m7499792243" x="114.048" y="127.018662" style="stroke: #000000; stroke-width: 0.8"/>
      </g>
     </g>
     <g id="text_13">
      <!-- 1.4 -->
      <g transform="translate(62.51925 137.656474) scale(0.28 -0.28)">
       <defs>
        <path id="DejaVuSans-34" d="M 2419 4116 
L 825 1625 
L 2419 1625 
L 2419 4116 
z
M 2253 4666 
L 3047 4666 
L 3047 1625 
L 3713 1625 
L 3713 1100 
L 3047 1100 
L 3047 0 
L 2419 0 
L 2419 1100 
L 313 1100 
L 313 1709 
L 2253 4666 
z
" transform="scale(0.015625)"/>
       </defs>
       <use xlink:href="#DejaVuSans-31"/>
       <use xlink:href="#DejaVuSans-2e" transform="translate(63.623047 0)"/>
       <use xlink:href="#DejaVuSans-34" transform="translate(95.410156 0)"/>
      </g>
     </g>
    </g>
    <g id="text_14">
     <!-- $\sigma_{LE}/\sigma_{NL}$ -->
     <g transform="translate(50.616437 421.55) rotate(-90) scale(0.38 -0.38)">
      <defs>
       <path id="DejaVuSans-Oblique-3c3" d="M 2219 3044 
Q 1744 3044 1422 2700 
Q 1081 2341 969 1747 
Q 844 1119 1044 756 
Q 1241 397 1706 397 
Q 2166 397 2503 759 
Q 2844 1122 2966 1747 
Q 3075 2319 2881 2700 
Q 2700 3044 2219 3044 
z
M 2309 3503 
L 4219 3500 
L 4106 2925 
L 3463 2925 
Q 3706 2438 3575 1747 
Q 3406 888 2884 400 
Q 2359 -91 1609 -91 
Q 856 -91 525 400 
Q 194 888 363 1747 
Q 528 2609 1050 3097 
Q 1484 3503 2309 3503 
z
" transform="scale(0.015625)"/>
       <path id="DejaVuSans-Oblique-4c" d="M 1075 4666 
L 1709 4666 
L 909 525 
L 3181 525 
L 3078 0 
L 172 0 
L 1075 4666 
z
" transform="scale(0.015625)"/>
       <path id="DejaVuSans-2f" d="M 1625 4666 
L 2156 4666 
L 531 -594 
L 0 -594 
L 1625 4666 
z
" transform="scale(0.015625)"/>
       <path id="DejaVuSans-Oblique-4e" d="M 1081 4666 
L 1931 4666 
L 3219 666 
L 4000 4666 
L 4616 4666 
L 3706 0 
L 2853 0 
L 1569 4025 
L 788 0 
L 172 0 
L 1081 4666 
z
" transform="scale(0.015625)"/>
      </defs>
      <use xlink:href="#DejaVuSans-Oblique-3c3" transform="translate(0 0.09375)"/>
      <use xlink:href="#DejaVuSans-Oblique-4c" transform="translate(63.378906 -16.3125) scale(0.7)"/>
      <use xlink:href="#DejaVuSans-Oblique-45" transform="translate(102.37793 -16.3125) scale(0.7)"/>
      <use xlink:href="#DejaVuSans-2f" transform="translate(149.34082 0.09375)"/>
      <use xlink:href="#DejaVuSans-Oblique-3c3" transform="translate(183.032227 0.09375)"/>
      <use xlink:href="#DejaVuSans-Oblique-4e" transform="translate(246.411133 -16.3125) scale(0.7)"/>
      <use xlink:href="#DejaVuSans-Oblique-4c" transform="translate(298.774414 -16.3125) scale(0.7)"/>
     </g>
    </g>
   </g>
   <g id="line2d_20">
    <path d="M 124.022026 473.033643 
L 127.074801 466.749385 
L 130.127576 460.882523 
L 133.180351 455.874977 
L 136.233125 451.537424 
L 139.2859 447.779257 
L 142.338675 444.554016 
L 145.39145 441.850571 
L 148.444225 439.644529 
L 151.497 437.930323 
L 154.549774 436.67721 
L 157.602549 435.85827 
L 160.655324 435.434492 
L 163.708099 435.35813 
L 166.760874 435.576322 
L 169.813649 436.030041 
L 172.866423 436.675455 
L 175.919198 437.454347 
L 178.971973 438.327325 
L 182.024748 439.26027 
L 185.077523 440.213926 
L 188.130298 441.169167 
L 191.183073 442.105303 
L 194.235847 443.005557 
L 197.288622 443.866741 
L 200.341397 444.678627 
L 203.394172 445.435089 
L 206.446947 446.137348 
L 209.499722 446.788729 
L 212.552496 447.385592 
L 215.605271 447.933606 
L 218.658046 448.435771 
L 221.710821 448.894682 
L 224.763596 449.31909 
L 227.816371 449.71104 
L 230.869146 450.074674 
L 233.92192 450.415865 
L 236.974695 450.740403 
L 240.02747 451.050063 
L 243.080245 451.350254 
L 246.13302 451.643313 
L 249.185795 451.932046 
L 252.238569 452.21887 
L 255.291344 452.505768 
L 258.344119 452.794261 
L 261.396894 453.08752 
L 264.449669 453.388248 
L 267.502444 453.703392 
L 270.555219 454.040892 
L 273.607993 454.415947 
L 276.660768 454.853861 
L 279.713543 455.381634 
L 282.766318 456.055396 
L 285.819093 456.937607 
L 288.871868 458.108449 
L 291.924642 459.671032 
L 294.977417 461.734334 
L 298.030192 464.463839 
L 301.082967 468.028087 
L 304.135742 472.609573 
L 307.188517 478.3209 
L 310.241292 485.138486 
L 313.294066 492.737642 
L 316.346841 500.402552 
L 319.399616 507.066469 
L 322.452391 511.565841 
L 323.502545 512.48523 
" clip-path="url(#p93f1c4fb98)" style="fill: none; stroke-dasharray: 11.1,4.8; stroke-dashoffset: 0; stroke: #000000; stroke-width: 3"/>
   </g>
   <g id="line2d_21">
    <path d="M 124.022026 560.591081 
L 127.074801 594.321882 
L 130.127576 598.743717 
L 133.180351 599.565608 
L 136.233125 599.29465 
L 139.2859 598.103041 
L 142.338675 595.964552 
L 145.39145 592.875563 
L 148.444225 588.901246 
L 151.497 584.146115 
L 154.549774 578.781213 
L 157.602549 572.99164 
L 160.655324 566.98141 
L 163.708099 560.951137 
L 166.760874 555.079826 
L 169.813649 549.533858 
L 172.866423 544.414402 
L 175.919198 539.827646 
L 178.971973 535.819916 
L 182.024748 532.409396 
L 185.077523 529.616811 
L 188.130298 527.411473 
L 191.183073 525.774375 
L 194.235847 524.670612 
L 197.288622 524.043775 
L 200.341397 523.853505 
L 203.394172 524.05727 
L 206.446947 524.598128 
L 209.499722 525.418816 
L 212.552496 526.480323 
L 215.605271 527.726996 
L 218.658046 529.106721 
L 221.710821 530.573966 
L 224.763596 532.065149 
L 227.816371 533.533034 
L 230.869146 534.930933 
L 233.92192 536.200543 
L 236.974695 537.282896 
L 240.02747 538.138292 
L 243.080245 538.708492 
L 246.13302 538.947427 
L 249.185795 538.810222 
L 252.238569 538.254827 
L 255.291344 537.244621 
L 258.344119 535.739938 
L 261.396894 533.71176 
L 264.449669 531.120494 
L 267.502444 527.93641 
L 270.555219 524.110639 
L 273.607993 519.583419 
L 276.660768 514.269036 
L 279.713543 508.083761 
L 282.766318 500.879743 
L 285.819093 492.530295 
L 288.871868 482.896667 
L 291.924642 471.919893 
L 294.977417 459.57451 
L 298.030192 445.977776 
L 301.082967 431.233445 
L 304.135742 415.54163 
L 307.188517 399.35035 
L 310.241292 383.676435 
L 313.294066 369.93114 
L 316.346841 359.188485 
L 319.399616 351.469624 
L 322.452391 346.111939 
L 323.502545 344.749625 
" clip-path="url(#p93f1c4fb98)" style="fill: none; stroke-dasharray: 3,4.95; stroke-dashoffset: 0; stroke: #000000; stroke-width: 3"/>
   </g>
   <g id="line2d_22">
    <path d="M 124.022026 469.955196 
L 127.074801 463.19648 
L 130.127576 457.964717 
L 133.180351 453.620815 
L 136.233125 449.884474 
L 139.2859 446.667147 
L 142.338675 443.932851 
L 145.39145 441.68227 
L 148.444225 439.899444 
L 151.497 438.586218 
L 154.549774 437.715884 
L 157.602549 437.2646 
L 160.655324 437.191602 
L 163.708099 437.448573 
L 166.760874 437.980932 
L 169.813649 438.730425 
L 172.866423 439.649896 
L 175.919198 440.684988 
L 178.971973 441.797572 
L 182.024748 442.956116 
L 185.077523 444.127869 
L 188.130298 445.294728 
L 191.183073 446.443633 
L 194.235847 447.563213 
L 197.288622 448.650869 
L 200.341397 449.706645 
L 203.394172 450.727219 
L 206.446947 451.718459 
L 209.499722 452.685707 
L 212.552496 453.633579 
L 215.605271 454.57007 
L 218.658046 455.502459 
L 221.710821 456.439912 
L 224.763596 457.389964 
L 227.816371 458.361851 
L 230.869146 459.363608 
L 233.92192 460.404531 
L 236.974695 461.492648 
L 240.02747 462.634845 
L 243.080245 463.838804 
L 246.13302 465.110344 
L 249.185795 466.454788 
L 252.238569 467.87618 
L 255.291344 469.377793 
L 258.344119 470.963787 
L 261.396894 472.634843 
L 264.449669 474.393786 
L 267.502444 476.240218 
L 270.555219 478.178098 
L 273.607993 480.205271 
L 276.660768 482.32621 
L 279.713543 484.537745 
L 282.766318 486.841417 
L 285.819093 489.235648 
L 288.871868 491.713467 
L 291.924642 494.260546 
L 294.977417 496.878043 
L 298.030192 499.566732 
L 301.082967 502.35614 
L 304.135742 505.251571 
L 307.188517 508.194307 
L 310.241292 511.044067 
L 313.294066 513.678528 
L 316.346841 516.097503 
L 319.399616 518.401772 
L 322.452391 520.518567 
L 323.502545 521.120206 
" clip-path="url(#p93f1c4fb98)" style="fill: none; stroke-dasharray: 11.1,4.8; stroke-dashoffset: 0; stroke: #e69f00; stroke-width: 3"/>
   </g>
   <g id="line2d_23">
    <path d="M 124.022026 560.287957 
L 127.074801 592.763662 
L 130.127576 597.535673 
L 133.180351 598.915585 
L 136.233125 599.160666 
L 139.2859 598.36387 
L 142.338675 596.452596 
L 145.39145 593.388799 
L 148.444225 589.230315 
L 151.497 584.089409 
L 154.549774 578.159392 
L 157.602549 571.664541 
L 160.655324 564.853641 
L 163.708099 557.974468 
L 166.760874 551.253078 
L 169.813649 544.889783 
L 172.866423 539.018672 
L 175.919198 533.763792 
L 178.971973 529.185321 
L 182.024748 525.300256 
L 185.077523 522.139368 
L 188.130298 519.673519 
L 191.183073 517.873527 
L 194.235847 516.707852 
L 197.288622 516.112698 
L 200.341397 516.040217 
L 203.394172 516.458308 
L 206.446947 517.304205 
L 209.499722 518.514907 
L 212.552496 520.06312 
L 215.605271 521.886767 
L 218.658046 523.938553 
L 221.710821 526.174508 
L 224.763596 528.527647 
L 227.816371 530.954521 
L 230.869146 533.409133 
L 233.92192 535.825195 
L 236.974695 538.131463 
L 240.02747 540.291116 
L 243.080245 542.230801 
L 246.13302 543.890176 
L 249.185795 545.200474 
L 252.238569 546.100667 
L 255.291344 546.531534 
L 258.344119 546.422347 
L 261.396894 545.713822 
L 264.449669 544.333254 
L 267.502444 542.210546 
L 270.555219 539.258119 
L 273.607993 535.370286 
L 276.660768 530.415897 
L 279.713543 524.240387 
L 282.766318 516.655038 
L 285.819093 507.465447 
L 288.871868 496.496391 
L 291.924642 483.665842 
L 294.977417 468.950974 
L 298.030192 452.487969 
L 301.082967 434.379861 
L 304.135742 414.799912 
L 307.188517 394.160674 
L 310.241292 373.546122 
L 313.294066 354.674919 
L 316.346841 339.218477 
L 319.399616 328.0199 
L 322.452391 321.122633 
L 323.502545 319.689916 
" clip-path="url(#p93f1c4fb98)" style="fill: none; stroke-dasharray: 3,4.95; stroke-dashoffset: 0; stroke: #e69f00; stroke-width: 3"/>
   </g>
   <g id="line2d_24">
    <path d="M 124.022026 467.478622 
L 127.074801 462.553252 
L 130.127576 459.709928 
L 133.180351 457.562479 
L 136.233125 455.861285 
L 139.2859 454.545147 
L 142.338675 453.587805 
L 145.39145 452.981804 
L 148.444225 452.703012 
L 151.497 452.735163 
L 154.549774 453.034908 
L 157.602549 453.56384 
L 160.655324 454.272855 
L 163.708099 455.109563 
L 166.760874 456.024571 
L 169.813649 456.96859 
L 172.866423 457.912523 
L 175.919198 458.820193 
L 178.971973 459.67352 
L 182.024748 460.461396 
L 185.077523 461.171685 
L 188.130298 461.80219 
L 191.183073 462.355274 
L 194.235847 462.832183 
L 197.288622 463.242595 
L 200.341397 463.590531 
L 203.394172 463.879272 
L 206.446947 464.120717 
L 209.499722 464.323511 
L 212.552496 464.492421 
L 215.605271 464.637278 
L 218.658046 464.766008 
L 221.710821 464.88638 
L 224.763596 465.010875 
L 227.816371 465.147978 
L 230.869146 465.305099 
L 233.92192 465.494792 
L 236.974695 465.729293 
L 240.02747 466.017255 
L 243.080245 466.371732 
L 246.13302 466.804619 
L 249.185795 467.327797 
L 252.238569 467.952831 
L 255.291344 468.690188 
L 258.344119 469.551763 
L 261.396894 470.545448 
L 264.449669 471.680635 
L 267.502444 472.962952 
L 270.555219 474.39766 
L 273.607993 475.988164 
L 276.660768 477.73731 
L 279.713543 479.645657 
L 282.766318 481.714186 
L 285.819093 483.942592 
L 288.871868 486.325919 
L 291.924642 488.858425 
L 294.977417 491.534259 
L 298.030192 494.339007 
L 301.082967 497.278766 
L 304.135742 500.349876 
L 307.188517 503.501309 
L 310.241292 506.599639 
L 313.294066 509.471265 
L 316.346841 511.938014 
L 319.399616 513.795547 
L 322.452391 514.845238 
L 323.502545 515.000808 
" clip-path="url(#p93f1c4fb98)" style="fill: none; stroke-dasharray: 11.1,4.8; stroke-dashoffset: 0; stroke: #56b4e9; stroke-width: 3"/>
   </g>
   <g id="line2d_25">
    <path d="M 124.022026 559.119899 
L 127.074801 590.37138 
L 130.127576 597.080467 
L 133.180351 600.870484 
L 136.233125 603.556461 
L 139.2859 605.056632 
L 142.338675 605.16 
L 145.39145 603.706823 
L 148.444225 600.668093 
L 151.497 596.107777 
L 154.549774 590.217706 
L 157.602549 583.26536 
L 160.655324 575.575078 
L 163.708099 567.491916 
L 166.760874 559.343354 
L 169.813649 551.425436 
L 172.866423 543.952856 
L 175.919198 537.111156 
L 178.971973 531.004092 
L 182.024748 525.681919 
L 185.077523 521.182019 
L 188.130298 517.485023 
L 191.183073 514.561068 
L 194.235847 512.364897 
L 197.288622 510.839188 
L 200.341397 509.930011 
L 203.394172 509.588427 
L 206.446947 509.748441 
L 209.499722 510.342937 
L 212.552496 511.335549 
L 215.605271 512.662564 
L 218.658046 514.267379 
L 221.710821 516.103987 
L 224.763596 518.100007 
L 227.816371 520.203474 
L 230.869146 522.357815 
L 233.92192 524.489452 
L 236.974695 526.520389 
L 240.02747 528.385252 
L 243.080245 529.994382 
L 246.13302 531.258745 
L 249.185795 532.084288 
L 252.238569 532.370281 
L 255.291344 532.014322 
L 258.344119 530.900504 
L 261.396894 528.91693 
L 264.449669 525.938457 
L 267.502444 521.837244 
L 270.555219 516.471904 
L 273.607993 509.691956 
L 276.660768 501.331037 
L 279.713543 491.228751 
L 282.766318 479.22727 
L 285.819093 465.227529 
L 288.871868 449.224519 
L 291.924642 431.338495 
L 294.977417 411.779079 
L 298.030192 390.857165 
L 301.082967 368.7504 
L 304.135742 345.645372 
L 307.188517 321.961771 
L 310.241292 298.820151 
L 313.294066 277.916501 
L 316.346841 260.76172 
L 319.399616 248.025573 
L 322.452391 239.868334 
L 323.502545 238.156885 
" clip-path="url(#p93f1c4fb98)" style="fill: none; stroke-dasharray: 3,4.95; stroke-dashoffset: 0; stroke: #56b4e9; stroke-width: 3"/>
   </g>
   <g id="line2d_26">
    <path d="M 124.022026 467.429748 
L 127.074801 463.152807 
L 130.127576 460.660134 
L 133.180351 458.717052 
L 136.233125 457.160324 
L 139.2859 455.984378 
L 142.338675 455.207138 
L 145.39145 454.85618 
L 148.444225 454.929609 
L 151.497 455.418802 
L 154.549774 456.275097 
L 157.602549 457.437392 
L 160.655324 458.824898 
L 163.708099 460.350642 
L 166.760874 461.932039 
L 169.813649 463.494344 
L 172.866423 464.987341 
L 175.919198 466.366251 
L 178.971973 467.609652 
L 182.024748 468.709836 
L 185.077523 469.657827 
L 188.130298 470.461737 
L 191.183073 471.130326 
L 194.235847 471.67071 
L 197.288622 472.101955 
L 200.341397 472.432725 
L 203.394172 472.671933 
L 206.446947 472.835352 
L 209.499722 472.936185 
L 212.552496 472.98021 
L 215.605271 472.981208 
L 218.658046 472.951075 
L 221.710821 472.898055 
L 224.763596 472.841565 
L 227.816371 472.792485 
L 230.869146 472.764883 
L 233.92192 472.780468 
L 236.974695 472.863654 
L 240.02747 473.035194 
L 243.080245 473.327662 
L 246.13302 473.776147 
L 249.185795 474.42055 
L 252.238569 475.305935 
L 255.291344 476.478013 
L 258.344119 477.995432 
L 261.396894 479.905314 
L 264.449669 482.259598 
L 267.502444 485.09772 
L 270.555219 488.444372 
L 273.607993 492.299595 
L 276.660768 496.631431 
L 279.713543 501.359417 
L 282.766318 506.364399 
L 285.819093 511.479233 
L 288.871868 516.515488 
L 291.924642 521.281937 
L 294.977417 525.647682 
L 298.030192 529.533859 
L 301.082967 532.941792 
L 304.135742 535.877104 
L 307.188517 538.307866 
L 310.241292 540.157483 
L 313.294066 541.385012 
L 316.346841 542.006387 
L 319.399616 542.045098 
L 322.452391 541.508931 
L 323.502545 541.197771 
" clip-path="url(#p93f1c4fb98)" style="fill: none; stroke-dasharray: 11.1,4.8; stroke-dashoffset: 0; stroke: #009e73; stroke-width: 3"/>
   </g>
   <g id="line2d_27">
    <path d="M 124.022026 556.793803 
L 127.074801 583.02994 
L 130.127576 589.421394 
L 133.180351 593.790247 
L 136.233125 597.234186 
L 139.2859 599.39389 
L 142.338675 599.842302 
L 145.39145 598.240281 
L 148.444225 594.427816 
L 151.497 588.421319 
L 154.549774 580.443939 
L 157.602549 570.881797 
L 160.655324 560.235001 
L 163.708099 549.046816 
L 166.760874 537.831015 
L 169.813649 527.03582 
L 172.866423 516.979486 
L 175.919198 507.904775 
L 178.971973 499.933552 
L 182.024748 493.101643 
L 185.077523 487.421815 
L 188.130298 482.835131 
L 191.183073 479.273979 
L 194.235847 476.666666 
L 197.288622 474.90623 
L 200.341397 473.920249 
L 203.394172 473.643001 
L 206.446947 473.989448 
L 209.499722 474.877459 
L 212.552496 476.271496 
L 215.605271 478.097961 
L 218.658046 480.296927 
L 221.710821 482.824645 
L 224.763596 485.586654 
L 227.816371 488.527541 
L 230.869146 491.582681 
L 233.92192 494.642962 
L 236.974695 497.577787 
L 240.02747 500.286047 
L 243.080245 502.586751 
L 246.13302 504.283527 
L 249.185795 505.142516 
L 252.238569 504.888122 
L 255.291344 503.221293 
L 258.344119 499.751093 
L 261.396894 494.121748 
L 264.449669 485.904294 
L 267.502444 474.733102 
L 270.555219 460.252466 
L 273.607993 442.229234 
L 276.660768 420.586843 
L 279.713543 395.513376 
L 282.766318 367.476764 
L 285.819093 337.299357 
L 288.871868 306.056215 
L 291.924642 274.988857 
L 294.977417 245.103803 
L 298.030192 217.178618 
L 301.082967 191.511266 
L 304.135742 168.339405 
L 307.188517 148.116217 
L 310.241292 131.658139 
L 313.294066 119.644245 
L 316.346841 112.208454 
L 319.399616 109.033694 
L 322.452391 109.701293 
L 323.502545 110.720754 
" clip-path="url(#p93f1c4fb98)" style="fill: none; stroke-dasharray: 3,4.95; stroke-dashoffset: 0; stroke: #009e73; stroke-width: 3"/>
   </g>
   <g id="line2d_28">
    <path d="M 114.048 472.996382 
L 333.476571 472.996382 
" clip-path="url(#p93f1c4fb98)" style="fill: none; stroke: #000000; stroke-opacity: 0.25; stroke-width: 1.5; stroke-linecap: square"/>
   </g>
   <g id="line2d_29">
    <path d="M 306.328977 630 
L 306.328977 83.52 
" clip-path="url(#p93f1c4fb98)" style="fill: none; stroke-dasharray: 5.55,2.4; stroke-dashoffset: 0; stroke: #ff0000; stroke-width: 1.5"/>
   </g>
   <g id="patch_5">
    <path d="M 114.048 630 
L 114.048 83.52 
" style="fill: none; stroke: #000000; stroke-width: 0.8; stroke-linejoin: miter; stroke-linecap: square"/>
   </g>
   <g id="patch_6">
    <path d="M 333.476571 630 
L 333.476571 83.52 
" style="fill: none; stroke: #000000; stroke-width: 0.8; stroke-linejoin: miter; stroke-linecap: square"/>
   </g>
   <g id="patch_7">
    <path d="M 114.048 630 
L 333.476571 630 
" style="fill: none; stroke: #000000; stroke-width: 0.8; stroke-linejoin: miter; stroke-linecap: square"/>
   </g>
   <g id="patch_8">
    <path d="M 114.048 83.52 
L 333.476571 83.52 
" style="fill: none; stroke: #000000; stroke-width: 0.8; stroke-linejoin: miter; stroke-linecap: square"/>
   </g>
   <g id="text_15">
    <!-- 30MeV -->
    <g transform="translate(134.558268 134.008625) scale(0.2 -0.2)">
     <use xlink:href="#DejaVuSans-33"/>
     <use xlink:href="#DejaVuSans-30" transform="translate(63.623047 0)"/>
     <use xlink:href="#DejaVuSans-4d" transform="translate(127.246094 0)"/>
     <use xlink:href="#DejaVuSans-65" transform="translate(213.525391 0)"/>
     <use xlink:href="#DejaVuSans-56" transform="translate(275.048828 0)"/>
    </g>
   </g>
   <g id="legend_1">
    <g id="line2d_30">
     <path d="M 208.460946 107.097187 
L 226.460946 107.097187 
L 244.460946 107.097187 
" style="fill: none; stroke-dasharray: 3.5,5.775; stroke-dashoffset: 0; stroke: #000000; stroke-width: 3.5"/>
    </g>
    <g id="text_16">
     <!-- LELO -->
     <g transform="translate(258.860946 113.397187) scale(0.18 -0.18)">
      <defs>
       <path id="DejaVuSans-4c" d="M 628 4666 
L 1259 4666 
L 1259 531 
L 3531 531 
L 3531 0 
L 628 0 
L 628 4666 
z
" transform="scale(0.015625)"/>
       <path id="DejaVuSans-45" d="M 628 4666 
L 3578 4666 
L 3578 4134 
L 1259 4134 
L 1259 2753 
L 3481 2753 
L 3481 2222 
L 1259 2222 
L 1259 531 
L 3634 531 
L 3634 0 
L 628 0 
L 628 4666 
z
" transform="scale(0.015625)"/>
       <path id="DejaVuSans-4f" d="M 2522 4238 
Q 1834 4238 1429 3725 
Q 1025 3213 1025 2328 
Q 1025 1447 1429 934 
Q 1834 422 2522 422 
Q 3209 422 3611 934 
Q 4013 1447 4013 2328 
Q 4013 3213 3611 3725 
Q 3209 4238 2522 4238 
z
M 2522 4750 
Q 3503 4750 4090 4092 
Q 4678 3434 4678 2328 
Q 4678 1225 4090 567 
Q 3503 -91 2522 -91 
Q 1538 -91 948 565 
Q 359 1222 359 2328 
Q 359 3434 948 4092 
Q 1538 4750 2522 4750 
z
" transform="scale(0.015625)"/>
      </defs>
      <use xlink:href="#DejaVuSans-4c"/>
      <use xlink:href="#DejaVuSans-45" transform="translate(55.712891 0)"/>
      <use xlink:href="#DejaVuSans-4c" transform="translate(118.896484 0)"/>
      <use xlink:href="#DejaVuSans-4f" transform="translate(170.984375 0)"/>
     </g>
    </g>
    <g id="line2d_31">
     <path d="M 208.460946 133.517812 
L 226.460946 133.517812 
L 244.460946 133.517812 
" style="fill: none; stroke-dasharray: 12.95,5.6; stroke-dashoffset: 0; stroke: #000000; stroke-width: 3.5"/>
    </g>
    <g id="text_17">
     <!-- LENLO -->
     <g transform="translate(258.860946 139.817812) scale(0.18 -0.18)">
      <defs>
       <path id="DejaVuSans-4e" d="M 628 4666 
L 1478 4666 
L 3547 763 
L 3547 4666 
L 4159 4666 
L 4159 0 
L 3309 0 
L 1241 3903 
L 1241 0 
L 628 0 
L 628 4666 
z
" transform="scale(0.015625)"/>
      </defs>
      <use xlink:href="#DejaVuSans-4c"/>
      <use xlink:href="#DejaVuSans-45" transform="translate(55.712891 0)"/>
      <use xlink:href="#DejaVuSans-4e" transform="translate(118.896484 0)"/>
      <use xlink:href="#DejaVuSans-4c" transform="translate(193.701172 0)"/>
      <use xlink:href="#DejaVuSans-4f" transform="translate(245.789062 0)"/>
     </g>
    </g>
   </g>
  </g>
  <g id="axes_3">
   <g id="patch_9">
    <path d="M 341.595429 630 
L 561.024 630 
L 561.024 83.52 
L 341.595429 83.52 
L 341.595429 630 
z
" style="fill: none"/>
   </g>
   <g id="axes_4">
    <g id="patch_10">
     <path d="M 341.595429 83.52 
L 561.024 83.52 
L 561.024 83.52 
L 341.595429 83.52 
L 341.595429 83.52 
z
" style="fill: none"/>
    </g>
    <g id="matplotlib.axis_5">
     <g id="xtick_6">
      <g id="line2d_32">
       <g>
        <use xlink:href="#mcbe9d3bdf9" x="520.444197" y="83.52" style="stroke: #000000; stroke-width: 0.8"/>
       </g>
      </g>
      <g id="text_18">
       <!-- 10 -->
       <g transform="translate(502.629197 70.696875) scale(0.28 -0.28)">
        <use xlink:href="#DejaVuSans-31"/>
        <use xlink:href="#DejaVuSans-30" transform="translate(63.623047 0)"/>
       </g>
      </g>
     </g>
     <g id="xtick_7">
      <g id="line2d_33">
       <g>
        <use xlink:href="#mcbe9d3bdf9" x="459.3887" y="83.52" style="stroke: #000000; stroke-width: 0.8"/>
       </g>
      </g>
      <g id="text_19">
       <!-- 20 -->
       <g transform="translate(441.5737 70.696875) scale(0.28 -0.28)">
        <use xlink:href="#DejaVuSans-32"/>
        <use xlink:href="#DejaVuSans-30" transform="translate(63.623047 0)"/>
       </g>
      </g>
     </g>
     <g id="xtick_8">
      <g id="line2d_34">
       <g>
        <use xlink:href="#mcbe9d3bdf9" x="398.333203" y="83.52" style="stroke: #000000; stroke-width: 0.8"/>
       </g>
      </g>
      <g id="text_20">
       <!-- 30 -->
       <g transform="translate(380.518203 70.696875) scale(0.28 -0.28)">
        <use xlink:href="#DejaVuSans-33"/>
        <use xlink:href="#DejaVuSans-30" transform="translate(63.623047 0)"/>
       </g>
      </g>
     </g>
     <g id="text_21">
      <!-- $E_t$ (MeV) -->
      <g transform="translate(371.509714 34.42125) scale(0.38 -0.38)">
       <use xlink:href="#DejaVuSans-Oblique-45" transform="translate(0 0.125)"/>
       <use xlink:href="#DejaVuSans-Oblique-74" transform="translate(63.183594 -16.28125) scale(0.7)"/>
       <use xlink:href="#DejaVuSans-20" transform="translate(93.364258 0.125)"/>
       <use xlink:href="#DejaVuSans-28" transform="translate(125.151367 0.125)"/>
       <use xlink:href="#DejaVuSans-4d" transform="translate(164.165039 0.125)"/>
       <use xlink:href="#DejaVuSans-65" transform="translate(250.444336 0.125)"/>
       <use xlink:href="#DejaVuSans-56" transform="translate(311.967773 0.125)"/>
       <use xlink:href="#DejaVuSans-29" transform="translate(380.375977 0.125)"/>
      </g>
     </g>
    </g>
    <g id="matplotlib.axis_6"/>
    <g id="patch_11">
     <path d="M 561.024 83.52 
L 341.595429 83.52 
" style="fill: none; stroke: #000000; stroke-width: 0.8; stroke-linejoin: miter; stroke-linecap: square"/>
    </g>
   </g>
   <g id="matplotlib.axis_7">
    <g id="xtick_9">
     <g id="line2d_35">
      <path d="M 348.51668 630 
L 348.51668 83.52 
" clip-path="url(#pe79d820117)" style="fill: none; stroke: #b0b0b0; stroke-opacity: 0.2; stroke-width: 0.8; stroke-linecap: square"/>
     </g>
     <g id="line2d_36">
      <g>
       <use xlink:href="#m4f5316feee" x="348.51668" y="630" style="stroke: #000000; stroke-width: 0.8"/>
      </g>
     </g>
     <g id="text_22">
      <!-- 0 -->
      <g transform="translate(339.60918 658.275625) scale(0.28 -0.28)">
       <use xlink:href="#DejaVuSans-30"/>
      </g>
     </g>
    </g>
    <g id="xtick_10">
     <g id="line2d_37">
      <path d="M 470.627674 630 
L 470.627674 83.52 
" clip-path="url(#pe79d820117)" style="fill: none; stroke: #b0b0b0; stroke-opacity: 0.2; stroke-width: 0.8; stroke-linecap: square"/>
     </g>
     <g id="line2d_38">
      <g>
       <use xlink:href="#m4f5316feee" x="470.627674" y="630" style="stroke: #000000; stroke-width: 0.8"/>
      </g>
     </g>
     <g id="text_23">
      <!-- 20 -->
      <g transform="translate(452.812674 658.275625) scale(0.28 -0.28)">
       <use xlink:href="#DejaVuSans-32"/>
       <use xlink:href="#DejaVuSans-30" transform="translate(63.623047 0)"/>
      </g>
     </g>
    </g>
    <g id="text_24">
     <!-- $S_{2n}$ (MeV) -->
     <g transform="translate(359.729714 696.972813) scale(0.38 -0.38)">
      <use xlink:href="#DejaVuSans-Oblique-53" transform="translate(0 0.125)"/>
      <use xlink:href="#DejaVuSans-32" transform="translate(63.476562 -16.28125) scale(0.7)"/>
      <use xlink:href="#DejaVuSans-Oblique-6e" transform="translate(108.012695 -16.28125) scale(0.7)"/>
      <use xlink:href="#DejaVuSans-20" transform="translate(155.112305 0.125)"/>
      <use xlink:href="#DejaVuSans-28" transform="translate(186.899414 0.125)"/>
      <use xlink:href="#DejaVuSans-4d" transform="translate(225.913086 0.125)"/>
      <use xlink:href="#DejaVuSans-65" transform="translate(312.192383 0.125)"/>
      <use xlink:href="#DejaVuSans-56" transform="translate(373.71582 0.125)"/>
      <use xlink:href="#DejaVuSans-29" transform="translate(442.124023 0.125)"/>
     </g>
    </g>
   </g>
   <g id="matplotlib.axis_8">
    <g id="ytick_7">
     <g id="line2d_39">
      <path d="M 341.595429 559.490812 
L 561.024 559.490812 
" clip-path="url(#pe79d820117)" style="fill: none; stroke: #b0b0b0; stroke-opacity: 0.2; stroke-width: 0.8; stroke-linecap: square"/>
     </g>
     <g id="line2d_40">
      <g>
       <use xlink:href="#m7499792243" x="341.595429" y="559.490812" style="stroke: #000000; stroke-width: 0.8"/>
      </g>
     </g>
    </g>
    <g id="ytick_8">
     <g id="line2d_41">
      <path d="M 341.595429 472.996382 
L 561.024 472.996382 
" clip-path="url(#pe79d820117)" style="fill: none; stroke: #b0b0b0; stroke-opacity: 0.2; stroke-width: 0.8; stroke-linecap: square"/>
     </g>
     <g id="line2d_42">
      <g>
       <use xlink:href="#m7499792243" x="341.595429" y="472.996382" style="stroke: #000000; stroke-width: 0.8"/>
      </g>
     </g>
    </g>
    <g id="ytick_9">
     <g id="line2d_43">
      <path d="M 341.595429 386.501952 
L 561.024 386.501952 
" clip-path="url(#pe79d820117)" style="fill: none; stroke: #b0b0b0; stroke-opacity: 0.2; stroke-width: 0.8; stroke-linecap: square"/>
     </g>
     <g id="line2d_44">
      <g>
       <use xlink:href="#m7499792243" x="341.595429" y="386.501952" style="stroke: #000000; stroke-width: 0.8"/>
      </g>
     </g>
    </g>
    <g id="ytick_10">
     <g id="line2d_45">
      <path d="M 341.595429 300.007522 
L 561.024 300.007522 
" clip-path="url(#pe79d820117)" style="fill: none; stroke: #b0b0b0; stroke-opacity: 0.2; stroke-width: 0.8; stroke-linecap: square"/>
     </g>
     <g id="line2d_46">
      <g>
       <use xlink:href="#m7499792243" x="341.595429" y="300.007522" style="stroke: #000000; stroke-width: 0.8"/>
      </g>
     </g>
    </g>
    <g id="ytick_11">
     <g id="line2d_47">
      <path d="M 341.595429 213.513092 
L 561.024 213.513092 
" clip-path="url(#pe79d820117)" style="fill: none; stroke: #b0b0b0; stroke-opacity: 0.2; stroke-width: 0.8; stroke-linecap: square"/>
     </g>
     <g id="line2d_48">
      <g>
       <use xlink:href="#m7499792243" x="341.595429" y="213.513092" style="stroke: #000000; stroke-width: 0.8"/>
      </g>
     </g>
    </g>
    <g id="ytick_12">
     <g id="line2d_49">
      <path d="M 341.595429 127.018662 
L 561.024 127.018662 
" clip-path="url(#pe79d820117)" style="fill: none; stroke: #b0b0b0; stroke-opacity: 0.2; stroke-width: 0.8; stroke-linecap: square"/>
     </g>
     <g id="line2d_50">
      <g>
       <use xlink:href="#m7499792243" x="341.595429" y="127.018662" style="stroke: #000000; stroke-width: 0.8"/>
      </g>
     </g>
    </g>
   </g>
   <g id="line2d_51">
    <path d="M 351.569455 472.775286 
L 354.622229 466.686426 
L 357.675004 461.127884 
L 360.727779 456.40852 
L 363.780554 452.335027 
L 366.833329 448.81619 
L 369.886104 445.804213 
L 372.938878 443.285658 
L 375.991653 441.237562 
L 379.044428 439.652271 
L 382.097203 438.500927 
L 385.149978 437.75897 
L 388.202753 437.390235 
L 391.255528 437.34926 
L 394.308302 437.587779 
L 397.361077 438.049376 
L 400.413852 438.693147 
L 403.466627 439.463356 
L 406.519402 440.322623 
L 409.572177 441.238376 
L 412.624951 442.172725 
L 415.677726 443.107106 
L 418.730501 444.02189 
L 421.783276 444.900552 
L 424.836051 445.739985 
L 427.888826 446.530215 
L 430.941601 447.265453 
L 433.994375 447.946965 
L 437.04715 448.57749 
L 440.099925 449.153883 
L 443.1527 449.681295 
L 446.205475 450.163004 
L 449.25825 450.600845 
L 452.311024 451.003667 
L 455.363799 451.373501 
L 458.416574 451.713842 
L 461.469349 452.031271 
L 464.522124 452.330901 
L 467.574899 452.614926 
L 470.627674 452.887938 
L 473.680448 453.153448 
L 476.733223 453.41425 
L 479.785998 453.672829 
L 482.838773 453.931559 
L 485.891548 454.192359 
L 488.944323 454.459523 
L 491.997097 454.734816 
L 495.049872 455.025306 
L 498.102647 455.340132 
L 501.155422 455.692322 
L 504.208197 456.105224 
L 507.260972 456.607911 
L 510.313746 457.25091 
L 513.366521 458.093268 
L 516.419296 459.214803 
L 519.472071 460.714503 
L 522.524846 462.698787 
L 525.577621 465.326298 
L 528.630396 468.762557 
L 531.68317 473.187911 
L 534.735945 478.723243 
L 537.78872 485.361045 
L 540.841495 492.80465 
L 543.89427 500.366902 
L 546.947045 507.000311 
L 549.999819 511.545064 
L 551.049974 512.49522 
" clip-path="url(#pe79d820117)" style="fill: none; stroke-dasharray: 11.1,4.8; stroke-dashoffset: 0; stroke: #000000; stroke-width: 3"/>
   </g>
   <g id="line2d_52">
    <path d="M 351.569455 560.333614 
L 354.622229 592.626468 
L 357.675004 596.736374 
L 360.727779 597.486624 
L 363.780554 597.235981 
L 366.833329 596.129809 
L 369.886104 594.126541 
L 372.938878 591.209192 
L 375.991653 587.428228 
L 379.044428 582.871923 
L 382.097203 577.694954 
L 385.149978 572.07108 
L 388.202753 566.193379 
L 391.255528 560.256401 
L 394.308302 554.436903 
L 397.361077 548.901452 
L 400.413852 543.75532 
L 403.466627 539.108548 
L 406.519402 535.013388 
L 409.572177 531.494522 
L 412.624951 528.576872 
L 415.677726 526.235967 
L 418.730501 524.456431 
L 421.783276 523.207223 
L 424.836051 522.435765 
L 427.888826 522.104028 
L 430.941601 522.171934 
L 433.994375 522.585253 
L 437.04715 523.289035 
L 440.099925 524.246225 
L 443.1527 525.403554 
L 446.205475 526.71116 
L 449.25825 528.126378 
L 452.311024 529.58815 
L 455.363799 531.052045 
L 458.416574 532.473601 
L 461.469349 533.797687 
L 464.522124 534.968093 
L 467.574899 535.946482 
L 470.627674 536.676385 
L 473.680448 537.113775 
L 476.733223 537.213508 
L 479.785998 536.932807 
L 482.838773 536.233896 
L 485.891548 535.076651 
L 488.944323 533.426361 
L 491.997097 531.242559 
L 495.049872 528.489891 
L 498.102647 525.113074 
L 501.155422 521.04891 
L 504.208197 516.204966 
L 507.260972 510.486641 
L 510.313746 503.736911 
L 513.366521 495.812374 
L 516.419296 486.558312 
L 519.472071 475.892208 
L 522.524846 463.77233 
L 525.577621 450.296644 
L 528.630396 435.561882 
L 531.68317 419.755813 
L 534.735945 403.312952 
L 537.78872 387.243382 
L 540.841495 372.992847 
L 543.89427 361.700406 
L 546.947045 353.426268 
L 549.999819 347.494014 
L 551.049974 345.926869 
" clip-path="url(#pe79d820117)" style="fill: none; stroke-dasharray: 3,4.95; stroke-dashoffset: 0; stroke: #000000; stroke-width: 3"/>
   </g>
   <g id="line2d_53">
    <path d="M 351.569455 469.969923 
L 354.622229 463.537285 
L 357.675004 458.604723 
L 360.727779 454.523266 
L 363.780554 451.023404 
L 366.833329 448.017193 
L 369.886104 445.467543 
L 372.938878 443.372417 
L 375.991653 441.715581 
L 379.044428 440.498347 
L 382.097203 439.696794 
L 385.149978 439.288235 
L 388.202753 439.236537 
L 391.255528 439.497183 
L 394.308302 440.019218 
L 397.361077 440.748451 
L 400.413852 441.640298 
L 403.466627 442.643607 
L 406.519402 443.720754 
L 409.572177 444.842182 
L 412.624951 445.974965 
L 415.677726 447.102434 
L 418.730501 448.210802 
L 421.783276 449.288534 
L 424.836051 450.333411 
L 427.888826 451.344116 
L 430.941601 452.317547 
L 433.994375 453.258268 
L 437.04715 454.172267 
L 440.099925 455.062325 
L 443.1527 455.936998 
L 446.205475 456.801681 
L 449.25825 457.665274 
L 452.311024 458.535011 
L 455.363799 459.418837 
L 458.416574 460.325162 
L 461.469349 461.261766 
L 464.522124 462.236883 
L 467.574899 463.257077 
L 470.627674 464.33003 
L 473.680448 465.461538 
L 476.733223 466.657581 
L 479.785998 467.92289 
L 482.838773 469.262294 
L 485.891548 470.679192 
L 488.944323 472.177754 
L 491.997097 473.759889 
L 495.049872 475.430005 
L 498.102647 477.190973 
L 501.155422 479.045322 
L 504.208197 480.998647 
L 507.260972 483.051411 
L 510.313746 485.209169 
L 513.366521 487.475091 
L 516.419296 489.847634 
L 519.472071 492.318667 
L 522.524846 494.891291 
L 525.577621 497.566972 
L 528.630396 500.372256 
L 531.68317 503.31096 
L 534.735945 506.325903 
L 537.78872 509.27781 
L 540.841495 512.03865 
L 543.89427 514.595228 
L 546.947045 517.038374 
L 549.999819 519.295048 
L 551.049974 519.94606 
" clip-path="url(#pe79d820117)" style="fill: none; stroke-dasharray: 11.1,4.8; stroke-dashoffset: 0; stroke: #e69f00; stroke-width: 3"/>
   </g>
   <g id="line2d_54">
    <path d="M 351.569455 559.772778 
L 354.622229 590.672133 
L 357.675004 595.077461 
L 360.727779 596.357798 
L 363.780554 596.620352 
L 366.833329 595.931705 
L 369.886104 594.203731 
L 372.938878 591.383138 
L 375.991653 587.5069 
L 379.044428 582.66608 
L 382.097203 577.03092 
L 385.149978 570.805131 
L 388.202753 564.221572 
L 391.255528 557.517304 
L 394.308302 550.913069 
L 397.361077 544.60814 
L 400.413852 538.741817 
L 403.466627 533.442933 
L 406.519402 528.779364 
L 409.572177 524.777357 
L 412.624951 521.472256 
L 415.677726 518.843576 
L 418.730501 516.866865 
L 421.783276 515.514845 
L 424.836051 514.728926 
L 427.888826 514.463818 
L 430.941601 514.689525 
L 433.994375 515.346152 
L 437.04715 516.373766 
L 440.099925 517.745935 
L 443.1527 519.404536 
L 446.205475 521.303774 
L 449.25825 523.402259 
L 452.311024 525.637955 
L 455.363799 527.969492 
L 458.416574 530.355034 
L 461.469349 532.733301 
L 464.522124 535.037669 
L 467.574899 537.235081 
L 470.627674 539.258327 
L 473.680448 541.050254 
L 476.733223 542.547438 
L 479.785998 543.691713 
L 482.838773 544.426992 
L 485.891548 544.68543 
L 488.944323 544.409709 
L 491.997097 543.525209 
L 495.049872 541.963514 
L 498.102647 539.633376 
L 501.155422 536.42856 
L 504.208197 532.212139 
L 507.260972 526.819834 
L 510.313746 520.050179 
L 513.366521 511.687014 
L 516.419296 501.523155 
L 519.472071 489.434449 
L 522.524846 475.361021 
L 525.577621 459.402293 
L 528.630396 441.640654 
L 531.68317 422.225959 
L 534.735945 401.541439 
L 537.78872 380.64882 
L 540.841495 361.295998 
L 543.89427 345.229273 
L 546.947045 333.357835 
L 549.999819 325.731452 
L 551.049974 324.035176 
" clip-path="url(#pe79d820117)" style="fill: none; stroke-dasharray: 3,4.95; stroke-dashoffset: 0; stroke: #e69f00; stroke-width: 3"/>
   </g>
   <g id="line2d_55">
    <path d="M 351.569455 467.77887 
L 354.622229 463.12664 
L 357.675004 460.412983 
L 360.727779 458.357717 
L 363.780554 456.724864 
L 366.833329 455.456533 
L 369.886104 454.526206 
L 372.938878 453.928222 
L 375.991653 453.638446 
L 379.044428 453.644231 
L 382.097203 453.907517 
L 385.149978 454.395146 
L 388.202753 455.061186 
L 391.255528 455.857999 
L 394.308302 456.739215 
L 397.361077 457.658454 
L 400.413852 458.58454 
L 403.466627 459.482093 
L 406.519402 460.332939 
L 409.572177 461.123225 
L 412.624951 461.839881 
L 415.677726 462.481852 
L 418.730501 463.048088 
L 421.783276 463.539653 
L 424.836051 463.965275 
L 427.888826 464.327384 
L 430.941601 464.630729 
L 433.994375 464.883918 
L 437.04715 465.096044 
L 440.099925 465.272383 
L 443.1527 465.419089 
L 446.205475 465.547317 
L 449.25825 465.66083 
L 452.311024 465.773702 
L 455.363799 465.889942 
L 458.416574 466.018707 
L 461.469349 466.170812 
L 464.522124 466.356813 
L 467.574899 466.584473 
L 470.627674 466.865624 
L 473.680448 467.210827 
L 476.733223 467.631007 
L 479.785998 468.137192 
L 482.838773 468.739219 
L 485.891548 469.448746 
L 488.944323 470.274293 
L 491.997097 471.225859 
L 495.049872 472.310522 
L 498.102647 473.536065 
L 501.155422 474.908542 
L 504.208197 476.434676 
L 507.260972 478.11999 
L 510.313746 479.972229 
L 513.366521 481.999108 
L 516.419296 484.204449 
L 519.472071 486.592935 
L 522.524846 489.163506 
L 525.577621 491.90608 
L 528.630396 494.827045 
L 531.68317 497.921386 
L 534.735945 501.145592 
L 537.78872 504.369715 
L 540.841495 507.419806 
L 543.89427 510.108489 
L 546.947045 512.214688 
L 549.999819 513.516341 
L 551.049974 513.755836 
" clip-path="url(#pe79d820117)" style="fill: none; stroke-dasharray: 11.1,4.8; stroke-dashoffset: 0; stroke: #56b4e9; stroke-width: 3"/>
   </g>
   <g id="line2d_56">
    <path d="M 351.569455 558.052609 
L 354.622229 587.345812 
L 357.675004 593.439792 
L 360.727779 596.926617 
L 363.780554 599.46847 
L 366.833329 600.968794 
L 369.886104 601.21008 
L 372.938878 600.022365 
L 375.991653 597.352946 
L 379.044428 593.237113 
L 382.097203 587.828149 
L 385.149978 581.355769 
L 388.202753 574.10921 
L 391.255528 566.406987 
L 394.308302 558.560406 
L 397.361077 550.857283 
L 400.413852 543.5155 
L 403.466627 536.726037 
L 406.519402 530.603579 
L 409.572177 525.211216 
L 412.624951 520.596267 
L 415.677726 516.75076 
L 418.730501 513.653378 
L 421.783276 511.267942 
L 424.836051 509.542041 
L 427.888826 508.426945 
L 430.941601 507.878093 
L 433.994375 507.831991 
L 437.04715 508.225602 
L 440.099925 509.026273 
L 443.1527 510.170999 
L 446.205475 511.610755 
L 449.25825 513.301139 
L 452.311024 515.175931 
L 455.363799 517.187901 
L 458.416574 519.286927 
L 461.469349 521.407433 
L 464.522124 523.479682 
L 467.574899 525.447055 
L 470.627674 527.230331 
L 473.680448 528.750788 
L 476.733223 529.925021 
L 479.785998 530.663256 
L 482.838773 530.872439 
L 485.891548 530.447132 
L 488.944323 529.281773 
L 491.997097 527.257533 
L 495.049872 524.247793 
L 498.102647 520.110411 
L 501.155422 514.687052 
L 504.208197 507.796976 
L 507.260972 499.251034 
L 510.313746 488.850113 
L 513.366521 476.431415 
L 516.419296 461.905922 
L 519.472071 445.30241 
L 522.524846 426.751102 
L 525.577621 406.502689 
L 528.630396 384.71263 
L 531.68317 361.543799 
L 534.735945 337.395031 
L 537.78872 313.384978 
L 540.841495 291.305502 
L 543.89427 272.83462 
L 546.947045 258.772981 
L 549.999819 249.322728 
L 551.049974 247.181526 
" clip-path="url(#pe79d820117)" style="fill: none; stroke-dasharray: 3,4.95; stroke-dashoffset: 0; stroke: #56b4e9; stroke-width: 3"/>
   </g>
   <g id="line2d_57">
    <path d="M 351.569455 467.934816 
L 354.622229 464.008366 
L 357.675004 461.677014 
L 360.727779 459.845149 
L 363.780554 458.365045 
L 366.833329 457.228141 
L 369.886104 456.448532 
L 372.938878 456.05115 
L 375.991653 456.037002 
L 379.044428 456.403982 
L 382.097203 457.114968 
L 385.149978 458.121123 
L 388.202753 459.35526 
L 391.255528 460.740967 
L 394.308302 462.203058 
L 397.361077 463.670481 
L 400.413852 465.094232 
L 403.466627 466.426368 
L 406.519402 467.643667 
L 409.572177 468.733148 
L 412.624951 469.683519 
L 415.677726 470.498634 
L 418.730501 471.184783 
L 421.783276 471.74757 
L 424.836051 472.202948 
L 427.888826 472.559123 
L 430.941601 472.823689 
L 433.994375 473.010435 
L 437.04715 473.132666 
L 440.099925 473.194632 
L 443.1527 473.209241 
L 446.205475 473.186474 
L 449.25825 473.134108 
L 452.311024 473.06851 
L 455.363799 472.999153 
L 458.416574 472.937178 
L 461.469349 472.90048 
L 464.522124 472.910075 
L 467.574899 472.981536 
L 470.627674 473.14212 
L 473.680448 473.421505 
L 476.733223 473.853109 
L 479.785998 474.474592 
L 482.838773 475.327155 
L 485.891548 476.465188 
L 488.944323 477.934858 
L 491.997097 479.792444 
L 495.049872 482.089348 
L 498.102647 484.87162 
L 501.155422 488.169111 
L 504.208197 491.99237 
L 507.260972 496.311109 
L 510.313746 501.058314 
L 513.366521 506.109476 
L 516.419296 511.298086 
L 519.472071 516.425369 
L 522.524846 521.325275 
L 525.577621 525.866794 
L 528.630396 530.000866 
L 531.68317 533.689609 
L 534.735945 536.858537 
L 537.78872 539.379256 
L 540.841495 541.162928 
L 543.89427 542.199829 
L 546.947045 542.508692 
L 549.999819 542.108331 
L 551.049974 541.81615 
" clip-path="url(#pe79d820117)" style="fill: none; stroke-dasharray: 11.1,4.8; stroke-dashoffset: 0; stroke: #009e73; stroke-width: 3"/>
   </g>
   <g id="line2d_58">
    <path d="M 351.569455 554.768322 
L 354.622229 578.832441 
L 357.675004 584.540893 
L 360.727779 588.582579 
L 363.780554 591.928907 
L 366.833329 594.230155 
L 369.886104 595.074997 
L 372.938878 594.124568 
L 375.991653 591.190957 
L 379.044428 586.232823 
L 382.097203 579.394967 
L 385.149978 570.973737 
L 388.202753 561.383269 
L 391.255528 551.102269 
L 394.308302 540.604548 
L 397.361077 530.323757 
L 400.413852 520.589141 
L 403.466627 511.66291 
L 406.519402 503.698172 
L 409.572177 496.761837 
L 412.624951 490.893433 
L 415.677726 486.058574 
L 418.730501 482.20913 
L 421.783276 479.287763 
L 424.836051 477.200445 
L 427.888826 475.881545 
L 430.941601 475.271392 
L 433.994375 475.289295 
L 437.04715 475.85948 
L 440.099925 476.947039 
L 443.1527 478.483964 
L 446.205475 480.414565 
L 449.25825 482.70094 
L 452.311024 485.25842 
L 455.363799 488.040607 
L 458.416574 490.995564 
L 461.469349 494.031671 
L 464.522124 497.04252 
L 467.574899 499.949749 
L 470.627674 502.607163 
L 473.680448 504.856019 
L 476.733223 506.506552 
L 479.785998 507.331133 
L 482.838773 507.078003 
L 485.891548 505.406116 
L 488.944323 501.989451 
L 491.997097 496.411638 
L 495.049872 488.282445 
L 498.102647 477.170217 
L 501.155422 462.691829 
L 504.208197 444.549972 
L 507.260972 422.63006 
L 510.313746 397.061169 
L 513.366521 368.331506 
L 516.419296 337.279389 
L 519.472071 305.072129 
L 522.524846 272.834647 
L 525.577621 241.601034 
L 528.630396 211.962914 
L 531.68317 184.437388 
L 534.735945 159.77133 
L 537.78872 139.147635 
L 540.841495 123.616216 
L 543.89427 113.533528 
L 546.947045 108.614706 
L 549.999819 108.36 
L 551.049974 109.229049 
" clip-path="url(#pe79d820117)" style="fill: none; stroke-dasharray: 3,4.95; stroke-dashoffset: 0; stroke: #009e73; stroke-width: 3"/>
   </g>
   <g id="line2d_59">
    <path d="M 341.595429 472.996382 
L 561.024 472.996382 
" clip-path="url(#pe79d820117)" style="fill: none; stroke: #000000; stroke-opacity: 0.25; stroke-width: 1.5; stroke-linecap: square"/>
   </g>
   <g id="patch_12">
    <path d="M 341.595429 630 
L 341.595429 83.52 
" style="fill: none; stroke: #000000; stroke-width: 0.8; stroke-linejoin: miter; stroke-linecap: square"/>
   </g>
   <g id="patch_13">
    <path d="M 561.024 630 
L 561.024 83.52 
" style="fill: none; stroke: #000000; stroke-width: 0.8; stroke-linejoin: miter; stroke-linecap: square"/>
   </g>
   <g id="patch_14">
    <path d="M 341.595429 630 
L 561.024 630 
" style="fill: none; stroke: #000000; stroke-width: 0.8; stroke-linejoin: miter; stroke-linecap: square"/>
   </g>
   <g id="patch_15">
    <path d="M 341.595429 83.52 
L 561.024 83.52 
" style="fill: none; stroke: #000000; stroke-width: 0.8; stroke-linejoin: miter; stroke-linecap: square"/>
   </g>
   <g id="text_25">
    <!-- 40MeV -->
    <g transform="translate(362.105696 134.008625) scale(0.2 -0.2)">
     <use xlink:href="#DejaVuSans-34"/>
     <use xlink:href="#DejaVuSans-30" transform="translate(63.623047 0)"/>
     <use xlink:href="#DejaVuSans-4d" transform="translate(127.246094 0)"/>
     <use xlink:href="#DejaVuSans-65" transform="translate(213.525391 0)"/>
     <use xlink:href="#DejaVuSans-56" transform="translate(275.048828 0)"/>
    </g>
   </g>
   <g id="legend_2">
    <g id="line2d_60">
     <path d="M 456.480562 107.097187 
L 474.480562 107.097187 
L 492.480562 107.097187 
" style="fill: none; stroke: #000000; stroke-width: 2; stroke-linecap: square"/>
    </g>
    <g id="text_26">
     <!-- n=0 -->
     <g transform="translate(506.880562 113.397187) scale(0.18 -0.18)">
      <defs>
       <path id="DejaVuSans-6e" d="M 3513 2113 
L 3513 0 
L 2938 0 
L 2938 2094 
Q 2938 2591 2744 2837 
Q 2550 3084 2163 3084 
Q 1697 3084 1428 2787 
Q 1159 2491 1159 1978 
L 1159 0 
L 581 0 
L 581 3500 
L 1159 3500 
L 1159 2956 
Q 1366 3272 1645 3428 
Q 1925 3584 2291 3584 
Q 2894 3584 3203 3211 
Q 3513 2838 3513 2113 
z
" transform="scale(0.015625)"/>
       <path id="DejaVuSans-3d" d="M 678 2906 
L 4684 2906 
L 4684 2381 
L 678 2381 
L 678 2906 
z
M 678 1631 
L 4684 1631 
L 4684 1100 
L 678 1100 
L 678 1631 
z
" transform="scale(0.015625)"/>
      </defs>
      <use xlink:href="#DejaVuSans-6e"/>
      <use xlink:href="#DejaVuSans-3d" transform="translate(63.378906 0)"/>
      <use xlink:href="#DejaVuSans-30" transform="translate(147.167969 0)"/>
     </g>
    </g>
    <g id="line2d_61">
     <path d="M 456.480562 133.517812 
L 474.480562 133.517812 
L 492.480562 133.517812 
" style="fill: none; stroke: #e69f00; stroke-width: 2; stroke-linecap: square"/>
    </g>
    <g id="text_27">
     <!-- n=1 -->
     <g transform="translate(506.880562 139.817812) scale(0.18 -0.18)">
      <use xlink:href="#DejaVuSans-6e"/>
      <use xlink:href="#DejaVuSans-3d" transform="translate(63.378906 0)"/>
      <use xlink:href="#DejaVuSans-31" transform="translate(147.167969 0)"/>
     </g>
    </g>
    <g id="line2d_62">
     <path d="M 456.480562 159.938437 
L 474.480562 159.938437 
L 492.480562 159.938437 
" style="fill: none; stroke: #56b4e9; stroke-width: 2; stroke-linecap: square"/>
    </g>
    <g id="text_28">
     <!-- n=2 -->
     <g transform="translate(506.880562 166.238437) scale(0.18 -0.18)">
      <use xlink:href="#DejaVuSans-6e"/>
      <use xlink:href="#DejaVuSans-3d" transform="translate(63.378906 0)"/>
      <use xlink:href="#DejaVuSans-32" transform="translate(147.167969 0)"/>
     </g>
    </g>
    <g id="line2d_63">
     <path d="M 456.480562 186.359062 
L 474.480562 186.359062 
L 492.480562 186.359062 
" style="fill: none; stroke: #009e73; stroke-width: 2; stroke-linecap: square"/>
    </g>
    <g id="text_29">
     <!-- n=3 -->
     <g transform="translate(506.880562 192.659063) scale(0.18 -0.18)">
      <use xlink:href="#DejaVuSans-6e"/>
      <use xlink:href="#DejaVuSans-3d" transform="translate(63.378906 0)"/>
      <use xlink:href="#DejaVuSans-33" transform="translate(147.167969 0)"/>
     </g>
    </g>
   </g>
  </g>
 </g>
 <defs>
  <clipPath id="p93f1c4fb98">
   <rect x="114.048" y="83.52" width="219.428571" height="546.48"/>
  </clipPath>
  <clipPath id="pe79d820117">
   <rect x="341.595429" y="83.52" width="219.428571" height="546.48"/>
  </clipPath>
 </defs>
</svg>
