<?xml version="1.0" encoding="utf-8" standalone="no"?>
<!DOCTYPE svg PUBLIC "-//W3C//DTD SVG 1.1//EN"
  "http://www.w3.org/Graphics/SVG/1.1/DTD/svg11.dtd">
<svg xmlns:xlink="http://www.w3.org/1999/xlink" width="576pt" height="720pt" viewBox="0 0 576 720" xmlns="http://www.w3.org/2000/svg" version="1.1">
 <metadata>
  <rdf:RDF xmlns:dc="http://purl.org/dc/elements/1.1/" xmlns:cc="http://creativecommons.org/ns#" xmlns:rdf="http://www.w3.org/1999/02/22-rdf-syntax-ns#">
   <cc:Work>
    <dc:type rdf:resource="http://purl.org/dc/dcmitype/StillImage"/>
    <dc:date>2026-03-08T14:57:03.635924</dc:date>
    <dc:format>image/svg+xml</dc:format>
    <dc:creator>
     <cc:Agent>
      <dc:title>Matplotlib v3.10.8, https://matplotlib.org/</dc:title>
     </cc:Agent>
    </dc:creator>
   </cc:Work>
  </rdf:RDF>
 </metadata>
 <defs>
  <style type="text/css">*{stroke-linejoin: round; stroke-linecap: butt}</style>
 </defs>
 <g id="figure_1">
  <g id="patch_1">
   <path d="M 0 720 
L 576 720 
L 576 0 
L 0 0 
L 0 720 
z
" style="fill: none"/>
  </g>
  <g id="axes_1">
   <g id="patch_2">
    <path d="M 114.048 630 
L 333.476571 630 
L 333.476571 83.52 
L 114.048 83.52 
L 114.048 630 
z
" style="fill: none"/>
   </g>
   <g id="axes_2">
    <g id="patch_3">
     <path d="M 114.048 83.52 
L 333.476571 83.52 
L 333.476571 83.52 
L 114.048 83.52 
L 114.048 83.52 
z
" style="fill: none"/>
    </g>
    <g id="matplotlib.axis_1">
     <g id="xtick_1">
      <g id="line2d_1">
       <defs>
        <path id="mff419fb46e" d="M 0 0 
L 0 -3.5 
" style="stroke: #000000; stroke-width: 0.8"/>
       </defs>
       <g>
        <use xlink:href="#mff419fb46e" x="292.896768" y="83.52" style="stroke: #000000; stroke-width: 0.8"/>
       </g>
      </g>
      <g id="text_1">
       <!-- 10 -->
       <g transform="translate(275.081768 70.696875) scale(0.28 -0.28)">
        <defs>
         <path id="DejaVuSans-31" d="M 794 531 
L 1825 531 
L 1825 4091 
L 703 3866 
L 703 4441 
L 1819 4666 
L 2450 4666 
L 2450 531 
L 3481 531 
L 3481 0 
L 794 0 
L 794 531 
z
" transform="scale(0.015625)"/>
         <path id="DejaVuSans-30" d="M 2034 4250 
Q 1547 4250 1301 3770 
Q 1056 3291 1056 2328 
Q 1056 1369 1301 889 
Q 1547 409 2034 409 
Q 2525 409 2770 889 
Q 3016 1369 3016 2328 
Q 3016 3291 2770 3770 
Q 2525 4250 2034 4250 
z
M 2034 4750 
Q 2819 4750 3233 4129 
Q 3647 3509 3647 2328 
Q 3647 1150 3233 529 
Q 2819 -91 2034 -91 
Q 1250 -91 836 529 
Q 422 1150 422 2328 
Q 422 3509 836 4129 
Q 1250 4750 2034 4750 
z
" transform="scale(0.015625)"/>
        </defs>
        <use xlink:href="#DejaVuSans-31"/>
        <use xlink:href="#DejaVuSans-30" transform="translate(63.623047 0)"/>
       </g>
      </g>
     </g>
     <g id="xtick_2">
      <g id="line2d_2">
       <g>
        <use xlink:href="#mff419fb46e" x="231.841271" y="83.52" style="stroke: #000000; stroke-width: 0.8"/>
       </g>
      </g>
      <g id="text_2">
       <!-- 20 -->
       <g transform="translate(214.026271 70.696875) scale(0.28 -0.28)">
        <defs>
         <path id="DejaVuSans-32" d="M 1228 531 
L 3431 531 
L 3431 0 
L 469 0 
L 469 531 
Q 828 903 1448 1529 
Q 2069 2156 2228 2338 
Q 2531 2678 2651 2914 
Q 2772 3150 2772 3378 
Q 2772 3750 2511 3984 
Q 2250 4219 1831 4219 
Q 1534 4219 1204 4116 
Q 875 4013 500 3803 
L 500 4441 
Q 881 4594 1212 4672 
Q 1544 4750 1819 4750 
Q 2544 4750 2975 4387 
Q 3406 4025 3406 3419 
Q 3406 3131 3298 2873 
Q 3191 2616 2906 2266 
Q 2828 2175 2409 1742 
Q 1991 1309 1228 531 
z
" transform="scale(0.015625)"/>
        </defs>
        <use xlink:href="#DejaVuSans-32"/>
        <use xlink:href="#DejaVuSans-30" transform="translate(63.623047 0)"/>
       </g>
      </g>
     </g>
     <g id="xtick_3">
      <g id="line2d_3">
       <g>
        <use xlink:href="#mff419fb46e" x="170.785774" y="83.52" style="stroke: #000000; stroke-width: 0.8"/>
       </g>
      </g>
      <g id="text_3">
       <!-- 30 -->
       <g transform="translate(152.970774 70.696875) scale(0.28 -0.28)">
        <defs>
         <path id="DejaVuSans-33" d="M 2597 2516 
Q 3050 2419 3304 2112 
Q 3559 1806 3559 1356 
Q 3559 666 3084 287 
Q 2609 -91 1734 -91 
Q 1441 -91 1130 -33 
Q 819 25 488 141 
L 488 750 
Q 750 597 1062 519 
Q 1375 441 1716 441 
Q 2309 441 2620 675 
Q 2931 909 2931 1356 
Q 2931 1769 2642 2001 
Q 2353 2234 1838 2234 
L 1294 2234 
L 1294 2753 
L 1863 2753 
Q 2328 2753 2575 2939 
Q 2822 3125 2822 3475 
Q 2822 3834 2567 4026 
Q 2313 4219 1838 4219 
Q 1578 4219 1281 4162 
Q 984 4106 628 3988 
L 628 4550 
Q 988 4650 1302 4700 
Q 1616 4750 1894 4750 
Q 2613 4750 3031 4423 
Q 3450 4097 3450 3541 
Q 3450 3153 3228 2886 
Q 3006 2619 2597 2516 
z
" transform="scale(0.015625)"/>
        </defs>
        <use xlink:href="#DejaVuSans-33"/>
        <use xlink:href="#DejaVuSans-30" transform="translate(63.623047 0)"/>
       </g>
      </g>
     </g>
     <g id="text_4">
      <!-- $E_{CoM}$ (MeV) -->
      <g transform="translate(120.212286 45.42125) scale(0.38 -0.38)">
       <defs>
        <path id="DejaVuSans-Oblique-45" d="M 1081 4666 
L 4031 4666 
L 3928 4134 
L 1606 4134 
L 1338 2753 
L 3566 2753 
L 3463 2222 
L 1234 2222 
L 909 531 
L 3284 531 
L 3181 0 
L 172 0 
L 1081 4666 
z
" transform="scale(0.015625)"/>
        <path id="DejaVuSans-Oblique-43" d="M 4447 4306 
L 4319 3641 
Q 4019 3944 3683 4091 
Q 3347 4238 2956 4238 
Q 2422 4238 2017 3981 
Q 1613 3725 1319 3200 
Q 1131 2863 1032 2486 
Q 934 2109 934 1728 
Q 934 1091 1264 756 
Q 1594 422 2222 422 
Q 2656 422 3056 561 
Q 3456 700 3834 978 
L 3688 231 
Q 3316 72 2936 -9 
Q 2556 -91 2175 -91 
Q 1278 -91 773 396 
Q 269 884 269 1753 
Q 269 2309 461 2846 
Q 653 3384 1013 3828 
Q 1394 4300 1883 4525 
Q 2372 4750 3022 4750 
Q 3422 4750 3780 4639 
Q 4138 4528 4447 4306 
z
" transform="scale(0.015625)"/>
        <path id="DejaVuSans-Oblique-6f" d="M 1625 -91 
Q 1009 -91 651 289 
Q 294 669 294 1325 
Q 294 1706 417 2101 
Q 541 2497 738 2766 
Q 1047 3184 1428 3384 
Q 1809 3584 2291 3584 
Q 2888 3584 3255 3212 
Q 3622 2841 3622 2241 
Q 3622 1825 3500 1412 
Q 3378 1000 3181 728 
Q 2875 309 2494 109 
Q 2113 -91 1625 -91 
z
M 891 1344 
Q 891 869 1089 633 
Q 1288 397 1691 397 
Q 2269 397 2648 901 
Q 3028 1406 3028 2181 
Q 3028 2634 2825 2865 
Q 2622 3097 2228 3097 
Q 1903 3097 1650 2945 
Q 1397 2794 1197 2484 
Q 1050 2253 970 1956 
Q 891 1659 891 1344 
z
" transform="scale(0.015625)"/>
        <path id="DejaVuSans-Oblique-4d" d="M 1081 4666 
L 2028 4666 
L 2572 1522 
L 4378 4666 
L 5350 4666 
L 4441 0 
L 3828 0 
L 4622 4091 
L 2791 897 
L 2175 897 
L 1581 4103 
L 788 0 
L 172 0 
L 1081 4666 
z
" transform="scale(0.015625)"/>
        <path id="DejaVuSans-20" transform="scale(0.015625)"/>
        <path id="DejaVuSans-28" d="M 1984 4856 
Q 1566 4138 1362 3434 
Q 1159 2731 1159 2009 
Q 1159 1288 1364 580 
Q 1569 -128 1984 -844 
L 1484 -844 
Q 1016 -109 783 600 
Q 550 1309 550 2009 
Q 550 2706 781 3412 
Q 1013 4119 1484 4856 
L 1984 4856 
z
" transform="scale(0.015625)"/>
        <path id="DejaVuSans-4d" d="M 628 4666 
L 1569 4666 
L 2759 1491 
L 3956 4666 
L 4897 4666 
L 4897 0 
L 4281 0 
L 4281 4097 
L 3078 897 
L 2444 897 
L 1241 4097 
L 1241 0 
L 628 0 
L 628 4666 
z
" transform="scale(0.015625)"/>
        <path id="DejaVuSans-65" d="M 3597 1894 
L 3597 1613 
L 953 1613 
Q 991 1019 1311 708 
Q 1631 397 2203 397 
Q 2534 397 2845 478 
Q 3156 559 3463 722 
L 3463 178 
Q 3153 47 2828 -22 
Q 2503 -91 2169 -91 
Q 1331 -91 842 396 
Q 353 884 353 1716 
Q 353 2575 817 3079 
Q 1281 3584 2069 3584 
Q 2775 3584 3186 3129 
Q 3597 2675 3597 1894 
z
M 3022 2063 
Q 3016 2534 2758 2815 
Q 2500 3097 2075 3097 
Q 1594 3097 1305 2825 
Q 1016 2553 972 2059 
L 3022 2063 
z
" transform="scale(0.015625)"/>
        <path id="DejaVuSans-56" d="M 1831 0 
L 50 4666 
L 709 4666 
L 2188 738 
L 3669 4666 
L 4325 4666 
L 2547 0 
L 1831 0 
z
" transform="scale(0.015625)"/>
        <path id="DejaVuSans-29" d="M 513 4856 
L 1013 4856 
Q 1481 4119 1714 3412 
Q 1947 2706 1947 2009 
Q 1947 1309 1714 600 
Q 1481 -109 1013 -844 
L 513 -844 
Q 928 -128 1133 580 
Q 1338 1288 1338 2009 
Q 1338 2731 1133 3434 
Q 928 4138 513 4856 
z
" transform="scale(0.015625)"/>
       </defs>
       <use xlink:href="#DejaVuSans-Oblique-45" transform="translate(0 0.125)"/>
       <use xlink:href="#DejaVuSans-Oblique-43" transform="translate(63.183594 -16.28125) scale(0.7)"/>
       <use xlink:href="#DejaVuSans-Oblique-6f" transform="translate(112.060547 -16.28125) scale(0.7)"/>
       <use xlink:href="#DejaVuSans-Oblique-4d" transform="translate(154.887695 -16.28125) scale(0.7)"/>
       <use xlink:href="#DejaVuSans-20" transform="translate(218.017578 0.125)"/>
       <use xlink:href="#DejaVuSans-28" transform="translate(249.804688 0.125)"/>
       <use xlink:href="#DejaVuSans-4d" transform="translate(288.818359 0.125)"/>
       <use xlink:href="#DejaVuSans-65" transform="translate(375.097656 0.125)"/>
       <use xlink:href="#DejaVuSans-56" transform="translate(436.621094 0.125)"/>
       <use xlink:href="#DejaVuSans-29" transform="translate(505.029297 0.125)"/>
      </g>
     </g>
    </g>
    <g id="matplotlib.axis_2"/>
    <g id="patch_4">
     <path d="M 333.476571 83.52 
L 114.048 83.52 
" style="fill: none; stroke: #000000; stroke-width: 0.8; stroke-linejoin: miter; stroke-linecap: square"/>
    </g>
   </g>
   <g id="matplotlib.axis_3">
    <g id="xtick_4">
     <g id="line2d_4">
      <path d="M 120.969251 630 
L 120.969251 83.52 
" clip-path="url(#pe76f52dc55)" style="fill: none; stroke: #b0b0b0; stroke-opacity: 0.2; stroke-width: 0.8; stroke-linecap: square"/>
     </g>
     <g id="line2d_5">
      <defs>
       <path id="m13cae4fa9f" d="M 0 0 
L 0 3.5 
" style="stroke: #000000; stroke-width: 0.8"/>
      </defs>
      <g>
       <use xlink:href="#m13cae4fa9f" x="120.969251" y="630" style="stroke: #000000; stroke-width: 0.8"/>
      </g>
     </g>
     <g id="text_5">
      <!-- 0 -->
      <g transform="translate(112.061751 658.275625) scale(0.28 -0.28)">
       <use xlink:href="#DejaVuSans-30"/>
      </g>
     </g>
    </g>
    <g id="xtick_5">
     <g id="line2d_6">
      <path d="M 243.080245 630 
L 243.080245 83.52 
" clip-path="url(#pe76f52dc55)" style="fill: none; stroke: #b0b0b0; stroke-opacity: 0.2; stroke-width: 0.8; stroke-linecap: square"/>
     </g>
     <g id="line2d_7">
      <g>
       <use xlink:href="#m13cae4fa9f" x="243.080245" y="630" style="stroke: #000000; stroke-width: 0.8"/>
      </g>
     </g>
     <g id="text_6">
      <!-- 20 -->
      <g transform="translate(225.265245 658.275625) scale(0.28 -0.28)">
       <use xlink:href="#DejaVuSans-32"/>
       <use xlink:href="#DejaVuSans-30" transform="translate(63.623047 0)"/>
      </g>
     </g>
    </g>
    <g id="text_7">
     <!-- $S_{2n}$ (MeV) -->
     <g transform="translate(132.182286 696.972813) scale(0.38 -0.38)">
      <defs>
       <path id="DejaVuSans-Oblique-53" d="M 3859 4513 
L 3738 3897 
Q 3422 4066 3111 4152 
Q 2800 4238 2509 4238 
Q 1944 4238 1609 3991 
Q 1275 3744 1275 3334 
Q 1275 3109 1398 2989 
Q 1522 2869 2034 2731 
L 2413 2638 
Q 3053 2472 3303 2217 
Q 3553 1963 3553 1503 
Q 3553 797 2998 353 
Q 2444 -91 1538 -91 
Q 1166 -91 791 -17 
Q 416 56 38 206 
L 166 856 
Q 513 641 861 531 
Q 1209 422 1556 422 
Q 2147 422 2503 684 
Q 2859 947 2859 1369 
Q 2859 1650 2717 1795 
Q 2575 1941 2106 2059 
L 1728 2156 
Q 1081 2325 845 2545 
Q 609 2766 609 3163 
Q 609 3859 1145 4304 
Q 1681 4750 2541 4750 
Q 2875 4750 3203 4690 
Q 3531 4631 3859 4513 
z
" transform="scale(0.015625)"/>
       <path id="DejaVuSans-Oblique-6e" d="M 3566 2113 
L 3156 0 
L 2578 0 
L 2988 2091 
Q 3016 2238 3031 2350 
Q 3047 2463 3047 2528 
Q 3047 2791 2881 2937 
Q 2716 3084 2419 3084 
Q 1956 3084 1622 2776 
Q 1288 2469 1184 1941 
L 800 0 
L 225 0 
L 903 3500 
L 1478 3500 
L 1363 2950 
Q 1603 3253 1940 3418 
Q 2278 3584 2650 3584 
Q 3113 3584 3367 3334 
Q 3622 3084 3622 2631 
Q 3622 2519 3608 2391 
Q 3594 2263 3566 2113 
z
" transform="scale(0.015625)"/>
      </defs>
      <use xlink:href="#DejaVuSans-Oblique-53" transform="translate(0 0.125)"/>
      <use xlink:href="#DejaVuSans-32" transform="translate(63.476562 -16.28125) scale(0.7)"/>
      <use xlink:href="#DejaVuSans-Oblique-6e" transform="translate(108.012695 -16.28125) scale(0.7)"/>
      <use xlink:href="#DejaVuSans-20" transform="translate(155.112305 0.125)"/>
      <use xlink:href="#DejaVuSans-28" transform="translate(186.899414 0.125)"/>
      <use xlink:href="#DejaVuSans-4d" transform="translate(225.913086 0.125)"/>
      <use xlink:href="#DejaVuSans-65" transform="translate(312.192383 0.125)"/>
      <use xlink:href="#DejaVuSans-56" transform="translate(373.71582 0.125)"/>
      <use xlink:href="#DejaVuSans-29" transform="translate(442.124023 0.125)"/>
     </g>
    </g>
   </g>
   <g id="matplotlib.axis_4">
    <g id="ytick_1">
     <g id="line2d_8">
      <path d="M 114.048 574.78778 
L 333.476571 574.78778 
" clip-path="url(#pe76f52dc55)" style="fill: none; stroke: #b0b0b0; stroke-opacity: 0.2; stroke-width: 0.8; stroke-linecap: square"/>
     </g>
     <g id="line2d_9">
      <defs>
       <path id="mcc21b49cc1" d="M 0 0 
L -3.5 0 
" style="stroke: #000000; stroke-width: 0.8"/>
      </defs>
      <g>
       <use xlink:href="#mcc21b49cc1" x="114.048" y="574.78778" style="stroke: #000000; stroke-width: 0.8"/>
      </g>
     </g>
     <g id="text_8">
      <!-- 0.85 -->
      <g transform="translate(44.70425 585.425593) scale(0.28 -0.28)">
       <defs>
        <path id="DejaVuSans-2e" d="M 684 794 
L 1344 794 
L 1344 0 
L 684 0 
L 684 794 
z
" transform="scale(0.015625)"/>
        <path id="DejaVuSans-38" d="M 2034 2216 
Q 1584 2216 1326 1975 
Q 1069 1734 1069 1313 
Q 1069 891 1326 650 
Q 1584 409 2034 409 
Q 2484 409 2743 651 
Q 3003 894 3003 1313 
Q 3003 1734 2745 1975 
Q 2488 2216 2034 2216 
z
M 1403 2484 
Q 997 2584 770 2862 
Q 544 3141 544 3541 
Q 544 4100 942 4425 
Q 1341 4750 2034 4750 
Q 2731 4750 3128 4425 
Q 3525 4100 3525 3541 
Q 3525 3141 3298 2862 
Q 3072 2584 2669 2484 
Q 3125 2378 3379 2068 
Q 3634 1759 3634 1313 
Q 3634 634 3220 271 
Q 2806 -91 2034 -91 
Q 1263 -91 848 271 
Q 434 634 434 1313 
Q 434 1759 690 2068 
Q 947 2378 1403 2484 
z
M 1172 3481 
Q 1172 3119 1398 2916 
Q 1625 2713 2034 2713 
Q 2441 2713 2670 2916 
Q 2900 3119 2900 3481 
Q 2900 3844 2670 4047 
Q 2441 4250 2034 4250 
Q 1625 4250 1398 4047 
Q 1172 3844 1172 3481 
z
" transform="scale(0.015625)"/>
        <path id="DejaVuSans-35" d="M 691 4666 
L 3169 4666 
L 3169 4134 
L 1269 4134 
L 1269 2991 
Q 1406 3038 1543 3061 
Q 1681 3084 1819 3084 
Q 2600 3084 3056 2656 
Q 3513 2228 3513 1497 
Q 3513 744 3044 326 
Q 2575 -91 1722 -91 
Q 1428 -91 1123 -41 
Q 819 9 494 109 
L 494 744 
Q 775 591 1075 516 
Q 1375 441 1709 441 
Q 2250 441 2565 725 
Q 2881 1009 2881 1497 
Q 2881 1984 2565 2268 
Q 2250 2553 1709 2553 
Q 1456 2553 1204 2497 
Q 953 2441 691 2322 
L 691 4666 
z
" transform="scale(0.015625)"/>
       </defs>
       <use xlink:href="#DejaVuSans-30"/>
       <use xlink:href="#DejaVuSans-2e" transform="translate(63.623047 0)"/>
       <use xlink:href="#DejaVuSans-38" transform="translate(95.410156 0)"/>
       <use xlink:href="#DejaVuSans-35" transform="translate(159.033203 0)"/>
      </g>
     </g>
    </g>
    <g id="ytick_2">
     <g id="line2d_10">
      <path d="M 114.048 511.12124 
L 333.476571 511.12124 
" clip-path="url(#pe76f52dc55)" style="fill: none; stroke: #b0b0b0; stroke-opacity: 0.2; stroke-width: 0.8; stroke-linecap: square"/>
     </g>
     <g id="line2d_11">
      <g>
       <use xlink:href="#mcc21b49cc1" x="114.048" y="511.12124" style="stroke: #000000; stroke-width: 0.8"/>
      </g>
     </g>
     <g id="text_9">
      <!-- 0.90 -->
      <g transform="translate(44.70425 521.759053) scale(0.28 -0.28)">
       <defs>
        <path id="DejaVuSans-39" d="M 703 97 
L 703 672 
Q 941 559 1184 500 
Q 1428 441 1663 441 
Q 2288 441 2617 861 
Q 2947 1281 2994 2138 
Q 2813 1869 2534 1725 
Q 2256 1581 1919 1581 
Q 1219 1581 811 2004 
Q 403 2428 403 3163 
Q 403 3881 828 4315 
Q 1253 4750 1959 4750 
Q 2769 4750 3195 4129 
Q 3622 3509 3622 2328 
Q 3622 1225 3098 567 
Q 2575 -91 1691 -91 
Q 1453 -91 1209 -44 
Q 966 3 703 97 
z
M 1959 2075 
Q 2384 2075 2632 2365 
Q 2881 2656 2881 3163 
Q 2881 3666 2632 3958 
Q 2384 4250 1959 4250 
Q 1534 4250 1286 3958 
Q 1038 3666 1038 3163 
Q 1038 2656 1286 2365 
Q 1534 2075 1959 2075 
z
" transform="scale(0.015625)"/>
       </defs>
       <use xlink:href="#DejaVuSans-30"/>
       <use xlink:href="#DejaVuSans-2e" transform="translate(63.623047 0)"/>
       <use xlink:href="#DejaVuSans-39" transform="translate(95.410156 0)"/>
       <use xlink:href="#DejaVuSans-30" transform="translate(159.033203 0)"/>
      </g>
     </g>
    </g>
    <g id="ytick_3">
     <g id="line2d_12">
      <path d="M 114.048 447.4547 
L 333.476571 447.4547 
" clip-path="url(#pe76f52dc55)" style="fill: none; stroke: #b0b0b0; stroke-opacity: 0.2; stroke-width: 0.8; stroke-linecap: square"/>
     </g>
     <g id="line2d_13">
      <g>
       <use xlink:href="#mcc21b49cc1" x="114.048" y="447.4547" style="stroke: #000000; stroke-width: 0.8"/>
      </g>
     </g>
     <g id="text_10">
      <!-- 0.95 -->
      <g transform="translate(44.70425 458.092512) scale(0.28 -0.28)">
       <use xlink:href="#DejaVuSans-30"/>
       <use xlink:href="#DejaVuSans-2e" transform="translate(63.623047 0)"/>
       <use xlink:href="#DejaVuSans-39" transform="translate(95.410156 0)"/>
       <use xlink:href="#DejaVuSans-35" transform="translate(159.033203 0)"/>
      </g>
     </g>
    </g>
    <g id="ytick_4">
     <g id="line2d_14">
      <path d="M 114.048 383.78816 
L 333.476571 383.78816 
" clip-path="url(#pe76f52dc55)" style="fill: none; stroke: #b0b0b0; stroke-opacity: 0.2; stroke-width: 0.8; stroke-linecap: square"/>
     </g>
     <g id="line2d_15">
      <g>
       <use xlink:href="#mcc21b49cc1" x="114.048" y="383.78816" style="stroke: #000000; stroke-width: 0.8"/>
      </g>
     </g>
     <g id="text_11">
      <!-- 1.00 -->
      <g transform="translate(44.70425 394.425972) scale(0.28 -0.28)">
       <use xlink:href="#DejaVuSans-31"/>
       <use xlink:href="#DejaVuSans-2e" transform="translate(63.623047 0)"/>
       <use xlink:href="#DejaVuSans-30" transform="translate(95.410156 0)"/>
       <use xlink:href="#DejaVuSans-30" transform="translate(159.033203 0)"/>
      </g>
     </g>
    </g>
    <g id="ytick_5">
     <g id="line2d_16">
      <path d="M 114.048 320.12162 
L 333.476571 320.12162 
" clip-path="url(#pe76f52dc55)" style="fill: none; stroke: #b0b0b0; stroke-opacity: 0.2; stroke-width: 0.8; stroke-linecap: square"/>
     </g>
     <g id="line2d_17">
      <g>
       <use xlink:href="#mcc21b49cc1" x="114.048" y="320.12162" style="stroke: #000000; stroke-width: 0.8"/>
      </g>
     </g>
     <g id="text_12">
      <!-- 1.05 -->
      <g transform="translate(44.70425 330.759432) scale(0.28 -0.28)">
       <use xlink:href="#DejaVuSans-31"/>
       <use xlink:href="#DejaVuSans-2e" transform="translate(63.623047 0)"/>
       <use xlink:href="#DejaVuSans-30" transform="translate(95.410156 0)"/>
       <use xlink:href="#DejaVuSans-35" transform="translate(159.033203 0)"/>
      </g>
     </g>
    </g>
    <g id="ytick_6">
     <g id="line2d_18">
      <path d="M 114.048 256.455079 
L 333.476571 256.455079 
" clip-path="url(#pe76f52dc55)" style="fill: none; stroke: #b0b0b0; stroke-opacity: 0.2; stroke-width: 0.8; stroke-linecap: square"/>
     </g>
     <g id="line2d_19">
      <g>
       <use xlink:href="#mcc21b49cc1" x="114.048" y="256.455079" style="stroke: #000000; stroke-width: 0.8"/>
      </g>
     </g>
     <g id="text_13">
      <!-- 1.10 -->
      <g transform="translate(44.70425 267.092892) scale(0.28 -0.28)">
       <use xlink:href="#DejaVuSans-31"/>
       <use xlink:href="#DejaVuSans-2e" transform="translate(63.623047 0)"/>
       <use xlink:href="#DejaVuSans-31" transform="translate(95.410156 0)"/>
       <use xlink:href="#DejaVuSans-30" transform="translate(159.033203 0)"/>
      </g>
     </g>
    </g>
    <g id="ytick_7">
     <g id="line2d_20">
      <path d="M 114.048 192.788539 
L 333.476571 192.788539 
" clip-path="url(#pe76f52dc55)" style="fill: none; stroke: #b0b0b0; stroke-opacity: 0.2; stroke-width: 0.8; stroke-linecap: square"/>
     </g>
     <g id="line2d_21">
      <g>
       <use xlink:href="#mcc21b49cc1" x="114.048" y="192.788539" style="stroke: #000000; stroke-width: 0.8"/>
      </g>
     </g>
     <g id="text_14">
      <!-- 1.15 -->
      <g transform="translate(44.70425 203.426352) scale(0.28 -0.28)">
       <use xlink:href="#DejaVuSans-31"/>
       <use xlink:href="#DejaVuSans-2e" transform="translate(63.623047 0)"/>
       <use xlink:href="#DejaVuSans-31" transform="translate(95.410156 0)"/>
       <use xlink:href="#DejaVuSans-35" transform="translate(159.033203 0)"/>
      </g>
     </g>
    </g>
    <g id="ytick_8">
     <g id="line2d_22">
      <path d="M 114.048 129.121999 
L 333.476571 129.121999 
" clip-path="url(#pe76f52dc55)" style="fill: none; stroke: #b0b0b0; stroke-opacity: 0.2; stroke-width: 0.8; stroke-linecap: square"/>
     </g>
     <g id="line2d_23">
      <g>
       <use xlink:href="#mcc21b49cc1" x="114.048" y="129.121999" style="stroke: #000000; stroke-width: 0.8"/>
      </g>
     </g>
     <g id="text_15">
      <!-- 1.20 -->
      <g transform="translate(44.70425 139.759812) scale(0.28 -0.28)">
       <use xlink:href="#DejaVuSans-31"/>
       <use xlink:href="#DejaVuSans-2e" transform="translate(63.623047 0)"/>
       <use xlink:href="#DejaVuSans-32" transform="translate(95.410156 0)"/>
       <use xlink:href="#DejaVuSans-30" transform="translate(159.033203 0)"/>
      </g>
     </g>
    </g>
    <g id="text_16">
     <!-- $\sigma_R$ ratio -->
     <g transform="translate(32.801437 428.58) rotate(-90) scale(0.38 -0.38)">
      <defs>
       <path id="DejaVuSans-Oblique-3c3" d="M 2219 3044 
Q 1744 3044 1422 2700 
Q 1081 2341 969 1747 
Q 844 1119 1044 756 
Q 1241 397 1706 397 
Q 2166 397 2503 759 
Q 2844 1122 2966 1747 
Q 3075 2319 2881 2700 
Q 2700 3044 2219 3044 
z
M 2309 3503 
L 4219 3500 
L 4106 2925 
L 3463 2925 
Q 3706 2438 3575 1747 
Q 3406 888 2884 400 
Q 2359 -91 1609 -91 
Q 856 -91 525 400 
Q 194 888 363 1747 
Q 528 2609 1050 3097 
Q 1484 3503 2309 3503 
z
" transform="scale(0.015625)"/>
       <path id="DejaVuSans-Oblique-52" d="M 1613 4147 
L 1294 2491 
L 2106 2491 
Q 2584 2491 2879 2755 
Q 3175 3019 3175 3444 
Q 3175 3784 2976 3965 
Q 2778 4147 2406 4147 
L 1613 4147 
z
M 2772 2241 
Q 2972 2194 3105 2009 
Q 3238 1825 3413 1275 
L 3809 0 
L 3144 0 
L 2778 1197 
Q 2638 1659 2453 1815 
Q 2269 1972 1888 1972 
L 1191 1972 
L 806 0 
L 172 0 
L 1081 4666 
L 2503 4666 
Q 3150 4666 3495 4373 
Q 3841 4081 3841 3531 
Q 3841 3044 3547 2687 
Q 3253 2331 2772 2241 
z
" transform="scale(0.015625)"/>
       <path id="DejaVuSans-72" d="M 2631 2963 
Q 2534 3019 2420 3045 
Q 2306 3072 2169 3072 
Q 1681 3072 1420 2755 
Q 1159 2438 1159 1844 
L 1159 0 
L 581 0 
L 581 3500 
L 1159 3500 
L 1159 2956 
Q 1341 3275 1631 3429 
Q 1922 3584 2338 3584 
Q 2397 3584 2469 3576 
Q 2541 3569 2628 3553 
L 2631 2963 
z
" transform="scale(0.015625)"/>
       <path id="DejaVuSans-61" d="M 2194 1759 
Q 1497 1759 1228 1600 
Q 959 1441 959 1056 
Q 959 750 1161 570 
Q 1363 391 1709 391 
Q 2188 391 2477 730 
Q 2766 1069 2766 1631 
L 2766 1759 
L 2194 1759 
z
M 3341 1997 
L 3341 0 
L 2766 0 
L 2766 531 
Q 2569 213 2275 61 
Q 1981 -91 1556 -91 
Q 1019 -91 701 211 
Q 384 513 384 1019 
Q 384 1609 779 1909 
Q 1175 2209 1959 2209 
L 2766 2209 
L 2766 2266 
Q 2766 2663 2505 2880 
Q 2244 3097 1772 3097 
Q 1472 3097 1187 3025 
Q 903 2953 641 2809 
L 641 3341 
Q 956 3463 1253 3523 
Q 1550 3584 1831 3584 
Q 2591 3584 2966 3190 
Q 3341 2797 3341 1997 
z
" transform="scale(0.015625)"/>
       <path id="DejaVuSans-74" d="M 1172 4494 
L 1172 3500 
L 2356 3500 
L 2356 3053 
L 1172 3053 
L 1172 1153 
Q 1172 725 1289 603 
Q 1406 481 1766 481 
L 2356 481 
L 2356 0 
L 1766 0 
Q 1100 0 847 248 
Q 594 497 594 1153 
L 594 3053 
L 172 3053 
L 172 3500 
L 594 3500 
L 594 4494 
L 1172 4494 
z
" transform="scale(0.015625)"/>
       <path id="DejaVuSans-69" d="M 603 3500 
L 1178 3500 
L 1178 0 
L 603 0 
L 603 3500 
z
M 603 4863 
L 1178 4863 
L 1178 4134 
L 603 4134 
L 603 4863 
z
" transform="scale(0.015625)"/>
       <path id="DejaVuSans-6f" d="M 1959 3097 
Q 1497 3097 1228 2736 
Q 959 2375 959 1747 
Q 959 1119 1226 758 
Q 1494 397 1959 397 
Q 2419 397 2687 759 
Q 2956 1122 2956 1747 
Q 2956 2369 2687 2733 
Q 2419 3097 1959 3097 
z
M 1959 3584 
Q 2709 3584 3137 3096 
Q 3566 2609 3566 1747 
Q 3566 888 3137 398 
Q 2709 -91 1959 -91 
Q 1206 -91 779 398 
Q 353 888 353 1747 
Q 353 2609 779 3096 
Q 1206 3584 1959 3584 
z
" transform="scale(0.015625)"/>
      </defs>
      <use xlink:href="#DejaVuSans-Oblique-3c3" transform="translate(0 0.015625)"/>
      <use xlink:href="#DejaVuSans-Oblique-52" transform="translate(63.378906 -16.390625) scale(0.7)"/>
      <use xlink:href="#DejaVuSans-20" transform="translate(114.750977 0.015625)"/>
      <use xlink:href="#DejaVuSans-72" transform="translate(146.538086 0.015625)"/>
      <use xlink:href="#DejaVuSans-61" transform="translate(187.651367 0.015625)"/>
      <use xlink:href="#DejaVuSans-74" transform="translate(248.930664 0.015625)"/>
      <use xlink:href="#DejaVuSans-69" transform="translate(288.139648 0.015625)"/>
      <use xlink:href="#DejaVuSans-6f" transform="translate(315.922852 0.015625)"/>
     </g>
    </g>
   </g>
   <g id="line2d_24">
    <path d="M 124.022026 350.880868 
L 127.074801 323.996108 
L 130.127576 314.614363 
L 133.180351 310.517667 
L 136.233125 309.561832 
L 139.2859 310.764836 
L 142.338675 313.192397 
L 145.39145 316.074749 
L 148.444225 318.91801 
L 151.497 321.485646 
L 154.549774 323.727245 
L 157.602549 325.702935 
L 160.655324 327.524192 
L 163.708099 329.3242 
L 166.760874 331.220595 
L 169.813649 333.305662 
L 172.866423 335.627723 
L 175.919198 338.185711 
L 178.971973 340.93795 
L 182.024748 343.816907 
L 185.077523 346.736867 
L 188.130298 349.62535 
L 191.183073 352.41326 
L 194.235847 355.053644 
L 197.288622 357.524722 
L 200.341397 359.81227 
L 203.394172 361.92275 
L 206.446947 363.866474 
L 209.499722 365.661281 
L 212.552496 367.326378 
L 215.605271 368.881246 
L 218.658046 370.344191 
L 221.710821 371.730878 
L 224.763596 373.054478 
L 227.816371 374.324559 
L 230.869146 375.548759 
L 233.92192 376.731688 
L 236.974695 377.875854 
L 240.02747 378.983197 
L 243.080245 380.053536 
L 246.13302 381.087402 
L 249.185795 382.08438 
L 252.238569 383.044729 
L 255.291344 383.96863 
L 258.344119 384.856776 
L 261.396894 385.710765 
L 264.449669 386.531039 
L 267.502444 387.319601 
L 270.555219 388.078007 
L 273.607993 388.805825 
L 276.660768 389.504778 
L 279.713543 390.17405 
L 282.766318 390.81554 
L 285.819093 391.429567 
L 288.871868 392.017467 
L 291.924642 392.589637 
L 294.977417 393.154804 
L 298.030192 393.734638 
L 301.082967 394.351512 
L 304.135742 395.034841 
L 307.188517 395.814355 
L 310.241292 396.723884 
L 313.294066 397.791584 
L 316.346841 399.02521 
L 319.399616 400.378806 
L 322.452391 401.750551 
L 323.502545 402.207674 
" clip-path="url(#pe76f52dc55)" style="fill: none; stroke-dasharray: 11.1,4.8; stroke-dashoffset: 0; stroke: #000000; stroke-width: 3"/>
   </g>
   <g id="line2d_25">
    <path d="M 124.022026 533.586105 
L 127.074801 604.176716 
L 130.127576 605.16 
L 133.180351 592.19154 
L 136.233125 573.996824 
L 139.2859 554.758105 
L 142.338675 537.471637 
L 145.39145 523.690216 
L 148.444225 513.711385 
L 151.497 507.037329 
L 154.549774 502.856496 
L 157.602549 500.266377 
L 160.655324 498.428089 
L 163.708099 496.636724 
L 166.760874 494.341059 
L 169.813649 491.222632 
L 172.866423 487.138275 
L 175.919198 482.174143 
L 178.971973 476.549209 
L 182.024748 470.575747 
L 185.077523 464.590031 
L 188.130298 458.875777 
L 191.183073 453.662646 
L 194.235847 449.080555 
L 197.288622 445.186999 
L 200.341397 441.967887 
L 203.394172 439.363841 
L 206.446947 437.28303 
L 209.499722 435.616816 
L 212.552496 434.251517 
L 215.605271 433.08028 
L 218.658046 432.004389 
L 221.710821 430.942764 
L 224.763596 429.828709 
L 227.816371 428.616194 
L 230.869146 427.279779 
L 233.92192 425.80768 
L 236.974695 424.200178 
L 240.02747 422.475899 
L 243.080245 420.651639 
L 246.13302 418.753982 
L 249.185795 416.807506 
L 252.238569 414.833483 
L 255.291344 412.846991 
L 258.344119 410.861374 
L 261.396894 408.870016 
L 264.449669 406.870808 
L 267.502444 404.842366 
L 270.555219 402.743606 
L 273.607993 400.536135 
L 276.660768 398.155985 
L 279.713543 395.517207 
L 282.766318 392.53453 
L 285.819093 389.085886 
L 288.871868 385.052226 
L 291.924642 380.295985 
L 294.977417 374.681937 
L 298.030192 368.069329 
L 301.082967 360.376879 
L 304.135742 351.587298 
L 307.188517 341.870937 
L 310.241292 331.699419 
L 313.294066 321.933436 
L 316.346841 313.511563 
L 319.399616 306.93937 
L 322.452391 302.070044 
L 323.502545 300.722292 
" clip-path="url(#pe76f52dc55)" style="fill: none; stroke-dasharray: 3,4.95; stroke-dashoffset: 0; stroke: #000000; stroke-width: 3"/>
   </g>
   <g id="line2d_26">
    <path d="M 124.022026 350.499977 
L 127.074801 327.032523 
L 130.127576 319.677289 
L 133.180351 316.938224 
L 136.233125 316.948016 
L 139.2859 318.817981 
L 142.338675 321.688336 
L 145.39145 324.855962 
L 148.444225 327.881487 
L 151.497 330.566536 
L 154.549774 332.881812 
L 157.602549 334.893916 
L 160.655324 336.714477 
L 163.708099 338.469071 
L 166.760874 340.273485 
L 169.813649 342.215474 
L 172.866423 344.345046 
L 175.919198 346.669935 
L 178.971973 349.158809 
L 182.024748 351.754612 
L 185.077523 354.384627 
L 188.130298 356.97821 
L 191.183073 359.47718 
L 194.235847 361.838576 
L 197.288622 364.037997 
L 200.341397 366.067966 
L 203.394172 367.93002 
L 206.446947 369.636728 
L 209.499722 371.205075 
L 212.552496 372.65402 
L 215.605271 374.003585 
L 218.658046 375.271817 
L 221.710821 376.474966 
L 224.763596 377.626586 
L 227.816371 378.737907 
L 230.869146 379.816527 
L 233.92192 380.868178 
L 236.974695 381.897046 
L 240.02747 382.903785 
L 243.080245 383.889841 
L 246.13302 384.854866 
L 249.185795 385.799279 
L 252.238569 386.722194 
L 255.291344 387.623488 
L 258.344119 388.503837 
L 261.396894 389.363543 
L 264.449669 390.204211 
L 267.502444 391.026283 
L 270.555219 391.82968 
L 273.607993 392.615295 
L 276.660768 393.382831 
L 279.713543 394.130601 
L 282.766318 394.856911 
L 285.819093 395.558931 
L 288.871868 396.234772 
L 291.924642 396.885354 
L 294.977417 397.514047 
L 298.030192 398.129688 
L 301.082967 398.744325 
L 304.135742 399.372962 
L 307.188517 400.030206 
L 310.241292 400.729843 
L 313.294066 401.487644 
L 316.346841 402.313353 
L 319.399616 403.181904 
L 322.452391 404.023295 
L 323.502545 404.293603 
" clip-path="url(#pe76f52dc55)" style="fill: none; stroke-dasharray: 11.1,4.8; stroke-dashoffset: 0; stroke: #e69f00; stroke-width: 3"/>
   </g>
   <g id="line2d_27">
    <path d="M 124.022026 529.525846 
L 127.074801 592.331527 
L 130.127576 592.627413 
L 133.180351 579.892967 
L 136.233125 561.788382 
L 139.2859 542.387782 
L 142.338675 524.78242 
L 145.39145 510.654639 
L 148.444225 500.391663 
L 151.497 493.568496 
L 154.549774 489.392699 
L 157.602549 486.971814 
L 160.655324 485.47477 
L 163.708099 484.172699 
L 166.760874 482.494839 
L 169.813649 480.0531 
L 172.866423 476.66265 
L 175.919198 472.335333 
L 178.971973 467.248529 
L 182.024748 461.68047 
L 185.077523 455.965261 
L 188.130298 450.407376 
L 191.183073 445.253614 
L 194.235847 440.670801 
L 197.288622 436.747484 
L 200.341397 433.490425 
L 203.394172 430.872001 
L 206.446947 428.814427 
L 209.499722 427.218124 
L 212.552496 425.979872 
L 215.605271 424.988982 
L 218.658046 424.14754 
L 221.710821 423.362587 
L 224.763596 422.561153 
L 227.816371 421.684515 
L 230.869146 420.692689 
L 233.92192 419.559731 
L 236.974695 418.269661 
L 240.02747 416.834233 
L 243.080245 415.261459 
L 246.13302 413.571026 
L 249.185795 411.778481 
L 252.238569 409.905989 
L 255.291344 407.969801 
L 258.344119 405.981601 
L 261.396894 403.943632 
L 264.449669 401.851104 
L 267.502444 399.683711 
L 270.555219 397.415551 
L 273.607993 394.999791 
L 276.660768 392.381037 
L 279.713543 389.479244 
L 282.766318 386.203558 
L 285.819093 382.450317 
L 288.871868 378.094081 
L 291.924642 373.001537 
L 294.977417 367.036624 
L 298.030192 360.069092 
L 301.082967 351.996368 
L 304.135742 342.794548 
L 307.188517 332.616729 
L 310.241292 321.933398 
L 313.294066 311.588425 
L 316.346841 302.547608 
L 319.399616 295.364318 
L 322.452391 289.964455 
L 323.502545 288.465196 
" clip-path="url(#pe76f52dc55)" style="fill: none; stroke-dasharray: 3,4.95; stroke-dashoffset: 0; stroke: #e69f00; stroke-width: 3"/>
   </g>
   <g id="line2d_28">
    <path d="M 124.022026 352.642692 
L 127.074801 335.44368 
L 130.127576 330.820252 
L 133.180351 329.610168 
L 136.233125 330.51108 
L 139.2859 332.845967 
L 142.338675 335.904166 
L 145.39145 339.098151 
L 148.444225 342.068591 
L 151.497 344.658232 
L 154.549774 346.859085 
L 157.602549 348.737966 
L 160.655324 350.402459 
L 163.708099 351.964526 
L 166.760874 353.527979 
L 169.813649 355.177275 
L 172.866423 356.962888 
L 175.919198 358.903289 
L 178.971973 360.980564 
L 182.024748 363.151682 
L 185.077523 365.35867 
L 188.130298 367.542053 
L 191.183073 369.647611 
L 194.235847 371.636005 
L 197.288622 373.48248 
L 200.341397 375.176255 
L 203.394172 376.719367 
L 206.446947 378.120274 
L 209.499722 379.393933 
L 212.552496 380.556704 
L 215.605271 381.627109 
L 218.658046 382.621896 
L 221.710821 383.557666 
L 224.763596 384.446492 
L 227.816371 385.300076 
L 230.869146 386.128603 
L 233.92192 386.935798 
L 236.974695 387.729306 
L 240.02747 388.509417 
L 243.080245 389.279831 
L 246.13302 390.039116 
L 249.185795 390.789464 
L 252.238569 391.528171 
L 255.291344 392.257266 
L 258.344119 392.97555 
L 261.396894 393.683336 
L 264.449669 394.380868 
L 267.502444 395.067655 
L 270.555219 395.744021 
L 273.607993 396.40883 
L 276.660768 397.06026 
L 279.713543 397.695866 
L 282.766318 398.311625 
L 285.819093 398.903609 
L 288.871868 399.468702 
L 291.924642 400.0039 
L 294.977417 400.512667 
L 298.030192 401.00255 
L 301.082967 401.484491 
L 304.135742 401.974001 
L 307.188517 402.486052 
L 310.241292 403.043057 
L 313.294066 403.677896 
L 316.346841 404.425269 
L 319.399616 405.277844 
L 322.452391 406.143164 
L 323.502545 406.420185 
" clip-path="url(#pe76f52dc55)" style="fill: none; stroke-dasharray: 11.1,4.8; stroke-dashoffset: 0; stroke: #56b4e9; stroke-width: 3"/>
   </g>
   <g id="line2d_29">
    <path d="M 124.022026 517.626861 
L 127.074801 566.930441 
L 130.127576 567.351032 
L 133.180351 556.427573 
L 136.233125 539.788198 
L 139.2859 521.13368 
L 142.338675 503.664129 
L 145.39145 489.329821 
L 148.444225 478.766001 
L 151.497 471.718891 
L 154.549774 467.50148 
L 157.602549 465.286875 
L 160.655324 464.266945 
L 163.708099 463.712376 
L 166.760874 463.018075 
L 169.813649 461.729687 
L 172.866423 459.564727 
L 175.919198 456.429007 
L 178.971973 452.399869 
L 182.024748 447.690676 
L 185.077523 442.593841 
L 188.130298 437.418612 
L 191.183073 432.442161 
L 194.235847 427.873115 
L 197.288622 423.859417 
L 200.341397 420.462629 
L 203.394172 417.689079 
L 206.446947 415.499708 
L 209.499722 413.822882 
L 212.552496 412.570783 
L 215.605271 411.645905 
L 218.658046 410.949407 
L 221.710821 410.389291 
L 224.763596 409.88024 
L 227.816371 409.350423 
L 230.869146 408.74089 
L 233.92192 408.008279 
L 236.974695 407.12207 
L 240.02747 406.064638 
L 243.080245 404.830493 
L 246.13302 403.421312 
L 249.185795 401.845332 
L 252.238569 400.114357 
L 255.291344 398.237917 
L 258.344119 396.225114 
L 261.396894 394.078659 
L 264.449669 391.794082 
L 267.502444 389.357008 
L 270.555219 386.742743 
L 273.607993 383.912381 
L 276.660768 380.813837 
L 279.713543 377.379657 
L 282.766318 373.527273 
L 285.819093 369.160731 
L 288.871868 364.16628 
L 291.924642 358.435034 
L 294.977417 351.843702 
L 298.030192 344.277254 
L 301.082967 335.645481 
L 304.135742 325.933431 
L 307.188517 315.301158 
L 310.241292 304.230002 
L 313.294066 293.575362 
L 316.346841 284.312166 
L 319.399616 276.982431 
L 322.452391 271.477965 
L 323.502545 269.947707 
" clip-path="url(#pe76f52dc55)" style="fill: none; stroke-dasharray: 3,4.95; stroke-dashoffset: 0; stroke: #56b4e9; stroke-width: 3"/>
   </g>
   <g id="line2d_30">
    <path d="M 124.022026 359.87101 
L 127.074801 350.405627 
L 130.127576 348.405027 
L 133.180351 348.433869 
L 136.233125 349.845992 
L 139.2859 352.221094 
L 142.338675 355.05099 
L 145.39145 357.892858 
L 148.444225 360.469432 
L 151.497 362.669634 
L 154.549774 364.493296 
L 157.602549 366.00093 
L 160.655324 367.279832 
L 163.708099 368.420356 
L 166.760874 369.506901 
L 169.813649 370.609194 
L 172.866423 371.777137 
L 175.919198 373.036895 
L 178.971973 374.389674 
L 182.024748 375.815898 
L 185.077523 377.279834 
L 188.130298 378.740133 
L 191.183073 380.155588 
L 194.235847 381.493207 
L 197.288622 382.728522 
L 200.341397 383.850381 
L 203.394172 384.855144 
L 206.446947 385.748246 
L 209.499722 386.539245 
L 212.552496 387.242009 
L 215.605271 387.871179 
L 218.658046 388.442721 
L 221.710821 388.971633 
L 224.763596 389.471887 
L 227.816371 389.956086 
L 230.869146 390.435077 
L 233.92192 390.917354 
L 236.974695 391.410235 
L 240.02747 391.919344 
L 243.080245 392.447452 
L 246.13302 392.997058 
L 249.185795 393.569534 
L 252.238569 394.165152 
L 255.291344 394.783008 
L 258.344119 395.422262 
L 261.396894 396.082814 
L 264.449669 396.761697 
L 267.502444 397.459922 
L 270.555219 398.172897 
L 273.607993 398.899959 
L 276.660768 399.636891 
L 279.713543 400.378622 
L 282.766318 401.11973 
L 285.819093 401.852574 
L 288.871868 402.568646 
L 291.924642 403.261263 
L 294.977417 403.926567 
L 298.030192 404.565474 
L 301.082967 405.182714 
L 304.135742 405.78602 
L 307.188517 406.382003 
L 310.241292 406.98221 
L 313.294066 407.607681 
L 316.346841 408.278898 
L 319.399616 408.983778 
L 322.452391 409.646611 
L 323.502545 409.847378 
" clip-path="url(#pe76f52dc55)" style="fill: none; stroke-dasharray: 11.1,4.8; stroke-dashoffset: 0; stroke: #009e73; stroke-width: 3"/>
   </g>
   <g id="line2d_31">
    <path d="M 124.022026 492.9308 
L 127.074801 525.486002 
L 130.127576 527.087044 
L 133.180351 519.80653 
L 136.233125 506.559093 
L 139.2859 490.189958 
L 142.338675 473.790172 
L 145.39145 459.623112 
L 148.444225 448.73718 
L 151.497 441.218356 
L 154.549774 436.608821 
L 157.602549 434.233252 
L 160.655324 433.375824 
L 163.708099 433.362025 
L 166.760874 433.595067 
L 169.813649 433.579624 
L 172.866423 432.942378 
L 175.919198 431.456799 
L 178.971973 429.051043 
L 182.024748 425.798342 
L 185.077523 421.885424 
L 188.130298 417.567601 
L 191.183073 413.116615 
L 194.235847 408.778939 
L 197.288622 404.750409 
L 200.341397 401.165095 
L 203.394172 398.096419 
L 206.446947 395.566226 
L 209.499722 393.55648 
L 212.552496 392.020422 
L 215.605271 390.893389 
L 218.658046 390.100514 
L 221.710821 389.56233 
L 224.763596 389.200213 
L 227.816371 388.939567 
L 230.869146 388.712515 
L 233.92192 388.459376 
L 236.974695 388.130194 
L 240.02747 387.684567 
L 243.080245 387.09136 
L 246.13302 386.32928 
L 249.185795 385.382379 
L 252.238569 384.242658 
L 255.291344 382.902993 
L 258.344119 381.359323 
L 261.396894 379.604189 
L 264.449669 377.624616 
L 267.502444 375.410136 
L 270.555219 372.931399 
L 273.607993 370.15523 
L 276.660768 367.033077 
L 279.713543 363.504292 
L 282.766318 359.492519 
L 285.819093 354.91421 
L 288.871868 349.667615 
L 291.924642 343.648162 
L 294.977417 336.744492 
L 298.030192 328.84849 
L 301.082967 319.873039 
L 304.135742 309.802086 
L 307.188517 298.793047 
L 310.241292 287.322014 
L 313.294066 276.243746 
L 316.346841 266.538802 
L 319.399616 258.756133 
L 322.452391 252.807804 
L 323.502545 251.136301 
" clip-path="url(#pe76f52dc55)" style="fill: none; stroke-dasharray: 3,4.95; stroke-dashoffset: 0; stroke: #009e73; stroke-width: 3"/>
   </g>
   <g id="line2d_32">
    <path d="M 114.048 383.78816 
L 333.476571 383.78816 
" clip-path="url(#pe76f52dc55)" style="fill: none; stroke: #000000; stroke-opacity: 0.25; stroke-width: 1.5; stroke-linecap: square"/>
   </g>
   <g id="line2d_33">
    <path d="M 306.328977 630 
L 306.328977 83.52 
" clip-path="url(#pe76f52dc55)" style="fill: none; stroke-dasharray: 5.55,2.4; stroke-dashoffset: 0; stroke: #ff0000; stroke-width: 1.5"/>
   </g>
   <g id="patch_5">
    <path d="M 114.048 630 
L 114.048 83.52 
" style="fill: none; stroke: #000000; stroke-width: 0.8; stroke-linejoin: miter; stroke-linecap: square"/>
   </g>
   <g id="patch_6">
    <path d="M 333.476571 630 
L 333.476571 83.52 
" style="fill: none; stroke: #000000; stroke-width: 0.8; stroke-linejoin: miter; stroke-linecap: square"/>
   </g>
   <g id="patch_7">
    <path d="M 114.048 630 
L 333.476571 630 
" style="fill: none; stroke: #000000; stroke-width: 0.8; stroke-linejoin: miter; stroke-linecap: square"/>
   </g>
   <g id="patch_8">
    <path d="M 114.048 83.52 
L 333.476571 83.52 
" style="fill: none; stroke: #000000; stroke-width: 0.8; stroke-linejoin: miter; stroke-linecap: square"/>
   </g>
   <g id="text_17">
    <!-- 30MeV -->
    <g transform="translate(134.558268 134.008625) scale(0.2 -0.2)">
     <use xlink:href="#DejaVuSans-33"/>
     <use xlink:href="#DejaVuSans-30" transform="translate(63.623047 0)"/>
     <use xlink:href="#DejaVuSans-4d" transform="translate(127.246094 0)"/>
     <use xlink:href="#DejaVuSans-65" transform="translate(213.525391 0)"/>
     <use xlink:href="#DejaVuSans-56" transform="translate(275.048828 0)"/>
    </g>
   </g>
   <g id="legend_1">
    <g id="line2d_34">
     <path d="M 208.460946 107.097187 
L 226.460946 107.097187 
L 244.460946 107.097187 
" style="fill: none; stroke-dasharray: 3.5,5.775; stroke-dashoffset: 0; stroke: #000000; stroke-width: 3.5"/>
    </g>
    <g id="text_18">
     <!-- LELO -->
     <g transform="translate(258.860946 113.397187) scale(0.18 -0.18)">
      <defs>
       <path id="DejaVuSans-4c" d="M 628 4666 
L 1259 4666 
L 1259 531 
L 3531 531 
L 3531 0 
L 628 0 
L 628 4666 
z
" transform="scale(0.015625)"/>
       <path id="DejaVuSans-45" d="M 628 4666 
L 3578 4666 
L 3578 4134 
L 1259 4134 
L 1259 2753 
L 3481 2753 
L 3481 2222 
L 1259 2222 
L 1259 531 
L 3634 531 
L 3634 0 
L 628 0 
L 628 4666 
z
" transform="scale(0.015625)"/>
       <path id="DejaVuSans-4f" d="M 2522 4238 
Q 1834 4238 1429 3725 
Q 1025 3213 1025 2328 
Q 1025 1447 1429 934 
Q 1834 422 2522 422 
Q 3209 422 3611 934 
Q 4013 1447 4013 2328 
Q 4013 3213 3611 3725 
Q 3209 4238 2522 4238 
z
M 2522 4750 
Q 3503 4750 4090 4092 
Q 4678 3434 4678 2328 
Q 4678 1225 4090 567 
Q 3503 -91 2522 -91 
Q 1538 -91 948 565 
Q 359 1222 359 2328 
Q 359 3434 948 4092 
Q 1538 4750 2522 4750 
z
" transform="scale(0.015625)"/>
      </defs>
      <use xlink:href="#DejaVuSans-4c"/>
      <use xlink:href="#DejaVuSans-45" transform="translate(55.712891 0)"/>
      <use xlink:href="#DejaVuSans-4c" transform="translate(118.896484 0)"/>
      <use xlink:href="#DejaVuSans-4f" transform="translate(170.984375 0)"/>
     </g>
    </g>
    <g id="line2d_35">
     <path d="M 208.460946 133.517812 
L 226.460946 133.517812 
L 244.460946 133.517812 
" style="fill: none; stroke-dasharray: 12.95,5.6; stroke-dashoffset: 0; stroke: #000000; stroke-width: 3.5"/>
    </g>
    <g id="text_19">
     <!-- LENLO -->
     <g transform="translate(258.860946 139.817812) scale(0.18 -0.18)">
      <defs>
       <path id="DejaVuSans-4e" d="M 628 4666 
L 1478 4666 
L 3547 763 
L 3547 4666 
L 4159 4666 
L 4159 0 
L 3309 0 
L 1241 3903 
L 1241 0 
L 628 0 
L 628 4666 
z
" transform="scale(0.015625)"/>
      </defs>
      <use xlink:href="#DejaVuSans-4c"/>
      <use xlink:href="#DejaVuSans-45" transform="translate(55.712891 0)"/>
      <use xlink:href="#DejaVuSans-4e" transform="translate(118.896484 0)"/>
      <use xlink:href="#DejaVuSans-4c" transform="translate(193.701172 0)"/>
      <use xlink:href="#DejaVuSans-4f" transform="translate(245.789062 0)"/>
     </g>
    </g>
   </g>
  </g>
  <g id="axes_3">
   <g id="patch_9">
    <path d="M 341.595429 630 
L 561.024 630 
L 561.024 83.52 
L 341.595429 83.52 
L 341.595429 630 
z
" style="fill: none"/>
   </g>
   <g id="axes_4">
    <g id="patch_10">
     <path d="M 341.595429 83.52 
L 561.024 83.52 
L 561.024 83.52 
L 341.595429 83.52 
L 341.595429 83.52 
z
" style="fill: none"/>
    </g>
    <g id="matplotlib.axis_5">
     <g id="xtick_6">
      <g id="line2d_36">
       <g>
        <use xlink:href="#mff419fb46e" x="519.787667" y="83.52" style="stroke: #000000; stroke-width: 0.8"/>
       </g>
      </g>
      <g id="text_20">
       <!-- 20 -->
       <g transform="translate(501.972667 70.696875) scale(0.28 -0.28)">
        <use xlink:href="#DejaVuSans-32"/>
        <use xlink:href="#DejaVuSans-30" transform="translate(63.623047 0)"/>
       </g>
      </g>
     </g>
     <g id="xtick_7">
      <g id="line2d_37">
       <g>
        <use xlink:href="#mff419fb46e" x="458.73217" y="83.52" style="stroke: #000000; stroke-width: 0.8"/>
       </g>
      </g>
      <g id="text_21">
       <!-- 30 -->
       <g transform="translate(440.91717 70.696875) scale(0.28 -0.28)">
        <use xlink:href="#DejaVuSans-33"/>
        <use xlink:href="#DejaVuSans-30" transform="translate(63.623047 0)"/>
       </g>
      </g>
     </g>
     <g id="xtick_8">
      <g id="line2d_38">
       <g>
        <use xlink:href="#mff419fb46e" x="397.676673" y="83.52" style="stroke: #000000; stroke-width: 0.8"/>
       </g>
      </g>
      <g id="text_22">
       <!-- 40 -->
       <g transform="translate(379.861673 70.696875) scale(0.28 -0.28)">
        <defs>
         <path id="DejaVuSans-34" d="M 2419 4116 
L 825 1625 
L 2419 1625 
L 2419 4116 
z
M 2253 4666 
L 3047 4666 
L 3047 1625 
L 3713 1625 
L 3713 1100 
L 3047 1100 
L 3047 0 
L 2419 0 
L 2419 1100 
L 313 1100 
L 313 1709 
L 2253 4666 
z
" transform="scale(0.015625)"/>
        </defs>
        <use xlink:href="#DejaVuSans-34"/>
        <use xlink:href="#DejaVuSans-30" transform="translate(63.623047 0)"/>
       </g>
      </g>
     </g>
     <g id="text_23">
      <!-- $E_{CoM}$ (MeV) -->
      <g transform="translate(347.759714 45.42125) scale(0.38 -0.38)">
       <use xlink:href="#DejaVuSans-Oblique-45" transform="translate(0 0.125)"/>
       <use xlink:href="#DejaVuSans-Oblique-43" transform="translate(63.183594 -16.28125) scale(0.7)"/>
       <use xlink:href="#DejaVuSans-Oblique-6f" transform="translate(112.060547 -16.28125) scale(0.7)"/>
       <use xlink:href="#DejaVuSans-Oblique-4d" transform="translate(154.887695 -16.28125) scale(0.7)"/>
       <use xlink:href="#DejaVuSans-20" transform="translate(218.017578 0.125)"/>
       <use xlink:href="#DejaVuSans-28" transform="translate(249.804688 0.125)"/>
       <use xlink:href="#DejaVuSans-4d" transform="translate(288.818359 0.125)"/>
       <use xlink:href="#DejaVuSans-65" transform="translate(375.097656 0.125)"/>
       <use xlink:href="#DejaVuSans-56" transform="translate(436.621094 0.125)"/>
       <use xlink:href="#DejaVuSans-29" transform="translate(505.029297 0.125)"/>
      </g>
     </g>
    </g>
    <g id="matplotlib.axis_6"/>
    <g id="patch_11">
     <path d="M 561.024 83.52 
L 341.595429 83.52 
" style="fill: none; stroke: #000000; stroke-width: 0.8; stroke-linejoin: miter; stroke-linecap: square"/>
    </g>
   </g>
   <g id="matplotlib.axis_7">
    <g id="xtick_9">
     <g id="line2d_39">
      <path d="M 348.51668 630 
L 348.51668 83.52 
" clip-path="url(#pe3049e7615)" style="fill: none; stroke: #b0b0b0; stroke-opacity: 0.2; stroke-width: 0.8; stroke-linecap: square"/>
     </g>
     <g id="line2d_40">
      <g>
       <use xlink:href="#m13cae4fa9f" x="348.51668" y="630" style="stroke: #000000; stroke-width: 0.8"/>
      </g>
     </g>
     <g id="text_24">
      <!-- 0 -->
      <g transform="translate(339.60918 658.275625) scale(0.28 -0.28)">
       <use xlink:href="#DejaVuSans-30"/>
      </g>
     </g>
    </g>
    <g id="xtick_10">
     <g id="line2d_41">
      <path d="M 470.627674 630 
L 470.627674 83.52 
" clip-path="url(#pe3049e7615)" style="fill: none; stroke: #b0b0b0; stroke-opacity: 0.2; stroke-width: 0.8; stroke-linecap: square"/>
     </g>
     <g id="line2d_42">
      <g>
       <use xlink:href="#m13cae4fa9f" x="470.627674" y="630" style="stroke: #000000; stroke-width: 0.8"/>
      </g>
     </g>
     <g id="text_25">
      <!-- 20 -->
      <g transform="translate(452.812674 658.275625) scale(0.28 -0.28)">
       <use xlink:href="#DejaVuSans-32"/>
       <use xlink:href="#DejaVuSans-30" transform="translate(63.623047 0)"/>
      </g>
     </g>
    </g>
    <g id="text_26">
     <!-- $S_{2n}$ (MeV) -->
     <g transform="translate(359.729714 696.972813) scale(0.38 -0.38)">
      <use xlink:href="#DejaVuSans-Oblique-53" transform="translate(0 0.125)"/>
      <use xlink:href="#DejaVuSans-32" transform="translate(63.476562 -16.28125) scale(0.7)"/>
      <use xlink:href="#DejaVuSans-Oblique-6e" transform="translate(108.012695 -16.28125) scale(0.7)"/>
      <use xlink:href="#DejaVuSans-20" transform="translate(155.112305 0.125)"/>
      <use xlink:href="#DejaVuSans-28" transform="translate(186.899414 0.125)"/>
      <use xlink:href="#DejaVuSans-4d" transform="translate(225.913086 0.125)"/>
      <use xlink:href="#DejaVuSans-65" transform="translate(312.192383 0.125)"/>
      <use xlink:href="#DejaVuSans-56" transform="translate(373.71582 0.125)"/>
      <use xlink:href="#DejaVuSans-29" transform="translate(442.124023 0.125)"/>
     </g>
    </g>
   </g>
   <g id="matplotlib.axis_8">
    <g id="ytick_9">
     <g id="line2d_43">
      <path d="M 341.595429 574.78778 
L 561.024 574.78778 
" clip-path="url(#pe3049e7615)" style="fill: none; stroke: #b0b0b0; stroke-opacity: 0.2; stroke-width: 0.8; stroke-linecap: square"/>
     </g>
     <g id="line2d_44">
      <g>
       <use xlink:href="#mcc21b49cc1" x="341.595429" y="574.78778" style="stroke: #000000; stroke-width: 0.8"/>
      </g>
     </g>
    </g>
    <g id="ytick_10">
     <g id="line2d_45">
      <path d="M 341.595429 511.12124 
L 561.024 511.12124 
" clip-path="url(#pe3049e7615)" style="fill: none; stroke: #b0b0b0; stroke-opacity: 0.2; stroke-width: 0.8; stroke-linecap: square"/>
     </g>
     <g id="line2d_46">
      <g>
       <use xlink:href="#mcc21b49cc1" x="341.595429" y="511.12124" style="stroke: #000000; stroke-width: 0.8"/>
      </g>
     </g>
    </g>
    <g id="ytick_11">
     <g id="line2d_47">
      <path d="M 341.595429 447.4547 
L 561.024 447.4547 
" clip-path="url(#pe3049e7615)" style="fill: none; stroke: #b0b0b0; stroke-opacity: 0.2; stroke-width: 0.8; stroke-linecap: square"/>
     </g>
     <g id="line2d_48">
      <g>
       <use xlink:href="#mcc21b49cc1" x="341.595429" y="447.4547" style="stroke: #000000; stroke-width: 0.8"/>
      </g>
     </g>
    </g>
    <g id="ytick_12">
     <g id="line2d_49">
      <path d="M 341.595429 383.78816 
L 561.024 383.78816 
" clip-path="url(#pe3049e7615)" style="fill: none; stroke: #b0b0b0; stroke-opacity: 0.2; stroke-width: 0.8; stroke-linecap: square"/>
     </g>
     <g id="line2d_50">
      <g>
       <use xlink:href="#mcc21b49cc1" x="341.595429" y="383.78816" style="stroke: #000000; stroke-width: 0.8"/>
      </g>
     </g>
    </g>
    <g id="ytick_13">
     <g id="line2d_51">
      <path d="M 341.595429 320.12162 
L 561.024 320.12162 
" clip-path="url(#pe3049e7615)" style="fill: none; stroke: #b0b0b0; stroke-opacity: 0.2; stroke-width: 0.8; stroke-linecap: square"/>
     </g>
     <g id="line2d_52">
      <g>
       <use xlink:href="#mcc21b49cc1" x="341.595429" y="320.12162" style="stroke: #000000; stroke-width: 0.8"/>
      </g>
     </g>
    </g>
    <g id="ytick_14">
     <g id="line2d_53">
      <path d="M 341.595429 256.455079 
L 561.024 256.455079 
" clip-path="url(#pe3049e7615)" style="fill: none; stroke: #b0b0b0; stroke-opacity: 0.2; stroke-width: 0.8; stroke-linecap: square"/>
     </g>
     <g id="line2d_54">
      <g>
       <use xlink:href="#mcc21b49cc1" x="341.595429" y="256.455079" style="stroke: #000000; stroke-width: 0.8"/>
      </g>
     </g>
    </g>
    <g id="ytick_15">
     <g id="line2d_55">
      <path d="M 341.595429 192.788539 
L 561.024 192.788539 
" clip-path="url(#pe3049e7615)" style="fill: none; stroke: #b0b0b0; stroke-opacity: 0.2; stroke-width: 0.8; stroke-linecap: square"/>
     </g>
     <g id="line2d_56">
      <g>
       <use xlink:href="#mcc21b49cc1" x="341.595429" y="192.788539" style="stroke: #000000; stroke-width: 0.8"/>
      </g>
     </g>
    </g>
    <g id="ytick_16">
     <g id="line2d_57">
      <path d="M 341.595429 129.121999 
L 561.024 129.121999 
" clip-path="url(#pe3049e7615)" style="fill: none; stroke: #b0b0b0; stroke-opacity: 0.2; stroke-width: 0.8; stroke-linecap: square"/>
     </g>
     <g id="line2d_58">
      <g>
       <use xlink:href="#mcc21b49cc1" x="341.595429" y="129.121999" style="stroke: #000000; stroke-width: 0.8"/>
      </g>
     </g>
    </g>
   </g>
   <g id="line2d_59">
    <path d="M 351.569455 253.655168 
L 354.622229 110.877245 
L 357.675004 108.36 
L 360.727779 155.333651 
L 363.780554 202.784076 
L 366.833329 235.529952 
L 369.886104 254.43401 
L 372.938878 263.462539 
L 375.991653 265.909621 
L 379.044428 264.217267 
L 382.097203 260.42009 
L 385.149978 256.530379 
L 388.202753 254.547852 
L 391.255528 256.058793 
L 394.308302 261.644652 
L 397.361077 270.597245 
L 400.413852 281.399675 
L 403.466627 292.432406 
L 406.519402 302.558124 
L 409.572177 311.220639 
L 412.624951 318.309165 
L 415.677726 323.986837 
L 418.730501 328.518218 
L 421.783276 332.216386 
L 424.836051 335.381398 
L 427.888826 338.279368 
L 430.941601 341.1264 
L 433.994375 344.073936 
L 437.04715 347.200833 
L 440.099925 350.515866 
L 443.1527 353.971538 
L 446.205475 357.481725 
L 449.25825 360.949337 
L 452.311024 364.286982 
L 455.363799 367.426858 
L 458.416574 370.332428 
L 461.469349 372.991857 
L 464.522124 375.412982 
L 467.574899 377.622584 
L 470.627674 379.653575 
L 473.680448 381.54152 
L 476.733223 383.32375 
L 479.785998 385.03279 
L 482.838773 386.696365 
L 485.891548 388.335876 
L 488.944323 389.965029 
L 491.997097 391.593141 
L 495.049872 393.222011 
L 498.102647 394.847941 
L 501.155422 396.467425 
L 504.208197 398.074793 
L 507.260972 399.654656 
L 510.313746 401.209423 
L 513.366521 402.731688 
L 516.419296 404.220985 
L 519.472071 405.680896 
L 522.524846 407.112926 
L 525.577621 408.530284 
L 528.630396 409.942508 
L 531.68317 411.364903 
L 534.735945 412.811288 
L 537.78872 414.30156 
L 540.841495 415.855132 
L 543.89427 417.489823 
L 546.947045 419.22705 
L 549.999819 421.088298 
L 551.049974 421.75938 
" clip-path="url(#pe3049e7615)" style="fill: none; stroke-dasharray: 11.1,4.8; stroke-dashoffset: 0; stroke: #000000; stroke-width: 3"/>
   </g>
   <g id="line2d_60">
    <path d="M 351.569455 400.314547 
L 354.622229 397.632531 
L 357.675004 377.930706 
L 360.727779 367.262701 
L 363.780554 368.427914 
L 366.833329 376.243083 
L 369.886104 386.777042 
L 372.938878 398.284412 
L 375.991653 410.086448 
L 379.044428 421.782477 
L 382.097203 432.923385 
L 385.149978 442.776011 
L 388.202753 450.429124 
L 391.255528 455.103148 
L 394.308302 456.581311 
L 397.361077 455.445694 
L 400.413852 452.760929 
L 403.466627 449.666778 
L 406.519402 446.956783 
L 409.572177 445.026044 
L 412.624951 443.959006 
L 415.677726 443.612283 
L 418.730501 443.783181 
L 421.783276 444.186341 
L 424.836051 444.541286 
L 427.888826 444.578523 
L 430.941601 444.080001 
L 433.994375 442.901613 
L 437.04715 440.991763 
L 440.099925 438.400302 
L 443.1527 435.269733 
L 446.205475 431.792549 
L 449.25825 428.183558 
L 452.311024 424.633232 
L 455.363799 421.291703 
L 458.416574 418.266095 
L 461.469349 415.601684 
L 464.522124 413.294616 
L 467.574899 411.329259 
L 470.627674 409.646349 
L 473.680448 408.183542 
L 476.733223 406.872599 
L 479.785998 405.642069 
L 482.838773 404.422945 
L 485.891548 403.17047 
L 488.944323 401.81983 
L 491.997097 400.357081 
L 495.049872 398.761589 
L 498.102647 397.012219 
L 501.155422 395.13372 
L 504.208197 393.143821 
L 507.260972 391.043188 
L 510.313746 388.886502 
L 513.366521 386.684959 
L 516.419296 384.477796 
L 519.472071 382.288833 
L 522.524846 380.135767 
L 525.577621 378.026331 
L 528.630396 375.98559 
L 531.68317 374.012597 
L 534.735945 372.109575 
L 537.78872 370.26267 
L 540.841495 368.48206 
L 543.89427 366.746796 
L 546.947045 365.055034 
L 549.999819 363.397008 
L 551.049974 362.832302 
" clip-path="url(#pe3049e7615)" style="fill: none; stroke-dasharray: 3,4.95; stroke-dashoffset: 0; stroke: #000000; stroke-width: 3"/>
   </g>
   <g id="line2d_61">
    <path d="M 351.569455 258.125598 
L 354.622229 137.502034 
L 357.675004 138.052128 
L 360.727779 181.638073 
L 363.780554 225.878885 
L 366.833329 256.683012 
L 369.886104 274.742602 
L 372.938878 283.759849 
L 375.991653 286.828207 
L 379.044428 286.187216 
L 382.097203 283.638752 
L 385.149978 280.892404 
L 388.202753 279.60209 
L 391.255528 281.10441 
L 394.308302 285.930259 
L 397.361077 293.576776 
L 400.413852 302.806317 
L 403.466627 312.269462 
L 406.519402 320.976307 
L 409.572177 328.434714 
L 412.624951 334.52795 
L 415.677726 339.384143 
L 418.730501 343.234263 
L 421.783276 346.344065 
L 424.836051 348.97062 
L 427.888826 351.351811 
L 430.941601 353.670919 
L 433.994375 356.066332 
L 437.04715 358.617463 
L 440.099925 361.341265 
L 443.1527 364.203084 
L 446.205475 367.132237 
L 449.25825 370.042779 
L 452.311024 372.853313 
L 455.363799 375.497926 
L 458.416574 377.938375 
L 461.469349 380.158573 
L 464.522124 382.165318 
L 467.574899 383.976667 
L 470.627674 385.625147 
L 473.680448 387.144324 
L 476.733223 388.570347 
L 479.785998 389.937296 
L 482.838773 391.275854 
L 485.891548 392.608679 
L 488.944323 393.955639 
L 491.997097 395.328381 
L 495.049872 396.732312 
L 498.102647 398.167489 
L 501.155422 399.630278 
L 504.208197 401.113861 
L 507.260972 402.606548 
L 510.313746 404.10069 
L 513.366521 405.587559 
L 516.419296 407.060262 
L 519.472071 408.514266 
L 522.524846 409.947252 
L 525.577621 411.362405 
L 528.630396 412.763609 
L 531.68317 414.157873 
L 534.735945 415.554704 
L 537.78872 416.96586 
L 540.841495 418.402111 
L 543.89427 419.87804 
L 546.947045 421.408611 
L 549.999819 423.002482 
L 551.049974 423.565915 
" clip-path="url(#pe3049e7615)" style="fill: none; stroke-dasharray: 11.1,4.8; stroke-dashoffset: 0; stroke: #e69f00; stroke-width: 3"/>
   </g>
   <g id="line2d_62">
    <path d="M 351.569455 406.919058 
L 354.622229 411.130453 
L 357.675004 391.898655 
L 360.727779 377.855217 
L 363.780554 375.308357 
L 366.833329 380.423707 
L 369.886104 389.172662 
L 372.938878 399.427983 
L 375.991653 410.204043 
L 379.044428 420.907469 
L 382.097203 430.927533 
L 385.149978 439.463143 
L 388.202753 445.609769 
L 391.255528 448.652943 
L 394.308302 448.498417 
L 397.361077 445.833962 
L 400.413852 441.853178 
L 403.466627 437.740281 
L 406.519402 434.311576 
L 409.572177 431.925677 
L 412.624951 430.634681 
L 415.677726 430.266635 
L 418.730501 430.556858 
L 421.783276 431.202064 
L 424.836051 431.897089 
L 427.888826 432.329564 
L 430.941601 432.272209 
L 433.994375 431.537597 
L 437.04715 430.029705 
L 440.099925 427.770971 
L 443.1527 424.867152 
L 446.205475 421.507716 
L 449.25825 417.905762 
L 452.311024 414.280222 
L 455.363799 410.811025 
L 458.416574 407.632188 
L 461.469349 404.818025 
L 464.522124 402.38395 
L 467.574899 400.337959 
L 470.627674 398.633109 
L 473.680448 397.215777 
L 476.733223 396.007361 
L 479.785998 394.942017 
L 482.838773 393.950179 
L 485.891548 392.966404 
L 488.944323 391.934885 
L 491.997097 390.811522 
L 495.049872 389.55971 
L 498.102647 388.16642 
L 501.155422 386.621885 
L 504.208197 384.936014 
L 507.260972 383.113661 
L 510.313746 381.183124 
L 513.366521 379.175381 
L 516.419296 377.115839 
L 519.472071 375.027919 
L 522.524846 372.937133 
L 525.577621 370.86472 
L 528.630396 368.823659 
L 531.68317 366.823828 
L 534.735945 364.86938 
L 537.78872 362.960511 
L 540.841495 361.093666 
L 543.89427 359.25865 
L 546.947045 357.454002 
L 549.999819 355.661294 
L 551.049974 355.04248 
" clip-path="url(#pe3049e7615)" style="fill: none; stroke-dasharray: 3,4.95; stroke-dashoffset: 0; stroke: #e69f00; stroke-width: 3"/>
   </g>
   <g id="line2d_63">
    <path d="M 351.569455 271.181366 
L 354.622229 190.547761 
L 357.675004 194.930592 
L 360.727779 229.171643 
L 363.780554 264.45729 
L 366.833329 289.645507 
L 369.886104 304.785512 
L 372.938878 312.678892 
L 375.991653 315.802447 
L 379.044428 315.955007 
L 382.097203 314.535918 
L 385.149978 312.810847 
L 388.202753 311.998793 
L 391.255528 313.120975 
L 394.308302 316.681578 
L 397.361077 322.442041 
L 400.413852 329.553935 
L 403.466627 336.982728 
L 406.519402 343.907395 
L 409.572177 349.876766 
L 412.624951 354.764057 
L 415.677726 358.646943 
L 418.730501 361.70351 
L 421.783276 364.147928 
L 424.836051 366.183361 
L 427.888826 368.001294 
L 430.941601 369.75922 
L 433.994375 371.575431 
L 437.04715 373.523296 
L 440.099925 375.626354 
L 443.1527 377.864055 
L 446.205475 380.180293 
L 449.25825 382.500263 
L 452.311024 384.746769 
L 455.363799 386.854012 
L 458.416574 388.775914 
L 461.469349 390.488247 
L 464.522124 391.987237 
L 467.574899 393.284801 
L 470.627674 394.403697 
L 473.680448 395.373461 
L 476.733223 396.226093 
L 479.785998 396.993901 
L 482.838773 397.707316 
L 485.891548 398.393518 
L 488.944323 399.075712 
L 491.997097 399.772501 
L 495.049872 400.49719 
L 498.102647 401.258809 
L 501.155422 402.06116 
L 504.208197 402.904073 
L 507.260972 403.784192 
L 510.313746 404.695563 
L 513.366521 405.630427 
L 516.419296 406.579615 
L 519.472071 407.53687 
L 522.524846 408.494546 
L 525.577621 409.446943 
L 528.630396 410.389456 
L 531.68317 411.319783 
L 534.735945 412.237081 
L 537.78872 413.141588 
L 540.841495 414.034324 
L 543.89427 414.917513 
L 546.947045 415.791864 
L 549.999819 416.658794 
L 551.049974 416.954992 
" clip-path="url(#pe3049e7615)" style="fill: none; stroke-dasharray: 11.1,4.8; stroke-dashoffset: 0; stroke: #56b4e9; stroke-width: 3"/>
   </g>
   <g id="line2d_64">
    <path d="M 351.569455 410.09464 
L 354.622229 413.752942 
L 357.675004 393.129374 
L 360.727779 375.329856 
L 363.780554 369.019788 
L 366.833329 371.714294 
L 369.886104 379.196166 
L 372.938878 388.839393 
L 375.991653 399.292003 
L 379.044428 409.748761 
L 382.097203 419.486431 
L 385.149978 427.654962 
L 388.202753 433.304975 
L 391.255528 435.667473 
L 394.308302 434.571629 
L 397.361077 430.677422 
L 400.413852 425.257412 
L 403.466627 419.663047 
L 406.519402 414.879879 
L 409.572177 411.39277 
L 412.624951 409.281474 
L 415.677726 408.382315 
L 418.730501 408.413088 
L 421.783276 409.035755 
L 424.836051 409.93925 
L 427.888826 410.796264 
L 430.941601 411.320821 
L 433.994375 411.2797 
L 437.04715 410.516835 
L 440.099925 408.970435 
L 443.1527 406.681889 
L 446.205475 403.781955 
L 449.25825 400.46388 
L 452.311024 396.944856 
L 455.363799 393.431537 
L 458.416574 390.092587 
L 461.469349 387.046583 
L 464.522124 384.360258 
L 467.574899 382.054472 
L 470.627674 380.113256 
L 473.680448 378.494749 
L 476.733223 377.139327 
L 479.785998 375.977364 
L 482.838773 374.936418 
L 485.891548 373.943615 
L 488.944323 372.932133 
L 491.997097 371.842604 
L 495.049872 370.626282 
L 498.102647 369.247219 
L 501.155422 367.681927 
L 504.208197 365.920548 
L 507.260972 363.965743 
L 510.313746 361.829985 
L 513.366521 359.534638 
L 516.419296 357.096275 
L 519.472071 354.560606 
L 522.524846 351.9487 
L 525.577621 349.286892 
L 528.630396 346.596838 
L 531.68317 343.896447 
L 534.735945 341.196961 
L 537.78872 338.504985 
L 540.841495 335.82115 
L 543.89427 333.143294 
L 546.947045 330.463873 
L 549.999819 327.776382 
L 551.049974 326.847663 
" clip-path="url(#pe3049e7615)" style="fill: none; stroke-dasharray: 3,4.95; stroke-dashoffset: 0; stroke: #56b4e9; stroke-width: 3"/>
   </g>
   <g id="line2d_65">
    <path d="M 351.569455 295.709592 
L 354.622229 254.353859 
L 357.675004 259.619113 
L 360.727779 282.645077 
L 363.780554 307.431983 
L 366.833329 325.910362 
L 369.886104 337.402808 
L 372.938878 343.683618 
L 375.991653 346.527819 
L 379.044428 347.257206 
L 382.097203 346.860464 
L 385.149978 346.172433 
L 388.202753 345.961639 
L 391.255528 346.884436 
L 394.308302 349.322617 
L 397.361077 353.220998 
L 400.413852 358.101435 
L 403.466627 363.275256 
L 406.519402 368.12875 
L 409.572177 372.285754 
L 412.624951 375.611017 
L 415.677726 378.138725 
L 418.730501 379.989756 
L 421.783276 381.319934 
L 424.836051 382.285446 
L 427.888826 383.031618 
L 430.941601 383.683837 
L 433.994375 384.345462 
L 437.04715 385.091942 
L 440.099925 385.969907 
L 443.1527 386.98975 
L 446.205475 388.132189 
L 449.25825 389.353724 
L 452.311024 390.596468 
L 455.363799 391.797397 
L 458.416574 392.903296 
L 461.469349 393.87121 
L 464.522124 394.676332 
L 467.574899 395.308068 
L 470.627674 395.768259 
L 473.680448 396.067296 
L 476.733223 396.224621 
L 479.785998 396.26171 
L 482.838773 396.202062 
L 485.891548 396.071982 
L 488.944323 395.896014 
L 491.997097 395.698794 
L 495.049872 395.504039 
L 498.102647 395.332144 
L 501.155422 395.201996 
L 504.208197 395.131273 
L 507.260972 395.132395 
L 510.313746 395.21556 
L 513.366521 395.387141 
L 516.419296 395.652328 
L 519.472071 396.011 
L 522.524846 396.462105 
L 525.577621 397.002487 
L 528.630396 397.627483 
L 531.68317 398.333852 
L 534.735945 399.115041 
L 537.78872 399.967169 
L 540.841495 400.885795 
L 543.89427 401.867103 
L 546.947045 402.909665 
L 549.999819 404.009385 
L 551.049974 404.400719 
" clip-path="url(#pe3049e7615)" style="fill: none; stroke-dasharray: 11.1,4.8; stroke-dashoffset: 0; stroke: #009e73; stroke-width: 3"/>
   </g>
   <g id="line2d_66">
    <path d="M 351.569455 404.688529 
L 354.622229 404.567927 
L 357.675004 383.380548 
L 360.727779 361.374684 
L 363.780554 349.688726 
L 366.833329 348.417663 
L 369.886104 353.595274 
L 372.938878 362.022513 
L 375.991653 371.869301 
L 379.044428 382.075503 
L 382.097203 391.8396 
L 385.149978 400.331745 
L 388.202753 406.620769 
L 391.255528 409.836041 
L 394.308302 409.519602 
L 397.361077 405.963014 
L 400.413852 400.209674 
L 403.466627 393.649505 
L 406.519402 387.50427 
L 409.572177 382.532008 
L 412.624951 379.019005 
L 415.677726 376.919818 
L 418.730501 376.007128 
L 421.783276 375.975546 
L 424.836051 376.499018 
L 427.888826 377.252725 
L 430.941601 377.93341 
L 433.994375 378.268139 
L 437.04715 378.035584 
L 440.099925 377.086323 
L 443.1527 375.358192 
L 446.205475 372.884901 
L 449.25825 369.786893 
L 452.311024 366.245648 
L 455.363799 362.467822 
L 458.416574 358.657634 
L 461.469349 354.984857 
L 464.522124 351.575836 
L 467.574899 348.507075 
L 470.627674 345.811602 
L 473.680448 343.484568 
L 476.733223 341.494279 
L 479.785998 339.790529 
L 482.838773 338.309475 
L 485.891548 336.98292 
L 488.944323 335.739928 
L 491.997097 334.503194 
L 495.049872 333.221697 
L 498.102647 331.833138 
L 501.155422 330.289789 
L 504.208197 328.556959 
L 507.260972 326.609396 
L 510.313746 324.43595 
L 513.366521 322.034808 
L 516.419296 319.41722 
L 519.472071 316.600599 
L 522.524846 313.60643 
L 525.577621 310.46391 
L 528.630396 307.19924 
L 531.68317 303.841605 
L 534.735945 300.414052 
L 537.78872 296.938557 
L 540.841495 293.435804 
L 543.89427 289.918735 
L 546.947045 286.401209 
L 549.999819 282.895125 
L 551.049974 281.694403 
" clip-path="url(#pe3049e7615)" style="fill: none; stroke-dasharray: 3,4.95; stroke-dashoffset: 0; stroke: #009e73; stroke-width: 3"/>
   </g>
   <g id="line2d_67">
    <path d="M 341.595429 383.78816 
L 561.024 383.78816 
" clip-path="url(#pe3049e7615)" style="fill: none; stroke: #000000; stroke-opacity: 0.25; stroke-width: 1.5; stroke-linecap: square"/>
   </g>
   <g id="patch_12">
    <path d="M 341.595429 630 
L 341.595429 83.52 
" style="fill: none; stroke: #000000; stroke-width: 0.8; stroke-linejoin: miter; stroke-linecap: square"/>
   </g>
   <g id="patch_13">
    <path d="M 561.024 630 
L 561.024 83.52 
" style="fill: none; stroke: #000000; stroke-width: 0.8; stroke-linejoin: miter; stroke-linecap: square"/>
   </g>
   <g id="patch_14">
    <path d="M 341.595429 630 
L 561.024 630 
" style="fill: none; stroke: #000000; stroke-width: 0.8; stroke-linejoin: miter; stroke-linecap: square"/>
   </g>
   <g id="patch_15">
    <path d="M 341.595429 83.52 
L 561.024 83.52 
" style="fill: none; stroke: #000000; stroke-width: 0.8; stroke-linejoin: miter; stroke-linecap: square"/>
   </g>
   <g id="text_27">
    <!-- 40MeV -->
    <g transform="translate(362.105696 134.008625) scale(0.2 -0.2)">
     <use xlink:href="#DejaVuSans-34"/>
     <use xlink:href="#DejaVuSans-30" transform="translate(63.623047 0)"/>
     <use xlink:href="#DejaVuSans-4d" transform="translate(127.246094 0)"/>
     <use xlink:href="#DejaVuSans-65" transform="translate(213.525391 0)"/>
     <use xlink:href="#DejaVuSans-56" transform="translate(275.048828 0)"/>
    </g>
   </g>
   <g id="legend_2">
    <g id="line2d_68">
     <path d="M 456.480562 107.097187 
L 474.480562 107.097187 
L 492.480562 107.097187 
" style="fill: none; stroke: #000000; stroke-width: 2; stroke-linecap: square"/>
    </g>
    <g id="text_28">
     <!-- n=0 -->
     <g transform="translate(506.880562 113.397187) scale(0.18 -0.18)">
      <defs>
       <path id="DejaVuSans-6e" d="M 3513 2113 
L 3513 0 
L 2938 0 
L 2938 2094 
Q 2938 2591 2744 2837 
Q 2550 3084 2163 3084 
Q 1697 3084 1428 2787 
Q 1159 2491 1159 1978 
L 1159 0 
L 581 0 
L 581 3500 
L 1159 3500 
L 1159 2956 
Q 1366 3272 1645 3428 
Q 1925 3584 2291 3584 
Q 2894 3584 3203 3211 
Q 3513 2838 3513 2113 
z
" transform="scale(0.015625)"/>
       <path id="DejaVuSans-3d" d="M 678 2906 
L 4684 2906 
L 4684 2381 
L 678 2381 
L 678 2906 
z
M 678 1631 
L 4684 1631 
L 4684 1100 
L 678 1100 
L 678 1631 
z
" transform="scale(0.015625)"/>
      </defs>
      <use xlink:href="#DejaVuSans-6e"/>
      <use xlink:href="#DejaVuSans-3d" transform="translate(63.378906 0)"/>
      <use xlink:href="#DejaVuSans-30" transform="translate(147.167969 0)"/>
     </g>
    </g>
    <g id="line2d_69">
     <path d="M 456.480562 133.517812 
L 474.480562 133.517812 
L 492.480562 133.517812 
" style="fill: none; stroke: #e69f00; stroke-width: 2; stroke-linecap: square"/>
    </g>
    <g id="text_29">
     <!-- n=1 -->
     <g transform="translate(506.880562 139.817812) scale(0.18 -0.18)">
      <use xlink:href="#DejaVuSans-6e"/>
      <use xlink:href="#DejaVuSans-3d" transform="translate(63.378906 0)"/>
      <use xlink:href="#DejaVuSans-31" transform="translate(147.167969 0)"/>
     </g>
    </g>
    <g id="line2d_70">
     <path d="M 456.480562 159.938437 
L 474.480562 159.938437 
L 492.480562 159.938437 
" style="fill: none; stroke: #56b4e9; stroke-width: 2; stroke-linecap: square"/>
    </g>
    <g id="text_30">
     <!-- n=2 -->
     <g transform="translate(506.880562 166.238437) scale(0.18 -0.18)">
      <use xlink:href="#DejaVuSans-6e"/>
      <use xlink:href="#DejaVuSans-3d" transform="translate(63.378906 0)"/>
      <use xlink:href="#DejaVuSans-32" transform="translate(147.167969 0)"/>
     </g>
    </g>
    <g id="line2d_71">
     <path d="M 456.480562 186.359062 
L 474.480562 186.359062 
L 492.480562 186.359062 
" style="fill: none; stroke: #009e73; stroke-width: 2; stroke-linecap: square"/>
    </g>
    <g id="text_31">
     <!-- n=3 -->
     <g transform="translate(506.880562 192.659063) scale(0.18 -0.18)">
      <use xlink:href="#DejaVuSans-6e"/>
      <use xlink:href="#DejaVuSans-3d" transform="translate(63.378906 0)"/>
      <use xlink:href="#DejaVuSans-33" transform="translate(147.167969 0)"/>
     </g>
    </g>
   </g>
  </g>
 </g>
 <defs>
  <clipPath id="pe76f52dc55">
   <rect x="114.048" y="83.52" width="219.428571" height="546.48"/>
  </clipPath>
  <clipPath id="pe3049e7615">
   <rect x="341.595429" y="83.52" width="219.428571" height="546.48"/>
  </clipPath>
 </defs>
</svg>
