<?xml version="1.0" encoding="utf-8" standalone="no"?>
<!DOCTYPE svg PUBLIC "-//W3C//DTD SVG 1.1//EN"
  "http://www.w3.org/Graphics/SVG/1.1/DTD/svg11.dtd">
<svg xmlns:xlink="http://www.w3.org/1999/xlink" width="576pt" height="720pt" viewBox="0 0 576 720" xmlns="http://www.w3.org/2000/svg" version="1.1">
 <metadata>
  <rdf:RDF xmlns:dc="http://purl.org/dc/elements/1.1/" xmlns:cc="http://creativecommons.org/ns#" xmlns:rdf="http://www.w3.org/1999/02/22-rdf-syntax-ns#">
   <cc:Work>
    <dc:type rdf:resource="http://purl.org/dc/dcmitype/StillImage"/>
    <dc:date>2026-03-08T14:57:05.651454</dc:date>
    <dc:format>image/svg+xml</dc:format>
    <dc:creator>
     <cc:Agent>
      <dc:title>Matplotlib v3.10.8, https://matplotlib.org/</dc:title>
     </cc:Agent>
    </dc:creator>
   </cc:Work>
  </rdf:RDF>
 </metadata>
 <defs>
  <style type="text/css">*{stroke-linejoin: round; stroke-linecap: butt}</style>
 </defs>
 <g id="figure_1">
  <g id="patch_1">
   <path d="M 0 720 
L 576 720 
L 576 0 
L 0 0 
L 0 720 
z
" style="fill: none"/>
  </g>
  <g id="axes_1">
   <g id="patch_2">
    <path d="M 114.048 630 
L 333.476571 630 
L 333.476571 83.52 
L 114.048 83.52 
L 114.048 630 
z
" style="fill: none"/>
   </g>
   <g id="axes_2">
    <g id="patch_3">
     <path d="M 114.048 83.52 
L 333.476571 83.52 
L 333.476571 83.52 
L 114.048 83.52 
L 114.048 83.52 
z
" style="fill: none"/>
    </g>
    <g id="matplotlib.axis_1">
     <g id="xtick_1">
      <g id="line2d_1">
       <defs>
        <path id="m1d1e92c68c" d="M 0 0 
L 0 -3.5 
" style="stroke: #000000; stroke-width: 0.8"/>
       </defs>
       <g>
        <use xlink:href="#m1d1e92c68c" x="292.896768" y="83.52" style="stroke: #000000; stroke-width: 0.8"/>
       </g>
      </g>
      <g id="text_1">
       <!-- 10 -->
       <g transform="translate(275.081768 70.696875) scale(0.28 -0.28)">
        <defs>
         <path id="DejaVuSans-31" d="M 794 531 
L 1825 531 
L 1825 4091 
L 703 3866 
L 703 4441 
L 1819 4666 
L 2450 4666 
L 2450 531 
L 3481 531 
L 3481 0 
L 794 0 
L 794 531 
z
" transform="scale(0.015625)"/>
         <path id="DejaVuSans-30" d="M 2034 4250 
Q 1547 4250 1301 3770 
Q 1056 3291 1056 2328 
Q 1056 1369 1301 889 
Q 1547 409 2034 409 
Q 2525 409 2770 889 
Q 3016 1369 3016 2328 
Q 3016 3291 2770 3770 
Q 2525 4250 2034 4250 
z
M 2034 4750 
Q 2819 4750 3233 4129 
Q 3647 3509 3647 2328 
Q 3647 1150 3233 529 
Q 2819 -91 2034 -91 
Q 1250 -91 836 529 
Q 422 1150 422 2328 
Q 422 3509 836 4129 
Q 1250 4750 2034 4750 
z
" transform="scale(0.015625)"/>
        </defs>
        <use xlink:href="#DejaVuSans-31"/>
        <use xlink:href="#DejaVuSans-30" transform="translate(63.623047 0)"/>
       </g>
      </g>
     </g>
     <g id="xtick_2">
      <g id="line2d_2">
       <g>
        <use xlink:href="#m1d1e92c68c" x="231.841271" y="83.52" style="stroke: #000000; stroke-width: 0.8"/>
       </g>
      </g>
      <g id="text_2">
       <!-- 20 -->
       <g transform="translate(214.026271 70.696875) scale(0.28 -0.28)">
        <defs>
         <path id="DejaVuSans-32" d="M 1228 531 
L 3431 531 
L 3431 0 
L 469 0 
L 469 531 
Q 828 903 1448 1529 
Q 2069 2156 2228 2338 
Q 2531 2678 2651 2914 
Q 2772 3150 2772 3378 
Q 2772 3750 2511 3984 
Q 2250 4219 1831 4219 
Q 1534 4219 1204 4116 
Q 875 4013 500 3803 
L 500 4441 
Q 881 4594 1212 4672 
Q 1544 4750 1819 4750 
Q 2544 4750 2975 4387 
Q 3406 4025 3406 3419 
Q 3406 3131 3298 2873 
Q 3191 2616 2906 2266 
Q 2828 2175 2409 1742 
Q 1991 1309 1228 531 
z
" transform="scale(0.015625)"/>
        </defs>
        <use xlink:href="#DejaVuSans-32"/>
        <use xlink:href="#DejaVuSans-30" transform="translate(63.623047 0)"/>
       </g>
      </g>
     </g>
     <g id="xtick_3">
      <g id="line2d_3">
       <g>
        <use xlink:href="#m1d1e92c68c" x="170.785774" y="83.52" style="stroke: #000000; stroke-width: 0.8"/>
       </g>
      </g>
      <g id="text_3">
       <!-- 30 -->
       <g transform="translate(152.970774 70.696875) scale(0.28 -0.28)">
        <defs>
         <path id="DejaVuSans-33" d="M 2597 2516 
Q 3050 2419 3304 2112 
Q 3559 1806 3559 1356 
Q 3559 666 3084 287 
Q 2609 -91 1734 -91 
Q 1441 -91 1130 -33 
Q 819 25 488 141 
L 488 750 
Q 750 597 1062 519 
Q 1375 441 1716 441 
Q 2309 441 2620 675 
Q 2931 909 2931 1356 
Q 2931 1769 2642 2001 
Q 2353 2234 1838 2234 
L 1294 2234 
L 1294 2753 
L 1863 2753 
Q 2328 2753 2575 2939 
Q 2822 3125 2822 3475 
Q 2822 3834 2567 4026 
Q 2313 4219 1838 4219 
Q 1578 4219 1281 4162 
Q 984 4106 628 3988 
L 628 4550 
Q 988 4650 1302 4700 
Q 1616 4750 1894 4750 
Q 2613 4750 3031 4423 
Q 3450 4097 3450 3541 
Q 3450 3153 3228 2886 
Q 3006 2619 2597 2516 
z
" transform="scale(0.015625)"/>
        </defs>
        <use xlink:href="#DejaVuSans-33"/>
        <use xlink:href="#DejaVuSans-30" transform="translate(63.623047 0)"/>
       </g>
      </g>
     </g>
     <g id="text_4">
      <!-- $E_{CoM}$ (MeV) -->
      <g transform="translate(120.212286 45.42125) scale(0.38 -0.38)">
       <defs>
        <path id="DejaVuSans-Oblique-45" d="M 1081 4666 
L 4031 4666 
L 3928 4134 
L 1606 4134 
L 1338 2753 
L 3566 2753 
L 3463 2222 
L 1234 2222 
L 909 531 
L 3284 531 
L 3181 0 
L 172 0 
L 1081 4666 
z
" transform="scale(0.015625)"/>
        <path id="DejaVuSans-Oblique-43" d="M 4447 4306 
L 4319 3641 
Q 4019 3944 3683 4091 
Q 3347 4238 2956 4238 
Q 2422 4238 2017 3981 
Q 1613 3725 1319 3200 
Q 1131 2863 1032 2486 
Q 934 2109 934 1728 
Q 934 1091 1264 756 
Q 1594 422 2222 422 
Q 2656 422 3056 561 
Q 3456 700 3834 978 
L 3688 231 
Q 3316 72 2936 -9 
Q 2556 -91 2175 -91 
Q 1278 -91 773 396 
Q 269 884 269 1753 
Q 269 2309 461 2846 
Q 653 3384 1013 3828 
Q 1394 4300 1883 4525 
Q 2372 4750 3022 4750 
Q 3422 4750 3780 4639 
Q 4138 4528 4447 4306 
z
" transform="scale(0.015625)"/>
        <path id="DejaVuSans-Oblique-6f" d="M 1625 -91 
Q 1009 -91 651 289 
Q 294 669 294 1325 
Q 294 1706 417 2101 
Q 541 2497 738 2766 
Q 1047 3184 1428 3384 
Q 1809 3584 2291 3584 
Q 2888 3584 3255 3212 
Q 3622 2841 3622 2241 
Q 3622 1825 3500 1412 
Q 3378 1000 3181 728 
Q 2875 309 2494 109 
Q 2113 -91 1625 -91 
z
M 891 1344 
Q 891 869 1089 633 
Q 1288 397 1691 397 
Q 2269 397 2648 901 
Q 3028 1406 3028 2181 
Q 3028 2634 2825 2865 
Q 2622 3097 2228 3097 
Q 1903 3097 1650 2945 
Q 1397 2794 1197 2484 
Q 1050 2253 970 1956 
Q 891 1659 891 1344 
z
" transform="scale(0.015625)"/>
        <path id="DejaVuSans-Oblique-4d" d="M 1081 4666 
L 2028 4666 
L 2572 1522 
L 4378 4666 
L 5350 4666 
L 4441 0 
L 3828 0 
L 4622 4091 
L 2791 897 
L 2175 897 
L 1581 4103 
L 788 0 
L 172 0 
L 1081 4666 
z
" transform="scale(0.015625)"/>
        <path id="DejaVuSans-20" transform="scale(0.015625)"/>
        <path id="DejaVuSans-28" d="M 1984 4856 
Q 1566 4138 1362 3434 
Q 1159 2731 1159 2009 
Q 1159 1288 1364 580 
Q 1569 -128 1984 -844 
L 1484 -844 
Q 1016 -109 783 600 
Q 550 1309 550 2009 
Q 550 2706 781 3412 
Q 1013 4119 1484 4856 
L 1984 4856 
z
" transform="scale(0.015625)"/>
        <path id="DejaVuSans-4d" d="M 628 4666 
L 1569 4666 
L 2759 1491 
L 3956 4666 
L 4897 4666 
L 4897 0 
L 4281 0 
L 4281 4097 
L 3078 897 
L 2444 897 
L 1241 4097 
L 1241 0 
L 628 0 
L 628 4666 
z
" transform="scale(0.015625)"/>
        <path id="DejaVuSans-65" d="M 3597 1894 
L 3597 1613 
L 953 1613 
Q 991 1019 1311 708 
Q 1631 397 2203 397 
Q 2534 397 2845 478 
Q 3156 559 3463 722 
L 3463 178 
Q 3153 47 2828 -22 
Q 2503 -91 2169 -91 
Q 1331 -91 842 396 
Q 353 884 353 1716 
Q 353 2575 817 3079 
Q 1281 3584 2069 3584 
Q 2775 3584 3186 3129 
Q 3597 2675 3597 1894 
z
M 3022 2063 
Q 3016 2534 2758 2815 
Q 2500 3097 2075 3097 
Q 1594 3097 1305 2825 
Q 1016 2553 972 2059 
L 3022 2063 
z
" transform="scale(0.015625)"/>
        <path id="DejaVuSans-56" d="M 1831 0 
L 50 4666 
L 709 4666 
L 2188 738 
L 3669 4666 
L 4325 4666 
L 2547 0 
L 1831 0 
z
" transform="scale(0.015625)"/>
        <path id="DejaVuSans-29" d="M 513 4856 
L 1013 4856 
Q 1481 4119 1714 3412 
Q 1947 2706 1947 2009 
Q 1947 1309 1714 600 
Q 1481 -109 1013 -844 
L 513 -844 
Q 928 -128 1133 580 
Q 1338 1288 1338 2009 
Q 1338 2731 1133 3434 
Q 928 4138 513 4856 
z
" transform="scale(0.015625)"/>
       </defs>
       <use xlink:href="#DejaVuSans-Oblique-45" transform="translate(0 0.125)"/>
       <use xlink:href="#DejaVuSans-Oblique-43" transform="translate(63.183594 -16.28125) scale(0.7)"/>
       <use xlink:href="#DejaVuSans-Oblique-6f" transform="translate(112.060547 -16.28125) scale(0.7)"/>
       <use xlink:href="#DejaVuSans-Oblique-4d" transform="translate(154.887695 -16.28125) scale(0.7)"/>
       <use xlink:href="#DejaVuSans-20" transform="translate(218.017578 0.125)"/>
       <use xlink:href="#DejaVuSans-28" transform="translate(249.804688 0.125)"/>
       <use xlink:href="#DejaVuSans-4d" transform="translate(288.818359 0.125)"/>
       <use xlink:href="#DejaVuSans-65" transform="translate(375.097656 0.125)"/>
       <use xlink:href="#DejaVuSans-56" transform="translate(436.621094 0.125)"/>
       <use xlink:href="#DejaVuSans-29" transform="translate(505.029297 0.125)"/>
      </g>
     </g>
    </g>
    <g id="matplotlib.axis_2"/>
    <g id="patch_4">
     <path d="M 333.476571 83.52 
L 114.048 83.52 
" style="fill: none; stroke: #000000; stroke-width: 0.8; stroke-linejoin: miter; stroke-linecap: square"/>
    </g>
   </g>
   <g id="matplotlib.axis_3">
    <g id="xtick_4">
     <g id="line2d_4">
      <path d="M 120.969251 630 
L 120.969251 83.52 
" clip-path="url(#pd8fb24d7ea)" style="fill: none; stroke: #b0b0b0; stroke-opacity: 0.2; stroke-width: 0.8; stroke-linecap: square"/>
     </g>
     <g id="line2d_5">
      <defs>
       <path id="m361e074d1e" d="M 0 0 
L 0 3.5 
" style="stroke: #000000; stroke-width: 0.8"/>
      </defs>
      <g>
       <use xlink:href="#m361e074d1e" x="120.969251" y="630" style="stroke: #000000; stroke-width: 0.8"/>
      </g>
     </g>
     <g id="text_5">
      <!-- 0 -->
      <g transform="translate(112.061751 658.275625) scale(0.28 -0.28)">
       <use xlink:href="#DejaVuSans-30"/>
      </g>
     </g>
    </g>
    <g id="xtick_5">
     <g id="line2d_6">
      <path d="M 243.080245 630 
L 243.080245 83.52 
" clip-path="url(#pd8fb24d7ea)" style="fill: none; stroke: #b0b0b0; stroke-opacity: 0.2; stroke-width: 0.8; stroke-linecap: square"/>
     </g>
     <g id="line2d_7">
      <g>
       <use xlink:href="#m361e074d1e" x="243.080245" y="630" style="stroke: #000000; stroke-width: 0.8"/>
      </g>
     </g>
     <g id="text_6">
      <!-- 20 -->
      <g transform="translate(225.265245 658.275625) scale(0.28 -0.28)">
       <use xlink:href="#DejaVuSans-32"/>
       <use xlink:href="#DejaVuSans-30" transform="translate(63.623047 0)"/>
      </g>
     </g>
    </g>
    <g id="text_7">
     <!-- $S_{2n}$ (MeV) -->
     <g transform="translate(132.182286 696.972813) scale(0.38 -0.38)">
      <defs>
       <path id="DejaVuSans-Oblique-53" d="M 3859 4513 
L 3738 3897 
Q 3422 4066 3111 4152 
Q 2800 4238 2509 4238 
Q 1944 4238 1609 3991 
Q 1275 3744 1275 3334 
Q 1275 3109 1398 2989 
Q 1522 2869 2034 2731 
L 2413 2638 
Q 3053 2472 3303 2217 
Q 3553 1963 3553 1503 
Q 3553 797 2998 353 
Q 2444 -91 1538 -91 
Q 1166 -91 791 -17 
Q 416 56 38 206 
L 166 856 
Q 513 641 861 531 
Q 1209 422 1556 422 
Q 2147 422 2503 684 
Q 2859 947 2859 1369 
Q 2859 1650 2717 1795 
Q 2575 1941 2106 2059 
L 1728 2156 
Q 1081 2325 845 2545 
Q 609 2766 609 3163 
Q 609 3859 1145 4304 
Q 1681 4750 2541 4750 
Q 2875 4750 3203 4690 
Q 3531 4631 3859 4513 
z
" transform="scale(0.015625)"/>
       <path id="DejaVuSans-Oblique-6e" d="M 3566 2113 
L 3156 0 
L 2578 0 
L 2988 2091 
Q 3016 2238 3031 2350 
Q 3047 2463 3047 2528 
Q 3047 2791 2881 2937 
Q 2716 3084 2419 3084 
Q 1956 3084 1622 2776 
Q 1288 2469 1184 1941 
L 800 0 
L 225 0 
L 903 3500 
L 1478 3500 
L 1363 2950 
Q 1603 3253 1940 3418 
Q 2278 3584 2650 3584 
Q 3113 3584 3367 3334 
Q 3622 3084 3622 2631 
Q 3622 2519 3608 2391 
Q 3594 2263 3566 2113 
z
" transform="scale(0.015625)"/>
      </defs>
      <use xlink:href="#DejaVuSans-Oblique-53" transform="translate(0 0.125)"/>
      <use xlink:href="#DejaVuSans-32" transform="translate(63.476562 -16.28125) scale(0.7)"/>
      <use xlink:href="#DejaVuSans-Oblique-6e" transform="translate(108.012695 -16.28125) scale(0.7)"/>
      <use xlink:href="#DejaVuSans-20" transform="translate(155.112305 0.125)"/>
      <use xlink:href="#DejaVuSans-28" transform="translate(186.899414 0.125)"/>
      <use xlink:href="#DejaVuSans-4d" transform="translate(225.913086 0.125)"/>
      <use xlink:href="#DejaVuSans-65" transform="translate(312.192383 0.125)"/>
      <use xlink:href="#DejaVuSans-56" transform="translate(373.71582 0.125)"/>
      <use xlink:href="#DejaVuSans-29" transform="translate(442.124023 0.125)"/>
     </g>
    </g>
   </g>
   <g id="matplotlib.axis_4">
    <g id="ytick_1">
     <g id="line2d_8">
      <path d="M 114.048 574.78778 
L 333.476571 574.78778 
" clip-path="url(#pd8fb24d7ea)" style="fill: none; stroke: #b0b0b0; stroke-opacity: 0.2; stroke-width: 0.8; stroke-linecap: square"/>
     </g>
     <g id="line2d_9">
      <defs>
       <path id="m93503abdbc" d="M 0 0 
L -3.5 0 
" style="stroke: #000000; stroke-width: 0.8"/>
      </defs>
      <g>
       <use xlink:href="#m93503abdbc" x="114.048" y="574.78778" style="stroke: #000000; stroke-width: 0.8"/>
      </g>
     </g>
     <g id="text_8">
      <!-- 0.85 -->
      <g transform="translate(44.70425 585.425593) scale(0.28 -0.28)">
       <defs>
        <path id="DejaVuSans-2e" d="M 684 794 
L 1344 794 
L 1344 0 
L 684 0 
L 684 794 
z
" transform="scale(0.015625)"/>
        <path id="DejaVuSans-38" d="M 2034 2216 
Q 1584 2216 1326 1975 
Q 1069 1734 1069 1313 
Q 1069 891 1326 650 
Q 1584 409 2034 409 
Q 2484 409 2743 651 
Q 3003 894 3003 1313 
Q 3003 1734 2745 1975 
Q 2488 2216 2034 2216 
z
M 1403 2484 
Q 997 2584 770 2862 
Q 544 3141 544 3541 
Q 544 4100 942 4425 
Q 1341 4750 2034 4750 
Q 2731 4750 3128 4425 
Q 3525 4100 3525 3541 
Q 3525 3141 3298 2862 
Q 3072 2584 2669 2484 
Q 3125 2378 3379 2068 
Q 3634 1759 3634 1313 
Q 3634 634 3220 271 
Q 2806 -91 2034 -91 
Q 1263 -91 848 271 
Q 434 634 434 1313 
Q 434 1759 690 2068 
Q 947 2378 1403 2484 
z
M 1172 3481 
Q 1172 3119 1398 2916 
Q 1625 2713 2034 2713 
Q 2441 2713 2670 2916 
Q 2900 3119 2900 3481 
Q 2900 3844 2670 4047 
Q 2441 4250 2034 4250 
Q 1625 4250 1398 4047 
Q 1172 3844 1172 3481 
z
" transform="scale(0.015625)"/>
        <path id="DejaVuSans-35" d="M 691 4666 
L 3169 4666 
L 3169 4134 
L 1269 4134 
L 1269 2991 
Q 1406 3038 1543 3061 
Q 1681 3084 1819 3084 
Q 2600 3084 3056 2656 
Q 3513 2228 3513 1497 
Q 3513 744 3044 326 
Q 2575 -91 1722 -91 
Q 1428 -91 1123 -41 
Q 819 9 494 109 
L 494 744 
Q 775 591 1075 516 
Q 1375 441 1709 441 
Q 2250 441 2565 725 
Q 2881 1009 2881 1497 
Q 2881 1984 2565 2268 
Q 2250 2553 1709 2553 
Q 1456 2553 1204 2497 
Q 953 2441 691 2322 
L 691 4666 
z
" transform="scale(0.015625)"/>
       </defs>
       <use xlink:href="#DejaVuSans-30"/>
       <use xlink:href="#DejaVuSans-2e" transform="translate(63.623047 0)"/>
       <use xlink:href="#DejaVuSans-38" transform="translate(95.410156 0)"/>
       <use xlink:href="#DejaVuSans-35" transform="translate(159.033203 0)"/>
      </g>
     </g>
    </g>
    <g id="ytick_2">
     <g id="line2d_10">
      <path d="M 114.048 511.12124 
L 333.476571 511.12124 
" clip-path="url(#pd8fb24d7ea)" style="fill: none; stroke: #b0b0b0; stroke-opacity: 0.2; stroke-width: 0.8; stroke-linecap: square"/>
     </g>
     <g id="line2d_11">
      <g>
       <use xlink:href="#m93503abdbc" x="114.048" y="511.12124" style="stroke: #000000; stroke-width: 0.8"/>
      </g>
     </g>
     <g id="text_9">
      <!-- 0.90 -->
      <g transform="translate(44.70425 521.759053) scale(0.28 -0.28)">
       <defs>
        <path id="DejaVuSans-39" d="M 703 97 
L 703 672 
Q 941 559 1184 500 
Q 1428 441 1663 441 
Q 2288 441 2617 861 
Q 2947 1281 2994 2138 
Q 2813 1869 2534 1725 
Q 2256 1581 1919 1581 
Q 1219 1581 811 2004 
Q 403 2428 403 3163 
Q 403 3881 828 4315 
Q 1253 4750 1959 4750 
Q 2769 4750 3195 4129 
Q 3622 3509 3622 2328 
Q 3622 1225 3098 567 
Q 2575 -91 1691 -91 
Q 1453 -91 1209 -44 
Q 966 3 703 97 
z
M 1959 2075 
Q 2384 2075 2632 2365 
Q 2881 2656 2881 3163 
Q 2881 3666 2632 3958 
Q 2384 4250 1959 4250 
Q 1534 4250 1286 3958 
Q 1038 3666 1038 3163 
Q 1038 2656 1286 2365 
Q 1534 2075 1959 2075 
z
" transform="scale(0.015625)"/>
       </defs>
       <use xlink:href="#DejaVuSans-30"/>
       <use xlink:href="#DejaVuSans-2e" transform="translate(63.623047 0)"/>
       <use xlink:href="#DejaVuSans-39" transform="translate(95.410156 0)"/>
       <use xlink:href="#DejaVuSans-30" transform="translate(159.033203 0)"/>
      </g>
     </g>
    </g>
    <g id="ytick_3">
     <g id="line2d_12">
      <path d="M 114.048 447.4547 
L 333.476571 447.4547 
" clip-path="url(#pd8fb24d7ea)" style="fill: none; stroke: #b0b0b0; stroke-opacity: 0.2; stroke-width: 0.8; stroke-linecap: square"/>
     </g>
     <g id="line2d_13">
      <g>
       <use xlink:href="#m93503abdbc" x="114.048" y="447.4547" style="stroke: #000000; stroke-width: 0.8"/>
      </g>
     </g>
     <g id="text_10">
      <!-- 0.95 -->
      <g transform="translate(44.70425 458.092512) scale(0.28 -0.28)">
       <use xlink:href="#DejaVuSans-30"/>
       <use xlink:href="#DejaVuSans-2e" transform="translate(63.623047 0)"/>
       <use xlink:href="#DejaVuSans-39" transform="translate(95.410156 0)"/>
       <use xlink:href="#DejaVuSans-35" transform="translate(159.033203 0)"/>
      </g>
     </g>
    </g>
    <g id="ytick_4">
     <g id="line2d_14">
      <path d="M 114.048 383.78816 
L 333.476571 383.78816 
" clip-path="url(#pd8fb24d7ea)" style="fill: none; stroke: #b0b0b0; stroke-opacity: 0.2; stroke-width: 0.8; stroke-linecap: square"/>
     </g>
     <g id="line2d_15">
      <g>
       <use xlink:href="#m93503abdbc" x="114.048" y="383.78816" style="stroke: #000000; stroke-width: 0.8"/>
      </g>
     </g>
     <g id="text_11">
      <!-- 1.00 -->
      <g transform="translate(44.70425 394.425972) scale(0.28 -0.28)">
       <use xlink:href="#DejaVuSans-31"/>
       <use xlink:href="#DejaVuSans-2e" transform="translate(63.623047 0)"/>
       <use xlink:href="#DejaVuSans-30" transform="translate(95.410156 0)"/>
       <use xlink:href="#DejaVuSans-30" transform="translate(159.033203 0)"/>
      </g>
     </g>
    </g>
    <g id="ytick_5">
     <g id="line2d_16">
      <path d="M 114.048 320.12162 
L 333.476571 320.12162 
" clip-path="url(#pd8fb24d7ea)" style="fill: none; stroke: #b0b0b0; stroke-opacity: 0.2; stroke-width: 0.8; stroke-linecap: square"/>
     </g>
     <g id="line2d_17">
      <g>
       <use xlink:href="#m93503abdbc" x="114.048" y="320.12162" style="stroke: #000000; stroke-width: 0.8"/>
      </g>
     </g>
     <g id="text_12">
      <!-- 1.05 -->
      <g transform="translate(44.70425 330.759432) scale(0.28 -0.28)">
       <use xlink:href="#DejaVuSans-31"/>
       <use xlink:href="#DejaVuSans-2e" transform="translate(63.623047 0)"/>
       <use xlink:href="#DejaVuSans-30" transform="translate(95.410156 0)"/>
       <use xlink:href="#DejaVuSans-35" transform="translate(159.033203 0)"/>
      </g>
     </g>
    </g>
    <g id="ytick_6">
     <g id="line2d_18">
      <path d="M 114.048 256.455079 
L 333.476571 256.455079 
" clip-path="url(#pd8fb24d7ea)" style="fill: none; stroke: #b0b0b0; stroke-opacity: 0.2; stroke-width: 0.8; stroke-linecap: square"/>
     </g>
     <g id="line2d_19">
      <g>
       <use xlink:href="#m93503abdbc" x="114.048" y="256.455079" style="stroke: #000000; stroke-width: 0.8"/>
      </g>
     </g>
     <g id="text_13">
      <!-- 1.10 -->
      <g transform="translate(44.70425 267.092892) scale(0.28 -0.28)">
       <use xlink:href="#DejaVuSans-31"/>
       <use xlink:href="#DejaVuSans-2e" transform="translate(63.623047 0)"/>
       <use xlink:href="#DejaVuSans-31" transform="translate(95.410156 0)"/>
       <use xlink:href="#DejaVuSans-30" transform="translate(159.033203 0)"/>
      </g>
     </g>
    </g>
    <g id="ytick_7">
     <g id="line2d_20">
      <path d="M 114.048 192.788539 
L 333.476571 192.788539 
" clip-path="url(#pd8fb24d7ea)" style="fill: none; stroke: #b0b0b0; stroke-opacity: 0.2; stroke-width: 0.8; stroke-linecap: square"/>
     </g>
     <g id="line2d_21">
      <g>
       <use xlink:href="#m93503abdbc" x="114.048" y="192.788539" style="stroke: #000000; stroke-width: 0.8"/>
      </g>
     </g>
     <g id="text_14">
      <!-- 1.15 -->
      <g transform="translate(44.70425 203.426352) scale(0.28 -0.28)">
       <use xlink:href="#DejaVuSans-31"/>
       <use xlink:href="#DejaVuSans-2e" transform="translate(63.623047 0)"/>
       <use xlink:href="#DejaVuSans-31" transform="translate(95.410156 0)"/>
       <use xlink:href="#DejaVuSans-35" transform="translate(159.033203 0)"/>
      </g>
     </g>
    </g>
    <g id="ytick_8">
     <g id="line2d_22">
      <path d="M 114.048 129.121999 
L 333.476571 129.121999 
" clip-path="url(#pd8fb24d7ea)" style="fill: none; stroke: #b0b0b0; stroke-opacity: 0.2; stroke-width: 0.8; stroke-linecap: square"/>
     </g>
     <g id="line2d_23">
      <g>
       <use xlink:href="#m93503abdbc" x="114.048" y="129.121999" style="stroke: #000000; stroke-width: 0.8"/>
      </g>
     </g>
     <g id="text_15">
      <!-- 1.20 -->
      <g transform="translate(44.70425 139.759812) scale(0.28 -0.28)">
       <use xlink:href="#DejaVuSans-31"/>
       <use xlink:href="#DejaVuSans-2e" transform="translate(63.623047 0)"/>
       <use xlink:href="#DejaVuSans-32" transform="translate(95.410156 0)"/>
       <use xlink:href="#DejaVuSans-30" transform="translate(159.033203 0)"/>
      </g>
     </g>
    </g>
    <g id="text_16">
     <!-- $\sigma_R$ ratio -->
     <g transform="translate(32.801437 428.58) rotate(-90) scale(0.38 -0.38)">
      <defs>
       <path id="DejaVuSans-Oblique-3c3" d="M 2219 3044 
Q 1744 3044 1422 2700 
Q 1081 2341 969 1747 
Q 844 1119 1044 756 
Q 1241 397 1706 397 
Q 2166 397 2503 759 
Q 2844 1122 2966 1747 
Q 3075 2319 2881 2700 
Q 2700 3044 2219 3044 
z
M 2309 3503 
L 4219 3500 
L 4106 2925 
L 3463 2925 
Q 3706 2438 3575 1747 
Q 3406 888 2884 400 
Q 2359 -91 1609 -91 
Q 856 -91 525 400 
Q 194 888 363 1747 
Q 528 2609 1050 3097 
Q 1484 3503 2309 3503 
z
" transform="scale(0.015625)"/>
       <path id="DejaVuSans-Oblique-52" d="M 1613 4147 
L 1294 2491 
L 2106 2491 
Q 2584 2491 2879 2755 
Q 3175 3019 3175 3444 
Q 3175 3784 2976 3965 
Q 2778 4147 2406 4147 
L 1613 4147 
z
M 2772 2241 
Q 2972 2194 3105 2009 
Q 3238 1825 3413 1275 
L 3809 0 
L 3144 0 
L 2778 1197 
Q 2638 1659 2453 1815 
Q 2269 1972 1888 1972 
L 1191 1972 
L 806 0 
L 172 0 
L 1081 4666 
L 2503 4666 
Q 3150 4666 3495 4373 
Q 3841 4081 3841 3531 
Q 3841 3044 3547 2687 
Q 3253 2331 2772 2241 
z
" transform="scale(0.015625)"/>
       <path id="DejaVuSans-72" d="M 2631 2963 
Q 2534 3019 2420 3045 
Q 2306 3072 2169 3072 
Q 1681 3072 1420 2755 
Q 1159 2438 1159 1844 
L 1159 0 
L 581 0 
L 581 3500 
L 1159 3500 
L 1159 2956 
Q 1341 3275 1631 3429 
Q 1922 3584 2338 3584 
Q 2397 3584 2469 3576 
Q 2541 3569 2628 3553 
L 2631 2963 
z
" transform="scale(0.015625)"/>
       <path id="DejaVuSans-61" d="M 2194 1759 
Q 1497 1759 1228 1600 
Q 959 1441 959 1056 
Q 959 750 1161 570 
Q 1363 391 1709 391 
Q 2188 391 2477 730 
Q 2766 1069 2766 1631 
L 2766 1759 
L 2194 1759 
z
M 3341 1997 
L 3341 0 
L 2766 0 
L 2766 531 
Q 2569 213 2275 61 
Q 1981 -91 1556 -91 
Q 1019 -91 701 211 
Q 384 513 384 1019 
Q 384 1609 779 1909 
Q 1175 2209 1959 2209 
L 2766 2209 
L 2766 2266 
Q 2766 2663 2505 2880 
Q 2244 3097 1772 3097 
Q 1472 3097 1187 3025 
Q 903 2953 641 2809 
L 641 3341 
Q 956 3463 1253 3523 
Q 1550 3584 1831 3584 
Q 2591 3584 2966 3190 
Q 3341 2797 3341 1997 
z
" transform="scale(0.015625)"/>
       <path id="DejaVuSans-74" d="M 1172 4494 
L 1172 3500 
L 2356 3500 
L 2356 3053 
L 1172 3053 
L 1172 1153 
Q 1172 725 1289 603 
Q 1406 481 1766 481 
L 2356 481 
L 2356 0 
L 1766 0 
Q 1100 0 847 248 
Q 594 497 594 1153 
L 594 3053 
L 172 3053 
L 172 3500 
L 594 3500 
L 594 4494 
L 1172 4494 
z
" transform="scale(0.015625)"/>
       <path id="DejaVuSans-69" d="M 603 3500 
L 1178 3500 
L 1178 0 
L 603 0 
L 603 3500 
z
M 603 4863 
L 1178 4863 
L 1178 4134 
L 603 4134 
L 603 4863 
z
" transform="scale(0.015625)"/>
       <path id="DejaVuSans-6f" d="M 1959 3097 
Q 1497 3097 1228 2736 
Q 959 2375 959 1747 
Q 959 1119 1226 758 
Q 1494 397 1959 397 
Q 2419 397 2687 759 
Q 2956 1122 2956 1747 
Q 2956 2369 2687 2733 
Q 2419 3097 1959 3097 
z
M 1959 3584 
Q 2709 3584 3137 3096 
Q 3566 2609 3566 1747 
Q 3566 888 3137 398 
Q 2709 -91 1959 -91 
Q 1206 -91 779 398 
Q 353 888 353 1747 
Q 353 2609 779 3096 
Q 1206 3584 1959 3584 
z
" transform="scale(0.015625)"/>
      </defs>
      <use xlink:href="#DejaVuSans-Oblique-3c3" transform="translate(0 0.015625)"/>
      <use xlink:href="#DejaVuSans-Oblique-52" transform="translate(63.378906 -16.390625) scale(0.7)"/>
      <use xlink:href="#DejaVuSans-20" transform="translate(114.750977 0.015625)"/>
      <use xlink:href="#DejaVuSans-72" transform="translate(146.538086 0.015625)"/>
      <use xlink:href="#DejaVuSans-61" transform="translate(187.651367 0.015625)"/>
      <use xlink:href="#DejaVuSans-74" transform="translate(248.930664 0.015625)"/>
      <use xlink:href="#DejaVuSans-69" transform="translate(288.139648 0.015625)"/>
      <use xlink:href="#DejaVuSans-6f" transform="translate(315.922852 0.015625)"/>
     </g>
    </g>
   </g>
   <g id="line2d_24">
    <path d="M 124.022026 350.880868 
L 127.074801 323.996108 
L 130.127576 314.614363 
L 133.180351 310.517667 
L 136.233125 309.561832 
L 139.2859 310.764836 
L 142.338675 313.192397 
L 145.39145 316.074749 
L 148.444225 318.91801 
L 151.497 321.485646 
L 154.549774 323.727245 
L 157.602549 325.702935 
L 160.655324 327.524192 
L 163.708099 329.3242 
L 166.760874 331.220595 
L 169.813649 333.305662 
L 172.866423 335.627723 
L 175.919198 338.185711 
L 178.971973 340.93795 
L 182.024748 343.816907 
L 185.077523 346.736867 
L 188.130298 349.62535 
L 191.183073 352.41326 
L 194.235847 355.053644 
L 197.288622 357.524722 
L 200.341397 359.81227 
L 203.394172 361.92275 
L 206.446947 363.866474 
L 209.499722 365.661281 
L 212.552496 367.326378 
L 215.605271 368.881246 
L 218.658046 370.344191 
L 221.710821 371.730878 
L 224.763596 373.054478 
L 227.816371 374.324559 
L 230.869146 375.548759 
L 233.92192 376.731688 
L 236.974695 377.875854 
L 240.02747 378.983197 
L 243.080245 380.053536 
L 246.13302 381.087402 
L 249.185795 382.08438 
L 252.238569 383.044729 
L 255.291344 383.96863 
L 258.344119 384.856776 
L 261.396894 385.710765 
L 264.449669 386.531039 
L 267.502444 387.319601 
L 270.555219 388.078007 
L 273.607993 388.805825 
L 276.660768 389.504778 
L 279.713543 390.17405 
L 282.766318 390.81554 
L 285.819093 391.429567 
L 288.871868 392.017467 
L 291.924642 392.589637 
L 294.977417 393.154804 
L 298.030192 393.734638 
L 301.082967 394.351512 
L 304.135742 395.034841 
L 307.188517 395.814355 
L 310.241292 396.723884 
L 313.294066 397.791584 
L 316.346841 399.02521 
L 319.399616 400.378806 
L 322.452391 401.750551 
L 323.502545 402.207674 
" clip-path="url(#pd8fb24d7ea)" style="fill: none; stroke-dasharray: 11.1,4.8; stroke-dashoffset: 0; stroke: #000000; stroke-width: 3"/>
   </g>
   <g id="line2d_25">
    <path d="M 124.022026 533.586105 
L 127.074801 604.176716 
L 130.127576 605.16 
L 133.180351 592.19154 
L 136.233125 573.996824 
L 139.2859 554.758105 
L 142.338675 537.471637 
L 145.39145 523.690216 
L 148.444225 513.711385 
L 151.497 507.037329 
L 154.549774 502.856496 
L 157.602549 500.266377 
L 160.655324 498.428089 
L 163.708099 496.636724 
L 166.760874 494.341059 
L 169.813649 491.222632 
L 172.866423 487.138275 
L 175.919198 482.174143 
L 178.971973 476.549209 
L 182.024748 470.575747 
L 185.077523 464.590031 
L 188.130298 458.875777 
L 191.183073 453.662646 
L 194.235847 449.080555 
L 197.288622 445.186999 
L 200.341397 441.967887 
L 203.394172 439.363841 
L 206.446947 437.28303 
L 209.499722 435.616816 
L 212.552496 434.251517 
L 215.605271 433.08028 
L 218.658046 432.004389 
L 221.710821 430.942764 
L 224.763596 429.828709 
L 227.816371 428.616194 
L 230.869146 427.279779 
L 233.92192 425.80768 
L 236.974695 424.200178 
L 240.02747 422.475899 
L 243.080245 420.651639 
L 246.13302 418.753982 
L 249.185795 416.807506 
L 252.238569 414.833483 
L 255.291344 412.846991 
L 258.344119 410.861374 
L 261.396894 408.870016 
L 264.449669 406.870808 
L 267.502444 404.842366 
L 270.555219 402.743606 
L 273.607993 400.536135 
L 276.660768 398.155985 
L 279.713543 395.517207 
L 282.766318 392.53453 
L 285.819093 389.085886 
L 288.871868 385.052226 
L 291.924642 380.295985 
L 294.977417 374.681937 
L 298.030192 368.069329 
L 301.082967 360.376879 
L 304.135742 351.587298 
L 307.188517 341.870937 
L 310.241292 331.699419 
L 313.294066 321.933436 
L 316.346841 313.511563 
L 319.399616 306.93937 
L 322.452391 302.070044 
L 323.502545 300.722292 
" clip-path="url(#pd8fb24d7ea)" style="fill: none; stroke-dasharray: 3,4.95; stroke-dashoffset: 0; stroke: #000000; stroke-width: 3"/>
   </g>
   <g id="line2d_26">
    <path d="M 124.022026 342.92308 
L 127.074801 326.516126 
L 130.127576 322.673729 
L 133.180351 320.885521 
L 136.233125 319.656466 
L 139.2859 318.784541 
L 142.338675 318.374353 
L 145.39145 318.61567 
L 148.444225 319.66816 
L 151.497 321.582035 
L 154.549774 324.273516 
L 157.602549 327.543402 
L 160.655324 331.136686 
L 163.708099 334.81053 
L 166.760874 338.372526 
L 169.813649 341.701154 
L 172.866423 344.739936 
L 175.919198 347.480474 
L 178.971973 349.947625 
L 182.024748 352.1834 
L 185.077523 354.237561 
L 188.130298 356.157163 
L 191.183073 357.98507 
L 194.235847 359.755293 
L 197.288622 361.488516 
L 200.341397 363.199855 
L 203.394172 364.89138 
L 206.446947 366.557741 
L 209.499722 368.191658 
L 212.552496 369.781183 
L 215.605271 371.316668 
L 218.658046 372.786611 
L 221.710821 374.184068 
L 224.763596 375.507468 
L 227.816371 376.753678 
L 230.869146 377.925333 
L 233.92192 379.026154 
L 236.974695 380.062726 
L 240.02747 381.040566 
L 243.080245 381.968092 
L 246.13302 382.850684 
L 249.185795 383.697905 
L 252.238569 384.517018 
L 255.291344 385.313707 
L 258.344119 386.094669 
L 261.396894 386.865041 
L 264.449669 387.629991 
L 267.502444 388.392942 
L 270.555219 389.158903 
L 273.607993 389.929702 
L 276.660768 390.708975 
L 279.713543 391.49849 
L 282.766318 392.301095 
L 285.819093 393.120478 
L 288.871868 393.958438 
L 291.924642 394.819031 
L 294.977417 395.707636 
L 298.030192 396.629255 
L 301.082967 397.597886 
L 304.135742 398.629936 
L 307.188517 399.75562 
L 310.241292 401.005105 
L 313.294066 402.395296 
L 316.346841 403.914615 
L 319.399616 405.510501 
L 322.452391 407.097143 
L 323.502545 407.621095 
" clip-path="url(#pd8fb24d7ea)" style="fill: none; stroke-dasharray: 11.1,4.8; stroke-dashoffset: 0; stroke: #e69f00; stroke-width: 3"/>
   </g>
   <g id="line2d_27">
    <path d="M 124.022026 545.909949 
L 127.074801 560.311934 
L 130.127576 548.42339 
L 133.180351 541.366492 
L 136.233125 538.373283 
L 139.2859 537.068815 
L 142.338675 535.547987 
L 145.39145 532.500032 
L 148.444225 527.241682 
L 151.497 519.755474 
L 154.549774 510.569415 
L 157.602549 500.544118 
L 160.655324 490.592587 
L 163.708099 481.458448 
L 166.760874 473.606163 
L 169.813649 467.228394 
L 172.866423 462.270098 
L 175.919198 458.567979 
L 178.971973 455.859724 
L 182.024748 453.860914 
L 185.077523 452.279856 
L 188.130298 450.874229 
L 191.183073 449.442012 
L 194.235847 447.814017 
L 197.288622 445.913471 
L 200.341397 443.698331 
L 203.394172 441.186346 
L 206.446947 438.428488 
L 209.499722 435.509942 
L 212.552496 432.522814 
L 215.605271 429.563948 
L 218.658046 426.718369 
L 221.710821 424.058102 
L 224.763596 421.623639 
L 227.816371 419.456289 
L 230.869146 417.566284 
L 233.92192 415.948294 
L 236.974695 414.586859 
L 240.02747 413.454935 
L 243.080245 412.517067 
L 246.13302 411.732527 
L 249.185795 411.061786 
L 252.238569 410.445745 
L 255.291344 409.845707 
L 258.344119 409.20463 
L 261.396894 408.473667 
L 264.449669 407.596297 
L 267.502444 406.521139 
L 270.555219 405.172849 
L 273.607993 403.510818 
L 276.660768 401.447717 
L 279.713543 398.931919 
L 282.766318 395.88652 
L 285.819093 392.23729 
L 288.871868 387.90847 
L 291.924642 382.823172 
L 294.977417 376.912563 
L 298.030192 370.125019 
L 301.082967 362.444264 
L 304.135742 353.910828 
L 307.188517 344.629842 
L 310.241292 334.751807 
L 313.294066 324.494605 
L 316.346841 314.265932 
L 319.399616 304.767497 
L 322.452391 296.750635 
L 323.502545 294.403269 
" clip-path="url(#pd8fb24d7ea)" style="fill: none; stroke-dasharray: 3,4.95; stroke-dashoffset: 0; stroke: #e69f00; stroke-width: 3"/>
   </g>
   <g id="line2d_28">
    <path d="M 124.022026 327.106829 
L 127.074801 320.034789 
L 130.127576 318.623277 
L 133.180351 319.652311 
L 136.233125 322.21621 
L 139.2859 325.578581 
L 142.338675 329.140719 
L 145.39145 332.516836 
L 148.444225 335.525756 
L 151.497 338.131236 
L 154.549774 340.383668 
L 157.602549 342.375117 
L 160.655324 344.209873 
L 163.708099 345.987142 
L 166.760874 347.786022 
L 169.813649 349.660141 
L 172.866423 351.632537 
L 175.919198 353.699107 
L 178.971973 355.831337 
L 182.024748 357.988303 
L 185.077523 360.123845 
L 188.130298 362.196449 
L 191.183073 364.172074 
L 194.235847 366.028619 
L 197.288622 367.75475 
L 200.341397 369.348869 
L 203.394172 370.816593 
L 206.446947 372.169364 
L 209.499722 373.420353 
L 212.552496 374.585179 
L 215.605271 375.679044 
L 218.658046 376.718221 
L 221.710821 377.71445 
L 224.763596 378.679476 
L 227.816371 379.622977 
L 230.869146 380.551215 
L 233.92192 381.470497 
L 236.974695 382.381554 
L 240.02747 383.286426 
L 243.080245 384.184336 
L 246.13302 385.073729 
L 249.185795 385.952649 
L 252.238569 386.817209 
L 255.291344 387.664608 
L 258.344119 388.491996 
L 261.396894 389.296705 
L 264.449669 390.076081 
L 267.502444 390.829576 
L 270.555219 391.556196 
L 273.607993 392.255931 
L 276.660768 392.930554 
L 279.713543 393.581529 
L 282.766318 394.210966 
L 285.819093 394.821388 
L 288.871868 395.415101 
L 291.924642 395.994113 
L 294.977417 396.562141 
L 298.030192 397.120511 
L 301.082967 397.671664 
L 304.135742 398.215584 
L 307.188517 398.749161 
L 310.241292 399.271981 
L 313.294066 399.791234 
L 316.346841 400.328326 
L 319.399616 400.911444 
L 322.452391 401.554784 
L 323.502545 401.790375 
" clip-path="url(#pd8fb24d7ea)" style="fill: none; stroke-dasharray: 11.1,4.8; stroke-dashoffset: 0; stroke: #56b4e9; stroke-width: 3"/>
   </g>
   <g id="line2d_29">
    <path d="M 124.022026 570.331866 
L 127.074801 573.662081 
L 130.127576 562.004797 
L 133.180351 545.59437 
L 136.233125 527.863116 
L 139.2859 511.401016 
L 142.338675 497.773215 
L 145.39145 487.496317 
L 148.444225 480.350624 
L 151.497 475.730649 
L 154.549774 472.907884 
L 157.602549 471.159101 
L 160.655324 469.845757 
L 163.708099 468.441106 
L 166.760874 466.576332 
L 169.813649 464.027122 
L 172.866423 460.735873 
L 175.919198 456.776775 
L 178.971973 452.330216 
L 182.024748 447.638468 
L 185.077523 442.950581 
L 188.130298 438.486799 
L 191.183073 434.422766 
L 194.235847 430.871593 
L 197.288622 427.880669 
L 200.341397 425.461895 
L 203.394172 423.576865 
L 206.446947 422.160049 
L 209.499722 421.137135 
L 212.552496 420.415807 
L 215.605271 419.907677 
L 218.658046 419.515668 
L 221.710821 419.165651 
L 224.763596 418.781079 
L 227.816371 418.301167 
L 230.869146 417.675161 
L 233.92192 416.869814 
L 236.974695 415.853033 
L 240.02747 414.619328 
L 243.080245 413.16266 
L 246.13302 411.488076 
L 249.185795 409.60632 
L 252.238569 407.53078 
L 255.291344 405.276117 
L 258.344119 402.860276 
L 261.396894 400.295124 
L 264.449669 397.596833 
L 267.502444 394.766798 
L 270.555219 391.82017 
L 273.607993 388.757649 
L 276.660768 385.57992 
L 279.713543 382.284155 
L 282.766318 378.86494 
L 285.819093 375.319067 
L 288.871868 371.632924 
L 291.924642 367.806356 
L 294.977417 363.837295 
L 298.030192 359.715571 
L 301.082967 355.418726 
L 304.135742 350.890922 
L 307.188517 346.035326 
L 310.241292 340.730562 
L 313.294066 334.896435 
L 316.346841 328.565712 
L 319.399616 322.023752 
L 322.452391 315.890893 
L 323.502545 314.012874 
" clip-path="url(#pd8fb24d7ea)" style="fill: none; stroke-dasharray: 3,4.95; stroke-dashoffset: 0; stroke: #56b4e9; stroke-width: 3"/>
   </g>
   <g id="line2d_30">
    <path d="M 124.022026 334.158613 
L 127.074801 334.827796 
L 130.127576 335.88354 
L 133.180351 336.874242 
L 136.233125 337.851153 
L 139.2859 338.949874 
L 142.338675 340.302549 
L 145.39145 341.996923 
L 148.444225 344.053953 
L 151.497 346.425569 
L 154.549774 349.009827 
L 157.602549 351.681062 
L 160.655324 354.318344 
L 163.708099 356.826614 
L 166.760874 359.144499 
L 169.813649 361.243055 
L 172.866423 363.119762 
L 175.919198 364.790111 
L 178.971973 366.280443 
L 182.024748 367.622956 
L 185.077523 368.85123 
L 188.130298 369.995741 
L 191.183073 371.085233 
L 194.235847 372.142138 
L 197.288622 373.184245 
L 200.341397 374.223153 
L 203.394172 375.265453 
L 206.446947 376.3119 
L 209.499722 377.359622 
L 212.552496 378.403593 
L 215.605271 379.436253 
L 218.658046 380.45049 
L 221.710821 381.438291 
L 224.763596 382.393659 
L 227.816371 383.312234 
L 230.869146 384.190968 
L 233.92192 385.027975 
L 236.974695 385.824082 
L 240.02747 386.580503 
L 243.080245 387.300265 
L 246.13302 387.986818 
L 249.185795 388.644512 
L 252.238569 389.277825 
L 255.291344 389.892572 
L 258.344119 390.493494 
L 261.396894 391.085082 
L 264.449669 391.671175 
L 267.502444 392.256163 
L 270.555219 392.843033 
L 273.607993 393.43365 
L 276.660768 394.029875 
L 279.713543 394.632799 
L 282.766318 395.243363 
L 285.819093 395.862528 
L 288.871868 396.491601 
L 291.924642 397.131084 
L 294.977417 397.779909 
L 298.030192 398.435282 
L 301.082967 399.091101 
L 304.135742 399.739153 
L 307.188517 400.36868 
L 310.241292 400.967249 
L 313.294066 401.523498 
L 316.346841 402.031671 
L 319.399616 402.499386 
L 322.452391 402.949354 
L 323.502545 403.103847 
" clip-path="url(#pd8fb24d7ea)" style="fill: none; stroke-dasharray: 11.1,4.8; stroke-dashoffset: 0; stroke: #009e73; stroke-width: 3"/>
   </g>
   <g id="line2d_31">
    <path d="M 124.022026 502.745434 
L 127.074801 494.584436 
L 130.127576 490.612224 
L 133.180351 489.231521 
L 136.233125 488.768306 
L 139.2859 487.948222 
L 142.338675 485.909838 
L 145.39145 482.215753 
L 148.444225 476.850767 
L 151.497 470.154837 
L 154.549774 462.706463 
L 157.602549 455.144279 
L 160.655324 448.033506 
L 163.708099 441.781415 
L 166.760874 436.613219 
L 169.813649 432.587822 
L 172.866423 429.650919 
L 175.919198 427.662214 
L 178.971973 426.438699 
L 182.024748 425.781488 
L 185.077523 425.481903 
L 188.130298 425.360431 
L 191.183073 425.24829 
L 194.235847 425.010918 
L 197.288622 424.543668 
L 200.341397 423.781875 
L 203.394172 422.695895 
L 206.446947 421.288829 
L 209.499722 419.589541 
L 212.552496 417.652194 
L 215.605271 415.53974 
L 218.658046 413.323291 
L 221.710821 411.068976 
L 224.763596 408.839029 
L 227.816371 406.682758 
L 230.869146 404.638503 
L 233.92192 402.726275 
L 236.974695 400.958998 
L 240.02747 399.333287 
L 243.080245 397.839016 
L 246.13302 396.447589 
L 249.185795 395.133873 
L 252.238569 393.863384 
L 255.291344 392.599088 
L 258.344119 391.298901 
L 261.396894 389.930387 
L 264.449669 388.457789 
L 267.502444 386.851843 
L 270.555219 385.089024 
L 273.607993 383.155574 
L 276.660768 381.04664 
L 279.713543 378.756757 
L 282.766318 376.304228 
L 285.819093 373.704105 
L 288.871868 370.97552 
L 291.924642 368.129334 
L 294.977417 365.162297 
L 298.030192 362.045694 
L 301.082967 358.725804 
L 304.135742 355.129703 
L 307.188517 351.173402 
L 310.241292 346.772142 
L 313.294066 341.837809 
L 316.346841 336.294627 
L 319.399616 330.155822 
L 322.452391 323.694629 
L 323.502545 321.506291 
" clip-path="url(#pd8fb24d7ea)" style="fill: none; stroke-dasharray: 3,4.95; stroke-dashoffset: 0; stroke: #009e73; stroke-width: 3"/>
   </g>
   <g id="line2d_32">
    <path d="M 114.048 383.78816 
L 333.476571 383.78816 
" clip-path="url(#pd8fb24d7ea)" style="fill: none; stroke: #000000; stroke-opacity: 0.25; stroke-width: 1.5; stroke-linecap: square"/>
   </g>
   <g id="line2d_33">
    <path d="M 306.328977 630 
L 306.328977 83.52 
" clip-path="url(#pd8fb24d7ea)" style="fill: none; stroke-dasharray: 5.55,2.4; stroke-dashoffset: 0; stroke: #ff0000; stroke-width: 1.5"/>
   </g>
   <g id="patch_5">
    <path d="M 114.048 630 
L 114.048 83.52 
" style="fill: none; stroke: #000000; stroke-width: 0.8; stroke-linejoin: miter; stroke-linecap: square"/>
   </g>
   <g id="patch_6">
    <path d="M 333.476571 630 
L 333.476571 83.52 
" style="fill: none; stroke: #000000; stroke-width: 0.8; stroke-linejoin: miter; stroke-linecap: square"/>
   </g>
   <g id="patch_7">
    <path d="M 114.048 630 
L 333.476571 630 
" style="fill: none; stroke: #000000; stroke-width: 0.8; stroke-linejoin: miter; stroke-linecap: square"/>
   </g>
   <g id="patch_8">
    <path d="M 114.048 83.52 
L 333.476571 83.52 
" style="fill: none; stroke: #000000; stroke-width: 0.8; stroke-linejoin: miter; stroke-linecap: square"/>
   </g>
   <g id="text_17">
    <!-- 30MeV -->
    <g transform="translate(134.558268 134.008625) scale(0.2 -0.2)">
     <use xlink:href="#DejaVuSans-33"/>
     <use xlink:href="#DejaVuSans-30" transform="translate(63.623047 0)"/>
     <use xlink:href="#DejaVuSans-4d" transform="translate(127.246094 0)"/>
     <use xlink:href="#DejaVuSans-65" transform="translate(213.525391 0)"/>
     <use xlink:href="#DejaVuSans-56" transform="translate(275.048828 0)"/>
    </g>
   </g>
   <g id="legend_1">
    <g id="line2d_34">
     <path d="M 208.460946 107.097187 
L 226.460946 107.097187 
L 244.460946 107.097187 
" style="fill: none; stroke-dasharray: 3.5,5.775; stroke-dashoffset: 0; stroke: #000000; stroke-width: 3.5"/>
    </g>
    <g id="text_18">
     <!-- LELO -->
     <g transform="translate(258.860946 113.397187) scale(0.18 -0.18)">
      <defs>
       <path id="DejaVuSans-4c" d="M 628 4666 
L 1259 4666 
L 1259 531 
L 3531 531 
L 3531 0 
L 628 0 
L 628 4666 
z
" transform="scale(0.015625)"/>
       <path id="DejaVuSans-45" d="M 628 4666 
L 3578 4666 
L 3578 4134 
L 1259 4134 
L 1259 2753 
L 3481 2753 
L 3481 2222 
L 1259 2222 
L 1259 531 
L 3634 531 
L 3634 0 
L 628 0 
L 628 4666 
z
" transform="scale(0.015625)"/>
       <path id="DejaVuSans-4f" d="M 2522 4238 
Q 1834 4238 1429 3725 
Q 1025 3213 1025 2328 
Q 1025 1447 1429 934 
Q 1834 422 2522 422 
Q 3209 422 3611 934 
Q 4013 1447 4013 2328 
Q 4013 3213 3611 3725 
Q 3209 4238 2522 4238 
z
M 2522 4750 
Q 3503 4750 4090 4092 
Q 4678 3434 4678 2328 
Q 4678 1225 4090 567 
Q 3503 -91 2522 -91 
Q 1538 -91 948 565 
Q 359 1222 359 2328 
Q 359 3434 948 4092 
Q 1538 4750 2522 4750 
z
" transform="scale(0.015625)"/>
      </defs>
      <use xlink:href="#DejaVuSans-4c"/>
      <use xlink:href="#DejaVuSans-45" transform="translate(55.712891 0)"/>
      <use xlink:href="#DejaVuSans-4c" transform="translate(118.896484 0)"/>
      <use xlink:href="#DejaVuSans-4f" transform="translate(170.984375 0)"/>
     </g>
    </g>
    <g id="line2d_35">
     <path d="M 208.460946 133.517812 
L 226.460946 133.517812 
L 244.460946 133.517812 
" style="fill: none; stroke-dasharray: 12.95,5.6; stroke-dashoffset: 0; stroke: #000000; stroke-width: 3.5"/>
    </g>
    <g id="text_19">
     <!-- LENLO -->
     <g transform="translate(258.860946 139.817812) scale(0.18 -0.18)">
      <defs>
       <path id="DejaVuSans-4e" d="M 628 4666 
L 1478 4666 
L 3547 763 
L 3547 4666 
L 4159 4666 
L 4159 0 
L 3309 0 
L 1241 3903 
L 1241 0 
L 628 0 
L 628 4666 
z
" transform="scale(0.015625)"/>
      </defs>
      <use xlink:href="#DejaVuSans-4c"/>
      <use xlink:href="#DejaVuSans-45" transform="translate(55.712891 0)"/>
      <use xlink:href="#DejaVuSans-4e" transform="translate(118.896484 0)"/>
      <use xlink:href="#DejaVuSans-4c" transform="translate(193.701172 0)"/>
      <use xlink:href="#DejaVuSans-4f" transform="translate(245.789062 0)"/>
     </g>
    </g>
   </g>
  </g>
  <g id="axes_3">
   <g id="patch_9">
    <path d="M 341.595429 630 
L 561.024 630 
L 561.024 83.52 
L 341.595429 83.52 
L 341.595429 630 
z
" style="fill: none"/>
   </g>
   <g id="axes_4">
    <g id="patch_10">
     <path d="M 341.595429 83.52 
L 561.024 83.52 
L 561.024 83.52 
L 341.595429 83.52 
L 341.595429 83.52 
z
" style="fill: none"/>
    </g>
    <g id="matplotlib.axis_5">
     <g id="xtick_6">
      <g id="line2d_36">
       <g>
        <use xlink:href="#m1d1e92c68c" x="519.787667" y="83.52" style="stroke: #000000; stroke-width: 0.8"/>
       </g>
      </g>
      <g id="text_20">
       <!-- 20 -->
       <g transform="translate(501.972667 70.696875) scale(0.28 -0.28)">
        <use xlink:href="#DejaVuSans-32"/>
        <use xlink:href="#DejaVuSans-30" transform="translate(63.623047 0)"/>
       </g>
      </g>
     </g>
     <g id="xtick_7">
      <g id="line2d_37">
       <g>
        <use xlink:href="#m1d1e92c68c" x="458.73217" y="83.52" style="stroke: #000000; stroke-width: 0.8"/>
       </g>
      </g>
      <g id="text_21">
       <!-- 30 -->
       <g transform="translate(440.91717 70.696875) scale(0.28 -0.28)">
        <use xlink:href="#DejaVuSans-33"/>
        <use xlink:href="#DejaVuSans-30" transform="translate(63.623047 0)"/>
       </g>
      </g>
     </g>
     <g id="xtick_8">
      <g id="line2d_38">
       <g>
        <use xlink:href="#m1d1e92c68c" x="397.676673" y="83.52" style="stroke: #000000; stroke-width: 0.8"/>
       </g>
      </g>
      <g id="text_22">
       <!-- 40 -->
       <g transform="translate(379.861673 70.696875) scale(0.28 -0.28)">
        <defs>
         <path id="DejaVuSans-34" d="M 2419 4116 
L 825 1625 
L 2419 1625 
L 2419 4116 
z
M 2253 4666 
L 3047 4666 
L 3047 1625 
L 3713 1625 
L 3713 1100 
L 3047 1100 
L 3047 0 
L 2419 0 
L 2419 1100 
L 313 1100 
L 313 1709 
L 2253 4666 
z
" transform="scale(0.015625)"/>
        </defs>
        <use xlink:href="#DejaVuSans-34"/>
        <use xlink:href="#DejaVuSans-30" transform="translate(63.623047 0)"/>
       </g>
      </g>
     </g>
     <g id="text_23">
      <!-- $E_{CoM}$ (MeV) -->
      <g transform="translate(347.759714 45.42125) scale(0.38 -0.38)">
       <use xlink:href="#DejaVuSans-Oblique-45" transform="translate(0 0.125)"/>
       <use xlink:href="#DejaVuSans-Oblique-43" transform="translate(63.183594 -16.28125) scale(0.7)"/>
       <use xlink:href="#DejaVuSans-Oblique-6f" transform="translate(112.060547 -16.28125) scale(0.7)"/>
       <use xlink:href="#DejaVuSans-Oblique-4d" transform="translate(154.887695 -16.28125) scale(0.7)"/>
       <use xlink:href="#DejaVuSans-20" transform="translate(218.017578 0.125)"/>
       <use xlink:href="#DejaVuSans-28" transform="translate(249.804688 0.125)"/>
       <use xlink:href="#DejaVuSans-4d" transform="translate(288.818359 0.125)"/>
       <use xlink:href="#DejaVuSans-65" transform="translate(375.097656 0.125)"/>
       <use xlink:href="#DejaVuSans-56" transform="translate(436.621094 0.125)"/>
       <use xlink:href="#DejaVuSans-29" transform="translate(505.029297 0.125)"/>
      </g>
     </g>
    </g>
    <g id="matplotlib.axis_6"/>
    <g id="patch_11">
     <path d="M 561.024 83.52 
L 341.595429 83.52 
" style="fill: none; stroke: #000000; stroke-width: 0.8; stroke-linejoin: miter; stroke-linecap: square"/>
    </g>
   </g>
   <g id="matplotlib.axis_7">
    <g id="xtick_9">
     <g id="line2d_39">
      <path d="M 348.51668 630 
L 348.51668 83.52 
" clip-path="url(#p915b888ad3)" style="fill: none; stroke: #b0b0b0; stroke-opacity: 0.2; stroke-width: 0.8; stroke-linecap: square"/>
     </g>
     <g id="line2d_40">
      <g>
       <use xlink:href="#m361e074d1e" x="348.51668" y="630" style="stroke: #000000; stroke-width: 0.8"/>
      </g>
     </g>
     <g id="text_24">
      <!-- 0 -->
      <g transform="translate(339.60918 658.275625) scale(0.28 -0.28)">
       <use xlink:href="#DejaVuSans-30"/>
      </g>
     </g>
    </g>
    <g id="xtick_10">
     <g id="line2d_41">
      <path d="M 470.627674 630 
L 470.627674 83.52 
" clip-path="url(#p915b888ad3)" style="fill: none; stroke: #b0b0b0; stroke-opacity: 0.2; stroke-width: 0.8; stroke-linecap: square"/>
     </g>
     <g id="line2d_42">
      <g>
       <use xlink:href="#m361e074d1e" x="470.627674" y="630" style="stroke: #000000; stroke-width: 0.8"/>
      </g>
     </g>
     <g id="text_25">
      <!-- 20 -->
      <g transform="translate(452.812674 658.275625) scale(0.28 -0.28)">
       <use xlink:href="#DejaVuSans-32"/>
       <use xlink:href="#DejaVuSans-30" transform="translate(63.623047 0)"/>
      </g>
     </g>
    </g>
    <g id="text_26">
     <!-- $S_{2n}$ (MeV) -->
     <g transform="translate(359.729714 696.972813) scale(0.38 -0.38)">
      <use xlink:href="#DejaVuSans-Oblique-53" transform="translate(0 0.125)"/>
      <use xlink:href="#DejaVuSans-32" transform="translate(63.476562 -16.28125) scale(0.7)"/>
      <use xlink:href="#DejaVuSans-Oblique-6e" transform="translate(108.012695 -16.28125) scale(0.7)"/>
      <use xlink:href="#DejaVuSans-20" transform="translate(155.112305 0.125)"/>
      <use xlink:href="#DejaVuSans-28" transform="translate(186.899414 0.125)"/>
      <use xlink:href="#DejaVuSans-4d" transform="translate(225.913086 0.125)"/>
      <use xlink:href="#DejaVuSans-65" transform="translate(312.192383 0.125)"/>
      <use xlink:href="#DejaVuSans-56" transform="translate(373.71582 0.125)"/>
      <use xlink:href="#DejaVuSans-29" transform="translate(442.124023 0.125)"/>
     </g>
    </g>
   </g>
   <g id="matplotlib.axis_8">
    <g id="ytick_9">
     <g id="line2d_43">
      <path d="M 341.595429 574.78778 
L 561.024 574.78778 
" clip-path="url(#p915b888ad3)" style="fill: none; stroke: #b0b0b0; stroke-opacity: 0.2; stroke-width: 0.8; stroke-linecap: square"/>
     </g>
     <g id="line2d_44">
      <g>
       <use xlink:href="#m93503abdbc" x="341.595429" y="574.78778" style="stroke: #000000; stroke-width: 0.8"/>
      </g>
     </g>
    </g>
    <g id="ytick_10">
     <g id="line2d_45">
      <path d="M 341.595429 511.12124 
L 561.024 511.12124 
" clip-path="url(#p915b888ad3)" style="fill: none; stroke: #b0b0b0; stroke-opacity: 0.2; stroke-width: 0.8; stroke-linecap: square"/>
     </g>
     <g id="line2d_46">
      <g>
       <use xlink:href="#m93503abdbc" x="341.595429" y="511.12124" style="stroke: #000000; stroke-width: 0.8"/>
      </g>
     </g>
    </g>
    <g id="ytick_11">
     <g id="line2d_47">
      <path d="M 341.595429 447.4547 
L 561.024 447.4547 
" clip-path="url(#p915b888ad3)" style="fill: none; stroke: #b0b0b0; stroke-opacity: 0.2; stroke-width: 0.8; stroke-linecap: square"/>
     </g>
     <g id="line2d_48">
      <g>
       <use xlink:href="#m93503abdbc" x="341.595429" y="447.4547" style="stroke: #000000; stroke-width: 0.8"/>
      </g>
     </g>
    </g>
    <g id="ytick_12">
     <g id="line2d_49">
      <path d="M 341.595429 383.78816 
L 561.024 383.78816 
" clip-path="url(#p915b888ad3)" style="fill: none; stroke: #b0b0b0; stroke-opacity: 0.2; stroke-width: 0.8; stroke-linecap: square"/>
     </g>
     <g id="line2d_50">
      <g>
       <use xlink:href="#m93503abdbc" x="341.595429" y="383.78816" style="stroke: #000000; stroke-width: 0.8"/>
      </g>
     </g>
    </g>
    <g id="ytick_13">
     <g id="line2d_51">
      <path d="M 341.595429 320.12162 
L 561.024 320.12162 
" clip-path="url(#p915b888ad3)" style="fill: none; stroke: #b0b0b0; stroke-opacity: 0.2; stroke-width: 0.8; stroke-linecap: square"/>
     </g>
     <g id="line2d_52">
      <g>
       <use xlink:href="#m93503abdbc" x="341.595429" y="320.12162" style="stroke: #000000; stroke-width: 0.8"/>
      </g>
     </g>
    </g>
    <g id="ytick_14">
     <g id="line2d_53">
      <path d="M 341.595429 256.455079 
L 561.024 256.455079 
" clip-path="url(#p915b888ad3)" style="fill: none; stroke: #b0b0b0; stroke-opacity: 0.2; stroke-width: 0.8; stroke-linecap: square"/>
     </g>
     <g id="line2d_54">
      <g>
       <use xlink:href="#m93503abdbc" x="341.595429" y="256.455079" style="stroke: #000000; stroke-width: 0.8"/>
      </g>
     </g>
    </g>
    <g id="ytick_15">
     <g id="line2d_55">
      <path d="M 341.595429 192.788539 
L 561.024 192.788539 
" clip-path="url(#p915b888ad3)" style="fill: none; stroke: #b0b0b0; stroke-opacity: 0.2; stroke-width: 0.8; stroke-linecap: square"/>
     </g>
     <g id="line2d_56">
      <g>
       <use xlink:href="#m93503abdbc" x="341.595429" y="192.788539" style="stroke: #000000; stroke-width: 0.8"/>
      </g>
     </g>
    </g>
    <g id="ytick_16">
     <g id="line2d_57">
      <path d="M 341.595429 129.121999 
L 561.024 129.121999 
" clip-path="url(#p915b888ad3)" style="fill: none; stroke: #b0b0b0; stroke-opacity: 0.2; stroke-width: 0.8; stroke-linecap: square"/>
     </g>
     <g id="line2d_58">
      <g>
       <use xlink:href="#m93503abdbc" x="341.595429" y="129.121999" style="stroke: #000000; stroke-width: 0.8"/>
      </g>
     </g>
    </g>
   </g>
   <g id="line2d_59">
    <path d="M 351.569455 253.655168 
L 354.622229 110.877245 
L 357.675004 108.36 
L 360.727779 155.333651 
L 363.780554 202.784076 
L 366.833329 235.529952 
L 369.886104 254.43401 
L 372.938878 263.462539 
L 375.991653 265.909621 
L 379.044428 264.217267 
L 382.097203 260.42009 
L 385.149978 256.530379 
L 388.202753 254.547852 
L 391.255528 256.058793 
L 394.308302 261.644652 
L 397.361077 270.597245 
L 400.413852 281.399675 
L 403.466627 292.432406 
L 406.519402 302.558124 
L 409.572177 311.220639 
L 412.624951 318.309165 
L 415.677726 323.986837 
L 418.730501 328.518218 
L 421.783276 332.216386 
L 424.836051 335.381398 
L 427.888826 338.279368 
L 430.941601 341.1264 
L 433.994375 344.073936 
L 437.04715 347.200833 
L 440.099925 350.515866 
L 443.1527 353.971538 
L 446.205475 357.481725 
L 449.25825 360.949337 
L 452.311024 364.286982 
L 455.363799 367.426858 
L 458.416574 370.332428 
L 461.469349 372.991857 
L 464.522124 375.412982 
L 467.574899 377.622584 
L 470.627674 379.653575 
L 473.680448 381.54152 
L 476.733223 383.32375 
L 479.785998 385.03279 
L 482.838773 386.696365 
L 485.891548 388.335876 
L 488.944323 389.965029 
L 491.997097 391.593141 
L 495.049872 393.222011 
L 498.102647 394.847941 
L 501.155422 396.467425 
L 504.208197 398.074793 
L 507.260972 399.654656 
L 510.313746 401.209423 
L 513.366521 402.731688 
L 516.419296 404.220985 
L 519.472071 405.680896 
L 522.524846 407.112926 
L 525.577621 408.530284 
L 528.630396 409.942508 
L 531.68317 411.364903 
L 534.735945 412.811288 
L 537.78872 414.30156 
L 540.841495 415.855132 
L 543.89427 417.489823 
L 546.947045 419.22705 
L 549.999819 421.088298 
L 551.049974 421.75938 
" clip-path="url(#p915b888ad3)" style="fill: none; stroke-dasharray: 11.1,4.8; stroke-dashoffset: 0; stroke: #000000; stroke-width: 3"/>
   </g>
   <g id="line2d_60">
    <path d="M 351.569455 400.314547 
L 354.622229 397.632531 
L 357.675004 377.930706 
L 360.727779 367.262701 
L 363.780554 368.427914 
L 366.833329 376.243083 
L 369.886104 386.777042 
L 372.938878 398.284412 
L 375.991653 410.086448 
L 379.044428 421.782477 
L 382.097203 432.923385 
L 385.149978 442.776011 
L 388.202753 450.429124 
L 391.255528 455.103148 
L 394.308302 456.581311 
L 397.361077 455.445694 
L 400.413852 452.760929 
L 403.466627 449.666778 
L 406.519402 446.956783 
L 409.572177 445.026044 
L 412.624951 443.959006 
L 415.677726 443.612283 
L 418.730501 443.783181 
L 421.783276 444.186341 
L 424.836051 444.541286 
L 427.888826 444.578523 
L 430.941601 444.080001 
L 433.994375 442.901613 
L 437.04715 440.991763 
L 440.099925 438.400302 
L 443.1527 435.269733 
L 446.205475 431.792549 
L 449.25825 428.183558 
L 452.311024 424.633232 
L 455.363799 421.291703 
L 458.416574 418.266095 
L 461.469349 415.601684 
L 464.522124 413.294616 
L 467.574899 411.329259 
L 470.627674 409.646349 
L 473.680448 408.183542 
L 476.733223 406.872599 
L 479.785998 405.642069 
L 482.838773 404.422945 
L 485.891548 403.17047 
L 488.944323 401.81983 
L 491.997097 400.357081 
L 495.049872 398.761589 
L 498.102647 397.012219 
L 501.155422 395.13372 
L 504.208197 393.143821 
L 507.260972 391.043188 
L 510.313746 388.886502 
L 513.366521 386.684959 
L 516.419296 384.477796 
L 519.472071 382.288833 
L 522.524846 380.135767 
L 525.577621 378.026331 
L 528.630396 375.98559 
L 531.68317 374.012597 
L 534.735945 372.109575 
L 537.78872 370.26267 
L 540.841495 368.48206 
L 543.89427 366.746796 
L 546.947045 365.055034 
L 549.999819 363.397008 
L 551.049974 362.832302 
" clip-path="url(#p915b888ad3)" style="fill: none; stroke-dasharray: 3,4.95; stroke-dashoffset: 0; stroke: #000000; stroke-width: 3"/>
   </g>
   <g id="line2d_61">
    <path d="M 351.569455 261.761505 
L 354.622229 246.277565 
L 357.675004 246.977744 
L 360.727779 239.352669 
L 363.780554 226.918325 
L 366.833329 214.521916 
L 369.886104 207.976391 
L 372.938878 211.804291 
L 375.991653 225.788408 
L 379.044428 245.09356 
L 382.097203 264.307117 
L 385.149978 280.308498 
L 388.202753 292.256527 
L 391.255528 300.528366 
L 394.308302 305.908327 
L 397.361077 309.235063 
L 400.413852 311.304057 
L 403.466627 312.816505 
L 406.519402 314.395471 
L 409.572177 316.53075 
L 412.624951 319.530553 
L 415.677726 323.461299 
L 418.730501 328.168371 
L 421.783276 333.36609 
L 424.836051 338.700778 
L 427.888826 343.873678 
L 430.941601 348.676352 
L 433.994375 353.001172 
L 437.04715 356.822165 
L 440.099925 360.17279 
L 443.1527 363.120715 
L 446.205475 365.747833 
L 449.25825 368.13653 
L 452.311024 370.367116 
L 455.363799 372.498351 
L 458.416574 374.580151 
L 461.469349 376.641212 
L 464.522124 378.694355 
L 467.574899 380.738333 
L 470.627674 382.760782 
L 473.680448 384.742935 
L 476.733223 386.664868 
L 479.785998 388.508628 
L 482.838773 390.261052 
L 485.891548 391.91512 
L 488.944323 393.471383 
L 491.997097 394.936682 
L 495.049872 396.323262 
L 498.102647 397.645025 
L 501.155422 398.923545 
L 504.208197 400.176087 
L 507.260972 401.425521 
L 510.313746 402.691678 
L 513.366521 403.993694 
L 516.419296 405.349181 
L 519.472071 406.773552 
L 522.524846 408.279552 
L 525.577621 409.878267 
L 528.630396 411.577802 
L 531.68317 413.376733 
L 534.735945 415.282619 
L 537.78872 417.292651 
L 540.841495 419.401889 
L 543.89427 421.604679 
L 546.947045 423.894083 
L 549.999819 426.261001 
L 551.049974 427.091585 
" clip-path="url(#p915b888ad3)" style="fill: none; stroke-dasharray: 11.1,4.8; stroke-dashoffset: 0; stroke: #e69f00; stroke-width: 3"/>
   </g>
   <g id="line2d_62">
    <path d="M 351.569455 320.647702 
L 354.622229 338.021713 
L 357.675004 363.103226 
L 360.727779 383.692477 
L 363.780554 401.269916 
L 366.833329 415.861831 
L 369.886104 426.38932 
L 372.938878 431.927889 
L 375.991653 433.099236 
L 379.044428 432.02021 
L 382.097203 430.819838 
L 385.149978 430.6798 
L 388.202753 431.899852 
L 391.255528 434.311498 
L 394.308302 437.554225 
L 397.361077 441.223289 
L 400.413852 444.817233 
L 403.466627 447.905294 
L 406.519402 450.038417 
L 409.572177 450.871641 
L 412.624951 450.225703 
L 415.677726 448.193464 
L 418.730501 445.080046 
L 421.783276 441.30053 
L 424.836051 437.340266 
L 427.888826 433.567077 
L 430.941601 430.235758 
L 433.994375 427.454918 
L 437.04715 425.240331 
L 440.099925 423.516833 
L 443.1527 422.175595 
L 446.205475 421.089127 
L 449.25825 420.116124 
L 452.311024 419.105238 
L 455.363799 417.973231 
L 458.416574 416.625698 
L 461.469349 415.010403 
L 464.522124 413.107048 
L 467.574899 410.933654 
L 470.627674 408.534734 
L 473.680448 405.973971 
L 476.733223 403.334219 
L 479.785998 400.671207 
L 482.838773 398.075928 
L 485.891548 395.59507 
L 488.944323 393.278026 
L 491.997097 391.148989 
L 495.049872 389.228334 
L 498.102647 387.48717 
L 501.155422 385.948901 
L 504.208197 384.556335 
L 507.260972 383.30963 
L 510.313746 382.168822 
L 513.366521 381.10034 
L 516.419296 380.070285 
L 519.472071 379.045781 
L 522.524846 377.995352 
L 525.577621 376.892267 
L 528.630396 375.713243 
L 531.68317 374.425141 
L 534.735945 373.028369 
L 537.78872 371.508811 
L 540.841495 369.856929 
L 543.89427 368.080542 
L 546.947045 366.18525 
L 549.999819 364.182527 
L 551.049974 363.471503 
" clip-path="url(#p915b888ad3)" style="fill: none; stroke-dasharray: 3,4.95; stroke-dashoffset: 0; stroke: #e69f00; stroke-width: 3"/>
   </g>
   <g id="line2d_63">
    <path d="M 351.569455 176.820145 
L 354.622229 168.65273 
L 357.675004 201.008906 
L 360.727779 237.286883 
L 363.780554 264.972362 
L 366.833329 282.564606 
L 369.886104 292.207132 
L 372.938878 296.309896 
L 375.991653 296.810459 
L 379.044428 295.29382 
L 382.097203 293.192044 
L 385.149978 291.873337 
L 388.202753 292.483352 
L 391.255528 295.662206 
L 394.308302 301.300752 
L 397.361077 308.657222 
L 400.413852 316.708901 
L 403.466627 324.559971 
L 406.519402 331.625736 
L 409.572177 337.654727 
L 412.624951 342.630523 
L 415.677726 346.676193 
L 418.730501 349.977244 
L 421.783276 352.737142 
L 424.836051 355.149906 
L 427.888826 357.385959 
L 430.941601 359.580097 
L 433.994375 361.826666 
L 437.04715 364.169316 
L 440.099925 366.614561 
L 443.1527 369.132759 
L 446.205475 371.674816 
L 449.25825 374.180616 
L 452.311024 376.596826 
L 455.363799 378.88284 
L 458.416574 381.014245 
L 461.469349 382.986024 
L 464.522124 384.801829 
L 467.574899 386.483064 
L 470.627674 388.054414 
L 473.680448 389.54368 
L 476.733223 390.981782 
L 479.785998 392.397822 
L 482.838773 393.816987 
L 485.891548 395.25988 
L 488.944323 396.743352 
L 491.997097 398.277785 
L 495.049872 399.865371 
L 498.102647 401.506407 
L 501.155422 403.192496 
L 504.208197 404.91282 
L 507.260972 406.65465 
L 510.313746 408.401413 
L 513.366521 410.141606 
L 516.419296 411.856729 
L 519.472071 413.537483 
L 522.524846 415.17521 
L 525.577621 416.764044 
L 528.630396 418.301903 
L 531.68317 419.78978 
L 534.735945 421.231543 
L 537.78872 422.632558 
L 540.841495 424.00404 
L 543.89427 425.355291 
L 546.947045 426.701146 
L 549.999819 428.056102 
L 551.049974 428.526095 
" clip-path="url(#p915b888ad3)" style="fill: none; stroke-dasharray: 11.1,4.8; stroke-dashoffset: 0; stroke: #56b4e9; stroke-width: 3"/>
   </g>
   <g id="line2d_64">
    <path d="M 351.569455 394.065361 
L 354.622229 385.564879 
L 357.675004 379.300594 
L 360.727779 379.757197 
L 363.780554 385.235272 
L 366.833329 393.273694 
L 369.886104 402.334629 
L 372.938878 411.620224 
L 375.991653 420.631829 
L 379.044428 428.890103 
L 382.097203 435.82981 
L 385.149978 440.829804 
L 388.202753 443.412931 
L 391.255528 443.486801 
L 394.308302 441.505596 
L 397.361077 438.300194 
L 400.413852 434.78425 
L 403.466627 431.653801 
L 406.519402 429.277679 
L 409.572177 427.759934 
L 412.624951 427.002148 
L 415.677726 426.794957 
L 418.730501 426.904055 
L 421.783276 427.078027 
L 424.836051 427.05813 
L 427.888826 426.664047 
L 430.941601 425.738451 
L 433.994375 424.196821 
L 437.04715 422.048964 
L 440.099925 419.3694 
L 443.1527 416.302516 
L 446.205475 413.002028 
L 449.25825 409.665217 
L 452.311024 406.447342 
L 455.363799 403.472883 
L 458.416574 400.822972 
L 461.469349 398.544722 
L 464.522124 396.621725 
L 467.574899 395.048404 
L 470.627674 393.771498 
L 473.680448 392.731873 
L 476.733223 391.863312 
L 479.785998 391.095337 
L 482.838773 390.361276 
L 485.891548 389.59739 
L 488.944323 388.750169 
L 491.997097 387.78033 
L 495.049872 386.633844 
L 498.102647 385.312181 
L 501.155422 383.80076 
L 504.208197 382.106446 
L 507.260972 380.247069 
L 510.313746 378.24659 
L 513.366521 376.14455 
L 516.419296 373.96379 
L 519.472071 371.750232 
L 522.524846 369.540544 
L 525.577621 367.364224 
L 528.630396 365.25111 
L 531.68317 363.221937 
L 534.735945 361.294852 
L 537.78872 359.473114 
L 540.841495 357.768914 
L 543.89427 356.175947 
L 546.947045 354.691665 
L 549.999819 353.308416 
L 551.049974 352.848629 
" clip-path="url(#p915b888ad3)" style="fill: none; stroke-dasharray: 3,4.95; stroke-dashoffset: 0; stroke: #56b4e9; stroke-width: 3"/>
   </g>
   <g id="line2d_65">
    <path d="M 351.569455 293.647102 
L 354.622229 293.400799 
L 357.675004 288.461735 
L 360.727779 281.686529 
L 363.780554 276.043723 
L 366.833329 274.337166 
L 369.886104 278.153799 
L 372.938878 286.911119 
L 375.991653 298.322186 
L 379.044428 309.899743 
L 382.097203 320.015997 
L 385.149978 328.044228 
L 388.202753 334.006017 
L 391.255528 338.228058 
L 394.308302 341.13756 
L 397.361077 343.171532 
L 400.413852 344.732097 
L 403.466627 346.177747 
L 406.519402 347.794713 
L 409.572177 349.774249 
L 412.624951 352.200328 
L 415.677726 355.037229 
L 418.730501 358.169548 
L 421.783276 361.437162 
L 424.836051 364.678589 
L 427.888826 367.763832 
L 430.941601 370.607561 
L 433.994375 373.171268 
L 437.04715 375.454256 
L 440.099925 377.482554 
L 443.1527 379.300386 
L 446.205475 380.958472 
L 449.25825 382.510634 
L 452.311024 384.008218 
L 455.363799 385.495102 
L 458.416574 387.006089 
L 461.469349 388.565926 
L 464.522124 390.186361 
L 467.574899 391.869473 
L 470.627674 393.604269 
L 473.680448 395.373546 
L 476.733223 397.155877 
L 479.785998 398.926519 
L 482.838773 400.663043 
L 485.891548 402.346997 
L 488.944323 403.96552 
L 491.997097 405.511572 
L 495.049872 406.984615 
L 498.102647 408.388086 
L 501.155422 409.731508 
L 504.208197 411.026954 
L 507.260972 412.28618 
L 510.313746 413.525589 
L 513.366521 414.760479 
L 516.419296 416.003347 
L 519.472071 417.267239 
L 522.524846 418.560765 
L 525.577621 419.89378 
L 528.630396 421.272063 
L 531.68317 422.696941 
L 534.735945 424.169947 
L 537.78872 425.688736 
L 540.841495 427.249742 
L 543.89427 428.847518 
L 546.947045 430.475448 
L 549.999819 432.127056 
L 551.049974 432.6993 
" clip-path="url(#p915b888ad3)" style="fill: none; stroke-dasharray: 11.1,4.8; stroke-dashoffset: 0; stroke: #009e73; stroke-width: 3"/>
   </g>
   <g id="line2d_66">
    <path d="M 351.569455 361.323486 
L 354.622229 377.982492 
L 357.675004 391.048622 
L 360.727779 401.048541 
L 363.780554 407.865293 
L 366.833329 411.409454 
L 369.886104 412.207345 
L 372.938878 411.501486 
L 375.991653 410.703823 
L 379.044428 410.749094 
L 382.097203 411.958172 
L 385.149978 414.192351 
L 388.202753 417.118578 
L 391.255528 420.344019 
L 394.308302 423.47478 
L 397.361077 426.122768 
L 400.413852 427.946856 
L 403.466627 428.65995 
L 406.519402 428.090118 
L 409.572177 426.225704 
L 412.624951 423.217089 
L 415.677726 419.393272 
L 418.730501 415.150829 
L 421.783276 410.898211 
L 424.836051 406.967803 
L 427.888826 403.590302 
L 430.941601 400.880442 
L 433.994375 398.854964 
L 437.04715 397.455475 
L 440.099925 396.583962 
L 443.1527 396.111221 
L 446.205475 395.898856 
L 449.25825 395.806034 
L 452.311024 395.70269 
L 455.363799 395.469225 
L 458.416574 395.01006 
L 461.469349 394.245079 
L 464.522124 393.133837 
L 467.574899 391.6625 
L 470.627674 389.850046 
L 473.680448 387.729151 
L 476.733223 385.374085 
L 479.785998 382.859971 
L 482.838773 380.27196 
L 485.891548 377.682712 
L 488.944323 375.172307 
L 491.997097 372.793341 
L 495.049872 370.59176 
L 498.102647 368.591491 
L 501.155422 366.807321 
L 504.208197 365.240982 
L 507.260972 363.869514 
L 510.313746 362.684622 
L 513.366521 361.654845 
L 516.419296 360.748755 
L 519.472071 359.929222 
L 522.524846 359.158669 
L 525.577621 358.400682 
L 528.630396 357.621013 
L 531.68317 356.784232 
L 534.735945 355.864197 
L 537.78872 354.837679 
L 540.841495 353.689964 
L 543.89427 352.413688 
L 546.947045 351.009137 
L 549.999819 349.487624 
L 551.049974 348.939881 
" clip-path="url(#p915b888ad3)" style="fill: none; stroke-dasharray: 3,4.95; stroke-dashoffset: 0; stroke: #009e73; stroke-width: 3"/>
   </g>
   <g id="line2d_67">
    <path d="M 341.595429 383.78816 
L 561.024 383.78816 
" clip-path="url(#p915b888ad3)" style="fill: none; stroke: #000000; stroke-opacity: 0.25; stroke-width: 1.5; stroke-linecap: square"/>
   </g>
   <g id="patch_12">
    <path d="M 341.595429 630 
L 341.595429 83.52 
" style="fill: none; stroke: #000000; stroke-width: 0.8; stroke-linejoin: miter; stroke-linecap: square"/>
   </g>
   <g id="patch_13">
    <path d="M 561.024 630 
L 561.024 83.52 
" style="fill: none; stroke: #000000; stroke-width: 0.8; stroke-linejoin: miter; stroke-linecap: square"/>
   </g>
   <g id="patch_14">
    <path d="M 341.595429 630 
L 561.024 630 
" style="fill: none; stroke: #000000; stroke-width: 0.8; stroke-linejoin: miter; stroke-linecap: square"/>
   </g>
   <g id="patch_15">
    <path d="M 341.595429 83.52 
L 561.024 83.52 
" style="fill: none; stroke: #000000; stroke-width: 0.8; stroke-linejoin: miter; stroke-linecap: square"/>
   </g>
   <g id="text_27">
    <!-- 40MeV -->
    <g transform="translate(362.105696 134.008625) scale(0.2 -0.2)">
     <use xlink:href="#DejaVuSans-34"/>
     <use xlink:href="#DejaVuSans-30" transform="translate(63.623047 0)"/>
     <use xlink:href="#DejaVuSans-4d" transform="translate(127.246094 0)"/>
     <use xlink:href="#DejaVuSans-65" transform="translate(213.525391 0)"/>
     <use xlink:href="#DejaVuSans-56" transform="translate(275.048828 0)"/>
    </g>
   </g>
   <g id="legend_2">
    <g id="line2d_68">
     <path d="M 462.887437 107.097187 
L 480.887437 107.097187 
L 498.887437 107.097187 
" style="fill: none; stroke: #000000; stroke-width: 2; stroke-linecap: square"/>
    </g>
    <g id="text_28">
     <!-- l=0 -->
     <g transform="translate(513.287438 113.397187) scale(0.18 -0.18)">
      <defs>
       <path id="DejaVuSans-6c" d="M 603 4863 
L 1178 4863 
L 1178 0 
L 603 0 
L 603 4863 
z
" transform="scale(0.015625)"/>
       <path id="DejaVuSans-3d" d="M 678 2906 
L 4684 2906 
L 4684 2381 
L 678 2381 
L 678 2906 
z
M 678 1631 
L 4684 1631 
L 4684 1100 
L 678 1100 
L 678 1631 
z
" transform="scale(0.015625)"/>
      </defs>
      <use xlink:href="#DejaVuSans-6c"/>
      <use xlink:href="#DejaVuSans-3d" transform="translate(27.783203 0)"/>
      <use xlink:href="#DejaVuSans-30" transform="translate(111.572266 0)"/>
     </g>
    </g>
    <g id="line2d_69">
     <path d="M 462.887437 133.517812 
L 480.887437 133.517812 
L 498.887437 133.517812 
" style="fill: none; stroke: #e69f00; stroke-width: 2; stroke-linecap: square"/>
    </g>
    <g id="text_29">
     <!-- l=1 -->
     <g transform="translate(513.287438 139.817812) scale(0.18 -0.18)">
      <use xlink:href="#DejaVuSans-6c"/>
      <use xlink:href="#DejaVuSans-3d" transform="translate(27.783203 0)"/>
      <use xlink:href="#DejaVuSans-31" transform="translate(111.572266 0)"/>
     </g>
    </g>
    <g id="line2d_70">
     <path d="M 462.887437 159.938437 
L 480.887437 159.938437 
L 498.887437 159.938437 
" style="fill: none; stroke: #56b4e9; stroke-width: 2; stroke-linecap: square"/>
    </g>
    <g id="text_30">
     <!-- l=2 -->
     <g transform="translate(513.287438 166.238437) scale(0.18 -0.18)">
      <use xlink:href="#DejaVuSans-6c"/>
      <use xlink:href="#DejaVuSans-3d" transform="translate(27.783203 0)"/>
      <use xlink:href="#DejaVuSans-32" transform="translate(111.572266 0)"/>
     </g>
    </g>
    <g id="line2d_71">
     <path d="M 462.887437 186.359062 
L 480.887437 186.359062 
L 498.887437 186.359062 
" style="fill: none; stroke: #009e73; stroke-width: 2; stroke-linecap: square"/>
    </g>
    <g id="text_31">
     <!-- l=3 -->
     <g transform="translate(513.287438 192.659063) scale(0.18 -0.18)">
      <use xlink:href="#DejaVuSans-6c"/>
      <use xlink:href="#DejaVuSans-3d" transform="translate(27.783203 0)"/>
      <use xlink:href="#DejaVuSans-33" transform="translate(111.572266 0)"/>
     </g>
    </g>
   </g>
  </g>
 </g>
 <defs>
  <clipPath id="pd8fb24d7ea">
   <rect x="114.048" y="83.52" width="219.428571" height="546.48"/>
  </clipPath>
  <clipPath id="p915b888ad3">
   <rect x="341.595429" y="83.52" width="219.428571" height="546.48"/>
  </clipPath>
 </defs>
</svg>
