<?xml version="1.0" encoding="utf-8" standalone="no"?>
<!DOCTYPE svg PUBLIC "-//W3C//DTD SVG 1.1//EN"
  "http://www.w3.org/Graphics/SVG/1.1/DTD/svg11.dtd">
<svg xmlns:xlink="http://www.w3.org/1999/xlink" width="648pt" height="720pt" viewBox="0 0 648 720" xmlns="http://www.w3.org/2000/svg" version="1.1">
 <metadata>
  <rdf:RDF xmlns:dc="http://purl.org/dc/elements/1.1/" xmlns:cc="http://creativecommons.org/ns#" xmlns:rdf="http://www.w3.org/1999/02/22-rdf-syntax-ns#">
   <cc:Work>
    <dc:type rdf:resource="http://purl.org/dc/dcmitype/StillImage"/>
    <dc:date>2026-03-23T16:53:56.438107</dc:date>
    <dc:format>image/svg+xml</dc:format>
    <dc:creator>
     <cc:Agent>
      <dc:title>Matplotlib v3.10.8, https://matplotlib.org/</dc:title>
     </cc:Agent>
    </dc:creator>
   </cc:Work>
  </rdf:RDF>
 </metadata>
 <defs>
  <style type="text/css">*{stroke-linejoin: round; stroke-linecap: butt}</style>
 </defs>
 <g id="figure_1">
  <g id="patch_1">
   <path d="M 0 720 
L 648 720 
L 648 0 
L 0 0 
L 0 720 
z
" style="fill: none"/>
  </g>
  <g id="axes_1">
   <g id="patch_2">
    <path d="M 134.136 630 
L 378.130109 630 
L 378.130109 83.52 
L 134.136 83.52 
L 134.136 630 
z
" style="fill: none"/>
   </g>
   <g id="axes_2">
    <g id="patch_3">
     <path d="M 134.136 83.52 
L 378.130109 83.52 
L 378.130109 83.52 
L 134.136 83.52 
L 134.136 83.52 
z
" style="fill: none"/>
    </g>
    <g id="matplotlib.axis_1">
     <g id="xtick_1">
      <g id="line2d_1">
       <defs>
        <path id="m2c1941a71d" d="M 0 0 
L 0 -3.5 
" style="stroke: #000000; stroke-width: 0.8"/>
       </defs>
       <g>
        <use xlink:href="#m2c1941a71d" x="377.951341" y="83.52" style="stroke: #000000; stroke-width: 0.8"/>
       </g>
      </g>
      <g id="text_1">
       <!-- 5 -->
       <g transform="translate(369.043841 70.696875) scale(0.28 -0.28)">
        <defs>
         <path id="DejaVuSans-35" d="M 691 4666 
L 3169 4666 
L 3169 4134 
L 1269 4134 
L 1269 2991 
Q 1406 3038 1543 3061 
Q 1681 3084 1819 3084 
Q 2600 3084 3056 2656 
Q 3513 2228 3513 1497 
Q 3513 744 3044 326 
Q 2575 -91 1722 -91 
Q 1428 -91 1123 -41 
Q 819 9 494 109 
L 494 744 
Q 775 591 1075 516 
Q 1375 441 1709 441 
Q 2250 441 2565 725 
Q 2881 1009 2881 1497 
Q 2881 1984 2565 2268 
Q 2250 2553 1709 2553 
Q 1456 2553 1204 2497 
Q 953 2441 691 2322 
L 691 4666 
z
" transform="scale(0.015625)"/>
        </defs>
        <use xlink:href="#DejaVuSans-35"/>
       </g>
      </g>
     </g>
     <g id="xtick_2">
      <g id="line2d_2">
       <g>
        <use xlink:href="#m2c1941a71d" x="308.010933" y="83.52" style="stroke: #000000; stroke-width: 0.8"/>
       </g>
      </g>
      <g id="text_2">
       <!-- 10 -->
       <g transform="translate(290.195933 70.696875) scale(0.28 -0.28)">
        <defs>
         <path id="DejaVuSans-31" d="M 794 531 
L 1825 531 
L 1825 4091 
L 703 3866 
L 703 4441 
L 1819 4666 
L 2450 4666 
L 2450 531 
L 3481 531 
L 3481 0 
L 794 0 
L 794 531 
z
" transform="scale(0.015625)"/>
         <path id="DejaVuSans-30" d="M 2034 4250 
Q 1547 4250 1301 3770 
Q 1056 3291 1056 2328 
Q 1056 1369 1301 889 
Q 1547 409 2034 409 
Q 2525 409 2770 889 
Q 3016 1369 3016 2328 
Q 3016 3291 2770 3770 
Q 2525 4250 2034 4250 
z
M 2034 4750 
Q 2819 4750 3233 4129 
Q 3647 3509 3647 2328 
Q 3647 1150 3233 529 
Q 2819 -91 2034 -91 
Q 1250 -91 836 529 
Q 422 1150 422 2328 
Q 422 3509 836 4129 
Q 1250 4750 2034 4750 
z
" transform="scale(0.015625)"/>
        </defs>
        <use xlink:href="#DejaVuSans-31"/>
        <use xlink:href="#DejaVuSans-30" transform="translate(63.623047 0)"/>
       </g>
      </g>
     </g>
     <g id="xtick_3">
      <g id="line2d_3">
       <g>
        <use xlink:href="#m2c1941a71d" x="238.070524" y="83.52" style="stroke: #000000; stroke-width: 0.8"/>
       </g>
      </g>
      <g id="text_3">
       <!-- 15 -->
       <g transform="translate(220.255524 70.696875) scale(0.28 -0.28)">
        <use xlink:href="#DejaVuSans-31"/>
        <use xlink:href="#DejaVuSans-35" transform="translate(63.623047 0)"/>
       </g>
      </g>
     </g>
     <g id="xtick_4">
      <g id="line2d_4">
       <g>
        <use xlink:href="#m2c1941a71d" x="168.130116" y="83.52" style="stroke: #000000; stroke-width: 0.8"/>
       </g>
      </g>
      <g id="text_4">
       <!-- 20 -->
       <g transform="translate(150.315116 70.696875) scale(0.28 -0.28)">
        <defs>
         <path id="DejaVuSans-32" d="M 1228 531 
L 3431 531 
L 3431 0 
L 469 0 
L 469 531 
Q 828 903 1448 1529 
Q 2069 2156 2228 2338 
Q 2531 2678 2651 2914 
Q 2772 3150 2772 3378 
Q 2772 3750 2511 3984 
Q 2250 4219 1831 4219 
Q 1534 4219 1204 4116 
Q 875 4013 500 3803 
L 500 4441 
Q 881 4594 1212 4672 
Q 1544 4750 1819 4750 
Q 2544 4750 2975 4387 
Q 3406 4025 3406 3419 
Q 3406 3131 3298 2873 
Q 3191 2616 2906 2266 
Q 2828 2175 2409 1742 
Q 1991 1309 1228 531 
z
" transform="scale(0.015625)"/>
        </defs>
        <use xlink:href="#DejaVuSans-32"/>
        <use xlink:href="#DejaVuSans-30" transform="translate(63.623047 0)"/>
       </g>
      </g>
     </g>
     <g id="text_5">
      <!-- $E_t$ (MeV) -->
      <g transform="translate(176.333054 34.42125) scale(0.38 -0.38)">
       <defs>
        <path id="DejaVuSans-Oblique-45" d="M 1081 4666 
L 4031 4666 
L 3928 4134 
L 1606 4134 
L 1338 2753 
L 3566 2753 
L 3463 2222 
L 1234 2222 
L 909 531 
L 3284 531 
L 3181 0 
L 172 0 
L 1081 4666 
z
" transform="scale(0.015625)"/>
        <path id="DejaVuSans-Oblique-74" d="M 2706 3500 
L 2619 3053 
L 1472 3053 
L 1100 1153 
Q 1081 1047 1072 975 
Q 1063 903 1063 863 
Q 1063 663 1183 572 
Q 1303 481 1569 481 
L 2150 481 
L 2053 0 
L 1503 0 
Q 991 0 739 200 
Q 488 400 488 806 
Q 488 878 497 964 
Q 506 1050 525 1153 
L 897 3053 
L 409 3053 
L 500 3500 
L 978 3500 
L 1172 4494 
L 1747 4494 
L 1556 3500 
L 2706 3500 
z
" transform="scale(0.015625)"/>
        <path id="DejaVuSans-20" transform="scale(0.015625)"/>
        <path id="DejaVuSans-28" d="M 1984 4856 
Q 1566 4138 1362 3434 
Q 1159 2731 1159 2009 
Q 1159 1288 1364 580 
Q 1569 -128 1984 -844 
L 1484 -844 
Q 1016 -109 783 600 
Q 550 1309 550 2009 
Q 550 2706 781 3412 
Q 1013 4119 1484 4856 
L 1984 4856 
z
" transform="scale(0.015625)"/>
        <path id="DejaVuSans-4d" d="M 628 4666 
L 1569 4666 
L 2759 1491 
L 3956 4666 
L 4897 4666 
L 4897 0 
L 4281 0 
L 4281 4097 
L 3078 897 
L 2444 897 
L 1241 4097 
L 1241 0 
L 628 0 
L 628 4666 
z
" transform="scale(0.015625)"/>
        <path id="DejaVuSans-65" d="M 3597 1894 
L 3597 1613 
L 953 1613 
Q 991 1019 1311 708 
Q 1631 397 2203 397 
Q 2534 397 2845 478 
Q 3156 559 3463 722 
L 3463 178 
Q 3153 47 2828 -22 
Q 2503 -91 2169 -91 
Q 1331 -91 842 396 
Q 353 884 353 1716 
Q 353 2575 817 3079 
Q 1281 3584 2069 3584 
Q 2775 3584 3186 3129 
Q 3597 2675 3597 1894 
z
M 3022 2063 
Q 3016 2534 2758 2815 
Q 2500 3097 2075 3097 
Q 1594 3097 1305 2825 
Q 1016 2553 972 2059 
L 3022 2063 
z
" transform="scale(0.015625)"/>
        <path id="DejaVuSans-56" d="M 1831 0 
L 50 4666 
L 709 4666 
L 2188 738 
L 3669 4666 
L 4325 4666 
L 2547 0 
L 1831 0 
z
" transform="scale(0.015625)"/>
        <path id="DejaVuSans-29" d="M 513 4856 
L 1013 4856 
Q 1481 4119 1714 3412 
Q 1947 2706 1947 2009 
Q 1947 1309 1714 600 
Q 1481 -109 1013 -844 
L 513 -844 
Q 928 -128 1133 580 
Q 1338 1288 1338 2009 
Q 1338 2731 1133 3434 
Q 928 4138 513 4856 
z
" transform="scale(0.015625)"/>
       </defs>
       <use xlink:href="#DejaVuSans-Oblique-45" transform="translate(0 0.125)"/>
       <use xlink:href="#DejaVuSans-Oblique-74" transform="translate(63.183594 -16.28125) scale(0.7)"/>
       <use xlink:href="#DejaVuSans-20" transform="translate(93.364258 0.125)"/>
       <use xlink:href="#DejaVuSans-28" transform="translate(125.151367 0.125)"/>
       <use xlink:href="#DejaVuSans-4d" transform="translate(164.165039 0.125)"/>
       <use xlink:href="#DejaVuSans-65" transform="translate(250.444336 0.125)"/>
       <use xlink:href="#DejaVuSans-56" transform="translate(311.967773 0.125)"/>
       <use xlink:href="#DejaVuSans-29" transform="translate(380.375977 0.125)"/>
      </g>
     </g>
    </g>
    <g id="matplotlib.axis_2"/>
    <g id="patch_4">
     <path d="M 378.130109 83.52 
L 134.136 83.52 
" style="fill: none; stroke: #000000; stroke-width: 0.8; stroke-linejoin: miter; stroke-linecap: square"/>
    </g>
   </g>
   <g id="matplotlib.axis_3">
    <g id="xtick_5">
     <g id="line2d_5">
      <path d="M 135.534808 630 
L 135.534808 83.52 
" clip-path="url(#p3da2b1aa64)" style="fill: none; stroke: #b0b0b0; stroke-opacity: 0.2; stroke-width: 0.8; stroke-linecap: square"/>
     </g>
     <g id="line2d_6">
      <defs>
       <path id="m43609703f7" d="M 0 0 
L 0 3.5 
" style="stroke: #000000; stroke-width: 0.8"/>
      </defs>
      <g>
       <use xlink:href="#m43609703f7" x="135.534808" y="630" style="stroke: #000000; stroke-width: 0.8"/>
      </g>
     </g>
     <g id="text_6">
      <!-- 0 -->
      <g transform="translate(126.627308 658.275625) scale(0.28 -0.28)">
       <use xlink:href="#DejaVuSans-30"/>
      </g>
     </g>
    </g>
    <g id="xtick_6">
     <g id="line2d_7">
      <path d="M 205.475217 630 
L 205.475217 83.52 
" clip-path="url(#p3da2b1aa64)" style="fill: none; stroke: #b0b0b0; stroke-opacity: 0.2; stroke-width: 0.8; stroke-linecap: square"/>
     </g>
     <g id="line2d_8">
      <g>
       <use xlink:href="#m43609703f7" x="205.475217" y="630" style="stroke: #000000; stroke-width: 0.8"/>
      </g>
     </g>
     <g id="text_7">
      <!-- 5 -->
      <g transform="translate(196.567717 658.275625) scale(0.28 -0.28)">
       <use xlink:href="#DejaVuSans-35"/>
      </g>
     </g>
    </g>
    <g id="xtick_7">
     <g id="line2d_9">
      <path d="M 275.415625 630 
L 275.415625 83.52 
" clip-path="url(#p3da2b1aa64)" style="fill: none; stroke: #b0b0b0; stroke-opacity: 0.2; stroke-width: 0.8; stroke-linecap: square"/>
     </g>
     <g id="line2d_10">
      <g>
       <use xlink:href="#m43609703f7" x="275.415625" y="630" style="stroke: #000000; stroke-width: 0.8"/>
      </g>
     </g>
     <g id="text_8">
      <!-- 10 -->
      <g transform="translate(257.600625 658.275625) scale(0.28 -0.28)">
       <use xlink:href="#DejaVuSans-31"/>
       <use xlink:href="#DejaVuSans-30" transform="translate(63.623047 0)"/>
      </g>
     </g>
    </g>
    <g id="xtick_8">
     <g id="line2d_11">
      <path d="M 345.356034 630 
L 345.356034 83.52 
" clip-path="url(#p3da2b1aa64)" style="fill: none; stroke: #b0b0b0; stroke-opacity: 0.2; stroke-width: 0.8; stroke-linecap: square"/>
     </g>
     <g id="line2d_12">
      <g>
       <use xlink:href="#m43609703f7" x="345.356034" y="630" style="stroke: #000000; stroke-width: 0.8"/>
      </g>
     </g>
     <g id="text_9">
      <!-- 15 -->
      <g transform="translate(327.541034 658.275625) scale(0.28 -0.28)">
       <use xlink:href="#DejaVuSans-31"/>
       <use xlink:href="#DejaVuSans-35" transform="translate(63.623047 0)"/>
      </g>
     </g>
    </g>
    <g id="text_10">
     <!-- $E_{ex}$ (MeV) -->
     <g transform="translate(165.503054 696.972813) scale(0.38 -0.38)">
      <defs>
       <path id="DejaVuSans-Oblique-65" d="M 3078 2063 
Q 3088 2113 3092 2166 
Q 3097 2219 3097 2272 
Q 3097 2653 2873 2875 
Q 2650 3097 2266 3097 
Q 1838 3097 1509 2826 
Q 1181 2556 1013 2059 
L 3078 2063 
z
M 3578 1613 
L 903 1613 
Q 884 1494 878 1425 
Q 872 1356 872 1306 
Q 872 872 1139 634 
Q 1406 397 1894 397 
Q 2269 397 2603 481 
Q 2938 566 3225 728 
L 3116 159 
Q 2806 34 2476 -28 
Q 2147 -91 1806 -91 
Q 1078 -91 686 257 
Q 294 606 294 1247 
Q 294 1794 489 2264 
Q 684 2734 1063 3103 
Q 1306 3334 1642 3459 
Q 1978 3584 2356 3584 
Q 2950 3584 3301 3228 
Q 3653 2872 3653 2272 
Q 3653 2128 3634 1964 
Q 3616 1800 3578 1613 
z
" transform="scale(0.015625)"/>
       <path id="DejaVuSans-Oblique-78" d="M 3841 3500 
L 2234 1784 
L 3219 0 
L 2559 0 
L 1819 1388 
L 531 0 
L -166 0 
L 1556 1844 
L 641 3500 
L 1300 3500 
L 1972 2234 
L 3144 3500 
L 3841 3500 
z
" transform="scale(0.015625)"/>
      </defs>
      <use xlink:href="#DejaVuSans-Oblique-45" transform="translate(0 0.125)"/>
      <use xlink:href="#DejaVuSans-Oblique-65" transform="translate(63.183594 -16.28125) scale(0.7)"/>
      <use xlink:href="#DejaVuSans-Oblique-78" transform="translate(106.25 -16.28125) scale(0.7)"/>
      <use xlink:href="#DejaVuSans-20" transform="translate(150.410156 0.125)"/>
      <use xlink:href="#DejaVuSans-28" transform="translate(182.197266 0.125)"/>
      <use xlink:href="#DejaVuSans-4d" transform="translate(221.210938 0.125)"/>
      <use xlink:href="#DejaVuSans-65" transform="translate(307.490234 0.125)"/>
      <use xlink:href="#DejaVuSans-56" transform="translate(369.013672 0.125)"/>
      <use xlink:href="#DejaVuSans-29" transform="translate(437.421875 0.125)"/>
     </g>
    </g>
   </g>
   <g id="matplotlib.axis_4">
    <g id="ytick_1">
     <g id="line2d_13">
      <path d="M 134.136 630 
L 378.130109 630 
" clip-path="url(#p3da2b1aa64)" style="fill: none; stroke: #b0b0b0; stroke-opacity: 0.2; stroke-width: 0.8; stroke-linecap: square"/>
     </g>
     <g id="line2d_14">
      <defs>
       <path id="mfbfdb9a5c7" d="M 0 0 
L -3.5 0 
" style="stroke: #000000; stroke-width: 0.8"/>
      </defs>
      <g>
       <use xlink:href="#mfbfdb9a5c7" x="134.136" y="630" style="stroke: #000000; stroke-width: 0.8"/>
      </g>
     </g>
     <g id="text_11">
      <!-- 0.950 -->
      <g transform="translate(46.97725 640.637812) scale(0.28 -0.28)">
       <defs>
        <path id="DejaVuSans-2e" d="M 684 794 
L 1344 794 
L 1344 0 
L 684 0 
L 684 794 
z
" transform="scale(0.015625)"/>
        <path id="DejaVuSans-39" d="M 703 97 
L 703 672 
Q 941 559 1184 500 
Q 1428 441 1663 441 
Q 2288 441 2617 861 
Q 2947 1281 2994 2138 
Q 2813 1869 2534 1725 
Q 2256 1581 1919 1581 
Q 1219 1581 811 2004 
Q 403 2428 403 3163 
Q 403 3881 828 4315 
Q 1253 4750 1959 4750 
Q 2769 4750 3195 4129 
Q 3622 3509 3622 2328 
Q 3622 1225 3098 567 
Q 2575 -91 1691 -91 
Q 1453 -91 1209 -44 
Q 966 3 703 97 
z
M 1959 2075 
Q 2384 2075 2632 2365 
Q 2881 2656 2881 3163 
Q 2881 3666 2632 3958 
Q 2384 4250 1959 4250 
Q 1534 4250 1286 3958 
Q 1038 3666 1038 3163 
Q 1038 2656 1286 2365 
Q 1534 2075 1959 2075 
z
" transform="scale(0.015625)"/>
       </defs>
       <use xlink:href="#DejaVuSans-30"/>
       <use xlink:href="#DejaVuSans-2e" transform="translate(63.623047 0)"/>
       <use xlink:href="#DejaVuSans-39" transform="translate(95.410156 0)"/>
       <use xlink:href="#DejaVuSans-35" transform="translate(159.033203 0)"/>
       <use xlink:href="#DejaVuSans-30" transform="translate(222.65625 0)"/>
      </g>
     </g>
    </g>
    <g id="ytick_2">
     <g id="line2d_15">
      <path d="M 134.136 561.69 
L 378.130109 561.69 
" clip-path="url(#p3da2b1aa64)" style="fill: none; stroke: #b0b0b0; stroke-opacity: 0.2; stroke-width: 0.8; stroke-linecap: square"/>
     </g>
     <g id="line2d_16">
      <g>
       <use xlink:href="#mfbfdb9a5c7" x="134.136" y="561.69" style="stroke: #000000; stroke-width: 0.8"/>
      </g>
     </g>
     <g id="text_12">
      <!-- 0.975 -->
      <g transform="translate(46.97725 572.327813) scale(0.28 -0.28)">
       <defs>
        <path id="DejaVuSans-37" d="M 525 4666 
L 3525 4666 
L 3525 4397 
L 1831 0 
L 1172 0 
L 2766 4134 
L 525 4134 
L 525 4666 
z
" transform="scale(0.015625)"/>
       </defs>
       <use xlink:href="#DejaVuSans-30"/>
       <use xlink:href="#DejaVuSans-2e" transform="translate(63.623047 0)"/>
       <use xlink:href="#DejaVuSans-39" transform="translate(95.410156 0)"/>
       <use xlink:href="#DejaVuSans-37" transform="translate(159.033203 0)"/>
       <use xlink:href="#DejaVuSans-35" transform="translate(222.65625 0)"/>
      </g>
     </g>
    </g>
    <g id="ytick_3">
     <g id="line2d_17">
      <path d="M 134.136 493.38 
L 378.130109 493.38 
" clip-path="url(#p3da2b1aa64)" style="fill: none; stroke: #b0b0b0; stroke-opacity: 0.2; stroke-width: 0.8; stroke-linecap: square"/>
     </g>
     <g id="line2d_18">
      <g>
       <use xlink:href="#mfbfdb9a5c7" x="134.136" y="493.38" style="stroke: #000000; stroke-width: 0.8"/>
      </g>
     </g>
     <g id="text_13">
      <!-- 1.000 -->
      <g transform="translate(46.97725 504.017813) scale(0.28 -0.28)">
       <use xlink:href="#DejaVuSans-31"/>
       <use xlink:href="#DejaVuSans-2e" transform="translate(63.623047 0)"/>
       <use xlink:href="#DejaVuSans-30" transform="translate(95.410156 0)"/>
       <use xlink:href="#DejaVuSans-30" transform="translate(159.033203 0)"/>
       <use xlink:href="#DejaVuSans-30" transform="translate(222.65625 0)"/>
      </g>
     </g>
    </g>
    <g id="ytick_4">
     <g id="line2d_19">
      <path d="M 134.136 425.07 
L 378.130109 425.07 
" clip-path="url(#p3da2b1aa64)" style="fill: none; stroke: #b0b0b0; stroke-opacity: 0.2; stroke-width: 0.8; stroke-linecap: square"/>
     </g>
     <g id="line2d_20">
      <g>
       <use xlink:href="#mfbfdb9a5c7" x="134.136" y="425.07" style="stroke: #000000; stroke-width: 0.8"/>
      </g>
     </g>
     <g id="text_14">
      <!-- 1.025 -->
      <g transform="translate(46.97725 435.707812) scale(0.28 -0.28)">
       <use xlink:href="#DejaVuSans-31"/>
       <use xlink:href="#DejaVuSans-2e" transform="translate(63.623047 0)"/>
       <use xlink:href="#DejaVuSans-30" transform="translate(95.410156 0)"/>
       <use xlink:href="#DejaVuSans-32" transform="translate(159.033203 0)"/>
       <use xlink:href="#DejaVuSans-35" transform="translate(222.65625 0)"/>
      </g>
     </g>
    </g>
    <g id="ytick_5">
     <g id="line2d_21">
      <path d="M 134.136 356.76 
L 378.130109 356.76 
" clip-path="url(#p3da2b1aa64)" style="fill: none; stroke: #b0b0b0; stroke-opacity: 0.2; stroke-width: 0.8; stroke-linecap: square"/>
     </g>
     <g id="line2d_22">
      <g>
       <use xlink:href="#mfbfdb9a5c7" x="134.136" y="356.76" style="stroke: #000000; stroke-width: 0.8"/>
      </g>
     </g>
     <g id="text_15">
      <!-- 1.050 -->
      <g transform="translate(46.97725 367.397812) scale(0.28 -0.28)">
       <use xlink:href="#DejaVuSans-31"/>
       <use xlink:href="#DejaVuSans-2e" transform="translate(63.623047 0)"/>
       <use xlink:href="#DejaVuSans-30" transform="translate(95.410156 0)"/>
       <use xlink:href="#DejaVuSans-35" transform="translate(159.033203 0)"/>
       <use xlink:href="#DejaVuSans-30" transform="translate(222.65625 0)"/>
      </g>
     </g>
    </g>
    <g id="ytick_6">
     <g id="line2d_23">
      <path d="M 134.136 288.45 
L 378.130109 288.45 
" clip-path="url(#p3da2b1aa64)" style="fill: none; stroke: #b0b0b0; stroke-opacity: 0.2; stroke-width: 0.8; stroke-linecap: square"/>
     </g>
     <g id="line2d_24">
      <g>
       <use xlink:href="#mfbfdb9a5c7" x="134.136" y="288.45" style="stroke: #000000; stroke-width: 0.8"/>
      </g>
     </g>
     <g id="text_16">
      <!-- 1.075 -->
      <g transform="translate(46.97725 299.087812) scale(0.28 -0.28)">
       <use xlink:href="#DejaVuSans-31"/>
       <use xlink:href="#DejaVuSans-2e" transform="translate(63.623047 0)"/>
       <use xlink:href="#DejaVuSans-30" transform="translate(95.410156 0)"/>
       <use xlink:href="#DejaVuSans-37" transform="translate(159.033203 0)"/>
       <use xlink:href="#DejaVuSans-35" transform="translate(222.65625 0)"/>
      </g>
     </g>
    </g>
    <g id="ytick_7">
     <g id="line2d_25">
      <path d="M 134.136 220.14 
L 378.130109 220.14 
" clip-path="url(#p3da2b1aa64)" style="fill: none; stroke: #b0b0b0; stroke-opacity: 0.2; stroke-width: 0.8; stroke-linecap: square"/>
     </g>
     <g id="line2d_26">
      <g>
       <use xlink:href="#mfbfdb9a5c7" x="134.136" y="220.14" style="stroke: #000000; stroke-width: 0.8"/>
      </g>
     </g>
     <g id="text_17">
      <!-- 1.100 -->
      <g transform="translate(46.97725 230.777812) scale(0.28 -0.28)">
       <use xlink:href="#DejaVuSans-31"/>
       <use xlink:href="#DejaVuSans-2e" transform="translate(63.623047 0)"/>
       <use xlink:href="#DejaVuSans-31" transform="translate(95.410156 0)"/>
       <use xlink:href="#DejaVuSans-30" transform="translate(159.033203 0)"/>
       <use xlink:href="#DejaVuSans-30" transform="translate(222.65625 0)"/>
      </g>
     </g>
    </g>
    <g id="ytick_8">
     <g id="line2d_27">
      <path d="M 134.136 151.83 
L 378.130109 151.83 
" clip-path="url(#p3da2b1aa64)" style="fill: none; stroke: #b0b0b0; stroke-opacity: 0.2; stroke-width: 0.8; stroke-linecap: square"/>
     </g>
     <g id="line2d_28">
      <g>
       <use xlink:href="#mfbfdb9a5c7" x="134.136" y="151.83" style="stroke: #000000; stroke-width: 0.8"/>
      </g>
     </g>
     <g id="text_18">
      <!-- 1.125 -->
      <g transform="translate(46.97725 162.467812) scale(0.28 -0.28)">
       <use xlink:href="#DejaVuSans-31"/>
       <use xlink:href="#DejaVuSans-2e" transform="translate(63.623047 0)"/>
       <use xlink:href="#DejaVuSans-31" transform="translate(95.410156 0)"/>
       <use xlink:href="#DejaVuSans-32" transform="translate(159.033203 0)"/>
       <use xlink:href="#DejaVuSans-35" transform="translate(222.65625 0)"/>
      </g>
     </g>
    </g>
    <g id="ytick_9">
     <g id="line2d_29">
      <path d="M 134.136 83.52 
L 378.130109 83.52 
" clip-path="url(#p3da2b1aa64)" style="fill: none; stroke: #b0b0b0; stroke-opacity: 0.2; stroke-width: 0.8; stroke-linecap: square"/>
     </g>
     <g id="line2d_30">
      <g>
       <use xlink:href="#mfbfdb9a5c7" x="134.136" y="83.52" style="stroke: #000000; stroke-width: 0.8"/>
      </g>
     </g>
     <g id="text_19">
      <!-- 1.150 -->
      <g transform="translate(46.97725 94.157812) scale(0.28 -0.28)">
       <use xlink:href="#DejaVuSans-31"/>
       <use xlink:href="#DejaVuSans-2e" transform="translate(63.623047 0)"/>
       <use xlink:href="#DejaVuSans-31" transform="translate(95.410156 0)"/>
       <use xlink:href="#DejaVuSans-35" transform="translate(159.033203 0)"/>
       <use xlink:href="#DejaVuSans-30" transform="translate(222.65625 0)"/>
      </g>
     </g>
    </g>
    <g id="text_20">
     <!-- $\sigma_{LE}/\sigma_{NL}$ -->
     <g transform="translate(35.074437 421.55) rotate(-90) scale(0.38 -0.38)">
      <defs>
       <path id="DejaVuSans-Oblique-3c3" d="M 2219 3044 
Q 1744 3044 1422 2700 
Q 1081 2341 969 1747 
Q 844 1119 1044 756 
Q 1241 397 1706 397 
Q 2166 397 2503 759 
Q 2844 1122 2966 1747 
Q 3075 2319 2881 2700 
Q 2700 3044 2219 3044 
z
M 2309 3503 
L 4219 3500 
L 4106 2925 
L 3463 2925 
Q 3706 2438 3575 1747 
Q 3406 888 2884 400 
Q 2359 -91 1609 -91 
Q 856 -91 525 400 
Q 194 888 363 1747 
Q 528 2609 1050 3097 
Q 1484 3503 2309 3503 
z
" transform="scale(0.015625)"/>
       <path id="DejaVuSans-Oblique-4c" d="M 1075 4666 
L 1709 4666 
L 909 525 
L 3181 525 
L 3078 0 
L 172 0 
L 1075 4666 
z
" transform="scale(0.015625)"/>
       <path id="DejaVuSans-2f" d="M 1625 4666 
L 2156 4666 
L 531 -594 
L 0 -594 
L 1625 4666 
z
" transform="scale(0.015625)"/>
       <path id="DejaVuSans-Oblique-4e" d="M 1081 4666 
L 1931 4666 
L 3219 666 
L 4000 4666 
L 4616 4666 
L 3706 0 
L 2853 0 
L 1569 4025 
L 788 0 
L 172 0 
L 1081 4666 
z
" transform="scale(0.015625)"/>
      </defs>
      <use xlink:href="#DejaVuSans-Oblique-3c3" transform="translate(0 0.09375)"/>
      <use xlink:href="#DejaVuSans-Oblique-4c" transform="translate(63.378906 -16.3125) scale(0.7)"/>
      <use xlink:href="#DejaVuSans-Oblique-45" transform="translate(102.37793 -16.3125) scale(0.7)"/>
      <use xlink:href="#DejaVuSans-2f" transform="translate(149.34082 0.09375)"/>
      <use xlink:href="#DejaVuSans-Oblique-3c3" transform="translate(183.032227 0.09375)"/>
      <use xlink:href="#DejaVuSans-Oblique-4e" transform="translate(246.411133 -16.3125) scale(0.7)"/>
      <use xlink:href="#DejaVuSans-Oblique-4c" transform="translate(298.774414 -16.3125) scale(0.7)"/>
     </g>
    </g>
   </g>
   <g id="line2d_31">
    <path d="M -1 375.876332 
L 5.039994 374.720212 
L 12.034035 374.478979 
L 19.028076 375.168259 
L 26.022117 376.601579 
L 33.016157 378.640472 
L 40.010198 381.101028 
L 47.004239 383.858807 
L 53.99828 386.806024 
L 60.992321 389.818671 
L 67.986362 392.836323 
L 74.980403 395.793619 
L 81.974443 398.637563 
L 88.968484 401.358085 
L 95.962525 403.922871 
L 102.956566 406.312571 
L 109.950607 408.53104 
L 116.944648 410.588785 
L 123.938688 412.474302 
L 130.932729 414.205504 
L 137.92677 415.791869 
L 144.920811 417.24159 
L 151.914852 418.582316 
L 158.908893 419.820502 
L 165.902934 420.969239 
L 172.896974 422.047078 
L 179.891015 423.072308 
L 186.885056 424.050541 
L 193.879097 424.998856 
L 200.873138 425.924644 
L 207.867179 426.836765 
L 214.861219 427.742857 
L 221.85526 428.649181 
L 228.849301 429.560543 
L 235.843342 430.486964 
L 242.837383 431.436976 
L 249.831424 432.432533 
L 256.825465 433.498709 
L 263.819505 434.683528 
L 270.813546 436.066919 
L 277.807587 437.734178 
L 284.801628 439.862625 
L 291.795669 442.649569 
L 298.78971 446.348315 
L 305.78375 451.284588 
L 312.777791 457.802659 
L 319.771832 466.425295 
L 326.765873 477.684923 
L 333.759914 492.158053 
L 340.753955 510.200405 
L 347.747996 531.737483 
L 354.742036 555.743576 
L 361.736077 579.957389 
L 368.730118 601.009018 
L 375.724159 615.222747 
L 378.130109 618.127143 
" clip-path="url(#p3da2b1aa64)" style="fill: none; stroke-dasharray: 11.1,4.8; stroke-dashoffset: 0; stroke: #000000; stroke-width: 3"/>
   </g>
   <g id="line2d_32">
    <path d="M 32.148166 721 
L 33.016157 718.992909 
L 40.010198 704.503128 
L 47.004239 691.84252 
L 53.99828 681.068526 
L 60.992321 672.246617 
L 67.986362 665.27985 
L 74.980403 660.10818 
L 81.974443 656.62134 
L 88.968484 654.641133 
L 95.962525 654.040061 
L 102.956566 654.683765 
L 109.950607 656.392361 
L 116.944648 658.984951 
L 123.938688 662.338303 
L 130.932729 666.276603 
L 137.92677 670.635217 
L 144.920811 675.270314 
L 151.914852 679.981034 
L 158.908893 684.61815 
L 165.902934 689.034179 
L 172.896974 693.044938 
L 179.891015 696.464141 
L 186.885056 699.166381 
L 193.879097 700.967668 
L 200.873138 701.722476 
L 207.867179 701.289037 
L 214.861219 699.53452 
L 221.85526 696.343231 
L 228.849301 691.589865 
L 235.843342 685.182754 
L 242.837383 676.996822 
L 249.831424 666.93815 
L 256.825465 654.85236 
L 263.819505 640.550657 
L 270.813546 623.762269 
L 277.807587 604.222694 
L 284.801628 581.464858 
L 291.795669 555.088557 
L 298.78971 524.655471 
L 305.78375 489.979321 
L 312.777791 450.979671 
L 319.771832 408.026945 
L 326.765873 361.448906 
L 333.759914 311.87772 
L 340.753955 260.728698 
L 347.747996 211.214058 
L 354.742036 167.792023 
L 361.736077 133.855467 
L 368.730118 109.471218 
L 375.724159 92.546038 
L 378.130109 88.242424 
" clip-path="url(#p3da2b1aa64)" style="fill: none; stroke-dasharray: 3,4.95; stroke-dashoffset: 0; stroke: #000000; stroke-width: 3"/>
   </g>
   <g id="line2d_33">
    <path d="M -1 380.470152 
L 5.039994 380.271006 
L 12.034035 381.082789 
L 19.028076 382.764535 
L 26.022117 385.132221 
L 33.016157 388.036872 
L 40.010198 391.306777 
L 47.004239 394.821484 
L 53.99828 398.481377 
L 60.992321 402.183001 
L 67.986362 405.869166 
L 74.980403 409.498608 
L 81.974443 413.035417 
L 88.968484 416.471373 
L 95.962525 419.806618 
L 102.956566 423.030662 
L 109.950607 426.162035 
L 116.944648 429.217616 
L 123.938688 432.21199 
L 130.932729 435.170408 
L 137.92677 438.115871 
L 144.920811 441.077329 
L 151.914852 444.078587 
L 158.908893 447.148825 
L 165.902934 450.313421 
L 172.896974 453.601748 
L 179.891015 457.03916 
L 186.885056 460.647415 
L 193.879097 464.450779 
L 200.873138 468.467634 
L 207.867179 472.714795 
L 214.861219 477.205042 
L 221.85526 481.948706 
L 228.849301 486.958937 
L 235.843342 492.237883 
L 242.837383 497.794466 
L 249.831424 503.627434 
L 256.825465 509.749288 
L 263.819505 516.153224 
L 270.813546 522.853369 
L 277.807587 529.839712 
L 284.801628 537.117121 
L 291.795669 544.680612 
L 298.78971 552.50816 
L 305.78375 560.5545 
L 312.777791 568.8233 
L 319.771832 577.316995 
L 326.765873 586.128866 
L 333.759914 595.275671 
L 340.753955 604.571913 
L 347.747996 613.574439 
L 354.742036 621.896826 
L 361.736077 629.538483 
L 368.730118 636.817777 
L 375.724159 643.504834 
L 378.130109 645.40544 
" clip-path="url(#p3da2b1aa64)" style="fill: none; stroke-dasharray: 11.1,4.8; stroke-dashoffset: 0; stroke: #e69f00; stroke-width: 3"/>
   </g>
   <g id="line2d_34">
    <path d="M 25.846294 721 
L 26.022117 720.494658 
L 33.016157 701.947542 
L 40.010198 685.347127 
L 47.004239 670.883518 
L 53.99828 658.610415 
L 60.992321 648.625019 
L 67.986362 640.835287 
L 74.980403 635.149026 
L 81.974443 631.466605 
L 88.968484 629.586485 
L 95.962525 629.357513 
L 102.956566 630.678282 
L 109.950607 633.350511 
L 116.944648 637.175176 
L 123.938688 642.066055 
L 130.932729 647.827041 
L 137.92677 654.308733 
L 144.920811 661.372219 
L 151.914852 668.805896 
L 158.908893 676.472507 
L 165.902934 684.226743 
L 172.896974 691.859197 
L 179.891015 699.144805 
L 186.885056 705.967253 
L 193.879097 712.094807 
L 200.873138 717.336854 
L 207.062646 721 
M 239.207576 721 
L 242.837383 718.736558 
L 249.831424 712.030824 
L 256.825465 702.703966 
L 263.819505 690.422116 
L 270.813546 674.770967 
L 277.807587 655.262239 
L 284.801628 631.299762 
L 291.795669 602.269409 
L 298.78971 567.617641 
L 305.78375 527.08533 
L 312.777791 480.600366 
L 319.771832 428.592952 
L 326.765873 371.388584 
L 333.759914 309.534596 
L 340.753955 244.334267 
L 347.747996 179.211921 
L 354.742036 119.596895 
L 361.736077 70.769263 
L 368.730118 35.392428 
L 375.724159 13.603638 
L 378.130109 9.077616 
" clip-path="url(#p3da2b1aa64)" style="fill: none; stroke-dasharray: 3,4.95; stroke-dashoffset: 0; stroke: #e69f00; stroke-width: 3"/>
   </g>
   <g id="line2d_35">
    <path d="M -1 432.29721 
L 5.039994 434.231491 
L 12.034035 436.874692 
L 19.028076 439.765245 
L 26.022117 442.747448 
L 33.016157 445.729375 
L 40.010198 448.596748 
L 47.004239 451.292448 
L 53.99828 453.781387 
L 60.992321 456.025224 
L 67.986362 458.017018 
L 74.980403 459.764238 
L 81.974443 461.270815 
L 88.968484 462.567326 
L 95.962525 463.666473 
L 102.956566 464.578619 
L 109.950607 465.341356 
L 116.944648 465.98199 
L 123.938688 466.515586 
L 130.932729 466.973197 
L 137.92677 467.379858 
L 144.920811 467.760119 
L 151.914852 468.153408 
L 158.908893 468.58652 
L 165.902934 469.082874 
L 172.896974 469.682124 
L 179.891015 470.422922 
L 186.885056 471.332608 
L 193.879097 472.452419 
L 200.873138 473.819929 
L 207.867179 475.472671 
L 214.861219 477.447184 
L 221.85526 479.776531 
L 228.849301 482.498285 
L 235.843342 485.637384 
L 242.837383 489.223494 
L 249.831424 493.274394 
L 256.825465 497.806704 
L 263.819505 502.831182 
L 270.813546 508.356816 
L 277.807587 514.385376 
L 284.801628 520.919957 
L 291.795669 527.959597 
L 298.78971 535.488639 
L 305.78375 543.488945 
L 312.777791 551.942031 
L 319.771832 560.802365 
L 326.765873 570.089201 
L 333.759914 579.790984 
L 340.753955 589.746511 
L 347.747996 599.53428 
L 354.742036 608.605884 
L 361.736077 616.398459 
L 368.730118 622.266495 
L 375.724159 625.582517 
L 378.130109 626.073972 
" clip-path="url(#p3da2b1aa64)" style="fill: none; stroke-dasharray: 11.1,4.8; stroke-dashoffset: 0; stroke: #56b4e9; stroke-width: 3"/>
   </g>
   <g id="line2d_36">
    <path d="M 31.989508 721 
L 33.016157 717.534861 
L 40.010198 695.921608 
L 47.004239 676.629102 
L 53.99828 659.816108 
L 60.992321 645.60071 
L 67.986362 633.921724 
L 74.980403 624.684813 
L 81.974443 617.747005 
L 88.968484 612.927216 
L 95.962525 610.055083 
L 102.956566 608.976004 
L 109.950607 609.481494 
L 116.944648 611.359537 
L 123.938688 614.495246 
L 130.932729 618.687348 
L 137.92677 623.757033 
L 144.920811 629.558967 
L 151.914852 635.864488 
L 158.908893 642.509439 
L 165.902934 649.315104 
L 172.896974 656.049047 
L 179.891015 662.464873 
L 186.885056 668.356063 
L 193.879097 673.439381 
L 200.873138 677.433565 
L 207.867179 680.041494 
L 214.861219 680.944959 
L 221.85526 679.820469 
L 228.849301 676.301863 
L 235.843342 670.035658 
L 242.837383 660.626523 
L 249.831424 647.670595 
L 256.825465 630.721232 
L 263.819505 609.303056 
L 270.813546 582.890519 
L 277.807587 550.976917 
L 284.801628 513.063671 
L 291.795669 468.837828 
L 298.78971 418.283561 
L 305.78375 361.780764 
L 312.777791 299.991641 
L 319.771832 233.898324 
L 326.765873 164.062008 
L 333.759914 91.072131 
L 340.753955 16.254513 
L 342.404703 -1 
" clip-path="url(#p3da2b1aa64)" style="fill: none; stroke-dasharray: 3,4.95; stroke-dashoffset: 0; stroke: #56b4e9; stroke-width: 3"/>
   </g>
   <g id="line2d_37">
    <path d="M -1 444.826319 
L 5.039994 448.611612 
L 12.034035 453.43151 
L 19.028076 458.427218 
L 26.022117 463.362613 
L 33.016157 468.079062 
L 40.010198 472.435105 
L 47.004239 476.363067 
L 53.99828 479.8386 
L 60.992321 482.833348 
L 67.986362 485.372936 
L 74.980403 487.485043 
L 81.974443 489.192141 
L 88.968484 490.554464 
L 95.962525 491.599382 
L 102.956566 492.35505 
L 109.950607 492.871298 
L 116.944648 493.189836 
L 123.938688 493.328914 
L 130.932729 493.332065 
L 137.92677 493.236873 
L 144.920811 493.06938 
L 151.914852 492.890925 
L 158.908893 492.735881 
L 165.902934 492.648683 
L 172.896974 492.697919 
L 179.891015 492.960707 
L 186.885056 493.502609 
L 193.879097 494.426531 
L 200.873138 495.843315 
L 207.867179 497.879014 
L 214.861219 500.675988 
L 221.85526 504.378637 
L 228.849301 509.172236 
L 235.843342 515.205643 
L 242.837383 522.64294 
L 249.831424 531.608701 
L 256.825465 542.180934 
L 263.819505 554.359766 
L 270.813546 568.044238 
L 277.807587 582.98017 
L 284.801628 598.791147 
L 291.795669 614.949151 
L 298.78971 630.858916 
L 305.78375 645.916355 
L 312.777791 659.70795 
L 319.771832 671.984569 
L 326.765873 682.750391 
L 333.759914 692.023179 
L 340.753955 699.702071 
L 347.747996 705.545098 
L 354.742036 709.422921 
L 361.736077 711.385875 
L 368.730118 711.508164 
L 375.724159 709.814388 
L 378.130109 708.831419 
" clip-path="url(#p3da2b1aa64)" style="fill: none; stroke-dasharray: 11.1,4.8; stroke-dashoffset: 0; stroke: #009e73; stroke-width: 3"/>
   </g>
   <g id="line2d_38">
    <path d="M 14.526558 721 
L 19.028076 698.195675 
L 26.022117 664.093146 
L 33.016157 632.32471 
L 40.010198 603.657267 
L 47.004239 578.475797 
L 53.99828 556.893472 
L 60.992321 538.950628 
L 67.986362 524.461075 
L 74.980403 513.211226 
L 81.974443 504.974602 
L 88.968484 499.413302 
L 95.962525 496.298539 
L 102.956566 495.422701 
L 109.950607 496.517144 
L 116.944648 499.322412 
L 123.938688 503.726242 
L 130.932729 509.496131 
L 137.92677 516.442769 
L 144.920811 524.427948 
L 151.914852 533.153268 
L 158.908893 542.443669 
L 165.902934 552.094999 
L 172.896974 561.762571 
L 179.891015 571.033822 
L 186.885056 579.589346 
L 193.879097 586.857377 
L 200.873138 592.217573 
L 207.867179 594.931159 
L 214.861219 594.127517 
L 221.85526 588.861927 
L 228.849301 577.899398 
L 235.843342 560.116032 
L 242.837383 534.156708 
L 249.831424 498.866381 
L 256.825465 453.121367 
L 263.819505 396.185124 
L 270.813546 327.815786 
L 277.807587 248.607517 
L 284.801628 160.038532 
L 291.795669 64.706675 
L 296.451817 -1 
" clip-path="url(#p3da2b1aa64)" style="fill: none; stroke-dasharray: 3,4.95; stroke-dashoffset: 0; stroke: #009e73; stroke-width: 3"/>
   </g>
   <g id="line2d_39">
    <path d="M 134.136 493.38 
L 378.130109 493.38 
" clip-path="url(#p3da2b1aa64)" style="fill: none; stroke: #000000; stroke-opacity: 0.25; stroke-width: 1.5; stroke-linecap: square"/>
   </g>
   <g id="line2d_40">
    <path d="M 338.784713 630 
L 338.784713 83.52 
" clip-path="url(#p3da2b1aa64)" style="fill: none; stroke-dasharray: 5.55,2.4; stroke-dashoffset: 0; stroke: #ff0000; stroke-width: 1.5"/>
   </g>
   <g id="patch_5">
    <path d="M 134.136 630 
L 134.136 83.52 
" style="fill: none; stroke: #000000; stroke-width: 0.8; stroke-linejoin: miter; stroke-linecap: square"/>
   </g>
   <g id="patch_6">
    <path d="M 378.130109 630 
L 378.130109 83.52 
" style="fill: none; stroke: #000000; stroke-width: 0.8; stroke-linejoin: miter; stroke-linecap: square"/>
   </g>
   <g id="patch_7">
    <path d="M 134.136 630 
L 378.130109 630 
" style="fill: none; stroke: #000000; stroke-width: 0.8; stroke-linejoin: miter; stroke-linecap: square"/>
   </g>
   <g id="patch_8">
    <path d="M 134.136 83.52 
L 378.130109 83.52 
" style="fill: none; stroke: #000000; stroke-width: 0.8; stroke-linejoin: miter; stroke-linecap: square"/>
   </g>
   <g id="text_21">
    <!-- 30MeV -->
    <g transform="translate(160.787652 134.008625) scale(0.2 -0.2)">
     <defs>
      <path id="DejaVuSans-33" d="M 2597 2516 
Q 3050 2419 3304 2112 
Q 3559 1806 3559 1356 
Q 3559 666 3084 287 
Q 2609 -91 1734 -91 
Q 1441 -91 1130 -33 
Q 819 25 488 141 
L 488 750 
Q 750 597 1062 519 
Q 1375 441 1716 441 
Q 2309 441 2620 675 
Q 2931 909 2931 1356 
Q 2931 1769 2642 2001 
Q 2353 2234 1838 2234 
L 1294 2234 
L 1294 2753 
L 1863 2753 
Q 2328 2753 2575 2939 
Q 2822 3125 2822 3475 
Q 2822 3834 2567 4026 
Q 2313 4219 1838 4219 
Q 1578 4219 1281 4162 
Q 984 4106 628 3988 
L 628 4550 
Q 988 4650 1302 4700 
Q 1616 4750 1894 4750 
Q 2613 4750 3031 4423 
Q 3450 4097 3450 3541 
Q 3450 3153 3228 2886 
Q 3006 2619 2597 2516 
z
" transform="scale(0.015625)"/>
     </defs>
     <use xlink:href="#DejaVuSans-33"/>
     <use xlink:href="#DejaVuSans-30" transform="translate(63.623047 0)"/>
     <use xlink:href="#DejaVuSans-4d" transform="translate(127.246094 0)"/>
     <use xlink:href="#DejaVuSans-65" transform="translate(213.525391 0)"/>
     <use xlink:href="#DejaVuSans-56" transform="translate(275.048828 0)"/>
    </g>
   </g>
   <g id="legend_1">
    <g id="line2d_41">
     <path d="M 253.114484 107.097187 
L 271.114484 107.097187 
L 289.114484 107.097187 
" style="fill: none; stroke-dasharray: 3.5,5.775; stroke-dashoffset: 0; stroke: #000000; stroke-width: 3.5"/>
    </g>
    <g id="text_22">
     <!-- LELO -->
     <g transform="translate(303.514484 113.397187) scale(0.18 -0.18)">
      <defs>
       <path id="DejaVuSans-4c" d="M 628 4666 
L 1259 4666 
L 1259 531 
L 3531 531 
L 3531 0 
L 628 0 
L 628 4666 
z
" transform="scale(0.015625)"/>
       <path id="DejaVuSans-45" d="M 628 4666 
L 3578 4666 
L 3578 4134 
L 1259 4134 
L 1259 2753 
L 3481 2753 
L 3481 2222 
L 1259 2222 
L 1259 531 
L 3634 531 
L 3634 0 
L 628 0 
L 628 4666 
z
" transform="scale(0.015625)"/>
       <path id="DejaVuSans-4f" d="M 2522 4238 
Q 1834 4238 1429 3725 
Q 1025 3213 1025 2328 
Q 1025 1447 1429 934 
Q 1834 422 2522 422 
Q 3209 422 3611 934 
Q 4013 1447 4013 2328 
Q 4013 3213 3611 3725 
Q 3209 4238 2522 4238 
z
M 2522 4750 
Q 3503 4750 4090 4092 
Q 4678 3434 4678 2328 
Q 4678 1225 4090 567 
Q 3503 -91 2522 -91 
Q 1538 -91 948 565 
Q 359 1222 359 2328 
Q 359 3434 948 4092 
Q 1538 4750 2522 4750 
z
" transform="scale(0.015625)"/>
      </defs>
      <use xlink:href="#DejaVuSans-4c"/>
      <use xlink:href="#DejaVuSans-45" transform="translate(55.712891 0)"/>
      <use xlink:href="#DejaVuSans-4c" transform="translate(118.896484 0)"/>
      <use xlink:href="#DejaVuSans-4f" transform="translate(170.984375 0)"/>
     </g>
    </g>
    <g id="line2d_42">
     <path d="M 253.114484 133.517812 
L 271.114484 133.517812 
L 289.114484 133.517812 
" style="fill: none; stroke-dasharray: 12.95,5.6; stroke-dashoffset: 0; stroke: #000000; stroke-width: 3.5"/>
    </g>
    <g id="text_23">
     <!-- LENLO -->
     <g transform="translate(303.514484 139.817812) scale(0.18 -0.18)">
      <defs>
       <path id="DejaVuSans-4e" d="M 628 4666 
L 1478 4666 
L 3547 763 
L 3547 4666 
L 4159 4666 
L 4159 0 
L 3309 0 
L 1241 3903 
L 1241 0 
L 628 0 
L 628 4666 
z
" transform="scale(0.015625)"/>
      </defs>
      <use xlink:href="#DejaVuSans-4c"/>
      <use xlink:href="#DejaVuSans-45" transform="translate(55.712891 0)"/>
      <use xlink:href="#DejaVuSans-4e" transform="translate(118.896484 0)"/>
      <use xlink:href="#DejaVuSans-4c" transform="translate(193.701172 0)"/>
      <use xlink:href="#DejaVuSans-4f" transform="translate(245.789062 0)"/>
     </g>
    </g>
   </g>
  </g>
  <g id="axes_3">
   <g id="patch_9">
    <path d="M 387.157891 630 
L 631.152 630 
L 631.152 83.52 
L 387.157891 83.52 
L 387.157891 630 
z
" style="fill: none"/>
   </g>
   <g id="axes_4">
    <g id="patch_10">
     <path d="M 387.157891 83.52 
L 631.152 83.52 
L 631.152 83.52 
L 387.157891 83.52 
L 387.157891 83.52 
z
" style="fill: none"/>
    </g>
    <g id="matplotlib.axis_5">
     <g id="xtick_9">
      <g id="line2d_43">
       <g>
        <use xlink:href="#m2c1941a71d" x="630.973232" y="83.52" style="stroke: #000000; stroke-width: 0.8"/>
       </g>
      </g>
      <g id="text_24">
       <!-- 5 -->
       <g transform="translate(622.065732 70.696875) scale(0.28 -0.28)">
        <use xlink:href="#DejaVuSans-35"/>
       </g>
      </g>
     </g>
     <g id="xtick_10">
      <g id="line2d_44">
       <g>
        <use xlink:href="#m2c1941a71d" x="561.032824" y="83.52" style="stroke: #000000; stroke-width: 0.8"/>
       </g>
      </g>
      <g id="text_25">
       <!-- 10 -->
       <g transform="translate(543.217824 70.696875) scale(0.28 -0.28)">
        <use xlink:href="#DejaVuSans-31"/>
        <use xlink:href="#DejaVuSans-30" transform="translate(63.623047 0)"/>
       </g>
      </g>
     </g>
     <g id="xtick_11">
      <g id="line2d_45">
       <g>
        <use xlink:href="#m2c1941a71d" x="491.092415" y="83.52" style="stroke: #000000; stroke-width: 0.8"/>
       </g>
      </g>
      <g id="text_26">
       <!-- 15 -->
       <g transform="translate(473.277415 70.696875) scale(0.28 -0.28)">
        <use xlink:href="#DejaVuSans-31"/>
        <use xlink:href="#DejaVuSans-35" transform="translate(63.623047 0)"/>
       </g>
      </g>
     </g>
     <g id="xtick_12">
      <g id="line2d_46">
       <g>
        <use xlink:href="#m2c1941a71d" x="421.152007" y="83.52" style="stroke: #000000; stroke-width: 0.8"/>
       </g>
      </g>
      <g id="text_27">
       <!-- 20 -->
       <g transform="translate(403.337007 70.696875) scale(0.28 -0.28)">
        <use xlink:href="#DejaVuSans-32"/>
        <use xlink:href="#DejaVuSans-30" transform="translate(63.623047 0)"/>
       </g>
      </g>
     </g>
     <g id="text_28">
      <!-- $E_t$ (MeV) -->
      <g transform="translate(429.354946 34.42125) scale(0.38 -0.38)">
       <use xlink:href="#DejaVuSans-Oblique-45" transform="translate(0 0.125)"/>
       <use xlink:href="#DejaVuSans-Oblique-74" transform="translate(63.183594 -16.28125) scale(0.7)"/>
       <use xlink:href="#DejaVuSans-20" transform="translate(93.364258 0.125)"/>
       <use xlink:href="#DejaVuSans-28" transform="translate(125.151367 0.125)"/>
       <use xlink:href="#DejaVuSans-4d" transform="translate(164.165039 0.125)"/>
       <use xlink:href="#DejaVuSans-65" transform="translate(250.444336 0.125)"/>
       <use xlink:href="#DejaVuSans-56" transform="translate(311.967773 0.125)"/>
       <use xlink:href="#DejaVuSans-29" transform="translate(380.375977 0.125)"/>
      </g>
     </g>
    </g>
    <g id="matplotlib.axis_6"/>
    <g id="patch_11">
     <path d="M 631.152 83.52 
L 387.157891 83.52 
" style="fill: none; stroke: #000000; stroke-width: 0.8; stroke-linejoin: miter; stroke-linecap: square"/>
    </g>
   </g>
   <g id="matplotlib.axis_7">
    <g id="xtick_13">
     <g id="line2d_47">
      <path d="M 388.556699 630 
L 388.556699 83.52 
" clip-path="url(#p2ed8e69678)" style="fill: none; stroke: #b0b0b0; stroke-opacity: 0.2; stroke-width: 0.8; stroke-linecap: square"/>
     </g>
     <g id="line2d_48">
      <g>
       <use xlink:href="#m43609703f7" x="388.556699" y="630" style="stroke: #000000; stroke-width: 0.8"/>
      </g>
     </g>
     <g id="text_29">
      <!-- 0 -->
      <g transform="translate(379.649199 658.275625) scale(0.28 -0.28)">
       <use xlink:href="#DejaVuSans-30"/>
      </g>
     </g>
    </g>
    <g id="xtick_14">
     <g id="line2d_49">
      <path d="M 458.497108 630 
L 458.497108 83.52 
" clip-path="url(#p2ed8e69678)" style="fill: none; stroke: #b0b0b0; stroke-opacity: 0.2; stroke-width: 0.8; stroke-linecap: square"/>
     </g>
     <g id="line2d_50">
      <g>
       <use xlink:href="#m43609703f7" x="458.497108" y="630" style="stroke: #000000; stroke-width: 0.8"/>
      </g>
     </g>
     <g id="text_30">
      <!-- 5 -->
      <g transform="translate(449.589608 658.275625) scale(0.28 -0.28)">
       <use xlink:href="#DejaVuSans-35"/>
      </g>
     </g>
    </g>
    <g id="xtick_15">
     <g id="line2d_51">
      <path d="M 528.437516 630 
L 528.437516 83.52 
" clip-path="url(#p2ed8e69678)" style="fill: none; stroke: #b0b0b0; stroke-opacity: 0.2; stroke-width: 0.8; stroke-linecap: square"/>
     </g>
     <g id="line2d_52">
      <g>
       <use xlink:href="#m43609703f7" x="528.437516" y="630" style="stroke: #000000; stroke-width: 0.8"/>
      </g>
     </g>
     <g id="text_31">
      <!-- 10 -->
      <g transform="translate(510.622516 658.275625) scale(0.28 -0.28)">
       <use xlink:href="#DejaVuSans-31"/>
       <use xlink:href="#DejaVuSans-30" transform="translate(63.623047 0)"/>
      </g>
     </g>
    </g>
    <g id="xtick_16">
     <g id="line2d_53">
      <path d="M 598.377925 630 
L 598.377925 83.52 
" clip-path="url(#p2ed8e69678)" style="fill: none; stroke: #b0b0b0; stroke-opacity: 0.2; stroke-width: 0.8; stroke-linecap: square"/>
     </g>
     <g id="line2d_54">
      <g>
       <use xlink:href="#m43609703f7" x="598.377925" y="630" style="stroke: #000000; stroke-width: 0.8"/>
      </g>
     </g>
     <g id="text_32">
      <!-- 15 -->
      <g transform="translate(580.562925 658.275625) scale(0.28 -0.28)">
       <use xlink:href="#DejaVuSans-31"/>
       <use xlink:href="#DejaVuSans-35" transform="translate(63.623047 0)"/>
      </g>
     </g>
    </g>
    <g id="text_33">
     <!-- $E_{ex}$ (MeV) -->
     <g transform="translate(418.524946 696.972813) scale(0.38 -0.38)">
      <use xlink:href="#DejaVuSans-Oblique-45" transform="translate(0 0.125)"/>
      <use xlink:href="#DejaVuSans-Oblique-65" transform="translate(63.183594 -16.28125) scale(0.7)"/>
      <use xlink:href="#DejaVuSans-Oblique-78" transform="translate(106.25 -16.28125) scale(0.7)"/>
      <use xlink:href="#DejaVuSans-20" transform="translate(150.410156 0.125)"/>
      <use xlink:href="#DejaVuSans-28" transform="translate(182.197266 0.125)"/>
      <use xlink:href="#DejaVuSans-4d" transform="translate(221.210938 0.125)"/>
      <use xlink:href="#DejaVuSans-65" transform="translate(307.490234 0.125)"/>
      <use xlink:href="#DejaVuSans-56" transform="translate(369.013672 0.125)"/>
      <use xlink:href="#DejaVuSans-29" transform="translate(437.421875 0.125)"/>
     </g>
    </g>
   </g>
   <g id="matplotlib.axis_8">
    <g id="ytick_10">
     <g id="line2d_55">
      <path d="M 387.157891 630 
L 631.152 630 
" clip-path="url(#p2ed8e69678)" style="fill: none; stroke: #b0b0b0; stroke-opacity: 0.2; stroke-width: 0.8; stroke-linecap: square"/>
     </g>
     <g id="line2d_56">
      <g>
       <use xlink:href="#mfbfdb9a5c7" x="387.157891" y="630" style="stroke: #000000; stroke-width: 0.8"/>
      </g>
     </g>
    </g>
    <g id="ytick_11">
     <g id="line2d_57">
      <path d="M 387.157891 561.69 
L 631.152 561.69 
" clip-path="url(#p2ed8e69678)" style="fill: none; stroke: #b0b0b0; stroke-opacity: 0.2; stroke-width: 0.8; stroke-linecap: square"/>
     </g>
     <g id="line2d_58">
      <g>
       <use xlink:href="#mfbfdb9a5c7" x="387.157891" y="561.69" style="stroke: #000000; stroke-width: 0.8"/>
      </g>
     </g>
    </g>
    <g id="ytick_12">
     <g id="line2d_59">
      <path d="M 387.157891 493.38 
L 631.152 493.38 
" clip-path="url(#p2ed8e69678)" style="fill: none; stroke: #b0b0b0; stroke-opacity: 0.2; stroke-width: 0.8; stroke-linecap: square"/>
     </g>
     <g id="line2d_60">
      <g>
       <use xlink:href="#mfbfdb9a5c7" x="387.157891" y="493.38" style="stroke: #000000; stroke-width: 0.8"/>
      </g>
     </g>
    </g>
    <g id="ytick_13">
     <g id="line2d_61">
      <path d="M 387.157891 425.07 
L 631.152 425.07 
" clip-path="url(#p2ed8e69678)" style="fill: none; stroke: #b0b0b0; stroke-opacity: 0.2; stroke-width: 0.8; stroke-linecap: square"/>
     </g>
     <g id="line2d_62">
      <g>
       <use xlink:href="#mfbfdb9a5c7" x="387.157891" y="425.07" style="stroke: #000000; stroke-width: 0.8"/>
      </g>
     </g>
    </g>
    <g id="ytick_14">
     <g id="line2d_63">
      <path d="M 387.157891 356.76 
L 631.152 356.76 
" clip-path="url(#p2ed8e69678)" style="fill: none; stroke: #b0b0b0; stroke-opacity: 0.2; stroke-width: 0.8; stroke-linecap: square"/>
     </g>
     <g id="line2d_64">
      <g>
       <use xlink:href="#mfbfdb9a5c7" x="387.157891" y="356.76" style="stroke: #000000; stroke-width: 0.8"/>
      </g>
     </g>
    </g>
    <g id="ytick_15">
     <g id="line2d_65">
      <path d="M 387.157891 288.45 
L 631.152 288.45 
" clip-path="url(#p2ed8e69678)" style="fill: none; stroke: #b0b0b0; stroke-opacity: 0.2; stroke-width: 0.8; stroke-linecap: square"/>
     </g>
     <g id="line2d_66">
      <g>
       <use xlink:href="#mfbfdb9a5c7" x="387.157891" y="288.45" style="stroke: #000000; stroke-width: 0.8"/>
      </g>
     </g>
    </g>
    <g id="ytick_16">
     <g id="line2d_67">
      <path d="M 387.157891 220.14 
L 631.152 220.14 
" clip-path="url(#p2ed8e69678)" style="fill: none; stroke: #b0b0b0; stroke-opacity: 0.2; stroke-width: 0.8; stroke-linecap: square"/>
     </g>
     <g id="line2d_68">
      <g>
       <use xlink:href="#mfbfdb9a5c7" x="387.157891" y="220.14" style="stroke: #000000; stroke-width: 0.8"/>
      </g>
     </g>
    </g>
    <g id="ytick_17">
     <g id="line2d_69">
      <path d="M 387.157891 151.83 
L 631.152 151.83 
" clip-path="url(#p2ed8e69678)" style="fill: none; stroke: #b0b0b0; stroke-opacity: 0.2; stroke-width: 0.8; stroke-linecap: square"/>
     </g>
     <g id="line2d_70">
      <g>
       <use xlink:href="#mfbfdb9a5c7" x="387.157891" y="151.83" style="stroke: #000000; stroke-width: 0.8"/>
      </g>
     </g>
    </g>
    <g id="ytick_18">
     <g id="line2d_71">
      <path d="M 387.157891 83.52 
L 631.152 83.52 
" clip-path="url(#p2ed8e69678)" style="fill: none; stroke: #b0b0b0; stroke-opacity: 0.2; stroke-width: 0.8; stroke-linecap: square"/>
     </g>
     <g id="line2d_72">
      <g>
       <use xlink:href="#mfbfdb9a5c7" x="387.157891" y="83.52" style="stroke: #000000; stroke-width: 0.8"/>
      </g>
     </g>
    </g>
   </g>
   <g id="line2d_73">
    <path d="M 174.133395 492.681549 
L 181.127436 473.44655 
L 188.121477 455.886853 
L 195.115517 440.978161 
L 202.109558 428.109801 
L 209.103599 416.993629 
L 216.09764 407.478652 
L 223.091681 399.522417 
L 230.085722 393.052384 
L 237.079763 388.044374 
L 244.073803 384.407226 
L 251.067844 382.063348 
L 258.061885 380.898498 
L 265.055926 380.769056 
L 272.049967 381.522546 
L 279.044008 382.980753 
L 286.038048 385.014456 
L 293.032089 387.447583 
L 300.02613 390.16205 
L 307.020171 393.054957 
L 314.014212 396.006607 
L 321.008253 398.958361 
L 328.002294 401.84821 
L 334.996334 404.623943 
L 341.990375 407.275752 
L 348.984416 409.772127 
L 355.978457 412.094778 
L 362.972498 414.247707 
L 369.966539 416.239564 
L 376.960579 418.060419 
L 383.95462 419.726537 
L 390.948661 421.24828 
L 397.942702 422.631439 
L 404.936743 423.903973 
L 411.930784 425.072296 
L 418.924825 426.147448 
L 425.918865 427.150222 
L 432.912906 428.096766 
L 439.906947 428.994015 
L 446.900988 429.856475 
L 453.895029 430.695233 
L 460.88907 431.51912 
L 467.88311 432.335983 
L 474.877151 433.153323 
L 481.871192 433.977202 
L 488.865233 434.821184 
L 495.859274 435.69085 
L 502.853315 436.60852 
L 509.847356 437.603072 
L 516.841396 438.715657 
L 523.835437 440.020031 
L 530.829478 441.608046 
L 537.823519 443.639309 
L 544.81756 446.300357 
L 551.811601 449.84334 
L 558.805641 454.580965 
L 565.799682 460.849411 
L 572.793723 469.149843 
L 579.787764 480.005148 
L 586.781805 493.985049 
L 593.775846 511.471425 
L 600.769887 532.440558 
L 607.763927 555.955258 
L 614.757968 579.84477 
L 621.752009 600.800022 
L 628.74605 615.157114 
L 631.152 618.158702 
" clip-path="url(#p2ed8e69678)" style="fill: none; stroke-dasharray: 11.1,4.8; stroke-dashoffset: 0; stroke: #000000; stroke-width: 3"/>
   </g>
   <g id="line2d_74">
    <path d="M 284.278807 721 
L 286.038048 716.910837 
L 293.032089 702.231463 
L 300.02613 689.29466 
L 307.020171 678.178394 
L 314.014212 668.961401 
L 321.008253 661.566372 
L 328.002294 655.944733 
L 334.996334 651.998425 
L 341.990375 649.561353 
L 348.984416 648.513378 
L 355.978457 648.727898 
L 362.972498 650.033592 
L 369.966539 652.256873 
L 376.960579 655.280681 
L 383.95462 658.936738 
L 390.948661 663.067528 
L 397.942702 667.538268 
L 404.936743 672.156076 
L 411.930784 676.780589 
L 418.924825 681.271353 
L 425.918865 685.454203 
L 432.912906 689.15157 
L 439.906947 692.242348 
L 446.900988 694.548146 
L 453.895029 695.929881 
L 460.88907 696.244942 
L 467.88311 695.358195 
L 474.877151 693.150302 
L 481.871192 689.494511 
L 488.865233 684.281165 
L 495.859274 677.382431 
L 502.853315 668.686624 
L 509.847356 658.0191 
L 516.841396 645.180211 
L 523.835437 629.877962 
L 530.829478 611.813506 
L 537.823519 590.490789 
L 544.81756 565.456798 
L 551.811601 536.22278 
L 558.805641 502.528052 
L 565.799682 464.240783 
L 572.793723 421.670454 
L 579.787764 375.122643 
L 586.781805 325.190523 
L 593.775846 273.246746 
L 600.769887 222.482213 
L 607.763927 177.464099 
L 614.757968 141.790744 
L 621.752009 115.652348 
L 628.74605 96.912078 
L 631.152 91.961393 
" clip-path="url(#p2ed8e69678)" style="fill: none; stroke-dasharray: 3,4.95; stroke-dashoffset: 0; stroke: #000000; stroke-width: 3"/>
   </g>
   <g id="line2d_75">
    <path d="M 174.133395 483.819273 
L 181.127436 463.498264 
L 188.121477 447.916069 
L 195.115517 435.022553 
L 202.109558 423.966323 
L 209.103599 414.46956 
L 216.09764 406.415095 
L 223.091681 399.796493 
L 230.085722 394.562469 
L 237.079763 390.71717 
L 244.073803 388.185025 
L 251.067844 386.894369 
L 258.061885 386.731051 
L 265.055926 387.554446 
L 272.049967 389.203577 
L 279.044008 391.507261 
L 286.038048 394.324646 
L 293.032089 397.494148 
L 300.02613 400.896907 
L 307.020171 404.43955 
L 314.014212 408.018065 
L 321.008253 411.579792 
L 328.002294 415.081179 
L 334.996334 418.485785 
L 341.990375 421.786602 
L 348.984416 424.979466 
L 355.978457 428.054581 
L 362.972498 431.026365 
L 369.966539 433.913732 
L 376.960579 436.725465 
L 383.95462 439.488598 
L 390.948661 442.220175 
L 397.942702 444.948304 
L 404.936743 447.695845 
L 411.930784 450.487892 
L 418.924825 453.351016 
L 425.918865 456.309795 
L 432.912906 459.390234 
L 439.906947 462.613076 
L 446.900988 466.002584 
L 453.895029 469.577073 
L 460.88907 473.35543 
L 467.88311 477.352599 
L 474.877151 481.583839 
L 481.871192 486.059888 
L 488.865233 490.793917 
L 495.859274 495.791956 
L 502.853315 501.067931 
L 509.847356 506.630911 
L 516.841396 512.488888 
L 523.835437 518.659535 
L 530.829478 525.144313 
L 537.823519 531.960774 
L 544.81756 539.118927 
L 551.811601 546.613903 
L 558.805641 554.420014 
L 565.799682 562.547056 
L 572.793723 570.99966 
L 579.787764 579.861682 
L 586.781805 589.145187 
L 593.775846 598.669534 
L 600.769887 607.99475 
L 607.763927 616.716376 
L 614.757968 624.792725 
L 621.752009 632.510739 
L 628.74605 639.639678 
L 631.152 641.696255 
" clip-path="url(#p2ed8e69678)" style="fill: none; stroke-dasharray: 11.1,4.8; stroke-dashoffset: 0; stroke: #e69f00; stroke-width: 3"/>
   </g>
   <g id="line2d_76">
    <path d="M 278.554132 721 
L 279.044008 719.604936 
L 286.038048 701.072944 
L 293.032089 684.333517 
L 300.02613 669.601082 
L 307.020171 656.958552 
L 314.014212 646.517583 
L 321.008253 638.213458 
L 328.002294 631.968935 
L 334.996334 627.697837 
L 341.990375 625.215083 
L 348.984416 624.377595 
L 355.978457 625.090615 
L 362.972498 627.164931 
L 369.966539 630.41121 
L 376.960579 634.745958 
L 383.95462 639.985558 
L 390.948661 645.985339 
L 397.942702 652.614553 
L 404.936743 659.677222 
L 411.930784 667.042658 
L 418.924825 674.578697 
L 425.918865 682.091758 
L 432.912906 689.371363 
L 439.906947 696.313093 
L 446.900988 702.704624 
L 453.895029 708.365404 
L 460.88907 713.095081 
L 467.88311 716.7099 
L 474.877151 719.032679 
L 481.871192 719.849099 
L 488.865233 718.978082 
L 495.859274 716.183904 
L 502.853315 711.250436 
L 509.847356 703.88942 
L 516.841396 693.765256 
L 523.835437 680.445382 
L 530.829478 663.410835 
L 537.823519 642.025173 
L 544.81756 615.605539 
L 551.811601 583.497427 
L 558.805641 545.308632 
L 565.799682 500.850009 
L 572.793723 450.435631 
L 579.787764 394.325771 
L 586.781805 332.993831 
L 593.775846 267.650453 
L 600.769887 201.649681 
L 607.763927 140.513198 
L 614.757968 89.757654 
L 621.752009 52.25522 
L 628.74605 28.163114 
L 631.152 22.804499 
" clip-path="url(#p2ed8e69678)" style="fill: none; stroke-dasharray: 3,4.95; stroke-dashoffset: 0; stroke: #e69f00; stroke-width: 3"/>
   </g>
   <g id="line2d_77">
    <path d="M 174.133395 476.897632 
L 181.127436 462.201017 
L 188.121477 453.628447 
L 195.115517 447.135766 
L 202.109558 441.977504 
L 209.103599 437.970788 
L 216.09764 435.03184 
L 223.091681 433.14278 
L 230.085722 432.227363 
L 237.079763 432.245638 
L 244.073803 433.077372 
L 251.067844 434.617816 
L 258.061885 436.721867 
L 265.055926 439.239038 
L 272.049967 442.022839 
L 279.044008 444.92676 
L 286.038048 447.852309 
L 293.032089 450.687721 
L 300.02613 453.375586 
L 307.020171 455.872136 
L 314.014212 458.136087 
L 321.008253 460.164104 
L 328.002294 461.952869 
L 334.996334 463.505745 
L 341.990375 464.850307 
L 348.984416 465.994226 
L 355.978457 466.952506 
L 362.972498 467.752342 
L 369.966539 468.422459 
L 376.960579 468.979522 
L 383.95462 469.442975 
L 390.948661 469.848051 
L 397.942702 470.206646 
L 404.936743 470.563213 
L 411.930784 470.930421 
L 418.924825 471.337196 
L 425.918865 471.817703 
L 432.912906 472.405288 
L 439.906947 473.124478 
L 446.900988 474.012645 
L 453.895029 475.103159 
L 460.88907 476.430527 
L 467.88311 478.029588 
L 474.877151 479.931421 
L 481.871192 482.172851 
L 488.865233 484.780794 
L 495.859274 487.786834 
L 502.853315 491.213338 
L 509.847356 495.084884 
L 516.841396 499.420604 
L 523.835437 504.241735 
L 530.829478 509.565722 
L 537.823519 515.417032 
L 544.81756 521.820037 
L 551.811601 528.786817 
L 558.805641 536.332156 
L 565.799682 544.452711 
L 572.793723 553.116633 
L 579.787764 562.344099 
L 586.781805 572.119268 
L 593.775846 582.304689 
L 600.769887 592.489846 
L 607.763927 602.125228 
L 614.757968 610.618904 
L 621.752009 617.272486 
L 628.74605 621.384469 
L 631.152 622.141045 
" clip-path="url(#p2ed8e69678)" style="fill: none; stroke-dasharray: 11.1,4.8; stroke-dashoffset: 0; stroke: #56b4e9; stroke-width: 3"/>
   </g>
   <g id="line2d_78">
    <path d="M 284.576469 721 
L 286.038048 716.153235 
L 293.032089 694.705 
L 300.02613 675.363863 
L 307.020171 658.329134 
L 314.014212 643.750293 
L 321.008253 631.602152 
L 328.002294 621.817377 
L 334.996334 614.28167 
L 341.990375 608.829467 
L 348.984416 605.306826 
L 355.978457 603.572979 
L 362.972498 603.427338 
L 369.966539 604.670776 
L 376.960579 607.200133 
L 383.95462 610.816376 
L 390.948661 615.364634 
L 397.942702 620.704635 
L 404.936743 626.627194 
L 411.930784 632.983101 
L 418.924825 639.614024 
L 425.918865 646.312805 
L 432.912906 652.859136 
L 439.906947 659.074161 
L 446.900988 664.707614 
L 453.895029 669.51081 
L 460.88907 673.220268 
L 467.88311 675.552386 
L 474.877151 676.213204 
L 481.871192 674.869642 
L 488.865233 671.188216 
L 495.859274 664.793548 
L 502.853315 655.285634 
L 509.847356 642.215449 
L 516.841396 625.0828 
L 523.835437 603.316724 
L 530.829478 576.31969 
L 537.823519 543.462688 
L 544.81756 504.231431 
L 551.811601 458.344713 
L 558.805641 405.893433 
L 565.799682 347.288972 
L 572.793723 283.323276 
L 579.787764 214.487448 
L 586.781805 141.296014 
L 593.775846 65.008912 
L 599.86254 -1 
" clip-path="url(#p2ed8e69678)" style="fill: none; stroke-dasharray: 3,4.95; stroke-dashoffset: 0; stroke: #56b4e9; stroke-width: 3"/>
   </g>
   <g id="line2d_79">
    <path d="M 174.133395 477.390276 
L 181.127436 464.986431 
L 188.121477 457.621581 
L 195.115517 451.834633 
L 202.109558 447.158915 
L 209.103599 443.56738 
L 216.09764 441.10456 
L 223.091681 439.84921 
L 230.085722 439.804515 
L 237.079763 440.963823 
L 244.073803 443.209862 
L 251.067844 446.388353 
L 258.061885 450.287052 
L 265.055926 454.664564 
L 272.049967 459.283381 
L 279.044008 463.919038 
L 286.038048 468.416734 
L 293.032089 472.625014 
L 300.02613 476.470521 
L 307.020171 479.912242 
L 314.014212 482.91451 
L 321.008253 485.489497 
L 328.002294 487.657075 
L 334.996334 489.434944 
L 341.990375 490.873505 
L 348.984416 491.998679 
L 355.978457 492.834456 
L 362.972498 493.424395 
L 369.966539 493.81053 
L 376.960579 494.006281 
L 383.95462 494.052434 
L 390.948661 493.98051 
L 397.942702 493.815083 
L 404.936743 493.607855 
L 411.930784 493.388753 
L 418.924825 493.192973 
L 425.918865 493.077041 
L 432.912906 493.107352 
L 439.906947 493.333101 
L 446.900988 493.840394 
L 453.895029 494.722985 
L 460.88907 496.086441 
L 467.88311 498.049736 
L 474.877151 500.743024 
L 481.871192 504.338123 
L 488.865233 508.980881 
L 495.859274 514.849082 
L 502.853315 522.10511 
L 509.847356 530.894441 
L 516.841396 541.311371 
L 523.835437 553.389225 
L 530.829478 567.032327 
L 537.823519 582.028972 
L 544.81756 597.985834 
L 551.811601 614.376899 
L 558.805641 630.574226 
L 565.799682 646.053262 
L 572.793723 660.400137 
L 579.787764 673.459864 
L 586.781805 685.112778 
L 593.775846 695.123571 
L 600.769887 703.086644 
L 607.763927 708.721348 
L 614.757968 711.996965 
L 621.752009 712.972679 
L 628.74605 711.707919 
L 631.152 710.784906 
" clip-path="url(#p2ed8e69678)" style="fill: none; stroke-dasharray: 11.1,4.8; stroke-dashoffset: 0; stroke: #009e73; stroke-width: 3"/>
   </g>
   <g id="line2d_80">
    <path d="M 269.088379 721 
L 272.049967 706.957399 
L 279.044008 674.479892 
L 286.038048 643.72778 
L 293.032089 615.529394 
L 300.02613 590.36841 
L 307.020171 568.456198 
L 314.014212 549.917631 
L 321.008253 534.644083 
L 328.002294 522.483507 
L 334.996334 513.254773 
L 341.990375 506.660834 
L 348.984416 502.494367 
L 355.978457 500.566867 
L 362.972498 500.623421 
L 369.966539 502.424664 
L 376.960579 505.860314 
L 383.95462 510.715533 
L 390.948661 516.814393 
L 397.942702 524.037158 
L 404.936743 532.116358 
L 411.930784 540.905421 
L 418.924825 550.24027 
L 425.918865 559.831476 
L 432.912906 569.342891 
L 439.906947 578.526964 
L 446.900988 586.92186 
L 453.895029 594.026103 
L 460.88907 599.240215 
L 467.88311 601.845105 
L 474.877151 601.045455 
L 481.871192 595.763886 
L 488.865233 584.970478 
L 495.859274 567.349903 
L 502.853315 541.669397 
L 509.847356 506.565343 
L 516.841396 460.827429 
L 523.835437 403.516445 
L 530.829478 334.270406 
L 537.823519 253.497069 
L 544.81756 162.738703 
L 551.811601 64.643594 
L 556.324032 -1 
" clip-path="url(#p2ed8e69678)" style="fill: none; stroke-dasharray: 3,4.95; stroke-dashoffset: 0; stroke: #009e73; stroke-width: 3"/>
   </g>
   <g id="line2d_81">
    <path d="M 387.157891 493.38 
L 631.152 493.38 
" clip-path="url(#p2ed8e69678)" style="fill: none; stroke: #000000; stroke-opacity: 0.25; stroke-width: 1.5; stroke-linecap: square"/>
   </g>
   <g id="patch_12">
    <path d="M 387.157891 630 
L 387.157891 83.52 
" style="fill: none; stroke: #000000; stroke-width: 0.8; stroke-linejoin: miter; stroke-linecap: square"/>
   </g>
   <g id="patch_13">
    <path d="M 631.152 630 
L 631.152 83.52 
" style="fill: none; stroke: #000000; stroke-width: 0.8; stroke-linejoin: miter; stroke-linecap: square"/>
   </g>
   <g id="patch_14">
    <path d="M 387.157891 630 
L 631.152 630 
" style="fill: none; stroke: #000000; stroke-width: 0.8; stroke-linejoin: miter; stroke-linecap: square"/>
   </g>
   <g id="patch_15">
    <path d="M 387.157891 83.52 
L 631.152 83.52 
" style="fill: none; stroke: #000000; stroke-width: 0.8; stroke-linejoin: miter; stroke-linecap: square"/>
   </g>
   <g id="text_34">
    <!-- 40MeV -->
    <g transform="translate(413.809543 134.008625) scale(0.2 -0.2)">
     <defs>
      <path id="DejaVuSans-34" d="M 2419 4116 
L 825 1625 
L 2419 1625 
L 2419 4116 
z
M 2253 4666 
L 3047 4666 
L 3047 1625 
L 3713 1625 
L 3713 1100 
L 3047 1100 
L 3047 0 
L 2419 0 
L 2419 1100 
L 313 1100 
L 313 1709 
L 2253 4666 
z
" transform="scale(0.015625)"/>
     </defs>
     <use xlink:href="#DejaVuSans-34"/>
     <use xlink:href="#DejaVuSans-30" transform="translate(63.623047 0)"/>
     <use xlink:href="#DejaVuSans-4d" transform="translate(127.246094 0)"/>
     <use xlink:href="#DejaVuSans-65" transform="translate(213.525391 0)"/>
     <use xlink:href="#DejaVuSans-56" transform="translate(275.048828 0)"/>
    </g>
   </g>
   <g id="legend_2">
    <g id="line2d_82">
     <path d="M 526.608562 107.097187 
L 544.608562 107.097187 
L 562.608562 107.097187 
" style="fill: none; stroke: #000000; stroke-width: 2; stroke-linecap: square"/>
    </g>
    <g id="text_35">
     <!-- n=0 -->
     <g transform="translate(577.008562 113.397187) scale(0.18 -0.18)">
      <defs>
       <path id="DejaVuSans-6e" d="M 3513 2113 
L 3513 0 
L 2938 0 
L 2938 2094 
Q 2938 2591 2744 2837 
Q 2550 3084 2163 3084 
Q 1697 3084 1428 2787 
Q 1159 2491 1159 1978 
L 1159 0 
L 581 0 
L 581 3500 
L 1159 3500 
L 1159 2956 
Q 1366 3272 1645 3428 
Q 1925 3584 2291 3584 
Q 2894 3584 3203 3211 
Q 3513 2838 3513 2113 
z
" transform="scale(0.015625)"/>
       <path id="DejaVuSans-3d" d="M 678 2906 
L 4684 2906 
L 4684 2381 
L 678 2381 
L 678 2906 
z
M 678 1631 
L 4684 1631 
L 4684 1100 
L 678 1100 
L 678 1631 
z
" transform="scale(0.015625)"/>
      </defs>
      <use xlink:href="#DejaVuSans-6e"/>
      <use xlink:href="#DejaVuSans-3d" transform="translate(63.378906 0)"/>
      <use xlink:href="#DejaVuSans-30" transform="translate(147.167969 0)"/>
     </g>
    </g>
    <g id="line2d_83">
     <path d="M 526.608562 133.517812 
L 544.608562 133.517812 
L 562.608562 133.517812 
" style="fill: none; stroke: #e69f00; stroke-width: 2; stroke-linecap: square"/>
    </g>
    <g id="text_36">
     <!-- n=1 -->
     <g transform="translate(577.008562 139.817812) scale(0.18 -0.18)">
      <use xlink:href="#DejaVuSans-6e"/>
      <use xlink:href="#DejaVuSans-3d" transform="translate(63.378906 0)"/>
      <use xlink:href="#DejaVuSans-31" transform="translate(147.167969 0)"/>
     </g>
    </g>
    <g id="line2d_84">
     <path d="M 526.608562 159.938437 
L 544.608562 159.938437 
L 562.608562 159.938437 
" style="fill: none; stroke: #56b4e9; stroke-width: 2; stroke-linecap: square"/>
    </g>
    <g id="text_37">
     <!-- n=2 -->
     <g transform="translate(577.008562 166.238437) scale(0.18 -0.18)">
      <use xlink:href="#DejaVuSans-6e"/>
      <use xlink:href="#DejaVuSans-3d" transform="translate(63.378906 0)"/>
      <use xlink:href="#DejaVuSans-32" transform="translate(147.167969 0)"/>
     </g>
    </g>
    <g id="line2d_85">
     <path d="M 526.608562 186.359062 
L 544.608562 186.359062 
L 562.608562 186.359062 
" style="fill: none; stroke: #009e73; stroke-width: 2; stroke-linecap: square"/>
    </g>
    <g id="text_38">
     <!-- n=3 -->
     <g transform="translate(577.008562 192.659063) scale(0.18 -0.18)">
      <use xlink:href="#DejaVuSans-6e"/>
      <use xlink:href="#DejaVuSans-3d" transform="translate(63.378906 0)"/>
      <use xlink:href="#DejaVuSans-33" transform="translate(147.167969 0)"/>
     </g>
    </g>
   </g>
  </g>
 </g>
 <defs>
  <clipPath id="p3da2b1aa64">
   <rect x="134.136" y="83.52" width="243.994109" height="546.48"/>
  </clipPath>
  <clipPath id="p2ed8e69678">
   <rect x="387.157891" y="83.52" width="243.994109" height="546.48"/>
  </clipPath>
 </defs>
</svg>
