<?xml version="1.0" encoding="utf-8" standalone="no"?>
<!DOCTYPE svg PUBLIC "-//W3C//DTD SVG 1.1//EN"
  "http://www.w3.org/Graphics/SVG/1.1/DTD/svg11.dtd">
<svg xmlns:xlink="http://www.w3.org/1999/xlink" width="576pt" height="720pt" viewBox="0 0 576 720" xmlns="http://www.w3.org/2000/svg" version="1.1">
 <metadata>
  <rdf:RDF xmlns:dc="http://purl.org/dc/elements/1.1/" xmlns:cc="http://creativecommons.org/ns#" xmlns:rdf="http://www.w3.org/1999/02/22-rdf-syntax-ns#">
   <cc:Work>
    <dc:type rdf:resource="http://purl.org/dc/dcmitype/StillImage"/>
    <dc:date>2026-03-23T16:53:46.005648</dc:date>
    <dc:format>image/svg+xml</dc:format>
    <dc:creator>
     <cc:Agent>
      <dc:title>Matplotlib v3.10.8, https://matplotlib.org/</dc:title>
     </cc:Agent>
    </dc:creator>
   </cc:Work>
  </rdf:RDF>
 </metadata>
 <defs>
  <style type="text/css">*{stroke-linejoin: round; stroke-linecap: butt}</style>
 </defs>
 <g id="figure_1">
  <g id="patch_1">
   <path d="M 0 720 
L 576 720 
L 576 0 
L 0 0 
L 0 720 
z
" style="fill: none"/>
  </g>
  <g id="axes_1">
   <g id="patch_2">
    <path d="M 114.048 630 
L 333.476571 630 
L 333.476571 83.52 
L 114.048 83.52 
L 114.048 630 
z
" style="fill: none"/>
   </g>
   <g id="axes_2">
    <g id="patch_3">
     <path d="M 114.048 83.52 
L 333.476571 83.52 
L 333.476571 83.52 
L 114.048 83.52 
L 114.048 83.52 
z
" style="fill: none"/>
    </g>
    <g id="matplotlib.axis_1">
     <g id="xtick_1">
      <g id="line2d_1">
       <defs>
        <path id="mdd6b2ac6e2" d="M 0 0 
L 0 -3.5 
" style="stroke: #000000; stroke-width: 0.8"/>
       </defs>
       <g>
        <use xlink:href="#mdd6b2ac6e2" x="292.896768" y="83.52" style="stroke: #000000; stroke-width: 0.8"/>
       </g>
      </g>
      <g id="text_1">
       <!-- 10 -->
       <g transform="translate(275.081768 70.696875) scale(0.28 -0.28)">
        <defs>
         <path id="DejaVuSans-31" d="M 794 531 
L 1825 531 
L 1825 4091 
L 703 3866 
L 703 4441 
L 1819 4666 
L 2450 4666 
L 2450 531 
L 3481 531 
L 3481 0 
L 794 0 
L 794 531 
z
" transform="scale(0.015625)"/>
         <path id="DejaVuSans-30" d="M 2034 4250 
Q 1547 4250 1301 3770 
Q 1056 3291 1056 2328 
Q 1056 1369 1301 889 
Q 1547 409 2034 409 
Q 2525 409 2770 889 
Q 3016 1369 3016 2328 
Q 3016 3291 2770 3770 
Q 2525 4250 2034 4250 
z
M 2034 4750 
Q 2819 4750 3233 4129 
Q 3647 3509 3647 2328 
Q 3647 1150 3233 529 
Q 2819 -91 2034 -91 
Q 1250 -91 836 529 
Q 422 1150 422 2328 
Q 422 3509 836 4129 
Q 1250 4750 2034 4750 
z
" transform="scale(0.015625)"/>
        </defs>
        <use xlink:href="#DejaVuSans-31"/>
        <use xlink:href="#DejaVuSans-30" transform="translate(63.623047 0)"/>
       </g>
      </g>
     </g>
     <g id="xtick_2">
      <g id="line2d_2">
       <g>
        <use xlink:href="#mdd6b2ac6e2" x="231.841271" y="83.52" style="stroke: #000000; stroke-width: 0.8"/>
       </g>
      </g>
      <g id="text_2">
       <!-- 20 -->
       <g transform="translate(214.026271 70.696875) scale(0.28 -0.28)">
        <defs>
         <path id="DejaVuSans-32" d="M 1228 531 
L 3431 531 
L 3431 0 
L 469 0 
L 469 531 
Q 828 903 1448 1529 
Q 2069 2156 2228 2338 
Q 2531 2678 2651 2914 
Q 2772 3150 2772 3378 
Q 2772 3750 2511 3984 
Q 2250 4219 1831 4219 
Q 1534 4219 1204 4116 
Q 875 4013 500 3803 
L 500 4441 
Q 881 4594 1212 4672 
Q 1544 4750 1819 4750 
Q 2544 4750 2975 4387 
Q 3406 4025 3406 3419 
Q 3406 3131 3298 2873 
Q 3191 2616 2906 2266 
Q 2828 2175 2409 1742 
Q 1991 1309 1228 531 
z
" transform="scale(0.015625)"/>
        </defs>
        <use xlink:href="#DejaVuSans-32"/>
        <use xlink:href="#DejaVuSans-30" transform="translate(63.623047 0)"/>
       </g>
      </g>
     </g>
     <g id="xtick_3">
      <g id="line2d_3">
       <g>
        <use xlink:href="#mdd6b2ac6e2" x="170.785774" y="83.52" style="stroke: #000000; stroke-width: 0.8"/>
       </g>
      </g>
      <g id="text_3">
       <!-- 30 -->
       <g transform="translate(152.970774 70.696875) scale(0.28 -0.28)">
        <defs>
         <path id="DejaVuSans-33" d="M 2597 2516 
Q 3050 2419 3304 2112 
Q 3559 1806 3559 1356 
Q 3559 666 3084 287 
Q 2609 -91 1734 -91 
Q 1441 -91 1130 -33 
Q 819 25 488 141 
L 488 750 
Q 750 597 1062 519 
Q 1375 441 1716 441 
Q 2309 441 2620 675 
Q 2931 909 2931 1356 
Q 2931 1769 2642 2001 
Q 2353 2234 1838 2234 
L 1294 2234 
L 1294 2753 
L 1863 2753 
Q 2328 2753 2575 2939 
Q 2822 3125 2822 3475 
Q 2822 3834 2567 4026 
Q 2313 4219 1838 4219 
Q 1578 4219 1281 4162 
Q 984 4106 628 3988 
L 628 4550 
Q 988 4650 1302 4700 
Q 1616 4750 1894 4750 
Q 2613 4750 3031 4423 
Q 3450 4097 3450 3541 
Q 3450 3153 3228 2886 
Q 3006 2619 2597 2516 
z
" transform="scale(0.015625)"/>
        </defs>
        <use xlink:href="#DejaVuSans-33"/>
        <use xlink:href="#DejaVuSans-30" transform="translate(63.623047 0)"/>
       </g>
      </g>
     </g>
     <g id="text_4">
      <!-- $E_t$ (MeV) -->
      <g transform="translate(143.962286 34.42125) scale(0.38 -0.38)">
       <defs>
        <path id="DejaVuSans-Oblique-45" d="M 1081 4666 
L 4031 4666 
L 3928 4134 
L 1606 4134 
L 1338 2753 
L 3566 2753 
L 3463 2222 
L 1234 2222 
L 909 531 
L 3284 531 
L 3181 0 
L 172 0 
L 1081 4666 
z
" transform="scale(0.015625)"/>
        <path id="DejaVuSans-Oblique-74" d="M 2706 3500 
L 2619 3053 
L 1472 3053 
L 1100 1153 
Q 1081 1047 1072 975 
Q 1063 903 1063 863 
Q 1063 663 1183 572 
Q 1303 481 1569 481 
L 2150 481 
L 2053 0 
L 1503 0 
Q 991 0 739 200 
Q 488 400 488 806 
Q 488 878 497 964 
Q 506 1050 525 1153 
L 897 3053 
L 409 3053 
L 500 3500 
L 978 3500 
L 1172 4494 
L 1747 4494 
L 1556 3500 
L 2706 3500 
z
" transform="scale(0.015625)"/>
        <path id="DejaVuSans-20" transform="scale(0.015625)"/>
        <path id="DejaVuSans-28" d="M 1984 4856 
Q 1566 4138 1362 3434 
Q 1159 2731 1159 2009 
Q 1159 1288 1364 580 
Q 1569 -128 1984 -844 
L 1484 -844 
Q 1016 -109 783 600 
Q 550 1309 550 2009 
Q 550 2706 781 3412 
Q 1013 4119 1484 4856 
L 1984 4856 
z
" transform="scale(0.015625)"/>
        <path id="DejaVuSans-4d" d="M 628 4666 
L 1569 4666 
L 2759 1491 
L 3956 4666 
L 4897 4666 
L 4897 0 
L 4281 0 
L 4281 4097 
L 3078 897 
L 2444 897 
L 1241 4097 
L 1241 0 
L 628 0 
L 628 4666 
z
" transform="scale(0.015625)"/>
        <path id="DejaVuSans-65" d="M 3597 1894 
L 3597 1613 
L 953 1613 
Q 991 1019 1311 708 
Q 1631 397 2203 397 
Q 2534 397 2845 478 
Q 3156 559 3463 722 
L 3463 178 
Q 3153 47 2828 -22 
Q 2503 -91 2169 -91 
Q 1331 -91 842 396 
Q 353 884 353 1716 
Q 353 2575 817 3079 
Q 1281 3584 2069 3584 
Q 2775 3584 3186 3129 
Q 3597 2675 3597 1894 
z
M 3022 2063 
Q 3016 2534 2758 2815 
Q 2500 3097 2075 3097 
Q 1594 3097 1305 2825 
Q 1016 2553 972 2059 
L 3022 2063 
z
" transform="scale(0.015625)"/>
        <path id="DejaVuSans-56" d="M 1831 0 
L 50 4666 
L 709 4666 
L 2188 738 
L 3669 4666 
L 4325 4666 
L 2547 0 
L 1831 0 
z
" transform="scale(0.015625)"/>
        <path id="DejaVuSans-29" d="M 513 4856 
L 1013 4856 
Q 1481 4119 1714 3412 
Q 1947 2706 1947 2009 
Q 1947 1309 1714 600 
Q 1481 -109 1013 -844 
L 513 -844 
Q 928 -128 1133 580 
Q 1338 1288 1338 2009 
Q 1338 2731 1133 3434 
Q 928 4138 513 4856 
z
" transform="scale(0.015625)"/>
       </defs>
       <use xlink:href="#DejaVuSans-Oblique-45" transform="translate(0 0.125)"/>
       <use xlink:href="#DejaVuSans-Oblique-74" transform="translate(63.183594 -16.28125) scale(0.7)"/>
       <use xlink:href="#DejaVuSans-20" transform="translate(93.364258 0.125)"/>
       <use xlink:href="#DejaVuSans-28" transform="translate(125.151367 0.125)"/>
       <use xlink:href="#DejaVuSans-4d" transform="translate(164.165039 0.125)"/>
       <use xlink:href="#DejaVuSans-65" transform="translate(250.444336 0.125)"/>
       <use xlink:href="#DejaVuSans-56" transform="translate(311.967773 0.125)"/>
       <use xlink:href="#DejaVuSans-29" transform="translate(380.375977 0.125)"/>
      </g>
     </g>
    </g>
    <g id="matplotlib.axis_2"/>
    <g id="patch_4">
     <path d="M 333.476571 83.52 
L 114.048 83.52 
" style="fill: none; stroke: #000000; stroke-width: 0.8; stroke-linejoin: miter; stroke-linecap: square"/>
    </g>
   </g>
   <g id="matplotlib.axis_3">
    <g id="xtick_4">
     <g id="line2d_4">
      <path d="M 120.969251 630 
L 120.969251 83.52 
" clip-path="url(#p4dc73b450f)" style="fill: none; stroke: #b0b0b0; stroke-opacity: 0.2; stroke-width: 0.8; stroke-linecap: square"/>
     </g>
     <g id="line2d_5">
      <defs>
       <path id="mebabc8f202" d="M 0 0 
L 0 3.5 
" style="stroke: #000000; stroke-width: 0.8"/>
      </defs>
      <g>
       <use xlink:href="#mebabc8f202" x="120.969251" y="630" style="stroke: #000000; stroke-width: 0.8"/>
      </g>
     </g>
     <g id="text_5">
      <!-- 0 -->
      <g transform="translate(112.061751 658.275625) scale(0.28 -0.28)">
       <use xlink:href="#DejaVuSans-30"/>
      </g>
     </g>
    </g>
    <g id="xtick_5">
     <g id="line2d_6">
      <path d="M 243.080245 630 
L 243.080245 83.52 
" clip-path="url(#p4dc73b450f)" style="fill: none; stroke: #b0b0b0; stroke-opacity: 0.2; stroke-width: 0.8; stroke-linecap: square"/>
     </g>
     <g id="line2d_7">
      <g>
       <use xlink:href="#mebabc8f202" x="243.080245" y="630" style="stroke: #000000; stroke-width: 0.8"/>
      </g>
     </g>
     <g id="text_6">
      <!-- 20 -->
      <g transform="translate(225.265245 658.275625) scale(0.28 -0.28)">
       <use xlink:href="#DejaVuSans-32"/>
       <use xlink:href="#DejaVuSans-30" transform="translate(63.623047 0)"/>
      </g>
     </g>
    </g>
    <g id="text_7">
     <!-- $S_{2n}$ (MeV) -->
     <g transform="translate(132.182286 696.972813) scale(0.38 -0.38)">
      <defs>
       <path id="DejaVuSans-Oblique-53" d="M 3859 4513 
L 3738 3897 
Q 3422 4066 3111 4152 
Q 2800 4238 2509 4238 
Q 1944 4238 1609 3991 
Q 1275 3744 1275 3334 
Q 1275 3109 1398 2989 
Q 1522 2869 2034 2731 
L 2413 2638 
Q 3053 2472 3303 2217 
Q 3553 1963 3553 1503 
Q 3553 797 2998 353 
Q 2444 -91 1538 -91 
Q 1166 -91 791 -17 
Q 416 56 38 206 
L 166 856 
Q 513 641 861 531 
Q 1209 422 1556 422 
Q 2147 422 2503 684 
Q 2859 947 2859 1369 
Q 2859 1650 2717 1795 
Q 2575 1941 2106 2059 
L 1728 2156 
Q 1081 2325 845 2545 
Q 609 2766 609 3163 
Q 609 3859 1145 4304 
Q 1681 4750 2541 4750 
Q 2875 4750 3203 4690 
Q 3531 4631 3859 4513 
z
" transform="scale(0.015625)"/>
       <path id="DejaVuSans-Oblique-6e" d="M 3566 2113 
L 3156 0 
L 2578 0 
L 2988 2091 
Q 3016 2238 3031 2350 
Q 3047 2463 3047 2528 
Q 3047 2791 2881 2937 
Q 2716 3084 2419 3084 
Q 1956 3084 1622 2776 
Q 1288 2469 1184 1941 
L 800 0 
L 225 0 
L 903 3500 
L 1478 3500 
L 1363 2950 
Q 1603 3253 1940 3418 
Q 2278 3584 2650 3584 
Q 3113 3584 3367 3334 
Q 3622 3084 3622 2631 
Q 3622 2519 3608 2391 
Q 3594 2263 3566 2113 
z
" transform="scale(0.015625)"/>
      </defs>
      <use xlink:href="#DejaVuSans-Oblique-53" transform="translate(0 0.125)"/>
      <use xlink:href="#DejaVuSans-32" transform="translate(63.476562 -16.28125) scale(0.7)"/>
      <use xlink:href="#DejaVuSans-Oblique-6e" transform="translate(108.012695 -16.28125) scale(0.7)"/>
      <use xlink:href="#DejaVuSans-20" transform="translate(155.112305 0.125)"/>
      <use xlink:href="#DejaVuSans-28" transform="translate(186.899414 0.125)"/>
      <use xlink:href="#DejaVuSans-4d" transform="translate(225.913086 0.125)"/>
      <use xlink:href="#DejaVuSans-65" transform="translate(312.192383 0.125)"/>
      <use xlink:href="#DejaVuSans-56" transform="translate(373.71582 0.125)"/>
      <use xlink:href="#DejaVuSans-29" transform="translate(442.124023 0.125)"/>
     </g>
    </g>
   </g>
   <g id="matplotlib.axis_4">
    <g id="ytick_1">
     <g id="line2d_8">
      <path d="M 114.048 611.345082 
L 333.476571 611.345082 
" clip-path="url(#p4dc73b450f)" style="fill: none; stroke: #b0b0b0; stroke-opacity: 0.2; stroke-width: 0.8; stroke-linecap: square"/>
     </g>
     <g id="line2d_9">
      <defs>
       <path id="mcc7d234c66" d="M 0 0 
L -3.5 0 
" style="stroke: #000000; stroke-width: 0.8"/>
      </defs>
      <g>
       <use xlink:href="#mcc7d234c66" x="114.048" y="611.345082" style="stroke: #000000; stroke-width: 0.8"/>
      </g>
     </g>
     <g id="text_8">
      <!-- 0.85 -->
      <g transform="translate(44.70425 621.982894) scale(0.28 -0.28)">
       <defs>
        <path id="DejaVuSans-2e" d="M 684 794 
L 1344 794 
L 1344 0 
L 684 0 
L 684 794 
z
" transform="scale(0.015625)"/>
        <path id="DejaVuSans-38" d="M 2034 2216 
Q 1584 2216 1326 1975 
Q 1069 1734 1069 1313 
Q 1069 891 1326 650 
Q 1584 409 2034 409 
Q 2484 409 2743 651 
Q 3003 894 3003 1313 
Q 3003 1734 2745 1975 
Q 2488 2216 2034 2216 
z
M 1403 2484 
Q 997 2584 770 2862 
Q 544 3141 544 3541 
Q 544 4100 942 4425 
Q 1341 4750 2034 4750 
Q 2731 4750 3128 4425 
Q 3525 4100 3525 3541 
Q 3525 3141 3298 2862 
Q 3072 2584 2669 2484 
Q 3125 2378 3379 2068 
Q 3634 1759 3634 1313 
Q 3634 634 3220 271 
Q 2806 -91 2034 -91 
Q 1263 -91 848 271 
Q 434 634 434 1313 
Q 434 1759 690 2068 
Q 947 2378 1403 2484 
z
M 1172 3481 
Q 1172 3119 1398 2916 
Q 1625 2713 2034 2713 
Q 2441 2713 2670 2916 
Q 2900 3119 2900 3481 
Q 2900 3844 2670 4047 
Q 2441 4250 2034 4250 
Q 1625 4250 1398 4047 
Q 1172 3844 1172 3481 
z
" transform="scale(0.015625)"/>
        <path id="DejaVuSans-35" d="M 691 4666 
L 3169 4666 
L 3169 4134 
L 1269 4134 
L 1269 2991 
Q 1406 3038 1543 3061 
Q 1681 3084 1819 3084 
Q 2600 3084 3056 2656 
Q 3513 2228 3513 1497 
Q 3513 744 3044 326 
Q 2575 -91 1722 -91 
Q 1428 -91 1123 -41 
Q 819 9 494 109 
L 494 744 
Q 775 591 1075 516 
Q 1375 441 1709 441 
Q 2250 441 2565 725 
Q 2881 1009 2881 1497 
Q 2881 1984 2565 2268 
Q 2250 2553 1709 2553 
Q 1456 2553 1204 2497 
Q 953 2441 691 2322 
L 691 4666 
z
" transform="scale(0.015625)"/>
       </defs>
       <use xlink:href="#DejaVuSans-30"/>
       <use xlink:href="#DejaVuSans-2e" transform="translate(63.623047 0)"/>
       <use xlink:href="#DejaVuSans-38" transform="translate(95.410156 0)"/>
       <use xlink:href="#DejaVuSans-35" transform="translate(159.033203 0)"/>
      </g>
     </g>
    </g>
    <g id="ytick_2">
     <g id="line2d_10">
      <path d="M 114.048 527.028485 
L 333.476571 527.028485 
" clip-path="url(#p4dc73b450f)" style="fill: none; stroke: #b0b0b0; stroke-opacity: 0.2; stroke-width: 0.8; stroke-linecap: square"/>
     </g>
     <g id="line2d_11">
      <g>
       <use xlink:href="#mcc7d234c66" x="114.048" y="527.028485" style="stroke: #000000; stroke-width: 0.8"/>
      </g>
     </g>
     <g id="text_9">
      <!-- 0.90 -->
      <g transform="translate(44.70425 537.666298) scale(0.28 -0.28)">
       <defs>
        <path id="DejaVuSans-39" d="M 703 97 
L 703 672 
Q 941 559 1184 500 
Q 1428 441 1663 441 
Q 2288 441 2617 861 
Q 2947 1281 2994 2138 
Q 2813 1869 2534 1725 
Q 2256 1581 1919 1581 
Q 1219 1581 811 2004 
Q 403 2428 403 3163 
Q 403 3881 828 4315 
Q 1253 4750 1959 4750 
Q 2769 4750 3195 4129 
Q 3622 3509 3622 2328 
Q 3622 1225 3098 567 
Q 2575 -91 1691 -91 
Q 1453 -91 1209 -44 
Q 966 3 703 97 
z
M 1959 2075 
Q 2384 2075 2632 2365 
Q 2881 2656 2881 3163 
Q 2881 3666 2632 3958 
Q 2384 4250 1959 4250 
Q 1534 4250 1286 3958 
Q 1038 3666 1038 3163 
Q 1038 2656 1286 2365 
Q 1534 2075 1959 2075 
z
" transform="scale(0.015625)"/>
       </defs>
       <use xlink:href="#DejaVuSans-30"/>
       <use xlink:href="#DejaVuSans-2e" transform="translate(63.623047 0)"/>
       <use xlink:href="#DejaVuSans-39" transform="translate(95.410156 0)"/>
       <use xlink:href="#DejaVuSans-30" transform="translate(159.033203 0)"/>
      </g>
     </g>
    </g>
    <g id="ytick_3">
     <g id="line2d_12">
      <path d="M 114.048 442.711889 
L 333.476571 442.711889 
" clip-path="url(#p4dc73b450f)" style="fill: none; stroke: #b0b0b0; stroke-opacity: 0.2; stroke-width: 0.8; stroke-linecap: square"/>
     </g>
     <g id="line2d_13">
      <g>
       <use xlink:href="#mcc7d234c66" x="114.048" y="442.711889" style="stroke: #000000; stroke-width: 0.8"/>
      </g>
     </g>
     <g id="text_10">
      <!-- 0.95 -->
      <g transform="translate(44.70425 453.349701) scale(0.28 -0.28)">
       <use xlink:href="#DejaVuSans-30"/>
       <use xlink:href="#DejaVuSans-2e" transform="translate(63.623047 0)"/>
       <use xlink:href="#DejaVuSans-39" transform="translate(95.410156 0)"/>
       <use xlink:href="#DejaVuSans-35" transform="translate(159.033203 0)"/>
      </g>
     </g>
    </g>
    <g id="ytick_4">
     <g id="line2d_14">
      <path d="M 114.048 358.395292 
L 333.476571 358.395292 
" clip-path="url(#p4dc73b450f)" style="fill: none; stroke: #b0b0b0; stroke-opacity: 0.2; stroke-width: 0.8; stroke-linecap: square"/>
     </g>
     <g id="line2d_15">
      <g>
       <use xlink:href="#mcc7d234c66" x="114.048" y="358.395292" style="stroke: #000000; stroke-width: 0.8"/>
      </g>
     </g>
     <g id="text_11">
      <!-- 1.00 -->
      <g transform="translate(44.70425 369.033104) scale(0.28 -0.28)">
       <use xlink:href="#DejaVuSans-31"/>
       <use xlink:href="#DejaVuSans-2e" transform="translate(63.623047 0)"/>
       <use xlink:href="#DejaVuSans-30" transform="translate(95.410156 0)"/>
       <use xlink:href="#DejaVuSans-30" transform="translate(159.033203 0)"/>
      </g>
     </g>
    </g>
    <g id="ytick_5">
     <g id="line2d_16">
      <path d="M 114.048 274.078695 
L 333.476571 274.078695 
" clip-path="url(#p4dc73b450f)" style="fill: none; stroke: #b0b0b0; stroke-opacity: 0.2; stroke-width: 0.8; stroke-linecap: square"/>
     </g>
     <g id="line2d_17">
      <g>
       <use xlink:href="#mcc7d234c66" x="114.048" y="274.078695" style="stroke: #000000; stroke-width: 0.8"/>
      </g>
     </g>
     <g id="text_12">
      <!-- 1.05 -->
      <g transform="translate(44.70425 284.716508) scale(0.28 -0.28)">
       <use xlink:href="#DejaVuSans-31"/>
       <use xlink:href="#DejaVuSans-2e" transform="translate(63.623047 0)"/>
       <use xlink:href="#DejaVuSans-30" transform="translate(95.410156 0)"/>
       <use xlink:href="#DejaVuSans-35" transform="translate(159.033203 0)"/>
      </g>
     </g>
    </g>
    <g id="ytick_6">
     <g id="line2d_18">
      <path d="M 114.048 189.762098 
L 333.476571 189.762098 
" clip-path="url(#p4dc73b450f)" style="fill: none; stroke: #b0b0b0; stroke-opacity: 0.2; stroke-width: 0.8; stroke-linecap: square"/>
     </g>
     <g id="line2d_19">
      <g>
       <use xlink:href="#mcc7d234c66" x="114.048" y="189.762098" style="stroke: #000000; stroke-width: 0.8"/>
      </g>
     </g>
     <g id="text_13">
      <!-- 1.10 -->
      <g transform="translate(44.70425 200.399911) scale(0.28 -0.28)">
       <use xlink:href="#DejaVuSans-31"/>
       <use xlink:href="#DejaVuSans-2e" transform="translate(63.623047 0)"/>
       <use xlink:href="#DejaVuSans-31" transform="translate(95.410156 0)"/>
       <use xlink:href="#DejaVuSans-30" transform="translate(159.033203 0)"/>
      </g>
     </g>
    </g>
    <g id="ytick_7">
     <g id="line2d_20">
      <path d="M 114.048 105.445502 
L 333.476571 105.445502 
" clip-path="url(#p4dc73b450f)" style="fill: none; stroke: #b0b0b0; stroke-opacity: 0.2; stroke-width: 0.8; stroke-linecap: square"/>
     </g>
     <g id="line2d_21">
      <g>
       <use xlink:href="#mcc7d234c66" x="114.048" y="105.445502" style="stroke: #000000; stroke-width: 0.8"/>
      </g>
     </g>
     <g id="text_14">
      <!-- 1.15 -->
      <g transform="translate(44.70425 116.083314) scale(0.28 -0.28)">
       <use xlink:href="#DejaVuSans-31"/>
       <use xlink:href="#DejaVuSans-2e" transform="translate(63.623047 0)"/>
       <use xlink:href="#DejaVuSans-31" transform="translate(95.410156 0)"/>
       <use xlink:href="#DejaVuSans-35" transform="translate(159.033203 0)"/>
      </g>
     </g>
    </g>
    <g id="text_15">
     <!-- $\sigma_{LE}/\sigma_{NL}$ -->
     <g transform="translate(32.801437 421.55) rotate(-90) scale(0.38 -0.38)">
      <defs>
       <path id="DejaVuSans-Oblique-3c3" d="M 2219 3044 
Q 1744 3044 1422 2700 
Q 1081 2341 969 1747 
Q 844 1119 1044 756 
Q 1241 397 1706 397 
Q 2166 397 2503 759 
Q 2844 1122 2966 1747 
Q 3075 2319 2881 2700 
Q 2700 3044 2219 3044 
z
M 2309 3503 
L 4219 3500 
L 4106 2925 
L 3463 2925 
Q 3706 2438 3575 1747 
Q 3406 888 2884 400 
Q 2359 -91 1609 -91 
Q 856 -91 525 400 
Q 194 888 363 1747 
Q 528 2609 1050 3097 
Q 1484 3503 2309 3503 
z
" transform="scale(0.015625)"/>
       <path id="DejaVuSans-Oblique-4c" d="M 1075 4666 
L 1709 4666 
L 909 525 
L 3181 525 
L 3078 0 
L 172 0 
L 1075 4666 
z
" transform="scale(0.015625)"/>
       <path id="DejaVuSans-2f" d="M 1625 4666 
L 2156 4666 
L 531 -594 
L 0 -594 
L 1625 4666 
z
" transform="scale(0.015625)"/>
       <path id="DejaVuSans-Oblique-4e" d="M 1081 4666 
L 1931 4666 
L 3219 666 
L 4000 4666 
L 4616 4666 
L 3706 0 
L 2853 0 
L 1569 4025 
L 788 0 
L 172 0 
L 1081 4666 
z
" transform="scale(0.015625)"/>
      </defs>
      <use xlink:href="#DejaVuSans-Oblique-3c3" transform="translate(0 0.09375)"/>
      <use xlink:href="#DejaVuSans-Oblique-4c" transform="translate(63.378906 -16.3125) scale(0.7)"/>
      <use xlink:href="#DejaVuSans-Oblique-45" transform="translate(102.37793 -16.3125) scale(0.7)"/>
      <use xlink:href="#DejaVuSans-2f" transform="translate(149.34082 0.09375)"/>
      <use xlink:href="#DejaVuSans-Oblique-3c3" transform="translate(183.032227 0.09375)"/>
      <use xlink:href="#DejaVuSans-Oblique-4e" transform="translate(246.411133 -16.3125) scale(0.7)"/>
      <use xlink:href="#DejaVuSans-Oblique-4c" transform="translate(298.774414 -16.3125) scale(0.7)"/>
     </g>
    </g>
   </g>
   <g id="line2d_22">
    <path d="M 124.022026 358.467938 
L 127.074801 346.215884 
L 130.127576 334.777601 
L 133.180351 325.014677 
L 136.233125 316.558002 
L 139.2859 309.230921 
L 142.338675 302.942854 
L 145.39145 297.672104 
L 148.444225 293.371111 
L 151.497 290.029022 
L 154.549774 287.585902 
L 157.602549 285.989261 
L 160.655324 285.163046 
L 163.708099 285.014166 
L 166.760874 285.439563 
L 169.813649 286.324153 
L 172.866423 287.582479 
L 175.919198 289.101039 
L 178.971973 290.803034 
L 182.024748 292.621943 
L 185.077523 294.481233 
L 188.130298 296.343611 
L 191.183073 298.16874 
L 194.235847 299.923913 
L 197.288622 301.602914 
L 200.341397 303.185801 
L 203.394172 304.660632 
L 206.446947 306.029785 
L 209.499722 307.299746 
L 212.552496 308.463414 
L 215.605271 309.531846 
L 218.658046 310.510888 
L 221.710821 311.4056 
L 224.763596 312.233045 
L 227.816371 312.997206 
L 230.869146 313.706162 
L 233.92192 314.371363 
L 236.974695 315.004095 
L 240.02747 315.607823 
L 243.080245 316.193086 
L 246.13302 316.764447 
L 249.185795 317.327373 
L 252.238569 317.886578 
L 255.291344 318.445926 
L 258.344119 319.008384 
L 261.396894 319.580135 
L 264.449669 320.166445 
L 267.502444 320.780865 
L 270.555219 321.438868 
L 273.607993 322.170092 
L 276.660768 323.023868 
L 279.713543 324.052836 
L 282.766318 325.366431 
L 285.819093 327.086426 
L 288.871868 329.369149 
L 291.924642 332.415627 
L 294.977417 336.438329 
L 298.030192 341.759887 
L 301.082967 348.708895 
L 304.135742 357.641153 
L 307.188517 368.776197 
L 310.241292 382.068051 
L 313.294066 396.883687 
L 316.346841 411.827518 
L 319.399616 424.819772 
L 322.452391 433.591938 
L 323.502545 435.384419 
" clip-path="url(#p4dc73b450f)" style="fill: none; stroke-dasharray: 11.1,4.8; stroke-dashoffset: 0; stroke: #000000; stroke-width: 3"/>
   </g>
   <g id="line2d_23">
    <path d="M 124.022026 529.173616 
L 127.074801 594.936611 
L 130.127576 603.557606 
L 133.180351 605.16 
L 136.233125 604.63173 
L 139.2859 602.308517 
L 142.338675 598.139229 
L 145.39145 592.116806 
L 148.444225 584.368309 
L 151.497 575.097505 
L 154.549774 564.637867 
L 157.602549 553.350269 
L 160.655324 541.632472 
L 163.708099 529.875597 
L 166.760874 518.428641 
L 169.813649 507.615987 
L 172.866423 497.634881 
L 175.919198 488.692347 
L 178.971973 480.878708 
L 182.024748 474.229414 
L 185.077523 468.784872 
L 188.130298 464.485252 
L 191.183073 461.293496 
L 194.235847 459.141553 
L 197.288622 457.919446 
L 200.341397 457.548487 
L 203.394172 457.945757 
L 206.446947 459.000236 
L 209.499722 460.600283 
L 212.552496 462.669842 
L 215.605271 465.100409 
L 218.658046 467.790378 
L 221.710821 470.650981 
L 224.763596 473.558256 
L 227.816371 476.420105 
L 230.869146 479.145508 
L 233.92192 481.620794 
L 236.974695 483.730994 
L 240.02747 485.398712 
L 243.080245 486.510397 
L 246.13302 486.976236 
L 249.185795 486.708733 
L 252.238569 485.625913 
L 255.291344 483.656373 
L 258.344119 480.722779 
L 261.396894 476.768557 
L 264.449669 471.716515 
L 267.502444 465.508691 
L 270.555219 458.049807 
L 273.607993 449.223347 
L 276.660768 438.862201 
L 279.713543 426.803129 
L 282.766318 412.75787 
L 285.819093 396.479434 
L 288.871868 377.697306 
L 291.924642 356.296524 
L 294.977417 332.227444 
L 298.030192 305.718677 
L 301.082967 276.972507 
L 304.135742 246.379082 
L 307.188517 214.811878 
L 310.241292 184.253352 
L 313.294066 157.454945 
L 316.346841 136.510611 
L 319.399616 121.461593 
L 322.452391 111.016025 
L 323.502545 108.36 
" clip-path="url(#p4dc73b450f)" style="fill: none; stroke-dasharray: 3,4.95; stroke-dashoffset: 0; stroke: #000000; stroke-width: 3"/>
   </g>
   <g id="line2d_24">
    <path d="M 124.022026 344.847427 
L 127.074801 334.419409 
L 130.127576 328.320925 
L 133.180351 323.975106 
L 136.233125 320.687894 
L 139.2859 318.140873 
L 142.338675 316.120164 
L 145.39145 314.496556 
L 148.444225 313.136111 
L 151.497 311.979575 
L 154.549774 310.944825 
L 157.602549 309.998184 
L 160.655324 309.114002 
L 163.708099 308.274172 
L 166.760874 307.471363 
L 169.813649 306.695942 
L 172.866423 305.972472 
L 175.919198 305.294666 
L 178.971973 304.686748 
L 182.024748 304.175695 
L 185.077523 303.762076 
L 188.130298 303.470563 
L 191.183073 303.32088 
L 194.235847 303.318325 
L 197.288622 303.483965 
L 200.341397 303.813526 
L 203.394172 304.300608 
L 206.446947 304.942422 
L 209.499722 305.72934 
L 212.552496 306.633114 
L 215.605271 307.637426 
L 218.658046 308.720365 
L 221.710821 309.850321 
L 224.763596 311.013173 
L 227.816371 312.178329 
L 230.869146 313.327238 
L 233.92192 314.441223 
L 236.974695 315.503229 
L 240.02747 316.501513 
L 243.080245 317.423505 
L 246.13302 318.258897 
L 249.185795 318.996961 
L 252.238569 319.637349 
L 255.291344 320.169403 
L 258.344119 320.582863 
L 261.396894 320.874193 
L 264.449669 321.027635 
L 267.502444 321.036332 
L 270.555219 320.896441 
L 273.607993 320.57243 
L 276.660768 320.064448 
L 279.713543 319.334586 
L 282.766318 318.362425 
L 285.819093 317.119593 
L 288.871868 315.575571 
L 291.924642 313.706176 
L 294.977417 311.465828 
L 298.030192 308.865912 
L 301.082967 305.908181 
L 304.135742 302.592592 
L 307.188517 298.779023 
L 310.241292 294.209462 
L 313.294066 288.440944 
L 316.346841 280.941263 
L 319.399616 271.59399 
L 322.452391 261.098086 
L 323.502545 257.477609 
" clip-path="url(#p4dc73b450f)" style="fill: none; stroke-dasharray: 11.1,4.8; stroke-dashoffset: 0; stroke: #e69f00; stroke-width: 3"/>
   </g>
   <g id="line2d_25">
    <path d="M 124.022026 560.923317 
L 127.074801 584.491746 
L 130.127576 572.966488 
L 133.180351 559.83216 
L 136.233125 548.404631 
L 139.2859 539.091097 
L 142.338675 531.873904 
L 145.39145 526.553809 
L 148.444225 522.926513 
L 151.497 520.721835 
L 154.549774 519.704324 
L 157.602549 519.603494 
L 160.655324 520.172364 
L 163.708099 521.169931 
L 166.760874 522.367189 
L 169.813649 523.557522 
L 172.866423 524.495692 
L 175.919198 525.022865 
L 178.971973 524.947877 
L 182.024748 524.11813 
L 185.077523 522.406374 
L 188.130298 519.725482 
L 191.183073 516.025596 
L 194.235847 511.288335 
L 197.288622 505.552956 
L 200.341397 498.894667 
L 203.394172 491.438858 
L 206.446947 483.327698 
L 209.499722 474.723068 
L 212.552496 465.820164 
L 215.605271 456.796026 
L 218.658046 447.831876 
L 221.710821 439.10298 
L 224.763596 430.718546 
L 227.816371 422.817098 
L 230.869146 415.511833 
L 233.92192 408.857727 
L 236.974695 402.887961 
L 240.02747 397.673325 
L 243.080245 393.211145 
L 246.13302 389.507535 
L 249.185795 386.559894 
L 252.238569 384.344147 
L 255.291344 382.882308 
L 258.344119 382.095278 
L 261.396894 382.017023 
L 264.449669 382.568567 
L 267.502444 383.789211 
L 270.555219 385.595135 
L 273.607993 387.997391 
L 276.660768 390.916476 
L 279.713543 394.34996 
L 282.766318 398.231849 
L 285.819093 402.483026 
L 288.871868 406.998119 
L 291.924642 411.68751 
L 294.977417 416.370829 
L 298.030192 421.096752 
L 301.082967 425.902336 
L 304.135742 430.931848 
L 307.188517 436.451282 
L 310.241292 442.885152 
L 313.294066 450.575987 
L 316.346841 460.077878 
L 319.399616 472.786609 
L 322.452391 490.446858 
L 323.502545 497.840549 
" clip-path="url(#p4dc73b450f)" style="fill: none; stroke-dasharray: 3,4.95; stroke-dashoffset: 0; stroke: #e69f00; stroke-width: 3"/>
   </g>
   <g id="line2d_26">
    <path d="M 124.022026 341.907413 
L 127.074801 332.886497 
L 130.127576 325.855548 
L 133.180351 319.933109 
L 136.233125 314.872327 
L 139.2859 310.570852 
L 142.338675 306.966059 
L 145.39145 304.044187 
L 148.444225 301.756704 
L 151.497 300.091694 
L 154.549774 298.994065 
L 157.602549 298.42182 
L 160.655324 298.319946 
L 163.708099 298.626971 
L 166.760874 299.274667 
L 169.813649 300.193442 
L 172.866423 301.329893 
L 175.919198 302.619788 
L 178.971973 304.015662 
L 182.024748 305.478542 
L 185.077523 306.966073 
L 188.130298 308.455145 
L 191.183073 309.925652 
L 194.235847 311.358361 
L 197.288622 312.749649 
L 200.341397 314.090336 
L 203.394172 315.378425 
L 206.446947 316.617673 
L 209.499722 317.809852 
L 212.552496 318.960646 
L 215.605271 320.077183 
L 218.658046 321.172917 
L 221.710821 322.256247 
L 224.763596 323.337307 
L 227.816371 324.43244 
L 230.869146 325.557305 
L 233.92192 326.727297 
L 236.974695 327.956617 
L 240.02747 329.270854 
L 243.080245 330.68616 
L 246.13302 332.22465 
L 249.185795 333.913981 
L 252.238569 335.77275 
L 255.291344 337.836447 
L 258.344119 340.123792 
L 261.396894 342.672866 
L 264.449669 345.504244 
L 267.502444 348.645177 
L 270.555219 352.107834 
L 273.607993 355.881337 
L 276.660768 359.932831 
L 279.713543 364.193973 
L 282.766318 368.574877 
L 285.819093 372.976209 
L 288.871868 377.284192 
L 291.924642 381.404847 
L 294.977417 385.261075 
L 298.030192 388.803311 
L 301.082967 392.03066 
L 304.135742 394.972301 
L 307.188517 397.684563 
L 310.241292 400.278174 
L 313.294066 402.923234 
L 316.346841 405.648851 
L 319.399616 408.170528 
L 322.452391 409.94788 
L 323.502545 410.29261 
" clip-path="url(#p4dc73b450f)" style="fill: none; stroke-dasharray: 11.1,4.8; stroke-dashoffset: 0; stroke: #56b4e9; stroke-width: 3"/>
   </g>
   <g id="line2d_27">
    <path d="M 124.022026 561.871437 
L 127.074801 572.330071 
L 130.127576 573.335549 
L 133.180351 572.476103 
L 136.233125 570.237214 
L 139.2859 566.546358 
L 142.338675 561.355701 
L 145.39145 554.686482 
L 148.444225 546.682047 
L 151.497 537.532927 
L 154.549774 527.519275 
L 157.602549 516.93858 
L 160.655324 506.106819 
L 163.708099 495.326489 
L 166.760874 484.878571 
L 169.813649 475.008791 
L 172.866423 465.884092 
L 175.919198 457.664531 
L 178.971973 450.433833 
L 182.024748 444.229747 
L 185.077523 439.100634 
L 188.130298 435.021488 
L 191.183073 431.970645 
L 194.235847 429.922764 
L 197.288622 428.791215 
L 200.341397 428.544861 
L 203.394172 429.140489 
L 206.446947 430.499377 
L 209.499722 432.557146 
L 212.552496 435.285608 
L 215.605271 438.620068 
L 218.658046 442.487057 
L 221.710821 446.864687 
L 224.763596 451.65807 
L 227.816371 456.820972 
L 230.869146 462.298473 
L 233.92192 468.006415 
L 236.974695 473.824075 
L 240.02747 479.69265 
L 243.080245 485.466333 
L 246.13302 490.994842 
L 249.185795 496.099405 
L 252.238569 500.560282 
L 255.291344 504.133834 
L 258.344119 506.497457 
L 261.396894 507.335839 
L 264.449669 506.262177 
L 267.502444 502.904169 
L 270.555219 496.899323 
L 273.607993 487.936125 
L 276.660768 475.800356 
L 279.713543 460.42388 
L 282.766318 441.876465 
L 285.819093 420.371947 
L 288.871868 396.269695 
L 291.924642 370.09047 
L 294.977417 342.402894 
L 298.030192 314.087728 
L 301.082967 285.886791 
L 304.135742 258.467502 
L 307.188517 232.24179 
L 310.241292 207.69881 
L 313.294066 185.232913 
L 316.346841 165.260783 
L 319.399616 148.663018 
L 322.452391 136.862919 
L 323.502545 134.153772 
" clip-path="url(#p4dc73b450f)" style="fill: none; stroke-dasharray: 3,4.95; stroke-dashoffset: 0; stroke: #56b4e9; stroke-width: 3"/>
   </g>
   <g id="line2d_28">
    <path d="M 124.022026 323.022462 
L 127.074801 319.986033 
L 130.127576 318.309804 
L 133.180351 317.388635 
L 136.233125 316.973696 
L 139.2859 316.914721 
L 142.338675 317.104697 
L 145.39145 317.482468 
L 148.444225 317.984092 
L 151.497 318.585031 
L 154.549774 319.249702 
L 157.602549 319.967419 
L 160.655324 320.728898 
L 163.708099 321.530231 
L 166.760874 322.370158 
L 169.813649 323.247627 
L 172.866423 324.173773 
L 175.919198 325.146692 
L 178.971973 326.175706 
L 182.024748 327.268738 
L 185.077523 328.42595 
L 188.130298 329.653513 
L 191.183073 330.954 
L 194.235847 332.325592 
L 197.288622 333.770435 
L 200.341397 335.280428 
L 203.394172 336.847333 
L 206.446947 338.461952 
L 209.499722 340.111308 
L 212.552496 341.778516 
L 215.605271 343.445657 
L 218.658046 345.094336 
L 221.710821 346.704085 
L 224.763596 348.257228 
L 227.816371 349.733452 
L 230.869146 351.113339 
L 233.92192 352.383692 
L 236.974695 353.529782 
L 240.02747 354.541778 
L 243.080245 355.409824 
L 246.13302 356.131762 
L 249.185795 356.707189 
L 252.238569 357.137203 
L 255.291344 357.42636 
L 258.344119 357.581046 
L 261.396894 357.609907 
L 264.449669 357.51731 
L 267.502444 357.312487 
L 270.555219 357.001886 
L 273.607993 356.58933 
L 276.660768 356.07456 
L 279.713543 355.453904 
L 282.766318 354.717868 
L 285.819093 353.86205 
L 288.871868 352.888126 
L 291.924642 351.81179 
L 294.977417 350.642013 
L 298.030192 349.395175 
L 301.082967 348.071264 
L 304.135742 346.664223 
L 307.188517 345.166529 
L 310.241292 343.677123 
L 313.294066 342.513111 
L 316.346841 342.32901 
L 319.399616 344.206434 
L 322.452391 349.607114 
L 323.502545 352.519935 
" clip-path="url(#p4dc73b450f)" style="fill: none; stroke-dasharray: 11.1,4.8; stroke-dashoffset: 0; stroke: #009e73; stroke-width: 3"/>
   </g>
   <g id="line2d_29">
    <path d="M 124.022026 529.435184 
L 127.074801 517.839378 
L 130.127576 506.289394 
L 133.180351 496.219134 
L 136.233125 487.836687 
L 139.2859 481.128277 
L 142.338675 476.013525 
L 145.39145 472.332584 
L 148.444225 469.958359 
L 151.497 468.70184 
L 154.549774 468.43334 
L 157.602549 468.982937 
L 160.655324 470.200496 
L 163.708099 471.940876 
L 166.760874 474.06633 
L 169.813649 476.444156 
L 172.866423 478.931368 
L 175.919198 481.41301 
L 178.971973 483.754556 
L 182.024748 485.830893 
L 185.077523 487.528798 
L 188.130298 488.741423 
L 191.183073 489.36135 
L 194.235847 489.306611 
L 197.288622 488.48838 
L 200.341397 486.855797 
L 203.394172 484.376143 
L 206.446947 481.029089 
L 209.499722 476.816709 
L 212.552496 471.782098 
L 215.605271 465.972656 
L 218.658046 459.462326 
L 221.710821 452.350434 
L 224.763596 444.721854 
L 227.816371 436.692891 
L 230.869146 428.395793 
L 233.92192 419.930551 
L 236.974695 411.392119 
L 240.02747 402.921453 
L 243.080245 394.601845 
L 246.13302 386.521563 
L 249.185795 378.767044 
L 252.238569 371.412359 
L 255.291344 364.553658 
L 258.344119 358.199317 
L 261.396894 352.459024 
L 264.449669 347.324336 
L 267.502444 342.88392 
L 270.555219 339.140458 
L 273.607993 336.118017 
L 276.660768 333.851228 
L 279.713543 332.383226 
L 282.766318 331.806699 
L 285.819093 332.236787 
L 288.871868 333.816509 
L 291.924642 336.728026 
L 294.977417 341.043313 
L 298.030192 346.92078 
L 301.082967 354.372882 
L 304.135742 363.402697 
L 307.188517 373.925662 
L 310.241292 385.889073 
L 313.294066 398.875615 
L 316.346841 411.748414 
L 319.399616 422.421961 
L 322.452391 427.232706 
L 323.502545 426.672448 
" clip-path="url(#p4dc73b450f)" style="fill: none; stroke-dasharray: 3,4.95; stroke-dashoffset: 0; stroke: #009e73; stroke-width: 3"/>
   </g>
   <g id="line2d_30">
    <path d="M 114.048 358.395292 
L 333.476571 358.395292 
" clip-path="url(#p4dc73b450f)" style="fill: none; stroke: #000000; stroke-opacity: 0.25; stroke-width: 1.5; stroke-linecap: square"/>
   </g>
   <g id="line2d_31">
    <path d="M 306.328977 630 
L 306.328977 83.52 
" clip-path="url(#p4dc73b450f)" style="fill: none; stroke-dasharray: 5.55,2.4; stroke-dashoffset: 0; stroke: #ff0000; stroke-width: 1.5"/>
   </g>
   <g id="patch_5">
    <path d="M 114.048 630 
L 114.048 83.52 
" style="fill: none; stroke: #000000; stroke-width: 0.8; stroke-linejoin: miter; stroke-linecap: square"/>
   </g>
   <g id="patch_6">
    <path d="M 333.476571 630 
L 333.476571 83.52 
" style="fill: none; stroke: #000000; stroke-width: 0.8; stroke-linejoin: miter; stroke-linecap: square"/>
   </g>
   <g id="patch_7">
    <path d="M 114.048 630 
L 333.476571 630 
" style="fill: none; stroke: #000000; stroke-width: 0.8; stroke-linejoin: miter; stroke-linecap: square"/>
   </g>
   <g id="patch_8">
    <path d="M 114.048 83.52 
L 333.476571 83.52 
" style="fill: none; stroke: #000000; stroke-width: 0.8; stroke-linejoin: miter; stroke-linecap: square"/>
   </g>
   <g id="text_16">
    <!-- 30MeV -->
    <g transform="translate(134.558268 134.008625) scale(0.2 -0.2)">
     <use xlink:href="#DejaVuSans-33"/>
     <use xlink:href="#DejaVuSans-30" transform="translate(63.623047 0)"/>
     <use xlink:href="#DejaVuSans-4d" transform="translate(127.246094 0)"/>
     <use xlink:href="#DejaVuSans-65" transform="translate(213.525391 0)"/>
     <use xlink:href="#DejaVuSans-56" transform="translate(275.048828 0)"/>
    </g>
   </g>
   <g id="legend_1">
    <g id="line2d_32">
     <path d="M 208.460946 107.097187 
L 226.460946 107.097187 
L 244.460946 107.097187 
" style="fill: none; stroke-dasharray: 3.5,5.775; stroke-dashoffset: 0; stroke: #000000; stroke-width: 3.5"/>
    </g>
    <g id="text_17">
     <!-- LELO -->
     <g transform="translate(258.860946 113.397187) scale(0.18 -0.18)">
      <defs>
       <path id="DejaVuSans-4c" d="M 628 4666 
L 1259 4666 
L 1259 531 
L 3531 531 
L 3531 0 
L 628 0 
L 628 4666 
z
" transform="scale(0.015625)"/>
       <path id="DejaVuSans-45" d="M 628 4666 
L 3578 4666 
L 3578 4134 
L 1259 4134 
L 1259 2753 
L 3481 2753 
L 3481 2222 
L 1259 2222 
L 1259 531 
L 3634 531 
L 3634 0 
L 628 0 
L 628 4666 
z
" transform="scale(0.015625)"/>
       <path id="DejaVuSans-4f" d="M 2522 4238 
Q 1834 4238 1429 3725 
Q 1025 3213 1025 2328 
Q 1025 1447 1429 934 
Q 1834 422 2522 422 
Q 3209 422 3611 934 
Q 4013 1447 4013 2328 
Q 4013 3213 3611 3725 
Q 3209 4238 2522 4238 
z
M 2522 4750 
Q 3503 4750 4090 4092 
Q 4678 3434 4678 2328 
Q 4678 1225 4090 567 
Q 3503 -91 2522 -91 
Q 1538 -91 948 565 
Q 359 1222 359 2328 
Q 359 3434 948 4092 
Q 1538 4750 2522 4750 
z
" transform="scale(0.015625)"/>
      </defs>
      <use xlink:href="#DejaVuSans-4c"/>
      <use xlink:href="#DejaVuSans-45" transform="translate(55.712891 0)"/>
      <use xlink:href="#DejaVuSans-4c" transform="translate(118.896484 0)"/>
      <use xlink:href="#DejaVuSans-4f" transform="translate(170.984375 0)"/>
     </g>
    </g>
    <g id="line2d_33">
     <path d="M 208.460946 133.517812 
L 226.460946 133.517812 
L 244.460946 133.517812 
" style="fill: none; stroke-dasharray: 12.95,5.6; stroke-dashoffset: 0; stroke: #000000; stroke-width: 3.5"/>
    </g>
    <g id="text_18">
     <!-- LENLO -->
     <g transform="translate(258.860946 139.817812) scale(0.18 -0.18)">
      <defs>
       <path id="DejaVuSans-4e" d="M 628 4666 
L 1478 4666 
L 3547 763 
L 3547 4666 
L 4159 4666 
L 4159 0 
L 3309 0 
L 1241 3903 
L 1241 0 
L 628 0 
L 628 4666 
z
" transform="scale(0.015625)"/>
      </defs>
      <use xlink:href="#DejaVuSans-4c"/>
      <use xlink:href="#DejaVuSans-45" transform="translate(55.712891 0)"/>
      <use xlink:href="#DejaVuSans-4e" transform="translate(118.896484 0)"/>
      <use xlink:href="#DejaVuSans-4c" transform="translate(193.701172 0)"/>
      <use xlink:href="#DejaVuSans-4f" transform="translate(245.789062 0)"/>
     </g>
    </g>
   </g>
  </g>
  <g id="axes_3">
   <g id="patch_9">
    <path d="M 341.595429 630 
L 561.024 630 
L 561.024 83.52 
L 341.595429 83.52 
L 341.595429 630 
z
" style="fill: none"/>
   </g>
   <g id="axes_4">
    <g id="patch_10">
     <path d="M 341.595429 83.52 
L 561.024 83.52 
L 561.024 83.52 
L 341.595429 83.52 
L 341.595429 83.52 
z
" style="fill: none"/>
    </g>
    <g id="matplotlib.axis_5">
     <g id="xtick_6">
      <g id="line2d_34">
       <g>
        <use xlink:href="#mdd6b2ac6e2" x="520.444197" y="83.52" style="stroke: #000000; stroke-width: 0.8"/>
       </g>
      </g>
      <g id="text_19">
       <!-- 10 -->
       <g transform="translate(502.629197 70.696875) scale(0.28 -0.28)">
        <use xlink:href="#DejaVuSans-31"/>
        <use xlink:href="#DejaVuSans-30" transform="translate(63.623047 0)"/>
       </g>
      </g>
     </g>
     <g id="xtick_7">
      <g id="line2d_35">
       <g>
        <use xlink:href="#mdd6b2ac6e2" x="459.3887" y="83.52" style="stroke: #000000; stroke-width: 0.8"/>
       </g>
      </g>
      <g id="text_20">
       <!-- 20 -->
       <g transform="translate(441.5737 70.696875) scale(0.28 -0.28)">
        <use xlink:href="#DejaVuSans-32"/>
        <use xlink:href="#DejaVuSans-30" transform="translate(63.623047 0)"/>
       </g>
      </g>
     </g>
     <g id="xtick_8">
      <g id="line2d_36">
       <g>
        <use xlink:href="#mdd6b2ac6e2" x="398.333203" y="83.52" style="stroke: #000000; stroke-width: 0.8"/>
       </g>
      </g>
      <g id="text_21">
       <!-- 30 -->
       <g transform="translate(380.518203 70.696875) scale(0.28 -0.28)">
        <use xlink:href="#DejaVuSans-33"/>
        <use xlink:href="#DejaVuSans-30" transform="translate(63.623047 0)"/>
       </g>
      </g>
     </g>
     <g id="text_22">
      <!-- $E_t$ (MeV) -->
      <g transform="translate(371.509714 34.42125) scale(0.38 -0.38)">
       <use xlink:href="#DejaVuSans-Oblique-45" transform="translate(0 0.125)"/>
       <use xlink:href="#DejaVuSans-Oblique-74" transform="translate(63.183594 -16.28125) scale(0.7)"/>
       <use xlink:href="#DejaVuSans-20" transform="translate(93.364258 0.125)"/>
       <use xlink:href="#DejaVuSans-28" transform="translate(125.151367 0.125)"/>
       <use xlink:href="#DejaVuSans-4d" transform="translate(164.165039 0.125)"/>
       <use xlink:href="#DejaVuSans-65" transform="translate(250.444336 0.125)"/>
       <use xlink:href="#DejaVuSans-56" transform="translate(311.967773 0.125)"/>
       <use xlink:href="#DejaVuSans-29" transform="translate(380.375977 0.125)"/>
      </g>
     </g>
    </g>
    <g id="matplotlib.axis_6"/>
    <g id="patch_11">
     <path d="M 561.024 83.52 
L 341.595429 83.52 
" style="fill: none; stroke: #000000; stroke-width: 0.8; stroke-linejoin: miter; stroke-linecap: square"/>
    </g>
   </g>
   <g id="matplotlib.axis_7">
    <g id="xtick_9">
     <g id="line2d_37">
      <path d="M 348.51668 630 
L 348.51668 83.52 
" clip-path="url(#p5b4631cef3)" style="fill: none; stroke: #b0b0b0; stroke-opacity: 0.2; stroke-width: 0.8; stroke-linecap: square"/>
     </g>
     <g id="line2d_38">
      <g>
       <use xlink:href="#mebabc8f202" x="348.51668" y="630" style="stroke: #000000; stroke-width: 0.8"/>
      </g>
     </g>
     <g id="text_23">
      <!-- 0 -->
      <g transform="translate(339.60918 658.275625) scale(0.28 -0.28)">
       <use xlink:href="#DejaVuSans-30"/>
      </g>
     </g>
    </g>
    <g id="xtick_10">
     <g id="line2d_39">
      <path d="M 470.627674 630 
L 470.627674 83.52 
" clip-path="url(#p5b4631cef3)" style="fill: none; stroke: #b0b0b0; stroke-opacity: 0.2; stroke-width: 0.8; stroke-linecap: square"/>
     </g>
     <g id="line2d_40">
      <g>
       <use xlink:href="#mebabc8f202" x="470.627674" y="630" style="stroke: #000000; stroke-width: 0.8"/>
      </g>
     </g>
     <g id="text_24">
      <!-- 20 -->
      <g transform="translate(452.812674 658.275625) scale(0.28 -0.28)">
       <use xlink:href="#DejaVuSans-32"/>
       <use xlink:href="#DejaVuSans-30" transform="translate(63.623047 0)"/>
      </g>
     </g>
    </g>
    <g id="text_25">
     <!-- $S_{2n}$ (MeV) -->
     <g transform="translate(359.729714 696.972813) scale(0.38 -0.38)">
      <use xlink:href="#DejaVuSans-Oblique-53" transform="translate(0 0.125)"/>
      <use xlink:href="#DejaVuSans-32" transform="translate(63.476562 -16.28125) scale(0.7)"/>
      <use xlink:href="#DejaVuSans-Oblique-6e" transform="translate(108.012695 -16.28125) scale(0.7)"/>
      <use xlink:href="#DejaVuSans-20" transform="translate(155.112305 0.125)"/>
      <use xlink:href="#DejaVuSans-28" transform="translate(186.899414 0.125)"/>
      <use xlink:href="#DejaVuSans-4d" transform="translate(225.913086 0.125)"/>
      <use xlink:href="#DejaVuSans-65" transform="translate(312.192383 0.125)"/>
      <use xlink:href="#DejaVuSans-56" transform="translate(373.71582 0.125)"/>
      <use xlink:href="#DejaVuSans-29" transform="translate(442.124023 0.125)"/>
     </g>
    </g>
   </g>
   <g id="matplotlib.axis_8">
    <g id="ytick_8">
     <g id="line2d_41">
      <path d="M 341.595429 611.345082 
L 561.024 611.345082 
" clip-path="url(#p5b4631cef3)" style="fill: none; stroke: #b0b0b0; stroke-opacity: 0.2; stroke-width: 0.8; stroke-linecap: square"/>
     </g>
     <g id="line2d_42">
      <g>
       <use xlink:href="#mcc7d234c66" x="341.595429" y="611.345082" style="stroke: #000000; stroke-width: 0.8"/>
      </g>
     </g>
    </g>
    <g id="ytick_9">
     <g id="line2d_43">
      <path d="M 341.595429 527.028485 
L 561.024 527.028485 
" clip-path="url(#p5b4631cef3)" style="fill: none; stroke: #b0b0b0; stroke-opacity: 0.2; stroke-width: 0.8; stroke-linecap: square"/>
     </g>
     <g id="line2d_44">
      <g>
       <use xlink:href="#mcc7d234c66" x="341.595429" y="527.028485" style="stroke: #000000; stroke-width: 0.8"/>
      </g>
     </g>
    </g>
    <g id="ytick_10">
     <g id="line2d_45">
      <path d="M 341.595429 442.711889 
L 561.024 442.711889 
" clip-path="url(#p5b4631cef3)" style="fill: none; stroke: #b0b0b0; stroke-opacity: 0.2; stroke-width: 0.8; stroke-linecap: square"/>
     </g>
     <g id="line2d_46">
      <g>
       <use xlink:href="#mcc7d234c66" x="341.595429" y="442.711889" style="stroke: #000000; stroke-width: 0.8"/>
      </g>
     </g>
    </g>
    <g id="ytick_11">
     <g id="line2d_47">
      <path d="M 341.595429 358.395292 
L 561.024 358.395292 
" clip-path="url(#p5b4631cef3)" style="fill: none; stroke: #b0b0b0; stroke-opacity: 0.2; stroke-width: 0.8; stroke-linecap: square"/>
     </g>
     <g id="line2d_48">
      <g>
       <use xlink:href="#mcc7d234c66" x="341.595429" y="358.395292" style="stroke: #000000; stroke-width: 0.8"/>
      </g>
     </g>
    </g>
    <g id="ytick_12">
     <g id="line2d_49">
      <path d="M 341.595429 274.078695 
L 561.024 274.078695 
" clip-path="url(#p5b4631cef3)" style="fill: none; stroke: #b0b0b0; stroke-opacity: 0.2; stroke-width: 0.8; stroke-linecap: square"/>
     </g>
     <g id="line2d_50">
      <g>
       <use xlink:href="#mcc7d234c66" x="341.595429" y="274.078695" style="stroke: #000000; stroke-width: 0.8"/>
      </g>
     </g>
    </g>
    <g id="ytick_13">
     <g id="line2d_51">
      <path d="M 341.595429 189.762098 
L 561.024 189.762098 
" clip-path="url(#p5b4631cef3)" style="fill: none; stroke: #b0b0b0; stroke-opacity: 0.2; stroke-width: 0.8; stroke-linecap: square"/>
     </g>
     <g id="line2d_52">
      <g>
       <use xlink:href="#mcc7d234c66" x="341.595429" y="189.762098" style="stroke: #000000; stroke-width: 0.8"/>
      </g>
     </g>
    </g>
    <g id="ytick_14">
     <g id="line2d_53">
      <path d="M 341.595429 105.445502 
L 561.024 105.445502 
" clip-path="url(#p5b4631cef3)" style="fill: none; stroke: #b0b0b0; stroke-opacity: 0.2; stroke-width: 0.8; stroke-linecap: square"/>
     </g>
     <g id="line2d_54">
      <g>
       <use xlink:href="#mcc7d234c66" x="341.595429" y="105.445502" style="stroke: #000000; stroke-width: 0.8"/>
      </g>
     </g>
    </g>
   </g>
   <g id="line2d_55">
    <path d="M 351.569455 357.964235 
L 354.622229 346.093135 
L 357.675004 335.255967 
L 360.727779 326.054897 
L 363.780554 318.113042 
L 366.833329 311.252568 
L 369.886104 305.380292 
L 372.938878 300.47001 
L 375.991653 296.476955 
L 379.044428 293.386205 
L 382.097203 291.141497 
L 385.149978 289.694946 
L 388.202753 288.976045 
L 391.255528 288.896159 
L 394.308302 289.361184 
L 397.361077 290.261133 
L 400.413852 291.516256 
L 403.466627 293.017888 
L 406.519402 294.693152 
L 409.572177 296.478543 
L 412.624951 298.300188 
L 415.677726 300.121897 
L 418.730501 301.9054 
L 421.783276 303.618475 
L 424.836051 305.25507 
L 427.888826 306.795736 
L 430.941601 308.229187 
L 433.994375 309.557892 
L 437.04715 310.787189 
L 440.099925 311.91095 
L 443.1527 312.939214 
L 446.205475 313.878375 
L 449.25825 314.732008 
L 452.311024 315.517367 
L 455.363799 316.23841 
L 458.416574 316.901953 
L 461.469349 317.520826 
L 464.522124 318.104997 
L 467.574899 318.658744 
L 470.627674 319.191021 
L 473.680448 319.70867 
L 476.733223 320.217142 
L 479.785998 320.721278 
L 482.838773 321.225709 
L 485.891548 321.734175 
L 488.944323 322.255048 
L 491.997097 322.791773 
L 495.049872 323.358123 
L 498.102647 323.971922 
L 501.155422 324.658567 
L 504.208197 325.463577 
L 507.260972 326.443638 
L 510.313746 327.697255 
L 513.366521 329.339551 
L 516.419296 331.526144 
L 519.472071 334.450023 
L 522.524846 338.318667 
L 525.577621 343.441373 
L 528.630396 350.140849 
L 531.68317 358.768705 
L 534.735945 369.560622 
L 537.78872 382.501962 
L 540.841495 397.014329 
L 543.89427 411.758015 
L 546.947045 424.690788 
L 549.999819 433.551431 
L 551.049974 435.403896 
" clip-path="url(#p5b4631cef3)" style="fill: none; stroke-dasharray: 11.1,4.8; stroke-dashoffset: 0; stroke: #000000; stroke-width: 3"/>
   </g>
   <g id="line2d_56">
    <path d="M 351.569455 528.671648 
L 354.622229 591.631159 
L 357.675004 599.644007 
L 360.727779 601.106724 
L 363.780554 600.618062 
L 366.833329 598.461421 
L 369.886104 594.555766 
L 372.938878 588.867979 
L 375.991653 581.496453 
L 379.044428 572.613287 
L 382.097203 562.52005 
L 385.149978 551.555508 
L 388.202753 540.096093 
L 391.255528 528.52111 
L 394.308302 517.175172 
L 397.361077 506.383022 
L 400.413852 496.349906 
L 403.466627 487.290363 
L 406.519402 479.306266 
L 409.572177 472.445736 
L 412.624951 466.757363 
L 415.677726 462.193436 
L 418.730501 458.723977 
L 421.783276 456.288468 
L 424.836051 454.784401 
L 427.888826 454.137632 
L 430.941601 454.270025 
L 433.994375 455.075849 
L 437.04715 456.447972 
L 440.099925 458.31415 
L 443.1527 460.570527 
L 446.205475 463.119892 
L 449.25825 465.87906 
L 452.311024 468.728994 
L 455.363799 471.583065 
L 458.416574 474.354591 
L 461.469349 476.936085 
L 464.522124 479.217957 
L 467.574899 481.125466 
L 470.627674 482.548516 
L 473.680448 483.401269 
L 476.733223 483.595713 
L 479.785998 483.048447 
L 482.838773 481.68582 
L 485.891548 479.429607 
L 488.944323 476.212131 
L 491.997097 471.954498 
L 495.049872 466.587781 
L 498.102647 460.004197 
L 501.155422 452.08053 
L 504.208197 442.636572 
L 507.260972 431.487885 
L 510.313746 418.328327 
L 513.366521 402.878313 
L 516.419296 384.836204 
L 519.472071 364.041117 
L 522.524846 340.41169 
L 525.577621 314.138925 
L 528.630396 285.41141 
L 531.68317 254.595231 
L 534.735945 222.537535 
L 537.78872 191.207622 
L 540.841495 163.424177 
L 543.89427 141.407958 
L 546.947045 125.276348 
L 549.999819 113.710576 
L 551.049974 110.655204 
" clip-path="url(#p5b4631cef3)" style="fill: none; stroke-dasharray: 3,4.95; stroke-dashoffset: 0; stroke: #000000; stroke-width: 3"/>
   </g>
   <g id="line2d_57">
    <path d="M 351.569455 345.006123 
L 354.622229 335.157554 
L 357.675004 329.449892 
L 360.727779 325.397735 
L 363.780554 322.343922 
L 366.833329 319.987345 
L 369.886104 318.125068 
L 372.938878 316.63796 
L 375.991653 315.397043 
L 379.044428 314.346989 
L 382.097203 313.410244 
L 385.149978 312.556754 
L 388.202753 311.759628 
L 391.255528 311.003952 
L 394.308302 310.280824 
L 397.361077 309.582848 
L 400.413852 308.931572 
L 403.466627 308.321934 
L 406.519402 307.778161 
L 409.572177 307.320372 
L 412.624951 306.954074 
L 415.677726 306.703478 
L 418.730501 306.584603 
L 421.783276 306.604637 
L 424.836051 306.783414 
L 427.888826 307.119058 
L 430.941601 307.607267 
L 433.994375 308.244354 
L 437.04715 309.021836 
L 440.099925 309.915415 
L 443.1527 310.91296 
L 446.205475 311.98567 
L 449.25825 313.1122 
L 452.311024 314.274255 
L 455.363799 315.444701 
L 458.416574 316.603113 
L 461.469349 317.732918 
L 464.522124 318.816518 
L 467.574899 319.842269 
L 470.627674 320.797605 
L 473.680448 321.673267 
L 476.733223 322.457778 
L 479.785998 323.150924 
L 482.838773 323.742153 
L 485.891548 324.222073 
L 488.944323 324.587356 
L 491.997097 324.823333 
L 495.049872 324.923727 
L 498.102647 324.88426 
L 501.155422 324.673477 
L 504.208197 324.290989 
L 507.260972 323.702434 
L 510.313746 322.889856 
L 513.366521 321.828253 
L 516.419296 320.492182 
L 519.472071 318.861305 
L 522.524846 316.89427 
L 525.577621 314.605239 
L 528.630396 311.997538 
L 531.68317 309.076848 
L 534.735945 305.723811 
L 537.78872 301.722919 
L 540.841495 296.697919 
L 543.89427 290.188597 
L 546.947045 282.094943 
L 549.999819 272.993811 
L 551.049974 269.835626 
" clip-path="url(#p5b4631cef3)" style="fill: none; stroke-dasharray: 11.1,4.8; stroke-dashoffset: 0; stroke: #e69f00; stroke-width: 3"/>
   </g>
   <g id="line2d_58">
    <path d="M 351.569455 560.300837 
L 354.622229 582.59642 
L 357.675004 570.97774 
L 360.727779 557.778609 
L 363.780554 546.208988 
L 366.833329 536.687645 
L 369.886104 529.216735 
L 372.938878 523.621164 
L 375.991653 519.711246 
L 379.044428 517.232095 
L 382.097203 515.960052 
L 385.149978 515.636126 
L 388.202753 516.020318 
L 391.255528 516.880255 
L 394.308302 517.993346 
L 397.361077 519.16063 
L 400.413852 520.142327 
L 403.466627 520.781086 
L 406.519402 520.889748 
L 409.572177 520.315274 
L 412.624951 518.925291 
L 415.677726 516.62625 
L 418.730501 513.35887 
L 421.783276 509.088517 
L 424.836051 503.840678 
L 427.888826 497.674179 
L 430.941601 490.694806 
L 433.994375 483.025328 
L 437.04715 474.816119 
L 440.099925 466.250103 
L 443.1527 457.494232 
L 446.205475 448.725183 
L 449.25825 440.1167 
L 452.311024 431.780218 
L 455.363799 423.856355 
L 458.416574 416.461609 
L 461.469349 409.658436 
L 464.522124 403.486811 
L 467.574899 398.020098 
L 470.627674 393.262356 
L 473.680448 389.223716 
L 476.733223 385.904244 
L 479.785998 383.282203 
L 482.838773 381.378262 
L 485.891548 380.115545 
L 488.944323 379.52403 
L 491.997097 379.524364 
L 495.049872 380.148746 
L 498.102647 381.310348 
L 501.155422 383.013915 
L 504.208197 385.17456 
L 507.260972 387.782028 
L 510.313746 390.763797 
L 513.366521 394.034583 
L 516.419296 397.486395 
L 519.472071 401.022314 
L 522.524846 404.466661 
L 525.577621 407.858826 
L 528.630396 411.235695 
L 531.68317 414.744684 
L 534.735945 418.656759 
L 537.78872 423.385023 
L 540.841495 429.26619 
L 543.89427 436.856788 
L 546.947045 447.536096 
L 549.999819 463.074836 
L 551.049974 469.748212 
" clip-path="url(#p5b4631cef3)" style="fill: none; stroke-dasharray: 3,4.95; stroke-dashoffset: 0; stroke: #e69f00; stroke-width: 3"/>
   </g>
   <g id="line2d_59">
    <path d="M 351.569455 342.291466 
L 354.622229 333.772405 
L 357.675004 327.156035 
L 360.727779 321.598628 
L 363.780554 316.86399 
L 366.833329 312.850117 
L 369.886104 309.49586 
L 372.938878 306.78682 
L 375.991653 304.676347 
L 379.044428 303.152711 
L 382.097203 302.163507 
L 385.149978 301.673111 
L 388.202753 301.627034 
L 391.255528 301.969272 
L 394.308302 302.636069 
L 397.361077 303.561103 
L 400.413852 304.69359 
L 403.466627 305.971045 
L 406.519402 307.350231 
L 409.572177 308.791521 
L 412.624951 310.253974 
L 415.677726 311.715905 
L 418.730501 313.156031 
L 421.783276 314.555921 
L 424.836051 315.913526 
L 427.888826 317.216762 
L 430.941601 318.463291 
L 433.994375 319.658325 
L 437.04715 320.801566 
L 440.099925 321.899442 
L 443.1527 322.956289 
L 446.205475 323.985297 
L 449.25825 324.992788 
L 452.311024 325.989963 
L 455.363799 326.987983 
L 458.416574 328.003412 
L 461.469349 329.047989 
L 464.522124 330.136845 
L 467.574899 331.287961 
L 470.627674 332.52018 
L 473.680448 333.851321 
L 476.733223 335.30255 
L 479.785998 336.898016 
L 482.838773 338.665187 
L 485.891548 340.623747 
L 488.944323 342.81087 
L 491.997097 345.24945 
L 495.049872 347.970678 
L 498.102647 350.992961 
L 501.155422 354.317636 
L 504.208197 357.925025 
L 507.260972 361.765196 
L 510.313746 365.767176 
L 513.366521 369.847929 
L 516.419296 373.909445 
L 519.472071 377.86954 
L 522.524846 381.655002 
L 525.577621 385.215161 
L 528.630396 388.541861 
L 531.68317 391.653302 
L 534.735945 394.593884 
L 537.78872 397.463817 
L 540.841495 400.427151 
L 543.89427 403.509698 
L 546.947045 406.418023 
L 549.999819 408.592138 
L 551.049974 409.070219 
" clip-path="url(#p5b4631cef3)" style="fill: none; stroke-dasharray: 11.1,4.8; stroke-dashoffset: 0; stroke: #56b4e9; stroke-width: 3"/>
   </g>
   <g id="line2d_60">
    <path d="M 351.569455 559.074608 
L 354.622229 568.832574 
L 357.675004 569.708192 
L 360.727779 568.896638 
L 363.780554 566.828347 
L 366.833329 563.406373 
L 369.886104 558.559747 
L 372.938878 552.286413 
L 375.991653 544.699071 
L 379.044428 535.963783 
L 382.097203 526.332912 
L 385.149978 516.084467 
L 388.202753 505.518193 
L 391.255528 494.928256 
L 394.308302 484.591433 
L 397.361077 474.753554 
L 400.413852 465.589063 
L 403.466627 457.264423 
L 406.519402 449.873278 
L 409.572177 443.463765 
L 412.624951 438.090533 
L 415.677726 433.738281 
L 418.730501 430.392115 
L 421.783276 428.031706 
L 424.836051 426.577658 
L 427.888826 426.0016 
L 430.941601 426.262202 
L 433.994375 427.284914 
L 437.04715 429.008757 
L 440.099925 431.407056 
L 443.1527 434.41658 
L 446.205475 437.968455 
L 449.25825 442.042172 
L 452.311024 446.548511 
L 455.363799 451.445512 
L 458.416574 456.683469 
L 461.469349 462.185596 
L 464.522124 467.844104 
L 467.574899 473.605233 
L 470.627674 479.340387 
L 473.680448 484.913899 
L 476.733223 490.163559 
L 479.785998 494.894484 
L 482.838773 498.882952 
L 485.891548 501.832768 
L 488.944323 503.448787 
L 491.997097 503.367994 
L 495.049872 501.220583 
L 498.102647 496.647197 
L 501.155422 489.315916 
L 504.208197 478.970875 
L 507.260972 465.48362 
L 510.313746 448.844388 
L 513.366521 429.179282 
L 516.419296 406.74376 
L 519.472071 381.961359 
L 522.524846 355.321251 
L 525.577621 327.628078 
L 528.630396 299.596131 
L 531.68317 271.885762 
L 534.735945 244.931933 
L 537.78872 219.240598 
L 540.841495 195.255762 
L 543.89427 173.471057 
L 546.947045 154.891865 
L 549.999819 141.124706 
L 551.049974 137.772501 
" clip-path="url(#p5b4631cef3)" style="fill: none; stroke-dasharray: 3,4.95; stroke-dashoffset: 0; stroke: #56b4e9; stroke-width: 3"/>
   </g>
   <g id="line2d_61">
    <path d="M 351.569455 324.735639 
L 354.622229 321.923253 
L 357.675004 320.386505 
L 360.727779 319.558129 
L 363.780554 319.203618 
L 366.833329 319.181619 
L 369.886104 319.389796 
L 372.938878 319.77095 
L 375.991653 320.263309 
L 379.044428 320.84464 
L 382.097203 321.480226 
L 385.149978 322.15974 
L 388.202753 322.874981 
L 391.255528 323.621575 
L 394.308302 324.398731 
L 397.361077 325.205558 
L 400.413852 326.052838 
L 403.466627 326.938963 
L 406.519402 327.874009 
L 409.572177 328.864837 
L 412.624951 329.913414 
L 415.677726 331.026096 
L 418.730501 332.206634 
L 421.783276 333.455465 
L 424.836051 334.775149 
L 427.888826 336.160378 
L 430.941601 337.605178 
L 433.994375 339.102959 
L 437.04715 340.642519 
L 440.099925 342.209446 
L 443.1527 343.78955 
L 446.205475 345.365143 
L 449.25825 346.917452 
L 452.311024 348.429514 
L 455.363799 349.882991 
L 458.416574 351.258841 
L 461.469349 352.542234 
L 464.522124 353.718957 
L 467.574899 354.776964 
L 470.627674 355.708472 
L 473.680448 356.507823 
L 476.733223 357.171619 
L 479.785998 357.701884 
L 482.838773 358.098595 
L 485.891548 358.367639 
L 488.944323 358.515994 
L 491.997097 358.544718 
L 495.049872 358.46334 
L 498.102647 358.274758 
L 501.155422 357.981233 
L 504.208197 357.583057 
L 507.260972 357.074626 
L 510.313746 356.446459 
L 513.366521 355.693237 
L 516.419296 354.815732 
L 519.472071 353.826109 
L 522.524846 352.730166 
L 525.577621 351.537251 
L 528.630396 350.237509 
L 531.68317 348.806123 
L 534.735945 347.214495 
L 537.78872 345.513667 
L 540.841495 343.939062 
L 543.89427 342.990566 
L 546.947045 343.537721 
L 549.999819 346.836991 
L 551.049974 348.841776 
" clip-path="url(#p5b4631cef3)" style="fill: none; stroke-dasharray: 11.1,4.8; stroke-dashoffset: 0; stroke: #009e73; stroke-width: 3"/>
   </g>
   <g id="line2d_62">
    <path d="M 351.569455 528.680996 
L 354.622229 517.043525 
L 357.675004 505.408644 
L 360.727779 495.186635 
L 363.780554 486.598461 
L 366.833329 479.646182 
L 369.886104 474.262662 
L 372.938878 470.302366 
L 375.991653 467.645948 
L 379.044428 466.11338 
L 382.097203 465.581242 
L 385.149978 465.885104 
L 388.202753 466.880147 
L 391.255528 468.425784 
L 394.308302 470.388783 
L 397.361077 472.641 
L 400.413852 475.043738 
L 403.466627 477.486808 
L 406.519402 479.839526 
L 409.572177 481.98088 
L 412.624951 483.799498 
L 415.677726 485.189812 
L 418.730501 486.045863 
L 421.783276 486.282132 
L 424.836051 485.808229 
L 427.888826 484.566798 
L 430.941601 482.515095 
L 433.994375 479.624319 
L 437.04715 475.884645 
L 440.099925 471.324808 
L 443.1527 465.978639 
L 446.205475 459.907655 
L 449.25825 453.19473 
L 452.311024 445.916299 
L 455.363799 438.177513 
L 458.416574 430.101829 
L 461.469349 421.782278 
L 464.522124 413.314756 
L 467.574899 404.835008 
L 470.627674 396.426966 
L 473.680448 388.18435 
L 476.733223 380.19269 
L 479.785998 372.536583 
L 482.838773 365.312714 
L 485.891548 358.538585 
L 488.944323 352.32933 
L 491.997097 346.685452 
L 495.049872 341.698844 
L 498.102647 337.378941 
L 501.155422 333.75569 
L 504.208197 330.866621 
L 507.260972 328.758017 
L 510.313746 327.522494 
L 513.366521 327.276437 
L 516.419296 328.164627 
L 519.472071 330.368614 
L 522.524846 333.967674 
L 525.577621 339.124468 
L 528.630396 345.867082 
L 531.68317 354.228157 
L 534.735945 364.195872 
L 537.78872 375.837823 
L 540.841495 388.971101 
L 543.89427 402.866222 
L 546.947045 416.040085 
L 549.999819 425.570385 
L 551.049974 427.249276 
" clip-path="url(#p5b4631cef3)" style="fill: none; stroke-dasharray: 3,4.95; stroke-dashoffset: 0; stroke: #009e73; stroke-width: 3"/>
   </g>
   <g id="line2d_63">
    <path d="M 341.595429 358.395292 
L 561.024 358.395292 
" clip-path="url(#p5b4631cef3)" style="fill: none; stroke: #000000; stroke-opacity: 0.25; stroke-width: 1.5; stroke-linecap: square"/>
   </g>
   <g id="patch_12">
    <path d="M 341.595429 630 
L 341.595429 83.52 
" style="fill: none; stroke: #000000; stroke-width: 0.8; stroke-linejoin: miter; stroke-linecap: square"/>
   </g>
   <g id="patch_13">
    <path d="M 561.024 630 
L 561.024 83.52 
" style="fill: none; stroke: #000000; stroke-width: 0.8; stroke-linejoin: miter; stroke-linecap: square"/>
   </g>
   <g id="patch_14">
    <path d="M 341.595429 630 
L 561.024 630 
" style="fill: none; stroke: #000000; stroke-width: 0.8; stroke-linejoin: miter; stroke-linecap: square"/>
   </g>
   <g id="patch_15">
    <path d="M 341.595429 83.52 
L 561.024 83.52 
" style="fill: none; stroke: #000000; stroke-width: 0.8; stroke-linejoin: miter; stroke-linecap: square"/>
   </g>
   <g id="text_26">
    <!-- 40MeV -->
    <g transform="translate(362.105696 134.008625) scale(0.2 -0.2)">
     <defs>
      <path id="DejaVuSans-34" d="M 2419 4116 
L 825 1625 
L 2419 1625 
L 2419 4116 
z
M 2253 4666 
L 3047 4666 
L 3047 1625 
L 3713 1625 
L 3713 1100 
L 3047 1100 
L 3047 0 
L 2419 0 
L 2419 1100 
L 313 1100 
L 313 1709 
L 2253 4666 
z
" transform="scale(0.015625)"/>
     </defs>
     <use xlink:href="#DejaVuSans-34"/>
     <use xlink:href="#DejaVuSans-30" transform="translate(63.623047 0)"/>
     <use xlink:href="#DejaVuSans-4d" transform="translate(127.246094 0)"/>
     <use xlink:href="#DejaVuSans-65" transform="translate(213.525391 0)"/>
     <use xlink:href="#DejaVuSans-56" transform="translate(275.048828 0)"/>
    </g>
   </g>
   <g id="legend_2">
    <g id="line2d_64">
     <path d="M 462.887437 107.097187 
L 480.887437 107.097187 
L 498.887437 107.097187 
" style="fill: none; stroke: #000000; stroke-width: 2; stroke-linecap: square"/>
    </g>
    <g id="text_27">
     <!-- l=0 -->
     <g transform="translate(513.287438 113.397187) scale(0.18 -0.18)">
      <defs>
       <path id="DejaVuSans-6c" d="M 603 4863 
L 1178 4863 
L 1178 0 
L 603 0 
L 603 4863 
z
" transform="scale(0.015625)"/>
       <path id="DejaVuSans-3d" d="M 678 2906 
L 4684 2906 
L 4684 2381 
L 678 2381 
L 678 2906 
z
M 678 1631 
L 4684 1631 
L 4684 1100 
L 678 1100 
L 678 1631 
z
" transform="scale(0.015625)"/>
      </defs>
      <use xlink:href="#DejaVuSans-6c"/>
      <use xlink:href="#DejaVuSans-3d" transform="translate(27.783203 0)"/>
      <use xlink:href="#DejaVuSans-30" transform="translate(111.572266 0)"/>
     </g>
    </g>
    <g id="line2d_65">
     <path d="M 462.887437 133.517812 
L 480.887437 133.517812 
L 498.887437 133.517812 
" style="fill: none; stroke: #e69f00; stroke-width: 2; stroke-linecap: square"/>
    </g>
    <g id="text_28">
     <!-- l=1 -->
     <g transform="translate(513.287438 139.817812) scale(0.18 -0.18)">
      <use xlink:href="#DejaVuSans-6c"/>
      <use xlink:href="#DejaVuSans-3d" transform="translate(27.783203 0)"/>
      <use xlink:href="#DejaVuSans-31" transform="translate(111.572266 0)"/>
     </g>
    </g>
    <g id="line2d_66">
     <path d="M 462.887437 159.938437 
L 480.887437 159.938437 
L 498.887437 159.938437 
" style="fill: none; stroke: #56b4e9; stroke-width: 2; stroke-linecap: square"/>
    </g>
    <g id="text_29">
     <!-- l=2 -->
     <g transform="translate(513.287438 166.238437) scale(0.18 -0.18)">
      <use xlink:href="#DejaVuSans-6c"/>
      <use xlink:href="#DejaVuSans-3d" transform="translate(27.783203 0)"/>
      <use xlink:href="#DejaVuSans-32" transform="translate(111.572266 0)"/>
     </g>
    </g>
    <g id="line2d_67">
     <path d="M 462.887437 186.359062 
L 480.887437 186.359062 
L 498.887437 186.359062 
" style="fill: none; stroke: #009e73; stroke-width: 2; stroke-linecap: square"/>
    </g>
    <g id="text_30">
     <!-- l=3 -->
     <g transform="translate(513.287438 192.659063) scale(0.18 -0.18)">
      <use xlink:href="#DejaVuSans-6c"/>
      <use xlink:href="#DejaVuSans-3d" transform="translate(27.783203 0)"/>
      <use xlink:href="#DejaVuSans-33" transform="translate(111.572266 0)"/>
     </g>
    </g>
   </g>
  </g>
 </g>
 <defs>
  <clipPath id="p4dc73b450f">
   <rect x="114.048" y="83.52" width="219.428571" height="546.48"/>
  </clipPath>
  <clipPath id="p5b4631cef3">
   <rect x="341.595429" y="83.52" width="219.428571" height="546.48"/>
  </clipPath>
 </defs>
</svg>
