<?xml version="1.0" encoding="utf-8" standalone="no"?>
<!DOCTYPE svg PUBLIC "-//W3C//DTD SVG 1.1//EN"
  "http://www.w3.org/Graphics/SVG/1.1/DTD/svg11.dtd">
<svg xmlns:xlink="http://www.w3.org/1999/xlink" width="648pt" height="720pt" viewBox="0 0 648 720" xmlns="http://www.w3.org/2000/svg" version="1.1">
 <metadata>
  <rdf:RDF xmlns:dc="http://purl.org/dc/elements/1.1/" xmlns:cc="http://creativecommons.org/ns#" xmlns:rdf="http://www.w3.org/1999/02/22-rdf-syntax-ns#">
   <cc:Work>
    <dc:type rdf:resource="http://purl.org/dc/dcmitype/StillImage"/>
    <dc:date>2026-03-23T16:53:58.673714</dc:date>
    <dc:format>image/svg+xml</dc:format>
    <dc:creator>
     <cc:Agent>
      <dc:title>Matplotlib v3.10.8, https://matplotlib.org/</dc:title>
     </cc:Agent>
    </dc:creator>
   </cc:Work>
  </rdf:RDF>
 </metadata>
 <defs>
  <style type="text/css">*{stroke-linejoin: round; stroke-linecap: butt}</style>
 </defs>
 <g id="figure_1">
  <g id="patch_1">
   <path d="M 0 720 
L 648 720 
L 648 0 
L 0 0 
L 0 720 
z
" style="fill: none"/>
  </g>
  <g id="axes_1">
   <g id="patch_2">
    <path d="M 134.136 630 
L 378.130109 630 
L 378.130109 83.52 
L 134.136 83.52 
L 134.136 630 
z
" style="fill: none"/>
   </g>
   <g id="axes_2">
    <g id="patch_3">
     <path d="M 134.136 83.52 
L 378.130109 83.52 
L 378.130109 83.52 
L 134.136 83.52 
L 134.136 83.52 
z
" style="fill: none"/>
    </g>
    <g id="matplotlib.axis_1">
     <g id="xtick_1">
      <g id="line2d_1">
       <defs>
        <path id="meff2dfc203" d="M 0 0 
L 0 -3.5 
" style="stroke: #000000; stroke-width: 0.8"/>
       </defs>
       <g>
        <use xlink:href="#meff2dfc203" x="377.951341" y="83.52" style="stroke: #000000; stroke-width: 0.8"/>
       </g>
      </g>
      <g id="text_1">
       <!-- 5 -->
       <g transform="translate(369.043841 70.696875) scale(0.28 -0.28)">
        <defs>
         <path id="DejaVuSans-35" d="M 691 4666 
L 3169 4666 
L 3169 4134 
L 1269 4134 
L 1269 2991 
Q 1406 3038 1543 3061 
Q 1681 3084 1819 3084 
Q 2600 3084 3056 2656 
Q 3513 2228 3513 1497 
Q 3513 744 3044 326 
Q 2575 -91 1722 -91 
Q 1428 -91 1123 -41 
Q 819 9 494 109 
L 494 744 
Q 775 591 1075 516 
Q 1375 441 1709 441 
Q 2250 441 2565 725 
Q 2881 1009 2881 1497 
Q 2881 1984 2565 2268 
Q 2250 2553 1709 2553 
Q 1456 2553 1204 2497 
Q 953 2441 691 2322 
L 691 4666 
z
" transform="scale(0.015625)"/>
        </defs>
        <use xlink:href="#DejaVuSans-35"/>
       </g>
      </g>
     </g>
     <g id="xtick_2">
      <g id="line2d_2">
       <g>
        <use xlink:href="#meff2dfc203" x="308.010933" y="83.52" style="stroke: #000000; stroke-width: 0.8"/>
       </g>
      </g>
      <g id="text_2">
       <!-- 10 -->
       <g transform="translate(290.195933 70.696875) scale(0.28 -0.28)">
        <defs>
         <path id="DejaVuSans-31" d="M 794 531 
L 1825 531 
L 1825 4091 
L 703 3866 
L 703 4441 
L 1819 4666 
L 2450 4666 
L 2450 531 
L 3481 531 
L 3481 0 
L 794 0 
L 794 531 
z
" transform="scale(0.015625)"/>
         <path id="DejaVuSans-30" d="M 2034 4250 
Q 1547 4250 1301 3770 
Q 1056 3291 1056 2328 
Q 1056 1369 1301 889 
Q 1547 409 2034 409 
Q 2525 409 2770 889 
Q 3016 1369 3016 2328 
Q 3016 3291 2770 3770 
Q 2525 4250 2034 4250 
z
M 2034 4750 
Q 2819 4750 3233 4129 
Q 3647 3509 3647 2328 
Q 3647 1150 3233 529 
Q 2819 -91 2034 -91 
Q 1250 -91 836 529 
Q 422 1150 422 2328 
Q 422 3509 836 4129 
Q 1250 4750 2034 4750 
z
" transform="scale(0.015625)"/>
        </defs>
        <use xlink:href="#DejaVuSans-31"/>
        <use xlink:href="#DejaVuSans-30" transform="translate(63.623047 0)"/>
       </g>
      </g>
     </g>
     <g id="xtick_3">
      <g id="line2d_3">
       <g>
        <use xlink:href="#meff2dfc203" x="238.070524" y="83.52" style="stroke: #000000; stroke-width: 0.8"/>
       </g>
      </g>
      <g id="text_3">
       <!-- 15 -->
       <g transform="translate(220.255524 70.696875) scale(0.28 -0.28)">
        <use xlink:href="#DejaVuSans-31"/>
        <use xlink:href="#DejaVuSans-35" transform="translate(63.623047 0)"/>
       </g>
      </g>
     </g>
     <g id="xtick_4">
      <g id="line2d_4">
       <g>
        <use xlink:href="#meff2dfc203" x="168.130116" y="83.52" style="stroke: #000000; stroke-width: 0.8"/>
       </g>
      </g>
      <g id="text_4">
       <!-- 20 -->
       <g transform="translate(150.315116 70.696875) scale(0.28 -0.28)">
        <defs>
         <path id="DejaVuSans-32" d="M 1228 531 
L 3431 531 
L 3431 0 
L 469 0 
L 469 531 
Q 828 903 1448 1529 
Q 2069 2156 2228 2338 
Q 2531 2678 2651 2914 
Q 2772 3150 2772 3378 
Q 2772 3750 2511 3984 
Q 2250 4219 1831 4219 
Q 1534 4219 1204 4116 
Q 875 4013 500 3803 
L 500 4441 
Q 881 4594 1212 4672 
Q 1544 4750 1819 4750 
Q 2544 4750 2975 4387 
Q 3406 4025 3406 3419 
Q 3406 3131 3298 2873 
Q 3191 2616 2906 2266 
Q 2828 2175 2409 1742 
Q 1991 1309 1228 531 
z
" transform="scale(0.015625)"/>
        </defs>
        <use xlink:href="#DejaVuSans-32"/>
        <use xlink:href="#DejaVuSans-30" transform="translate(63.623047 0)"/>
       </g>
      </g>
     </g>
     <g id="text_5">
      <!-- $E_t$ (MeV) -->
      <g transform="translate(176.333054 34.42125) scale(0.38 -0.38)">
       <defs>
        <path id="DejaVuSans-Oblique-45" d="M 1081 4666 
L 4031 4666 
L 3928 4134 
L 1606 4134 
L 1338 2753 
L 3566 2753 
L 3463 2222 
L 1234 2222 
L 909 531 
L 3284 531 
L 3181 0 
L 172 0 
L 1081 4666 
z
" transform="scale(0.015625)"/>
        <path id="DejaVuSans-Oblique-74" d="M 2706 3500 
L 2619 3053 
L 1472 3053 
L 1100 1153 
Q 1081 1047 1072 975 
Q 1063 903 1063 863 
Q 1063 663 1183 572 
Q 1303 481 1569 481 
L 2150 481 
L 2053 0 
L 1503 0 
Q 991 0 739 200 
Q 488 400 488 806 
Q 488 878 497 964 
Q 506 1050 525 1153 
L 897 3053 
L 409 3053 
L 500 3500 
L 978 3500 
L 1172 4494 
L 1747 4494 
L 1556 3500 
L 2706 3500 
z
" transform="scale(0.015625)"/>
        <path id="DejaVuSans-20" transform="scale(0.015625)"/>
        <path id="DejaVuSans-28" d="M 1984 4856 
Q 1566 4138 1362 3434 
Q 1159 2731 1159 2009 
Q 1159 1288 1364 580 
Q 1569 -128 1984 -844 
L 1484 -844 
Q 1016 -109 783 600 
Q 550 1309 550 2009 
Q 550 2706 781 3412 
Q 1013 4119 1484 4856 
L 1984 4856 
z
" transform="scale(0.015625)"/>
        <path id="DejaVuSans-4d" d="M 628 4666 
L 1569 4666 
L 2759 1491 
L 3956 4666 
L 4897 4666 
L 4897 0 
L 4281 0 
L 4281 4097 
L 3078 897 
L 2444 897 
L 1241 4097 
L 1241 0 
L 628 0 
L 628 4666 
z
" transform="scale(0.015625)"/>
        <path id="DejaVuSans-65" d="M 3597 1894 
L 3597 1613 
L 953 1613 
Q 991 1019 1311 708 
Q 1631 397 2203 397 
Q 2534 397 2845 478 
Q 3156 559 3463 722 
L 3463 178 
Q 3153 47 2828 -22 
Q 2503 -91 2169 -91 
Q 1331 -91 842 396 
Q 353 884 353 1716 
Q 353 2575 817 3079 
Q 1281 3584 2069 3584 
Q 2775 3584 3186 3129 
Q 3597 2675 3597 1894 
z
M 3022 2063 
Q 3016 2534 2758 2815 
Q 2500 3097 2075 3097 
Q 1594 3097 1305 2825 
Q 1016 2553 972 2059 
L 3022 2063 
z
" transform="scale(0.015625)"/>
        <path id="DejaVuSans-56" d="M 1831 0 
L 50 4666 
L 709 4666 
L 2188 738 
L 3669 4666 
L 4325 4666 
L 2547 0 
L 1831 0 
z
" transform="scale(0.015625)"/>
        <path id="DejaVuSans-29" d="M 513 4856 
L 1013 4856 
Q 1481 4119 1714 3412 
Q 1947 2706 1947 2009 
Q 1947 1309 1714 600 
Q 1481 -109 1013 -844 
L 513 -844 
Q 928 -128 1133 580 
Q 1338 1288 1338 2009 
Q 1338 2731 1133 3434 
Q 928 4138 513 4856 
z
" transform="scale(0.015625)"/>
       </defs>
       <use xlink:href="#DejaVuSans-Oblique-45" transform="translate(0 0.125)"/>
       <use xlink:href="#DejaVuSans-Oblique-74" transform="translate(63.183594 -16.28125) scale(0.7)"/>
       <use xlink:href="#DejaVuSans-20" transform="translate(93.364258 0.125)"/>
       <use xlink:href="#DejaVuSans-28" transform="translate(125.151367 0.125)"/>
       <use xlink:href="#DejaVuSans-4d" transform="translate(164.165039 0.125)"/>
       <use xlink:href="#DejaVuSans-65" transform="translate(250.444336 0.125)"/>
       <use xlink:href="#DejaVuSans-56" transform="translate(311.967773 0.125)"/>
       <use xlink:href="#DejaVuSans-29" transform="translate(380.375977 0.125)"/>
      </g>
     </g>
    </g>
    <g id="matplotlib.axis_2"/>
    <g id="patch_4">
     <path d="M 378.130109 83.52 
L 134.136 83.52 
" style="fill: none; stroke: #000000; stroke-width: 0.8; stroke-linejoin: miter; stroke-linecap: square"/>
    </g>
   </g>
   <g id="matplotlib.axis_3">
    <g id="xtick_5">
     <g id="line2d_5">
      <path d="M 135.534808 630 
L 135.534808 83.52 
" clip-path="url(#pbb2a6fdb4a)" style="fill: none; stroke: #b0b0b0; stroke-opacity: 0.2; stroke-width: 0.8; stroke-linecap: square"/>
     </g>
     <g id="line2d_6">
      <defs>
       <path id="m89c8430bc9" d="M 0 0 
L 0 3.5 
" style="stroke: #000000; stroke-width: 0.8"/>
      </defs>
      <g>
       <use xlink:href="#m89c8430bc9" x="135.534808" y="630" style="stroke: #000000; stroke-width: 0.8"/>
      </g>
     </g>
     <g id="text_6">
      <!-- 0 -->
      <g transform="translate(126.627308 658.275625) scale(0.28 -0.28)">
       <use xlink:href="#DejaVuSans-30"/>
      </g>
     </g>
    </g>
    <g id="xtick_6">
     <g id="line2d_7">
      <path d="M 205.475217 630 
L 205.475217 83.52 
" clip-path="url(#pbb2a6fdb4a)" style="fill: none; stroke: #b0b0b0; stroke-opacity: 0.2; stroke-width: 0.8; stroke-linecap: square"/>
     </g>
     <g id="line2d_8">
      <g>
       <use xlink:href="#m89c8430bc9" x="205.475217" y="630" style="stroke: #000000; stroke-width: 0.8"/>
      </g>
     </g>
     <g id="text_7">
      <!-- 5 -->
      <g transform="translate(196.567717 658.275625) scale(0.28 -0.28)">
       <use xlink:href="#DejaVuSans-35"/>
      </g>
     </g>
    </g>
    <g id="xtick_7">
     <g id="line2d_9">
      <path d="M 275.415625 630 
L 275.415625 83.52 
" clip-path="url(#pbb2a6fdb4a)" style="fill: none; stroke: #b0b0b0; stroke-opacity: 0.2; stroke-width: 0.8; stroke-linecap: square"/>
     </g>
     <g id="line2d_10">
      <g>
       <use xlink:href="#m89c8430bc9" x="275.415625" y="630" style="stroke: #000000; stroke-width: 0.8"/>
      </g>
     </g>
     <g id="text_8">
      <!-- 10 -->
      <g transform="translate(257.600625 658.275625) scale(0.28 -0.28)">
       <use xlink:href="#DejaVuSans-31"/>
       <use xlink:href="#DejaVuSans-30" transform="translate(63.623047 0)"/>
      </g>
     </g>
    </g>
    <g id="xtick_8">
     <g id="line2d_11">
      <path d="M 345.356034 630 
L 345.356034 83.52 
" clip-path="url(#pbb2a6fdb4a)" style="fill: none; stroke: #b0b0b0; stroke-opacity: 0.2; stroke-width: 0.8; stroke-linecap: square"/>
     </g>
     <g id="line2d_12">
      <g>
       <use xlink:href="#m89c8430bc9" x="345.356034" y="630" style="stroke: #000000; stroke-width: 0.8"/>
      </g>
     </g>
     <g id="text_9">
      <!-- 15 -->
      <g transform="translate(327.541034 658.275625) scale(0.28 -0.28)">
       <use xlink:href="#DejaVuSans-31"/>
       <use xlink:href="#DejaVuSans-35" transform="translate(63.623047 0)"/>
      </g>
     </g>
    </g>
    <g id="text_10">
     <!-- $E_{ex}$ (MeV) -->
     <g transform="translate(165.503054 696.972813) scale(0.38 -0.38)">
      <defs>
       <path id="DejaVuSans-Oblique-65" d="M 3078 2063 
Q 3088 2113 3092 2166 
Q 3097 2219 3097 2272 
Q 3097 2653 2873 2875 
Q 2650 3097 2266 3097 
Q 1838 3097 1509 2826 
Q 1181 2556 1013 2059 
L 3078 2063 
z
M 3578 1613 
L 903 1613 
Q 884 1494 878 1425 
Q 872 1356 872 1306 
Q 872 872 1139 634 
Q 1406 397 1894 397 
Q 2269 397 2603 481 
Q 2938 566 3225 728 
L 3116 159 
Q 2806 34 2476 -28 
Q 2147 -91 1806 -91 
Q 1078 -91 686 257 
Q 294 606 294 1247 
Q 294 1794 489 2264 
Q 684 2734 1063 3103 
Q 1306 3334 1642 3459 
Q 1978 3584 2356 3584 
Q 2950 3584 3301 3228 
Q 3653 2872 3653 2272 
Q 3653 2128 3634 1964 
Q 3616 1800 3578 1613 
z
" transform="scale(0.015625)"/>
       <path id="DejaVuSans-Oblique-78" d="M 3841 3500 
L 2234 1784 
L 3219 0 
L 2559 0 
L 1819 1388 
L 531 0 
L -166 0 
L 1556 1844 
L 641 3500 
L 1300 3500 
L 1972 2234 
L 3144 3500 
L 3841 3500 
z
" transform="scale(0.015625)"/>
      </defs>
      <use xlink:href="#DejaVuSans-Oblique-45" transform="translate(0 0.125)"/>
      <use xlink:href="#DejaVuSans-Oblique-65" transform="translate(63.183594 -16.28125) scale(0.7)"/>
      <use xlink:href="#DejaVuSans-Oblique-78" transform="translate(106.25 -16.28125) scale(0.7)"/>
      <use xlink:href="#DejaVuSans-20" transform="translate(150.410156 0.125)"/>
      <use xlink:href="#DejaVuSans-28" transform="translate(182.197266 0.125)"/>
      <use xlink:href="#DejaVuSans-4d" transform="translate(221.210938 0.125)"/>
      <use xlink:href="#DejaVuSans-65" transform="translate(307.490234 0.125)"/>
      <use xlink:href="#DejaVuSans-56" transform="translate(369.013672 0.125)"/>
      <use xlink:href="#DejaVuSans-29" transform="translate(437.421875 0.125)"/>
     </g>
    </g>
   </g>
   <g id="matplotlib.axis_4">
    <g id="ytick_1">
     <g id="line2d_13">
      <path d="M 134.136 630 
L 378.130109 630 
" clip-path="url(#pbb2a6fdb4a)" style="fill: none; stroke: #b0b0b0; stroke-opacity: 0.2; stroke-width: 0.8; stroke-linecap: square"/>
     </g>
     <g id="line2d_14">
      <defs>
       <path id="m8eb07edd8a" d="M 0 0 
L -3.5 0 
" style="stroke: #000000; stroke-width: 0.8"/>
      </defs>
      <g>
       <use xlink:href="#m8eb07edd8a" x="134.136" y="630" style="stroke: #000000; stroke-width: 0.8"/>
      </g>
     </g>
     <g id="text_11">
      <!-- 0.950 -->
      <g transform="translate(46.97725 640.637812) scale(0.28 -0.28)">
       <defs>
        <path id="DejaVuSans-2e" d="M 684 794 
L 1344 794 
L 1344 0 
L 684 0 
L 684 794 
z
" transform="scale(0.015625)"/>
        <path id="DejaVuSans-39" d="M 703 97 
L 703 672 
Q 941 559 1184 500 
Q 1428 441 1663 441 
Q 2288 441 2617 861 
Q 2947 1281 2994 2138 
Q 2813 1869 2534 1725 
Q 2256 1581 1919 1581 
Q 1219 1581 811 2004 
Q 403 2428 403 3163 
Q 403 3881 828 4315 
Q 1253 4750 1959 4750 
Q 2769 4750 3195 4129 
Q 3622 3509 3622 2328 
Q 3622 1225 3098 567 
Q 2575 -91 1691 -91 
Q 1453 -91 1209 -44 
Q 966 3 703 97 
z
M 1959 2075 
Q 2384 2075 2632 2365 
Q 2881 2656 2881 3163 
Q 2881 3666 2632 3958 
Q 2384 4250 1959 4250 
Q 1534 4250 1286 3958 
Q 1038 3666 1038 3163 
Q 1038 2656 1286 2365 
Q 1534 2075 1959 2075 
z
" transform="scale(0.015625)"/>
       </defs>
       <use xlink:href="#DejaVuSans-30"/>
       <use xlink:href="#DejaVuSans-2e" transform="translate(63.623047 0)"/>
       <use xlink:href="#DejaVuSans-39" transform="translate(95.410156 0)"/>
       <use xlink:href="#DejaVuSans-35" transform="translate(159.033203 0)"/>
       <use xlink:href="#DejaVuSans-30" transform="translate(222.65625 0)"/>
      </g>
     </g>
    </g>
    <g id="ytick_2">
     <g id="line2d_15">
      <path d="M 134.136 561.69 
L 378.130109 561.69 
" clip-path="url(#pbb2a6fdb4a)" style="fill: none; stroke: #b0b0b0; stroke-opacity: 0.2; stroke-width: 0.8; stroke-linecap: square"/>
     </g>
     <g id="line2d_16">
      <g>
       <use xlink:href="#m8eb07edd8a" x="134.136" y="561.69" style="stroke: #000000; stroke-width: 0.8"/>
      </g>
     </g>
     <g id="text_12">
      <!-- 0.975 -->
      <g transform="translate(46.97725 572.327813) scale(0.28 -0.28)">
       <defs>
        <path id="DejaVuSans-37" d="M 525 4666 
L 3525 4666 
L 3525 4397 
L 1831 0 
L 1172 0 
L 2766 4134 
L 525 4134 
L 525 4666 
z
" transform="scale(0.015625)"/>
       </defs>
       <use xlink:href="#DejaVuSans-30"/>
       <use xlink:href="#DejaVuSans-2e" transform="translate(63.623047 0)"/>
       <use xlink:href="#DejaVuSans-39" transform="translate(95.410156 0)"/>
       <use xlink:href="#DejaVuSans-37" transform="translate(159.033203 0)"/>
       <use xlink:href="#DejaVuSans-35" transform="translate(222.65625 0)"/>
      </g>
     </g>
    </g>
    <g id="ytick_3">
     <g id="line2d_17">
      <path d="M 134.136 493.38 
L 378.130109 493.38 
" clip-path="url(#pbb2a6fdb4a)" style="fill: none; stroke: #b0b0b0; stroke-opacity: 0.2; stroke-width: 0.8; stroke-linecap: square"/>
     </g>
     <g id="line2d_18">
      <g>
       <use xlink:href="#m8eb07edd8a" x="134.136" y="493.38" style="stroke: #000000; stroke-width: 0.8"/>
      </g>
     </g>
     <g id="text_13">
      <!-- 1.000 -->
      <g transform="translate(46.97725 504.017813) scale(0.28 -0.28)">
       <use xlink:href="#DejaVuSans-31"/>
       <use xlink:href="#DejaVuSans-2e" transform="translate(63.623047 0)"/>
       <use xlink:href="#DejaVuSans-30" transform="translate(95.410156 0)"/>
       <use xlink:href="#DejaVuSans-30" transform="translate(159.033203 0)"/>
       <use xlink:href="#DejaVuSans-30" transform="translate(222.65625 0)"/>
      </g>
     </g>
    </g>
    <g id="ytick_4">
     <g id="line2d_19">
      <path d="M 134.136 425.07 
L 378.130109 425.07 
" clip-path="url(#pbb2a6fdb4a)" style="fill: none; stroke: #b0b0b0; stroke-opacity: 0.2; stroke-width: 0.8; stroke-linecap: square"/>
     </g>
     <g id="line2d_20">
      <g>
       <use xlink:href="#m8eb07edd8a" x="134.136" y="425.07" style="stroke: #000000; stroke-width: 0.8"/>
      </g>
     </g>
     <g id="text_14">
      <!-- 1.025 -->
      <g transform="translate(46.97725 435.707812) scale(0.28 -0.28)">
       <use xlink:href="#DejaVuSans-31"/>
       <use xlink:href="#DejaVuSans-2e" transform="translate(63.623047 0)"/>
       <use xlink:href="#DejaVuSans-30" transform="translate(95.410156 0)"/>
       <use xlink:href="#DejaVuSans-32" transform="translate(159.033203 0)"/>
       <use xlink:href="#DejaVuSans-35" transform="translate(222.65625 0)"/>
      </g>
     </g>
    </g>
    <g id="ytick_5">
     <g id="line2d_21">
      <path d="M 134.136 356.76 
L 378.130109 356.76 
" clip-path="url(#pbb2a6fdb4a)" style="fill: none; stroke: #b0b0b0; stroke-opacity: 0.2; stroke-width: 0.8; stroke-linecap: square"/>
     </g>
     <g id="line2d_22">
      <g>
       <use xlink:href="#m8eb07edd8a" x="134.136" y="356.76" style="stroke: #000000; stroke-width: 0.8"/>
      </g>
     </g>
     <g id="text_15">
      <!-- 1.050 -->
      <g transform="translate(46.97725 367.397812) scale(0.28 -0.28)">
       <use xlink:href="#DejaVuSans-31"/>
       <use xlink:href="#DejaVuSans-2e" transform="translate(63.623047 0)"/>
       <use xlink:href="#DejaVuSans-30" transform="translate(95.410156 0)"/>
       <use xlink:href="#DejaVuSans-35" transform="translate(159.033203 0)"/>
       <use xlink:href="#DejaVuSans-30" transform="translate(222.65625 0)"/>
      </g>
     </g>
    </g>
    <g id="ytick_6">
     <g id="line2d_23">
      <path d="M 134.136 288.45 
L 378.130109 288.45 
" clip-path="url(#pbb2a6fdb4a)" style="fill: none; stroke: #b0b0b0; stroke-opacity: 0.2; stroke-width: 0.8; stroke-linecap: square"/>
     </g>
     <g id="line2d_24">
      <g>
       <use xlink:href="#m8eb07edd8a" x="134.136" y="288.45" style="stroke: #000000; stroke-width: 0.8"/>
      </g>
     </g>
     <g id="text_16">
      <!-- 1.075 -->
      <g transform="translate(46.97725 299.087812) scale(0.28 -0.28)">
       <use xlink:href="#DejaVuSans-31"/>
       <use xlink:href="#DejaVuSans-2e" transform="translate(63.623047 0)"/>
       <use xlink:href="#DejaVuSans-30" transform="translate(95.410156 0)"/>
       <use xlink:href="#DejaVuSans-37" transform="translate(159.033203 0)"/>
       <use xlink:href="#DejaVuSans-35" transform="translate(222.65625 0)"/>
      </g>
     </g>
    </g>
    <g id="ytick_7">
     <g id="line2d_25">
      <path d="M 134.136 220.14 
L 378.130109 220.14 
" clip-path="url(#pbb2a6fdb4a)" style="fill: none; stroke: #b0b0b0; stroke-opacity: 0.2; stroke-width: 0.8; stroke-linecap: square"/>
     </g>
     <g id="line2d_26">
      <g>
       <use xlink:href="#m8eb07edd8a" x="134.136" y="220.14" style="stroke: #000000; stroke-width: 0.8"/>
      </g>
     </g>
     <g id="text_17">
      <!-- 1.100 -->
      <g transform="translate(46.97725 230.777812) scale(0.28 -0.28)">
       <use xlink:href="#DejaVuSans-31"/>
       <use xlink:href="#DejaVuSans-2e" transform="translate(63.623047 0)"/>
       <use xlink:href="#DejaVuSans-31" transform="translate(95.410156 0)"/>
       <use xlink:href="#DejaVuSans-30" transform="translate(159.033203 0)"/>
       <use xlink:href="#DejaVuSans-30" transform="translate(222.65625 0)"/>
      </g>
     </g>
    </g>
    <g id="ytick_8">
     <g id="line2d_27">
      <path d="M 134.136 151.83 
L 378.130109 151.83 
" clip-path="url(#pbb2a6fdb4a)" style="fill: none; stroke: #b0b0b0; stroke-opacity: 0.2; stroke-width: 0.8; stroke-linecap: square"/>
     </g>
     <g id="line2d_28">
      <g>
       <use xlink:href="#m8eb07edd8a" x="134.136" y="151.83" style="stroke: #000000; stroke-width: 0.8"/>
      </g>
     </g>
     <g id="text_18">
      <!-- 1.125 -->
      <g transform="translate(46.97725 162.467812) scale(0.28 -0.28)">
       <use xlink:href="#DejaVuSans-31"/>
       <use xlink:href="#DejaVuSans-2e" transform="translate(63.623047 0)"/>
       <use xlink:href="#DejaVuSans-31" transform="translate(95.410156 0)"/>
       <use xlink:href="#DejaVuSans-32" transform="translate(159.033203 0)"/>
       <use xlink:href="#DejaVuSans-35" transform="translate(222.65625 0)"/>
      </g>
     </g>
    </g>
    <g id="ytick_9">
     <g id="line2d_29">
      <path d="M 134.136 83.52 
L 378.130109 83.52 
" clip-path="url(#pbb2a6fdb4a)" style="fill: none; stroke: #b0b0b0; stroke-opacity: 0.2; stroke-width: 0.8; stroke-linecap: square"/>
     </g>
     <g id="line2d_30">
      <g>
       <use xlink:href="#m8eb07edd8a" x="134.136" y="83.52" style="stroke: #000000; stroke-width: 0.8"/>
      </g>
     </g>
     <g id="text_19">
      <!-- 1.150 -->
      <g transform="translate(46.97725 94.157812) scale(0.28 -0.28)">
       <use xlink:href="#DejaVuSans-31"/>
       <use xlink:href="#DejaVuSans-2e" transform="translate(63.623047 0)"/>
       <use xlink:href="#DejaVuSans-31" transform="translate(95.410156 0)"/>
       <use xlink:href="#DejaVuSans-35" transform="translate(159.033203 0)"/>
       <use xlink:href="#DejaVuSans-30" transform="translate(222.65625 0)"/>
      </g>
     </g>
    </g>
    <g id="text_20">
     <!-- $\sigma_{LE}/\sigma_{NL}$ -->
     <g transform="translate(35.074437 421.55) rotate(-90) scale(0.38 -0.38)">
      <defs>
       <path id="DejaVuSans-Oblique-3c3" d="M 2219 3044 
Q 1744 3044 1422 2700 
Q 1081 2341 969 1747 
Q 844 1119 1044 756 
Q 1241 397 1706 397 
Q 2166 397 2503 759 
Q 2844 1122 2966 1747 
Q 3075 2319 2881 2700 
Q 2700 3044 2219 3044 
z
M 2309 3503 
L 4219 3500 
L 4106 2925 
L 3463 2925 
Q 3706 2438 3575 1747 
Q 3406 888 2884 400 
Q 2359 -91 1609 -91 
Q 856 -91 525 400 
Q 194 888 363 1747 
Q 528 2609 1050 3097 
Q 1484 3503 2309 3503 
z
" transform="scale(0.015625)"/>
       <path id="DejaVuSans-Oblique-4c" d="M 1075 4666 
L 1709 4666 
L 909 525 
L 3181 525 
L 3078 0 
L 172 0 
L 1075 4666 
z
" transform="scale(0.015625)"/>
       <path id="DejaVuSans-2f" d="M 1625 4666 
L 2156 4666 
L 531 -594 
L 0 -594 
L 1625 4666 
z
" transform="scale(0.015625)"/>
       <path id="DejaVuSans-Oblique-4e" d="M 1081 4666 
L 1931 4666 
L 3219 666 
L 4000 4666 
L 4616 4666 
L 3706 0 
L 2853 0 
L 1569 4025 
L 788 0 
L 172 0 
L 1081 4666 
z
" transform="scale(0.015625)"/>
      </defs>
      <use xlink:href="#DejaVuSans-Oblique-3c3" transform="translate(0 0.09375)"/>
      <use xlink:href="#DejaVuSans-Oblique-4c" transform="translate(63.378906 -16.3125) scale(0.7)"/>
      <use xlink:href="#DejaVuSans-Oblique-45" transform="translate(102.37793 -16.3125) scale(0.7)"/>
      <use xlink:href="#DejaVuSans-2f" transform="translate(149.34082 0.09375)"/>
      <use xlink:href="#DejaVuSans-Oblique-3c3" transform="translate(183.032227 0.09375)"/>
      <use xlink:href="#DejaVuSans-Oblique-4e" transform="translate(246.411133 -16.3125) scale(0.7)"/>
      <use xlink:href="#DejaVuSans-Oblique-4c" transform="translate(298.774414 -16.3125) scale(0.7)"/>
     </g>
    </g>
   </g>
   <g id="line2d_31">
    <path d="M -1 375.876332 
L 5.039994 374.720212 
L 12.034035 374.478979 
L 19.028076 375.168259 
L 26.022117 376.601579 
L 33.016157 378.640472 
L 40.010198 381.101028 
L 47.004239 383.858807 
L 53.99828 386.806024 
L 60.992321 389.818671 
L 67.986362 392.836323 
L 74.980403 395.793619 
L 81.974443 398.637563 
L 88.968484 401.358085 
L 95.962525 403.922871 
L 102.956566 406.312571 
L 109.950607 408.53104 
L 116.944648 410.588785 
L 123.938688 412.474302 
L 130.932729 414.205504 
L 137.92677 415.791869 
L 144.920811 417.24159 
L 151.914852 418.582316 
L 158.908893 419.820502 
L 165.902934 420.969239 
L 172.896974 422.047078 
L 179.891015 423.072308 
L 186.885056 424.050541 
L 193.879097 424.998856 
L 200.873138 425.924644 
L 207.867179 426.836765 
L 214.861219 427.742857 
L 221.85526 428.649181 
L 228.849301 429.560543 
L 235.843342 430.486964 
L 242.837383 431.436976 
L 249.831424 432.432533 
L 256.825465 433.498709 
L 263.819505 434.683528 
L 270.813546 436.066919 
L 277.807587 437.734178 
L 284.801628 439.862625 
L 291.795669 442.649569 
L 298.78971 446.348315 
L 305.78375 451.284588 
L 312.777791 457.802659 
L 319.771832 466.425295 
L 326.765873 477.684923 
L 333.759914 492.158053 
L 340.753955 510.200405 
L 347.747996 531.737483 
L 354.742036 555.743576 
L 361.736077 579.957389 
L 368.730118 601.009018 
L 375.724159 615.222747 
L 378.130109 618.127143 
" clip-path="url(#pbb2a6fdb4a)" style="fill: none; stroke-dasharray: 11.1,4.8; stroke-dashoffset: 0; stroke: #000000; stroke-width: 3"/>
   </g>
   <g id="line2d_32">
    <path d="M 32.148166 721 
L 33.016157 718.992909 
L 40.010198 704.503128 
L 47.004239 691.84252 
L 53.99828 681.068526 
L 60.992321 672.246617 
L 67.986362 665.27985 
L 74.980403 660.10818 
L 81.974443 656.62134 
L 88.968484 654.641133 
L 95.962525 654.040061 
L 102.956566 654.683765 
L 109.950607 656.392361 
L 116.944648 658.984951 
L 123.938688 662.338303 
L 130.932729 666.276603 
L 137.92677 670.635217 
L 144.920811 675.270314 
L 151.914852 679.981034 
L 158.908893 684.61815 
L 165.902934 689.034179 
L 172.896974 693.044938 
L 179.891015 696.464141 
L 186.885056 699.166381 
L 193.879097 700.967668 
L 200.873138 701.722476 
L 207.867179 701.289037 
L 214.861219 699.53452 
L 221.85526 696.343231 
L 228.849301 691.589865 
L 235.843342 685.182754 
L 242.837383 676.996822 
L 249.831424 666.93815 
L 256.825465 654.85236 
L 263.819505 640.550657 
L 270.813546 623.762269 
L 277.807587 604.222694 
L 284.801628 581.464858 
L 291.795669 555.088557 
L 298.78971 524.655471 
L 305.78375 489.979321 
L 312.777791 450.979671 
L 319.771832 408.026945 
L 326.765873 361.448906 
L 333.759914 311.87772 
L 340.753955 260.728698 
L 347.747996 211.214058 
L 354.742036 167.792023 
L 361.736077 133.855467 
L 368.730118 109.471218 
L 375.724159 92.546038 
L 378.130109 88.242424 
" clip-path="url(#pbb2a6fdb4a)" style="fill: none; stroke-dasharray: 3,4.95; stroke-dashoffset: 0; stroke: #000000; stroke-width: 3"/>
   </g>
   <g id="line2d_33">
    <path d="M -1 414.765696 
L 5.039994 413.528464 
L 12.034035 412.167668 
L 19.028076 410.866859 
L 26.022117 409.610429 
L 33.016157 408.438175 
L 40.010198 407.33991 
L 47.004239 406.354888 
L 53.99828 405.526817 
L 60.992321 404.856621 
L 67.986362 404.384278 
L 74.980403 404.141742 
L 81.974443 404.137603 
L 88.968484 404.405993 
L 95.962525 404.939987 
L 102.956566 405.729218 
L 109.950607 406.769162 
L 116.944648 408.044222 
L 123.938688 409.508627 
L 130.932729 411.135935 
L 137.92677 412.890644 
L 144.920811 414.721537 
L 151.914852 416.605731 
L 158.908893 418.493658 
L 165.902934 420.355261 
L 172.896974 422.160275 
L 179.891015 423.881065 
L 186.885056 425.498607 
L 193.879097 426.99253 
L 200.873138 428.346134 
L 207.867179 429.542035 
L 214.861219 430.57967 
L 221.85526 431.441767 
L 228.849301 432.111705 
L 235.843342 432.583754 
L 242.837383 432.832379 
L 249.831424 432.846471 
L 256.825465 432.619803 
L 263.819505 432.094802 
L 270.813546 431.271708 
L 277.807587 430.089096 
L 284.801628 428.513883 
L 291.795669 426.500095 
L 298.78971 423.998283 
L 305.78375 420.969262 
L 312.777791 417.339177 
L 319.771832 413.126477 
L 326.765873 408.334003 
L 333.759914 402.961682 
L 340.753955 396.782474 
L 347.747996 389.378316 
L 354.742036 380.031461 
L 361.736077 367.879567 
L 368.730118 352.733978 
L 375.724159 335.727239 
L 378.130109 329.860902 
" clip-path="url(#pbb2a6fdb4a)" style="fill: none; stroke-dasharray: 11.1,4.8; stroke-dashoffset: 0; stroke: #e69f00; stroke-width: 3"/>
   </g>
   <g id="line2d_34">
    <path d="M 95.982306 721 
L 102.956566 708.953359 
L 109.950607 695.810672 
L 116.944648 681.868405 
L 123.938688 667.442838 
L 130.932729 652.820832 
L 137.92677 638.296025 
L 144.920811 624.152407 
L 151.914852 610.566928 
L 158.908893 597.764041 
L 165.902934 585.927164 
L 172.896974 575.145372 
L 179.891015 565.472431 
L 186.885056 557.023044 
L 193.879097 549.792878 
L 200.873138 543.791839 
L 207.867179 539.015712 
L 214.861219 535.425489 
L 221.85526 533.056841 
L 228.849301 531.781599 
L 235.843342 531.654801 
L 242.837383 532.548479 
L 249.831424 534.526314 
L 256.825465 537.452492 
L 263.819505 541.34492 
L 270.813546 546.074777 
L 277.807587 551.638124 
L 284.801628 557.928033 
L 291.795669 564.816306 
L 298.78971 572.132208 
L 305.78375 579.730531 
L 312.777791 587.319013 
L 319.771832 594.976528 
L 326.765873 602.76312 
L 333.759914 610.912545 
L 340.753955 619.855804 
L 347.747996 630.280743 
L 354.742036 642.742368 
L 361.736077 658.138487 
L 368.730118 678.730719 
L 375.724159 707.346 
L 378.130109 719.326157 
" clip-path="url(#pbb2a6fdb4a)" style="fill: none; stroke-dasharray: 3,4.95; stroke-dashoffset: 0; stroke: #e69f00; stroke-width: 3"/>
   </g>
   <g id="line2d_35">
    <path d="M -1 396.181174 
L 5.039994 396.038622 
L 12.034035 396.536101 
L 19.028076 397.585577 
L 26.022117 399.074287 
L 33.016157 400.915704 
L 40.010198 403.005749 
L 47.004239 405.267513 
L 53.99828 407.637849 
L 60.992321 410.048128 
L 67.986362 412.460902 
L 74.980403 414.843598 
L 81.974443 417.165047 
L 88.968484 419.41938 
L 95.962525 421.591724 
L 102.956566 423.678842 
L 109.950607 425.686824 
L 116.944648 427.618536 
L 123.938688 429.483192 
L 130.932729 431.292343 
L 137.92677 433.067783 
L 144.920811 434.823127 
L 151.914852 436.574792 
L 158.908893 438.349259 
L 165.902934 440.171902 
L 172.896974 442.067664 
L 179.891015 444.059558 
L 186.885056 446.189045 
L 193.879097 448.482296 
L 200.873138 450.975145 
L 207.867179 453.712405 
L 214.861219 456.724208 
L 221.85526 460.06806 
L 228.849301 463.774295 
L 235.843342 467.904614 
L 242.837383 472.492358 
L 249.831424 477.581678 
L 256.825465 483.192296 
L 263.819505 489.306584 
L 270.813546 495.871307 
L 277.807587 502.775727 
L 284.801628 509.874201 
L 291.795669 517.005775 
L 298.78971 523.986091 
L 305.78375 530.662879 
L 312.777791 536.911208 
L 319.771832 542.650769 
L 326.765873 547.880112 
L 333.759914 552.646517 
L 340.753955 557.041254 
L 347.747996 561.243737 
L 354.742036 565.529585 
L 361.736077 569.94596 
L 368.730118 574.031888 
L 375.724159 576.911771 
L 378.130109 577.470344 
" clip-path="url(#pbb2a6fdb4a)" style="fill: none; stroke-dasharray: 11.1,4.8; stroke-dashoffset: 0; stroke: #56b4e9; stroke-width: 3"/>
   </g>
   <g id="line2d_36">
    <path d="M 9.73276 721 
L 12.034035 715.252572 
L 19.028076 698.323584 
L 26.022117 682.331368 
L 33.016157 667.546421 
L 40.010198 654.228089 
L 47.004239 642.512033 
L 53.99828 632.459418 
L 60.992321 624.148606 
L 67.986362 617.539078 
L 74.980403 612.595732 
L 81.974443 609.277505 
L 88.968484 607.444032 
L 95.962525 607.04486 
L 102.956566 608.009968 
L 109.950607 610.211805 
L 116.944648 613.546052 
L 123.938688 617.967037 
L 130.932729 623.369934 
L 137.92677 629.635701 
L 144.920811 636.728869 
L 151.914852 644.49569 
L 158.908893 652.861252 
L 165.902934 661.736566 
L 172.896974 670.985266 
L 179.891015 680.411746 
L 186.885056 689.920725 
L 193.879097 699.275948 
L 200.873138 708.233911 
L 207.867179 716.504944 
L 212.216703 721 
M 254.525982 721 
L 256.825465 717.801068 
L 263.819505 703.277806 
L 270.813546 683.613958 
L 277.807587 658.699121 
L 284.801628 628.646345 
L 291.795669 593.802111 
L 298.78971 554.748711 
L 305.78375 512.329949 
L 312.777791 467.467173 
L 319.771832 421.587499 
L 326.765873 375.892912 
L 333.759914 331.464847 
L 340.753955 288.97076 
L 347.747996 249.203241 
L 354.742036 212.801264 
L 361.736077 180.43999 
L 368.730118 153.546274 
L 375.724159 134.426319 
L 378.130109 130.036629 
" clip-path="url(#pbb2a6fdb4a)" style="fill: none; stroke-dasharray: 3,4.95; stroke-dashoffset: 0; stroke: #56b4e9; stroke-width: 3"/>
   </g>
   <g id="line2d_37">
    <path d="M -1 431.282795 
L 5.039994 432.348329 
L 12.034035 433.646747 
L 19.028076 435.007699 
L 26.022117 436.429481 
L 33.016157 437.930135 
L 40.010198 439.506577 
L 47.004239 441.173909 
L 53.99828 442.944974 
L 60.992321 444.820029 
L 67.986362 446.809075 
L 74.980403 448.916283 
L 81.974443 451.138703 
L 88.968484 453.479813 
L 95.962525 455.926487 
L 102.956566 458.465378 
L 109.950607 461.081579 
L 116.944648 463.754066 
L 123.938688 466.45548 
L 130.932729 469.156785 
L 137.92677 471.828174 
L 144.920811 474.436485 
L 151.914852 476.953076 
L 158.908893 479.345034 
L 165.902934 481.580895 
L 172.896974 483.639274 
L 179.891015 485.49631 
L 186.885056 487.136069 
L 193.879097 488.542582 
L 200.873138 489.712353 
L 207.867179 490.644731 
L 214.861219 491.341492 
L 221.85526 491.810018 
L 228.849301 492.06066 
L 235.843342 492.107424 
L 242.837383 491.957388 
L 249.831424 491.625508 
L 256.825465 491.122234 
L 263.819505 490.453761 
L 270.813546 489.619668 
L 277.807587 488.614006 
L 284.801628 487.421391 
L 291.795669 486.03469 
L 298.78971 484.456621 
L 305.78375 482.712609 
L 312.777791 480.817195 
L 319.771832 478.796916 
L 326.765873 476.651754 
L 333.759914 474.371896 
L 340.753955 471.94515 
L 347.747996 469.531833 
L 354.742036 467.64576 
L 361.736077 467.347456 
L 368.730118 470.389487 
L 375.724159 479.140325 
L 378.130109 483.860033 
" clip-path="url(#pbb2a6fdb4a)" style="fill: none; stroke-dasharray: 11.1,4.8; stroke-dashoffset: 0; stroke: #009e73; stroke-width: 3"/>
   </g>
   <g id="line2d_38">
    <path d="M -1 672.836658 
L 5.039994 674.540384 
L 12.034035 677.360359 
L 19.028076 680.804277 
L 26.022117 684.65712 
L 33.016157 688.687204 
L 40.010198 692.708262 
L 47.004239 696.502319 
L 53.99828 699.866653 
L 60.992321 702.617805 
L 67.986362 704.582647 
L 74.980403 705.587129 
L 81.974443 705.498433 
L 88.968484 704.172636 
L 95.962525 701.527327 
L 102.956566 697.50949 
L 109.950607 692.086186 
L 116.944648 685.260777 
L 123.938688 677.103087 
L 130.932729 667.689924 
L 137.92677 657.141094 
L 144.920811 645.617544 
L 151.914852 633.25679 
L 158.908893 620.247288 
L 165.902934 606.803321 
L 172.896974 593.086907 
L 179.891015 579.251902 
L 186.885056 565.526699 
L 193.879097 552.046259 
L 200.873138 538.953604 
L 207.867179 526.38879 
L 214.861219 514.471834 
L 221.85526 503.358534 
L 228.849301 493.062457 
L 235.843342 483.761337 
L 242.837383 475.441491 
L 249.831424 468.24659 
L 256.825465 462.180978 
L 263.819505 457.283652 
L 270.813546 453.610723 
L 277.807587 451.232088 
L 284.801628 450.29793 
L 291.795669 450.99481 
L 298.78971 453.554467 
L 305.78375 458.272062 
L 312.777791 465.264215 
L 319.771832 474.787601 
L 326.765873 486.862403 
L 333.759914 501.493607 
L 340.753955 518.544193 
L 347.747996 537.928767 
L 354.742036 558.97114 
L 361.736077 579.829214 
L 368.730118 597.123793 
L 375.724159 604.918746 
L 378.130109 604.010949 
" clip-path="url(#pbb2a6fdb4a)" style="fill: none; stroke-dasharray: 3,4.95; stroke-dashoffset: 0; stroke: #009e73; stroke-width: 3"/>
   </g>
   <g id="line2d_39">
    <path d="M 134.136 493.38 
L 378.130109 493.38 
" clip-path="url(#pbb2a6fdb4a)" style="fill: none; stroke: #000000; stroke-opacity: 0.25; stroke-width: 1.5; stroke-linecap: square"/>
   </g>
   <g id="line2d_40">
    <path d="M 338.784713 630 
L 338.784713 83.52 
" clip-path="url(#pbb2a6fdb4a)" style="fill: none; stroke-dasharray: 5.55,2.4; stroke-dashoffset: 0; stroke: #ff0000; stroke-width: 1.5"/>
   </g>
   <g id="patch_5">
    <path d="M 134.136 630 
L 134.136 83.52 
" style="fill: none; stroke: #000000; stroke-width: 0.8; stroke-linejoin: miter; stroke-linecap: square"/>
   </g>
   <g id="patch_6">
    <path d="M 378.130109 630 
L 378.130109 83.52 
" style="fill: none; stroke: #000000; stroke-width: 0.8; stroke-linejoin: miter; stroke-linecap: square"/>
   </g>
   <g id="patch_7">
    <path d="M 134.136 630 
L 378.130109 630 
" style="fill: none; stroke: #000000; stroke-width: 0.8; stroke-linejoin: miter; stroke-linecap: square"/>
   </g>
   <g id="patch_8">
    <path d="M 134.136 83.52 
L 378.130109 83.52 
" style="fill: none; stroke: #000000; stroke-width: 0.8; stroke-linejoin: miter; stroke-linecap: square"/>
   </g>
   <g id="text_21">
    <!-- 30MeV -->
    <g transform="translate(160.787652 134.008625) scale(0.2 -0.2)">
     <defs>
      <path id="DejaVuSans-33" d="M 2597 2516 
Q 3050 2419 3304 2112 
Q 3559 1806 3559 1356 
Q 3559 666 3084 287 
Q 2609 -91 1734 -91 
Q 1441 -91 1130 -33 
Q 819 25 488 141 
L 488 750 
Q 750 597 1062 519 
Q 1375 441 1716 441 
Q 2309 441 2620 675 
Q 2931 909 2931 1356 
Q 2931 1769 2642 2001 
Q 2353 2234 1838 2234 
L 1294 2234 
L 1294 2753 
L 1863 2753 
Q 2328 2753 2575 2939 
Q 2822 3125 2822 3475 
Q 2822 3834 2567 4026 
Q 2313 4219 1838 4219 
Q 1578 4219 1281 4162 
Q 984 4106 628 3988 
L 628 4550 
Q 988 4650 1302 4700 
Q 1616 4750 1894 4750 
Q 2613 4750 3031 4423 
Q 3450 4097 3450 3541 
Q 3450 3153 3228 2886 
Q 3006 2619 2597 2516 
z
" transform="scale(0.015625)"/>
     </defs>
     <use xlink:href="#DejaVuSans-33"/>
     <use xlink:href="#DejaVuSans-30" transform="translate(63.623047 0)"/>
     <use xlink:href="#DejaVuSans-4d" transform="translate(127.246094 0)"/>
     <use xlink:href="#DejaVuSans-65" transform="translate(213.525391 0)"/>
     <use xlink:href="#DejaVuSans-56" transform="translate(275.048828 0)"/>
    </g>
   </g>
   <g id="legend_1">
    <g id="line2d_41">
     <path d="M 253.114484 107.097187 
L 271.114484 107.097187 
L 289.114484 107.097187 
" style="fill: none; stroke-dasharray: 3.5,5.775; stroke-dashoffset: 0; stroke: #000000; stroke-width: 3.5"/>
    </g>
    <g id="text_22">
     <!-- LELO -->
     <g transform="translate(303.514484 113.397187) scale(0.18 -0.18)">
      <defs>
       <path id="DejaVuSans-4c" d="M 628 4666 
L 1259 4666 
L 1259 531 
L 3531 531 
L 3531 0 
L 628 0 
L 628 4666 
z
" transform="scale(0.015625)"/>
       <path id="DejaVuSans-45" d="M 628 4666 
L 3578 4666 
L 3578 4134 
L 1259 4134 
L 1259 2753 
L 3481 2753 
L 3481 2222 
L 1259 2222 
L 1259 531 
L 3634 531 
L 3634 0 
L 628 0 
L 628 4666 
z
" transform="scale(0.015625)"/>
       <path id="DejaVuSans-4f" d="M 2522 4238 
Q 1834 4238 1429 3725 
Q 1025 3213 1025 2328 
Q 1025 1447 1429 934 
Q 1834 422 2522 422 
Q 3209 422 3611 934 
Q 4013 1447 4013 2328 
Q 4013 3213 3611 3725 
Q 3209 4238 2522 4238 
z
M 2522 4750 
Q 3503 4750 4090 4092 
Q 4678 3434 4678 2328 
Q 4678 1225 4090 567 
Q 3503 -91 2522 -91 
Q 1538 -91 948 565 
Q 359 1222 359 2328 
Q 359 3434 948 4092 
Q 1538 4750 2522 4750 
z
" transform="scale(0.015625)"/>
      </defs>
      <use xlink:href="#DejaVuSans-4c"/>
      <use xlink:href="#DejaVuSans-45" transform="translate(55.712891 0)"/>
      <use xlink:href="#DejaVuSans-4c" transform="translate(118.896484 0)"/>
      <use xlink:href="#DejaVuSans-4f" transform="translate(170.984375 0)"/>
     </g>
    </g>
    <g id="line2d_42">
     <path d="M 253.114484 133.517812 
L 271.114484 133.517812 
L 289.114484 133.517812 
" style="fill: none; stroke-dasharray: 12.95,5.6; stroke-dashoffset: 0; stroke: #000000; stroke-width: 3.5"/>
    </g>
    <g id="text_23">
     <!-- LENLO -->
     <g transform="translate(303.514484 139.817812) scale(0.18 -0.18)">
      <defs>
       <path id="DejaVuSans-4e" d="M 628 4666 
L 1478 4666 
L 3547 763 
L 3547 4666 
L 4159 4666 
L 4159 0 
L 3309 0 
L 1241 3903 
L 1241 0 
L 628 0 
L 628 4666 
z
" transform="scale(0.015625)"/>
      </defs>
      <use xlink:href="#DejaVuSans-4c"/>
      <use xlink:href="#DejaVuSans-45" transform="translate(55.712891 0)"/>
      <use xlink:href="#DejaVuSans-4e" transform="translate(118.896484 0)"/>
      <use xlink:href="#DejaVuSans-4c" transform="translate(193.701172 0)"/>
      <use xlink:href="#DejaVuSans-4f" transform="translate(245.789062 0)"/>
     </g>
    </g>
   </g>
  </g>
  <g id="axes_3">
   <g id="patch_9">
    <path d="M 387.157891 630 
L 631.152 630 
L 631.152 83.52 
L 387.157891 83.52 
L 387.157891 630 
z
" style="fill: none"/>
   </g>
   <g id="axes_4">
    <g id="patch_10">
     <path d="M 387.157891 83.52 
L 631.152 83.52 
L 631.152 83.52 
L 387.157891 83.52 
L 387.157891 83.52 
z
" style="fill: none"/>
    </g>
    <g id="matplotlib.axis_5">
     <g id="xtick_9">
      <g id="line2d_43">
       <g>
        <use xlink:href="#meff2dfc203" x="630.973232" y="83.52" style="stroke: #000000; stroke-width: 0.8"/>
       </g>
      </g>
      <g id="text_24">
       <!-- 5 -->
       <g transform="translate(622.065732 70.696875) scale(0.28 -0.28)">
        <use xlink:href="#DejaVuSans-35"/>
       </g>
      </g>
     </g>
     <g id="xtick_10">
      <g id="line2d_44">
       <g>
        <use xlink:href="#meff2dfc203" x="561.032824" y="83.52" style="stroke: #000000; stroke-width: 0.8"/>
       </g>
      </g>
      <g id="text_25">
       <!-- 10 -->
       <g transform="translate(543.217824 70.696875) scale(0.28 -0.28)">
        <use xlink:href="#DejaVuSans-31"/>
        <use xlink:href="#DejaVuSans-30" transform="translate(63.623047 0)"/>
       </g>
      </g>
     </g>
     <g id="xtick_11">
      <g id="line2d_45">
       <g>
        <use xlink:href="#meff2dfc203" x="491.092415" y="83.52" style="stroke: #000000; stroke-width: 0.8"/>
       </g>
      </g>
      <g id="text_26">
       <!-- 15 -->
       <g transform="translate(473.277415 70.696875) scale(0.28 -0.28)">
        <use xlink:href="#DejaVuSans-31"/>
        <use xlink:href="#DejaVuSans-35" transform="translate(63.623047 0)"/>
       </g>
      </g>
     </g>
     <g id="xtick_12">
      <g id="line2d_46">
       <g>
        <use xlink:href="#meff2dfc203" x="421.152007" y="83.52" style="stroke: #000000; stroke-width: 0.8"/>
       </g>
      </g>
      <g id="text_27">
       <!-- 20 -->
       <g transform="translate(403.337007 70.696875) scale(0.28 -0.28)">
        <use xlink:href="#DejaVuSans-32"/>
        <use xlink:href="#DejaVuSans-30" transform="translate(63.623047 0)"/>
       </g>
      </g>
     </g>
     <g id="text_28">
      <!-- $E_t$ (MeV) -->
      <g transform="translate(429.354946 34.42125) scale(0.38 -0.38)">
       <use xlink:href="#DejaVuSans-Oblique-45" transform="translate(0 0.125)"/>
       <use xlink:href="#DejaVuSans-Oblique-74" transform="translate(63.183594 -16.28125) scale(0.7)"/>
       <use xlink:href="#DejaVuSans-20" transform="translate(93.364258 0.125)"/>
       <use xlink:href="#DejaVuSans-28" transform="translate(125.151367 0.125)"/>
       <use xlink:href="#DejaVuSans-4d" transform="translate(164.165039 0.125)"/>
       <use xlink:href="#DejaVuSans-65" transform="translate(250.444336 0.125)"/>
       <use xlink:href="#DejaVuSans-56" transform="translate(311.967773 0.125)"/>
       <use xlink:href="#DejaVuSans-29" transform="translate(380.375977 0.125)"/>
      </g>
     </g>
    </g>
    <g id="matplotlib.axis_6"/>
    <g id="patch_11">
     <path d="M 631.152 83.52 
L 387.157891 83.52 
" style="fill: none; stroke: #000000; stroke-width: 0.8; stroke-linejoin: miter; stroke-linecap: square"/>
    </g>
   </g>
   <g id="matplotlib.axis_7">
    <g id="xtick_13">
     <g id="line2d_47">
      <path d="M 388.556699 630 
L 388.556699 83.52 
" clip-path="url(#paa17b6430b)" style="fill: none; stroke: #b0b0b0; stroke-opacity: 0.2; stroke-width: 0.8; stroke-linecap: square"/>
     </g>
     <g id="line2d_48">
      <g>
       <use xlink:href="#m89c8430bc9" x="388.556699" y="630" style="stroke: #000000; stroke-width: 0.8"/>
      </g>
     </g>
     <g id="text_29">
      <!-- 0 -->
      <g transform="translate(379.649199 658.275625) scale(0.28 -0.28)">
       <use xlink:href="#DejaVuSans-30"/>
      </g>
     </g>
    </g>
    <g id="xtick_14">
     <g id="line2d_49">
      <path d="M 458.497108 630 
L 458.497108 83.52 
" clip-path="url(#paa17b6430b)" style="fill: none; stroke: #b0b0b0; stroke-opacity: 0.2; stroke-width: 0.8; stroke-linecap: square"/>
     </g>
     <g id="line2d_50">
      <g>
       <use xlink:href="#m89c8430bc9" x="458.497108" y="630" style="stroke: #000000; stroke-width: 0.8"/>
      </g>
     </g>
     <g id="text_30">
      <!-- 5 -->
      <g transform="translate(449.589608 658.275625) scale(0.28 -0.28)">
       <use xlink:href="#DejaVuSans-35"/>
      </g>
     </g>
    </g>
    <g id="xtick_15">
     <g id="line2d_51">
      <path d="M 528.437516 630 
L 528.437516 83.52 
" clip-path="url(#paa17b6430b)" style="fill: none; stroke: #b0b0b0; stroke-opacity: 0.2; stroke-width: 0.8; stroke-linecap: square"/>
     </g>
     <g id="line2d_52">
      <g>
       <use xlink:href="#m89c8430bc9" x="528.437516" y="630" style="stroke: #000000; stroke-width: 0.8"/>
      </g>
     </g>
     <g id="text_31">
      <!-- 10 -->
      <g transform="translate(510.622516 658.275625) scale(0.28 -0.28)">
       <use xlink:href="#DejaVuSans-31"/>
       <use xlink:href="#DejaVuSans-30" transform="translate(63.623047 0)"/>
      </g>
     </g>
    </g>
    <g id="xtick_16">
     <g id="line2d_53">
      <path d="M 598.377925 630 
L 598.377925 83.52 
" clip-path="url(#paa17b6430b)" style="fill: none; stroke: #b0b0b0; stroke-opacity: 0.2; stroke-width: 0.8; stroke-linecap: square"/>
     </g>
     <g id="line2d_54">
      <g>
       <use xlink:href="#m89c8430bc9" x="598.377925" y="630" style="stroke: #000000; stroke-width: 0.8"/>
      </g>
     </g>
     <g id="text_32">
      <!-- 15 -->
      <g transform="translate(580.562925 658.275625) scale(0.28 -0.28)">
       <use xlink:href="#DejaVuSans-31"/>
       <use xlink:href="#DejaVuSans-35" transform="translate(63.623047 0)"/>
      </g>
     </g>
    </g>
    <g id="text_33">
     <!-- $E_{ex}$ (MeV) -->
     <g transform="translate(418.524946 696.972813) scale(0.38 -0.38)">
      <use xlink:href="#DejaVuSans-Oblique-45" transform="translate(0 0.125)"/>
      <use xlink:href="#DejaVuSans-Oblique-65" transform="translate(63.183594 -16.28125) scale(0.7)"/>
      <use xlink:href="#DejaVuSans-Oblique-78" transform="translate(106.25 -16.28125) scale(0.7)"/>
      <use xlink:href="#DejaVuSans-20" transform="translate(150.410156 0.125)"/>
      <use xlink:href="#DejaVuSans-28" transform="translate(182.197266 0.125)"/>
      <use xlink:href="#DejaVuSans-4d" transform="translate(221.210938 0.125)"/>
      <use xlink:href="#DejaVuSans-65" transform="translate(307.490234 0.125)"/>
      <use xlink:href="#DejaVuSans-56" transform="translate(369.013672 0.125)"/>
      <use xlink:href="#DejaVuSans-29" transform="translate(437.421875 0.125)"/>
     </g>
    </g>
   </g>
   <g id="matplotlib.axis_8">
    <g id="ytick_10">
     <g id="line2d_55">
      <path d="M 387.157891 630 
L 631.152 630 
" clip-path="url(#paa17b6430b)" style="fill: none; stroke: #b0b0b0; stroke-opacity: 0.2; stroke-width: 0.8; stroke-linecap: square"/>
     </g>
     <g id="line2d_56">
      <g>
       <use xlink:href="#m8eb07edd8a" x="387.157891" y="630" style="stroke: #000000; stroke-width: 0.8"/>
      </g>
     </g>
    </g>
    <g id="ytick_11">
     <g id="line2d_57">
      <path d="M 387.157891 561.69 
L 631.152 561.69 
" clip-path="url(#paa17b6430b)" style="fill: none; stroke: #b0b0b0; stroke-opacity: 0.2; stroke-width: 0.8; stroke-linecap: square"/>
     </g>
     <g id="line2d_58">
      <g>
       <use xlink:href="#m8eb07edd8a" x="387.157891" y="561.69" style="stroke: #000000; stroke-width: 0.8"/>
      </g>
     </g>
    </g>
    <g id="ytick_12">
     <g id="line2d_59">
      <path d="M 387.157891 493.38 
L 631.152 493.38 
" clip-path="url(#paa17b6430b)" style="fill: none; stroke: #b0b0b0; stroke-opacity: 0.2; stroke-width: 0.8; stroke-linecap: square"/>
     </g>
     <g id="line2d_60">
      <g>
       <use xlink:href="#m8eb07edd8a" x="387.157891" y="493.38" style="stroke: #000000; stroke-width: 0.8"/>
      </g>
     </g>
    </g>
    <g id="ytick_13">
     <g id="line2d_61">
      <path d="M 387.157891 425.07 
L 631.152 425.07 
" clip-path="url(#paa17b6430b)" style="fill: none; stroke: #b0b0b0; stroke-opacity: 0.2; stroke-width: 0.8; stroke-linecap: square"/>
     </g>
     <g id="line2d_62">
      <g>
       <use xlink:href="#m8eb07edd8a" x="387.157891" y="425.07" style="stroke: #000000; stroke-width: 0.8"/>
      </g>
     </g>
    </g>
    <g id="ytick_14">
     <g id="line2d_63">
      <path d="M 387.157891 356.76 
L 631.152 356.76 
" clip-path="url(#paa17b6430b)" style="fill: none; stroke: #b0b0b0; stroke-opacity: 0.2; stroke-width: 0.8; stroke-linecap: square"/>
     </g>
     <g id="line2d_64">
      <g>
       <use xlink:href="#m8eb07edd8a" x="387.157891" y="356.76" style="stroke: #000000; stroke-width: 0.8"/>
      </g>
     </g>
    </g>
    <g id="ytick_15">
     <g id="line2d_65">
      <path d="M 387.157891 288.45 
L 631.152 288.45 
" clip-path="url(#paa17b6430b)" style="fill: none; stroke: #b0b0b0; stroke-opacity: 0.2; stroke-width: 0.8; stroke-linecap: square"/>
     </g>
     <g id="line2d_66">
      <g>
       <use xlink:href="#m8eb07edd8a" x="387.157891" y="288.45" style="stroke: #000000; stroke-width: 0.8"/>
      </g>
     </g>
    </g>
    <g id="ytick_16">
     <g id="line2d_67">
      <path d="M 387.157891 220.14 
L 631.152 220.14 
" clip-path="url(#paa17b6430b)" style="fill: none; stroke: #b0b0b0; stroke-opacity: 0.2; stroke-width: 0.8; stroke-linecap: square"/>
     </g>
     <g id="line2d_68">
      <g>
       <use xlink:href="#m8eb07edd8a" x="387.157891" y="220.14" style="stroke: #000000; stroke-width: 0.8"/>
      </g>
     </g>
    </g>
    <g id="ytick_17">
     <g id="line2d_69">
      <path d="M 387.157891 151.83 
L 631.152 151.83 
" clip-path="url(#paa17b6430b)" style="fill: none; stroke: #b0b0b0; stroke-opacity: 0.2; stroke-width: 0.8; stroke-linecap: square"/>
     </g>
     <g id="line2d_70">
      <g>
       <use xlink:href="#m8eb07edd8a" x="387.157891" y="151.83" style="stroke: #000000; stroke-width: 0.8"/>
      </g>
     </g>
    </g>
    <g id="ytick_18">
     <g id="line2d_71">
      <path d="M 387.157891 83.52 
L 631.152 83.52 
" clip-path="url(#paa17b6430b)" style="fill: none; stroke: #b0b0b0; stroke-opacity: 0.2; stroke-width: 0.8; stroke-linecap: square"/>
     </g>
     <g id="line2d_72">
      <g>
       <use xlink:href="#m8eb07edd8a" x="387.157891" y="83.52" style="stroke: #000000; stroke-width: 0.8"/>
      </g>
     </g>
    </g>
   </g>
   <g id="line2d_73">
    <path d="M 174.133395 492.681549 
L 181.127436 473.44655 
L 188.121477 455.886853 
L 195.115517 440.978161 
L 202.109558 428.109801 
L 209.103599 416.993629 
L 216.09764 407.478652 
L 223.091681 399.522417 
L 230.085722 393.052384 
L 237.079763 388.044374 
L 244.073803 384.407226 
L 251.067844 382.063348 
L 258.061885 380.898498 
L 265.055926 380.769056 
L 272.049967 381.522546 
L 279.044008 382.980753 
L 286.038048 385.014456 
L 293.032089 387.447583 
L 300.02613 390.16205 
L 307.020171 393.054957 
L 314.014212 396.006607 
L 321.008253 398.958361 
L 328.002294 401.84821 
L 334.996334 404.623943 
L 341.990375 407.275752 
L 348.984416 409.772127 
L 355.978457 412.094778 
L 362.972498 414.247707 
L 369.966539 416.239564 
L 376.960579 418.060419 
L 383.95462 419.726537 
L 390.948661 421.24828 
L 397.942702 422.631439 
L 404.936743 423.903973 
L 411.930784 425.072296 
L 418.924825 426.147448 
L 425.918865 427.150222 
L 432.912906 428.096766 
L 439.906947 428.994015 
L 446.900988 429.856475 
L 453.895029 430.695233 
L 460.88907 431.51912 
L 467.88311 432.335983 
L 474.877151 433.153323 
L 481.871192 433.977202 
L 488.865233 434.821184 
L 495.859274 435.69085 
L 502.853315 436.60852 
L 509.847356 437.603072 
L 516.841396 438.715657 
L 523.835437 440.020031 
L 530.829478 441.608046 
L 537.823519 443.639309 
L 544.81756 446.300357 
L 551.811601 449.84334 
L 558.805641 454.580965 
L 565.799682 460.849411 
L 572.793723 469.149843 
L 579.787764 480.005148 
L 586.781805 493.985049 
L 593.775846 511.471425 
L 600.769887 532.440558 
L 607.763927 555.955258 
L 614.757968 579.84477 
L 621.752009 600.800022 
L 628.74605 615.157114 
L 631.152 618.158702 
" clip-path="url(#paa17b6430b)" style="fill: none; stroke-dasharray: 11.1,4.8; stroke-dashoffset: 0; stroke: #000000; stroke-width: 3"/>
   </g>
   <g id="line2d_74">
    <path d="M 284.278807 721 
L 286.038048 716.910837 
L 293.032089 702.231463 
L 300.02613 689.29466 
L 307.020171 678.178394 
L 314.014212 668.961401 
L 321.008253 661.566372 
L 328.002294 655.944733 
L 334.996334 651.998425 
L 341.990375 649.561353 
L 348.984416 648.513378 
L 355.978457 648.727898 
L 362.972498 650.033592 
L 369.966539 652.256873 
L 376.960579 655.280681 
L 383.95462 658.936738 
L 390.948661 663.067528 
L 397.942702 667.538268 
L 404.936743 672.156076 
L 411.930784 676.780589 
L 418.924825 681.271353 
L 425.918865 685.454203 
L 432.912906 689.15157 
L 439.906947 692.242348 
L 446.900988 694.548146 
L 453.895029 695.929881 
L 460.88907 696.244942 
L 467.88311 695.358195 
L 474.877151 693.150302 
L 481.871192 689.494511 
L 488.865233 684.281165 
L 495.859274 677.382431 
L 502.853315 668.686624 
L 509.847356 658.0191 
L 516.841396 645.180211 
L 523.835437 629.877962 
L 530.829478 611.813506 
L 537.823519 590.490789 
L 544.81756 565.456798 
L 551.811601 536.22278 
L 558.805641 502.528052 
L 565.799682 464.240783 
L 572.793723 421.670454 
L 579.787764 375.122643 
L 586.781805 325.190523 
L 593.775846 273.246746 
L 600.769887 222.482213 
L 607.763927 177.464099 
L 614.757968 141.790744 
L 621.752009 115.652348 
L 628.74605 96.912078 
L 631.152 91.961393 
" clip-path="url(#paa17b6430b)" style="fill: none; stroke-dasharray: 3,4.95; stroke-dashoffset: 0; stroke: #000000; stroke-width: 3"/>
   </g>
   <g id="line2d_75">
    <path d="M 174.133395 471.685241 
L 181.127436 455.727393 
L 188.121477 446.479145 
L 195.115517 439.913347 
L 202.109558 434.965188 
L 209.103599 431.146775 
L 216.09764 428.129288 
L 223.091681 425.719694 
L 230.085722 423.709009 
L 237.079763 422.007584 
L 244.073803 420.489756 
L 251.067844 419.106828 
L 258.061885 417.815228 
L 265.055926 416.59079 
L 272.049967 415.419089 
L 279.044008 414.288144 
L 286.038048 413.232867 
L 293.032089 412.245059 
L 300.02613 411.363971 
L 307.020171 410.622206 
L 314.014212 410.028685 
L 321.008253 409.62264 
L 328.002294 409.430024 
L 334.996334 409.462485 
L 341.990375 409.752162 
L 348.984416 410.296012 
L 355.978457 411.087068 
L 362.972498 412.119354 
L 369.966539 413.379125 
L 376.960579 414.82701 
L 383.95462 416.443353 
L 390.948661 418.181489 
L 397.942702 420.006829 
L 404.936743 421.889732 
L 411.930784 423.786231 
L 418.924825 425.663231 
L 425.918865 427.493879 
L 432.912906 429.24966 
L 439.906947 430.911705 
L 446.900988 432.459657 
L 453.895029 433.878511 
L 460.88907 435.149671 
L 467.88311 436.272791 
L 474.877151 437.230771 
L 481.871192 438.008396 
L 488.865233 438.600272 
L 495.859274 438.982632 
L 502.853315 439.145302 
L 509.847356 439.081353 
L 516.841396 438.739817 
L 523.835437 438.120063 
L 530.829478 437.166414 
L 537.823519 435.849777 
L 544.81756 434.129638 
L 551.811601 431.964773 
L 558.805641 429.322229 
L 565.799682 426.134999 
L 572.793723 422.426034 
L 579.787764 418.200718 
L 586.781805 413.468261 
L 593.775846 408.035264 
L 600.769887 401.552531 
L 607.763927 393.410417 
L 614.757968 382.863221 
L 621.752009 369.7489 
L 628.74605 355.002139 
L 631.152 349.884864 
" clip-path="url(#paa17b6430b)" style="fill: none; stroke-dasharray: 11.1,4.8; stroke-dashoffset: 0; stroke: #e69f00; stroke-width: 3"/>
   </g>
   <g id="line2d_76">
    <path d="M 347.624056 721 
L 348.984416 719.056585 
L 355.978457 707.747756 
L 362.972498 695.320735 
L 369.966539 682.019177 
L 376.960579 668.139476 
L 383.95462 653.95215 
L 390.948661 639.743471 
L 397.942702 625.79496 
L 404.936743 612.287179 
L 411.930784 599.447973 
L 418.924825 587.466106 
L 425.918865 576.442778 
L 432.912906 566.442762 
L 439.906947 557.584928 
L 446.900988 549.875856 
L 453.895029 543.331961 
L 460.88907 537.953349 
L 467.88311 533.704798 
L 474.877151 530.619802 
L 481.871192 528.573794 
L 488.865233 527.61535 
L 495.859274 527.615891 
L 502.853315 528.62759 
L 509.847356 530.50976 
L 516.841396 533.270086 
L 523.835437 536.771026 
L 530.829478 540.995962 
L 537.823519 545.827386 
L 544.81756 551.127112 
L 551.811601 556.720157 
L 558.805641 562.449484 
L 565.799682 568.030433 
L 572.793723 573.526831 
L 579.787764 578.998446 
L 586.781805 584.684135 
L 593.775846 591.022954 
L 600.769887 598.684262 
L 607.763927 608.213644 
L 614.757968 620.512855 
L 621.752009 637.816767 
L 628.74605 662.994523 
L 631.152 673.807538 
" clip-path="url(#paa17b6430b)" style="fill: none; stroke-dasharray: 3,4.95; stroke-dashoffset: 0; stroke: #e69f00; stroke-width: 3"/>
   </g>
   <g id="line2d_77">
    <path d="M 174.133395 467.286624 
L 181.127436 453.483005 
L 188.121477 442.762358 
L 195.115517 433.757571 
L 202.109558 426.085936 
L 209.103599 419.582171 
L 216.09764 414.147196 
L 223.091681 409.75768 
L 230.085722 406.338036 
L 237.079763 403.869255 
L 244.073803 402.266426 
L 251.067844 401.471826 
L 258.061885 401.397168 
L 265.055926 401.951703 
L 272.049967 403.032129 
L 279.044008 404.530981 
L 286.038048 406.365974 
L 293.032089 408.435863 
L 300.02613 410.670587 
L 307.020171 413.00594 
L 314.014212 415.375585 
L 321.008253 417.744383 
L 328.002294 420.077851 
L 334.996334 422.346122 
L 341.990375 424.545878 
L 348.984416 426.657541 
L 355.978457 428.677318 
L 362.972498 430.613656 
L 369.966539 432.466075 
L 376.960579 434.244988 
L 383.95462 435.95742 
L 390.948661 437.624743 
L 397.942702 439.257202 
L 404.936743 440.872947 
L 411.930784 442.49006 
L 418.924825 444.135382 
L 425.918865 445.827933 
L 432.912906 447.592229 
L 439.906947 449.457408 
L 446.900988 451.453999 
L 453.895029 453.610875 
L 460.88907 455.962333 
L 467.88311 458.5475 
L 474.877151 461.410885 
L 481.871192 464.584382 
L 488.865233 468.128225 
L 495.859274 472.07951 
L 502.853315 476.488774 
L 509.847356 481.385844 
L 516.841396 486.772886 
L 523.835437 492.618017 
L 530.829478 498.840329 
L 537.823519 505.324823 
L 544.81756 511.936955 
L 551.811601 518.517917 
L 558.805641 524.934544 
L 565.799682 531.06821 
L 572.793723 536.836812 
L 579.787764 542.227136 
L 586.781805 547.268671 
L 593.775846 552.033359 
L 600.769887 556.683574 
L 607.763927 561.485127 
L 614.757968 566.479845 
L 621.752009 571.192267 
L 628.74605 574.715032 
L 631.152 575.489677 
" clip-path="url(#paa17b6430b)" style="fill: none; stroke-dasharray: 11.1,4.8; stroke-dashoffset: 0; stroke: #56b4e9; stroke-width: 3"/>
   </g>
   <g id="line2d_78">
    <path d="M 262.450268 721 
L 265.055926 714.607307 
L 272.049967 697.858329 
L 279.044008 681.917802 
L 286.038048 667.068379 
L 293.032089 653.579786 
L 300.02613 641.603753 
L 307.020171 631.218282 
L 314.014212 622.511917 
L 321.008253 615.45987 
L 328.002294 610.038005 
L 334.996334 606.213384 
L 341.990375 603.857358 
L 348.984416 602.92396 
L 355.978457 603.346218 
L 362.972498 605.003341 
L 369.966539 607.796521 
L 376.960579 611.682536 
L 383.95462 616.558933 
L 390.948661 622.314113 
L 397.942702 628.914843 
L 404.936743 636.216562 
L 411.930784 644.151278 
L 418.924825 652.638453 
L 425.918865 661.553668 
L 432.912906 670.722271 
L 439.906947 680.057152 
L 446.900988 689.349945 
L 453.895029 698.380827 
L 460.88907 706.886965 
L 467.88311 714.552584 
L 474.860717 721 
M 506.442567 721 
L 509.847356 717.392543 
L 516.841396 705.51351 
L 523.835437 688.751218 
L 530.829478 666.897528 
L 537.823519 639.936621 
L 544.81756 608.072825 
L 551.811601 571.720066 
L 558.805641 531.564607 
L 565.799682 488.399065 
L 572.793723 443.527219 
L 579.787764 398.106452 
L 586.781805 353.206743 
L 593.775846 309.532872 
L 600.769887 267.904649 
L 607.763927 229.041502 
L 614.757968 193.743273 
L 621.752009 163.639009 
L 628.74605 141.331783 
L 631.152 135.900134 
" clip-path="url(#paa17b6430b)" style="fill: none; stroke-dasharray: 3,4.95; stroke-dashoffset: 0; stroke: #56b4e9; stroke-width: 3"/>
   </g>
   <g id="line2d_79">
    <path d="M 174.133395 438.840538 
L 181.127436 434.28357 
L 188.121477 431.793542 
L 195.115517 430.451307 
L 202.109558 429.876886 
L 209.103599 429.84124 
L 216.09764 430.178553 
L 223.091681 430.796145 
L 230.085722 431.593926 
L 237.079763 432.535869 
L 244.073803 433.565722 
L 251.067844 434.666753 
L 258.061885 435.825674 
L 265.055926 437.035397 
L 272.049967 438.294639 
L 279.044008 439.601958 
L 286.038048 440.974825 
L 293.032089 442.410631 
L 300.02613 443.925707 
L 307.020171 445.531168 
L 314.014212 447.230199 
L 321.008253 449.033102 
L 328.002294 450.945953 
L 334.996334 452.969461 
L 341.990375 455.107773 
L 348.984416 457.352289 
L 355.978457 459.69333 
L 362.972498 462.120216 
L 369.966539 464.614799 
L 376.960579 467.153725 
L 383.95462 469.714002 
L 390.948661 472.266968 
L 397.942702 474.782209 
L 404.936743 477.232235 
L 411.930784 479.587335 
L 418.924825 481.816654 
L 425.918865 483.896165 
L 432.912906 485.802834 
L 439.906947 487.517145 
L 446.900988 489.026488 
L 453.895029 490.321693 
L 460.88907 491.397256 
L 467.88311 492.256456 
L 474.877151 492.899255 
L 481.871192 493.335193 
L 488.865233 493.575577 
L 495.859274 493.622118 
L 502.853315 493.490259 
L 509.847356 493.184697 
L 516.841396 492.709092 
L 523.835437 492.063918 
L 530.829478 491.240097 
L 537.823519 490.222264 
L 544.81756 489.001802 
L 551.811601 487.579963 
L 558.805641 485.976454 
L 565.799682 484.200675 
L 572.793723 482.267769 
L 579.787764 480.161769 
L 586.781805 477.842463 
L 593.775846 475.263514 
L 600.769887 472.507625 
L 607.763927 469.956259 
L 614.757968 468.419391 
L 621.752009 469.305958 
L 628.74605 474.651835 
L 631.152 477.900232 
" clip-path="url(#paa17b6430b)" style="fill: none; stroke-dasharray: 11.1,4.8; stroke-dashoffset: 0; stroke: #009e73; stroke-width: 3"/>
   </g>
   <g id="line2d_80">
    <path d="M 192.592858 721 
L 195.115517 715.025963 
L 202.109558 701.11036 
L 209.103599 689.845432 
L 216.09764 681.122398 
L 223.091681 674.705445 
L 230.085722 670.401194 
L 237.079763 667.91794 
L 244.073803 667.055707 
L 251.067844 667.54806 
L 258.061885 669.160351 
L 265.055926 671.664779 
L 272.049967 674.845469 
L 279.044008 678.494784 
L 286.038048 682.387993 
L 293.032089 686.346551 
L 300.02613 690.158711 
L 307.020171 693.628393 
L 314.014212 696.57514 
L 321.008253 698.827895 
L 328.002294 700.214973 
L 334.996334 700.597805 
L 341.990375 699.82993 
L 348.984416 697.818413 
L 355.978457 694.493993 
L 362.972498 689.810007 
L 369.966539 683.750533 
L 376.960579 676.362131 
L 383.95462 667.699617 
L 390.948661 657.862671 
L 397.942702 646.985575 
L 404.936743 635.192176 
L 411.930784 622.652853 
L 418.924825 609.567648 
L 425.918865 596.0873 
L 432.912906 582.367193 
L 439.906947 568.627273 
L 446.900988 555.003542 
L 453.895029 541.647854 
L 460.88907 528.698794 
L 467.88311 516.293439 
L 474.877151 504.588447 
L 481.871192 493.612181 
L 488.865233 483.551192 
L 495.859274 474.406293 
L 502.853315 466.326386 
L 509.847356 459.326754 
L 516.841396 453.455922 
L 523.835437 448.774701 
L 530.829478 445.358085 
L 537.823519 443.35614 
L 544.81756 442.957448 
L 551.811601 444.396601 
L 558.805641 447.96777 
L 565.799682 453.799404 
L 572.793723 462.155068 
L 579.787764 473.080272 
L 586.781805 486.627902 
L 593.775846 502.778806 
L 600.769887 521.642509 
L 607.763927 542.922642 
L 614.757968 565.437207 
L 621.752009 586.783102 
L 628.74605 602.225253 
L 631.152 604.945595 
" clip-path="url(#paa17b6430b)" style="fill: none; stroke-dasharray: 3,4.95; stroke-dashoffset: 0; stroke: #009e73; stroke-width: 3"/>
   </g>
   <g id="line2d_81">
    <path d="M 387.157891 493.38 
L 631.152 493.38 
" clip-path="url(#paa17b6430b)" style="fill: none; stroke: #000000; stroke-opacity: 0.25; stroke-width: 1.5; stroke-linecap: square"/>
   </g>
   <g id="patch_12">
    <path d="M 387.157891 630 
L 387.157891 83.52 
" style="fill: none; stroke: #000000; stroke-width: 0.8; stroke-linejoin: miter; stroke-linecap: square"/>
   </g>
   <g id="patch_13">
    <path d="M 631.152 630 
L 631.152 83.52 
" style="fill: none; stroke: #000000; stroke-width: 0.8; stroke-linejoin: miter; stroke-linecap: square"/>
   </g>
   <g id="patch_14">
    <path d="M 387.157891 630 
L 631.152 630 
" style="fill: none; stroke: #000000; stroke-width: 0.8; stroke-linejoin: miter; stroke-linecap: square"/>
   </g>
   <g id="patch_15">
    <path d="M 387.157891 83.52 
L 631.152 83.52 
" style="fill: none; stroke: #000000; stroke-width: 0.8; stroke-linejoin: miter; stroke-linecap: square"/>
   </g>
   <g id="text_34">
    <!-- 40MeV -->
    <g transform="translate(413.809543 134.008625) scale(0.2 -0.2)">
     <defs>
      <path id="DejaVuSans-34" d="M 2419 4116 
L 825 1625 
L 2419 1625 
L 2419 4116 
z
M 2253 4666 
L 3047 4666 
L 3047 1625 
L 3713 1625 
L 3713 1100 
L 3047 1100 
L 3047 0 
L 2419 0 
L 2419 1100 
L 313 1100 
L 313 1709 
L 2253 4666 
z
" transform="scale(0.015625)"/>
     </defs>
     <use xlink:href="#DejaVuSans-34"/>
     <use xlink:href="#DejaVuSans-30" transform="translate(63.623047 0)"/>
     <use xlink:href="#DejaVuSans-4d" transform="translate(127.246094 0)"/>
     <use xlink:href="#DejaVuSans-65" transform="translate(213.525391 0)"/>
     <use xlink:href="#DejaVuSans-56" transform="translate(275.048828 0)"/>
    </g>
   </g>
   <g id="legend_2">
    <g id="line2d_82">
     <path d="M 533.015437 107.097187 
L 551.015437 107.097187 
L 569.015437 107.097187 
" style="fill: none; stroke: #000000; stroke-width: 2; stroke-linecap: square"/>
    </g>
    <g id="text_35">
     <!-- l=0 -->
     <g transform="translate(583.415437 113.397187) scale(0.18 -0.18)">
      <defs>
       <path id="DejaVuSans-6c" d="M 603 4863 
L 1178 4863 
L 1178 0 
L 603 0 
L 603 4863 
z
" transform="scale(0.015625)"/>
       <path id="DejaVuSans-3d" d="M 678 2906 
L 4684 2906 
L 4684 2381 
L 678 2381 
L 678 2906 
z
M 678 1631 
L 4684 1631 
L 4684 1100 
L 678 1100 
L 678 1631 
z
" transform="scale(0.015625)"/>
      </defs>
      <use xlink:href="#DejaVuSans-6c"/>
      <use xlink:href="#DejaVuSans-3d" transform="translate(27.783203 0)"/>
      <use xlink:href="#DejaVuSans-30" transform="translate(111.572266 0)"/>
     </g>
    </g>
    <g id="line2d_83">
     <path d="M 533.015437 133.517812 
L 551.015437 133.517812 
L 569.015437 133.517812 
" style="fill: none; stroke: #e69f00; stroke-width: 2; stroke-linecap: square"/>
    </g>
    <g id="text_36">
     <!-- l=1 -->
     <g transform="translate(583.415437 139.817812) scale(0.18 -0.18)">
      <use xlink:href="#DejaVuSans-6c"/>
      <use xlink:href="#DejaVuSans-3d" transform="translate(27.783203 0)"/>
      <use xlink:href="#DejaVuSans-31" transform="translate(111.572266 0)"/>
     </g>
    </g>
    <g id="line2d_84">
     <path d="M 533.015437 159.938437 
L 551.015437 159.938437 
L 569.015437 159.938437 
" style="fill: none; stroke: #56b4e9; stroke-width: 2; stroke-linecap: square"/>
    </g>
    <g id="text_37">
     <!-- l=2 -->
     <g transform="translate(583.415437 166.238437) scale(0.18 -0.18)">
      <use xlink:href="#DejaVuSans-6c"/>
      <use xlink:href="#DejaVuSans-3d" transform="translate(27.783203 0)"/>
      <use xlink:href="#DejaVuSans-32" transform="translate(111.572266 0)"/>
     </g>
    </g>
    <g id="line2d_85">
     <path d="M 533.015437 186.359062 
L 551.015437 186.359062 
L 569.015437 186.359062 
" style="fill: none; stroke: #009e73; stroke-width: 2; stroke-linecap: square"/>
    </g>
    <g id="text_38">
     <!-- l=3 -->
     <g transform="translate(583.415437 192.659063) scale(0.18 -0.18)">
      <use xlink:href="#DejaVuSans-6c"/>
      <use xlink:href="#DejaVuSans-3d" transform="translate(27.783203 0)"/>
      <use xlink:href="#DejaVuSans-33" transform="translate(111.572266 0)"/>
     </g>
    </g>
   </g>
  </g>
 </g>
 <defs>
  <clipPath id="pbb2a6fdb4a">
   <rect x="134.136" y="83.52" width="243.994109" height="546.48"/>
  </clipPath>
  <clipPath id="paa17b6430b">
   <rect x="387.157891" y="83.52" width="243.994109" height="546.48"/>
  </clipPath>
 </defs>
</svg>
