<?xml version="1.0" encoding="utf-8" standalone="no"?>
<!DOCTYPE svg PUBLIC "-//W3C//DTD SVG 1.1//EN"
  "http://www.w3.org/Graphics/SVG/1.1/DTD/svg11.dtd">
<svg xmlns:xlink="http://www.w3.org/1999/xlink" width="576pt" height="720pt" viewBox="0 0 576 720" xmlns="http://www.w3.org/2000/svg" version="1.1">
 <metadata>
  <rdf:RDF xmlns:dc="http://purl.org/dc/elements/1.1/" xmlns:cc="http://creativecommons.org/ns#" xmlns:rdf="http://www.w3.org/1999/02/22-rdf-syntax-ns#">
   <cc:Work>
    <dc:type rdf:resource="http://purl.org/dc/dcmitype/StillImage"/>
    <dc:date>2026-03-31T12:32:19.364218</dc:date>
    <dc:format>image/svg+xml</dc:format>
    <dc:creator>
     <cc:Agent>
      <dc:title>Matplotlib v3.10.8, https://matplotlib.org/</dc:title>
     </cc:Agent>
    </dc:creator>
   </cc:Work>
  </rdf:RDF>
 </metadata>
 <defs>
  <style type="text/css">*{stroke-linejoin: round; stroke-linecap: butt}</style>
 </defs>
 <g id="figure_1">
  <g id="patch_1">
   <path d="M 0 720 
L 576 720 
L 576 0 
L 0 0 
L 0 720 
z
" style="fill: none"/>
  </g>
  <g id="axes_1">
   <g id="patch_2">
    <path d="M 134.39 303.682 
L 543.6 303.682 
L 543.6 32.4 
L 134.39 32.4 
L 134.39 303.682 
z
" style="fill: none"/>
   </g>
   <g id="matplotlib.axis_1">
    <g id="xtick_1">
     <g id="line2d_1">
      <path d="M 222.742159 303.682 
L 222.742159 32.4 
" clip-path="url(#p2a3d97da44)" style="fill: none; stroke: #b0b0b0; stroke-opacity: 0.2; stroke-width: 0.8; stroke-linecap: square"/>
     </g>
     <g id="line2d_2">
      <defs>
       <path id="me1b8ce0439" d="M 0 0 
L 0 3.5 
" style="stroke: #000000; stroke-width: 0.8"/>
      </defs>
      <g>
       <use xlink:href="#me1b8ce0439" x="222.742159" y="303.682" style="stroke: #000000; stroke-width: 0.8"/>
      </g>
     </g>
    </g>
    <g id="xtick_2">
     <g id="line2d_3">
      <path d="M 338.995 303.682 
L 338.995 32.4 
" clip-path="url(#p2a3d97da44)" style="fill: none; stroke: #b0b0b0; stroke-opacity: 0.2; stroke-width: 0.8; stroke-linecap: square"/>
     </g>
     <g id="line2d_4">
      <g>
       <use xlink:href="#me1b8ce0439" x="338.995" y="303.682" style="stroke: #000000; stroke-width: 0.8"/>
      </g>
     </g>
    </g>
    <g id="xtick_3">
     <g id="line2d_5">
      <path d="M 455.247841 303.682 
L 455.247841 32.4 
" clip-path="url(#p2a3d97da44)" style="fill: none; stroke: #b0b0b0; stroke-opacity: 0.2; stroke-width: 0.8; stroke-linecap: square"/>
     </g>
     <g id="line2d_6">
      <g>
       <use xlink:href="#me1b8ce0439" x="455.247841" y="303.682" style="stroke: #000000; stroke-width: 0.8"/>
      </g>
     </g>
    </g>
   </g>
   <g id="matplotlib.axis_2">
    <g id="ytick_1">
     <g id="line2d_7">
      <path d="M 134.39 291.351 
L 543.6 291.351 
" clip-path="url(#p2a3d97da44)" style="fill: none; stroke: #b0b0b0; stroke-opacity: 0.2; stroke-width: 0.8; stroke-linecap: square"/>
     </g>
     <g id="line2d_8">
      <defs>
       <path id="m1d4f8aedda" d="M 0 0 
L -3.5 0 
" style="stroke: #000000; stroke-width: 0.8"/>
      </defs>
      <g>
       <use xlink:href="#m1d4f8aedda" x="134.39" y="291.351" style="stroke: #000000; stroke-width: 0.8"/>
      </g>
     </g>
     <g id="text_1">
      <!-- 0 -->
      <g transform="translate(109.575 301.988812) scale(0.28 -0.28)">
       <defs>
        <path id="DejaVuSans-30" d="M 2034 4250 
Q 1547 4250 1301 3770 
Q 1056 3291 1056 2328 
Q 1056 1369 1301 889 
Q 1547 409 2034 409 
Q 2525 409 2770 889 
Q 3016 1369 3016 2328 
Q 3016 3291 2770 3770 
Q 2525 4250 2034 4250 
z
M 2034 4750 
Q 2819 4750 3233 4129 
Q 3647 3509 3647 2328 
Q 3647 1150 3233 529 
Q 2819 -91 2034 -91 
Q 1250 -91 836 529 
Q 422 1150 422 2328 
Q 422 3509 836 4129 
Q 1250 4750 2034 4750 
z
" transform="scale(0.015625)"/>
       </defs>
       <use xlink:href="#DejaVuSans-30"/>
      </g>
     </g>
    </g>
    <g id="ytick_2">
     <g id="line2d_9">
      <path d="M 134.39 198.642179 
L 543.6 198.642179 
" clip-path="url(#p2a3d97da44)" style="fill: none; stroke: #b0b0b0; stroke-opacity: 0.2; stroke-width: 0.8; stroke-linecap: square"/>
     </g>
     <g id="line2d_10">
      <g>
       <use xlink:href="#m1d4f8aedda" x="134.39" y="198.642179" style="stroke: #000000; stroke-width: 0.8"/>
      </g>
     </g>
     <g id="text_2">
      <!-- 50 -->
      <g transform="translate(91.76 209.279991) scale(0.28 -0.28)">
       <defs>
        <path id="DejaVuSans-35" d="M 691 4666 
L 3169 4666 
L 3169 4134 
L 1269 4134 
L 1269 2991 
Q 1406 3038 1543 3061 
Q 1681 3084 1819 3084 
Q 2600 3084 3056 2656 
Q 3513 2228 3513 1497 
Q 3513 744 3044 326 
Q 2575 -91 1722 -91 
Q 1428 -91 1123 -41 
Q 819 9 494 109 
L 494 744 
Q 775 591 1075 516 
Q 1375 441 1709 441 
Q 2250 441 2565 725 
Q 2881 1009 2881 1497 
Q 2881 1984 2565 2268 
Q 2250 2553 1709 2553 
Q 1456 2553 1204 2497 
Q 953 2441 691 2322 
L 691 4666 
z
" transform="scale(0.015625)"/>
       </defs>
       <use xlink:href="#DejaVuSans-35"/>
       <use xlink:href="#DejaVuSans-30" transform="translate(63.623047 0)"/>
      </g>
     </g>
    </g>
    <g id="ytick_3">
     <g id="line2d_11">
      <path d="M 134.39 105.933357 
L 543.6 105.933357 
" clip-path="url(#p2a3d97da44)" style="fill: none; stroke: #b0b0b0; stroke-opacity: 0.2; stroke-width: 0.8; stroke-linecap: square"/>
     </g>
     <g id="line2d_12">
      <g>
       <use xlink:href="#m1d4f8aedda" x="134.39" y="105.933357" style="stroke: #000000; stroke-width: 0.8"/>
      </g>
     </g>
     <g id="text_3">
      <!-- 100 -->
      <g transform="translate(73.945 116.57117) scale(0.28 -0.28)">
       <defs>
        <path id="DejaVuSans-31" d="M 794 531 
L 1825 531 
L 1825 4091 
L 703 3866 
L 703 4441 
L 1819 4666 
L 2450 4666 
L 2450 531 
L 3481 531 
L 3481 0 
L 794 0 
L 794 531 
z
" transform="scale(0.015625)"/>
       </defs>
       <use xlink:href="#DejaVuSans-31"/>
       <use xlink:href="#DejaVuSans-30" transform="translate(63.623047 0)"/>
       <use xlink:href="#DejaVuSans-30" transform="translate(127.246094 0)"/>
      </g>
     </g>
    </g>
    <g id="text_4">
     <!-- $\sigma$ [mb] -->
     <g transform="translate(62.042188 231.691) rotate(-90) scale(0.38 -0.38)">
      <defs>
       <path id="DejaVuSans-Oblique-3c3" d="M 2219 3044 
Q 1744 3044 1422 2700 
Q 1081 2341 969 1747 
Q 844 1119 1044 756 
Q 1241 397 1706 397 
Q 2166 397 2503 759 
Q 2844 1122 2966 1747 
Q 3075 2319 2881 2700 
Q 2700 3044 2219 3044 
z
M 2309 3503 
L 4219 3500 
L 4106 2925 
L 3463 2925 
Q 3706 2438 3575 1747 
Q 3406 888 2884 400 
Q 2359 -91 1609 -91 
Q 856 -91 525 400 
Q 194 888 363 1747 
Q 528 2609 1050 3097 
Q 1484 3503 2309 3503 
z
" transform="scale(0.015625)"/>
       <path id="DejaVuSans-20" transform="scale(0.015625)"/>
       <path id="DejaVuSans-5b" d="M 550 4863 
L 1875 4863 
L 1875 4416 
L 1125 4416 
L 1125 -397 
L 1875 -397 
L 1875 -844 
L 550 -844 
L 550 4863 
z
" transform="scale(0.015625)"/>
       <path id="DejaVuSans-6d" d="M 3328 2828 
Q 3544 3216 3844 3400 
Q 4144 3584 4550 3584 
Q 5097 3584 5394 3201 
Q 5691 2819 5691 2113 
L 5691 0 
L 5113 0 
L 5113 2094 
Q 5113 2597 4934 2840 
Q 4756 3084 4391 3084 
Q 3944 3084 3684 2787 
Q 3425 2491 3425 1978 
L 3425 0 
L 2847 0 
L 2847 2094 
Q 2847 2600 2669 2842 
Q 2491 3084 2119 3084 
Q 1678 3084 1418 2786 
Q 1159 2488 1159 1978 
L 1159 0 
L 581 0 
L 581 3500 
L 1159 3500 
L 1159 2956 
Q 1356 3278 1631 3431 
Q 1906 3584 2284 3584 
Q 2666 3584 2933 3390 
Q 3200 3197 3328 2828 
z
" transform="scale(0.015625)"/>
       <path id="DejaVuSans-62" d="M 3116 1747 
Q 3116 2381 2855 2742 
Q 2594 3103 2138 3103 
Q 1681 3103 1420 2742 
Q 1159 2381 1159 1747 
Q 1159 1113 1420 752 
Q 1681 391 2138 391 
Q 2594 391 2855 752 
Q 3116 1113 3116 1747 
z
M 1159 2969 
Q 1341 3281 1617 3432 
Q 1894 3584 2278 3584 
Q 2916 3584 3314 3078 
Q 3713 2572 3713 1747 
Q 3713 922 3314 415 
Q 2916 -91 2278 -91 
Q 1894 -91 1617 61 
Q 1341 213 1159 525 
L 1159 0 
L 581 0 
L 581 4863 
L 1159 4863 
L 1159 2969 
z
" transform="scale(0.015625)"/>
       <path id="DejaVuSans-5d" d="M 1947 4863 
L 1947 -844 
L 622 -844 
L 622 -397 
L 1369 -397 
L 1369 4416 
L 622 4416 
L 622 4863 
L 1947 4863 
z
" transform="scale(0.015625)"/>
      </defs>
      <use xlink:href="#DejaVuSans-Oblique-3c3" transform="translate(0 0.015625)"/>
      <use xlink:href="#DejaVuSans-20" transform="translate(63.378906 0.015625)"/>
      <use xlink:href="#DejaVuSans-5b" transform="translate(95.166016 0.015625)"/>
      <use xlink:href="#DejaVuSans-6d" transform="translate(134.179688 0.015625)"/>
      <use xlink:href="#DejaVuSans-62" transform="translate(231.591797 0.015625)"/>
      <use xlink:href="#DejaVuSans-5d" transform="translate(295.068359 0.015625)"/>
     </g>
    </g>
   </g>
   <g id="line2d_13">
    <path d="M 152.990455 291.351 
L 153.106707 291.323981 
L 292.372961 291.180835 
L 321.594275 290.957773 
L 332.219784 290.686535 
L 335.32141 290.423973 
L 336.474638 290.126599 
L 337.083803 289.752503 
L 337.488363 289.240704 
L 337.799921 288.468224 
L 338.064977 287.153132 
L 338.292833 284.746554 
L 338.488138 279.998203 
L 338.655542 269.772052 
L 338.808995 244.062525 
L 338.995 191.235661 
L 339.064752 204.919417 
L 339.371659 272.934345 
L 339.618115 283.227404 
L 339.897122 286.84267 
L 340.21798 288.418476 
L 340.585339 289.19147 
L 341.02245 289.609795 
L 341.613014 289.853936 
L 342.538387 289.971608 
L 344.138026 289.926647 
L 346.421231 289.638093 
L 348.40218 289.176667 
L 349.871616 288.615456 
L 351.001593 287.950922 
L 351.917666 287.156073 
L 352.712835 286.1683 
L 353.452203 284.883749 
L 354.219472 283.074586 
L 356.074867 278.42086 
L 356.488727 278.079869 
L 356.916538 278.016021 
L 357.948863 278.197902 
L 358.716132 278.451585 
L 359.209044 278.875008 
L 359.771708 279.684851 
L 360.864484 281.767991 
L 361.841008 283.385366 
L 362.612927 284.249897 
L 363.347645 284.751577 
L 364.096313 284.99837 
L 364.886833 285.023571 
L 365.733153 284.823856 
L 366.635275 284.376725 
L 367.583899 283.651669 
L 368.588323 282.594623 
L 369.709001 281.075632 
L 371.285389 278.513413 
L 373.117534 275.63406 
L 374.001055 274.642482 
L 374.693922 274.175506 
L 375.307737 274.018141 
L 375.926202 274.091646 
L 376.63302 274.41188 
L 377.576993 275.106274 
L 379.167332 276.593774 
L 381.641192 279.216427 
L 384.138303 281.810934 
L 385.486836 282.880248 
L 386.723766 283.582981 
L 387.974647 284.038718 
L 389.32783 284.29193 
L 390.97397 284.362217 
L 397.312075 284.401486 
L 399.823136 284.830683 
L 404.724356 285.698872 
L 408.323544 286.047359 
L 414.075735 286.603076 
L 417.647022 287.208177 
L 430.100026 289.546324 
L 434.833842 290.040793 
L 440.837139 290.432038 
L 449.267795 290.742554 
L 462.409016 290.983052 
L 485.710735 291.159021 
L 524.999545 291.260548 
L 524.999545 291.260548 
" clip-path="url(#p2a3d97da44)" style="fill: none; stroke: #000000; stroke-width: 3; stroke-linecap: square"/>
   </g>
   <g id="line2d_14">
    <path d="M 152.990455 291.351 
L 153.106707 291.324366 
L 292.777521 291.181573 
L 321.845381 290.958914 
L 332.322087 290.688876 
L 335.353961 290.427135 
L 336.488589 290.129512 
L 337.093104 289.752946 
L 337.493013 289.241175 
L 337.804571 288.460525 
L 338.064977 287.160824 
L 338.292833 284.752807 
L 338.488138 280.00147 
L 338.655542 269.768738 
L 338.808995 244.042503 
L 338.995 191.181227 
L 339.064752 204.873973 
L 339.371659 272.933562 
L 339.618115 283.233517 
L 339.897122 286.851342 
L 340.21798 288.428411 
L 340.585339 289.202189 
L 341.02245 289.621134 
L 341.613014 289.865934 
L 342.538387 289.984547 
L 344.142676 289.940988 
L 346.430532 289.654478 
L 348.41148 289.196182 
L 349.880916 288.638151 
L 351.010894 287.976765 
L 351.926966 287.185073 
L 352.722135 286.200677 
L 353.461504 284.920271 
L 354.228772 283.11806 
L 356.060917 278.54488 
L 356.474777 278.198991 
L 356.897938 278.133697 
L 357.83261 278.308768 
L 358.711482 278.59035 
L 359.209044 279.017249 
L 359.776358 279.83004 
L 360.915636 281.97954 
L 361.868909 283.518798 
L 362.636178 284.354719 
L 363.375546 284.842746 
L 364.128864 285.077626 
L 364.924034 285.092125 
L 365.775004 284.882454 
L 366.681777 284.42561 
L 367.63505 283.690621 
L 368.648775 282.617872 
L 369.783402 281.075596 
L 371.448143 278.378388 
L 373.131484 275.783056 
L 374.015006 274.808783 
L 374.707873 274.353867 
L 375.326338 274.204897 
L 375.944803 274.286217 
L 376.66092 274.617423 
L 377.623494 275.3318 
L 379.264984 276.869828 
L 381.827197 279.579542 
L 384.129003 281.93485 
L 385.482186 282.99713 
L 386.728416 283.697226 
L 387.983947 284.148774 
L 389.351081 284.400442 
L 391.015821 284.469218 
L 397.251624 284.508035 
L 399.767335 284.927394 
L 404.780158 285.79872 
L 408.463048 286.145543 
L 414.057134 286.681197 
L 417.665622 287.283332 
L 430.039575 289.56998 
L 434.805941 290.060979 
L 440.860389 290.448746 
L 449.388698 290.755863 
L 462.748474 290.993145 
L 486.612857 291.166036 
L 524.999545 291.261964 
L 524.999545 291.261964 
" clip-path="url(#p2a3d97da44)" style="fill: none; stroke-dasharray: 11.1,4.8; stroke-dashoffset: 0; stroke: #000000; stroke-width: 3"/>
   </g>
   <g id="line2d_15">
    <path d="M 152.990455 291.351 
L 153.106707 291.322025 
L 290.252509 291.177096 
L 320.17599 290.952015 
L 331.531568 290.67445 
L 335.056354 290.404757 
L 336.330485 290.108729 
L 336.986151 289.742078 
L 337.413961 289.246779 
L 337.739469 288.509021 
L 338.009176 287.303349 
L 338.241682 285.149403 
L 338.446287 280.873097 
L 338.622991 271.637667 
L 338.776445 249.838897 
L 338.995 186.071589 
L 339.078702 205.604637 
L 339.357709 270.799187 
L 339.599515 282.357296 
L 339.878522 286.44145 
L 340.194729 288.172555 
L 340.557438 289.020876 
L 340.985249 289.476483 
L 341.547912 289.740085 
L 342.403533 289.873586 
L 343.859019 289.851766 
L 346.035272 289.590395 
L 348.048771 289.137526 
L 349.564708 288.579011 
L 350.731887 287.917737 
L 351.67586 287.128802 
L 352.48498 286.160235 
L 353.228998 284.911334 
L 353.968366 283.211939 
L 354.926289 280.36938 
L 355.795861 278.021429 
L 356.260872 277.34746 
L 356.656132 277.134858 
L 357.139743 277.147332 
L 358.64173 277.522813 
L 359.120692 277.913684 
L 359.646155 278.657749 
L 360.469225 280.282628 
L 361.710805 282.640478 
L 362.487374 283.638973 
L 363.212792 284.224678 
L 363.93821 284.531716 
L 364.691528 284.610545 
L 365.495998 284.46811 
L 366.356269 284.084719 
L 367.267691 283.428643 
L 368.234915 282.448364 
L 369.28584 281.052275 
L 370.578572 278.934889 
L 373.35934 274.268519 
L 374.17311 273.384695 
L 374.828776 272.977822 
L 375.42399 272.861736 
L 376.033155 272.97441 
L 376.744622 273.345898 
L 377.716496 274.128115 
L 379.385887 275.799748 
L 381.785346 278.516416 
L 384.147603 281.124446 
L 385.472886 282.249311 
L 386.681915 282.990463 
L 387.895595 283.474987 
L 389.192977 283.751147 
L 390.732164 283.842249 
L 393.475731 283.729844 
L 395.907741 283.735871 
L 397.958441 283.972054 
L 400.883362 284.568457 
L 404.48255 285.240254 
L 407.788781 285.604396 
L 414.28034 286.273491 
L 417.740024 286.911015 
L 429.876821 289.376489 
L 434.387431 289.899319 
L 440.009419 290.315806 
L 447.728607 290.64963 
L 459.386442 290.911863 
L 479.144775 291.108486 
L 518.587039 291.243142 
L 524.999545 291.253823 
L 524.999545 291.253823 
" clip-path="url(#p2a3d97da44)" style="fill: none; stroke-dasharray: 3,4.95; stroke-dashoffset: 0; stroke: #000000; stroke-width: 3"/>
   </g>
   <g id="line2d_16">
    <path d="M 152.990455 291.351 
L 153.102057 291.287855 
L 265.486004 291.11651 
L 301.33373 290.864371 
L 318.711204 290.54006 
L 328.169535 290.161265 
L 332.87545 289.776765 
L 334.949401 289.410209 
L 335.995677 289.017659 
L 336.632742 288.550997 
L 337.088453 287.936615 
L 337.451162 287.049168 
L 337.75807 285.65596 
L 338.023126 283.317397 
L 338.255632 279.04866 
L 338.455587 270.755712 
L 338.627641 253.128119 
L 338.781095 210.635253 
L 338.995 92.125769 
L 339.074052 125.737065 
L 339.362359 253.03157 
L 339.608815 274.535702 
L 339.887822 281.977147 
L 340.20403 285.157692 
L 340.557438 286.695149 
L 340.952698 287.504138 
L 341.408409 287.952926 
L 341.980373 288.199409 
L 342.780192 288.286267 
L 343.956671 288.174431 
L 345.491209 287.800582 
L 347.016446 287.20533 
L 348.313828 286.465789 
L 349.401954 285.592414 
L 350.336627 284.555721 
L 351.164347 283.298659 
L 351.917666 281.73776 
L 352.624483 279.741716 
L 353.3127 277.098953 
L 354.028817 273.404716 
L 355.033242 266.835457 
L 355.795861 262.477544 
L 356.228321 261.129484 
L 356.558479 260.715876 
L 356.846786 260.677847 
L 357.255996 260.889901 
L 358.62313 261.956727 
L 359.03234 262.691638 
L 359.502001 264.045151 
L 360.171617 266.758775 
L 361.780557 273.457134 
L 362.510625 275.46928 
L 363.170941 276.679963 
L 363.784756 277.370427 
L 364.36137 277.702794 
L 364.924034 277.776531 
L 365.505298 277.624438 
L 366.137713 277.218858 
L 366.83988 276.490617 
L 367.616449 275.348988 
L 368.47207 273.675596 
L 369.420694 271.306859 
L 370.546021 267.857626 
L 374.005706 256.747931 
L 374.679972 255.547213 
L 375.247286 254.951264 
L 375.763449 254.712079 
L 376.288911 254.71386 
L 376.907376 254.951053 
L 377.744397 255.531582 
L 378.818573 256.55604 
L 379.809047 257.802944 
L 380.74372 259.350678 
L 381.808596 261.577508 
L 385.710042 270.211064 
L 386.714466 271.659289 
L 387.644489 272.627318 
L 388.551261 273.258918 
L 389.476634 273.634216 
L 390.495009 273.802383 
L 391.79704 273.77629 
L 395.149772 273.612192 
L 396.405303 273.841133 
L 397.660834 274.301343 
L 399.13492 275.092616 
L 404.649954 278.29828 
L 406.370496 278.887161 
L 408.323544 279.311918 
L 415.480069 280.633246 
L 417.637722 281.428331 
L 420.325487 282.67438 
L 426.784495 285.755062 
L 429.648965 286.810719 
L 432.625038 287.667184 
L 435.95917 288.389996 
L 439.902466 289.010042 
L 444.785085 289.543381 
L 451.10924 289.999276 
L 459.72125 290.383673 
L 472.160304 290.70002 
L 491.555928 290.950614 
L 524.999545 291.136259 
L 524.999545 291.136259 
" clip-path="url(#p2a3d97da44)" style="fill: none; stroke: #0000ff; stroke-width: 3; stroke-linecap: square"/>
   </g>
   <g id="line2d_17">
    <path d="M 152.990455 291.351 
L 153.102057 291.290852 
L 267.053092 291.121551 
L 302.640412 290.871417 
L 319.724929 290.54949 
L 328.871703 290.175708 
L 333.25676 289.801838 
L 335.158656 289.442347 
L 336.13053 289.050155 
L 336.735045 288.573245 
L 337.167505 287.944685 
L 337.516264 287.023396 
L 337.813871 285.554859 
L 338.074277 283.018248 
L 338.297483 278.429361 
L 338.492788 269.208594 
L 338.660192 249.235705 
L 338.813646 198.856294 
L 338.995 100.834305 
L 339.060102 123.897838 
L 339.380959 257.416964 
L 339.627415 276.030908 
L 339.911072 282.723054 
L 340.23193 285.596793 
L 340.589989 286.99078 
L 340.989899 287.725277 
L 341.45956 288.137344 
L 342.059425 288.359678 
L 342.915046 288.423424 
L 344.179877 288.279796 
L 345.774866 287.872825 
L 347.290803 287.26335 
L 348.564934 286.516776 
L 349.62981 285.63742 
L 350.545882 284.590391 
L 351.355002 283.322763 
L 352.09902 281.730585 
L 352.801187 279.679627 
L 353.489404 276.94938 
L 354.228772 273.037382 
L 356.033016 262.928546 
L 356.405025 262.196241 
L 356.707283 262.024958 
L 357.032791 262.109397 
L 358.051166 262.763224 
L 358.609179 263.26337 
L 359.02769 263.977131 
L 359.497351 265.268172 
L 360.166967 267.857711 
L 361.785207 274.286923 
L 362.515275 276.202095 
L 363.175591 277.353302 
L 363.794056 278.012501 
L 364.37997 278.327668 
L 364.951934 278.389344 
L 365.547149 278.227078 
L 366.193515 277.812302 
L 366.909632 277.07708 
L 367.700151 275.932136 
L 368.569723 274.261422 
L 369.536946 271.895106 
L 370.699475 268.419349 
L 373.847602 258.636095 
L 374.554419 257.324152 
L 375.144983 256.659075 
L 375.675096 256.377637 
L 376.205209 256.34677 
L 376.819024 256.546153 
L 377.637444 257.066422 
L 378.716271 258.02678 
L 379.734646 259.22555 
L 380.678619 260.693702 
L 381.734194 262.777908 
L 385.844895 271.404523 
L 386.844669 272.730243 
L 387.779342 273.615461 
L 388.700065 274.188267 
L 389.653338 274.519881 
L 390.727514 274.65186 
L 392.2016 274.587242 
L 394.870765 274.455444 
L 396.182097 274.641645 
L 397.456229 275.050787 
L 398.911714 275.764124 
L 401.650631 277.425222 
L 403.761783 278.560057 
L 405.514876 279.249268 
L 407.35167 279.72823 
L 409.77438 280.109829 
L 413.86648 280.746395 
L 416.038083 281.340708 
L 418.325939 282.206103 
L 421.562418 283.698565 
L 426.189281 285.798323 
L 429.137453 286.875322 
L 432.141426 287.733153 
L 435.489508 288.452778 
L 439.442105 289.067393 
L 444.334024 289.593799 
L 450.69073 290.042797 
L 459.381792 290.420057 
L 472.020801 290.729427 
L 491.913987 290.973129 
L 524.999545 291.146682 
L 524.999545 291.146682 
" clip-path="url(#p2a3d97da44)" style="fill: none; stroke-dasharray: 11.1,4.8; stroke-dashoffset: 0; stroke: #0000ff; stroke-width: 3"/>
   </g>
   <g id="line2d_18">
    <path d="M 152.990455 291.351 
L 153.102057 291.271408 
L 258.059772 291.089457 
L 294.939823 290.826891 
L 313.61933 290.49059 
L 324.388993 290.091832 
L 330.568994 289.660922 
L 333.67062 289.247028 
L 335.195857 288.840916 
L 336.065428 288.393571 
L 336.642043 287.851618 
L 337.074503 287.133313 
L 337.432562 286.078099 
L 337.739469 284.418843 
L 338.009176 281.593628 
L 338.241682 276.550294 
L 338.446287 266.54179 
L 338.622991 244.931157 
L 338.776445 193.927243 
L 338.995 44.731 
L 339.078702 90.429654 
L 339.357709 242.955829 
L 339.599515 269.992846 
L 339.878522 279.54262 
L 340.194729 283.586111 
L 340.548138 285.529105 
L 340.938747 286.539334 
L 341.375858 287.091488 
L 341.896671 287.395284 
L 342.580238 287.525061 
L 343.542811 287.46641 
L 344.844843 287.154497 
L 346.277078 286.583626 
L 347.57911 285.829824 
L 348.699787 284.927301 
L 349.671661 283.859329 
L 350.536582 282.572714 
L 351.322451 280.992502 
L 352.052519 279.004878 
L 352.745386 276.446339 
L 353.428953 273.028329 
L 354.15437 268.186568 
L 356.102768 254.290754 
L 356.456177 253.507129 
L 356.735184 253.338891 
L 357.028141 253.431781 
L 357.81866 254.044712 
L 358.520827 254.707276 
L 358.916087 255.454071 
L 359.348547 256.804801 
L 359.920511 259.422879 
L 362.143266 270.438911 
L 362.826832 272.379668 
L 363.449948 273.527123 
L 364.021912 274.146395 
L 364.547374 274.407189 
L 365.054237 274.416028 
L 365.58435 274.19651 
L 366.174914 273.697159 
L 366.844531 272.820506 
L 367.593199 271.453833 
L 368.425569 269.447688 
L 369.355592 266.594133 
L 370.453019 262.459315 
L 372.471168 253.738215 
L 373.605796 249.429406 
L 374.359114 247.3668 
L 374.963629 246.302006 
L 375.479792 245.80596 
L 375.949453 245.645962 
L 376.437715 245.718169 
L 377.03293 246.048626 
L 377.842049 246.775188 
L 378.860424 247.99764 
L 379.809047 249.484259 
L 380.71582 251.336998 
L 381.748145 253.990315 
L 385.793744 265.018054 
L 386.760967 266.702263 
L 387.649139 267.822872 
L 388.49546 268.546316 
L 389.33713 268.979569 
L 390.229952 269.187999 
L 391.290178 269.196692 
L 393.219975 268.934213 
L 394.749862 268.84043 
L 395.89379 268.993729 
L 396.986567 269.36807 
L 398.163046 270.015458 
L 399.660382 271.114626 
L 403.738532 274.236929 
L 405.30097 275.072966 
L 406.886659 275.667541 
L 408.746705 276.117166 
L 414.577947 277.351431 
L 416.451943 278.098981 
L 418.497993 279.16373 
L 421.362463 280.934591 
L 425.919574 283.737014 
L 428.556189 285.075621 
L 431.160252 286.147042 
L 433.95032 287.051166 
L 437.093797 287.831066 
L 440.785987 288.51111 
L 445.277997 289.104088 
L 450.955786 289.619364 
L 458.423869 290.062074 
L 468.71922 290.435687 
L 483.762338 290.742307 
L 507.533719 290.983467 
L 524.999545 291.078826 
L 524.999545 291.078826 
" clip-path="url(#p2a3d97da44)" style="fill: none; stroke-dasharray: 3,4.95; stroke-dashoffset: 0; stroke: #0000ff; stroke-width: 3"/>
   </g>
   <g id="patch_3">
    <path d="M 134.39 303.682 
L 134.39 32.4 
" style="fill: none; stroke: #000000; stroke-width: 0.8; stroke-linejoin: miter; stroke-linecap: square"/>
   </g>
   <g id="patch_4">
    <path d="M 543.6 303.682 
L 543.6 32.4 
" style="fill: none; stroke: #000000; stroke-width: 0.8; stroke-linejoin: miter; stroke-linecap: square"/>
   </g>
   <g id="patch_5">
    <path d="M 134.39 303.682 
L 543.6 303.682 
" style="fill: none; stroke: #000000; stroke-width: 0.8; stroke-linejoin: miter; stroke-linecap: square"/>
   </g>
   <g id="patch_6">
    <path d="M 134.39 32.4 
L 543.6 32.4 
" style="fill: none; stroke: #000000; stroke-width: 0.8; stroke-linejoin: miter; stroke-linecap: square"/>
   </g>
   <g id="legend_1">
    <g id="patch_7">
     <path d="M 429.275 186.11 
L 532.4 186.11 
Q 535.6 186.11 535.6 182.91 
L 535.6 43.6 
Q 535.6 40.4 532.4 40.4 
L 429.275 40.4 
Q 426.075 40.4 426.075 43.6 
L 426.075 182.91 
Q 426.075 186.11 429.275 186.11 
z
" style="fill: #ffffff; opacity: 0.8; stroke: #cccccc; stroke-linejoin: miter"/>
    </g>
    <g id="line2d_19">
     <path d="M 432.475 53.3575 
L 448.475 53.3575 
L 464.475 53.3575 
" style="fill: none; stroke: #000000; stroke-width: 3; stroke-linecap: square"/>
    </g>
    <g id="text_5">
     <!-- NL -->
     <g transform="translate(477.275 58.9575) scale(0.16 -0.16)">
      <defs>
       <path id="DejaVuSans-4e" d="M 628 4666 
L 1478 4666 
L 3547 763 
L 3547 4666 
L 4159 4666 
L 4159 0 
L 3309 0 
L 1241 3903 
L 1241 0 
L 628 0 
L 628 4666 
z
" transform="scale(0.015625)"/>
       <path id="DejaVuSans-4c" d="M 628 4666 
L 1259 4666 
L 1259 531 
L 3531 531 
L 3531 0 
L 628 0 
L 628 4666 
z
" transform="scale(0.015625)"/>
      </defs>
      <use xlink:href="#DejaVuSans-4e"/>
      <use xlink:href="#DejaVuSans-4c" transform="translate(74.804688 0)"/>
     </g>
    </g>
    <g id="line2d_20">
     <path d="M 432.475 76.8425 
L 448.475 76.8425 
L 464.475 76.8425 
" style="fill: none; stroke-dasharray: 11.1,4.8; stroke-dashoffset: 0; stroke: #000000; stroke-width: 3"/>
    </g>
    <g id="text_6">
     <!-- LENLO -->
     <g transform="translate(477.275 82.4425) scale(0.16 -0.16)">
      <defs>
       <path id="DejaVuSans-45" d="M 628 4666 
L 3578 4666 
L 3578 4134 
L 1259 4134 
L 1259 2753 
L 3481 2753 
L 3481 2222 
L 1259 2222 
L 1259 531 
L 3634 531 
L 3634 0 
L 628 0 
L 628 4666 
z
" transform="scale(0.015625)"/>
       <path id="DejaVuSans-4f" d="M 2522 4238 
Q 1834 4238 1429 3725 
Q 1025 3213 1025 2328 
Q 1025 1447 1429 934 
Q 1834 422 2522 422 
Q 3209 422 3611 934 
Q 4013 1447 4013 2328 
Q 4013 3213 3611 3725 
Q 3209 4238 2522 4238 
z
M 2522 4750 
Q 3503 4750 4090 4092 
Q 4678 3434 4678 2328 
Q 4678 1225 4090 567 
Q 3503 -91 2522 -91 
Q 1538 -91 948 565 
Q 359 1222 359 2328 
Q 359 3434 948 4092 
Q 1538 4750 2522 4750 
z
" transform="scale(0.015625)"/>
      </defs>
      <use xlink:href="#DejaVuSans-4c"/>
      <use xlink:href="#DejaVuSans-45" transform="translate(55.712891 0)"/>
      <use xlink:href="#DejaVuSans-4e" transform="translate(118.896484 0)"/>
      <use xlink:href="#DejaVuSans-4c" transform="translate(193.701172 0)"/>
      <use xlink:href="#DejaVuSans-4f" transform="translate(245.789062 0)"/>
     </g>
    </g>
    <g id="line2d_21">
     <path d="M 432.475 100.3275 
L 448.475 100.3275 
L 464.475 100.3275 
" style="fill: none; stroke-dasharray: 3,4.95; stroke-dashoffset: 0; stroke: #000000; stroke-width: 3"/>
    </g>
    <g id="text_7">
     <!-- LELO -->
     <g transform="translate(477.275 105.9275) scale(0.16 -0.16)">
      <use xlink:href="#DejaVuSans-4c"/>
      <use xlink:href="#DejaVuSans-45" transform="translate(55.712891 0)"/>
      <use xlink:href="#DejaVuSans-4c" transform="translate(118.896484 0)"/>
      <use xlink:href="#DejaVuSans-4f" transform="translate(170.984375 0)"/>
     </g>
    </g>
    <g id="line2d_22">
     <path d="M 432.475 123.8125 
L 448.475 123.8125 
L 464.475 123.8125 
" style="fill: none; stroke: #0000ff; stroke-width: 3; stroke-linecap: square"/>
    </g>
    <g id="text_8">
     <!-- NL -->
     <g transform="translate(477.275 129.4125) scale(0.16 -0.16)">
      <use xlink:href="#DejaVuSans-4e"/>
      <use xlink:href="#DejaVuSans-4c" transform="translate(74.804688 0)"/>
     </g>
    </g>
    <g id="line2d_23">
     <path d="M 432.475 147.2975 
L 448.475 147.2975 
L 464.475 147.2975 
" style="fill: none; stroke-dasharray: 11.1,4.8; stroke-dashoffset: 0; stroke: #0000ff; stroke-width: 3"/>
    </g>
    <g id="text_9">
     <!-- LENLO -->
     <g transform="translate(477.275 152.8975) scale(0.16 -0.16)">
      <use xlink:href="#DejaVuSans-4c"/>
      <use xlink:href="#DejaVuSans-45" transform="translate(55.712891 0)"/>
      <use xlink:href="#DejaVuSans-4e" transform="translate(118.896484 0)"/>
      <use xlink:href="#DejaVuSans-4c" transform="translate(193.701172 0)"/>
      <use xlink:href="#DejaVuSans-4f" transform="translate(245.789062 0)"/>
     </g>
    </g>
    <g id="line2d_24">
     <path d="M 432.475 170.7825 
L 448.475 170.7825 
L 464.475 170.7825 
" style="fill: none; stroke-dasharray: 3,4.95; stroke-dashoffset: 0; stroke: #0000ff; stroke-width: 3"/>
    </g>
    <g id="text_10">
     <!-- LELO -->
     <g transform="translate(477.275 176.3825) scale(0.16 -0.16)">
      <use xlink:href="#DejaVuSans-4c"/>
      <use xlink:href="#DejaVuSans-45" transform="translate(55.712891 0)"/>
      <use xlink:href="#DejaVuSans-4c" transform="translate(118.896484 0)"/>
      <use xlink:href="#DejaVuSans-4f" transform="translate(170.984375 0)"/>
     </g>
    </g>
   </g>
  </g>
  <g id="axes_2">
   <g id="patch_8">
    <path d="M 134.39 610.864 
L 543.6 610.864 
L 543.6 339.582 
L 134.39 339.582 
L 134.39 610.864 
z
" style="fill: none"/>
   </g>
   <g id="matplotlib.axis_3">
    <g id="xtick_4">
     <g id="line2d_25">
      <path d="M 222.742159 610.864 
L 222.742159 339.582 
" clip-path="url(#p0f0a6c08f6)" style="fill: none; stroke: #b0b0b0; stroke-opacity: 0.2; stroke-width: 0.8; stroke-linecap: square"/>
     </g>
     <g id="line2d_26">
      <g>
       <use xlink:href="#me1b8ce0439" x="222.742159" y="610.864" style="stroke: #000000; stroke-width: 0.8"/>
      </g>
     </g>
     <g id="text_11">
      <!-- −25 -->
      <g transform="translate(193.195597 639.139625) scale(0.28 -0.28)">
       <defs>
        <path id="DejaVuSans-2212" d="M 678 2272 
L 4684 2272 
L 4684 1741 
L 678 1741 
L 678 2272 
z
" transform="scale(0.015625)"/>
        <path id="DejaVuSans-32" d="M 1228 531 
L 3431 531 
L 3431 0 
L 469 0 
L 469 531 
Q 828 903 1448 1529 
Q 2069 2156 2228 2338 
Q 2531 2678 2651 2914 
Q 2772 3150 2772 3378 
Q 2772 3750 2511 3984 
Q 2250 4219 1831 4219 
Q 1534 4219 1204 4116 
Q 875 4013 500 3803 
L 500 4441 
Q 881 4594 1212 4672 
Q 1544 4750 1819 4750 
Q 2544 4750 2975 4387 
Q 3406 4025 3406 3419 
Q 3406 3131 3298 2873 
Q 3191 2616 2906 2266 
Q 2828 2175 2409 1742 
Q 1991 1309 1228 531 
z
" transform="scale(0.015625)"/>
       </defs>
       <use xlink:href="#DejaVuSans-2212"/>
       <use xlink:href="#DejaVuSans-32" transform="translate(83.789062 0)"/>
       <use xlink:href="#DejaVuSans-35" transform="translate(147.412109 0)"/>
      </g>
     </g>
    </g>
    <g id="xtick_5">
     <g id="line2d_27">
      <path d="M 338.995 610.864 
L 338.995 339.582 
" clip-path="url(#p0f0a6c08f6)" style="fill: none; stroke: #b0b0b0; stroke-opacity: 0.2; stroke-width: 0.8; stroke-linecap: square"/>
     </g>
     <g id="line2d_28">
      <g>
       <use xlink:href="#me1b8ce0439" x="338.995" y="610.864" style="stroke: #000000; stroke-width: 0.8"/>
      </g>
     </g>
     <g id="text_12">
      <!-- 0 -->
      <g transform="translate(330.0875 639.139625) scale(0.28 -0.28)">
       <use xlink:href="#DejaVuSans-30"/>
      </g>
     </g>
    </g>
    <g id="xtick_6">
     <g id="line2d_29">
      <path d="M 455.247841 610.864 
L 455.247841 339.582 
" clip-path="url(#p0f0a6c08f6)" style="fill: none; stroke: #b0b0b0; stroke-opacity: 0.2; stroke-width: 0.8; stroke-linecap: square"/>
     </g>
     <g id="line2d_30">
      <g>
       <use xlink:href="#me1b8ce0439" x="455.247841" y="610.864" style="stroke: #000000; stroke-width: 0.8"/>
      </g>
     </g>
     <g id="text_13">
      <!-- 25 -->
      <g transform="translate(437.432841 639.139625) scale(0.28 -0.28)">
       <use xlink:href="#DejaVuSans-32"/>
       <use xlink:href="#DejaVuSans-35" transform="translate(63.623047 0)"/>
      </g>
     </g>
    </g>
    <g id="text_14">
     <!-- $E_{ex}$ (MeV) -->
     <g transform="translate(248.365 677.836812) scale(0.38 -0.38)">
      <defs>
       <path id="DejaVuSans-Oblique-45" d="M 1081 4666 
L 4031 4666 
L 3928 4134 
L 1606 4134 
L 1338 2753 
L 3566 2753 
L 3463 2222 
L 1234 2222 
L 909 531 
L 3284 531 
L 3181 0 
L 172 0 
L 1081 4666 
z
" transform="scale(0.015625)"/>
       <path id="DejaVuSans-Oblique-65" d="M 3078 2063 
Q 3088 2113 3092 2166 
Q 3097 2219 3097 2272 
Q 3097 2653 2873 2875 
Q 2650 3097 2266 3097 
Q 1838 3097 1509 2826 
Q 1181 2556 1013 2059 
L 3078 2063 
z
M 3578 1613 
L 903 1613 
Q 884 1494 878 1425 
Q 872 1356 872 1306 
Q 872 872 1139 634 
Q 1406 397 1894 397 
Q 2269 397 2603 481 
Q 2938 566 3225 728 
L 3116 159 
Q 2806 34 2476 -28 
Q 2147 -91 1806 -91 
Q 1078 -91 686 257 
Q 294 606 294 1247 
Q 294 1794 489 2264 
Q 684 2734 1063 3103 
Q 1306 3334 1642 3459 
Q 1978 3584 2356 3584 
Q 2950 3584 3301 3228 
Q 3653 2872 3653 2272 
Q 3653 2128 3634 1964 
Q 3616 1800 3578 1613 
z
" transform="scale(0.015625)"/>
       <path id="DejaVuSans-Oblique-78" d="M 3841 3500 
L 2234 1784 
L 3219 0 
L 2559 0 
L 1819 1388 
L 531 0 
L -166 0 
L 1556 1844 
L 641 3500 
L 1300 3500 
L 1972 2234 
L 3144 3500 
L 3841 3500 
z
" transform="scale(0.015625)"/>
       <path id="DejaVuSans-28" d="M 1984 4856 
Q 1566 4138 1362 3434 
Q 1159 2731 1159 2009 
Q 1159 1288 1364 580 
Q 1569 -128 1984 -844 
L 1484 -844 
Q 1016 -109 783 600 
Q 550 1309 550 2009 
Q 550 2706 781 3412 
Q 1013 4119 1484 4856 
L 1984 4856 
z
" transform="scale(0.015625)"/>
       <path id="DejaVuSans-4d" d="M 628 4666 
L 1569 4666 
L 2759 1491 
L 3956 4666 
L 4897 4666 
L 4897 0 
L 4281 0 
L 4281 4097 
L 3078 897 
L 2444 897 
L 1241 4097 
L 1241 0 
L 628 0 
L 628 4666 
z
" transform="scale(0.015625)"/>
       <path id="DejaVuSans-65" d="M 3597 1894 
L 3597 1613 
L 953 1613 
Q 991 1019 1311 708 
Q 1631 397 2203 397 
Q 2534 397 2845 478 
Q 3156 559 3463 722 
L 3463 178 
Q 3153 47 2828 -22 
Q 2503 -91 2169 -91 
Q 1331 -91 842 396 
Q 353 884 353 1716 
Q 353 2575 817 3079 
Q 1281 3584 2069 3584 
Q 2775 3584 3186 3129 
Q 3597 2675 3597 1894 
z
M 3022 2063 
Q 3016 2534 2758 2815 
Q 2500 3097 2075 3097 
Q 1594 3097 1305 2825 
Q 1016 2553 972 2059 
L 3022 2063 
z
" transform="scale(0.015625)"/>
       <path id="DejaVuSans-56" d="M 1831 0 
L 50 4666 
L 709 4666 
L 2188 738 
L 3669 4666 
L 4325 4666 
L 2547 0 
L 1831 0 
z
" transform="scale(0.015625)"/>
       <path id="DejaVuSans-29" d="M 513 4856 
L 1013 4856 
Q 1481 4119 1714 3412 
Q 1947 2706 1947 2009 
Q 1947 1309 1714 600 
Q 1481 -109 1013 -844 
L 513 -844 
Q 928 -128 1133 580 
Q 1338 1288 1338 2009 
Q 1338 2731 1133 3434 
Q 928 4138 513 4856 
z
" transform="scale(0.015625)"/>
      </defs>
      <use xlink:href="#DejaVuSans-Oblique-45" transform="translate(0 0.125)"/>
      <use xlink:href="#DejaVuSans-Oblique-65" transform="translate(63.183594 -16.28125) scale(0.7)"/>
      <use xlink:href="#DejaVuSans-Oblique-78" transform="translate(106.25 -16.28125) scale(0.7)"/>
      <use xlink:href="#DejaVuSans-20" transform="translate(150.410156 0.125)"/>
      <use xlink:href="#DejaVuSans-28" transform="translate(182.197266 0.125)"/>
      <use xlink:href="#DejaVuSans-4d" transform="translate(221.210938 0.125)"/>
      <use xlink:href="#DejaVuSans-65" transform="translate(307.490234 0.125)"/>
      <use xlink:href="#DejaVuSans-56" transform="translate(369.013672 0.125)"/>
      <use xlink:href="#DejaVuSans-29" transform="translate(437.421875 0.125)"/>
     </g>
    </g>
   </g>
   <g id="matplotlib.axis_4">
    <g id="ytick_4">
     <g id="line2d_31">
      <path d="M 134.39 560.802885 
L 543.6 560.802885 
" clip-path="url(#p0f0a6c08f6)" style="fill: none; stroke: #b0b0b0; stroke-opacity: 0.2; stroke-width: 0.8; stroke-linecap: square"/>
     </g>
     <g id="line2d_32">
      <g>
       <use xlink:href="#m1d4f8aedda" x="134.39" y="560.802885" style="stroke: #000000; stroke-width: 0.8"/>
      </g>
     </g>
     <g id="text_15">
      <!-- 1.0 -->
      <g transform="translate(82.86125 571.440698) scale(0.28 -0.28)">
       <defs>
        <path id="DejaVuSans-2e" d="M 684 794 
L 1344 794 
L 1344 0 
L 684 0 
L 684 794 
z
" transform="scale(0.015625)"/>
       </defs>
       <use xlink:href="#DejaVuSans-31"/>
       <use xlink:href="#DejaVuSans-2e" transform="translate(63.623047 0)"/>
       <use xlink:href="#DejaVuSans-30" transform="translate(95.410156 0)"/>
      </g>
     </g>
    </g>
    <g id="ytick_5">
     <g id="line2d_33">
      <path d="M 134.39 485.457825 
L 543.6 485.457825 
" clip-path="url(#p0f0a6c08f6)" style="fill: none; stroke: #b0b0b0; stroke-opacity: 0.2; stroke-width: 0.8; stroke-linecap: square"/>
     </g>
     <g id="line2d_34">
      <g>
       <use xlink:href="#m1d4f8aedda" x="134.39" y="485.457825" style="stroke: #000000; stroke-width: 0.8"/>
      </g>
     </g>
     <g id="text_16">
      <!-- 1.1 -->
      <g transform="translate(82.86125 496.095637) scale(0.28 -0.28)">
       <use xlink:href="#DejaVuSans-31"/>
       <use xlink:href="#DejaVuSans-2e" transform="translate(63.623047 0)"/>
       <use xlink:href="#DejaVuSans-31" transform="translate(95.410156 0)"/>
      </g>
     </g>
    </g>
    <g id="ytick_6">
     <g id="line2d_35">
      <path d="M 134.39 410.112764 
L 543.6 410.112764 
" clip-path="url(#p0f0a6c08f6)" style="fill: none; stroke: #b0b0b0; stroke-opacity: 0.2; stroke-width: 0.8; stroke-linecap: square"/>
     </g>
     <g id="line2d_36">
      <g>
       <use xlink:href="#m1d4f8aedda" x="134.39" y="410.112764" style="stroke: #000000; stroke-width: 0.8"/>
      </g>
     </g>
     <g id="text_17">
      <!-- 1.2 -->
      <g transform="translate(82.86125 420.750576) scale(0.28 -0.28)">
       <use xlink:href="#DejaVuSans-31"/>
       <use xlink:href="#DejaVuSans-2e" transform="translate(63.623047 0)"/>
       <use xlink:href="#DejaVuSans-32" transform="translate(95.410156 0)"/>
      </g>
     </g>
    </g>
    <g id="text_18">
     <!-- $\sigma_{LE}/\sigma_{NL}$ -->
     <g transform="translate(70.958438 540.013) rotate(-90) scale(0.38 -0.38)">
      <defs>
       <path id="DejaVuSans-Oblique-4c" d="M 1075 4666 
L 1709 4666 
L 909 525 
L 3181 525 
L 3078 0 
L 172 0 
L 1075 4666 
z
" transform="scale(0.015625)"/>
       <path id="DejaVuSans-2f" d="M 1625 4666 
L 2156 4666 
L 531 -594 
L 0 -594 
L 1625 4666 
z
" transform="scale(0.015625)"/>
       <path id="DejaVuSans-Oblique-4e" d="M 1081 4666 
L 1931 4666 
L 3219 666 
L 4000 4666 
L 4616 4666 
L 3706 0 
L 2853 0 
L 1569 4025 
L 788 0 
L 172 0 
L 1081 4666 
z
" transform="scale(0.015625)"/>
      </defs>
      <use xlink:href="#DejaVuSans-Oblique-3c3" transform="translate(0 0.09375)"/>
      <use xlink:href="#DejaVuSans-Oblique-4c" transform="translate(63.378906 -16.3125) scale(0.7)"/>
      <use xlink:href="#DejaVuSans-Oblique-45" transform="translate(102.37793 -16.3125) scale(0.7)"/>
      <use xlink:href="#DejaVuSans-2f" transform="translate(149.34082 0.09375)"/>
      <use xlink:href="#DejaVuSans-Oblique-3c3" transform="translate(183.032227 0.09375)"/>
      <use xlink:href="#DejaVuSans-Oblique-4e" transform="translate(246.411133 -16.3125) scale(0.7)"/>
      <use xlink:href="#DejaVuSans-Oblique-4c" transform="translate(298.774414 -16.3125) scale(0.7)"/>
     </g>
    </g>
   </g>
   <g id="line2d_37">
    <path d="M 152.995105 571.541518 
L 245.188258 571.269323 
L 288.592418 570.940761 
L 311.094318 570.569455 
L 322.524297 570.182061 
L 328.169535 569.791166 
L 331.192109 569.37778 
L 333.028904 568.916412 
L 334.275135 568.383834 
L 335.205157 567.748585 
L 335.958476 566.963024 
L 336.623442 565.938372 
L 337.269808 564.510895 
L 338.153329 561.917544 
L 338.715993 560.594314 
L 338.995 560.393225 
L 339.199605 560.50722 
L 339.460011 560.959128 
L 339.897122 562.252208 
L 341.05965 565.795194 
L 341.692066 566.959694 
L 342.343082 567.708607 
L 343.0685 568.206105 
L 343.947371 568.531943 
L 345.095949 568.708242 
L 346.667687 568.71142 
L 348.718388 568.485752 
L 350.936492 568.019591 
L 353.410352 567.257568 
L 354.94489 566.872614 
L 355.716809 566.904824 
L 356.377125 567.158805 
L 357.130443 567.70715 
L 359.348547 569.471488 
L 360.232069 569.822821 
L 361.115591 569.930643 
L 362.343221 569.830004 
L 369.383493 568.962084 
L 372.54092 568.821105 
L 374.945029 568.921915 
L 376.707422 569.215891 
L 378.725571 569.797699 
L 382.534014 570.9236 
L 385.356633 571.454518 
L 395.498531 573.011998 
L 398.609457 573.224378 
L 402.152843 573.223262 
L 407.802731 573.224108 
L 412.708601 573.506688 
L 420.172034 573.914125 
L 425.468513 573.952852 
L 434.206077 573.750723 
L 456.768428 573.216071 
L 481.762789 572.886398 
L 520.935346 572.613054 
L 524.999545 572.593491 
L 524.999545 572.593491 
" clip-path="url(#p0f0a6c08f6)" style="fill: none; stroke-dasharray: 11.1,4.8; stroke-dashoffset: 0; stroke: #000000; stroke-width: 3"/>
   </g>
   <g id="line2d_38">
    <path d="M 152.995105 506.260511 
L 234.744102 506.570164 
L 277.962259 506.937131 
L 302.784565 507.352187 
L 316.953461 507.791437 
L 324.556397 508.227665 
L 328.676398 508.667331 
L 331.127008 509.137073 
L 332.735947 509.659592 
L 333.893825 510.261611 
L 334.791297 510.976424 
L 335.535315 511.856417 
L 336.190981 512.98474 
L 336.809447 514.510703 
L 337.451162 516.730075 
L 338.846196 521.855269 
L 339.055451 521.924306 
L 339.236806 521.710483 
L 339.501862 520.978726 
L 339.971524 518.889586 
L 341.013149 514.274357 
L 341.640915 512.523019 
L 342.26403 511.408029 
L 342.928996 510.658498 
L 343.682315 510.14233 
L 344.598387 509.790731 
L 345.793466 509.581804 
L 347.439606 509.533466 
L 349.671661 509.700265 
L 352.322226 510.124189 
L 355.233197 510.583008 
L 356.102768 510.464854 
L 356.939789 510.11565 
L 359.627554 508.797325 
L 360.538976 508.697617 
L 361.534101 508.823303 
L 363.040738 509.268656 
L 368.746427 511.098736 
L 370.364667 511.354017 
L 371.773651 511.348288 
L 373.684848 511.090518 
L 375.484442 510.659106 
L 376.712072 510.132609 
L 378.009453 509.319575 
L 381.994601 506.631583 
L 383.403585 506.082161 
L 385.193879 505.63999 
L 393.131623 504.158216 
L 396.186748 503.742666 
L 398.432752 503.660842 
L 400.813611 503.806784 
L 406.94246 504.301339 
L 409.518623 504.189955 
L 412.927157 503.79887 
L 419.944178 502.956107 
L 423.585217 502.788473 
L 428.016775 502.822547 
L 436.628786 503.164673 
L 452.932084 503.765695 
L 470.974525 504.183559 
L 496.745455 504.541524 
L 524.999545 504.779152 
L 524.999545 504.779152 
" clip-path="url(#p0f0a6c08f6)" style="fill: none; stroke-dasharray: 3,4.95; stroke-dashoffset: 0; stroke: #000000; stroke-width: 3"/>
   </g>
   <g id="line2d_39">
    <path d="M 152.995105 596.553372 
L 258.329479 596.307367 
L 303.500683 596.003198 
L 324.974907 595.661397 
L 332.8522 595.351781 
L 335.498115 595.053778 
L 336.851298 594.692163 
L 337.911524 594.17188 
L 338.864797 593.746472 
L 339.329808 593.795548 
L 339.966874 594.125989 
L 341.087551 594.677939 
L 342.105926 594.899605 
L 343.654414 594.984821 
L 346.477033 594.888771 
L 350.499381 594.532068 
L 355.963265 594.002145 
L 357.051391 594.243154 
L 360.125116 595.075066 
L 361.524801 595.13732 
L 364.398571 594.971496 
L 373.280288 594.474209 
L 375.600695 594.605905 
L 382.901373 595.413751 
L 386.793518 596.061191 
L 394.2523 597.388533 
L 397.693384 597.726187 
L 401.19492 597.836444 
L 411.281016 598.012275 
L 424.245533 598.532596 
L 431.350907 598.437476 
L 464.352763 597.79766 
L 495.31322 597.522151 
L 524.999545 597.375649 
L 524.999545 597.375649 
" clip-path="url(#p0f0a6c08f6)" style="fill: none; stroke-dasharray: 11.1,4.8; stroke-dashoffset: 0; stroke: #0000ff; stroke-width: 3"/>
   </g>
   <g id="line2d_40">
    <path d="M 152.995105 364.551069 
L 202.774571 365.071515 
L 237.855028 365.649129 
L 263.453904 366.282418 
L 282.621672 366.969103 
L 297.227679 367.705336 
L 308.453054 368.484396 
L 317.037163 369.293162 
L 323.42642 370.10716 
L 327.923079 370.890633 
L 330.903802 371.620865 
L 332.85685 372.314276 
L 334.200733 373.016989 
L 335.191207 373.780252 
L 335.981726 374.671657 
L 336.660643 375.780199 
L 337.307009 377.281747 
L 338.153329 379.906618 
L 338.720643 381.34734 
L 338.995 381.560441 
L 339.190305 381.448431 
L 339.446061 380.991358 
L 339.906422 379.609015 
L 340.831795 376.896202 
L 341.413059 375.879559 
L 341.989673 375.298282 
L 342.612788 374.980154 
L 343.352156 374.857434 
L 344.30078 374.936247 
L 345.565611 375.277171 
L 347.17455 375.950186 
L 348.978794 376.948822 
L 350.85279 378.243852 
L 353.563806 380.44147 
L 354.717034 381.20132 
L 355.409901 381.409724 
L 355.972565 381.353213 
L 356.535229 381.063465 
L 357.255996 380.412771 
L 360.106516 377.596331 
L 361.296945 376.810035 
L 363.008187 375.976257 
L 364.645027 375.400567 
L 366.058661 375.137912 
L 367.565298 375.090122 
L 369.504396 375.268129 
L 372.861778 375.600501 
L 374.16846 375.461633 
L 375.8146 375.036193 
L 379.264984 374.131846 
L 380.850673 373.591052 
L 382.148055 372.908162 
L 383.431486 371.975809 
L 384.784669 370.709581 
L 386.351757 368.921589 
L 389.197627 365.247264 
L 391.36923 362.640925 
L 393.085122 360.924125 
L 394.721962 359.594541 
L 396.321601 358.576416 
L 397.91194 357.825087 
L 399.609231 357.27198 
L 401.738983 356.827182 
L 407.644628 355.710884 
L 411.090362 354.725621 
L 418.665397 352.487164 
L 421.046255 352.083869 
L 423.352711 351.920716 
L 425.882373 351.971182 
L 429.044451 352.269687 
L 434.187476 353.011355 
L 446.077817 354.749093 
L 454.424771 355.710992 
L 463.831951 356.564998 
L 474.968973 357.345587 
L 488.510104 358.063798 
L 505.334215 358.72469 
L 524.999545 359.290054 
L 524.999545 359.290054 
" clip-path="url(#p0f0a6c08f6)" style="fill: none; stroke-dasharray: 3,4.95; stroke-dashoffset: 0; stroke: #0000ff; stroke-width: 3"/>
   </g>
   <g id="line2d_41">
    <path d="M 134.39 560.802885 
L 543.6 560.802885 
" clip-path="url(#p0f0a6c08f6)" style="fill: none; stroke: #000000; stroke-opacity: 0.25; stroke-width: 1.5; stroke-linecap: square"/>
   </g>
   <g id="patch_9">
    <path d="M 134.39 610.864 
L 134.39 339.582 
" style="fill: none; stroke: #000000; stroke-width: 0.8; stroke-linejoin: miter; stroke-linecap: square"/>
   </g>
   <g id="patch_10">
    <path d="M 543.6 610.864 
L 543.6 339.582 
" style="fill: none; stroke: #000000; stroke-width: 0.8; stroke-linejoin: miter; stroke-linecap: square"/>
   </g>
   <g id="patch_11">
    <path d="M 134.39 610.864 
L 543.6 610.864 
" style="fill: none; stroke: #000000; stroke-width: 0.8; stroke-linejoin: miter; stroke-linecap: square"/>
   </g>
   <g id="patch_12">
    <path d="M 134.39 339.582 
L 543.6 339.582 
" style="fill: none; stroke: #000000; stroke-width: 0.8; stroke-linejoin: miter; stroke-linecap: square"/>
   </g>
   <g id="legend_2">
    <g id="patch_13">
     <path d="M 145.59 446.322 
L 248.715 446.322 
Q 251.915 446.322 251.915 443.122 
L 251.915 350.782 
Q 251.915 347.582 248.715 347.582 
L 145.59 347.582 
Q 142.39 347.582 142.39 350.782 
L 142.39 443.122 
Q 142.39 446.322 145.59 446.322 
z
" style="fill: #ffffff; opacity: 0.8; stroke: #cccccc; stroke-linejoin: miter"/>
    </g>
    <g id="line2d_42">
     <path d="M 148.79 360.5395 
L 164.79 360.5395 
L 180.79 360.5395 
" style="fill: none; stroke-dasharray: 11.1,4.8; stroke-dashoffset: 0; stroke: #000000; stroke-width: 3"/>
    </g>
    <g id="text_19">
     <!-- LENLO -->
     <g transform="translate(193.59 366.1395) scale(0.16 -0.16)">
      <use xlink:href="#DejaVuSans-4c"/>
      <use xlink:href="#DejaVuSans-45" transform="translate(55.712891 0)"/>
      <use xlink:href="#DejaVuSans-4e" transform="translate(118.896484 0)"/>
      <use xlink:href="#DejaVuSans-4c" transform="translate(193.701172 0)"/>
      <use xlink:href="#DejaVuSans-4f" transform="translate(245.789062 0)"/>
     </g>
    </g>
    <g id="line2d_43">
     <path d="M 148.79 384.0245 
L 164.79 384.0245 
L 180.79 384.0245 
" style="fill: none; stroke-dasharray: 3,4.95; stroke-dashoffset: 0; stroke: #000000; stroke-width: 3"/>
    </g>
    <g id="text_20">
     <!-- LELO -->
     <g transform="translate(193.59 389.6245) scale(0.16 -0.16)">
      <use xlink:href="#DejaVuSans-4c"/>
      <use xlink:href="#DejaVuSans-45" transform="translate(55.712891 0)"/>
      <use xlink:href="#DejaVuSans-4c" transform="translate(118.896484 0)"/>
      <use xlink:href="#DejaVuSans-4f" transform="translate(170.984375 0)"/>
     </g>
    </g>
    <g id="line2d_44">
     <path d="M 148.79 407.5095 
L 164.79 407.5095 
L 180.79 407.5095 
" style="fill: none; stroke-dasharray: 11.1,4.8; stroke-dashoffset: 0; stroke: #0000ff; stroke-width: 3"/>
    </g>
    <g id="text_21">
     <!-- LENLO -->
     <g transform="translate(193.59 413.1095) scale(0.16 -0.16)">
      <use xlink:href="#DejaVuSans-4c"/>
      <use xlink:href="#DejaVuSans-45" transform="translate(55.712891 0)"/>
      <use xlink:href="#DejaVuSans-4e" transform="translate(118.896484 0)"/>
      <use xlink:href="#DejaVuSans-4c" transform="translate(193.701172 0)"/>
      <use xlink:href="#DejaVuSans-4f" transform="translate(245.789062 0)"/>
     </g>
    </g>
    <g id="line2d_45">
     <path d="M 148.79 430.9945 
L 164.79 430.9945 
L 180.79 430.9945 
" style="fill: none; stroke-dasharray: 3,4.95; stroke-dashoffset: 0; stroke: #0000ff; stroke-width: 3"/>
    </g>
    <g id="text_22">
     <!-- LELO -->
     <g transform="translate(193.59 436.5945) scale(0.16 -0.16)">
      <use xlink:href="#DejaVuSans-4c"/>
      <use xlink:href="#DejaVuSans-45" transform="translate(55.712891 0)"/>
      <use xlink:href="#DejaVuSans-4c" transform="translate(118.896484 0)"/>
      <use xlink:href="#DejaVuSans-4f" transform="translate(170.984375 0)"/>
     </g>
    </g>
   </g>
  </g>
 </g>
 <defs>
  <clipPath id="p2a3d97da44">
   <rect x="134.39" y="32.4" width="409.21" height="271.282"/>
  </clipPath>
  <clipPath id="p0f0a6c08f6">
   <rect x="134.39" y="339.582" width="409.21" height="271.282"/>
  </clipPath>
 </defs>
</svg>
