<?xml version="1.0" encoding="utf-8" standalone="no"?>
<!DOCTYPE svg PUBLIC "-//W3C//DTD SVG 1.1//EN"
  "http://www.w3.org/Graphics/SVG/1.1/DTD/svg11.dtd">
<svg xmlns:xlink="http://www.w3.org/1999/xlink" width="576pt" height="720pt" viewBox="0 0 576 720" xmlns="http://www.w3.org/2000/svg" version="1.1">
 <metadata>
  <rdf:RDF xmlns:dc="http://purl.org/dc/elements/1.1/" xmlns:cc="http://creativecommons.org/ns#" xmlns:rdf="http://www.w3.org/1999/02/22-rdf-syntax-ns#">
   <cc:Work>
    <dc:type rdf:resource="http://purl.org/dc/dcmitype/StillImage"/>
    <dc:date>2026-03-23T16:54:14.989252</dc:date>
    <dc:format>image/svg+xml</dc:format>
    <dc:creator>
     <cc:Agent>
      <dc:title>Matplotlib v3.10.8, https://matplotlib.org/</dc:title>
     </cc:Agent>
    </dc:creator>
   </cc:Work>
  </rdf:RDF>
 </metadata>
 <defs>
  <style type="text/css">*{stroke-linejoin: round; stroke-linecap: butt}</style>
 </defs>
 <g id="figure_1">
  <g id="patch_1">
   <path d="M 0 720 
L 576 720 
L 576 0 
L 0 0 
L 0 720 
z
" style="fill: none"/>
  </g>
  <g id="axes_1">
   <g id="patch_2">
    <path d="M 134.39 303.682 
L 543.6 303.682 
L 543.6 32.4 
L 134.39 32.4 
L 134.39 303.682 
z
" style="fill: none"/>
   </g>
   <g id="matplotlib.axis_1">
    <g id="xtick_1">
     <g id="line2d_1">
      <path d="M 222.742159 303.682 
L 222.742159 32.4 
" clip-path="url(#p6f38d90969)" style="fill: none; stroke: #b0b0b0; stroke-opacity: 0.2; stroke-width: 0.8; stroke-linecap: square"/>
     </g>
     <g id="line2d_2">
      <defs>
       <path id="mc59c428acd" d="M 0 0 
L 0 3.5 
" style="stroke: #000000; stroke-width: 0.8"/>
      </defs>
      <g>
       <use xlink:href="#mc59c428acd" x="222.742159" y="303.682" style="stroke: #000000; stroke-width: 0.8"/>
      </g>
     </g>
    </g>
    <g id="xtick_2">
     <g id="line2d_3">
      <path d="M 338.995 303.682 
L 338.995 32.4 
" clip-path="url(#p6f38d90969)" style="fill: none; stroke: #b0b0b0; stroke-opacity: 0.2; stroke-width: 0.8; stroke-linecap: square"/>
     </g>
     <g id="line2d_4">
      <g>
       <use xlink:href="#mc59c428acd" x="338.995" y="303.682" style="stroke: #000000; stroke-width: 0.8"/>
      </g>
     </g>
    </g>
    <g id="xtick_3">
     <g id="line2d_5">
      <path d="M 455.247841 303.682 
L 455.247841 32.4 
" clip-path="url(#p6f38d90969)" style="fill: none; stroke: #b0b0b0; stroke-opacity: 0.2; stroke-width: 0.8; stroke-linecap: square"/>
     </g>
     <g id="line2d_6">
      <g>
       <use xlink:href="#mc59c428acd" x="455.247841" y="303.682" style="stroke: #000000; stroke-width: 0.8"/>
      </g>
     </g>
    </g>
   </g>
   <g id="matplotlib.axis_2">
    <g id="ytick_1">
     <g id="line2d_7">
      <path d="M 134.39 291.351 
L 543.6 291.351 
" clip-path="url(#p6f38d90969)" style="fill: none; stroke: #b0b0b0; stroke-opacity: 0.2; stroke-width: 0.8; stroke-linecap: square"/>
     </g>
     <g id="line2d_8">
      <defs>
       <path id="m5458297238" d="M 0 0 
L -3.5 0 
" style="stroke: #000000; stroke-width: 0.8"/>
      </defs>
      <g>
       <use xlink:href="#m5458297238" x="134.39" y="291.351" style="stroke: #000000; stroke-width: 0.8"/>
      </g>
     </g>
     <g id="text_1">
      <!-- 0 -->
      <g transform="translate(109.575 301.988812) scale(0.28 -0.28)">
       <defs>
        <path id="DejaVuSans-30" d="M 2034 4250 
Q 1547 4250 1301 3770 
Q 1056 3291 1056 2328 
Q 1056 1369 1301 889 
Q 1547 409 2034 409 
Q 2525 409 2770 889 
Q 3016 1369 3016 2328 
Q 3016 3291 2770 3770 
Q 2525 4250 2034 4250 
z
M 2034 4750 
Q 2819 4750 3233 4129 
Q 3647 3509 3647 2328 
Q 3647 1150 3233 529 
Q 2819 -91 2034 -91 
Q 1250 -91 836 529 
Q 422 1150 422 2328 
Q 422 3509 836 4129 
Q 1250 4750 2034 4750 
z
" transform="scale(0.015625)"/>
       </defs>
       <use xlink:href="#DejaVuSans-30"/>
      </g>
     </g>
    </g>
    <g id="ytick_2">
     <g id="line2d_9">
      <path d="M 134.39 187.616567 
L 543.6 187.616567 
" clip-path="url(#p6f38d90969)" style="fill: none; stroke: #b0b0b0; stroke-opacity: 0.2; stroke-width: 0.8; stroke-linecap: square"/>
     </g>
     <g id="line2d_10">
      <g>
       <use xlink:href="#m5458297238" x="134.39" y="187.616567" style="stroke: #000000; stroke-width: 0.8"/>
      </g>
     </g>
     <g id="text_2">
      <!-- 50 -->
      <g transform="translate(91.76 198.254379) scale(0.28 -0.28)">
       <defs>
        <path id="DejaVuSans-35" d="M 691 4666 
L 3169 4666 
L 3169 4134 
L 1269 4134 
L 1269 2991 
Q 1406 3038 1543 3061 
Q 1681 3084 1819 3084 
Q 2600 3084 3056 2656 
Q 3513 2228 3513 1497 
Q 3513 744 3044 326 
Q 2575 -91 1722 -91 
Q 1428 -91 1123 -41 
Q 819 9 494 109 
L 494 744 
Q 775 591 1075 516 
Q 1375 441 1709 441 
Q 2250 441 2565 725 
Q 2881 1009 2881 1497 
Q 2881 1984 2565 2268 
Q 2250 2553 1709 2553 
Q 1456 2553 1204 2497 
Q 953 2441 691 2322 
L 691 4666 
z
" transform="scale(0.015625)"/>
       </defs>
       <use xlink:href="#DejaVuSans-35"/>
       <use xlink:href="#DejaVuSans-30" transform="translate(63.623047 0)"/>
      </g>
     </g>
    </g>
    <g id="ytick_3">
     <g id="line2d_11">
      <path d="M 134.39 83.882134 
L 543.6 83.882134 
" clip-path="url(#p6f38d90969)" style="fill: none; stroke: #b0b0b0; stroke-opacity: 0.2; stroke-width: 0.8; stroke-linecap: square"/>
     </g>
     <g id="line2d_12">
      <g>
       <use xlink:href="#m5458297238" x="134.39" y="83.882134" style="stroke: #000000; stroke-width: 0.8"/>
      </g>
     </g>
     <g id="text_3">
      <!-- 100 -->
      <g transform="translate(73.945 94.519946) scale(0.28 -0.28)">
       <defs>
        <path id="DejaVuSans-31" d="M 794 531 
L 1825 531 
L 1825 4091 
L 703 3866 
L 703 4441 
L 1819 4666 
L 2450 4666 
L 2450 531 
L 3481 531 
L 3481 0 
L 794 0 
L 794 531 
z
" transform="scale(0.015625)"/>
       </defs>
       <use xlink:href="#DejaVuSans-31"/>
       <use xlink:href="#DejaVuSans-30" transform="translate(63.623047 0)"/>
       <use xlink:href="#DejaVuSans-30" transform="translate(127.246094 0)"/>
      </g>
     </g>
    </g>
    <g id="text_4">
     <!-- $\sigma$ [mb] -->
     <g transform="translate(62.042188 231.691) rotate(-90) scale(0.38 -0.38)">
      <defs>
       <path id="DejaVuSans-Oblique-3c3" d="M 2219 3044 
Q 1744 3044 1422 2700 
Q 1081 2341 969 1747 
Q 844 1119 1044 756 
Q 1241 397 1706 397 
Q 2166 397 2503 759 
Q 2844 1122 2966 1747 
Q 3075 2319 2881 2700 
Q 2700 3044 2219 3044 
z
M 2309 3503 
L 4219 3500 
L 4106 2925 
L 3463 2925 
Q 3706 2438 3575 1747 
Q 3406 888 2884 400 
Q 2359 -91 1609 -91 
Q 856 -91 525 400 
Q 194 888 363 1747 
Q 528 2609 1050 3097 
Q 1484 3503 2309 3503 
z
" transform="scale(0.015625)"/>
       <path id="DejaVuSans-20" transform="scale(0.015625)"/>
       <path id="DejaVuSans-5b" d="M 550 4863 
L 1875 4863 
L 1875 4416 
L 1125 4416 
L 1125 -397 
L 1875 -397 
L 1875 -844 
L 550 -844 
L 550 4863 
z
" transform="scale(0.015625)"/>
       <path id="DejaVuSans-6d" d="M 3328 2828 
Q 3544 3216 3844 3400 
Q 4144 3584 4550 3584 
Q 5097 3584 5394 3201 
Q 5691 2819 5691 2113 
L 5691 0 
L 5113 0 
L 5113 2094 
Q 5113 2597 4934 2840 
Q 4756 3084 4391 3084 
Q 3944 3084 3684 2787 
Q 3425 2491 3425 1978 
L 3425 0 
L 2847 0 
L 2847 2094 
Q 2847 2600 2669 2842 
Q 2491 3084 2119 3084 
Q 1678 3084 1418 2786 
Q 1159 2488 1159 1978 
L 1159 0 
L 581 0 
L 581 3500 
L 1159 3500 
L 1159 2956 
Q 1356 3278 1631 3431 
Q 1906 3584 2284 3584 
Q 2666 3584 2933 3390 
Q 3200 3197 3328 2828 
z
" transform="scale(0.015625)"/>
       <path id="DejaVuSans-62" d="M 3116 1747 
Q 3116 2381 2855 2742 
Q 2594 3103 2138 3103 
Q 1681 3103 1420 2742 
Q 1159 2381 1159 1747 
Q 1159 1113 1420 752 
Q 1681 391 2138 391 
Q 2594 391 2855 752 
Q 3116 1113 3116 1747 
z
M 1159 2969 
Q 1341 3281 1617 3432 
Q 1894 3584 2278 3584 
Q 2916 3584 3314 3078 
Q 3713 2572 3713 1747 
Q 3713 922 3314 415 
Q 2916 -91 2278 -91 
Q 1894 -91 1617 61 
Q 1341 213 1159 525 
L 1159 0 
L 581 0 
L 581 4863 
L 1159 4863 
L 1159 2969 
z
" transform="scale(0.015625)"/>
       <path id="DejaVuSans-5d" d="M 1947 4863 
L 1947 -844 
L 622 -844 
L 622 -397 
L 1369 -397 
L 1369 4416 
L 622 4416 
L 622 4863 
L 1947 4863 
z
" transform="scale(0.015625)"/>
      </defs>
      <use xlink:href="#DejaVuSans-Oblique-3c3" transform="translate(0 0.015625)"/>
      <use xlink:href="#DejaVuSans-20" transform="translate(63.378906 0.015625)"/>
      <use xlink:href="#DejaVuSans-5b" transform="translate(95.166016 0.015625)"/>
      <use xlink:href="#DejaVuSans-6d" transform="translate(134.179688 0.015625)"/>
      <use xlink:href="#DejaVuSans-62" transform="translate(231.591797 0.015625)"/>
      <use xlink:href="#DejaVuSans-5d" transform="translate(295.068359 0.015625)"/>
     </g>
    </g>
   </g>
   <g id="line2d_13">
    <path d="M 152.990455 291.351 
L 153.106707 291.321001 
L 289.103931 291.175154 
L 319.34827 290.949048 
L 331.052606 290.668418 
L 334.837798 290.393449 
L 336.195632 290.098072 
L 336.888499 289.736005 
L 337.334909 289.254546 
L 337.674368 288.541867 
L 337.953375 287.39654 
L 338.19518 285.361658 
L 338.404436 281.464918 
L 338.58579 273.255574 
L 338.743894 254.094781 
L 338.911298 199.711223 
L 338.995 178.815755 
L 339.046151 187.650969 
L 339.41816 274.152247 
L 339.669266 283.335596 
L 339.957574 286.763965 
L 340.283081 288.276925 
L 340.655091 289.038379 
L 341.101501 289.460007 
L 341.696716 289.704058 
L 342.617439 289.818397 
L 344.170576 289.763849 
L 346.332879 289.463666 
L 348.244076 288.985888 
L 349.690261 288.403569 
L 350.810939 287.717996 
L 351.731661 286.894186 
L 352.526831 285.880523 
L 353.261549 284.572847 
L 354.000917 282.77693 
L 354.991391 279.690674 
L 355.805161 277.436324 
L 356.260872 276.75672 
L 356.646831 276.542311 
L 357.111843 276.556162 
L 358.595229 276.952946 
L 359.074191 277.339005 
L 359.590353 278.070793 
L 360.352972 279.603407 
L 361.715455 282.308921 
L 362.482724 283.329411 
L 363.203492 283.933039 
L 363.919609 284.24897 
L 364.658977 284.332931 
L 365.444846 284.195213 
L 366.286517 283.81631 
L 367.179339 283.164094 
L 368.127962 282.186408 
L 369.160287 280.787799 
L 370.401867 278.702122 
L 373.475593 273.356291 
L 374.256812 272.522788 
L 374.893877 272.148843 
L 375.470491 272.059963 
L 376.065706 272.197109 
L 376.772523 272.60364 
L 377.744397 273.445946 
L 379.432388 275.248896 
L 382.008551 278.331084 
L 384.115053 280.741523 
L 385.426385 281.906924 
L 386.626114 282.682082 
L 387.821193 283.191178 
L 389.090674 283.488559 
L 390.578711 283.60011 
L 392.940968 283.517123 
L 395.661285 283.488034 
L 397.679434 283.700773 
L 400.288148 284.224922 
L 404.384898 285.031367 
L 407.630677 285.405825 
L 414.28499 286.116882 
L 417.702823 286.768675 
L 429.788469 289.304974 
L 434.215377 289.838991 
L 439.697861 290.265593 
L 447.161293 290.608879 
L 458.307616 290.880217 
L 476.88017 291.08548 
L 512.979002 291.22838 
L 524.999545 291.250632 
L 524.999545 291.250632 
" clip-path="url(#p6f38d90969)" style="fill: none; stroke: #000000; stroke-width: 3; stroke-linecap: square"/>
   </g>
   <g id="line2d_14">
    <path d="M 152.990455 291.351 
L 153.106707 291.321423 
L 289.513141 291.17594 
L 319.613326 290.950229 
L 331.178159 290.670668 
L 334.874999 290.397497 
L 336.214232 290.101152 
L 336.902449 289.735224 
L 337.34421 289.25061 
L 337.679018 288.538522 
L 337.958025 287.37983 
L 338.199831 285.314597 
L 338.409086 281.34285 
L 338.59044 272.928566 
L 338.748544 253.176766 
L 338.920598 195.99348 
L 338.995 178.80424 
L 339.046151 187.641305 
L 339.41816 274.160632 
L 339.669266 283.34605 
L 339.957574 286.775339 
L 340.283081 288.288861 
L 340.655091 289.050769 
L 341.101501 289.47286 
L 341.696716 289.717496 
L 342.617439 289.83277 
L 344.170576 289.780045 
L 346.337529 289.482374 
L 348.253376 289.006929 
L 349.699562 288.427915 
L 350.820239 287.745624 
L 351.740961 286.925138 
L 352.536131 285.914979 
L 353.270849 284.611447 
L 354.010217 282.821806 
L 355.014641 279.70923 
L 355.809811 277.538833 
L 356.265522 276.872898 
L 356.651481 276.667932 
L 357.116493 276.690316 
L 358.604529 277.111169 
L 359.088141 277.509205 
L 359.608954 278.25421 
L 360.399473 279.841761 
L 361.701505 282.393672 
L 362.473424 283.413596 
L 363.194191 284.013245 
L 363.910309 284.327874 
L 364.654327 284.412632 
L 365.444846 284.275434 
L 366.291167 283.897145 
L 367.188639 283.245799 
L 368.141912 282.269378 
L 369.178888 280.87315 
L 370.429768 278.78629 
L 373.447692 273.582121 
L 374.233561 272.740972 
L 374.875277 272.360069 
L 375.456541 272.26658 
L 376.051756 272.399608 
L 376.753923 272.797482 
L 377.721146 273.627197 
L 379.399837 275.406608 
L 382.022501 278.517866 
L 384.115053 280.886017 
L 385.431035 282.041828 
L 386.635414 282.809827 
L 387.835144 283.313456 
L 389.118575 283.608422 
L 390.625212 283.717293 
L 393.085122 283.63182 
L 395.731036 283.617359 
L 397.772436 283.839356 
L 400.506703 284.38935 
L 404.394198 285.135412 
L 407.681829 285.507353 
L 414.252439 286.200016 
L 417.702823 286.847096 
L 429.765218 289.336777 
L 434.229327 289.866059 
L 439.772263 290.288273 
L 447.342648 290.627244 
L 458.702875 290.894421 
L 477.777641 291.095808 
L 515.290108 291.235037 
L 524.999545 291.252185 
L 524.999545 291.252185 
" clip-path="url(#p6f38d90969)" style="fill: none; stroke-dasharray: 11.1,4.8; stroke-dashoffset: 0; stroke: #000000; stroke-width: 3"/>
   </g>
   <g id="line2d_15">
    <path d="M 152.990455 291.351 
L 153.106707 291.318884 
L 287.00673 291.171165 
L 317.897434 290.943004 
L 330.257436 290.657043 
L 334.521591 290.373575 
L 336.032878 290.0769 
L 336.781546 289.720103 
L 337.255857 289.25036 
L 337.609266 288.569565 
L 337.897573 287.493042 
L 338.148679 285.590798 
L 338.362585 282.069001 
L 338.548589 274.821902 
L 338.711343 258.181581 
L 338.864797 215.064955 
L 338.995 173.1019 
L 339.046151 182.384361 
L 339.41816 273.26454 
L 339.669266 282.912545 
L 339.957574 286.514165 
L 340.283081 288.103351 
L 340.655091 288.902911 
L 341.096851 289.342234 
L 341.678116 289.596015 
L 342.561637 289.717401 
L 344.031073 289.672123 
L 346.118974 289.381105 
L 348.025521 288.902303 
L 349.485656 288.315082 
L 350.624934 287.621887 
L 351.554957 286.797071 
L 352.359427 285.782985 
L 353.098795 284.48072 
L 353.824212 282.729457 
L 354.675183 280.033414 
L 355.795861 276.55782 
L 356.251572 275.821185 
L 356.632881 275.583667 
L 357.074642 275.583082 
L 358.506877 275.948964 
L 358.985839 276.305942 
L 359.4741 276.975869 
L 360.139067 278.322045 
L 361.850309 281.926963 
L 362.598977 282.921448 
L 363.301144 283.502602 
L 363.998661 283.800509 
L 364.719429 283.868063 
L 365.482047 283.713864 
L 366.300467 283.316504 
L 367.174689 282.637641 
L 368.104711 281.624551 
L 369.118436 280.176875 
L 370.332116 278.026904 
L 373.549994 272.098238 
L 374.303313 271.26975 
L 374.921778 270.897225 
L 375.484442 270.809496 
L 376.065706 270.949378 
L 376.753923 271.360068 
L 377.693246 272.205614 
L 379.297535 273.99416 
L 381.659793 276.962338 
L 384.096452 279.967386 
L 385.393834 281.205462 
L 386.570313 282.028137 
L 387.728191 282.570373 
L 388.951171 282.896266 
L 390.350855 283.032033 
L 392.350404 282.977478 
L 395.549682 282.901936 
L 397.488779 283.103211 
L 399.841737 283.590906 
L 404.4686 284.581267 
L 407.598126 284.96739 
L 414.247789 285.722708 
L 417.526119 286.385123 
L 424.11533 288.030399 
L 428.230681 288.889765 
L 432.28558 289.50322 
L 437.051946 289.990454 
L 443.222647 290.385499 
L 451.92301 290.70383 
L 465.375788 290.953232 
L 488.793761 291.138163 
L 524.999545 291.243351 
L 524.999545 291.243351 
" clip-path="url(#p6f38d90969)" style="fill: none; stroke-dasharray: 3,4.95; stroke-dashoffset: 0; stroke: #000000; stroke-width: 3"/>
   </g>
   <g id="line2d_16">
    <path d="M 152.990455 291.351 
L 153.102057 291.287895 
L 265.434852 291.11657 
L 301.263978 290.864396 
L 318.636802 290.539952 
L 328.099784 290.160955 
L 332.828949 289.775457 
L 334.9215 289.407768 
L 335.977076 289.014597 
L 336.618792 288.548079 
L 337.074503 287.939793 
L 337.437212 287.065423 
L 337.744119 285.70081 
L 338.009176 283.427392 
L 338.241682 279.318854 
L 338.446287 271.165268 
L 338.622991 253.559631 
L 338.776445 212.007835 
L 338.995 90.460683 
L 339.078702 127.690561 
L 339.357709 251.950916 
L 339.599515 273.977635 
L 339.878522 281.757862 
L 340.194729 285.052255 
L 340.548138 286.635441 
L 340.943398 287.465471 
L 341.399109 287.925024 
L 341.966423 288.176243 
L 342.756942 288.26733 
L 343.91947 288.160752 
L 345.440057 287.793074 
L 346.960645 287.202437 
L 348.262676 286.463555 
L 349.355453 285.590168 
L 350.294776 284.552599 
L 351.122496 283.30142 
L 351.875815 281.749749 
L 352.582632 279.767311 
L 353.270849 277.142655 
L 353.982316 273.492871 
L 354.921639 267.334014 
L 355.76796 262.28643 
L 356.209721 260.842321 
L 356.544529 260.396448 
L 356.832836 260.349242 
L 357.223445 260.549135 
L 358.595229 261.631331 
L 359.009089 262.363808 
L 359.4741 263.693919 
L 360.125116 266.328985 
L 361.822408 273.44932 
L 362.547826 275.42956 
L 363.203492 276.617337 
L 363.812656 277.292546 
L 364.389271 277.616567 
L 364.947284 277.682104 
L 365.528548 277.52215 
L 366.160964 277.106652 
L 366.863131 276.365421 
L 367.6397 275.206669 
L 368.495321 273.510883 
L 369.448594 271.100504 
L 370.583222 267.581461 
L 373.963855 256.616743 
L 374.647421 255.364154 
L 375.219385 254.741822 
L 375.735548 254.488701 
L 376.256361 254.479758 
L 376.865525 254.703719 
L 377.683945 255.261787 
L 378.753472 256.271311 
L 379.748596 257.510995 
L 380.678619 259.03768 
L 381.720244 261.205406 
L 383.756994 266.124616 
L 385.147378 269.129867 
L 386.216904 270.93741 
L 387.184128 272.15383 
L 388.1002 272.961021 
L 389.006972 273.470994 
L 389.964896 273.754538 
L 391.080923 273.84414 
L 392.838666 273.725889 
L 394.801014 273.660258 
L 396.098395 273.845699 
L 397.349276 274.253553 
L 398.75361 274.957082 
L 401.018216 276.38741 
L 403.417674 277.809392 
L 405.156817 278.577702 
L 406.91921 279.110248 
L 409.062912 279.51191 
L 414.373342 280.40832 
L 416.493794 281.068779 
L 418.828151 282.039302 
L 422.720296 283.949151 
L 426.403186 285.650223 
L 429.290907 286.734344 
L 432.253029 287.60559 
L 435.54996 288.338312 
L 439.432804 288.966129 
L 444.217771 289.505504 
L 450.393122 289.96692 
L 458.767977 290.356511 
L 470.807121 290.677945 
L 489.458727 290.93355 
L 521.539861 291.124926 
L 524.999545 291.137177 
L 524.999545 291.137177 
" clip-path="url(#p6f38d90969)" style="fill: none; stroke: #0000ff; stroke-width: 3; stroke-linecap: square"/>
   </g>
   <g id="line2d_17">
    <path d="M 152.990455 291.351 
L 153.102057 291.290796 
L 266.946139 291.121466 
L 302.524159 290.871262 
L 319.613326 290.549205 
L 328.78335 290.174765 
L 333.205609 289.799041 
L 335.126105 289.438781 
L 336.107279 289.046844 
L 336.716444 288.571867 
L 337.153555 287.944117 
L 337.506964 287.019545 
L 337.804571 285.566075 
L 338.064977 283.068857 
L 338.292833 278.445757 
L 338.488138 269.327502 
L 338.655542 249.693777 
L 338.808995 200.336543 
L 338.995 98.921208 
L 339.064752 125.189049 
L 339.371659 255.753498 
L 339.618115 275.509223 
L 339.897122 282.444799 
L 340.21333 285.436502 
L 340.571389 286.903847 
L 340.971298 287.671583 
L 341.43631 288.097871 
L 342.026874 288.329423 
L 342.863895 288.401912 
L 344.100825 288.270044 
L 345.681863 287.874306 
L 347.202451 287.270849 
L 348.485882 286.527506 
L 349.560058 285.650168 
L 350.480781 284.609403 
L 351.294551 283.349115 
L 352.038569 281.776752 
L 352.740736 279.753725 
L 353.428953 277.059541 
L 354.159021 273.23666 
L 356.093468 262.413627 
L 356.451527 261.792192 
L 356.744484 261.668265 
L 357.083942 261.786771 
L 358.330173 262.646051 
L 358.771933 263.183466 
L 359.199744 264.092518 
L 359.720556 265.783081 
L 360.650579 269.739769 
L 361.706155 273.868249 
L 362.445523 275.906958 
L 363.110489 277.134289 
L 363.728954 277.842056 
L 364.314869 278.19375 
L 364.886833 278.284283 
L 365.477397 278.148727 
L 366.114463 277.765646 
L 366.82128 277.068564 
L 367.602499 275.969845 
L 368.45812 274.364695 
L 369.411393 272.077271 
L 370.536721 268.757772 
L 374.010356 258.017876 
L 374.684622 256.86961 
L 375.256586 256.300305 
L 375.777399 256.078522 
L 376.312162 256.092597 
L 376.953878 256.346391 
L 377.828099 256.953689 
L 378.925526 257.993743 
L 379.91135 259.231125 
L 380.855323 260.787954 
L 381.9574 263.069576 
L 385.486836 270.730972 
L 386.523811 272.273289 
L 387.477085 273.309466 
L 388.397807 273.99236 
L 389.33248 274.412471 
L 390.350855 274.623051 
L 391.620336 274.644507 
L 395.47063 274.561799 
L 396.749411 274.852685 
L 398.083994 275.391602 
L 399.790586 276.342242 
L 403.687381 278.583367 
L 405.449774 279.285321 
L 407.286569 279.773258 
L 409.681377 280.159914 
L 413.917631 280.826703 
L 416.098534 281.43038 
L 418.414291 282.311138 
L 421.794923 283.868811 
L 426.179981 285.837665 
L 429.137453 286.90913 
L 432.155377 287.762871 
L 435.522059 288.478719 
L 439.497906 289.089401 
L 444.431677 289.612854 
L 450.848833 290.058709 
L 459.646848 290.433266 
L 472.476512 290.740021 
L 492.746357 290.981208 
L 524.999545 291.147234 
L 524.999545 291.147234 
" clip-path="url(#p6f38d90969)" style="fill: none; stroke-dasharray: 11.1,4.8; stroke-dashoffset: 0; stroke: #0000ff; stroke-width: 3"/>
   </g>
   <g id="line2d_18">
    <path d="M 152.990455 291.351 
L 153.102057 291.272057 
L 258.250427 291.090514 
L 295.083977 290.8283 
L 313.712332 290.492448 
L 324.449445 290.093946 
L 330.601545 289.663481 
L 333.68457 289.25024 
L 335.205157 288.843321 
L 336.070079 288.396211 
L 336.646693 287.851678 
L 337.079153 287.128951 
L 337.437212 286.065559 
L 337.744119 284.390202 
L 338.009176 281.599319 
L 338.241682 276.555847 
L 338.446287 266.547089 
L 338.622991 244.935928 
L 338.776445 193.930793 
L 338.995 44.731 
L 339.078702 90.430723 
L 339.357709 242.960466 
L 339.599515 269.998086 
L 339.878522 279.54804 
L 340.194729 283.591568 
L 340.548138 285.534534 
L 340.938747 286.544694 
L 341.375858 287.09674 
L 341.896671 287.400373 
L 342.580238 287.529882 
L 343.542811 287.470727 
L 344.840193 287.159307 
L 346.267778 286.589788 
L 347.56981 285.835455 
L 348.690487 284.932156 
L 349.662361 283.86324 
L 350.527282 282.575553 
L 351.313151 280.994174 
L 352.043219 279.005276 
L 352.736086 276.445196 
L 353.419652 273.024565 
L 354.14507 268.175587 
L 356.112068 254.114705 
L 356.465477 253.349736 
L 356.744484 253.194708 
L 357.042091 253.301174 
L 357.944213 254.017326 
L 358.530127 254.611214 
L 358.925387 255.377498 
L 359.362498 256.771131 
L 359.939112 259.450852 
L 362.101415 270.276219 
L 362.789631 272.285105 
L 363.417397 273.478764 
L 363.989361 274.125012 
L 364.519474 274.408364 
L 365.026336 274.433325 
L 365.551799 274.231971 
L 366.137713 273.755604 
L 366.798029 272.91528 
L 367.542048 271.588122 
L 368.369768 269.6312 
L 369.29049 266.852785 
L 370.369317 262.844073 
L 372.094509 255.408643 
L 373.443042 250.028786 
L 374.238211 247.704847 
L 374.861326 246.507487 
L 375.391439 245.929972 
L 375.865751 245.720991 
L 376.344713 245.752089 
L 376.912027 246.025153 
L 377.679295 246.664383 
L 378.67907 247.800235 
L 379.641643 249.228279 
L 380.539115 250.972767 
L 381.524939 253.409264 
L 383.017626 257.794444 
L 384.81722 262.89406 
L 385.914647 265.348644 
L 386.87257 266.974416 
L 387.756092 268.057498 
L 388.602412 268.757513 
L 389.448733 269.17601 
L 390.355505 269.375638 
L 391.452932 269.378527 
L 395.507831 269.171152 
L 396.614558 269.477214 
L 397.758486 270.031383 
L 399.120969 270.955003 
L 404.612754 274.97116 
L 406.170542 275.659063 
L 407.872483 276.162241 
L 410.276592 276.614389 
L 413.46657 277.249696 
L 415.396367 277.876361 
L 417.330814 278.744309 
L 419.62332 280.031503 
L 427.640116 284.754946 
L 430.23953 285.889385 
L 432.969146 286.835203 
L 436.001021 287.645737 
L 439.521157 288.350177 
L 443.76206 288.964191 
L 449.06784 289.498241 
L 455.973259 289.958564 
L 465.375788 290.349093 
L 478.898319 290.672164 
L 499.80523 290.929456 
L 524.999545 291.082081 
L 524.999545 291.082081 
" clip-path="url(#p6f38d90969)" style="fill: none; stroke-dasharray: 3,4.95; stroke-dashoffset: 0; stroke: #0000ff; stroke-width: 3"/>
   </g>
   <g id="patch_3">
    <path d="M 134.39 303.682 
L 134.39 32.4 
" style="fill: none; stroke: #000000; stroke-width: 0.8; stroke-linejoin: miter; stroke-linecap: square"/>
   </g>
   <g id="patch_4">
    <path d="M 543.6 303.682 
L 543.6 32.4 
" style="fill: none; stroke: #000000; stroke-width: 0.8; stroke-linejoin: miter; stroke-linecap: square"/>
   </g>
   <g id="patch_5">
    <path d="M 134.39 303.682 
L 543.6 303.682 
" style="fill: none; stroke: #000000; stroke-width: 0.8; stroke-linejoin: miter; stroke-linecap: square"/>
   </g>
   <g id="patch_6">
    <path d="M 134.39 32.4 
L 543.6 32.4 
" style="fill: none; stroke: #000000; stroke-width: 0.8; stroke-linejoin: miter; stroke-linecap: square"/>
   </g>
   <g id="legend_1">
    <g id="patch_7">
     <path d="M 429.275 186.11 
L 532.4 186.11 
Q 535.6 186.11 535.6 182.91 
L 535.6 43.6 
Q 535.6 40.4 532.4 40.4 
L 429.275 40.4 
Q 426.075 40.4 426.075 43.6 
L 426.075 182.91 
Q 426.075 186.11 429.275 186.11 
z
" style="fill: #ffffff; opacity: 0.8; stroke: #cccccc; stroke-linejoin: miter"/>
    </g>
    <g id="line2d_19">
     <path d="M 432.475 53.3575 
L 448.475 53.3575 
L 464.475 53.3575 
" style="fill: none; stroke: #000000; stroke-width: 3; stroke-linecap: square"/>
    </g>
    <g id="text_5">
     <!-- NL -->
     <g transform="translate(477.275 58.9575) scale(0.16 -0.16)">
      <defs>
       <path id="DejaVuSans-4e" d="M 628 4666 
L 1478 4666 
L 3547 763 
L 3547 4666 
L 4159 4666 
L 4159 0 
L 3309 0 
L 1241 3903 
L 1241 0 
L 628 0 
L 628 4666 
z
" transform="scale(0.015625)"/>
       <path id="DejaVuSans-4c" d="M 628 4666 
L 1259 4666 
L 1259 531 
L 3531 531 
L 3531 0 
L 628 0 
L 628 4666 
z
" transform="scale(0.015625)"/>
      </defs>
      <use xlink:href="#DejaVuSans-4e"/>
      <use xlink:href="#DejaVuSans-4c" transform="translate(74.804688 0)"/>
     </g>
    </g>
    <g id="line2d_20">
     <path d="M 432.475 76.8425 
L 448.475 76.8425 
L 464.475 76.8425 
" style="fill: none; stroke-dasharray: 11.1,4.8; stroke-dashoffset: 0; stroke: #000000; stroke-width: 3"/>
    </g>
    <g id="text_6">
     <!-- LENLO -->
     <g transform="translate(477.275 82.4425) scale(0.16 -0.16)">
      <defs>
       <path id="DejaVuSans-45" d="M 628 4666 
L 3578 4666 
L 3578 4134 
L 1259 4134 
L 1259 2753 
L 3481 2753 
L 3481 2222 
L 1259 2222 
L 1259 531 
L 3634 531 
L 3634 0 
L 628 0 
L 628 4666 
z
" transform="scale(0.015625)"/>
       <path id="DejaVuSans-4f" d="M 2522 4238 
Q 1834 4238 1429 3725 
Q 1025 3213 1025 2328 
Q 1025 1447 1429 934 
Q 1834 422 2522 422 
Q 3209 422 3611 934 
Q 4013 1447 4013 2328 
Q 4013 3213 3611 3725 
Q 3209 4238 2522 4238 
z
M 2522 4750 
Q 3503 4750 4090 4092 
Q 4678 3434 4678 2328 
Q 4678 1225 4090 567 
Q 3503 -91 2522 -91 
Q 1538 -91 948 565 
Q 359 1222 359 2328 
Q 359 3434 948 4092 
Q 1538 4750 2522 4750 
z
" transform="scale(0.015625)"/>
      </defs>
      <use xlink:href="#DejaVuSans-4c"/>
      <use xlink:href="#DejaVuSans-45" transform="translate(55.712891 0)"/>
      <use xlink:href="#DejaVuSans-4e" transform="translate(118.896484 0)"/>
      <use xlink:href="#DejaVuSans-4c" transform="translate(193.701172 0)"/>
      <use xlink:href="#DejaVuSans-4f" transform="translate(245.789062 0)"/>
     </g>
    </g>
    <g id="line2d_21">
     <path d="M 432.475 100.3275 
L 448.475 100.3275 
L 464.475 100.3275 
" style="fill: none; stroke-dasharray: 3,4.95; stroke-dashoffset: 0; stroke: #000000; stroke-width: 3"/>
    </g>
    <g id="text_7">
     <!-- LELO -->
     <g transform="translate(477.275 105.9275) scale(0.16 -0.16)">
      <use xlink:href="#DejaVuSans-4c"/>
      <use xlink:href="#DejaVuSans-45" transform="translate(55.712891 0)"/>
      <use xlink:href="#DejaVuSans-4c" transform="translate(118.896484 0)"/>
      <use xlink:href="#DejaVuSans-4f" transform="translate(170.984375 0)"/>
     </g>
    </g>
    <g id="line2d_22">
     <path d="M 432.475 123.8125 
L 448.475 123.8125 
L 464.475 123.8125 
" style="fill: none; stroke: #0000ff; stroke-width: 3; stroke-linecap: square"/>
    </g>
    <g id="text_8">
     <!-- NL -->
     <g transform="translate(477.275 129.4125) scale(0.16 -0.16)">
      <use xlink:href="#DejaVuSans-4e"/>
      <use xlink:href="#DejaVuSans-4c" transform="translate(74.804688 0)"/>
     </g>
    </g>
    <g id="line2d_23">
     <path d="M 432.475 147.2975 
L 448.475 147.2975 
L 464.475 147.2975 
" style="fill: none; stroke-dasharray: 11.1,4.8; stroke-dashoffset: 0; stroke: #0000ff; stroke-width: 3"/>
    </g>
    <g id="text_9">
     <!-- LENLO -->
     <g transform="translate(477.275 152.8975) scale(0.16 -0.16)">
      <use xlink:href="#DejaVuSans-4c"/>
      <use xlink:href="#DejaVuSans-45" transform="translate(55.712891 0)"/>
      <use xlink:href="#DejaVuSans-4e" transform="translate(118.896484 0)"/>
      <use xlink:href="#DejaVuSans-4c" transform="translate(193.701172 0)"/>
      <use xlink:href="#DejaVuSans-4f" transform="translate(245.789062 0)"/>
     </g>
    </g>
    <g id="line2d_24">
     <path d="M 432.475 170.7825 
L 448.475 170.7825 
L 464.475 170.7825 
" style="fill: none; stroke-dasharray: 3,4.95; stroke-dashoffset: 0; stroke: #0000ff; stroke-width: 3"/>
    </g>
    <g id="text_10">
     <!-- LELO -->
     <g transform="translate(477.275 176.3825) scale(0.16 -0.16)">
      <use xlink:href="#DejaVuSans-4c"/>
      <use xlink:href="#DejaVuSans-45" transform="translate(55.712891 0)"/>
      <use xlink:href="#DejaVuSans-4c" transform="translate(118.896484 0)"/>
      <use xlink:href="#DejaVuSans-4f" transform="translate(170.984375 0)"/>
     </g>
    </g>
   </g>
  </g>
  <g id="axes_2">
   <g id="patch_8">
    <path d="M 134.39 610.864 
L 543.6 610.864 
L 543.6 339.582 
L 134.39 339.582 
L 134.39 610.864 
z
" style="fill: none"/>
   </g>
   <g id="matplotlib.axis_3">
    <g id="xtick_4">
     <g id="line2d_25">
      <path d="M 222.742159 610.864 
L 222.742159 339.582 
" clip-path="url(#pbd676366d5)" style="fill: none; stroke: #b0b0b0; stroke-opacity: 0.2; stroke-width: 0.8; stroke-linecap: square"/>
     </g>
     <g id="line2d_26">
      <g>
       <use xlink:href="#mc59c428acd" x="222.742159" y="610.864" style="stroke: #000000; stroke-width: 0.8"/>
      </g>
     </g>
     <g id="text_11">
      <!-- −25 -->
      <g transform="translate(193.195597 639.139625) scale(0.28 -0.28)">
       <defs>
        <path id="DejaVuSans-2212" d="M 678 2272 
L 4684 2272 
L 4684 1741 
L 678 1741 
L 678 2272 
z
" transform="scale(0.015625)"/>
        <path id="DejaVuSans-32" d="M 1228 531 
L 3431 531 
L 3431 0 
L 469 0 
L 469 531 
Q 828 903 1448 1529 
Q 2069 2156 2228 2338 
Q 2531 2678 2651 2914 
Q 2772 3150 2772 3378 
Q 2772 3750 2511 3984 
Q 2250 4219 1831 4219 
Q 1534 4219 1204 4116 
Q 875 4013 500 3803 
L 500 4441 
Q 881 4594 1212 4672 
Q 1544 4750 1819 4750 
Q 2544 4750 2975 4387 
Q 3406 4025 3406 3419 
Q 3406 3131 3298 2873 
Q 3191 2616 2906 2266 
Q 2828 2175 2409 1742 
Q 1991 1309 1228 531 
z
" transform="scale(0.015625)"/>
       </defs>
       <use xlink:href="#DejaVuSans-2212"/>
       <use xlink:href="#DejaVuSans-32" transform="translate(83.789062 0)"/>
       <use xlink:href="#DejaVuSans-35" transform="translate(147.412109 0)"/>
      </g>
     </g>
    </g>
    <g id="xtick_5">
     <g id="line2d_27">
      <path d="M 338.995 610.864 
L 338.995 339.582 
" clip-path="url(#pbd676366d5)" style="fill: none; stroke: #b0b0b0; stroke-opacity: 0.2; stroke-width: 0.8; stroke-linecap: square"/>
     </g>
     <g id="line2d_28">
      <g>
       <use xlink:href="#mc59c428acd" x="338.995" y="610.864" style="stroke: #000000; stroke-width: 0.8"/>
      </g>
     </g>
     <g id="text_12">
      <!-- 0 -->
      <g transform="translate(330.0875 639.139625) scale(0.28 -0.28)">
       <use xlink:href="#DejaVuSans-30"/>
      </g>
     </g>
    </g>
    <g id="xtick_6">
     <g id="line2d_29">
      <path d="M 455.247841 610.864 
L 455.247841 339.582 
" clip-path="url(#pbd676366d5)" style="fill: none; stroke: #b0b0b0; stroke-opacity: 0.2; stroke-width: 0.8; stroke-linecap: square"/>
     </g>
     <g id="line2d_30">
      <g>
       <use xlink:href="#mc59c428acd" x="455.247841" y="610.864" style="stroke: #000000; stroke-width: 0.8"/>
      </g>
     </g>
     <g id="text_13">
      <!-- 25 -->
      <g transform="translate(437.432841 639.139625) scale(0.28 -0.28)">
       <use xlink:href="#DejaVuSans-32"/>
       <use xlink:href="#DejaVuSans-35" transform="translate(63.623047 0)"/>
      </g>
     </g>
    </g>
    <g id="text_14">
     <!-- $E_{ex}$ (MeV) -->
     <g transform="translate(248.365 677.836812) scale(0.38 -0.38)">
      <defs>
       <path id="DejaVuSans-Oblique-45" d="M 1081 4666 
L 4031 4666 
L 3928 4134 
L 1606 4134 
L 1338 2753 
L 3566 2753 
L 3463 2222 
L 1234 2222 
L 909 531 
L 3284 531 
L 3181 0 
L 172 0 
L 1081 4666 
z
" transform="scale(0.015625)"/>
       <path id="DejaVuSans-Oblique-65" d="M 3078 2063 
Q 3088 2113 3092 2166 
Q 3097 2219 3097 2272 
Q 3097 2653 2873 2875 
Q 2650 3097 2266 3097 
Q 1838 3097 1509 2826 
Q 1181 2556 1013 2059 
L 3078 2063 
z
M 3578 1613 
L 903 1613 
Q 884 1494 878 1425 
Q 872 1356 872 1306 
Q 872 872 1139 634 
Q 1406 397 1894 397 
Q 2269 397 2603 481 
Q 2938 566 3225 728 
L 3116 159 
Q 2806 34 2476 -28 
Q 2147 -91 1806 -91 
Q 1078 -91 686 257 
Q 294 606 294 1247 
Q 294 1794 489 2264 
Q 684 2734 1063 3103 
Q 1306 3334 1642 3459 
Q 1978 3584 2356 3584 
Q 2950 3584 3301 3228 
Q 3653 2872 3653 2272 
Q 3653 2128 3634 1964 
Q 3616 1800 3578 1613 
z
" transform="scale(0.015625)"/>
       <path id="DejaVuSans-Oblique-78" d="M 3841 3500 
L 2234 1784 
L 3219 0 
L 2559 0 
L 1819 1388 
L 531 0 
L -166 0 
L 1556 1844 
L 641 3500 
L 1300 3500 
L 1972 2234 
L 3144 3500 
L 3841 3500 
z
" transform="scale(0.015625)"/>
       <path id="DejaVuSans-28" d="M 1984 4856 
Q 1566 4138 1362 3434 
Q 1159 2731 1159 2009 
Q 1159 1288 1364 580 
Q 1569 -128 1984 -844 
L 1484 -844 
Q 1016 -109 783 600 
Q 550 1309 550 2009 
Q 550 2706 781 3412 
Q 1013 4119 1484 4856 
L 1984 4856 
z
" transform="scale(0.015625)"/>
       <path id="DejaVuSans-4d" d="M 628 4666 
L 1569 4666 
L 2759 1491 
L 3956 4666 
L 4897 4666 
L 4897 0 
L 4281 0 
L 4281 4097 
L 3078 897 
L 2444 897 
L 1241 4097 
L 1241 0 
L 628 0 
L 628 4666 
z
" transform="scale(0.015625)"/>
       <path id="DejaVuSans-65" d="M 3597 1894 
L 3597 1613 
L 953 1613 
Q 991 1019 1311 708 
Q 1631 397 2203 397 
Q 2534 397 2845 478 
Q 3156 559 3463 722 
L 3463 178 
Q 3153 47 2828 -22 
Q 2503 -91 2169 -91 
Q 1331 -91 842 396 
Q 353 884 353 1716 
Q 353 2575 817 3079 
Q 1281 3584 2069 3584 
Q 2775 3584 3186 3129 
Q 3597 2675 3597 1894 
z
M 3022 2063 
Q 3016 2534 2758 2815 
Q 2500 3097 2075 3097 
Q 1594 3097 1305 2825 
Q 1016 2553 972 2059 
L 3022 2063 
z
" transform="scale(0.015625)"/>
       <path id="DejaVuSans-56" d="M 1831 0 
L 50 4666 
L 709 4666 
L 2188 738 
L 3669 4666 
L 4325 4666 
L 2547 0 
L 1831 0 
z
" transform="scale(0.015625)"/>
       <path id="DejaVuSans-29" d="M 513 4856 
L 1013 4856 
Q 1481 4119 1714 3412 
Q 1947 2706 1947 2009 
Q 1947 1309 1714 600 
Q 1481 -109 1013 -844 
L 513 -844 
Q 928 -128 1133 580 
Q 1338 1288 1338 2009 
Q 1338 2731 1133 3434 
Q 928 4138 513 4856 
z
" transform="scale(0.015625)"/>
      </defs>
      <use xlink:href="#DejaVuSans-Oblique-45" transform="translate(0 0.125)"/>
      <use xlink:href="#DejaVuSans-Oblique-65" transform="translate(63.183594 -16.28125) scale(0.7)"/>
      <use xlink:href="#DejaVuSans-Oblique-78" transform="translate(106.25 -16.28125) scale(0.7)"/>
      <use xlink:href="#DejaVuSans-20" transform="translate(150.410156 0.125)"/>
      <use xlink:href="#DejaVuSans-28" transform="translate(182.197266 0.125)"/>
      <use xlink:href="#DejaVuSans-4d" transform="translate(221.210938 0.125)"/>
      <use xlink:href="#DejaVuSans-65" transform="translate(307.490234 0.125)"/>
      <use xlink:href="#DejaVuSans-56" transform="translate(369.013672 0.125)"/>
      <use xlink:href="#DejaVuSans-29" transform="translate(437.421875 0.125)"/>
     </g>
    </g>
   </g>
   <g id="matplotlib.axis_4">
    <g id="ytick_4">
     <g id="line2d_31">
      <path d="M 134.39 560.598954 
L 543.6 560.598954 
" clip-path="url(#pbd676366d5)" style="fill: none; stroke: #b0b0b0; stroke-opacity: 0.2; stroke-width: 0.8; stroke-linecap: square"/>
     </g>
     <g id="line2d_32">
      <g>
       <use xlink:href="#m5458297238" x="134.39" y="560.598954" style="stroke: #000000; stroke-width: 0.8"/>
      </g>
     </g>
     <g id="text_15">
      <!-- 1.0 -->
      <g transform="translate(82.86125 571.236767) scale(0.28 -0.28)">
       <defs>
        <path id="DejaVuSans-2e" d="M 684 794 
L 1344 794 
L 1344 0 
L 684 0 
L 684 794 
z
" transform="scale(0.015625)"/>
       </defs>
       <use xlink:href="#DejaVuSans-31"/>
       <use xlink:href="#DejaVuSans-2e" transform="translate(63.623047 0)"/>
       <use xlink:href="#DejaVuSans-30" transform="translate(95.410156 0)"/>
      </g>
     </g>
    </g>
    <g id="ytick_5">
     <g id="line2d_33">
      <path d="M 134.39 482.45719 
L 543.6 482.45719 
" clip-path="url(#pbd676366d5)" style="fill: none; stroke: #b0b0b0; stroke-opacity: 0.2; stroke-width: 0.8; stroke-linecap: square"/>
     </g>
     <g id="line2d_34">
      <g>
       <use xlink:href="#m5458297238" x="134.39" y="482.45719" style="stroke: #000000; stroke-width: 0.8"/>
      </g>
     </g>
     <g id="text_16">
      <!-- 1.1 -->
      <g transform="translate(82.86125 493.095002) scale(0.28 -0.28)">
       <use xlink:href="#DejaVuSans-31"/>
       <use xlink:href="#DejaVuSans-2e" transform="translate(63.623047 0)"/>
       <use xlink:href="#DejaVuSans-31" transform="translate(95.410156 0)"/>
      </g>
     </g>
    </g>
    <g id="ytick_6">
     <g id="line2d_35">
      <path d="M 134.39 404.315426 
L 543.6 404.315426 
" clip-path="url(#pbd676366d5)" style="fill: none; stroke: #b0b0b0; stroke-opacity: 0.2; stroke-width: 0.8; stroke-linecap: square"/>
     </g>
     <g id="line2d_36">
      <g>
       <use xlink:href="#m5458297238" x="134.39" y="404.315426" style="stroke: #000000; stroke-width: 0.8"/>
      </g>
     </g>
     <g id="text_17">
      <!-- 1.2 -->
      <g transform="translate(82.86125 414.953238) scale(0.28 -0.28)">
       <use xlink:href="#DejaVuSans-31"/>
       <use xlink:href="#DejaVuSans-2e" transform="translate(63.623047 0)"/>
       <use xlink:href="#DejaVuSans-32" transform="translate(95.410156 0)"/>
      </g>
     </g>
    </g>
    <g id="text_18">
     <!-- $\sigma_{LE}/\sigma_{NL}$ -->
     <g transform="translate(70.958438 540.013) rotate(-90) scale(0.38 -0.38)">
      <defs>
       <path id="DejaVuSans-Oblique-4c" d="M 1075 4666 
L 1709 4666 
L 909 525 
L 3181 525 
L 3078 0 
L 172 0 
L 1075 4666 
z
" transform="scale(0.015625)"/>
       <path id="DejaVuSans-2f" d="M 1625 4666 
L 2156 4666 
L 531 -594 
L 0 -594 
L 1625 4666 
z
" transform="scale(0.015625)"/>
       <path id="DejaVuSans-Oblique-4e" d="M 1081 4666 
L 1931 4666 
L 3219 666 
L 4000 4666 
L 4616 4666 
L 3706 0 
L 2853 0 
L 1569 4025 
L 788 0 
L 172 0 
L 1081 4666 
z
" transform="scale(0.015625)"/>
      </defs>
      <use xlink:href="#DejaVuSans-Oblique-3c3" transform="translate(0 0.09375)"/>
      <use xlink:href="#DejaVuSans-Oblique-4c" transform="translate(63.378906 -16.3125) scale(0.7)"/>
      <use xlink:href="#DejaVuSans-Oblique-45" transform="translate(102.37793 -16.3125) scale(0.7)"/>
      <use xlink:href="#DejaVuSans-2f" transform="translate(149.34082 0.09375)"/>
      <use xlink:href="#DejaVuSans-Oblique-3c3" transform="translate(183.032227 0.09375)"/>
      <use xlink:href="#DejaVuSans-Oblique-4e" transform="translate(246.411133 -16.3125) scale(0.7)"/>
      <use xlink:href="#DejaVuSans-Oblique-4c" transform="translate(298.774414 -16.3125) scale(0.7)"/>
     </g>
    </g>
   </g>
   <g id="line2d_37">
    <path d="M 152.995105 571.592941 
L 244.146632 571.317141 
L 287.606594 570.984943 
L 310.396801 570.609436 
L 322.129038 570.21704 
L 327.96028 569.822633 
L 331.075856 569.407926 
L 332.959153 568.94704 
L 334.228634 568.417431 
L 335.167956 567.790891 
L 335.930575 567.01431 
L 336.600191 566.006552 
L 337.251207 564.602152 
L 338.125429 562.089512 
L 338.706693 560.728013 
L 338.99035 560.51903 
L 339.194955 560.62518 
L 339.455361 561.060495 
L 339.887822 562.304116 
L 341.082901 565.869122 
L 341.719967 567.007415 
L 342.370982 567.733037 
L 343.10105 568.21713 
L 343.989222 568.532534 
L 345.15175 568.697933 
L 346.746739 568.687386 
L 348.81139 568.444723 
L 351.034144 567.961069 
L 353.638208 567.14572 
L 355.005341 566.82623 
L 355.76331 566.871442 
L 356.423626 567.136379 
L 357.200195 567.709419 
L 359.260195 569.342159 
L 360.166967 569.724757 
L 361.055139 569.854861 
L 362.259519 569.78199 
L 370.662274 568.881826 
L 373.587195 568.840542 
L 375.633245 569.016072 
L 377.400289 569.395888 
L 380.255458 570.292159 
L 382.826971 570.983699 
L 386.030899 571.573112 
L 395.721736 573.094352 
L 398.828012 573.305526 
L 402.580654 573.312786 
L 407.798081 573.353478 
L 412.917856 573.667957 
L 419.986029 574.063505 
L 425.175556 574.108826 
L 433.355106 573.918661 
L 456.694026 573.336024 
L 481.028071 572.998086 
L 518.754443 572.716929 
L 524.999545 572.685092 
L 524.999545 572.685092 
" clip-path="url(#pbd676366d5)" style="fill: none; stroke-dasharray: 11.1,4.8; stroke-dashoffset: 0; stroke: #000000; stroke-width: 3"/>
   </g>
   <g id="line2d_38">
    <path d="M 152.995105 505.442306 
L 233.469971 505.75659 
L 276.506773 506.1282 
L 301.510434 506.548809 
L 316.055989 506.996588 
L 324.035584 507.443329 
L 328.383441 507.889942 
L 330.950303 508.36114 
L 332.624344 508.881948 
L 333.819424 509.478707 
L 334.735496 510.180596 
L 335.493464 511.043786 
L 336.158431 512.146734 
L 336.781546 513.628746 
L 337.423262 515.766988 
L 338.860147 520.856973 
L 339.064752 520.904554 
L 339.250756 520.677264 
L 339.525113 519.915691 
L 340.022675 517.730798 
L 341.003849 513.526138 
L 341.631614 511.808259 
L 342.25938 510.707761 
L 342.924346 509.976694 
L 343.677664 509.476613 
L 344.593737 509.141435 
L 345.788816 508.952296 
L 347.425656 508.931859 
L 349.601909 509.135827 
L 352.126921 509.598038 
L 355.223897 510.174212 
L 356.051617 510.064013 
L 356.842136 509.725072 
L 359.841459 508.169622 
L 360.738931 508.095546 
L 361.780557 508.24734 
L 363.5383 508.76817 
L 368.565073 510.30851 
L 370.271664 510.592944 
L 371.703899 510.603404 
L 373.568595 510.369533 
L 375.386789 509.949461 
L 376.614419 509.435401 
L 377.87925 508.65197 
L 382.241057 505.71032 
L 383.673292 505.181584 
L 385.603089 504.728354 
L 395.270675 502.949338 
L 397.628283 502.764489 
L 399.841737 502.818621 
L 403.175868 503.163771 
L 406.230993 503.386913 
L 408.728104 503.337226 
L 411.708827 503.041358 
L 421.315962 501.925054 
L 425.059303 501.834196 
L 430.174428 501.95428 
L 464.729423 503.161895 
L 487.180171 503.544419 
L 520.614488 503.874203 
L 524.999545 503.905532 
L 524.999545 503.905532 
" clip-path="url(#pbd676366d5)" style="fill: none; stroke-dasharray: 3,4.95; stroke-dashoffset: 0; stroke: #000000; stroke-width: 3"/>
   </g>
   <g id="line2d_39">
    <path d="M 152.995105 596.515427 
L 257.497108 596.267883 
L 302.635761 595.962139 
L 324.300641 595.617749 
L 332.46159 595.30275 
L 335.237708 595.00164 
L 336.632742 594.64261 
L 337.641817 594.153848 
L 338.920598 593.511613 
L 339.362359 593.584734 
L 339.999425 593.959412 
L 341.064301 594.542955 
L 342.031524 594.791055 
L 343.449809 594.902339 
L 345.96552 594.848002 
L 349.890216 594.53596 
L 356.16787 593.974259 
L 357.302497 594.269062 
L 359.804259 594.984008 
L 361.11094 595.089218 
L 363.050038 594.983044 
L 372.56882 594.294771 
L 374.847376 594.386811 
L 377.962952 594.777962 
L 386.644714 596.098324 
L 394.540607 597.504476 
L 397.763136 597.795407 
L 401.013566 597.856485 
L 410.21614 597.884151 
L 418.38639 598.372277 
L 423.585217 598.528151 
L 429.900071 598.469647 
L 472.611365 597.685454 
L 508.342838 597.425417 
L 524.999545 597.351081 
L 524.999545 597.351081 
" clip-path="url(#pbd676366d5)" style="fill: none; stroke-dasharray: 11.1,4.8; stroke-dashoffset: 0; stroke: #0000ff; stroke-width: 3"/>
   </g>
   <g id="line2d_40">
    <path d="M 152.995105 364.472744 
L 202.774571 364.992107 
L 237.827128 365.568635 
L 263.393453 366.200941 
L 282.52867 366.886737 
L 297.102126 367.622047 
L 308.29495 368.400036 
L 316.841859 369.207138 
L 323.184614 370.01803 
L 327.639423 370.798003 
L 330.606195 371.528452 
L 332.573193 372.228803 
L 333.935676 372.940485 
L 334.944751 373.713768 
L 335.744571 374.606437 
L 336.432787 375.716822 
L 337.069853 377.188109 
L 337.75342 379.376257 
L 338.729944 382.49448 
L 338.995 382.720889 
L 339.176354 382.610619 
L 339.41816 382.145451 
L 339.836671 380.755388 
L 340.878296 377.237664 
L 341.45956 376.090292 
L 342.031524 375.4268 
L 342.645339 375.047466 
L 343.356807 374.872958 
L 344.249628 374.892611 
L 345.426107 375.152917 
L 346.946694 375.727331 
L 348.713737 376.637386 
L 350.573783 377.848556 
L 352.801187 379.587063 
L 354.489179 380.81418 
L 355.247147 381.104584 
L 355.828411 381.099042 
L 356.377125 380.866203 
L 357.023491 380.329181 
L 360.599428 376.907615 
L 361.738706 376.338953 
L 363.361595 375.79338 
L 364.896133 375.497207 
L 366.346968 375.445791 
L 368.021009 375.620319 
L 372.406066 376.198413 
L 373.694148 376.059359 
L 375.00548 375.686619 
L 376.995729 374.850333 
L 381.004127 372.938752 
L 382.585165 371.890977 
L 384.063901 370.64 
L 385.584489 369.052813 
L 387.481735 366.722701 
L 391.38783 361.855737 
L 393.099072 360.134864 
L 394.694061 358.839082 
L 396.200698 357.894115 
L 397.656184 357.239549 
L 399.13957 356.817124 
L 400.808961 356.580016 
L 403.468826 356.466357 
L 406.235643 356.268444 
L 408.383996 355.881838 
L 410.802055 355.210074 
L 414.633748 353.875208 
L 418.158535 352.735216 
L 420.474291 352.221674 
L 422.659845 351.96558 
L 424.984901 351.921935 
L 427.751719 352.102315 
L 431.667115 352.601289 
L 450.70933 355.290096 
L 459.511995 356.17769 
L 469.784096 356.983106 
L 482.167349 357.723317 
L 497.442972 358.405164 
L 516.671192 359.031573 
L 524.999545 359.247811 
L 524.999545 359.247811 
" clip-path="url(#pbd676366d5)" style="fill: none; stroke-dasharray: 3,4.95; stroke-dashoffset: 0; stroke: #0000ff; stroke-width: 3"/>
   </g>
   <g id="line2d_41">
    <path d="M 134.39 560.598954 
L 543.6 560.598954 
" clip-path="url(#pbd676366d5)" style="fill: none; stroke: #000000; stroke-opacity: 0.25; stroke-width: 1.5; stroke-linecap: square"/>
   </g>
   <g id="patch_9">
    <path d="M 134.39 610.864 
L 134.39 339.582 
" style="fill: none; stroke: #000000; stroke-width: 0.8; stroke-linejoin: miter; stroke-linecap: square"/>
   </g>
   <g id="patch_10">
    <path d="M 543.6 610.864 
L 543.6 339.582 
" style="fill: none; stroke: #000000; stroke-width: 0.8; stroke-linejoin: miter; stroke-linecap: square"/>
   </g>
   <g id="patch_11">
    <path d="M 134.39 610.864 
L 543.6 610.864 
" style="fill: none; stroke: #000000; stroke-width: 0.8; stroke-linejoin: miter; stroke-linecap: square"/>
   </g>
   <g id="patch_12">
    <path d="M 134.39 339.582 
L 543.6 339.582 
" style="fill: none; stroke: #000000; stroke-width: 0.8; stroke-linejoin: miter; stroke-linecap: square"/>
   </g>
   <g id="legend_2">
    <g id="patch_13">
     <path d="M 145.59 446.322 
L 248.715 446.322 
Q 251.915 446.322 251.915 443.122 
L 251.915 350.782 
Q 251.915 347.582 248.715 347.582 
L 145.59 347.582 
Q 142.39 347.582 142.39 350.782 
L 142.39 443.122 
Q 142.39 446.322 145.59 446.322 
z
" style="fill: #ffffff; opacity: 0.8; stroke: #cccccc; stroke-linejoin: miter"/>
    </g>
    <g id="line2d_42">
     <path d="M 148.79 360.5395 
L 164.79 360.5395 
L 180.79 360.5395 
" style="fill: none; stroke-dasharray: 11.1,4.8; stroke-dashoffset: 0; stroke: #000000; stroke-width: 3"/>
    </g>
    <g id="text_19">
     <!-- LENLO -->
     <g transform="translate(193.59 366.1395) scale(0.16 -0.16)">
      <use xlink:href="#DejaVuSans-4c"/>
      <use xlink:href="#DejaVuSans-45" transform="translate(55.712891 0)"/>
      <use xlink:href="#DejaVuSans-4e" transform="translate(118.896484 0)"/>
      <use xlink:href="#DejaVuSans-4c" transform="translate(193.701172 0)"/>
      <use xlink:href="#DejaVuSans-4f" transform="translate(245.789062 0)"/>
     </g>
    </g>
    <g id="line2d_43">
     <path d="M 148.79 384.0245 
L 164.79 384.0245 
L 180.79 384.0245 
" style="fill: none; stroke-dasharray: 3,4.95; stroke-dashoffset: 0; stroke: #000000; stroke-width: 3"/>
    </g>
    <g id="text_20">
     <!-- LELO -->
     <g transform="translate(193.59 389.6245) scale(0.16 -0.16)">
      <use xlink:href="#DejaVuSans-4c"/>
      <use xlink:href="#DejaVuSans-45" transform="translate(55.712891 0)"/>
      <use xlink:href="#DejaVuSans-4c" transform="translate(118.896484 0)"/>
      <use xlink:href="#DejaVuSans-4f" transform="translate(170.984375 0)"/>
     </g>
    </g>
    <g id="line2d_44">
     <path d="M 148.79 407.5095 
L 164.79 407.5095 
L 180.79 407.5095 
" style="fill: none; stroke-dasharray: 11.1,4.8; stroke-dashoffset: 0; stroke: #0000ff; stroke-width: 3"/>
    </g>
    <g id="text_21">
     <!-- LENLO -->
     <g transform="translate(193.59 413.1095) scale(0.16 -0.16)">
      <use xlink:href="#DejaVuSans-4c"/>
      <use xlink:href="#DejaVuSans-45" transform="translate(55.712891 0)"/>
      <use xlink:href="#DejaVuSans-4e" transform="translate(118.896484 0)"/>
      <use xlink:href="#DejaVuSans-4c" transform="translate(193.701172 0)"/>
      <use xlink:href="#DejaVuSans-4f" transform="translate(245.789062 0)"/>
     </g>
    </g>
    <g id="line2d_45">
     <path d="M 148.79 430.9945 
L 164.79 430.9945 
L 180.79 430.9945 
" style="fill: none; stroke-dasharray: 3,4.95; stroke-dashoffset: 0; stroke: #0000ff; stroke-width: 3"/>
    </g>
    <g id="text_22">
     <!-- LELO -->
     <g transform="translate(193.59 436.5945) scale(0.16 -0.16)">
      <use xlink:href="#DejaVuSans-4c"/>
      <use xlink:href="#DejaVuSans-45" transform="translate(55.712891 0)"/>
      <use xlink:href="#DejaVuSans-4c" transform="translate(118.896484 0)"/>
      <use xlink:href="#DejaVuSans-4f" transform="translate(170.984375 0)"/>
     </g>
    </g>
   </g>
  </g>
 </g>
 <defs>
  <clipPath id="p6f38d90969">
   <rect x="134.39" y="32.4" width="409.21" height="271.282"/>
  </clipPath>
  <clipPath id="pbd676366d5">
   <rect x="134.39" y="339.582" width="409.21" height="271.282"/>
  </clipPath>
 </defs>
</svg>
