<?xml version="1.0" encoding="utf-8" standalone="no"?>
<!DOCTYPE svg PUBLIC "-//W3C//DTD SVG 1.1//EN"
  "http://www.w3.org/Graphics/SVG/1.1/DTD/svg11.dtd">
<svg xmlns:xlink="http://www.w3.org/1999/xlink" width="576pt" height="720pt" viewBox="0 0 576 720" xmlns="http://www.w3.org/2000/svg" version="1.1">
 <metadata>
  <rdf:RDF xmlns:dc="http://purl.org/dc/elements/1.1/" xmlns:cc="http://creativecommons.org/ns#" xmlns:rdf="http://www.w3.org/1999/02/22-rdf-syntax-ns#">
   <cc:Work>
    <dc:type rdf:resource="http://purl.org/dc/dcmitype/StillImage"/>
    <dc:date>2026-03-11T16:13:06.983495</dc:date>
    <dc:format>image/svg+xml</dc:format>
    <dc:creator>
     <cc:Agent>
      <dc:title>Matplotlib v3.10.8, https://matplotlib.org/</dc:title>
     </cc:Agent>
    </dc:creator>
   </cc:Work>
  </rdf:RDF>
 </metadata>
 <defs>
  <style type="text/css">*{stroke-linejoin: round; stroke-linecap: butt}</style>
 </defs>
 <g id="figure_1">
  <g id="patch_1">
   <path d="M 0 720 
L 576 720 
L 576 0 
L 0 0 
L 0 720 
z
" style="fill: none"/>
  </g>
  <g id="axes_1">
   <g id="patch_2">
    <path d="M 83.396 327.777708 
L 565.2 327.777708 
L 565.2 17.64 
L 83.396 17.64 
L 83.396 327.777708 
z
" style="fill: none"/>
   </g>
   <g id="matplotlib.axis_1">
    <g id="xtick_1">
     <g id="line2d_1">
      <path d="M 83.396 327.777708 
L 83.396 17.64 
" clip-path="url(#p88653f5060)" style="fill: none; stroke: #b0b0b0; stroke-opacity: 0.2; stroke-width: 0.8; stroke-linecap: square"/>
     </g>
     <g id="line2d_2">
      <defs>
       <path id="m8d0e405c4f" d="M 0 0 
L 0 3.5 
" style="stroke: #000000; stroke-width: 0.8"/>
      </defs>
      <g>
       <use xlink:href="#m8d0e405c4f" x="83.396" y="327.777708" style="stroke: #000000; stroke-width: 0.8"/>
      </g>
     </g>
    </g>
    <g id="xtick_2">
     <g id="line2d_3">
      <path d="M 152.848229 327.777708 
L 152.848229 17.64 
" clip-path="url(#p88653f5060)" style="fill: none; stroke: #b0b0b0; stroke-opacity: 0.2; stroke-width: 0.8; stroke-linecap: square"/>
     </g>
     <g id="line2d_4">
      <g>
       <use xlink:href="#m8d0e405c4f" x="152.848229" y="327.777708" style="stroke: #000000; stroke-width: 0.8"/>
      </g>
     </g>
    </g>
    <g id="xtick_3">
     <g id="line2d_5">
      <path d="M 222.300457 327.777708 
L 222.300457 17.64 
" clip-path="url(#p88653f5060)" style="fill: none; stroke: #b0b0b0; stroke-opacity: 0.2; stroke-width: 0.8; stroke-linecap: square"/>
     </g>
     <g id="line2d_6">
      <g>
       <use xlink:href="#m8d0e405c4f" x="222.300457" y="327.777708" style="stroke: #000000; stroke-width: 0.8"/>
      </g>
     </g>
    </g>
    <g id="xtick_4">
     <g id="line2d_7">
      <path d="M 291.752686 327.777708 
L 291.752686 17.64 
" clip-path="url(#p88653f5060)" style="fill: none; stroke: #b0b0b0; stroke-opacity: 0.2; stroke-width: 0.8; stroke-linecap: square"/>
     </g>
     <g id="line2d_8">
      <g>
       <use xlink:href="#m8d0e405c4f" x="291.752686" y="327.777708" style="stroke: #000000; stroke-width: 0.8"/>
      </g>
     </g>
    </g>
    <g id="xtick_5">
     <g id="line2d_9">
      <path d="M 361.204914 327.777708 
L 361.204914 17.64 
" clip-path="url(#p88653f5060)" style="fill: none; stroke: #b0b0b0; stroke-opacity: 0.2; stroke-width: 0.8; stroke-linecap: square"/>
     </g>
     <g id="line2d_10">
      <g>
       <use xlink:href="#m8d0e405c4f" x="361.204914" y="327.777708" style="stroke: #000000; stroke-width: 0.8"/>
      </g>
     </g>
    </g>
    <g id="xtick_6">
     <g id="line2d_11">
      <path d="M 430.657143 327.777708 
L 430.657143 17.64 
" clip-path="url(#p88653f5060)" style="fill: none; stroke: #b0b0b0; stroke-opacity: 0.2; stroke-width: 0.8; stroke-linecap: square"/>
     </g>
     <g id="line2d_12">
      <g>
       <use xlink:href="#m8d0e405c4f" x="430.657143" y="327.777708" style="stroke: #000000; stroke-width: 0.8"/>
      </g>
     </g>
    </g>
    <g id="xtick_7">
     <g id="line2d_13">
      <path d="M 500.109371 327.777708 
L 500.109371 17.64 
" clip-path="url(#p88653f5060)" style="fill: none; stroke: #b0b0b0; stroke-opacity: 0.2; stroke-width: 0.8; stroke-linecap: square"/>
     </g>
     <g id="line2d_14">
      <g>
       <use xlink:href="#m8d0e405c4f" x="500.109371" y="327.777708" style="stroke: #000000; stroke-width: 0.8"/>
      </g>
     </g>
    </g>
   </g>
   <g id="matplotlib.axis_2">
    <g id="ytick_1">
     <g id="line2d_15">
      <path d="M 83.396 327.777708 
L 565.2 327.777708 
" clip-path="url(#p88653f5060)" style="fill: none; stroke: #b0b0b0; stroke-opacity: 0.2; stroke-width: 0.8; stroke-linecap: square"/>
     </g>
     <g id="line2d_16">
      <defs>
       <path id="m0518574b00" d="M 0 0 
L -3.5 0 
" style="stroke: #000000; stroke-width: 0.8"/>
      </defs>
      <g>
       <use xlink:href="#m0518574b00" x="83.396" y="327.777708" style="stroke: #000000; stroke-width: 0.8"/>
      </g>
     </g>
     <g id="text_1">
      <!-- 0 -->
      <g transform="translate(64.9435 334.616302) scale(0.18 -0.18)">
       <defs>
        <path id="DejaVuSans-30" d="M 2034 4250 
Q 1547 4250 1301 3770 
Q 1056 3291 1056 2328 
Q 1056 1369 1301 889 
Q 1547 409 2034 409 
Q 2525 409 2770 889 
Q 3016 1369 3016 2328 
Q 3016 3291 2770 3770 
Q 2525 4250 2034 4250 
z
M 2034 4750 
Q 2819 4750 3233 4129 
Q 3647 3509 3647 2328 
Q 3647 1150 3233 529 
Q 2819 -91 2034 -91 
Q 1250 -91 836 529 
Q 422 1150 422 2328 
Q 422 3509 836 4129 
Q 1250 4750 2034 4750 
z
" transform="scale(0.015625)"/>
       </defs>
       <use xlink:href="#DejaVuSans-30"/>
      </g>
     </g>
    </g>
    <g id="ytick_2">
     <g id="line2d_17">
      <path d="M 83.396 289.010495 
L 565.2 289.010495 
" clip-path="url(#p88653f5060)" style="fill: none; stroke: #b0b0b0; stroke-opacity: 0.2; stroke-width: 0.8; stroke-linecap: square"/>
     </g>
     <g id="line2d_18">
      <g>
       <use xlink:href="#m0518574b00" x="83.396" y="289.010495" style="stroke: #000000; stroke-width: 0.8"/>
      </g>
     </g>
     <g id="text_2">
      <!-- 1 -->
      <g transform="translate(64.9435 295.849088) scale(0.18 -0.18)">
       <defs>
        <path id="DejaVuSans-31" d="M 794 531 
L 1825 531 
L 1825 4091 
L 703 3866 
L 703 4441 
L 1819 4666 
L 2450 4666 
L 2450 531 
L 3481 531 
L 3481 0 
L 794 0 
L 794 531 
z
" transform="scale(0.015625)"/>
       </defs>
       <use xlink:href="#DejaVuSans-31"/>
      </g>
     </g>
    </g>
    <g id="ytick_3">
     <g id="line2d_19">
      <path d="M 83.396 250.243281 
L 565.2 250.243281 
" clip-path="url(#p88653f5060)" style="fill: none; stroke: #b0b0b0; stroke-opacity: 0.2; stroke-width: 0.8; stroke-linecap: square"/>
     </g>
     <g id="line2d_20">
      <g>
       <use xlink:href="#m0518574b00" x="83.396" y="250.243281" style="stroke: #000000; stroke-width: 0.8"/>
      </g>
     </g>
     <g id="text_3">
      <!-- 2 -->
      <g transform="translate(64.9435 257.081875) scale(0.18 -0.18)">
       <defs>
        <path id="DejaVuSans-32" d="M 1228 531 
L 3431 531 
L 3431 0 
L 469 0 
L 469 531 
Q 828 903 1448 1529 
Q 2069 2156 2228 2338 
Q 2531 2678 2651 2914 
Q 2772 3150 2772 3378 
Q 2772 3750 2511 3984 
Q 2250 4219 1831 4219 
Q 1534 4219 1204 4116 
Q 875 4013 500 3803 
L 500 4441 
Q 881 4594 1212 4672 
Q 1544 4750 1819 4750 
Q 2544 4750 2975 4387 
Q 3406 4025 3406 3419 
Q 3406 3131 3298 2873 
Q 3191 2616 2906 2266 
Q 2828 2175 2409 1742 
Q 1991 1309 1228 531 
z
" transform="scale(0.015625)"/>
       </defs>
       <use xlink:href="#DejaVuSans-32"/>
      </g>
     </g>
    </g>
    <g id="ytick_4">
     <g id="line2d_21">
      <path d="M 83.396 211.476068 
L 565.2 211.476068 
" clip-path="url(#p88653f5060)" style="fill: none; stroke: #b0b0b0; stroke-opacity: 0.2; stroke-width: 0.8; stroke-linecap: square"/>
     </g>
     <g id="line2d_22">
      <g>
       <use xlink:href="#m0518574b00" x="83.396" y="211.476068" style="stroke: #000000; stroke-width: 0.8"/>
      </g>
     </g>
     <g id="text_4">
      <!-- 3 -->
      <g transform="translate(64.9435 218.314661) scale(0.18 -0.18)">
       <defs>
        <path id="DejaVuSans-33" d="M 2597 2516 
Q 3050 2419 3304 2112 
Q 3559 1806 3559 1356 
Q 3559 666 3084 287 
Q 2609 -91 1734 -91 
Q 1441 -91 1130 -33 
Q 819 25 488 141 
L 488 750 
Q 750 597 1062 519 
Q 1375 441 1716 441 
Q 2309 441 2620 675 
Q 2931 909 2931 1356 
Q 2931 1769 2642 2001 
Q 2353 2234 1838 2234 
L 1294 2234 
L 1294 2753 
L 1863 2753 
Q 2328 2753 2575 2939 
Q 2822 3125 2822 3475 
Q 2822 3834 2567 4026 
Q 2313 4219 1838 4219 
Q 1578 4219 1281 4162 
Q 984 4106 628 3988 
L 628 4550 
Q 988 4650 1302 4700 
Q 1616 4750 1894 4750 
Q 2613 4750 3031 4423 
Q 3450 4097 3450 3541 
Q 3450 3153 3228 2886 
Q 3006 2619 2597 2516 
z
" transform="scale(0.015625)"/>
       </defs>
       <use xlink:href="#DejaVuSans-33"/>
      </g>
     </g>
    </g>
    <g id="ytick_5">
     <g id="line2d_23">
      <path d="M 83.396 172.708854 
L 565.2 172.708854 
" clip-path="url(#p88653f5060)" style="fill: none; stroke: #b0b0b0; stroke-opacity: 0.2; stroke-width: 0.8; stroke-linecap: square"/>
     </g>
     <g id="line2d_24">
      <g>
       <use xlink:href="#m0518574b00" x="83.396" y="172.708854" style="stroke: #000000; stroke-width: 0.8"/>
      </g>
     </g>
     <g id="text_5">
      <!-- 4 -->
      <g transform="translate(64.9435 179.547448) scale(0.18 -0.18)">
       <defs>
        <path id="DejaVuSans-34" d="M 2419 4116 
L 825 1625 
L 2419 1625 
L 2419 4116 
z
M 2253 4666 
L 3047 4666 
L 3047 1625 
L 3713 1625 
L 3713 1100 
L 3047 1100 
L 3047 0 
L 2419 0 
L 2419 1100 
L 313 1100 
L 313 1709 
L 2253 4666 
z
" transform="scale(0.015625)"/>
       </defs>
       <use xlink:href="#DejaVuSans-34"/>
      </g>
     </g>
    </g>
    <g id="ytick_6">
     <g id="line2d_25">
      <path d="M 83.396 133.941641 
L 565.2 133.941641 
" clip-path="url(#p88653f5060)" style="fill: none; stroke: #b0b0b0; stroke-opacity: 0.2; stroke-width: 0.8; stroke-linecap: square"/>
     </g>
     <g id="line2d_26">
      <g>
       <use xlink:href="#m0518574b00" x="83.396" y="133.941641" style="stroke: #000000; stroke-width: 0.8"/>
      </g>
     </g>
     <g id="text_6">
      <!-- 5 -->
      <g transform="translate(64.9435 140.780234) scale(0.18 -0.18)">
       <defs>
        <path id="DejaVuSans-35" d="M 691 4666 
L 3169 4666 
L 3169 4134 
L 1269 4134 
L 1269 2991 
Q 1406 3038 1543 3061 
Q 1681 3084 1819 3084 
Q 2600 3084 3056 2656 
Q 3513 2228 3513 1497 
Q 3513 744 3044 326 
Q 2575 -91 1722 -91 
Q 1428 -91 1123 -41 
Q 819 9 494 109 
L 494 744 
Q 775 591 1075 516 
Q 1375 441 1709 441 
Q 2250 441 2565 725 
Q 2881 1009 2881 1497 
Q 2881 1984 2565 2268 
Q 2250 2553 1709 2553 
Q 1456 2553 1204 2497 
Q 953 2441 691 2322 
L 691 4666 
z
" transform="scale(0.015625)"/>
       </defs>
       <use xlink:href="#DejaVuSans-35"/>
      </g>
     </g>
    </g>
    <g id="ytick_7">
     <g id="line2d_27">
      <path d="M 83.396 95.174427 
L 565.2 95.174427 
" clip-path="url(#p88653f5060)" style="fill: none; stroke: #b0b0b0; stroke-opacity: 0.2; stroke-width: 0.8; stroke-linecap: square"/>
     </g>
     <g id="line2d_28">
      <g>
       <use xlink:href="#m0518574b00" x="83.396" y="95.174427" style="stroke: #000000; stroke-width: 0.8"/>
      </g>
     </g>
     <g id="text_7">
      <!-- 6 -->
      <g transform="translate(64.9435 102.013021) scale(0.18 -0.18)">
       <defs>
        <path id="DejaVuSans-36" d="M 2113 2584 
Q 1688 2584 1439 2293 
Q 1191 2003 1191 1497 
Q 1191 994 1439 701 
Q 1688 409 2113 409 
Q 2538 409 2786 701 
Q 3034 994 3034 1497 
Q 3034 2003 2786 2293 
Q 2538 2584 2113 2584 
z
M 3366 4563 
L 3366 3988 
Q 3128 4100 2886 4159 
Q 2644 4219 2406 4219 
Q 1781 4219 1451 3797 
Q 1122 3375 1075 2522 
Q 1259 2794 1537 2939 
Q 1816 3084 2150 3084 
Q 2853 3084 3261 2657 
Q 3669 2231 3669 1497 
Q 3669 778 3244 343 
Q 2819 -91 2113 -91 
Q 1303 -91 875 529 
Q 447 1150 447 2328 
Q 447 3434 972 4092 
Q 1497 4750 2381 4750 
Q 2619 4750 2861 4703 
Q 3103 4656 3366 4563 
z
" transform="scale(0.015625)"/>
       </defs>
       <use xlink:href="#DejaVuSans-36"/>
      </g>
     </g>
    </g>
    <g id="ytick_8">
     <g id="line2d_29">
      <path d="M 83.396 56.407214 
L 565.2 56.407214 
" clip-path="url(#p88653f5060)" style="fill: none; stroke: #b0b0b0; stroke-opacity: 0.2; stroke-width: 0.8; stroke-linecap: square"/>
     </g>
     <g id="line2d_30">
      <g>
       <use xlink:href="#m0518574b00" x="83.396" y="56.407214" style="stroke: #000000; stroke-width: 0.8"/>
      </g>
     </g>
     <g id="text_8">
      <!-- 7 -->
      <g transform="translate(64.9435 63.245807) scale(0.18 -0.18)">
       <defs>
        <path id="DejaVuSans-37" d="M 525 4666 
L 3525 4666 
L 3525 4397 
L 1831 0 
L 1172 0 
L 2766 4134 
L 525 4134 
L 525 4666 
z
" transform="scale(0.015625)"/>
       </defs>
       <use xlink:href="#DejaVuSans-37"/>
      </g>
     </g>
    </g>
    <g id="ytick_9">
     <g id="line2d_31">
      <path d="M 83.396 17.64 
L 565.2 17.64 
" clip-path="url(#p88653f5060)" style="fill: none; stroke: #b0b0b0; stroke-opacity: 0.2; stroke-width: 0.8; stroke-linecap: square"/>
     </g>
     <g id="line2d_32">
      <g>
       <use xlink:href="#m0518574b00" x="83.396" y="17.64" style="stroke: #000000; stroke-width: 0.8"/>
      </g>
     </g>
     <g id="text_9">
      <!-- 8 -->
      <g transform="translate(64.9435 24.478594) scale(0.18 -0.18)">
       <defs>
        <path id="DejaVuSans-38" d="M 2034 2216 
Q 1584 2216 1326 1975 
Q 1069 1734 1069 1313 
Q 1069 891 1326 650 
Q 1584 409 2034 409 
Q 2484 409 2743 651 
Q 3003 894 3003 1313 
Q 3003 1734 2745 1975 
Q 2488 2216 2034 2216 
z
M 1403 2484 
Q 997 2584 770 2862 
Q 544 3141 544 3541 
Q 544 4100 942 4425 
Q 1341 4750 2034 4750 
Q 2731 4750 3128 4425 
Q 3525 4100 3525 3541 
Q 3525 3141 3298 2862 
Q 3072 2584 2669 2484 
Q 3125 2378 3379 2068 
Q 3634 1759 3634 1313 
Q 3634 634 3220 271 
Q 2806 -91 2034 -91 
Q 1263 -91 848 271 
Q 434 634 434 1313 
Q 434 1759 690 2068 
Q 947 2378 1403 2484 
z
M 1172 3481 
Q 1172 3119 1398 2916 
Q 1625 2713 2034 2713 
Q 2441 2713 2670 2916 
Q 2900 3119 2900 3481 
Q 2900 3844 2670 4047 
Q 2441 4250 2034 4250 
Q 1625 4250 1398 4047 
Q 1172 3844 1172 3481 
z
" transform="scale(0.015625)"/>
       </defs>
       <use xlink:href="#DejaVuSans-38"/>
      </g>
     </g>
    </g>
    <g id="text_10">
     <!-- $\sigma$ [mb] -->
     <g transform="translate(56.784125 206.208854) rotate(-90) scale(0.2 -0.2)">
      <defs>
       <path id="DejaVuSans-Oblique-3c3" d="M 2219 3044 
Q 1744 3044 1422 2700 
Q 1081 2341 969 1747 
Q 844 1119 1044 756 
Q 1241 397 1706 397 
Q 2166 397 2503 759 
Q 2844 1122 2966 1747 
Q 3075 2319 2881 2700 
Q 2700 3044 2219 3044 
z
M 2309 3503 
L 4219 3500 
L 4106 2925 
L 3463 2925 
Q 3706 2438 3575 1747 
Q 3406 888 2884 400 
Q 2359 -91 1609 -91 
Q 856 -91 525 400 
Q 194 888 363 1747 
Q 528 2609 1050 3097 
Q 1484 3503 2309 3503 
z
" transform="scale(0.015625)"/>
       <path id="DejaVuSans-20" transform="scale(0.015625)"/>
       <path id="DejaVuSans-5b" d="M 550 4863 
L 1875 4863 
L 1875 4416 
L 1125 4416 
L 1125 -397 
L 1875 -397 
L 1875 -844 
L 550 -844 
L 550 4863 
z
" transform="scale(0.015625)"/>
       <path id="DejaVuSans-6d" d="M 3328 2828 
Q 3544 3216 3844 3400 
Q 4144 3584 4550 3584 
Q 5097 3584 5394 3201 
Q 5691 2819 5691 2113 
L 5691 0 
L 5113 0 
L 5113 2094 
Q 5113 2597 4934 2840 
Q 4756 3084 4391 3084 
Q 3944 3084 3684 2787 
Q 3425 2491 3425 1978 
L 3425 0 
L 2847 0 
L 2847 2094 
Q 2847 2600 2669 2842 
Q 2491 3084 2119 3084 
Q 1678 3084 1418 2786 
Q 1159 2488 1159 1978 
L 1159 0 
L 581 0 
L 581 3500 
L 1159 3500 
L 1159 2956 
Q 1356 3278 1631 3431 
Q 1906 3584 2284 3584 
Q 2666 3584 2933 3390 
Q 3200 3197 3328 2828 
z
" transform="scale(0.015625)"/>
       <path id="DejaVuSans-62" d="M 3116 1747 
Q 3116 2381 2855 2742 
Q 2594 3103 2138 3103 
Q 1681 3103 1420 2742 
Q 1159 2381 1159 1747 
Q 1159 1113 1420 752 
Q 1681 391 2138 391 
Q 2594 391 2855 752 
Q 3116 1113 3116 1747 
z
M 1159 2969 
Q 1341 3281 1617 3432 
Q 1894 3584 2278 3584 
Q 2916 3584 3314 3078 
Q 3713 2572 3713 1747 
Q 3713 922 3314 415 
Q 2916 -91 2278 -91 
Q 1894 -91 1617 61 
Q 1341 213 1159 525 
L 1159 0 
L 581 0 
L 581 4863 
L 1159 4863 
L 1159 2969 
z
" transform="scale(0.015625)"/>
       <path id="DejaVuSans-5d" d="M 1947 4863 
L 1947 -844 
L 622 -844 
L 622 -397 
L 1369 -397 
L 1369 4416 
L 622 4416 
L 622 4863 
L 1947 4863 
z
" transform="scale(0.015625)"/>
      </defs>
      <use xlink:href="#DejaVuSans-Oblique-3c3" transform="translate(0 0.015625)"/>
      <use xlink:href="#DejaVuSans-20" transform="translate(63.378906 0.015625)"/>
      <use xlink:href="#DejaVuSans-5b" transform="translate(95.166016 0.015625)"/>
      <use xlink:href="#DejaVuSans-6d" transform="translate(134.179688 0.015625)"/>
      <use xlink:href="#DejaVuSans-62" transform="translate(231.591797 0.015625)"/>
      <use xlink:href="#DejaVuSans-5d" transform="translate(295.068359 0.015625)"/>
     </g>
    </g>
   </g>
   <g id="line2d_33">
    <path d="M 85.882322 -1 
L 86.396336 85.542849 
L 86.951954 144.649931 
L 87.535353 184.934738 
L 88.174313 214.237591 
L 88.841055 234.96852 
L 89.535577 250.01115 
L 90.25788 261.16388 
L 91.035745 269.850197 
L 91.841391 276.435533 
L 92.674818 281.501051 
L 93.536025 285.443774 
L 94.452795 288.625366 
L 95.397345 291.120356 
L 96.369676 293.086847 
L 97.397569 294.67751 
L 98.481024 295.950423 
L 99.620041 296.953765 
L 100.870181 297.757345 
L 102.231444 298.364606 
L 103.731613 298.789276 
L 105.426247 299.035389 
L 107.370909 299.086171 
L 109.5656 298.916234 
L 112.06588 298.494019 
L 114.843969 297.794281 
L 117.844305 296.805874 
L 120.983546 295.534973 
L 124.150568 294.011643 
L 127.262028 292.268494 
L 130.262364 290.334702 
L 133.151577 288.2084 
L 135.901885 285.908369 
L 138.513289 283.435864 
L 141.013569 280.761384 
L 143.402725 277.877189 
L 145.680759 274.776424 
L 147.875449 271.408918 
L 149.986797 267.755653 
L 152.014802 263.797893 
L 153.987245 259.45315 
L 155.904127 254.681205 
L 157.765446 249.439359 
L 159.571204 243.683387 
L 161.349181 237.262368 
L 163.099377 230.091882 
L 164.821793 222.082546 
L 166.544208 212.988185 
L 168.266623 202.663384 
L 170.016819 190.769728 
L 171.794797 177.127585 
L 173.711678 160.62683 
L 175.906368 139.684734 
L 182.212631 78.011104 
L 183.518333 68.175602 
L 184.629568 61.379858 
L 185.6019 56.721319 
L 186.463107 53.597588 
L 187.240972 51.541116 
L 187.963275 50.2213 
L 188.630017 49.445279 
L 189.241196 49.051942 
L 189.852376 48.910289 
L 190.519117 48.982897 
L 191.352544 49.313857 
L 192.574903 50.072716 
L 198.881166 54.555015 
L 199.825716 55.691682 
L 200.742485 57.155374 
L 201.659255 59.058083 
L 202.603805 61.547204 
L 203.631698 64.919766 
L 204.742934 69.368106 
L 205.993074 75.337166 
L 207.465461 83.530675 
L 209.326781 95.263359 
L 212.71605 118.40217 
L 215.688605 137.999035 
L 217.799953 150.468607 
L 219.661272 160.160941 
L 221.355907 167.855506 
L 222.967199 174.176754 
L 224.495148 179.307486 
L 225.967535 183.498248 
L 227.38436 186.875299 
L 228.717843 189.503839 
L 229.995764 191.554166 
L 231.218123 193.112083 
L 232.384921 194.252257 
L 233.496156 195.039579 
L 234.579611 195.540166 
L 235.635285 195.78529 
L 236.690959 195.800387 
L 237.746633 195.59368 
L 238.857868 195.144303 
L 240.024666 194.424207 
L 241.247025 193.40435 
L 242.552727 192.021862 
L 243.969552 190.185803 
L 245.469721 187.86624 
L 247.081012 184.948714 
L 248.775647 181.405923 
L 250.553624 177.165366 
L 252.442724 172.068961 
L 254.415168 166.092702 
L 256.498734 159.047176 
L 258.665644 150.918795 
L 260.971458 141.379273 
L 263.416176 130.290485 
L 266.055361 117.263208 
L 269.027917 101.435279 
L 272.667213 80.783488 
L 284.196283 14.39128 
L 286.724344 1.65721 
L 287.288118 -1 
M 317.395295 -1 
L 321.228211 11.756075 
L 326.006525 28.452458 
L 331.090428 47.027906 
L 336.952196 69.342871 
L 346.258795 104.831276 
L 349.953653 117.957662 
L 353.092894 128.313537 
L 355.898764 136.828589 
L 358.510168 144.064326 
L 360.982667 150.27484 
L 363.344043 155.615889 
L 365.594295 160.171558 
L 367.788986 164.122323 
L 369.900333 167.477696 
L 371.9839 170.376967 
L 374.011905 172.823474 
L 376.012129 174.892158 
L 377.984573 176.616305 
L 379.957016 178.046702 
L 381.929459 179.204035 
L 383.929683 180.120873 
L 385.985469 180.817976 
L 388.124598 181.307062 
L 390.402631 181.596057 
L 392.87513 181.680923 
L 395.681001 181.547043 
L 399.09805 181.149153 
L 404.793133 180.219719 
L 410.265969 179.411588 
L 413.849704 179.107039 
L 416.988944 179.060956 
L 419.905938 179.239068 
L 422.711808 179.632139 
L 425.489897 180.2467 
L 428.295767 181.098086 
L 431.18498 182.211707 
L 434.213097 183.621481 
L 437.491242 185.397827 
L 441.213882 187.676007 
L 445.85329 190.791707 
L 463.216348 202.715253 
L 467.716852 205.382131 
L 471.995109 207.662026 
L 476.273367 209.689573 
L 480.662747 211.522221 
L 485.357718 213.237993 
L 490.663868 214.933256 
L 497.497968 216.866369 
L 513.249733 221.24203 
L 518.917035 223.104212 
L 523.973157 224.9972 
L 528.779251 227.032321 
L 533.529784 229.286648 
L 538.308097 231.802016 
L 543.253096 234.659366 
L 548.503684 237.954905 
L 554.28211 241.851674 
L 561.032866 246.683499 
L 565.227781 249.791477 
L 565.227781 249.791477 
" clip-path="url(#p88653f5060)" style="fill: none; stroke: #000000; stroke-width: 3; stroke-linecap: square"/>
   </g>
   <g id="line2d_34">
    <path d="M 85.882224 -1 
L 86.396336 85.62161 
L 86.951954 144.768661 
L 87.535353 185.081215 
L 88.174313 214.404789 
L 88.841055 235.150925 
L 89.535577 250.205135 
L 90.25788 261.366997 
L 91.035745 270.061006 
L 91.841391 276.652763 
L 92.674818 281.723819 
L 93.536025 285.67146 
L 94.452795 288.857668 
L 95.397345 291.356951 
L 96.369676 293.327524 
L 97.397569 294.922244 
L 98.481024 296.199241 
L 99.620041 297.20674 
L 100.870181 298.014789 
L 102.231444 298.626866 
L 103.731613 299.056843 
L 105.426247 299.309008 
L 107.370909 299.366876 
L 109.5656 299.205194 
L 112.06588 298.792802 
L 114.843969 298.104609 
L 117.844305 297.129557 
L 120.983546 295.873781 
L 124.150568 294.367106 
L 127.262028 292.641918 
L 130.290145 290.708228 
L 133.179357 288.599554 
L 135.929666 286.317944 
L 138.541069 283.864621 
L 141.04135 281.210269 
L 143.430506 278.347146 
L 145.708539 275.268385 
L 147.90323 271.924092 
L 150.014578 268.295287 
L 152.042583 264.363266 
L 154.015026 260.045963 
L 155.931908 255.303284 
L 157.793227 250.092663 
L 159.598985 244.370016 
L 161.376962 237.985171 
L 163.127158 230.854065 
L 164.849574 222.887747 
L 166.571989 213.841387 
L 168.294404 203.570534 
L 170.0446 191.739087 
L 171.822577 178.169547 
L 173.739459 161.760402 
L 175.934149 140.944813 
L 182.157069 80.477895 
L 183.490552 70.46828 
L 184.601787 63.707735 
L 185.574119 59.074411 
L 186.435326 55.97057 
L 187.213191 53.931575 
L 187.935494 52.628669 
L 188.602236 51.869594 
L 189.213415 51.493388 
L 189.824595 51.370702 
L 190.491336 51.466304 
L 191.324763 51.829475 
L 192.547122 52.64203 
L 198.881166 57.443578 
L 199.853497 58.653596 
L 200.770266 60.15561 
L 201.687036 62.09139 
L 202.659367 64.689957 
L 203.68726 68.100563 
L 204.826276 72.69863 
L 206.104197 78.843731 
L 207.604366 87.226877 
L 209.521247 99.310282 
L 217.272116 149.673808 
L 219.161216 159.737915 
L 220.911413 167.890161 
L 222.550485 174.493669 
L 224.106215 179.866603 
L 225.578602 184.188818 
L 226.995428 187.688992 
L 228.356691 190.481605 
L 229.662393 192.668557 
L 230.912533 194.339218 
L 232.107112 195.5714 
L 233.246128 196.432688 
L 234.329583 196.981839 
L 235.385257 197.274815 
L 236.440931 197.338432 
L 237.496605 197.181058 
L 238.60784 196.784647 
L 239.774638 196.121487 
L 240.996997 195.162932 
L 242.302699 193.848026 
L 243.691744 192.125834 
L 245.191912 189.897255 
L 246.775422 187.133872 
L 248.470057 183.711227 
L 250.248034 179.602725 
L 252.109354 174.730845 
L 254.081797 168.925683 
L 256.137583 162.16579 
L 258.304492 154.253055 
L 260.582526 145.06773 
L 262.999463 134.373833 
L 265.610867 121.782227 
L 268.52786 106.581905 
L 272.028253 87.094429 
L 278.195611 51.200219 
L 282.584992 26.328074 
L 285.446423 11.342045 
L 287.752237 0.392236 
L 288.065376 -1 
M 316.184633 -1 
L 319.644701 10.214791 
L 324.145205 25.586304 
L 329.229108 43.743313 
L 334.701944 64.14179 
L 347.67562 112.937603 
L 351.120451 124.738953 
L 354.120787 134.246987 
L 356.871095 142.238396 
L 359.426937 148.9979 
L 361.843875 154.779943 
L 364.17747 159.796268 
L 366.427722 164.112367 
L 368.594631 167.796588 
L 370.705979 170.955724 
L 372.761765 173.64001 
L 374.78977 175.927291 
L 376.789994 177.85108 
L 378.762438 179.444394 
L 380.734881 180.756058 
L 382.735105 181.819857 
L 384.76311 182.647518 
L 386.846677 183.259962 
L 389.041367 183.673613 
L 391.402743 183.889538 
L 394.014147 183.899375 
L 397.042264 183.67977 
L 400.987151 183.154386 
L 411.432766 181.655746 
L 414.877596 181.453704 
L 417.961275 181.493811 
L 420.850488 181.751205 
L 423.656358 182.222031 
L 426.462228 182.918791 
L 429.295879 183.851952 
L 432.240654 185.057502 
L 435.379894 186.58726 
L 438.824725 188.518989 
L 442.852954 191.043245 
L 448.298009 194.741363 
L 460.021545 202.765588 
L 464.883201 205.7764 
L 469.300363 208.254411 
L 473.606401 210.415854 
L 477.94022 212.341762 
L 482.468505 214.108463 
L 487.413504 215.793722 
L 493.21971 217.527618 
L 502.137376 219.924173 
L 511.805127 222.588163 
L 517.722457 224.452846 
L 522.917483 226.320442 
L 527.80692 228.313234 
L 532.585233 230.500716 
L 537.391328 232.946889 
L 542.336326 235.715926 
L 547.559134 238.89941 
L 553.254217 242.636511 
L 559.838288 247.231994 
L 565.227781 251.146899 
L 565.227781 251.146899 
" clip-path="url(#p88653f5060)" style="fill: none; stroke-dasharray: 11.1,4.8; stroke-dashoffset: 0; stroke: #000000; stroke-width: 3"/>
   </g>
   <g id="line2d_35">
    <path d="M 85.962784 -1 
L 86.479679 83.959175 
L 87.035297 142.086112 
L 87.646476 183.543201 
L 88.285437 212.279515 
L 88.952178 232.765355 
L 89.646701 247.724787 
L 90.396785 259.236757 
L 91.17465 267.861653 
L 91.980295 274.431395 
L 92.813722 279.504566 
L 93.702711 283.576387 
L 94.61948 286.754253 
L 95.56403 289.252091 
L 96.536362 291.223832 
L 97.564255 292.819839 
L 98.647709 294.096618 
L 99.786726 295.101308 
L 101.009085 295.887911 
L 102.342568 296.483926 
L 103.814955 296.899669 
L 105.481809 297.136074 
L 107.370909 297.174081 
L 109.510038 296.989975 
L 111.926975 296.554237 
L 114.621722 295.837228 
L 117.538716 294.82625 
L 120.594614 293.528099 
L 123.678293 291.975723 
L 126.734191 290.188002 
L 129.706746 288.190561 
L 132.568178 285.998353 
L 135.290705 283.632701 
L 137.902109 281.067699 
L 140.374608 278.328959 
L 142.763765 275.348132 
L 145.041798 272.147995 
L 147.236488 268.677732 
L 149.347836 264.918804 
L 151.375841 260.853 
L 153.348285 256.39677 
L 155.265166 251.510184 
L 157.126486 246.150779 
L 158.960025 240.178238 
L 160.738002 233.619052 
L 162.488198 226.30239 
L 164.210613 218.136481 
L 165.933028 208.868013 
L 167.655444 198.343134 
L 169.377859 186.40966 
L 171.155836 172.477595 
L 173.017156 156.059582 
L 175.072942 135.851254 
L 177.851031 106.075192 
L 181.101395 71.691636 
L 182.657125 57.564247 
L 183.907265 48.130879 
L 184.962939 41.741678 
L 185.907489 37.311307 
L 186.740916 34.388842 
L 187.491 32.494682 
L 188.185522 31.298409 
L 188.824483 30.609834 
L 189.435663 30.263577 
L 190.046842 30.167379 
L 190.741364 30.293436 
L 191.602572 30.691572 
L 192.991617 31.617349 
L 196.158638 33.752215 
L 197.992177 35.040253 
L 199.047851 36.066308 
L 199.96462 37.272724 
L 200.853609 38.820481 
L 201.770378 40.891006 
L 202.714929 43.59898 
L 203.742822 47.262631 
L 204.854057 52.084309 
L 206.104197 58.537458 
L 207.576585 67.369687 
L 209.465685 80.173404 
L 213.327229 108.377012 
L 216.021976 127.096708 
L 218.077762 139.869311 
L 219.9113 149.900355 
L 221.605935 157.970883 
L 223.217227 164.585421 
L 224.745176 169.941864 
L 226.189782 174.230786 
L 227.578826 177.687663 
L 228.912309 180.430096 
L 230.19023 182.562029 
L 231.384809 184.14212 
L 232.523825 185.297982 
L 233.60728 186.095906 
L 234.662954 186.6037 
L 235.690847 186.853153 
L 236.71874 186.870177 
L 237.746633 186.662875 
L 238.830088 186.209291 
L 239.969104 185.479918 
L 241.163682 184.444233 
L 242.441603 183.036545 
L 243.830648 181.161854 
L 245.303035 178.788692 
L 246.886546 175.797569 
L 248.5534 172.159963 
L 250.331377 167.726628 
L 252.192696 162.470477 
L 254.137359 156.301618 
L 256.193145 149.021441 
L 258.332273 140.614588 
L 260.610306 130.734342 
L 263.027244 119.230193 
L 265.638648 105.682966 
L 268.555641 89.326526 
L 272.028253 68.522845 
L 278.001144 31.093254 
L 282.52943 3.390136 
L 283.281953 -1 
M 323.721512 -1 
L 328.534586 17.180799 
L 333.590708 37.165887 
L 341.174892 68.22592 
L 346.675508 90.305701 
L 350.314805 104.018395 
L 353.398484 114.802263 
L 356.204354 123.823401 
L 358.787977 131.401597 
L 361.232695 137.901296 
L 363.56629 143.488408 
L 365.816542 148.308368 
L 367.983452 152.433394 
L 370.0948 155.979845 
L 372.122805 158.963477 
L 374.123029 161.518387 
L 376.095472 163.679576 
L 378.040134 165.48165 
L 379.957016 166.958455 
L 381.873897 168.158338 
L 383.81856 169.114355 
L 385.791003 169.838532 
L 387.846789 170.356482 
L 390.013699 170.671608 
L 392.347294 170.784197 
L 394.958697 170.682739 
L 398.042376 170.332299 
L 402.348414 169.598099 
L 410.099283 168.260246 
L 413.571895 167.90963 
L 416.600012 167.822279 
L 419.433663 167.961663 
L 422.15619 168.318974 
L 424.823156 168.893634 
L 427.490121 169.695304 
L 430.240429 170.757042 
L 433.101861 172.103525 
L 436.157759 173.79074 
L 439.547028 175.921507 
L 443.547476 178.709778 
L 449.131436 182.900018 
L 459.493708 190.700306 
L 464.299802 194.00668 
L 468.605841 196.702951 
L 472.745193 199.034985 
L 476.884546 201.112094 
L 481.135023 202.996132 
L 485.691089 204.769526 
L 490.830554 206.524478 
L 497.386844 208.512054 
L 513.499761 213.299602 
L 518.944816 215.214244 
L 523.862034 217.177298 
L 528.529223 219.279255 
L 533.11307 221.587408 
L 537.752479 224.175024 
L 542.530793 227.098796 
L 547.559134 230.440373 
L 553.03197 234.349746 
L 559.310451 239.117382 
L 565.227781 243.80646 
L 565.227781 243.80646 
" clip-path="url(#p88653f5060)" style="fill: none; stroke-dasharray: 3,4.95; stroke-dashoffset: 0; stroke: #000000; stroke-width: 3"/>
   </g>
   <g id="patch_3">
    <path d="M 83.396 327.777708 
L 83.396 17.64 
" style="fill: none; stroke: #000000; stroke-width: 0.8; stroke-linejoin: miter; stroke-linecap: square"/>
   </g>
   <g id="patch_4">
    <path d="M 565.2 327.777708 
L 565.2 17.64 
" style="fill: none; stroke: #000000; stroke-width: 0.8; stroke-linejoin: miter; stroke-linecap: square"/>
   </g>
   <g id="patch_5">
    <path d="M 83.396 327.777708 
L 565.2 327.777708 
" style="fill: none; stroke: #000000; stroke-width: 0.8; stroke-linejoin: miter; stroke-linecap: square"/>
   </g>
   <g id="patch_6">
    <path d="M 83.396 17.64 
L 565.2 17.64 
" style="fill: none; stroke: #000000; stroke-width: 0.8; stroke-linejoin: miter; stroke-linecap: square"/>
   </g>
   <g id="legend_1">
    <g id="patch_7">
     <path d="M 450.875 100.895 
L 554 100.895 
Q 557.2 100.895 557.2 97.695 
L 557.2 28.84 
Q 557.2 25.64 554 25.64 
L 450.875 25.64 
Q 447.675 25.64 447.675 28.84 
L 447.675 97.695 
Q 447.675 100.895 450.875 100.895 
z
" style="fill: #ffffff; opacity: 0.8; stroke: #cccccc; stroke-linejoin: miter"/>
    </g>
    <g id="line2d_36">
     <path d="M 454.075 38.5975 
L 470.075 38.5975 
L 486.075 38.5975 
" style="fill: none; stroke: #000000; stroke-width: 3; stroke-linecap: square"/>
    </g>
    <g id="text_11">
     <!-- NL -->
     <g transform="translate(498.875 44.1975) scale(0.16 -0.16)">
      <defs>
       <path id="DejaVuSans-4e" d="M 628 4666 
L 1478 4666 
L 3547 763 
L 3547 4666 
L 4159 4666 
L 4159 0 
L 3309 0 
L 1241 3903 
L 1241 0 
L 628 0 
L 628 4666 
z
" transform="scale(0.015625)"/>
       <path id="DejaVuSans-4c" d="M 628 4666 
L 1259 4666 
L 1259 531 
L 3531 531 
L 3531 0 
L 628 0 
L 628 4666 
z
" transform="scale(0.015625)"/>
      </defs>
      <use xlink:href="#DejaVuSans-4e"/>
      <use xlink:href="#DejaVuSans-4c" transform="translate(74.804688 0)"/>
     </g>
    </g>
    <g id="line2d_37">
     <path d="M 454.075 62.0825 
L 470.075 62.0825 
L 486.075 62.0825 
" style="fill: none; stroke-dasharray: 11.1,4.8; stroke-dashoffset: 0; stroke: #000000; stroke-width: 3"/>
    </g>
    <g id="text_12">
     <!-- LENLO -->
     <g transform="translate(498.875 67.6825) scale(0.16 -0.16)">
      <defs>
       <path id="DejaVuSans-45" d="M 628 4666 
L 3578 4666 
L 3578 4134 
L 1259 4134 
L 1259 2753 
L 3481 2753 
L 3481 2222 
L 1259 2222 
L 1259 531 
L 3634 531 
L 3634 0 
L 628 0 
L 628 4666 
z
" transform="scale(0.015625)"/>
       <path id="DejaVuSans-4f" d="M 2522 4238 
Q 1834 4238 1429 3725 
Q 1025 3213 1025 2328 
Q 1025 1447 1429 934 
Q 1834 422 2522 422 
Q 3209 422 3611 934 
Q 4013 1447 4013 2328 
Q 4013 3213 3611 3725 
Q 3209 4238 2522 4238 
z
M 2522 4750 
Q 3503 4750 4090 4092 
Q 4678 3434 4678 2328 
Q 4678 1225 4090 567 
Q 3503 -91 2522 -91 
Q 1538 -91 948 565 
Q 359 1222 359 2328 
Q 359 3434 948 4092 
Q 1538 4750 2522 4750 
z
" transform="scale(0.015625)"/>
      </defs>
      <use xlink:href="#DejaVuSans-4c"/>
      <use xlink:href="#DejaVuSans-45" transform="translate(55.712891 0)"/>
      <use xlink:href="#DejaVuSans-4e" transform="translate(118.896484 0)"/>
      <use xlink:href="#DejaVuSans-4c" transform="translate(193.701172 0)"/>
      <use xlink:href="#DejaVuSans-4f" transform="translate(245.789062 0)"/>
     </g>
    </g>
    <g id="line2d_38">
     <path d="M 454.075 85.5675 
L 470.075 85.5675 
L 486.075 85.5675 
" style="fill: none; stroke-dasharray: 3,4.95; stroke-dashoffset: 0; stroke: #000000; stroke-width: 3"/>
    </g>
    <g id="text_13">
     <!-- LELO -->
     <g transform="translate(498.875 91.1675) scale(0.16 -0.16)">
      <use xlink:href="#DejaVuSans-4c"/>
      <use xlink:href="#DejaVuSans-45" transform="translate(55.712891 0)"/>
      <use xlink:href="#DejaVuSans-4c" transform="translate(118.896484 0)"/>
      <use xlink:href="#DejaVuSans-4f" transform="translate(170.984375 0)"/>
     </g>
    </g>
   </g>
  </g>
  <g id="axes_2">
   <g id="patch_8">
    <path d="M 83.396 660.76 
L 565.2 660.76 
L 565.2 350.622292 
L 83.396 350.622292 
L 83.396 660.76 
z
" style="fill: none"/>
   </g>
   <g id="matplotlib.axis_3">
    <g id="xtick_8">
     <g id="line2d_39">
      <path d="M 83.396 660.76 
L 83.396 350.622292 
" clip-path="url(#paf30917535)" style="fill: none; stroke: #b0b0b0; stroke-opacity: 0.2; stroke-width: 0.8; stroke-linecap: square"/>
     </g>
     <g id="line2d_40">
      <g>
       <use xlink:href="#m8d0e405c4f" x="83.396" y="660.76" style="stroke: #000000; stroke-width: 0.8"/>
      </g>
     </g>
     <g id="text_14">
      <!-- 0.0 -->
      <g transform="translate(69.083188 681.437187) scale(0.18 -0.18)">
       <defs>
        <path id="DejaVuSans-2e" d="M 684 794 
L 1344 794 
L 1344 0 
L 684 0 
L 684 794 
z
" transform="scale(0.015625)"/>
       </defs>
       <use xlink:href="#DejaVuSans-30"/>
       <use xlink:href="#DejaVuSans-2e" transform="translate(63.623047 0)"/>
       <use xlink:href="#DejaVuSans-30" transform="translate(95.410156 0)"/>
      </g>
     </g>
    </g>
    <g id="xtick_9">
     <g id="line2d_41">
      <path d="M 152.848229 660.76 
L 152.848229 350.622292 
" clip-path="url(#paf30917535)" style="fill: none; stroke: #b0b0b0; stroke-opacity: 0.2; stroke-width: 0.8; stroke-linecap: square"/>
     </g>
     <g id="line2d_42">
      <g>
       <use xlink:href="#m8d0e405c4f" x="152.848229" y="660.76" style="stroke: #000000; stroke-width: 0.8"/>
      </g>
     </g>
     <g id="text_15">
      <!-- 2.5 -->
      <g transform="translate(138.535416 681.437187) scale(0.18 -0.18)">
       <use xlink:href="#DejaVuSans-32"/>
       <use xlink:href="#DejaVuSans-2e" transform="translate(63.623047 0)"/>
       <use xlink:href="#DejaVuSans-35" transform="translate(95.410156 0)"/>
      </g>
     </g>
    </g>
    <g id="xtick_10">
     <g id="line2d_43">
      <path d="M 222.300457 660.76 
L 222.300457 350.622292 
" clip-path="url(#paf30917535)" style="fill: none; stroke: #b0b0b0; stroke-opacity: 0.2; stroke-width: 0.8; stroke-linecap: square"/>
     </g>
     <g id="line2d_44">
      <g>
       <use xlink:href="#m8d0e405c4f" x="222.300457" y="660.76" style="stroke: #000000; stroke-width: 0.8"/>
      </g>
     </g>
     <g id="text_16">
      <!-- 5.0 -->
      <g transform="translate(207.987645 681.437187) scale(0.18 -0.18)">
       <use xlink:href="#DejaVuSans-35"/>
       <use xlink:href="#DejaVuSans-2e" transform="translate(63.623047 0)"/>
       <use xlink:href="#DejaVuSans-30" transform="translate(95.410156 0)"/>
      </g>
     </g>
    </g>
    <g id="xtick_11">
     <g id="line2d_45">
      <path d="M 291.752686 660.76 
L 291.752686 350.622292 
" clip-path="url(#paf30917535)" style="fill: none; stroke: #b0b0b0; stroke-opacity: 0.2; stroke-width: 0.8; stroke-linecap: square"/>
     </g>
     <g id="line2d_46">
      <g>
       <use xlink:href="#m8d0e405c4f" x="291.752686" y="660.76" style="stroke: #000000; stroke-width: 0.8"/>
      </g>
     </g>
     <g id="text_17">
      <!-- 7.5 -->
      <g transform="translate(277.439873 681.437187) scale(0.18 -0.18)">
       <use xlink:href="#DejaVuSans-37"/>
       <use xlink:href="#DejaVuSans-2e" transform="translate(63.623047 0)"/>
       <use xlink:href="#DejaVuSans-35" transform="translate(95.410156 0)"/>
      </g>
     </g>
    </g>
    <g id="xtick_12">
     <g id="line2d_47">
      <path d="M 361.204914 660.76 
L 361.204914 350.622292 
" clip-path="url(#paf30917535)" style="fill: none; stroke: #b0b0b0; stroke-opacity: 0.2; stroke-width: 0.8; stroke-linecap: square"/>
     </g>
     <g id="line2d_48">
      <g>
       <use xlink:href="#m8d0e405c4f" x="361.204914" y="660.76" style="stroke: #000000; stroke-width: 0.8"/>
      </g>
     </g>
     <g id="text_18">
      <!-- 10.0 -->
      <g transform="translate(341.165852 681.437187) scale(0.18 -0.18)">
       <use xlink:href="#DejaVuSans-31"/>
       <use xlink:href="#DejaVuSans-30" transform="translate(63.623047 0)"/>
       <use xlink:href="#DejaVuSans-2e" transform="translate(127.246094 0)"/>
       <use xlink:href="#DejaVuSans-30" transform="translate(159.033203 0)"/>
      </g>
     </g>
    </g>
    <g id="xtick_13">
     <g id="line2d_49">
      <path d="M 430.657143 660.76 
L 430.657143 350.622292 
" clip-path="url(#paf30917535)" style="fill: none; stroke: #b0b0b0; stroke-opacity: 0.2; stroke-width: 0.8; stroke-linecap: square"/>
     </g>
     <g id="line2d_50">
      <g>
       <use xlink:href="#m8d0e405c4f" x="430.657143" y="660.76" style="stroke: #000000; stroke-width: 0.8"/>
      </g>
     </g>
     <g id="text_19">
      <!-- 12.5 -->
      <g transform="translate(410.61808 681.437187) scale(0.18 -0.18)">
       <use xlink:href="#DejaVuSans-31"/>
       <use xlink:href="#DejaVuSans-32" transform="translate(63.623047 0)"/>
       <use xlink:href="#DejaVuSans-2e" transform="translate(127.246094 0)"/>
       <use xlink:href="#DejaVuSans-35" transform="translate(159.033203 0)"/>
      </g>
     </g>
    </g>
    <g id="xtick_14">
     <g id="line2d_51">
      <path d="M 500.109371 660.76 
L 500.109371 350.622292 
" clip-path="url(#paf30917535)" style="fill: none; stroke: #b0b0b0; stroke-opacity: 0.2; stroke-width: 0.8; stroke-linecap: square"/>
     </g>
     <g id="line2d_52">
      <g>
       <use xlink:href="#m8d0e405c4f" x="500.109371" y="660.76" style="stroke: #000000; stroke-width: 0.8"/>
      </g>
     </g>
     <g id="text_20">
      <!-- 15.0 -->
      <g transform="translate(480.070309 681.437187) scale(0.18 -0.18)">
       <use xlink:href="#DejaVuSans-31"/>
       <use xlink:href="#DejaVuSans-35" transform="translate(63.623047 0)"/>
       <use xlink:href="#DejaVuSans-2e" transform="translate(127.246094 0)"/>
       <use xlink:href="#DejaVuSans-30" transform="translate(159.033203 0)"/>
      </g>
     </g>
    </g>
    <g id="text_21">
     <!-- Excitation Energy (MeV) -->
     <g transform="translate(203.962062 704.3775) scale(0.2 -0.2)">
      <defs>
       <path id="DejaVuSans-78" d="M 3513 3500 
L 2247 1797 
L 3578 0 
L 2900 0 
L 1881 1375 
L 863 0 
L 184 0 
L 1544 1831 
L 300 3500 
L 978 3500 
L 1906 2253 
L 2834 3500 
L 3513 3500 
z
" transform="scale(0.015625)"/>
       <path id="DejaVuSans-63" d="M 3122 3366 
L 3122 2828 
Q 2878 2963 2633 3030 
Q 2388 3097 2138 3097 
Q 1578 3097 1268 2742 
Q 959 2388 959 1747 
Q 959 1106 1268 751 
Q 1578 397 2138 397 
Q 2388 397 2633 464 
Q 2878 531 3122 666 
L 3122 134 
Q 2881 22 2623 -34 
Q 2366 -91 2075 -91 
Q 1284 -91 818 406 
Q 353 903 353 1747 
Q 353 2603 823 3093 
Q 1294 3584 2113 3584 
Q 2378 3584 2631 3529 
Q 2884 3475 3122 3366 
z
" transform="scale(0.015625)"/>
       <path id="DejaVuSans-69" d="M 603 3500 
L 1178 3500 
L 1178 0 
L 603 0 
L 603 3500 
z
M 603 4863 
L 1178 4863 
L 1178 4134 
L 603 4134 
L 603 4863 
z
" transform="scale(0.015625)"/>
       <path id="DejaVuSans-74" d="M 1172 4494 
L 1172 3500 
L 2356 3500 
L 2356 3053 
L 1172 3053 
L 1172 1153 
Q 1172 725 1289 603 
Q 1406 481 1766 481 
L 2356 481 
L 2356 0 
L 1766 0 
Q 1100 0 847 248 
Q 594 497 594 1153 
L 594 3053 
L 172 3053 
L 172 3500 
L 594 3500 
L 594 4494 
L 1172 4494 
z
" transform="scale(0.015625)"/>
       <path id="DejaVuSans-61" d="M 2194 1759 
Q 1497 1759 1228 1600 
Q 959 1441 959 1056 
Q 959 750 1161 570 
Q 1363 391 1709 391 
Q 2188 391 2477 730 
Q 2766 1069 2766 1631 
L 2766 1759 
L 2194 1759 
z
M 3341 1997 
L 3341 0 
L 2766 0 
L 2766 531 
Q 2569 213 2275 61 
Q 1981 -91 1556 -91 
Q 1019 -91 701 211 
Q 384 513 384 1019 
Q 384 1609 779 1909 
Q 1175 2209 1959 2209 
L 2766 2209 
L 2766 2266 
Q 2766 2663 2505 2880 
Q 2244 3097 1772 3097 
Q 1472 3097 1187 3025 
Q 903 2953 641 2809 
L 641 3341 
Q 956 3463 1253 3523 
Q 1550 3584 1831 3584 
Q 2591 3584 2966 3190 
Q 3341 2797 3341 1997 
z
" transform="scale(0.015625)"/>
       <path id="DejaVuSans-6f" d="M 1959 3097 
Q 1497 3097 1228 2736 
Q 959 2375 959 1747 
Q 959 1119 1226 758 
Q 1494 397 1959 397 
Q 2419 397 2687 759 
Q 2956 1122 2956 1747 
Q 2956 2369 2687 2733 
Q 2419 3097 1959 3097 
z
M 1959 3584 
Q 2709 3584 3137 3096 
Q 3566 2609 3566 1747 
Q 3566 888 3137 398 
Q 2709 -91 1959 -91 
Q 1206 -91 779 398 
Q 353 888 353 1747 
Q 353 2609 779 3096 
Q 1206 3584 1959 3584 
z
" transform="scale(0.015625)"/>
       <path id="DejaVuSans-6e" d="M 3513 2113 
L 3513 0 
L 2938 0 
L 2938 2094 
Q 2938 2591 2744 2837 
Q 2550 3084 2163 3084 
Q 1697 3084 1428 2787 
Q 1159 2491 1159 1978 
L 1159 0 
L 581 0 
L 581 3500 
L 1159 3500 
L 1159 2956 
Q 1366 3272 1645 3428 
Q 1925 3584 2291 3584 
Q 2894 3584 3203 3211 
Q 3513 2838 3513 2113 
z
" transform="scale(0.015625)"/>
       <path id="DejaVuSans-65" d="M 3597 1894 
L 3597 1613 
L 953 1613 
Q 991 1019 1311 708 
Q 1631 397 2203 397 
Q 2534 397 2845 478 
Q 3156 559 3463 722 
L 3463 178 
Q 3153 47 2828 -22 
Q 2503 -91 2169 -91 
Q 1331 -91 842 396 
Q 353 884 353 1716 
Q 353 2575 817 3079 
Q 1281 3584 2069 3584 
Q 2775 3584 3186 3129 
Q 3597 2675 3597 1894 
z
M 3022 2063 
Q 3016 2534 2758 2815 
Q 2500 3097 2075 3097 
Q 1594 3097 1305 2825 
Q 1016 2553 972 2059 
L 3022 2063 
z
" transform="scale(0.015625)"/>
       <path id="DejaVuSans-72" d="M 2631 2963 
Q 2534 3019 2420 3045 
Q 2306 3072 2169 3072 
Q 1681 3072 1420 2755 
Q 1159 2438 1159 1844 
L 1159 0 
L 581 0 
L 581 3500 
L 1159 3500 
L 1159 2956 
Q 1341 3275 1631 3429 
Q 1922 3584 2338 3584 
Q 2397 3584 2469 3576 
Q 2541 3569 2628 3553 
L 2631 2963 
z
" transform="scale(0.015625)"/>
       <path id="DejaVuSans-67" d="M 2906 1791 
Q 2906 2416 2648 2759 
Q 2391 3103 1925 3103 
Q 1463 3103 1205 2759 
Q 947 2416 947 1791 
Q 947 1169 1205 825 
Q 1463 481 1925 481 
Q 2391 481 2648 825 
Q 2906 1169 2906 1791 
z
M 3481 434 
Q 3481 -459 3084 -895 
Q 2688 -1331 1869 -1331 
Q 1566 -1331 1297 -1286 
Q 1028 -1241 775 -1147 
L 775 -588 
Q 1028 -725 1275 -790 
Q 1522 -856 1778 -856 
Q 2344 -856 2625 -561 
Q 2906 -266 2906 331 
L 2906 616 
Q 2728 306 2450 153 
Q 2172 0 1784 0 
Q 1141 0 747 490 
Q 353 981 353 1791 
Q 353 2603 747 3093 
Q 1141 3584 1784 3584 
Q 2172 3584 2450 3431 
Q 2728 3278 2906 2969 
L 2906 3500 
L 3481 3500 
L 3481 434 
z
" transform="scale(0.015625)"/>
       <path id="DejaVuSans-79" d="M 2059 -325 
Q 1816 -950 1584 -1140 
Q 1353 -1331 966 -1331 
L 506 -1331 
L 506 -850 
L 844 -850 
Q 1081 -850 1212 -737 
Q 1344 -625 1503 -206 
L 1606 56 
L 191 3500 
L 800 3500 
L 1894 763 
L 2988 3500 
L 3597 3500 
L 2059 -325 
z
" transform="scale(0.015625)"/>
       <path id="DejaVuSans-28" d="M 1984 4856 
Q 1566 4138 1362 3434 
Q 1159 2731 1159 2009 
Q 1159 1288 1364 580 
Q 1569 -128 1984 -844 
L 1484 -844 
Q 1016 -109 783 600 
Q 550 1309 550 2009 
Q 550 2706 781 3412 
Q 1013 4119 1484 4856 
L 1984 4856 
z
" transform="scale(0.015625)"/>
       <path id="DejaVuSans-4d" d="M 628 4666 
L 1569 4666 
L 2759 1491 
L 3956 4666 
L 4897 4666 
L 4897 0 
L 4281 0 
L 4281 4097 
L 3078 897 
L 2444 897 
L 1241 4097 
L 1241 0 
L 628 0 
L 628 4666 
z
" transform="scale(0.015625)"/>
       <path id="DejaVuSans-56" d="M 1831 0 
L 50 4666 
L 709 4666 
L 2188 738 
L 3669 4666 
L 4325 4666 
L 2547 0 
L 1831 0 
z
" transform="scale(0.015625)"/>
       <path id="DejaVuSans-29" d="M 513 4856 
L 1013 4856 
Q 1481 4119 1714 3412 
Q 1947 2706 1947 2009 
Q 1947 1309 1714 600 
Q 1481 -109 1013 -844 
L 513 -844 
Q 928 -128 1133 580 
Q 1338 1288 1338 2009 
Q 1338 2731 1133 3434 
Q 928 4138 513 4856 
z
" transform="scale(0.015625)"/>
      </defs>
      <use xlink:href="#DejaVuSans-45"/>
      <use xlink:href="#DejaVuSans-78" transform="translate(63.183594 0)"/>
      <use xlink:href="#DejaVuSans-63" transform="translate(120.613281 0)"/>
      <use xlink:href="#DejaVuSans-69" transform="translate(175.59375 0)"/>
      <use xlink:href="#DejaVuSans-74" transform="translate(203.376953 0)"/>
      <use xlink:href="#DejaVuSans-61" transform="translate(242.585938 0)"/>
      <use xlink:href="#DejaVuSans-74" transform="translate(303.865234 0)"/>
      <use xlink:href="#DejaVuSans-69" transform="translate(343.074219 0)"/>
      <use xlink:href="#DejaVuSans-6f" transform="translate(370.857422 0)"/>
      <use xlink:href="#DejaVuSans-6e" transform="translate(432.039062 0)"/>
      <use xlink:href="#DejaVuSans-20" transform="translate(495.417969 0)"/>
      <use xlink:href="#DejaVuSans-45" transform="translate(527.205078 0)"/>
      <use xlink:href="#DejaVuSans-6e" transform="translate(590.388672 0)"/>
      <use xlink:href="#DejaVuSans-65" transform="translate(653.767578 0)"/>
      <use xlink:href="#DejaVuSans-72" transform="translate(715.291016 0)"/>
      <use xlink:href="#DejaVuSans-67" transform="translate(754.654297 0)"/>
      <use xlink:href="#DejaVuSans-79" transform="translate(818.130859 0)"/>
      <use xlink:href="#DejaVuSans-20" transform="translate(877.310547 0)"/>
      <use xlink:href="#DejaVuSans-28" transform="translate(909.097656 0)"/>
      <use xlink:href="#DejaVuSans-4d" transform="translate(948.111328 0)"/>
      <use xlink:href="#DejaVuSans-65" transform="translate(1034.390625 0)"/>
      <use xlink:href="#DejaVuSans-56" transform="translate(1095.914062 0)"/>
      <use xlink:href="#DejaVuSans-29" transform="translate(1164.322266 0)"/>
     </g>
    </g>
   </g>
   <g id="matplotlib.axis_4">
    <g id="ytick_10">
     <g id="line2d_53">
      <path d="M 83.396 654.226013 
L 565.2 654.226013 
" clip-path="url(#paf30917535)" style="fill: none; stroke: #b0b0b0; stroke-opacity: 0.2; stroke-width: 0.8; stroke-linecap: square"/>
     </g>
     <g id="line2d_54">
      <g>
       <use xlink:href="#m0518574b00" x="83.396" y="654.226013" style="stroke: #000000; stroke-width: 0.8"/>
      </g>
     </g>
     <g id="text_22">
      <!-- 0.98 -->
      <g transform="translate(36.317875 661.064607) scale(0.18 -0.18)">
       <defs>
        <path id="DejaVuSans-39" d="M 703 97 
L 703 672 
Q 941 559 1184 500 
Q 1428 441 1663 441 
Q 2288 441 2617 861 
Q 2947 1281 2994 2138 
Q 2813 1869 2534 1725 
Q 2256 1581 1919 1581 
Q 1219 1581 811 2004 
Q 403 2428 403 3163 
Q 403 3881 828 4315 
Q 1253 4750 1959 4750 
Q 2769 4750 3195 4129 
Q 3622 3509 3622 2328 
Q 3622 1225 3098 567 
Q 2575 -91 1691 -91 
Q 1453 -91 1209 -44 
Q 966 3 703 97 
z
M 1959 2075 
Q 2384 2075 2632 2365 
Q 2881 2656 2881 3163 
Q 2881 3666 2632 3958 
Q 2384 4250 1959 4250 
Q 1534 4250 1286 3958 
Q 1038 3666 1038 3163 
Q 1038 2656 1286 2365 
Q 1534 2075 1959 2075 
z
" transform="scale(0.015625)"/>
       </defs>
       <use xlink:href="#DejaVuSans-30"/>
       <use xlink:href="#DejaVuSans-2e" transform="translate(63.623047 0)"/>
       <use xlink:href="#DejaVuSans-39" transform="translate(95.410156 0)"/>
       <use xlink:href="#DejaVuSans-38" transform="translate(159.033203 0)"/>
      </g>
     </g>
    </g>
    <g id="ytick_11">
     <g id="line2d_55">
      <path d="M 83.396 624.384119 
L 565.2 624.384119 
" clip-path="url(#paf30917535)" style="fill: none; stroke: #b0b0b0; stroke-opacity: 0.2; stroke-width: 0.8; stroke-linecap: square"/>
     </g>
     <g id="line2d_56">
      <g>
       <use xlink:href="#m0518574b00" x="83.396" y="624.384119" style="stroke: #000000; stroke-width: 0.8"/>
      </g>
     </g>
     <g id="text_23">
      <!-- 0.99 -->
      <g transform="translate(36.317875 631.222713) scale(0.18 -0.18)">
       <use xlink:href="#DejaVuSans-30"/>
       <use xlink:href="#DejaVuSans-2e" transform="translate(63.623047 0)"/>
       <use xlink:href="#DejaVuSans-39" transform="translate(95.410156 0)"/>
       <use xlink:href="#DejaVuSans-39" transform="translate(159.033203 0)"/>
      </g>
     </g>
    </g>
    <g id="ytick_12">
     <g id="line2d_57">
      <path d="M 83.396 594.542225 
L 565.2 594.542225 
" clip-path="url(#paf30917535)" style="fill: none; stroke: #b0b0b0; stroke-opacity: 0.2; stroke-width: 0.8; stroke-linecap: square"/>
     </g>
     <g id="line2d_58">
      <g>
       <use xlink:href="#m0518574b00" x="83.396" y="594.542225" style="stroke: #000000; stroke-width: 0.8"/>
      </g>
     </g>
     <g id="text_24">
      <!-- 1.00 -->
      <g transform="translate(36.317875 601.380819) scale(0.18 -0.18)">
       <use xlink:href="#DejaVuSans-31"/>
       <use xlink:href="#DejaVuSans-2e" transform="translate(63.623047 0)"/>
       <use xlink:href="#DejaVuSans-30" transform="translate(95.410156 0)"/>
       <use xlink:href="#DejaVuSans-30" transform="translate(159.033203 0)"/>
      </g>
     </g>
    </g>
    <g id="ytick_13">
     <g id="line2d_59">
      <path d="M 83.396 564.700332 
L 565.2 564.700332 
" clip-path="url(#paf30917535)" style="fill: none; stroke: #b0b0b0; stroke-opacity: 0.2; stroke-width: 0.8; stroke-linecap: square"/>
     </g>
     <g id="line2d_60">
      <g>
       <use xlink:href="#m0518574b00" x="83.396" y="564.700332" style="stroke: #000000; stroke-width: 0.8"/>
      </g>
     </g>
     <g id="text_25">
      <!-- 1.01 -->
      <g transform="translate(36.317875 571.538925) scale(0.18 -0.18)">
       <use xlink:href="#DejaVuSans-31"/>
       <use xlink:href="#DejaVuSans-2e" transform="translate(63.623047 0)"/>
       <use xlink:href="#DejaVuSans-30" transform="translate(95.410156 0)"/>
       <use xlink:href="#DejaVuSans-31" transform="translate(159.033203 0)"/>
      </g>
     </g>
    </g>
    <g id="ytick_14">
     <g id="line2d_61">
      <path d="M 83.396 534.858438 
L 565.2 534.858438 
" clip-path="url(#paf30917535)" style="fill: none; stroke: #b0b0b0; stroke-opacity: 0.2; stroke-width: 0.8; stroke-linecap: square"/>
     </g>
     <g id="line2d_62">
      <g>
       <use xlink:href="#m0518574b00" x="83.396" y="534.858438" style="stroke: #000000; stroke-width: 0.8"/>
      </g>
     </g>
     <g id="text_26">
      <!-- 1.02 -->
      <g transform="translate(36.317875 541.697031) scale(0.18 -0.18)">
       <use xlink:href="#DejaVuSans-31"/>
       <use xlink:href="#DejaVuSans-2e" transform="translate(63.623047 0)"/>
       <use xlink:href="#DejaVuSans-30" transform="translate(95.410156 0)"/>
       <use xlink:href="#DejaVuSans-32" transform="translate(159.033203 0)"/>
      </g>
     </g>
    </g>
    <g id="ytick_15">
     <g id="line2d_63">
      <path d="M 83.396 505.016544 
L 565.2 505.016544 
" clip-path="url(#paf30917535)" style="fill: none; stroke: #b0b0b0; stroke-opacity: 0.2; stroke-width: 0.8; stroke-linecap: square"/>
     </g>
     <g id="line2d_64">
      <g>
       <use xlink:href="#m0518574b00" x="83.396" y="505.016544" style="stroke: #000000; stroke-width: 0.8"/>
      </g>
     </g>
     <g id="text_27">
      <!-- 1.03 -->
      <g transform="translate(36.317875 511.855138) scale(0.18 -0.18)">
       <use xlink:href="#DejaVuSans-31"/>
       <use xlink:href="#DejaVuSans-2e" transform="translate(63.623047 0)"/>
       <use xlink:href="#DejaVuSans-30" transform="translate(95.410156 0)"/>
       <use xlink:href="#DejaVuSans-33" transform="translate(159.033203 0)"/>
      </g>
     </g>
    </g>
    <g id="ytick_16">
     <g id="line2d_65">
      <path d="M 83.396 475.17465 
L 565.2 475.17465 
" clip-path="url(#paf30917535)" style="fill: none; stroke: #b0b0b0; stroke-opacity: 0.2; stroke-width: 0.8; stroke-linecap: square"/>
     </g>
     <g id="line2d_66">
      <g>
       <use xlink:href="#m0518574b00" x="83.396" y="475.17465" style="stroke: #000000; stroke-width: 0.8"/>
      </g>
     </g>
     <g id="text_28">
      <!-- 1.04 -->
      <g transform="translate(36.317875 482.013244) scale(0.18 -0.18)">
       <use xlink:href="#DejaVuSans-31"/>
       <use xlink:href="#DejaVuSans-2e" transform="translate(63.623047 0)"/>
       <use xlink:href="#DejaVuSans-30" transform="translate(95.410156 0)"/>
       <use xlink:href="#DejaVuSans-34" transform="translate(159.033203 0)"/>
      </g>
     </g>
    </g>
    <g id="ytick_17">
     <g id="line2d_67">
      <path d="M 83.396 445.332756 
L 565.2 445.332756 
" clip-path="url(#paf30917535)" style="fill: none; stroke: #b0b0b0; stroke-opacity: 0.2; stroke-width: 0.8; stroke-linecap: square"/>
     </g>
     <g id="line2d_68">
      <g>
       <use xlink:href="#m0518574b00" x="83.396" y="445.332756" style="stroke: #000000; stroke-width: 0.8"/>
      </g>
     </g>
     <g id="text_29">
      <!-- 1.05 -->
      <g transform="translate(36.317875 452.17135) scale(0.18 -0.18)">
       <use xlink:href="#DejaVuSans-31"/>
       <use xlink:href="#DejaVuSans-2e" transform="translate(63.623047 0)"/>
       <use xlink:href="#DejaVuSans-30" transform="translate(95.410156 0)"/>
       <use xlink:href="#DejaVuSans-35" transform="translate(159.033203 0)"/>
      </g>
     </g>
    </g>
    <g id="ytick_18">
     <g id="line2d_69">
      <path d="M 83.396 415.490863 
L 565.2 415.490863 
" clip-path="url(#paf30917535)" style="fill: none; stroke: #b0b0b0; stroke-opacity: 0.2; stroke-width: 0.8; stroke-linecap: square"/>
     </g>
     <g id="line2d_70">
      <g>
       <use xlink:href="#m0518574b00" x="83.396" y="415.490863" style="stroke: #000000; stroke-width: 0.8"/>
      </g>
     </g>
     <g id="text_30">
      <!-- 1.06 -->
      <g transform="translate(36.317875 422.329456) scale(0.18 -0.18)">
       <use xlink:href="#DejaVuSans-31"/>
       <use xlink:href="#DejaVuSans-2e" transform="translate(63.623047 0)"/>
       <use xlink:href="#DejaVuSans-30" transform="translate(95.410156 0)"/>
       <use xlink:href="#DejaVuSans-36" transform="translate(159.033203 0)"/>
      </g>
     </g>
    </g>
    <g id="ytick_19">
     <g id="line2d_71">
      <path d="M 83.396 385.648969 
L 565.2 385.648969 
" clip-path="url(#paf30917535)" style="fill: none; stroke: #b0b0b0; stroke-opacity: 0.2; stroke-width: 0.8; stroke-linecap: square"/>
     </g>
     <g id="line2d_72">
      <g>
       <use xlink:href="#m0518574b00" x="83.396" y="385.648969" style="stroke: #000000; stroke-width: 0.8"/>
      </g>
     </g>
     <g id="text_31">
      <!-- 1.07 -->
      <g transform="translate(36.317875 392.487563) scale(0.18 -0.18)">
       <use xlink:href="#DejaVuSans-31"/>
       <use xlink:href="#DejaVuSans-2e" transform="translate(63.623047 0)"/>
       <use xlink:href="#DejaVuSans-30" transform="translate(95.410156 0)"/>
       <use xlink:href="#DejaVuSans-37" transform="translate(159.033203 0)"/>
      </g>
     </g>
    </g>
    <g id="ytick_20">
     <g id="line2d_73">
      <path d="M 83.396 355.807075 
L 565.2 355.807075 
" clip-path="url(#paf30917535)" style="fill: none; stroke: #b0b0b0; stroke-opacity: 0.2; stroke-width: 0.8; stroke-linecap: square"/>
     </g>
     <g id="line2d_74">
      <g>
       <use xlink:href="#m0518574b00" x="83.396" y="355.807075" style="stroke: #000000; stroke-width: 0.8"/>
      </g>
     </g>
     <g id="text_32">
      <!-- 1.08 -->
      <g transform="translate(36.317875 362.645669) scale(0.18 -0.18)">
       <use xlink:href="#DejaVuSans-31"/>
       <use xlink:href="#DejaVuSans-2e" transform="translate(63.623047 0)"/>
       <use xlink:href="#DejaVuSans-30" transform="translate(95.410156 0)"/>
       <use xlink:href="#DejaVuSans-38" transform="translate(159.033203 0)"/>
      </g>
     </g>
    </g>
    <g id="text_33">
     <!-- $\sigma_{LE}/\sigma_{NL}$ -->
     <g transform="translate(28.1585 539.791146) rotate(-90) scale(0.2 -0.2)">
      <defs>
       <path id="DejaVuSans-Oblique-4c" d="M 1075 4666 
L 1709 4666 
L 909 525 
L 3181 525 
L 3078 0 
L 172 0 
L 1075 4666 
z
" transform="scale(0.015625)"/>
       <path id="DejaVuSans-Oblique-45" d="M 1081 4666 
L 4031 4666 
L 3928 4134 
L 1606 4134 
L 1338 2753 
L 3566 2753 
L 3463 2222 
L 1234 2222 
L 909 531 
L 3284 531 
L 3181 0 
L 172 0 
L 1081 4666 
z
" transform="scale(0.015625)"/>
       <path id="DejaVuSans-2f" d="M 1625 4666 
L 2156 4666 
L 531 -594 
L 0 -594 
L 1625 4666 
z
" transform="scale(0.015625)"/>
       <path id="DejaVuSans-Oblique-4e" d="M 1081 4666 
L 1931 4666 
L 3219 666 
L 4000 4666 
L 4616 4666 
L 3706 0 
L 2853 0 
L 1569 4025 
L 788 0 
L 172 0 
L 1081 4666 
z
" transform="scale(0.015625)"/>
      </defs>
      <use xlink:href="#DejaVuSans-Oblique-3c3" transform="translate(0 0.09375)"/>
      <use xlink:href="#DejaVuSans-Oblique-4c" transform="translate(63.378906 -16.3125) scale(0.7)"/>
      <use xlink:href="#DejaVuSans-Oblique-45" transform="translate(102.37793 -16.3125) scale(0.7)"/>
      <use xlink:href="#DejaVuSans-2f" transform="translate(149.34082 0.09375)"/>
      <use xlink:href="#DejaVuSans-Oblique-3c3" transform="translate(183.032227 0.09375)"/>
      <use xlink:href="#DejaVuSans-Oblique-4e" transform="translate(246.411133 -16.3125) scale(0.7)"/>
      <use xlink:href="#DejaVuSans-Oblique-4c" transform="translate(298.774414 -16.3125) scale(0.7)"/>
     </g>
    </g>
   </g>
   <g id="line2d_75">
    <path d="M 83.396 592.919683 
L 84.00718 593.033893 
L 84.64614 593.391715 
L 85.340662 594.045752 
L 86.174089 595.161057 
L 87.201982 596.946631 
L 88.618808 599.910436 
L 93.563806 610.64446 
L 95.23066 613.539639 
L 96.814171 615.854255 
L 98.397681 617.780349 
L 100.008973 619.394494 
L 101.703607 620.776783 
L 103.509365 621.95892 
L 105.454028 622.963557 
L 107.593156 623.816414 
L 110.010094 624.535613 
L 112.760402 625.116695 
L 115.955205 625.558364 
L 119.705625 625.846104 
L 124.150568 625.957459 
L 129.373375 625.860342 
L 135.346267 625.523655 
L 141.846996 624.933232 
L 148.514409 624.104222 
L 155.098481 623.062449 
L 161.849237 621.76676 
L 176.934261 618.75087 
L 179.656789 618.532741 
L 181.934822 618.568564 
L 183.990608 618.821294 
L 185.963051 619.289711 
L 187.963275 619.998715 
L 190.130185 621.009086 
L 192.908274 622.56934 
L 200.242429 626.807903 
L 203.131642 628.150833 
L 205.826389 629.162524 
L 208.382231 629.886456 
L 210.882511 630.362982 
L 213.466134 630.6268 
L 216.355346 630.691947 
L 219.9113 630.538836 
L 225.356355 630.05535 
L 243.663963 628.316209 
L 257.30438 627.313888 
L 268.972355 626.661992 
L 278.251172 626.362931 
L 286.835468 626.306784 
L 294.002938 626.47237 
L 299.836925 626.824041 
L 305.087514 627.361601 
L 310.338102 628.125641 
L 316.19987 629.211234 
L 325.256441 631.150721 
L 335.202 633.210477 
L 342.202785 634.425722 
L 349.564721 635.471144 
L 359.482499 636.632813 
L 407.460098 641.786999 
L 419.211416 642.774557 
L 428.906947 643.370198 
L 437.991298 643.704815 
L 447.520144 643.828594 
L 459.799298 643.747272 
L 482.579629 643.571674 
L 494.525412 643.740212 
L 507.693555 644.157473 
L 528.695909 645.084504 
L 551.892953 646.036234 
L 565.227781 646.408268 
L 565.227781 646.408268 
" clip-path="url(#paf30917535)" style="fill: none; stroke-dasharray: 11.1,4.8; stroke-dashoffset: 0; stroke: #0000ff; stroke-width: 3"/>
   </g>
   <g id="line2d_76">
    <path d="M 83.396 440.614103 
L 83.896056 440.503513 
L 84.423893 440.152579 
L 85.035073 439.453419 
L 85.729595 438.301455 
L 86.590803 436.408551 
L 87.702038 433.370958 
L 89.396673 427.986384 
L 92.73038 417.338729 
L 94.425014 412.717463 
L 95.980744 409.093087 
L 97.508693 406.08609 
L 99.008861 403.61011 
L 100.53681 401.505872 
L 102.120321 399.698881 
L 103.787174 398.13587 
L 105.53737 396.798954 
L 107.426471 395.636339 
L 109.482257 394.63282 
L 111.76029 393.76902 
L 114.343913 393.031149 
L 117.288688 392.425498 
L 120.733518 391.950801 
L 124.789528 391.624308 
L 129.595622 391.467489 
L 135.318486 391.51022 
L 141.9859 391.788184 
L 149.403398 392.323126 
L 157.293171 393.117041 
L 166.377523 394.266266 
L 175.684121 395.409794 
L 179.351199 395.627363 
L 182.212631 395.578772 
L 184.712911 395.317729 
L 187.129849 394.840544 
L 189.65791 394.109928 
L 192.824931 392.945944 
L 200.353553 390.094637 
L 203.492794 389.201282 
L 206.382006 388.608348 
L 209.104534 388.274405 
L 211.79928 388.167507 
L 214.632931 388.279989 
L 217.827734 388.634868 
L 221.77262 389.307388 
L 227.467703 390.525303 
L 253.609522 396.360018 
L 260.332497 397.554855 
L 265.527524 398.25992 
L 270.000248 398.646186 
L 274.195162 398.785138 
L 278.5012 398.701625 
L 283.501761 398.373184 
L 290.224737 397.695156 
L 296.392095 396.871422 
L 300.809256 396.064253 
L 304.559677 395.155411 
L 308.115631 394.063808 
L 311.727147 392.718541 
L 315.699814 390.994417 
L 320.922622 388.464497 
L 330.784838 383.654136 
L 335.146438 381.809329 
L 339.146886 380.356044 
L 343.147335 379.140598 
L 347.342249 378.101684 
L 352.03722 377.174601 
L 357.760084 376.282297 
L 366.483284 375.175306 
L 392.458417 371.958567 
L 409.404761 369.900024 
L 418.683579 368.994946 
L 426.156638 368.484933 
L 432.907395 368.244618 
L 439.519247 368.232482 
L 446.46447 368.445985 
L 454.715395 368.933554 
L 479.857102 370.580473 
L 487.469066 370.750055 
L 494.997687 370.693437 
L 502.943022 370.407573 
L 511.944031 369.854756 
L 523.556444 368.90358 
L 557.338008 366.006085 
L 565.227781 365.521986 
L 565.227781 365.521986 
" clip-path="url(#paf30917535)" style="fill: none; stroke-dasharray: 3,4.95; stroke-dashoffset: 0; stroke: #0000ff; stroke-width: 3"/>
   </g>
   <g id="line2d_77">
    <path d="M 83.396 594.542225 
L 565.2 594.542225 
" clip-path="url(#paf30917535)" style="fill: none; stroke: #000000; stroke-opacity: 0.25; stroke-width: 1.5; stroke-linecap: square"/>
   </g>
   <g id="patch_9">
    <path d="M 83.396 660.76 
L 83.396 350.622292 
" style="fill: none; stroke: #000000; stroke-width: 0.8; stroke-linejoin: miter; stroke-linecap: square"/>
   </g>
   <g id="patch_10">
    <path d="M 565.2 660.76 
L 565.2 350.622292 
" style="fill: none; stroke: #000000; stroke-width: 0.8; stroke-linejoin: miter; stroke-linecap: square"/>
   </g>
   <g id="patch_11">
    <path d="M 83.396 660.76 
L 565.2 660.76 
" style="fill: none; stroke: #000000; stroke-width: 0.8; stroke-linejoin: miter; stroke-linecap: square"/>
   </g>
   <g id="patch_12">
    <path d="M 83.396 350.622292 
L 565.2 350.622292 
" style="fill: none; stroke: #000000; stroke-width: 0.8; stroke-linejoin: miter; stroke-linecap: square"/>
   </g>
   <g id="legend_2">
    <g id="patch_13">
     <path d="M 450.875 531.576146 
L 554 531.576146 
Q 557.2 531.576146 557.2 528.376146 
L 557.2 483.006146 
Q 557.2 479.806146 554 479.806146 
L 450.875 479.806146 
Q 447.675 479.806146 447.675 483.006146 
L 447.675 528.376146 
Q 447.675 531.576146 450.875 531.576146 
z
" style="fill: #ffffff; opacity: 0.8; stroke: #cccccc; stroke-linejoin: miter"/>
    </g>
    <g id="line2d_78">
     <path d="M 454.075 492.763646 
L 470.075 492.763646 
L 486.075 492.763646 
" style="fill: none; stroke-dasharray: 11.1,4.8; stroke-dashoffset: 0; stroke: #0000ff; stroke-width: 3"/>
    </g>
    <g id="text_34">
     <!-- LENLO -->
     <g transform="translate(498.875 498.363646) scale(0.16 -0.16)">
      <use xlink:href="#DejaVuSans-4c"/>
      <use xlink:href="#DejaVuSans-45" transform="translate(55.712891 0)"/>
      <use xlink:href="#DejaVuSans-4e" transform="translate(118.896484 0)"/>
      <use xlink:href="#DejaVuSans-4c" transform="translate(193.701172 0)"/>
      <use xlink:href="#DejaVuSans-4f" transform="translate(245.789062 0)"/>
     </g>
    </g>
    <g id="line2d_79">
     <path d="M 454.075 516.248646 
L 470.075 516.248646 
L 486.075 516.248646 
" style="fill: none; stroke-dasharray: 3,4.95; stroke-dashoffset: 0; stroke: #0000ff; stroke-width: 3"/>
    </g>
    <g id="text_35">
     <!-- LELO -->
     <g transform="translate(498.875 521.848646) scale(0.16 -0.16)">
      <use xlink:href="#DejaVuSans-4c"/>
      <use xlink:href="#DejaVuSans-45" transform="translate(55.712891 0)"/>
      <use xlink:href="#DejaVuSans-4c" transform="translate(118.896484 0)"/>
      <use xlink:href="#DejaVuSans-4f" transform="translate(170.984375 0)"/>
     </g>
    </g>
   </g>
  </g>
 </g>
 <defs>
  <clipPath id="p88653f5060">
   <rect x="83.396" y="17.64" width="481.804" height="310.137708"/>
  </clipPath>
  <clipPath id="paf30917535">
   <rect x="83.396" y="350.622292" width="481.804" height="310.137708"/>
  </clipPath>
 </defs>
</svg>
