<?xml version="1.0" encoding="utf-8" standalone="no"?>
<!DOCTYPE svg PUBLIC "-//W3C//DTD SVG 1.1//EN"
  "http://www.w3.org/Graphics/SVG/1.1/DTD/svg11.dtd">
<svg xmlns:xlink="http://www.w3.org/1999/xlink" width="576pt" height="720pt" viewBox="0 0 576 720" xmlns="http://www.w3.org/2000/svg" version="1.1">
 <metadata>
  <rdf:RDF xmlns:dc="http://purl.org/dc/elements/1.1/" xmlns:cc="http://creativecommons.org/ns#" xmlns:rdf="http://www.w3.org/1999/02/22-rdf-syntax-ns#">
   <cc:Work>
    <dc:type rdf:resource="http://purl.org/dc/dcmitype/StillImage"/>
    <dc:date>2026-03-11T16:14:13.694196</dc:date>
    <dc:format>image/svg+xml</dc:format>
    <dc:creator>
     <cc:Agent>
      <dc:title>Matplotlib v3.10.8, https://matplotlib.org/</dc:title>
     </cc:Agent>
    </dc:creator>
   </cc:Work>
  </rdf:RDF>
 </metadata>
 <defs>
  <style type="text/css">*{stroke-linejoin: round; stroke-linecap: butt}</style>
 </defs>
 <g id="figure_1">
  <g id="patch_1">
   <path d="M 0 720 
L 576 720 
L 576 0 
L 0 0 
L 0 720 
z
" style="fill: none"/>
  </g>
  <g id="axes_1">
   <g id="patch_2">
    <path d="M 83.396 328.58 
L 565.2 328.58 
L 565.2 17.64 
L 83.396 17.64 
L 83.396 328.58 
z
" style="fill: none"/>
   </g>
   <g id="matplotlib.axis_1">
    <g id="xtick_1">
     <g id="line2d_1">
      <path d="M 83.396 328.58 
L 83.396 17.64 
" clip-path="url(#pa2d4fde11f)" style="fill: none; stroke: #b0b0b0; stroke-opacity: 0.2; stroke-width: 0.8; stroke-linecap: square"/>
     </g>
     <g id="line2d_2">
      <defs>
       <path id="mfef8766132" d="M 0 0 
L 0 3.5 
" style="stroke: #000000; stroke-width: 0.8"/>
      </defs>
      <g>
       <use xlink:href="#mfef8766132" x="83.396" y="328.58" style="stroke: #000000; stroke-width: 0.8"/>
      </g>
     </g>
    </g>
    <g id="xtick_2">
     <g id="line2d_3">
      <path d="M 152.848229 328.58 
L 152.848229 17.64 
" clip-path="url(#pa2d4fde11f)" style="fill: none; stroke: #b0b0b0; stroke-opacity: 0.2; stroke-width: 0.8; stroke-linecap: square"/>
     </g>
     <g id="line2d_4">
      <g>
       <use xlink:href="#mfef8766132" x="152.848229" y="328.58" style="stroke: #000000; stroke-width: 0.8"/>
      </g>
     </g>
    </g>
    <g id="xtick_3">
     <g id="line2d_5">
      <path d="M 222.300457 328.58 
L 222.300457 17.64 
" clip-path="url(#pa2d4fde11f)" style="fill: none; stroke: #b0b0b0; stroke-opacity: 0.2; stroke-width: 0.8; stroke-linecap: square"/>
     </g>
     <g id="line2d_6">
      <g>
       <use xlink:href="#mfef8766132" x="222.300457" y="328.58" style="stroke: #000000; stroke-width: 0.8"/>
      </g>
     </g>
    </g>
    <g id="xtick_4">
     <g id="line2d_7">
      <path d="M 291.752686 328.58 
L 291.752686 17.64 
" clip-path="url(#pa2d4fde11f)" style="fill: none; stroke: #b0b0b0; stroke-opacity: 0.2; stroke-width: 0.8; stroke-linecap: square"/>
     </g>
     <g id="line2d_8">
      <g>
       <use xlink:href="#mfef8766132" x="291.752686" y="328.58" style="stroke: #000000; stroke-width: 0.8"/>
      </g>
     </g>
    </g>
    <g id="xtick_5">
     <g id="line2d_9">
      <path d="M 361.204914 328.58 
L 361.204914 17.64 
" clip-path="url(#pa2d4fde11f)" style="fill: none; stroke: #b0b0b0; stroke-opacity: 0.2; stroke-width: 0.8; stroke-linecap: square"/>
     </g>
     <g id="line2d_10">
      <g>
       <use xlink:href="#mfef8766132" x="361.204914" y="328.58" style="stroke: #000000; stroke-width: 0.8"/>
      </g>
     </g>
    </g>
    <g id="xtick_6">
     <g id="line2d_11">
      <path d="M 430.657143 328.58 
L 430.657143 17.64 
" clip-path="url(#pa2d4fde11f)" style="fill: none; stroke: #b0b0b0; stroke-opacity: 0.2; stroke-width: 0.8; stroke-linecap: square"/>
     </g>
     <g id="line2d_12">
      <g>
       <use xlink:href="#mfef8766132" x="430.657143" y="328.58" style="stroke: #000000; stroke-width: 0.8"/>
      </g>
     </g>
    </g>
    <g id="xtick_7">
     <g id="line2d_13">
      <path d="M 500.109371 328.58 
L 500.109371 17.64 
" clip-path="url(#pa2d4fde11f)" style="fill: none; stroke: #b0b0b0; stroke-opacity: 0.2; stroke-width: 0.8; stroke-linecap: square"/>
     </g>
     <g id="line2d_14">
      <g>
       <use xlink:href="#mfef8766132" x="500.109371" y="328.58" style="stroke: #000000; stroke-width: 0.8"/>
      </g>
     </g>
    </g>
   </g>
   <g id="matplotlib.axis_2">
    <g id="ytick_1">
     <g id="line2d_15">
      <path d="M 83.396 328.58 
L 565.2 328.58 
" clip-path="url(#pa2d4fde11f)" style="fill: none; stroke: #b0b0b0; stroke-opacity: 0.2; stroke-width: 0.8; stroke-linecap: square"/>
     </g>
     <g id="line2d_16">
      <defs>
       <path id="m47f4de24e2" d="M 0 0 
L -3.5 0 
" style="stroke: #000000; stroke-width: 0.8"/>
      </defs>
      <g>
       <use xlink:href="#m47f4de24e2" x="83.396" y="328.58" style="stroke: #000000; stroke-width: 0.8"/>
      </g>
     </g>
     <g id="text_1">
      <!-- 0 -->
      <g transform="translate(64.9435 335.418594) scale(0.18 -0.18)">
       <defs>
        <path id="DejaVuSans-30" d="M 2034 4250 
Q 1547 4250 1301 3770 
Q 1056 3291 1056 2328 
Q 1056 1369 1301 889 
Q 1547 409 2034 409 
Q 2525 409 2770 889 
Q 3016 1369 3016 2328 
Q 3016 3291 2770 3770 
Q 2525 4250 2034 4250 
z
M 2034 4750 
Q 2819 4750 3233 4129 
Q 3647 3509 3647 2328 
Q 3647 1150 3233 529 
Q 2819 -91 2034 -91 
Q 1250 -91 836 529 
Q 422 1150 422 2328 
Q 422 3509 836 4129 
Q 1250 4750 2034 4750 
z
" transform="scale(0.015625)"/>
       </defs>
       <use xlink:href="#DejaVuSans-30"/>
      </g>
     </g>
    </g>
    <g id="ytick_2">
     <g id="line2d_17">
      <path d="M 83.396 266.392 
L 565.2 266.392 
" clip-path="url(#pa2d4fde11f)" style="fill: none; stroke: #b0b0b0; stroke-opacity: 0.2; stroke-width: 0.8; stroke-linecap: square"/>
     </g>
     <g id="line2d_18">
      <g>
       <use xlink:href="#m47f4de24e2" x="83.396" y="266.392" style="stroke: #000000; stroke-width: 0.8"/>
      </g>
     </g>
     <g id="text_2">
      <!-- 5 -->
      <g transform="translate(64.9435 273.230594) scale(0.18 -0.18)">
       <defs>
        <path id="DejaVuSans-35" d="M 691 4666 
L 3169 4666 
L 3169 4134 
L 1269 4134 
L 1269 2991 
Q 1406 3038 1543 3061 
Q 1681 3084 1819 3084 
Q 2600 3084 3056 2656 
Q 3513 2228 3513 1497 
Q 3513 744 3044 326 
Q 2575 -91 1722 -91 
Q 1428 -91 1123 -41 
Q 819 9 494 109 
L 494 744 
Q 775 591 1075 516 
Q 1375 441 1709 441 
Q 2250 441 2565 725 
Q 2881 1009 2881 1497 
Q 2881 1984 2565 2268 
Q 2250 2553 1709 2553 
Q 1456 2553 1204 2497 
Q 953 2441 691 2322 
L 691 4666 
z
" transform="scale(0.015625)"/>
       </defs>
       <use xlink:href="#DejaVuSans-35"/>
      </g>
     </g>
    </g>
    <g id="ytick_3">
     <g id="line2d_19">
      <path d="M 83.396 204.204 
L 565.2 204.204 
" clip-path="url(#pa2d4fde11f)" style="fill: none; stroke: #b0b0b0; stroke-opacity: 0.2; stroke-width: 0.8; stroke-linecap: square"/>
     </g>
     <g id="line2d_20">
      <g>
       <use xlink:href="#m47f4de24e2" x="83.396" y="204.204" style="stroke: #000000; stroke-width: 0.8"/>
      </g>
     </g>
     <g id="text_3">
      <!-- 10 -->
      <g transform="translate(53.491 211.042594) scale(0.18 -0.18)">
       <defs>
        <path id="DejaVuSans-31" d="M 794 531 
L 1825 531 
L 1825 4091 
L 703 3866 
L 703 4441 
L 1819 4666 
L 2450 4666 
L 2450 531 
L 3481 531 
L 3481 0 
L 794 0 
L 794 531 
z
" transform="scale(0.015625)"/>
       </defs>
       <use xlink:href="#DejaVuSans-31"/>
       <use xlink:href="#DejaVuSans-30" transform="translate(63.623047 0)"/>
      </g>
     </g>
    </g>
    <g id="ytick_4">
     <g id="line2d_21">
      <path d="M 83.396 142.016 
L 565.2 142.016 
" clip-path="url(#pa2d4fde11f)" style="fill: none; stroke: #b0b0b0; stroke-opacity: 0.2; stroke-width: 0.8; stroke-linecap: square"/>
     </g>
     <g id="line2d_22">
      <g>
       <use xlink:href="#m47f4de24e2" x="83.396" y="142.016" style="stroke: #000000; stroke-width: 0.8"/>
      </g>
     </g>
     <g id="text_4">
      <!-- 15 -->
      <g transform="translate(53.491 148.854594) scale(0.18 -0.18)">
       <use xlink:href="#DejaVuSans-31"/>
       <use xlink:href="#DejaVuSans-35" transform="translate(63.623047 0)"/>
      </g>
     </g>
    </g>
    <g id="ytick_5">
     <g id="line2d_23">
      <path d="M 83.396 79.828 
L 565.2 79.828 
" clip-path="url(#pa2d4fde11f)" style="fill: none; stroke: #b0b0b0; stroke-opacity: 0.2; stroke-width: 0.8; stroke-linecap: square"/>
     </g>
     <g id="line2d_24">
      <g>
       <use xlink:href="#m47f4de24e2" x="83.396" y="79.828" style="stroke: #000000; stroke-width: 0.8"/>
      </g>
     </g>
     <g id="text_5">
      <!-- 20 -->
      <g transform="translate(53.491 86.666594) scale(0.18 -0.18)">
       <defs>
        <path id="DejaVuSans-32" d="M 1228 531 
L 3431 531 
L 3431 0 
L 469 0 
L 469 531 
Q 828 903 1448 1529 
Q 2069 2156 2228 2338 
Q 2531 2678 2651 2914 
Q 2772 3150 2772 3378 
Q 2772 3750 2511 3984 
Q 2250 4219 1831 4219 
Q 1534 4219 1204 4116 
Q 875 4013 500 3803 
L 500 4441 
Q 881 4594 1212 4672 
Q 1544 4750 1819 4750 
Q 2544 4750 2975 4387 
Q 3406 4025 3406 3419 
Q 3406 3131 3298 2873 
Q 3191 2616 2906 2266 
Q 2828 2175 2409 1742 
Q 1991 1309 1228 531 
z
" transform="scale(0.015625)"/>
       </defs>
       <use xlink:href="#DejaVuSans-32"/>
       <use xlink:href="#DejaVuSans-30" transform="translate(63.623047 0)"/>
      </g>
     </g>
    </g>
    <g id="ytick_6">
     <g id="line2d_25">
      <path d="M 83.396 17.64 
L 565.2 17.64 
" clip-path="url(#pa2d4fde11f)" style="fill: none; stroke: #b0b0b0; stroke-opacity: 0.2; stroke-width: 0.8; stroke-linecap: square"/>
     </g>
     <g id="line2d_26">
      <g>
       <use xlink:href="#m47f4de24e2" x="83.396" y="17.64" style="stroke: #000000; stroke-width: 0.8"/>
      </g>
     </g>
     <g id="text_6">
      <!-- 25 -->
      <g transform="translate(53.491 24.478594) scale(0.18 -0.18)">
       <use xlink:href="#DejaVuSans-32"/>
       <use xlink:href="#DejaVuSans-35" transform="translate(63.623047 0)"/>
      </g>
     </g>
    </g>
    <g id="text_7">
     <!-- $\sigma$ [mb] -->
     <g transform="translate(45.331625 206.61) rotate(-90) scale(0.2 -0.2)">
      <defs>
       <path id="DejaVuSans-Oblique-3c3" d="M 2219 3044 
Q 1744 3044 1422 2700 
Q 1081 2341 969 1747 
Q 844 1119 1044 756 
Q 1241 397 1706 397 
Q 2166 397 2503 759 
Q 2844 1122 2966 1747 
Q 3075 2319 2881 2700 
Q 2700 3044 2219 3044 
z
M 2309 3503 
L 4219 3500 
L 4106 2925 
L 3463 2925 
Q 3706 2438 3575 1747 
Q 3406 888 2884 400 
Q 2359 -91 1609 -91 
Q 856 -91 525 400 
Q 194 888 363 1747 
Q 528 2609 1050 3097 
Q 1484 3503 2309 3503 
z
" transform="scale(0.015625)"/>
       <path id="DejaVuSans-20" transform="scale(0.015625)"/>
       <path id="DejaVuSans-5b" d="M 550 4863 
L 1875 4863 
L 1875 4416 
L 1125 4416 
L 1125 -397 
L 1875 -397 
L 1875 -844 
L 550 -844 
L 550 4863 
z
" transform="scale(0.015625)"/>
       <path id="DejaVuSans-6d" d="M 3328 2828 
Q 3544 3216 3844 3400 
Q 4144 3584 4550 3584 
Q 5097 3584 5394 3201 
Q 5691 2819 5691 2113 
L 5691 0 
L 5113 0 
L 5113 2094 
Q 5113 2597 4934 2840 
Q 4756 3084 4391 3084 
Q 3944 3084 3684 2787 
Q 3425 2491 3425 1978 
L 3425 0 
L 2847 0 
L 2847 2094 
Q 2847 2600 2669 2842 
Q 2491 3084 2119 3084 
Q 1678 3084 1418 2786 
Q 1159 2488 1159 1978 
L 1159 0 
L 581 0 
L 581 3500 
L 1159 3500 
L 1159 2956 
Q 1356 3278 1631 3431 
Q 1906 3584 2284 3584 
Q 2666 3584 2933 3390 
Q 3200 3197 3328 2828 
z
" transform="scale(0.015625)"/>
       <path id="DejaVuSans-62" d="M 3116 1747 
Q 3116 2381 2855 2742 
Q 2594 3103 2138 3103 
Q 1681 3103 1420 2742 
Q 1159 2381 1159 1747 
Q 1159 1113 1420 752 
Q 1681 391 2138 391 
Q 2594 391 2855 752 
Q 3116 1113 3116 1747 
z
M 1159 2969 
Q 1341 3281 1617 3432 
Q 1894 3584 2278 3584 
Q 2916 3584 3314 3078 
Q 3713 2572 3713 1747 
Q 3713 922 3314 415 
Q 2916 -91 2278 -91 
Q 1894 -91 1617 61 
Q 1341 213 1159 525 
L 1159 0 
L 581 0 
L 581 4863 
L 1159 4863 
L 1159 2969 
z
" transform="scale(0.015625)"/>
       <path id="DejaVuSans-5d" d="M 1947 4863 
L 1947 -844 
L 622 -844 
L 622 -397 
L 1369 -397 
L 1369 4416 
L 622 4416 
L 622 4863 
L 1947 4863 
z
" transform="scale(0.015625)"/>
      </defs>
      <use xlink:href="#DejaVuSans-Oblique-3c3" transform="translate(0 0.015625)"/>
      <use xlink:href="#DejaVuSans-20" transform="translate(63.378906 0.015625)"/>
      <use xlink:href="#DejaVuSans-5b" transform="translate(95.166016 0.015625)"/>
      <use xlink:href="#DejaVuSans-6d" transform="translate(134.179688 0.015625)"/>
      <use xlink:href="#DejaVuSans-62" transform="translate(231.591797 0.015625)"/>
      <use xlink:href="#DejaVuSans-5d" transform="translate(295.068359 0.015625)"/>
     </g>
    </g>
   </g>
   <g id="line2d_27">
    <path d="M 85.256212 -1 
L 85.729595 94.946167 
L 86.257432 159.874156 
L 86.81305 202.111977 
L 87.396448 230.509778 
L 88.007628 250.196226 
L 88.674369 264.720202 
L 89.368892 275.149077 
L 90.091195 282.811986 
L 90.841279 288.552871 
L 91.646925 293.057726 
L 92.480351 296.497418 
L 93.341559 299.156443 
L 94.258329 301.287936 
L 95.23066 302.990485 
L 96.258553 304.34347 
L 97.342007 305.410335 
L 98.536586 306.275927 
L 99.870069 306.962072 
L 101.370237 307.477999 
L 103.092652 307.829378 
L 105.092876 308.005379 
L 107.454252 307.982956 
L 110.20456 307.728692 
L 113.371582 307.207123 
L 116.871974 306.401132 
L 120.539052 305.327639 
L 124.20613 304.024334 
L 127.762084 302.527127 
L 131.151352 300.859985 
L 134.318374 299.056898 
L 137.290929 297.110841 
L 140.069019 295.028881 
L 142.680422 292.796207 
L 145.152922 290.389495 
L 147.486517 287.807458 
L 149.708988 285.0155 
L 151.820336 282.006687 
L 153.848341 278.72985 
L 155.820784 275.11344 
L 157.709885 271.182077 
L 159.543423 266.851946 
L 161.349181 262.007301 
L 163.099377 256.671121 
L 164.849574 250.603694 
L 166.571989 243.812123 
L 168.294404 236.097046 
L 170.0446 227.205556 
L 171.850358 216.83529 
L 173.76724 204.477309 
L 175.989711 188.603374 
L 182.018165 144.546442 
L 183.351647 136.959215 
L 184.462883 131.830462 
L 185.435214 128.321541 
L 186.296422 125.984153 
L 187.074287 124.467248 
L 187.79659 123.52171 
L 188.463331 122.999903 
L 189.102292 122.771906 
L 189.769033 122.769736 
L 190.546898 123.005111 
L 191.519229 123.549172 
L 193.130521 124.747486 
L 196.769818 127.466398 
L 198.547795 128.901094 
L 199.714592 130.130823 
L 200.770266 131.576819 
L 201.798159 133.380546 
L 202.853833 135.70899 
L 203.965069 138.726698 
L 205.187428 142.728596 
L 206.576473 148.091836 
L 208.243326 155.487444 
L 210.521359 166.710612 
L 215.85529 193.290283 
L 217.966638 202.496934 
L 219.827958 209.662331 
L 221.578154 215.543603 
L 223.245007 220.382782 
L 224.828518 224.321701 
L 226.356467 227.551077 
L 227.856635 230.213338 
L 229.301242 232.335274 
L 230.690286 233.996403 
L 232.05155 235.288835 
L 233.385033 236.254293 
L 234.690735 236.929338 
L 235.968656 237.345927 
L 237.246577 237.533718 
L 238.552279 237.500558 
L 239.885761 237.24206 
L 241.274806 236.740715 
L 242.719412 235.976525 
L 244.21958 234.928264 
L 245.803091 233.546454 
L 247.469945 231.791218 
L 249.220141 229.619269 
L 251.05368 226.983334 
L 252.970561 223.831722 
L 254.970785 220.108204 
L 257.054352 215.752479 
L 259.221262 210.701548 
L 261.499295 204.817194 
L 263.888452 198.019396 
L 266.444294 190.059969 
L 269.222383 180.65825 
L 272.361623 169.220586 
L 276.334291 153.848415 
L 285.001929 120.038181 
L 287.668895 110.691212 
L 289.863585 103.769319 
L 291.780467 98.426485 
L 293.502882 94.258029 
L 295.086393 90.991469 
L 296.530999 88.498889 
L 297.892263 86.576696 
L 299.170184 85.141544 
L 300.392543 84.091218 
L 301.587121 83.353786 
L 302.753919 82.89165 
L 303.920716 82.665134 
L 305.143075 82.657863 
L 306.420996 82.875506 
L 307.810041 83.340942 
L 309.365771 84.104 
L 311.143748 85.2351 
L 313.199534 86.819728 
L 315.56091 88.932216 
L 318.144533 91.54701 
L 320.755936 94.505705 
L 323.256217 97.674418 
L 325.617592 101.025958 
L 327.923406 104.691447 
L 330.201439 108.737846 
L 332.535034 113.345645 
L 335.007534 118.734602 
L 337.730061 125.220545 
L 340.980425 133.571469 
L 345.980986 147.128078 
L 351.759411 162.628466 
L 355.176461 171.157789 
L 358.121235 177.924875 
L 360.788201 183.511731 
L 363.288481 188.247564 
L 365.677638 192.306289 
L 367.983452 195.790292 
L 370.205923 198.752288 
L 372.372833 201.276911 
L 374.511961 203.431286 
L 376.623309 205.244502 
L 378.706876 206.746203 
L 380.818224 207.995552 
L 382.957352 209.002799 
L 385.152043 209.789407 
L 387.430076 210.368661 
L 389.847013 210.751698 
L 392.486198 210.939711 
L 395.458753 210.922186 
L 399.09805 210.667514 
L 405.682121 209.930916 
L 410.821586 209.466743 
L 414.460883 209.358043 
L 417.655686 209.480544 
L 420.656022 209.816789 
L 423.545235 210.364314 
L 426.406666 211.134433 
L 429.295879 212.145152 
L 432.268435 213.423681 
L 435.407675 215.019798 
L 438.824725 217.011275 
L 442.769611 219.577272 
L 447.881296 223.18748 
L 461.688399 233.07352 
L 466.300027 236.018286 
L 470.494941 238.435581 
L 474.495389 240.48645 
L 478.440276 242.260304 
L 482.412944 243.803711 
L 486.524515 245.161308 
L 490.886115 246.363695 
L 495.664429 247.445637 
L 501.30395 248.485407 
L 509.749341 249.786217 
L 519.944928 251.406807 
L 525.862258 252.578854 
L 531.085065 253.837561 
L 536.030064 255.257233 
L 540.89172 256.884256 
L 545.836719 258.775721 
L 550.976184 260.982359 
L 556.504581 263.601682 
L 562.783062 266.830564 
L 565.227781 268.145218 
L 565.227781 268.145218 
" clip-path="url(#pa2d4fde11f)" style="fill: none; stroke: #000000; stroke-width: 3; stroke-linecap: square"/>
   </g>
   <g id="line2d_28">
    <path d="M 85.199634 -1 
L 85.674033 96.605888 
L 86.20187 162.077783 
L 86.757488 204.403195 
L 87.340887 232.701788 
L 87.952066 252.226561 
L 88.591027 266.078214 
L 89.285549 276.494358 
L 90.007852 284.114794 
L 90.757936 289.803255 
L 91.563582 294.253324 
L 92.397009 297.642395 
L 93.258216 300.256717 
L 94.174986 302.34872 
L 95.147317 304.017387 
L 96.17521 305.34207 
L 97.286446 306.408903 
L 98.481024 307.249437 
L 99.814507 307.916038 
L 101.342456 308.425324 
L 103.092652 308.769021 
L 105.148438 308.939806 
L 107.565376 308.911324 
L 110.399026 308.650216 
L 113.649391 308.123565 
L 117.233126 307.315723 
L 120.983546 306.242461 
L 124.733966 304.938472 
L 128.345482 303.448491 
L 131.762532 301.799075 
L 134.957334 300.011161 
L 137.92989 298.095336 
L 140.707979 296.043258 
L 143.319383 293.839594 
L 145.791882 291.460591 
L 148.125477 288.904255 
L 150.347948 286.135592 
L 152.459296 283.146968 
L 154.487301 279.886763 
L 156.431964 276.336915 
L 158.321064 272.420358 
L 160.154603 268.100519 
L 161.93258 263.340691 
L 163.682776 258.016049 
L 165.405191 252.060324 
L 167.127607 245.292026 
L 168.850022 237.607297 
L 170.600218 228.763962 
L 172.433757 218.313114 
L 174.4062 205.734381 
L 176.823138 188.779251 
L 181.323642 156.924578 
L 182.79603 148.248979 
L 183.990608 142.443886 
L 185.018501 138.47561 
L 185.93527 135.772476 
L 186.740916 134.032614 
L 187.491 132.910893 
L 188.185522 132.257295 
L 188.852264 131.932834 
L 189.519005 131.857817 
L 190.269089 132.011352 
L 191.185859 132.446928 
L 192.519342 133.357599 
L 199.158975 138.455546 
L 200.27021 139.750902 
L 201.298103 141.295401 
L 202.325996 143.247532 
L 203.409451 145.801593 
L 204.576248 149.150902 
L 205.88195 153.619418 
L 207.382118 159.591493 
L 209.271219 168.084424 
L 212.910516 185.751761 
L 215.799729 199.211067 
L 217.911076 208.024862 
L 219.800177 214.984534 
L 221.550373 220.608617 
L 223.217227 225.236956 
L 224.828518 229.065722 
L 226.384248 232.197298 
L 227.884416 234.727779 
L 229.329023 236.743544 
L 230.745848 238.348485 
L 232.134893 239.589569 
L 233.468375 240.492194 
L 234.801858 241.129699 
L 236.10756 241.511904 
L 237.413262 241.667349 
L 238.746745 241.603306 
L 240.108009 241.315742 
L 241.524834 240.787169 
L 242.997221 239.998249 
L 244.552951 238.906567 
L 246.192024 237.475549 
L 247.914439 235.665697 
L 249.720197 233.433965 
L 251.609298 230.733214 
L 253.581741 227.511861 
L 255.637527 223.713929 
L 257.776655 219.279789 
L 259.999127 214.147965 
L 262.332722 208.184091 
L 264.77744 201.314175 
L 267.416625 193.214082 
L 270.305838 183.604638 
L 273.667325 171.616374 
L 278.47342 153.549762 
L 284.196283 132.207056 
L 287.057715 122.397093 
L 289.363529 115.255692 
L 291.335972 109.837948 
L 293.113949 105.583263 
L 294.725241 102.285405 
L 296.197628 99.753963 
L 297.586673 97.791307 
L 298.892375 96.317389 
L 300.142515 95.23177 
L 301.337093 94.47752 
L 302.531672 93.982748 
L 303.72625 93.727958 
L 304.948609 93.693555 
L 306.254311 93.883188 
L 307.671136 94.320754 
L 309.254647 95.053212 
L 311.032624 96.128727 
L 313.08841 97.639982 
L 315.477567 99.682997 
L 318.088971 102.212913 
L 320.728155 105.076866 
L 323.256217 108.147067 
L 325.645373 111.398884 
L 327.951187 114.914674 
L 330.257001 118.844038 
L 332.618377 123.320454 
L 335.118657 128.554068 
L 337.868965 134.845385 
L 341.174892 142.995487 
L 346.481042 156.773211 
L 351.898316 170.626974 
L 355.315365 178.756262 
L 358.26014 185.199768 
L 360.927105 190.515611 
L 363.427386 195.019077 
L 365.816542 198.876764 
L 368.122356 202.18679 
L 370.372608 205.032695 
L 372.567299 207.453795 
L 374.734208 209.514894 
L 376.873337 211.244698 
L 379.012466 212.689462 
L 381.151594 213.868559 
L 383.346285 214.823856 
L 385.596537 215.56022 
L 387.957913 216.096959 
L 390.485974 216.4391 
L 393.264063 216.58433 
L 396.458865 216.520356 
L 400.570437 216.200285 
L 412.016165 215.18727 
L 415.572119 215.170388 
L 418.766921 215.374125 
L 421.795038 215.789053 
L 424.739813 216.417293 
L 427.684587 217.275354 
L 430.684924 218.385264 
L 433.796384 219.776733 
L 437.130091 221.514995 
L 440.880511 223.729799 
L 445.408796 226.675922 
L 453.02076 231.945193 
L 460.243792 236.840001 
L 465.133229 239.88507 
L 469.467048 242.326621 
L 473.57862 244.39077 
L 477.606849 246.166215 
L 481.662859 247.711263 
L 485.829993 249.060206 
L 490.247155 250.25334 
L 495.08103 251.323567 
L 500.720551 252.336412 
L 508.888133 253.551257 
L 520.083832 255.245909 
L 526.140067 256.399992 
L 531.473998 257.641363 
L 536.53012 259.046019 
L 541.530681 260.66754 
L 546.614584 262.552559 
L 551.920734 264.759767 
L 557.699159 267.409356 
L 564.338792 270.706958 
L 565.227781 271.164539 
L 565.227781 271.164539 
" clip-path="url(#pa2d4fde11f)" style="fill: none; stroke-dasharray: 11.1,4.8; stroke-dashoffset: 0; stroke: #000000; stroke-width: 3"/>
   </g>
   <g id="line2d_29">
    <path d="M 85.54172 -1 
L 86.035185 90.537724 
L 86.563022 151.301601 
L 87.14642 193.774643 
L 87.7576 222.573466 
L 88.39656 242.707763 
L 89.063302 257.162661 
L 89.785605 268.134101 
L 90.535689 276.241287 
L 91.313554 282.343939 
L 92.1192 287.008753 
L 92.980408 290.723251 
L 93.869396 293.59933 
L 94.786165 295.845116 
L 95.758497 297.65355 
L 96.78639 299.099127 
L 97.869844 300.24276 
L 99.036642 301.152325 
L 100.314563 301.864392 
L 101.731388 302.396209 
L 103.34268 302.757194 
L 105.176219 302.934589 
L 107.287567 302.910931 
L 109.732285 302.655317 
L 112.510374 302.13611 
L 115.594053 301.329172 
L 118.872198 300.239501 
L 122.233686 298.886969 
L 125.567393 297.305002 
L 128.789977 295.528886 
L 131.845875 293.592372 
L 134.762868 291.480302 
L 137.513176 289.214266 
L 140.12458 286.773317 
L 142.59708 284.1566 
L 144.958455 281.330465 
L 147.208708 278.286843 
L 149.347836 275.019855 
L 151.403622 271.47615 
L 153.403846 267.581109 
L 155.348509 263.296997 
L 157.237609 258.583399 
L 159.071148 253.397972 
L 160.849125 247.697694 
L 162.599321 241.333335 
L 164.321737 234.224362 
L 166.044152 226.149748 
L 167.766567 216.975463 
L 169.488983 206.570023 
L 171.26696 194.422219 
L 173.128279 180.114867 
L 175.211846 162.281737 
L 178.156621 134.878127 
L 181.045833 108.587076 
L 182.601563 96.402095 
L 183.823923 88.456991 
L 184.879596 82.966869 
L 185.796366 79.288602 
L 186.629793 76.810077 
L 187.379877 75.240222 
L 188.046618 74.320363 
L 188.657798 73.823504 
L 189.241196 73.615167 
L 189.852376 73.62948 
L 190.546898 73.874834 
L 191.435887 74.44248 
L 192.824931 75.633734 
L 196.769818 79.108557 
L 198.436671 80.682337 
L 199.547907 82.039167 
L 200.548019 83.615601 
L 201.52035 85.570682 
L 202.520462 88.095819 
L 203.576136 91.38604 
L 204.715153 95.68347 
L 205.993074 101.401543 
L 207.493242 109.186745 
L 209.410124 120.408727 
L 213.466134 145.944607 
L 216.133099 161.843315 
L 218.188885 172.808733 
L 220.050205 181.561575 
L 221.77262 188.622947 
L 223.411693 194.431177 
L 224.967423 199.159228 
L 226.467591 203.038231 
L 227.912197 206.185015 
L 229.329023 208.749951 
L 230.690286 210.762214 
L 231.995988 212.304375 
L 233.246128 213.447654 
L 234.468488 214.268953 
L 235.663066 214.803673 
L 236.829863 215.082978 
L 237.996661 215.132963 
L 239.191239 214.956247 
L 240.413598 214.545535 
L 241.691519 213.875732 
L 243.025002 212.922328 
L 244.441828 211.631517 
L 245.941996 209.958844 
L 247.553287 207.816683 
L 249.247922 205.180669 
L 251.025899 201.993741 
L 252.887219 198.193649 
L 254.859662 193.644954 
L 256.915448 188.327016 
L 259.054576 182.162595 
L 261.304829 174.981124 
L 263.666204 166.683179 
L 266.194266 156.9601 
L 268.916793 145.580766 
L 272.000472 131.696886 
L 275.806454 113.468635 
L 285.501985 66.513047 
L 288.057827 55.529189 
L 290.196956 47.27395 
L 292.058275 40.934258 
L 293.75291 35.926603 
L 295.280859 32.076006 
L 296.697684 29.083586 
L 298.003386 26.818375 
L 299.225745 25.117266 
L 300.392543 23.858428 
L 301.503779 22.97495 
L 302.587233 22.392317 
L 303.642907 22.071161 
L 304.726362 21.974616 
L 305.837598 22.098814 
L 307.032176 22.458303 
L 308.337878 23.086868 
L 309.810265 24.049257 
L 311.504899 25.434813 
L 313.449562 27.323342 
L 315.672033 29.79939 
L 318.116752 32.860508 
L 320.617032 36.350203 
L 323.033969 40.109265 
L 325.339783 44.112257 
L 327.562255 48.419112 
L 329.784726 53.218492 
L 332.062759 58.681851 
L 334.451916 65.006224 
L 337.06332 72.569303 
L 340.091437 82.05008 
L 344.23079 95.81025 
L 351.981658 121.656039 
L 355.315365 131.915027 
L 358.176797 140.024547 
L 360.788201 146.777555 
L 363.232919 152.499621 
L 365.566514 157.405163 
L 367.788986 161.570546 
L 369.928114 165.119787 
L 372.011681 168.154785 
L 374.039686 170.723428 
L 376.03991 172.901019 
L 377.984573 174.69677 
L 379.929235 176.19428 
L 381.873897 177.413267 
L 383.846341 178.386524 
L 385.846565 179.12607 
L 387.930132 179.657912 
L 390.124822 179.98609 
L 392.486198 180.112035 
L 395.125383 180.026423 
L 398.292404 179.691265 
L 402.904032 178.95244 
L 409.571446 177.907034 
L 413.016277 177.604629 
L 415.988832 177.56475 
L 418.71136 177.748062 
L 421.322763 178.146611 
L 423.878605 178.7639 
L 426.406666 179.604452 
L 428.962508 180.68906 
L 431.601693 182.052138 
L 434.379782 183.740369 
L 437.380119 185.829579 
L 440.713826 188.428708 
L 444.686493 191.820797 
L 450.353795 196.985102 
L 459.688174 205.487553 
L 464.272021 209.337633 
L 468.27247 212.413395 
L 472.02289 215.0209 
L 475.662187 217.281589 
L 479.245922 219.247093 
L 482.857438 220.974586 
L 486.552296 222.495874 
L 490.441621 223.855042 
L 494.636536 225.082279 
L 499.414849 226.241384 
L 505.498864 227.473583 
L 521.083944 230.526 
L 526.223409 231.82829 
L 530.862818 233.231604 
L 535.27998 234.799128 
L 539.64158 236.583925 
L 544.030961 238.621834 
L 548.559246 240.971669 
L 553.337559 243.704897 
L 558.560367 246.954565 
L 564.533259 250.941851 
L 565.227781 251.420472 
L 565.227781 251.420472 
" clip-path="url(#pa2d4fde11f)" style="fill: none; stroke-dasharray: 3,4.95; stroke-dashoffset: 0; stroke: #000000; stroke-width: 3"/>
   </g>
   <g id="patch_3">
    <path d="M 83.396 328.58 
L 83.396 17.64 
" style="fill: none; stroke: #000000; stroke-width: 0.8; stroke-linejoin: miter; stroke-linecap: square"/>
   </g>
   <g id="patch_4">
    <path d="M 565.2 328.58 
L 565.2 17.64 
" style="fill: none; stroke: #000000; stroke-width: 0.8; stroke-linejoin: miter; stroke-linecap: square"/>
   </g>
   <g id="patch_5">
    <path d="M 83.396 328.58 
L 565.2 328.58 
" style="fill: none; stroke: #000000; stroke-width: 0.8; stroke-linejoin: miter; stroke-linecap: square"/>
   </g>
   <g id="patch_6">
    <path d="M 83.396 17.64 
L 565.2 17.64 
" style="fill: none; stroke: #000000; stroke-width: 0.8; stroke-linejoin: miter; stroke-linecap: square"/>
   </g>
   <g id="legend_1">
    <g id="patch_7">
     <path d="M 450.875 100.895 
L 554 100.895 
Q 557.2 100.895 557.2 97.695 
L 557.2 28.84 
Q 557.2 25.64 554 25.64 
L 450.875 25.64 
Q 447.675 25.64 447.675 28.84 
L 447.675 97.695 
Q 447.675 100.895 450.875 100.895 
z
" style="fill: #ffffff; opacity: 0.8; stroke: #cccccc; stroke-linejoin: miter"/>
    </g>
    <g id="line2d_30">
     <path d="M 454.075 38.5975 
L 470.075 38.5975 
L 486.075 38.5975 
" style="fill: none; stroke: #000000; stroke-width: 3; stroke-linecap: square"/>
    </g>
    <g id="text_8">
     <!-- NL -->
     <g transform="translate(498.875 44.1975) scale(0.16 -0.16)">
      <defs>
       <path id="DejaVuSans-4e" d="M 628 4666 
L 1478 4666 
L 3547 763 
L 3547 4666 
L 4159 4666 
L 4159 0 
L 3309 0 
L 1241 3903 
L 1241 0 
L 628 0 
L 628 4666 
z
" transform="scale(0.015625)"/>
       <path id="DejaVuSans-4c" d="M 628 4666 
L 1259 4666 
L 1259 531 
L 3531 531 
L 3531 0 
L 628 0 
L 628 4666 
z
" transform="scale(0.015625)"/>
      </defs>
      <use xlink:href="#DejaVuSans-4e"/>
      <use xlink:href="#DejaVuSans-4c" transform="translate(74.804688 0)"/>
     </g>
    </g>
    <g id="line2d_31">
     <path d="M 454.075 62.0825 
L 470.075 62.0825 
L 486.075 62.0825 
" style="fill: none; stroke-dasharray: 11.1,4.8; stroke-dashoffset: 0; stroke: #000000; stroke-width: 3"/>
    </g>
    <g id="text_9">
     <!-- LENLO -->
     <g transform="translate(498.875 67.6825) scale(0.16 -0.16)">
      <defs>
       <path id="DejaVuSans-45" d="M 628 4666 
L 3578 4666 
L 3578 4134 
L 1259 4134 
L 1259 2753 
L 3481 2753 
L 3481 2222 
L 1259 2222 
L 1259 531 
L 3634 531 
L 3634 0 
L 628 0 
L 628 4666 
z
" transform="scale(0.015625)"/>
       <path id="DejaVuSans-4f" d="M 2522 4238 
Q 1834 4238 1429 3725 
Q 1025 3213 1025 2328 
Q 1025 1447 1429 934 
Q 1834 422 2522 422 
Q 3209 422 3611 934 
Q 4013 1447 4013 2328 
Q 4013 3213 3611 3725 
Q 3209 4238 2522 4238 
z
M 2522 4750 
Q 3503 4750 4090 4092 
Q 4678 3434 4678 2328 
Q 4678 1225 4090 567 
Q 3503 -91 2522 -91 
Q 1538 -91 948 565 
Q 359 1222 359 2328 
Q 359 3434 948 4092 
Q 1538 4750 2522 4750 
z
" transform="scale(0.015625)"/>
      </defs>
      <use xlink:href="#DejaVuSans-4c"/>
      <use xlink:href="#DejaVuSans-45" transform="translate(55.712891 0)"/>
      <use xlink:href="#DejaVuSans-4e" transform="translate(118.896484 0)"/>
      <use xlink:href="#DejaVuSans-4c" transform="translate(193.701172 0)"/>
      <use xlink:href="#DejaVuSans-4f" transform="translate(245.789062 0)"/>
     </g>
    </g>
    <g id="line2d_32">
     <path d="M 454.075 85.5675 
L 470.075 85.5675 
L 486.075 85.5675 
" style="fill: none; stroke-dasharray: 3,4.95; stroke-dashoffset: 0; stroke: #000000; stroke-width: 3"/>
    </g>
    <g id="text_10">
     <!-- LELO -->
     <g transform="translate(498.875 91.1675) scale(0.16 -0.16)">
      <use xlink:href="#DejaVuSans-4c"/>
      <use xlink:href="#DejaVuSans-45" transform="translate(55.712891 0)"/>
      <use xlink:href="#DejaVuSans-4c" transform="translate(118.896484 0)"/>
      <use xlink:href="#DejaVuSans-4f" transform="translate(170.984375 0)"/>
     </g>
    </g>
   </g>
  </g>
  <g id="axes_2">
   <g id="patch_8">
    <path d="M 83.396 660.76 
L 565.2 660.76 
L 565.2 349.82 
L 83.396 349.82 
L 83.396 660.76 
z
" style="fill: none"/>
   </g>
   <g id="matplotlib.axis_3">
    <g id="xtick_8">
     <g id="line2d_33">
      <path d="M 83.396 660.76 
L 83.396 349.82 
" clip-path="url(#p2ba33e6632)" style="fill: none; stroke: #b0b0b0; stroke-opacity: 0.2; stroke-width: 0.8; stroke-linecap: square"/>
     </g>
     <g id="line2d_34">
      <g>
       <use xlink:href="#mfef8766132" x="83.396" y="660.76" style="stroke: #000000; stroke-width: 0.8"/>
      </g>
     </g>
     <g id="text_11">
      <!-- 0.0 -->
      <g transform="translate(69.083188 681.437187) scale(0.18 -0.18)">
       <defs>
        <path id="DejaVuSans-2e" d="M 684 794 
L 1344 794 
L 1344 0 
L 684 0 
L 684 794 
z
" transform="scale(0.015625)"/>
       </defs>
       <use xlink:href="#DejaVuSans-30"/>
       <use xlink:href="#DejaVuSans-2e" transform="translate(63.623047 0)"/>
       <use xlink:href="#DejaVuSans-30" transform="translate(95.410156 0)"/>
      </g>
     </g>
    </g>
    <g id="xtick_9">
     <g id="line2d_35">
      <path d="M 152.848229 660.76 
L 152.848229 349.82 
" clip-path="url(#p2ba33e6632)" style="fill: none; stroke: #b0b0b0; stroke-opacity: 0.2; stroke-width: 0.8; stroke-linecap: square"/>
     </g>
     <g id="line2d_36">
      <g>
       <use xlink:href="#mfef8766132" x="152.848229" y="660.76" style="stroke: #000000; stroke-width: 0.8"/>
      </g>
     </g>
     <g id="text_12">
      <!-- 2.5 -->
      <g transform="translate(138.535416 681.437187) scale(0.18 -0.18)">
       <use xlink:href="#DejaVuSans-32"/>
       <use xlink:href="#DejaVuSans-2e" transform="translate(63.623047 0)"/>
       <use xlink:href="#DejaVuSans-35" transform="translate(95.410156 0)"/>
      </g>
     </g>
    </g>
    <g id="xtick_10">
     <g id="line2d_37">
      <path d="M 222.300457 660.76 
L 222.300457 349.82 
" clip-path="url(#p2ba33e6632)" style="fill: none; stroke: #b0b0b0; stroke-opacity: 0.2; stroke-width: 0.8; stroke-linecap: square"/>
     </g>
     <g id="line2d_38">
      <g>
       <use xlink:href="#mfef8766132" x="222.300457" y="660.76" style="stroke: #000000; stroke-width: 0.8"/>
      </g>
     </g>
     <g id="text_13">
      <!-- 5.0 -->
      <g transform="translate(207.987645 681.437187) scale(0.18 -0.18)">
       <use xlink:href="#DejaVuSans-35"/>
       <use xlink:href="#DejaVuSans-2e" transform="translate(63.623047 0)"/>
       <use xlink:href="#DejaVuSans-30" transform="translate(95.410156 0)"/>
      </g>
     </g>
    </g>
    <g id="xtick_11">
     <g id="line2d_39">
      <path d="M 291.752686 660.76 
L 291.752686 349.82 
" clip-path="url(#p2ba33e6632)" style="fill: none; stroke: #b0b0b0; stroke-opacity: 0.2; stroke-width: 0.8; stroke-linecap: square"/>
     </g>
     <g id="line2d_40">
      <g>
       <use xlink:href="#mfef8766132" x="291.752686" y="660.76" style="stroke: #000000; stroke-width: 0.8"/>
      </g>
     </g>
     <g id="text_14">
      <!-- 7.5 -->
      <g transform="translate(277.439873 681.437187) scale(0.18 -0.18)">
       <defs>
        <path id="DejaVuSans-37" d="M 525 4666 
L 3525 4666 
L 3525 4397 
L 1831 0 
L 1172 0 
L 2766 4134 
L 525 4134 
L 525 4666 
z
" transform="scale(0.015625)"/>
       </defs>
       <use xlink:href="#DejaVuSans-37"/>
       <use xlink:href="#DejaVuSans-2e" transform="translate(63.623047 0)"/>
       <use xlink:href="#DejaVuSans-35" transform="translate(95.410156 0)"/>
      </g>
     </g>
    </g>
    <g id="xtick_12">
     <g id="line2d_41">
      <path d="M 361.204914 660.76 
L 361.204914 349.82 
" clip-path="url(#p2ba33e6632)" style="fill: none; stroke: #b0b0b0; stroke-opacity: 0.2; stroke-width: 0.8; stroke-linecap: square"/>
     </g>
     <g id="line2d_42">
      <g>
       <use xlink:href="#mfef8766132" x="361.204914" y="660.76" style="stroke: #000000; stroke-width: 0.8"/>
      </g>
     </g>
     <g id="text_15">
      <!-- 10.0 -->
      <g transform="translate(341.165852 681.437187) scale(0.18 -0.18)">
       <use xlink:href="#DejaVuSans-31"/>
       <use xlink:href="#DejaVuSans-30" transform="translate(63.623047 0)"/>
       <use xlink:href="#DejaVuSans-2e" transform="translate(127.246094 0)"/>
       <use xlink:href="#DejaVuSans-30" transform="translate(159.033203 0)"/>
      </g>
     </g>
    </g>
    <g id="xtick_13">
     <g id="line2d_43">
      <path d="M 430.657143 660.76 
L 430.657143 349.82 
" clip-path="url(#p2ba33e6632)" style="fill: none; stroke: #b0b0b0; stroke-opacity: 0.2; stroke-width: 0.8; stroke-linecap: square"/>
     </g>
     <g id="line2d_44">
      <g>
       <use xlink:href="#mfef8766132" x="430.657143" y="660.76" style="stroke: #000000; stroke-width: 0.8"/>
      </g>
     </g>
     <g id="text_16">
      <!-- 12.5 -->
      <g transform="translate(410.61808 681.437187) scale(0.18 -0.18)">
       <use xlink:href="#DejaVuSans-31"/>
       <use xlink:href="#DejaVuSans-32" transform="translate(63.623047 0)"/>
       <use xlink:href="#DejaVuSans-2e" transform="translate(127.246094 0)"/>
       <use xlink:href="#DejaVuSans-35" transform="translate(159.033203 0)"/>
      </g>
     </g>
    </g>
    <g id="xtick_14">
     <g id="line2d_45">
      <path d="M 500.109371 660.76 
L 500.109371 349.82 
" clip-path="url(#p2ba33e6632)" style="fill: none; stroke: #b0b0b0; stroke-opacity: 0.2; stroke-width: 0.8; stroke-linecap: square"/>
     </g>
     <g id="line2d_46">
      <g>
       <use xlink:href="#mfef8766132" x="500.109371" y="660.76" style="stroke: #000000; stroke-width: 0.8"/>
      </g>
     </g>
     <g id="text_17">
      <!-- 15.0 -->
      <g transform="translate(480.070309 681.437187) scale(0.18 -0.18)">
       <use xlink:href="#DejaVuSans-31"/>
       <use xlink:href="#DejaVuSans-35" transform="translate(63.623047 0)"/>
       <use xlink:href="#DejaVuSans-2e" transform="translate(127.246094 0)"/>
       <use xlink:href="#DejaVuSans-30" transform="translate(159.033203 0)"/>
      </g>
     </g>
    </g>
    <g id="text_18">
     <!-- Excitation Energy (MeV) -->
     <g transform="translate(203.962062 704.3775) scale(0.2 -0.2)">
      <defs>
       <path id="DejaVuSans-78" d="M 3513 3500 
L 2247 1797 
L 3578 0 
L 2900 0 
L 1881 1375 
L 863 0 
L 184 0 
L 1544 1831 
L 300 3500 
L 978 3500 
L 1906 2253 
L 2834 3500 
L 3513 3500 
z
" transform="scale(0.015625)"/>
       <path id="DejaVuSans-63" d="M 3122 3366 
L 3122 2828 
Q 2878 2963 2633 3030 
Q 2388 3097 2138 3097 
Q 1578 3097 1268 2742 
Q 959 2388 959 1747 
Q 959 1106 1268 751 
Q 1578 397 2138 397 
Q 2388 397 2633 464 
Q 2878 531 3122 666 
L 3122 134 
Q 2881 22 2623 -34 
Q 2366 -91 2075 -91 
Q 1284 -91 818 406 
Q 353 903 353 1747 
Q 353 2603 823 3093 
Q 1294 3584 2113 3584 
Q 2378 3584 2631 3529 
Q 2884 3475 3122 3366 
z
" transform="scale(0.015625)"/>
       <path id="DejaVuSans-69" d="M 603 3500 
L 1178 3500 
L 1178 0 
L 603 0 
L 603 3500 
z
M 603 4863 
L 1178 4863 
L 1178 4134 
L 603 4134 
L 603 4863 
z
" transform="scale(0.015625)"/>
       <path id="DejaVuSans-74" d="M 1172 4494 
L 1172 3500 
L 2356 3500 
L 2356 3053 
L 1172 3053 
L 1172 1153 
Q 1172 725 1289 603 
Q 1406 481 1766 481 
L 2356 481 
L 2356 0 
L 1766 0 
Q 1100 0 847 248 
Q 594 497 594 1153 
L 594 3053 
L 172 3053 
L 172 3500 
L 594 3500 
L 594 4494 
L 1172 4494 
z
" transform="scale(0.015625)"/>
       <path id="DejaVuSans-61" d="M 2194 1759 
Q 1497 1759 1228 1600 
Q 959 1441 959 1056 
Q 959 750 1161 570 
Q 1363 391 1709 391 
Q 2188 391 2477 730 
Q 2766 1069 2766 1631 
L 2766 1759 
L 2194 1759 
z
M 3341 1997 
L 3341 0 
L 2766 0 
L 2766 531 
Q 2569 213 2275 61 
Q 1981 -91 1556 -91 
Q 1019 -91 701 211 
Q 384 513 384 1019 
Q 384 1609 779 1909 
Q 1175 2209 1959 2209 
L 2766 2209 
L 2766 2266 
Q 2766 2663 2505 2880 
Q 2244 3097 1772 3097 
Q 1472 3097 1187 3025 
Q 903 2953 641 2809 
L 641 3341 
Q 956 3463 1253 3523 
Q 1550 3584 1831 3584 
Q 2591 3584 2966 3190 
Q 3341 2797 3341 1997 
z
" transform="scale(0.015625)"/>
       <path id="DejaVuSans-6f" d="M 1959 3097 
Q 1497 3097 1228 2736 
Q 959 2375 959 1747 
Q 959 1119 1226 758 
Q 1494 397 1959 397 
Q 2419 397 2687 759 
Q 2956 1122 2956 1747 
Q 2956 2369 2687 2733 
Q 2419 3097 1959 3097 
z
M 1959 3584 
Q 2709 3584 3137 3096 
Q 3566 2609 3566 1747 
Q 3566 888 3137 398 
Q 2709 -91 1959 -91 
Q 1206 -91 779 398 
Q 353 888 353 1747 
Q 353 2609 779 3096 
Q 1206 3584 1959 3584 
z
" transform="scale(0.015625)"/>
       <path id="DejaVuSans-6e" d="M 3513 2113 
L 3513 0 
L 2938 0 
L 2938 2094 
Q 2938 2591 2744 2837 
Q 2550 3084 2163 3084 
Q 1697 3084 1428 2787 
Q 1159 2491 1159 1978 
L 1159 0 
L 581 0 
L 581 3500 
L 1159 3500 
L 1159 2956 
Q 1366 3272 1645 3428 
Q 1925 3584 2291 3584 
Q 2894 3584 3203 3211 
Q 3513 2838 3513 2113 
z
" transform="scale(0.015625)"/>
       <path id="DejaVuSans-65" d="M 3597 1894 
L 3597 1613 
L 953 1613 
Q 991 1019 1311 708 
Q 1631 397 2203 397 
Q 2534 397 2845 478 
Q 3156 559 3463 722 
L 3463 178 
Q 3153 47 2828 -22 
Q 2503 -91 2169 -91 
Q 1331 -91 842 396 
Q 353 884 353 1716 
Q 353 2575 817 3079 
Q 1281 3584 2069 3584 
Q 2775 3584 3186 3129 
Q 3597 2675 3597 1894 
z
M 3022 2063 
Q 3016 2534 2758 2815 
Q 2500 3097 2075 3097 
Q 1594 3097 1305 2825 
Q 1016 2553 972 2059 
L 3022 2063 
z
" transform="scale(0.015625)"/>
       <path id="DejaVuSans-72" d="M 2631 2963 
Q 2534 3019 2420 3045 
Q 2306 3072 2169 3072 
Q 1681 3072 1420 2755 
Q 1159 2438 1159 1844 
L 1159 0 
L 581 0 
L 581 3500 
L 1159 3500 
L 1159 2956 
Q 1341 3275 1631 3429 
Q 1922 3584 2338 3584 
Q 2397 3584 2469 3576 
Q 2541 3569 2628 3553 
L 2631 2963 
z
" transform="scale(0.015625)"/>
       <path id="DejaVuSans-67" d="M 2906 1791 
Q 2906 2416 2648 2759 
Q 2391 3103 1925 3103 
Q 1463 3103 1205 2759 
Q 947 2416 947 1791 
Q 947 1169 1205 825 
Q 1463 481 1925 481 
Q 2391 481 2648 825 
Q 2906 1169 2906 1791 
z
M 3481 434 
Q 3481 -459 3084 -895 
Q 2688 -1331 1869 -1331 
Q 1566 -1331 1297 -1286 
Q 1028 -1241 775 -1147 
L 775 -588 
Q 1028 -725 1275 -790 
Q 1522 -856 1778 -856 
Q 2344 -856 2625 -561 
Q 2906 -266 2906 331 
L 2906 616 
Q 2728 306 2450 153 
Q 2172 0 1784 0 
Q 1141 0 747 490 
Q 353 981 353 1791 
Q 353 2603 747 3093 
Q 1141 3584 1784 3584 
Q 2172 3584 2450 3431 
Q 2728 3278 2906 2969 
L 2906 3500 
L 3481 3500 
L 3481 434 
z
" transform="scale(0.015625)"/>
       <path id="DejaVuSans-79" d="M 2059 -325 
Q 1816 -950 1584 -1140 
Q 1353 -1331 966 -1331 
L 506 -1331 
L 506 -850 
L 844 -850 
Q 1081 -850 1212 -737 
Q 1344 -625 1503 -206 
L 1606 56 
L 191 3500 
L 800 3500 
L 1894 763 
L 2988 3500 
L 3597 3500 
L 2059 -325 
z
" transform="scale(0.015625)"/>
       <path id="DejaVuSans-28" d="M 1984 4856 
Q 1566 4138 1362 3434 
Q 1159 2731 1159 2009 
Q 1159 1288 1364 580 
Q 1569 -128 1984 -844 
L 1484 -844 
Q 1016 -109 783 600 
Q 550 1309 550 2009 
Q 550 2706 781 3412 
Q 1013 4119 1484 4856 
L 1984 4856 
z
" transform="scale(0.015625)"/>
       <path id="DejaVuSans-4d" d="M 628 4666 
L 1569 4666 
L 2759 1491 
L 3956 4666 
L 4897 4666 
L 4897 0 
L 4281 0 
L 4281 4097 
L 3078 897 
L 2444 897 
L 1241 4097 
L 1241 0 
L 628 0 
L 628 4666 
z
" transform="scale(0.015625)"/>
       <path id="DejaVuSans-56" d="M 1831 0 
L 50 4666 
L 709 4666 
L 2188 738 
L 3669 4666 
L 4325 4666 
L 2547 0 
L 1831 0 
z
" transform="scale(0.015625)"/>
       <path id="DejaVuSans-29" d="M 513 4856 
L 1013 4856 
Q 1481 4119 1714 3412 
Q 1947 2706 1947 2009 
Q 1947 1309 1714 600 
Q 1481 -109 1013 -844 
L 513 -844 
Q 928 -128 1133 580 
Q 1338 1288 1338 2009 
Q 1338 2731 1133 3434 
Q 928 4138 513 4856 
z
" transform="scale(0.015625)"/>
      </defs>
      <use xlink:href="#DejaVuSans-45"/>
      <use xlink:href="#DejaVuSans-78" transform="translate(63.183594 0)"/>
      <use xlink:href="#DejaVuSans-63" transform="translate(120.613281 0)"/>
      <use xlink:href="#DejaVuSans-69" transform="translate(175.59375 0)"/>
      <use xlink:href="#DejaVuSans-74" transform="translate(203.376953 0)"/>
      <use xlink:href="#DejaVuSans-61" transform="translate(242.585938 0)"/>
      <use xlink:href="#DejaVuSans-74" transform="translate(303.865234 0)"/>
      <use xlink:href="#DejaVuSans-69" transform="translate(343.074219 0)"/>
      <use xlink:href="#DejaVuSans-6f" transform="translate(370.857422 0)"/>
      <use xlink:href="#DejaVuSans-6e" transform="translate(432.039062 0)"/>
      <use xlink:href="#DejaVuSans-20" transform="translate(495.417969 0)"/>
      <use xlink:href="#DejaVuSans-45" transform="translate(527.205078 0)"/>
      <use xlink:href="#DejaVuSans-6e" transform="translate(590.388672 0)"/>
      <use xlink:href="#DejaVuSans-65" transform="translate(653.767578 0)"/>
      <use xlink:href="#DejaVuSans-72" transform="translate(715.291016 0)"/>
      <use xlink:href="#DejaVuSans-67" transform="translate(754.654297 0)"/>
      <use xlink:href="#DejaVuSans-79" transform="translate(818.130859 0)"/>
      <use xlink:href="#DejaVuSans-20" transform="translate(877.310547 0)"/>
      <use xlink:href="#DejaVuSans-28" transform="translate(909.097656 0)"/>
      <use xlink:href="#DejaVuSans-4d" transform="translate(948.111328 0)"/>
      <use xlink:href="#DejaVuSans-65" transform="translate(1034.390625 0)"/>
      <use xlink:href="#DejaVuSans-56" transform="translate(1095.914062 0)"/>
      <use xlink:href="#DejaVuSans-29" transform="translate(1164.322266 0)"/>
     </g>
    </g>
   </g>
   <g id="matplotlib.axis_4">
    <g id="ytick_7">
     <g id="line2d_47">
      <path d="M 83.396 646.560361 
L 565.2 646.560361 
" clip-path="url(#p2ba33e6632)" style="fill: none; stroke: #b0b0b0; stroke-opacity: 0.2; stroke-width: 0.8; stroke-linecap: square"/>
     </g>
     <g id="line2d_48">
      <g>
       <use xlink:href="#m47f4de24e2" x="83.396" y="646.560361" style="stroke: #000000; stroke-width: 0.8"/>
      </g>
     </g>
     <g id="text_19">
      <!-- 0.95 -->
      <g transform="translate(36.317875 653.398955) scale(0.18 -0.18)">
       <defs>
        <path id="DejaVuSans-39" d="M 703 97 
L 703 672 
Q 941 559 1184 500 
Q 1428 441 1663 441 
Q 2288 441 2617 861 
Q 2947 1281 2994 2138 
Q 2813 1869 2534 1725 
Q 2256 1581 1919 1581 
Q 1219 1581 811 2004 
Q 403 2428 403 3163 
Q 403 3881 828 4315 
Q 1253 4750 1959 4750 
Q 2769 4750 3195 4129 
Q 3622 3509 3622 2328 
Q 3622 1225 3098 567 
Q 2575 -91 1691 -91 
Q 1453 -91 1209 -44 
Q 966 3 703 97 
z
M 1959 2075 
Q 2384 2075 2632 2365 
Q 2881 2656 2881 3163 
Q 2881 3666 2632 3958 
Q 2384 4250 1959 4250 
Q 1534 4250 1286 3958 
Q 1038 3666 1038 3163 
Q 1038 2656 1286 2365 
Q 1534 2075 1959 2075 
z
" transform="scale(0.015625)"/>
       </defs>
       <use xlink:href="#DejaVuSans-30"/>
       <use xlink:href="#DejaVuSans-2e" transform="translate(63.623047 0)"/>
       <use xlink:href="#DejaVuSans-39" transform="translate(95.410156 0)"/>
       <use xlink:href="#DejaVuSans-35" transform="translate(159.033203 0)"/>
      </g>
     </g>
    </g>
    <g id="ytick_8">
     <g id="line2d_49">
      <path d="M 83.396 603.380583 
L 565.2 603.380583 
" clip-path="url(#p2ba33e6632)" style="fill: none; stroke: #b0b0b0; stroke-opacity: 0.2; stroke-width: 0.8; stroke-linecap: square"/>
     </g>
     <g id="line2d_50">
      <g>
       <use xlink:href="#m47f4de24e2" x="83.396" y="603.380583" style="stroke: #000000; stroke-width: 0.8"/>
      </g>
     </g>
     <g id="text_20">
      <!-- 1.00 -->
      <g transform="translate(36.317875 610.219177) scale(0.18 -0.18)">
       <use xlink:href="#DejaVuSans-31"/>
       <use xlink:href="#DejaVuSans-2e" transform="translate(63.623047 0)"/>
       <use xlink:href="#DejaVuSans-30" transform="translate(95.410156 0)"/>
       <use xlink:href="#DejaVuSans-30" transform="translate(159.033203 0)"/>
      </g>
     </g>
    </g>
    <g id="ytick_9">
     <g id="line2d_51">
      <path d="M 83.396 560.200805 
L 565.2 560.200805 
" clip-path="url(#p2ba33e6632)" style="fill: none; stroke: #b0b0b0; stroke-opacity: 0.2; stroke-width: 0.8; stroke-linecap: square"/>
     </g>
     <g id="line2d_52">
      <g>
       <use xlink:href="#m47f4de24e2" x="83.396" y="560.200805" style="stroke: #000000; stroke-width: 0.8"/>
      </g>
     </g>
     <g id="text_21">
      <!-- 1.05 -->
      <g transform="translate(36.317875 567.039398) scale(0.18 -0.18)">
       <use xlink:href="#DejaVuSans-31"/>
       <use xlink:href="#DejaVuSans-2e" transform="translate(63.623047 0)"/>
       <use xlink:href="#DejaVuSans-30" transform="translate(95.410156 0)"/>
       <use xlink:href="#DejaVuSans-35" transform="translate(159.033203 0)"/>
      </g>
     </g>
    </g>
    <g id="ytick_10">
     <g id="line2d_53">
      <path d="M 83.396 517.021027 
L 565.2 517.021027 
" clip-path="url(#p2ba33e6632)" style="fill: none; stroke: #b0b0b0; stroke-opacity: 0.2; stroke-width: 0.8; stroke-linecap: square"/>
     </g>
     <g id="line2d_54">
      <g>
       <use xlink:href="#m47f4de24e2" x="83.396" y="517.021027" style="stroke: #000000; stroke-width: 0.8"/>
      </g>
     </g>
     <g id="text_22">
      <!-- 1.10 -->
      <g transform="translate(36.317875 523.85962) scale(0.18 -0.18)">
       <use xlink:href="#DejaVuSans-31"/>
       <use xlink:href="#DejaVuSans-2e" transform="translate(63.623047 0)"/>
       <use xlink:href="#DejaVuSans-31" transform="translate(95.410156 0)"/>
       <use xlink:href="#DejaVuSans-30" transform="translate(159.033203 0)"/>
      </g>
     </g>
    </g>
    <g id="ytick_11">
     <g id="line2d_55">
      <path d="M 83.396 473.841248 
L 565.2 473.841248 
" clip-path="url(#p2ba33e6632)" style="fill: none; stroke: #b0b0b0; stroke-opacity: 0.2; stroke-width: 0.8; stroke-linecap: square"/>
     </g>
     <g id="line2d_56">
      <g>
       <use xlink:href="#m47f4de24e2" x="83.396" y="473.841248" style="stroke: #000000; stroke-width: 0.8"/>
      </g>
     </g>
     <g id="text_23">
      <!-- 1.15 -->
      <g transform="translate(36.317875 480.679842) scale(0.18 -0.18)">
       <use xlink:href="#DejaVuSans-31"/>
       <use xlink:href="#DejaVuSans-2e" transform="translate(63.623047 0)"/>
       <use xlink:href="#DejaVuSans-31" transform="translate(95.410156 0)"/>
       <use xlink:href="#DejaVuSans-35" transform="translate(159.033203 0)"/>
      </g>
     </g>
    </g>
    <g id="ytick_12">
     <g id="line2d_57">
      <path d="M 83.396 430.66147 
L 565.2 430.66147 
" clip-path="url(#p2ba33e6632)" style="fill: none; stroke: #b0b0b0; stroke-opacity: 0.2; stroke-width: 0.8; stroke-linecap: square"/>
     </g>
     <g id="line2d_58">
      <g>
       <use xlink:href="#m47f4de24e2" x="83.396" y="430.66147" style="stroke: #000000; stroke-width: 0.8"/>
      </g>
     </g>
     <g id="text_24">
      <!-- 1.20 -->
      <g transform="translate(36.317875 437.500064) scale(0.18 -0.18)">
       <use xlink:href="#DejaVuSans-31"/>
       <use xlink:href="#DejaVuSans-2e" transform="translate(63.623047 0)"/>
       <use xlink:href="#DejaVuSans-32" transform="translate(95.410156 0)"/>
       <use xlink:href="#DejaVuSans-30" transform="translate(159.033203 0)"/>
      </g>
     </g>
    </g>
    <g id="ytick_13">
     <g id="line2d_59">
      <path d="M 83.396 387.481692 
L 565.2 387.481692 
" clip-path="url(#p2ba33e6632)" style="fill: none; stroke: #b0b0b0; stroke-opacity: 0.2; stroke-width: 0.8; stroke-linecap: square"/>
     </g>
     <g id="line2d_60">
      <g>
       <use xlink:href="#m47f4de24e2" x="83.396" y="387.481692" style="stroke: #000000; stroke-width: 0.8"/>
      </g>
     </g>
     <g id="text_25">
      <!-- 1.25 -->
      <g transform="translate(36.317875 394.320286) scale(0.18 -0.18)">
       <use xlink:href="#DejaVuSans-31"/>
       <use xlink:href="#DejaVuSans-2e" transform="translate(63.623047 0)"/>
       <use xlink:href="#DejaVuSans-32" transform="translate(95.410156 0)"/>
       <use xlink:href="#DejaVuSans-35" transform="translate(159.033203 0)"/>
      </g>
     </g>
    </g>
    <g id="text_26">
     <!-- $\sigma_{LE}/\sigma_{NL}$ -->
     <g transform="translate(28.1585 539.39) rotate(-90) scale(0.2 -0.2)">
      <defs>
       <path id="DejaVuSans-Oblique-4c" d="M 1075 4666 
L 1709 4666 
L 909 525 
L 3181 525 
L 3078 0 
L 172 0 
L 1075 4666 
z
" transform="scale(0.015625)"/>
       <path id="DejaVuSans-Oblique-45" d="M 1081 4666 
L 4031 4666 
L 3928 4134 
L 1606 4134 
L 1338 2753 
L 3566 2753 
L 3463 2222 
L 1234 2222 
L 909 531 
L 3284 531 
L 3181 0 
L 172 0 
L 1081 4666 
z
" transform="scale(0.015625)"/>
       <path id="DejaVuSans-2f" d="M 1625 4666 
L 2156 4666 
L 531 -594 
L 0 -594 
L 1625 4666 
z
" transform="scale(0.015625)"/>
       <path id="DejaVuSans-Oblique-4e" d="M 1081 4666 
L 1931 4666 
L 3219 666 
L 4000 4666 
L 4616 4666 
L 3706 0 
L 2853 0 
L 1569 4025 
L 788 0 
L 172 0 
L 1081 4666 
z
" transform="scale(0.015625)"/>
      </defs>
      <use xlink:href="#DejaVuSans-Oblique-3c3" transform="translate(0 0.09375)"/>
      <use xlink:href="#DejaVuSans-Oblique-4c" transform="translate(63.378906 -16.3125) scale(0.7)"/>
      <use xlink:href="#DejaVuSans-Oblique-45" transform="translate(102.37793 -16.3125) scale(0.7)"/>
      <use xlink:href="#DejaVuSans-2f" transform="translate(149.34082 0.09375)"/>
      <use xlink:href="#DejaVuSans-Oblique-3c3" transform="translate(183.032227 0.09375)"/>
      <use xlink:href="#DejaVuSans-Oblique-4e" transform="translate(246.411133 -16.3125) scale(0.7)"/>
      <use xlink:href="#DejaVuSans-Oblique-4c" transform="translate(298.774414 -16.3125) scale(0.7)"/>
     </g>
    </g>
   </g>
   <g id="line2d_61">
    <path d="M 83.396 641.130084 
L 86.035185 641.242755 
L 90.202318 641.691025 
L 95.425126 642.17659 
L 100.759057 642.428522 
L 108.509926 642.550953 
L 121.872535 642.512601 
L 143.402725 642.218813 
L 165.405191 641.702659 
L 180.768024 641.39043 
L 186.990944 641.499535 
L 193.630577 641.856628 
L 206.131978 642.554415 
L 213.577257 642.725855 
L 223.106103 642.695469 
L 296.503218 642.036304 
L 315.505348 642.395359 
L 353.620731 643.274415 
L 375.956568 644.058191 
L 407.154509 645.144309 
L 427.184531 645.602139 
L 445.631043 645.799794 
L 472.63407 645.827082 
L 504.137601 645.936288 
L 546.086747 646.354479 
L 565.227781 646.525818 
L 565.227781 646.525818 
" clip-path="url(#p2ba33e6632)" style="fill: none; stroke-dasharray: 11.1,4.8; stroke-dashoffset: 0; stroke: #0000ff; stroke-width: 3"/>
   </g>
   <g id="line2d_62">
    <path d="M 83.396 397.935159 
L 84.479455 397.824273 
L 85.646252 397.472075 
L 87.007516 396.817144 
L 89.146645 395.501718 
L 92.397009 393.536203 
L 94.508357 392.530596 
L 96.647485 391.759026 
L 98.98108 391.158748 
L 101.648046 390.708645 
L 104.842848 390.403493 
L 108.815516 390.258071 
L 113.899419 390.305363 
L 120.511271 390.599566 
L 128.817757 391.19923 
L 138.207699 392.101375 
L 147.847668 393.250023 
L 157.682104 394.64779 
L 177.128728 397.505463 
L 180.879148 397.74795 
L 184.073951 397.735068 
L 187.102068 397.501037 
L 190.407994 397.014832 
L 195.297431 396.038089 
L 204.215097 394.272276 
L 210.54914 393.241667 
L 216.577593 392.4963 
L 225.356355 391.659721 
L 234.524049 390.990945 
L 242.358261 390.64224 
L 250.386938 390.512303 
L 259.804661 390.592455 
L 290.308079 391.041465 
L 297.947824 390.751559 
L 331.257113 388.972794 
L 338.424583 388.331674 
L 345.119778 387.509791 
L 351.73163 386.47312 
L 358.510168 385.182428 
L 366.011008 383.520589 
L 376.456624 380.952663 
L 390.847125 377.444981 
L 399.181393 375.656817 
L 407.071166 374.19108 
L 415.016501 372.942022 
L 423.072959 371.901508 
L 431.268322 371.067826 
L 439.935961 370.412777 
L 449.798177 369.897906 
L 463.91087 369.409556 
L 487.469066 368.585588 
L 504.498752 367.733051 
L 530.640571 366.167516 
L 553.532026 364.874334 
L 565.227781 364.388806 
L 565.227781 364.388806 
" clip-path="url(#p2ba33e6632)" style="fill: none; stroke-dasharray: 3,4.95; stroke-dashoffset: 0; stroke: #0000ff; stroke-width: 3"/>
   </g>
   <g id="line2d_63">
    <path d="M 83.396 603.380583 
L 565.2 603.380583 
" clip-path="url(#p2ba33e6632)" style="fill: none; stroke: #000000; stroke-opacity: 0.25; stroke-width: 1.5; stroke-linecap: square"/>
   </g>
   <g id="patch_9">
    <path d="M 83.396 660.76 
L 83.396 349.82 
" style="fill: none; stroke: #000000; stroke-width: 0.8; stroke-linejoin: miter; stroke-linecap: square"/>
   </g>
   <g id="patch_10">
    <path d="M 565.2 660.76 
L 565.2 349.82 
" style="fill: none; stroke: #000000; stroke-width: 0.8; stroke-linejoin: miter; stroke-linecap: square"/>
   </g>
   <g id="patch_11">
    <path d="M 83.396 660.76 
L 565.2 660.76 
" style="fill: none; stroke: #000000; stroke-width: 0.8; stroke-linejoin: miter; stroke-linecap: square"/>
   </g>
   <g id="patch_12">
    <path d="M 83.396 349.82 
L 565.2 349.82 
" style="fill: none; stroke: #000000; stroke-width: 0.8; stroke-linejoin: miter; stroke-linecap: square"/>
   </g>
   <g id="legend_2">
    <g id="patch_13">
     <path d="M 450.875 531.175 
L 554 531.175 
Q 557.2 531.175 557.2 527.975 
L 557.2 482.605 
Q 557.2 479.405 554 479.405 
L 450.875 479.405 
Q 447.675 479.405 447.675 482.605 
L 447.675 527.975 
Q 447.675 531.175 450.875 531.175 
z
" style="fill: #ffffff; opacity: 0.8; stroke: #cccccc; stroke-linejoin: miter"/>
    </g>
    <g id="line2d_64">
     <path d="M 454.075 492.3625 
L 470.075 492.3625 
L 486.075 492.3625 
" style="fill: none; stroke-dasharray: 11.1,4.8; stroke-dashoffset: 0; stroke: #0000ff; stroke-width: 3"/>
    </g>
    <g id="text_27">
     <!-- LENLO -->
     <g transform="translate(498.875 497.9625) scale(0.16 -0.16)">
      <use xlink:href="#DejaVuSans-4c"/>
      <use xlink:href="#DejaVuSans-45" transform="translate(55.712891 0)"/>
      <use xlink:href="#DejaVuSans-4e" transform="translate(118.896484 0)"/>
      <use xlink:href="#DejaVuSans-4c" transform="translate(193.701172 0)"/>
      <use xlink:href="#DejaVuSans-4f" transform="translate(245.789062 0)"/>
     </g>
    </g>
    <g id="line2d_65">
     <path d="M 454.075 515.8475 
L 470.075 515.8475 
L 486.075 515.8475 
" style="fill: none; stroke-dasharray: 3,4.95; stroke-dashoffset: 0; stroke: #0000ff; stroke-width: 3"/>
    </g>
    <g id="text_28">
     <!-- LELO -->
     <g transform="translate(498.875 521.4475) scale(0.16 -0.16)">
      <use xlink:href="#DejaVuSans-4c"/>
      <use xlink:href="#DejaVuSans-45" transform="translate(55.712891 0)"/>
      <use xlink:href="#DejaVuSans-4c" transform="translate(118.896484 0)"/>
      <use xlink:href="#DejaVuSans-4f" transform="translate(170.984375 0)"/>
     </g>
    </g>
   </g>
  </g>
 </g>
 <defs>
  <clipPath id="pa2d4fde11f">
   <rect x="83.396" y="17.64" width="481.804" height="310.94"/>
  </clipPath>
  <clipPath id="p2ba33e6632">
   <rect x="83.396" y="349.82" width="481.804" height="310.94"/>
  </clipPath>
 </defs>
</svg>
